<?xml version="1.0" encoding="utf-8" standalone="no"?>
<!DOCTYPE svg PUBLIC "-//W3C//DTD SVG 1.1//EN"
  "http://www.w3.org/Graphics/SVG/1.1/DTD/svg11.dtd">
<svg xmlns:xlink="http://www.w3.org/1999/xlink" width="576pt" height="432pt" viewBox="0 0 576 432" xmlns="http://www.w3.org/2000/svg" version="1.1">
 <metadata>
  <rdf:RDF xmlns:dc="http://purl.org/dc/elements/1.1/" xmlns:cc="http://creativecommons.org/ns#" xmlns:rdf="http://www.w3.org/1999/02/22-rdf-syntax-ns#">
   <cc:Work>
    <dc:type rdf:resource="http://purl.org/dc/dcmitype/StillImage"/>
    <dc:date>2023-10-26T19:27:23.095811</dc:date>
    <dc:format>image/svg+xml</dc:format>
    <dc:creator>
     <cc:Agent>
      <dc:title>Matplotlib v3.5.1, https://matplotlib.org/</dc:title>
     </cc:Agent>
    </dc:creator>
   </cc:Work>
  </rdf:RDF>
 </metadata>
 <defs>
  <style type="text/css">*{stroke-linejoin: round; stroke-linecap: butt}</style>
 </defs>
 <g id="figure_1">
  <g id="patch_1">
   <path d="M 0 432 
L 576 432 
L 576 0 
L 0 0 
z
" style="fill: #ffffff"/>
  </g>
  <g id="axes_1">
   <g id="patch_2">
    <path d="M 87.77 367 
L 556.56 367 
L 556.56 26.28 
L 87.77 26.28 
z
" style="fill: #ffffff"/>
   </g>
   <g id="matplotlib.axis_1">
    <g id="xtick_1">
     <g id="line2d_1">
      <defs>
       <path id="m06ec2c3ea8" d="M 0 0 
L 0 3.5 
" style="stroke: #000000; stroke-width: 0.8"/>
      </defs>
      <g>
       <use xlink:href="#m06ec2c3ea8" x="123.051513" y="367" style="stroke: #000000; stroke-width: 0.8"/>
      </g>
     </g>
     <g id="text_1">
      <!-- 2 -->
      <g transform="translate(117.325263 387.677187)scale(0.18 -0.18)">
       <defs>
        <path id="DejaVuSans-32" d="M 1228 531 
L 3431 531 
L 3431 0 
L 469 0 
L 469 531 
Q 828 903 1448 1529 
Q 2069 2156 2228 2338 
Q 2531 2678 2651 2914 
Q 2772 3150 2772 3378 
Q 2772 3750 2511 3984 
Q 2250 4219 1831 4219 
Q 1534 4219 1204 4116 
Q 875 4013 500 3803 
L 500 4441 
Q 881 4594 1212 4672 
Q 1544 4750 1819 4750 
Q 2544 4750 2975 4387 
Q 3406 4025 3406 3419 
Q 3406 3131 3298 2873 
Q 3191 2616 2906 2266 
Q 2828 2175 2409 1742 
Q 1991 1309 1228 531 
z
" transform="scale(0.015625)"/>
       </defs>
       <use xlink:href="#DejaVuSans-32"/>
      </g>
     </g>
    </g>
    <g id="xtick_2">
     <g id="line2d_2">
      <g>
       <use xlink:href="#m06ec2c3ea8" x="220.861647" y="367" style="stroke: #000000; stroke-width: 0.8"/>
      </g>
     </g>
     <g id="text_2">
      <!-- 16 -->
      <g transform="translate(209.409147 387.677187)scale(0.18 -0.18)">
       <defs>
        <path id="DejaVuSans-31" d="M 794 531 
L 1825 531 
L 1825 4091 
L 703 3866 
L 703 4441 
L 1819 4666 
L 2450 4666 
L 2450 531 
L 3481 531 
L 3481 0 
L 794 0 
L 794 531 
z
" transform="scale(0.015625)"/>
        <path id="DejaVuSans-36" d="M 2113 2584 
Q 1688 2584 1439 2293 
Q 1191 2003 1191 1497 
Q 1191 994 1439 701 
Q 1688 409 2113 409 
Q 2538 409 2786 701 
Q 3034 994 3034 1497 
Q 3034 2003 2786 2293 
Q 2538 2584 2113 2584 
z
M 3366 4563 
L 3366 3988 
Q 3128 4100 2886 4159 
Q 2644 4219 2406 4219 
Q 1781 4219 1451 3797 
Q 1122 3375 1075 2522 
Q 1259 2794 1537 2939 
Q 1816 3084 2150 3084 
Q 2853 3084 3261 2657 
Q 3669 2231 3669 1497 
Q 3669 778 3244 343 
Q 2819 -91 2113 -91 
Q 1303 -91 875 529 
Q 447 1150 447 2328 
Q 447 3434 972 4092 
Q 1497 4750 2381 4750 
Q 2619 4750 2861 4703 
Q 3103 4656 3366 4563 
z
" transform="scale(0.015625)"/>
       </defs>
       <use xlink:href="#DejaVuSans-31"/>
       <use xlink:href="#DejaVuSans-36" x="63.623047"/>
      </g>
     </g>
    </g>
    <g id="xtick_3">
     <g id="line2d_3">
      <g>
       <use xlink:href="#m06ec2c3ea8" x="318.671781" y="367" style="stroke: #000000; stroke-width: 0.8"/>
      </g>
     </g>
     <g id="text_3">
      <!-- 30 -->
      <g transform="translate(307.219281 387.677187)scale(0.18 -0.18)">
       <defs>
        <path id="DejaVuSans-33" d="M 2597 2516 
Q 3050 2419 3304 2112 
Q 3559 1806 3559 1356 
Q 3559 666 3084 287 
Q 2609 -91 1734 -91 
Q 1441 -91 1130 -33 
Q 819 25 488 141 
L 488 750 
Q 750 597 1062 519 
Q 1375 441 1716 441 
Q 2309 441 2620 675 
Q 2931 909 2931 1356 
Q 2931 1769 2642 2001 
Q 2353 2234 1838 2234 
L 1294 2234 
L 1294 2753 
L 1863 2753 
Q 2328 2753 2575 2939 
Q 2822 3125 2822 3475 
Q 2822 3834 2567 4026 
Q 2313 4219 1838 4219 
Q 1578 4219 1281 4162 
Q 984 4106 628 3988 
L 628 4550 
Q 988 4650 1302 4700 
Q 1616 4750 1894 4750 
Q 2613 4750 3031 4423 
Q 3450 4097 3450 3541 
Q 3450 3153 3228 2886 
Q 3006 2619 2597 2516 
z
" transform="scale(0.015625)"/>
        <path id="DejaVuSans-30" d="M 2034 4250 
Q 1547 4250 1301 3770 
Q 1056 3291 1056 2328 
Q 1056 1369 1301 889 
Q 1547 409 2034 409 
Q 2525 409 2770 889 
Q 3016 1369 3016 2328 
Q 3016 3291 2770 3770 
Q 2525 4250 2034 4250 
z
M 2034 4750 
Q 2819 4750 3233 4129 
Q 3647 3509 3647 2328 
Q 3647 1150 3233 529 
Q 2819 -91 2034 -91 
Q 1250 -91 836 529 
Q 422 1150 422 2328 
Q 422 3509 836 4129 
Q 1250 4750 2034 4750 
z
" transform="scale(0.015625)"/>
       </defs>
       <use xlink:href="#DejaVuSans-33"/>
       <use xlink:href="#DejaVuSans-30" x="63.623047"/>
      </g>
     </g>
    </g>
    <g id="xtick_4">
     <g id="line2d_4">
      <g>
       <use xlink:href="#m06ec2c3ea8" x="416.481915" y="367" style="stroke: #000000; stroke-width: 0.8"/>
      </g>
     </g>
     <g id="text_4">
      <!-- 44 -->
      <g transform="translate(405.029415 387.677187)scale(0.18 -0.18)">
       <defs>
        <path id="DejaVuSans-34" d="M 2419 4116 
L 825 1625 
L 2419 1625 
L 2419 4116 
z
M 2253 4666 
L 3047 4666 
L 3047 1625 
L 3713 1625 
L 3713 1100 
L 3047 1100 
L 3047 0 
L 2419 0 
L 2419 1100 
L 313 1100 
L 313 1709 
L 2253 4666 
z
" transform="scale(0.015625)"/>
       </defs>
       <use xlink:href="#DejaVuSans-34"/>
       <use xlink:href="#DejaVuSans-34" x="63.623047"/>
      </g>
     </g>
    </g>
    <g id="xtick_5">
     <g id="line2d_5">
      <g>
       <use xlink:href="#m06ec2c3ea8" x="514.292049" y="367" style="stroke: #000000; stroke-width: 0.8"/>
      </g>
     </g>
     <g id="text_5">
      <!-- 58 -->
      <g transform="translate(502.839549 387.677187)scale(0.18 -0.18)">
       <defs>
        <path id="DejaVuSans-35" d="M 691 4666 
L 3169 4666 
L 3169 4134 
L 1269 4134 
L 1269 2991 
Q 1406 3038 1543 3061 
Q 1681 3084 1819 3084 
Q 2600 3084 3056 2656 
Q 3513 2228 3513 1497 
Q 3513 744 3044 326 
Q 2575 -91 1722 -91 
Q 1428 -91 1123 -41 
Q 819 9 494 109 
L 494 744 
Q 775 591 1075 516 
Q 1375 441 1709 441 
Q 2250 441 2565 725 
Q 2881 1009 2881 1497 
Q 2881 1984 2565 2268 
Q 2250 2553 1709 2553 
Q 1456 2553 1204 2497 
Q 953 2441 691 2322 
L 691 4666 
z
" transform="scale(0.015625)"/>
        <path id="DejaVuSans-38" d="M 2034 2216 
Q 1584 2216 1326 1975 
Q 1069 1734 1069 1313 
Q 1069 891 1326 650 
Q 1584 409 2034 409 
Q 2484 409 2743 651 
Q 3003 894 3003 1313 
Q 3003 1734 2745 1975 
Q 2488 2216 2034 2216 
z
M 1403 2484 
Q 997 2584 770 2862 
Q 544 3141 544 3541 
Q 544 4100 942 4425 
Q 1341 4750 2034 4750 
Q 2731 4750 3128 4425 
Q 3525 4100 3525 3541 
Q 3525 3141 3298 2862 
Q 3072 2584 2669 2484 
Q 3125 2378 3379 2068 
Q 3634 1759 3634 1313 
Q 3634 634 3220 271 
Q 2806 -91 2034 -91 
Q 1263 -91 848 271 
Q 434 634 434 1313 
Q 434 1759 690 2068 
Q 947 2378 1403 2484 
z
M 1172 3481 
Q 1172 3119 1398 2916 
Q 1625 2713 2034 2713 
Q 2441 2713 2670 2916 
Q 2900 3119 2900 3481 
Q 2900 3844 2670 4047 
Q 2441 4250 2034 4250 
Q 1625 4250 1398 4047 
Q 1172 3844 1172 3481 
z
" transform="scale(0.015625)"/>
       </defs>
       <use xlink:href="#DejaVuSans-35"/>
       <use xlink:href="#DejaVuSans-38" x="63.623047"/>
      </g>
     </g>
    </g>
    <g id="text_6">
     <!-- step -->
     <g transform="translate(302.696875 409.097812)scale(0.18 -0.18)">
      <defs>
       <path id="DejaVuSans-73" d="M 2834 3397 
L 2834 2853 
Q 2591 2978 2328 3040 
Q 2066 3103 1784 3103 
Q 1356 3103 1142 2972 
Q 928 2841 928 2578 
Q 928 2378 1081 2264 
Q 1234 2150 1697 2047 
L 1894 2003 
Q 2506 1872 2764 1633 
Q 3022 1394 3022 966 
Q 3022 478 2636 193 
Q 2250 -91 1575 -91 
Q 1294 -91 989 -36 
Q 684 19 347 128 
L 347 722 
Q 666 556 975 473 
Q 1284 391 1588 391 
Q 1994 391 2212 530 
Q 2431 669 2431 922 
Q 2431 1156 2273 1281 
Q 2116 1406 1581 1522 
L 1381 1569 
Q 847 1681 609 1914 
Q 372 2147 372 2553 
Q 372 3047 722 3315 
Q 1072 3584 1716 3584 
Q 2034 3584 2315 3537 
Q 2597 3491 2834 3397 
z
" transform="scale(0.015625)"/>
       <path id="DejaVuSans-74" d="M 1172 4494 
L 1172 3500 
L 2356 3500 
L 2356 3053 
L 1172 3053 
L 1172 1153 
Q 1172 725 1289 603 
Q 1406 481 1766 481 
L 2356 481 
L 2356 0 
L 1766 0 
Q 1100 0 847 248 
Q 594 497 594 1153 
L 594 3053 
L 172 3053 
L 172 3500 
L 594 3500 
L 594 4494 
L 1172 4494 
z
" transform="scale(0.015625)"/>
       <path id="DejaVuSans-65" d="M 3597 1894 
L 3597 1613 
L 953 1613 
Q 991 1019 1311 708 
Q 1631 397 2203 397 
Q 2534 397 2845 478 
Q 3156 559 3463 722 
L 3463 178 
Q 3153 47 2828 -22 
Q 2503 -91 2169 -91 
Q 1331 -91 842 396 
Q 353 884 353 1716 
Q 353 2575 817 3079 
Q 1281 3584 2069 3584 
Q 2775 3584 3186 3129 
Q 3597 2675 3597 1894 
z
M 3022 2063 
Q 3016 2534 2758 2815 
Q 2500 3097 2075 3097 
Q 1594 3097 1305 2825 
Q 1016 2553 972 2059 
L 3022 2063 
z
" transform="scale(0.015625)"/>
       <path id="DejaVuSans-70" d="M 1159 525 
L 1159 -1331 
L 581 -1331 
L 581 3500 
L 1159 3500 
L 1159 2969 
Q 1341 3281 1617 3432 
Q 1894 3584 2278 3584 
Q 2916 3584 3314 3078 
Q 3713 2572 3713 1747 
Q 3713 922 3314 415 
Q 2916 -91 2278 -91 
Q 1894 -91 1617 61 
Q 1341 213 1159 525 
z
M 3116 1747 
Q 3116 2381 2855 2742 
Q 2594 3103 2138 3103 
Q 1681 3103 1420 2742 
Q 1159 2381 1159 1747 
Q 1159 1113 1420 752 
Q 1681 391 2138 391 
Q 2594 391 2855 752 
Q 3116 1113 3116 1747 
z
" transform="scale(0.015625)"/>
      </defs>
      <use xlink:href="#DejaVuSans-73"/>
      <use xlink:href="#DejaVuSans-74" x="52.099609"/>
      <use xlink:href="#DejaVuSans-65" x="91.308594"/>
      <use xlink:href="#DejaVuSans-70" x="152.832031"/>
     </g>
    </g>
   </g>
   <g id="matplotlib.axis_2">
    <g id="ytick_1">
     <g id="line2d_6">
      <defs>
       <path id="m204f3c35d4" d="M 0 0 
L -3.5 0 
" style="stroke: #000000; stroke-width: 0.8"/>
      </defs>
      <g>
       <use xlink:href="#m204f3c35d4" x="87.77" y="352.378071" style="stroke: #000000; stroke-width: 0.8"/>
      </g>
     </g>
     <g id="text_7">
      <!-- 0.13 -->
      <g transform="translate(40.691875 359.216665)scale(0.18 -0.18)">
       <defs>
        <path id="DejaVuSans-2e" d="M 684 794 
L 1344 794 
L 1344 0 
L 684 0 
L 684 794 
z
" transform="scale(0.015625)"/>
       </defs>
       <use xlink:href="#DejaVuSans-30"/>
       <use xlink:href="#DejaVuSans-2e" x="63.623047"/>
       <use xlink:href="#DejaVuSans-31" x="95.410156"/>
       <use xlink:href="#DejaVuSans-33" x="159.033203"/>
      </g>
     </g>
    </g>
    <g id="ytick_2">
     <g id="line2d_7">
      <g>
       <use xlink:href="#m204f3c35d4" x="87.77" y="270.853553" style="stroke: #000000; stroke-width: 0.8"/>
      </g>
     </g>
     <g id="text_8">
      <!-- 0.38 -->
      <g transform="translate(40.691875 277.692147)scale(0.18 -0.18)">
       <use xlink:href="#DejaVuSans-30"/>
       <use xlink:href="#DejaVuSans-2e" x="63.623047"/>
       <use xlink:href="#DejaVuSans-33" x="95.410156"/>
       <use xlink:href="#DejaVuSans-38" x="159.033203"/>
      </g>
     </g>
    </g>
    <g id="ytick_3">
     <g id="line2d_8">
      <g>
       <use xlink:href="#m204f3c35d4" x="87.77" y="189.329035" style="stroke: #000000; stroke-width: 0.8"/>
      </g>
     </g>
     <g id="text_9">
      <!-- 0.63 -->
      <g transform="translate(40.691875 196.167629)scale(0.18 -0.18)">
       <use xlink:href="#DejaVuSans-30"/>
       <use xlink:href="#DejaVuSans-2e" x="63.623047"/>
       <use xlink:href="#DejaVuSans-36" x="95.410156"/>
       <use xlink:href="#DejaVuSans-33" x="159.033203"/>
      </g>
     </g>
    </g>
    <g id="ytick_4">
     <g id="line2d_9">
      <g>
       <use xlink:href="#m204f3c35d4" x="87.77" y="107.804518" style="stroke: #000000; stroke-width: 0.8"/>
      </g>
     </g>
     <g id="text_10">
      <!-- 0.88 -->
      <g transform="translate(40.691875 114.643111)scale(0.18 -0.18)">
       <use xlink:href="#DejaVuSans-30"/>
       <use xlink:href="#DejaVuSans-2e" x="63.623047"/>
       <use xlink:href="#DejaVuSans-38" x="95.410156"/>
       <use xlink:href="#DejaVuSans-38" x="159.033203"/>
      </g>
     </g>
    </g>
    <g id="ytick_5">
     <g id="line2d_10">
      <g>
       <use xlink:href="#m204f3c35d4" x="87.77" y="26.28" style="stroke: #000000; stroke-width: 0.8"/>
      </g>
     </g>
     <g id="text_11">
      <!-- 1.13 -->
      <g transform="translate(40.691875 33.118594)scale(0.18 -0.18)">
       <use xlink:href="#DejaVuSans-31"/>
       <use xlink:href="#DejaVuSans-2e" x="63.623047"/>
       <use xlink:href="#DejaVuSans-31" x="95.410156"/>
       <use xlink:href="#DejaVuSans-33" x="159.033203"/>
      </g>
     </g>
    </g>
    <g id="text_12">
     <!-- Index of Disperssion D -->
     <g transform="translate(32.948438 297.763438)rotate(-90)scale(0.18 -0.18)">
      <defs>
       <path id="DejaVuSans-49" d="M 628 4666 
L 1259 4666 
L 1259 0 
L 628 0 
L 628 4666 
z
" transform="scale(0.015625)"/>
       <path id="DejaVuSans-6e" d="M 3513 2113 
L 3513 0 
L 2938 0 
L 2938 2094 
Q 2938 2591 2744 2837 
Q 2550 3084 2163 3084 
Q 1697 3084 1428 2787 
Q 1159 2491 1159 1978 
L 1159 0 
L 581 0 
L 581 3500 
L 1159 3500 
L 1159 2956 
Q 1366 3272 1645 3428 
Q 1925 3584 2291 3584 
Q 2894 3584 3203 3211 
Q 3513 2838 3513 2113 
z
" transform="scale(0.015625)"/>
       <path id="DejaVuSans-64" d="M 2906 2969 
L 2906 4863 
L 3481 4863 
L 3481 0 
L 2906 0 
L 2906 525 
Q 2725 213 2448 61 
Q 2172 -91 1784 -91 
Q 1150 -91 751 415 
Q 353 922 353 1747 
Q 353 2572 751 3078 
Q 1150 3584 1784 3584 
Q 2172 3584 2448 3432 
Q 2725 3281 2906 2969 
z
M 947 1747 
Q 947 1113 1208 752 
Q 1469 391 1925 391 
Q 2381 391 2643 752 
Q 2906 1113 2906 1747 
Q 2906 2381 2643 2742 
Q 2381 3103 1925 3103 
Q 1469 3103 1208 2742 
Q 947 2381 947 1747 
z
" transform="scale(0.015625)"/>
       <path id="DejaVuSans-78" d="M 3513 3500 
L 2247 1797 
L 3578 0 
L 2900 0 
L 1881 1375 
L 863 0 
L 184 0 
L 1544 1831 
L 300 3500 
L 978 3500 
L 1906 2253 
L 2834 3500 
L 3513 3500 
z
" transform="scale(0.015625)"/>
       <path id="DejaVuSans-20" transform="scale(0.015625)"/>
       <path id="DejaVuSans-6f" d="M 1959 3097 
Q 1497 3097 1228 2736 
Q 959 2375 959 1747 
Q 959 1119 1226 758 
Q 1494 397 1959 397 
Q 2419 397 2687 759 
Q 2956 1122 2956 1747 
Q 2956 2369 2687 2733 
Q 2419 3097 1959 3097 
z
M 1959 3584 
Q 2709 3584 3137 3096 
Q 3566 2609 3566 1747 
Q 3566 888 3137 398 
Q 2709 -91 1959 -91 
Q 1206 -91 779 398 
Q 353 888 353 1747 
Q 353 2609 779 3096 
Q 1206 3584 1959 3584 
z
" transform="scale(0.015625)"/>
       <path id="DejaVuSans-66" d="M 2375 4863 
L 2375 4384 
L 1825 4384 
Q 1516 4384 1395 4259 
Q 1275 4134 1275 3809 
L 1275 3500 
L 2222 3500 
L 2222 3053 
L 1275 3053 
L 1275 0 
L 697 0 
L 697 3053 
L 147 3053 
L 147 3500 
L 697 3500 
L 697 3744 
Q 697 4328 969 4595 
Q 1241 4863 1831 4863 
L 2375 4863 
z
" transform="scale(0.015625)"/>
       <path id="DejaVuSans-44" d="M 1259 4147 
L 1259 519 
L 2022 519 
Q 2988 519 3436 956 
Q 3884 1394 3884 2338 
Q 3884 3275 3436 3711 
Q 2988 4147 2022 4147 
L 1259 4147 
z
M 628 4666 
L 1925 4666 
Q 3281 4666 3915 4102 
Q 4550 3538 4550 2338 
Q 4550 1131 3912 565 
Q 3275 0 1925 0 
L 628 0 
L 628 4666 
z
" transform="scale(0.015625)"/>
       <path id="DejaVuSans-69" d="M 603 3500 
L 1178 3500 
L 1178 0 
L 603 0 
L 603 3500 
z
M 603 4863 
L 1178 4863 
L 1178 4134 
L 603 4134 
L 603 4863 
z
" transform="scale(0.015625)"/>
       <path id="DejaVuSans-72" d="M 2631 2963 
Q 2534 3019 2420 3045 
Q 2306 3072 2169 3072 
Q 1681 3072 1420 2755 
Q 1159 2438 1159 1844 
L 1159 0 
L 581 0 
L 581 3500 
L 1159 3500 
L 1159 2956 
Q 1341 3275 1631 3429 
Q 1922 3584 2338 3584 
Q 2397 3584 2469 3576 
Q 2541 3569 2628 3553 
L 2631 2963 
z
" transform="scale(0.015625)"/>
      </defs>
      <use xlink:href="#DejaVuSans-49"/>
      <use xlink:href="#DejaVuSans-6e" x="29.492188"/>
      <use xlink:href="#DejaVuSans-64" x="92.871094"/>
      <use xlink:href="#DejaVuSans-65" x="156.347656"/>
      <use xlink:href="#DejaVuSans-78" x="216.121094"/>
      <use xlink:href="#DejaVuSans-20" x="275.300781"/>
      <use xlink:href="#DejaVuSans-6f" x="307.087891"/>
      <use xlink:href="#DejaVuSans-66" x="368.269531"/>
      <use xlink:href="#DejaVuSans-20" x="403.474609"/>
      <use xlink:href="#DejaVuSans-44" x="435.261719"/>
      <use xlink:href="#DejaVuSans-69" x="512.263672"/>
      <use xlink:href="#DejaVuSans-73" x="540.046875"/>
      <use xlink:href="#DejaVuSans-70" x="592.146484"/>
      <use xlink:href="#DejaVuSans-65" x="655.623047"/>
      <use xlink:href="#DejaVuSans-72" x="717.146484"/>
      <use xlink:href="#DejaVuSans-73" x="758.259766"/>
      <use xlink:href="#DejaVuSans-73" x="810.359375"/>
      <use xlink:href="#DejaVuSans-69" x="862.458984"/>
      <use xlink:href="#DejaVuSans-6f" x="890.242188"/>
      <use xlink:href="#DejaVuSans-6e" x="951.423828"/>
      <use xlink:href="#DejaVuSans-20" x="1014.802734"/>
      <use xlink:href="#DejaVuSans-44" x="1046.589844"/>
     </g>
    </g>
   </g>
   <g id="line2d_11">
    <defs>
     <path id="m3f5e8eb37b" d="M 0 3 
C 0.795609 3 1.55874 2.683901 2.12132 2.12132 
C 2.683901 1.55874 3 0.795609 3 0 
C 3 -0.795609 2.683901 -1.55874 2.12132 -2.12132 
C 1.55874 -2.683901 0.795609 -3 0 -3 
C -0.795609 -3 -1.55874 -2.683901 -2.12132 -2.12132 
C -2.683901 -1.55874 -3 -0.795609 -3 0 
C -3 0.795609 -2.683901 1.55874 -2.12132 2.12132 
C -1.55874 2.683901 -0.795609 3 0 3 
z
" style="stroke: #42c1eb"/>
    </defs>
    <g clip-path="url(#p9965a2b475)">
     <use xlink:href="#m3f5e8eb37b" x="123.051513" y="72.755551" style="fill: #42c1eb; stroke: #42c1eb"/>
     <use xlink:href="#m3f5e8eb37b" x="150.997265" y="72.257502" style="fill: #42c1eb; stroke: #42c1eb"/>
     <use xlink:href="#m3f5e8eb37b" x="164.970142" y="82.255788" style="fill: #42c1eb; stroke: #42c1eb"/>
     <use xlink:href="#m3f5e8eb37b" x="192.915894" y="80.28972" style="fill: #42c1eb; stroke: #42c1eb"/>
     <use xlink:href="#m3f5e8eb37b" x="206.88877" y="93.334358" style="fill: #42c1eb; stroke: #42c1eb"/>
     <use xlink:href="#m3f5e8eb37b" x="220.861647" y="78.809629" style="fill: #42c1eb; stroke: #42c1eb"/>
     <use xlink:href="#m3f5e8eb37b" x="234.834523" y="63.496316" style="fill: #42c1eb; stroke: #42c1eb"/>
     <use xlink:href="#m3f5e8eb37b" x="248.807399" y="81.349173" style="fill: #42c1eb; stroke: #42c1eb"/>
     <use xlink:href="#m3f5e8eb37b" x="262.780276" y="62.602201" style="fill: #42c1eb; stroke: #42c1eb"/>
     <use xlink:href="#m3f5e8eb37b" x="269.766714" y="67.401422" style="fill: #42c1eb; stroke: #42c1eb"/>
     <use xlink:href="#m3f5e8eb37b" x="283.73959" y="73.141905" style="fill: #42c1eb; stroke: #42c1eb"/>
     <use xlink:href="#m3f5e8eb37b" x="290.726028" y="71.88861" style="fill: #42c1eb; stroke: #42c1eb"/>
     <use xlink:href="#m3f5e8eb37b" x="304.698905" y="74.093566" style="fill: #42c1eb; stroke: #42c1eb"/>
     <use xlink:href="#m3f5e8eb37b" x="318.671781" y="87.885951" style="fill: #42c1eb; stroke: #42c1eb"/>
     <use xlink:href="#m3f5e8eb37b" x="332.644657" y="89.179843" style="fill: #42c1eb; stroke: #42c1eb"/>
     <use xlink:href="#m3f5e8eb37b" x="346.617534" y="99.704529" style="fill: #42c1eb; stroke: #42c1eb"/>
     <use xlink:href="#m3f5e8eb37b" x="360.59041" y="108.383723" style="fill: #42c1eb; stroke: #42c1eb"/>
     <use xlink:href="#m3f5e8eb37b" x="374.563286" y="111.920308" style="fill: #42c1eb; stroke: #42c1eb"/>
     <use xlink:href="#m3f5e8eb37b" x="388.536162" y="146.459258" style="fill: #42c1eb; stroke: #42c1eb"/>
     <use xlink:href="#m3f5e8eb37b" x="402.509039" y="163.312611" style="fill: #42c1eb; stroke: #42c1eb"/>
     <use xlink:href="#m3f5e8eb37b" x="416.481915" y="171.846705" style="fill: #42c1eb; stroke: #42c1eb"/>
     <use xlink:href="#m3f5e8eb37b" x="430.454791" y="188.228914" style="fill: #42c1eb; stroke: #42c1eb"/>
     <use xlink:href="#m3f5e8eb37b" x="444.427668" y="203.499449" style="fill: #42c1eb; stroke: #42c1eb"/>
     <use xlink:href="#m3f5e8eb37b" x="458.400544" y="219.377966" style="fill: #42c1eb; stroke: #42c1eb"/>
     <use xlink:href="#m3f5e8eb37b" x="472.37342" y="235.410498" style="fill: #42c1eb; stroke: #42c1eb"/>
     <use xlink:href="#m3f5e8eb37b" x="486.346297" y="252.617233" style="fill: #42c1eb; stroke: #42c1eb"/>
     <use xlink:href="#m3f5e8eb37b" x="500.319173" y="271.837301" style="fill: #42c1eb; stroke: #42c1eb"/>
     <use xlink:href="#m3f5e8eb37b" x="514.292049" y="285.093837" style="fill: #42c1eb; stroke: #42c1eb"/>
    </g>
   </g>
   <g id="line2d_12">
    <defs>
     <path id="mc492af80ac" d="M 0 -3 
L -3 3 
L 3 3 
z
" style="stroke: #ed4242; stroke-linejoin: miter"/>
    </defs>
    <g clip-path="url(#p9965a2b475)">
     <use xlink:href="#mc492af80ac" x="123.051513" y="59.939487" style="fill: #ed4242; stroke: #ed4242; stroke-linejoin: miter"/>
     <use xlink:href="#mc492af80ac" x="150.997265" y="86.284806" style="fill: #ed4242; stroke: #ed4242; stroke-linejoin: miter"/>
     <use xlink:href="#mc492af80ac" x="164.970142" y="163.662352" style="fill: #ed4242; stroke: #ed4242; stroke-linejoin: miter"/>
     <use xlink:href="#mc492af80ac" x="192.915894" y="330.001146" style="fill: #ed4242; stroke: #ed4242; stroke-linejoin: miter"/>
     <use xlink:href="#mc492af80ac" x="206.88877" y="337.417788" style="fill: #ed4242; stroke: #ed4242; stroke-linejoin: miter"/>
     <use xlink:href="#mc492af80ac" x="220.861647" y="343.329166" style="fill: #ed4242; stroke: #ed4242; stroke-linejoin: miter"/>
     <use xlink:href="#mc492af80ac" x="234.834523" y="345.387568" style="fill: #ed4242; stroke: #ed4242; stroke-linejoin: miter"/>
     <use xlink:href="#mc492af80ac" x="248.807399" y="340.601291" style="fill: #ed4242; stroke: #ed4242; stroke-linejoin: miter"/>
     <use xlink:href="#mc492af80ac" x="262.780276" y="346.386923" style="fill: #ed4242; stroke: #ed4242; stroke-linejoin: miter"/>
     <use xlink:href="#mc492af80ac" x="269.766714" y="338.960789" style="fill: #ed4242; stroke: #ed4242; stroke-linejoin: miter"/>
     <use xlink:href="#mc492af80ac" x="290.726028" y="347.289185" style="fill: #ed4242; stroke: #ed4242; stroke-linejoin: miter"/>
     <use xlink:href="#mc492af80ac" x="304.698905" y="343.885661" style="fill: #ed4242; stroke: #ed4242; stroke-linejoin: miter"/>
     <use xlink:href="#mc492af80ac" x="318.671781" y="339.130574" style="fill: #ed4242; stroke: #ed4242; stroke-linejoin: miter"/>
     <use xlink:href="#mc492af80ac" x="332.644657" y="347.6252" style="fill: #ed4242; stroke: #ed4242; stroke-linejoin: miter"/>
     <use xlink:href="#mc492af80ac" x="346.617534" y="341.776664" style="fill: #ed4242; stroke: #ed4242; stroke-linejoin: miter"/>
     <use xlink:href="#mc492af80ac" x="360.59041" y="338.535622" style="fill: #ed4242; stroke: #ed4242; stroke-linejoin: miter"/>
     <use xlink:href="#mc492af80ac" x="374.563286" y="345.400413" style="fill: #ed4242; stroke: #ed4242; stroke-linejoin: miter"/>
     <use xlink:href="#mc492af80ac" x="388.536162" y="345.363726" style="fill: #ed4242; stroke: #ed4242; stroke-linejoin: miter"/>
     <use xlink:href="#mc492af80ac" x="402.509039" y="343.847056" style="fill: #ed4242; stroke: #ed4242; stroke-linejoin: miter"/>
     <use xlink:href="#mc492af80ac" x="416.481915" y="339.361067" style="fill: #ed4242; stroke: #ed4242; stroke-linejoin: miter"/>
     <use xlink:href="#mc492af80ac" x="430.454791" y="345.481387" style="fill: #ed4242; stroke: #ed4242; stroke-linejoin: miter"/>
     <use xlink:href="#mc492af80ac" x="444.427668" y="346.987111" style="fill: #ed4242; stroke: #ed4242; stroke-linejoin: miter"/>
     <use xlink:href="#mc492af80ac" x="458.400544" y="343.283543" style="fill: #ed4242; stroke: #ed4242; stroke-linejoin: miter"/>
     <use xlink:href="#mc492af80ac" x="472.37342" y="346.559287" style="fill: #ed4242; stroke: #ed4242; stroke-linejoin: miter"/>
     <use xlink:href="#mc492af80ac" x="486.346297" y="347.870451" style="fill: #ed4242; stroke: #ed4242; stroke-linejoin: miter"/>
     <use xlink:href="#mc492af80ac" x="500.319173" y="352.0396" style="fill: #ed4242; stroke: #ed4242; stroke-linejoin: miter"/>
     <use xlink:href="#mc492af80ac" x="514.292049" y="352.378071" style="fill: #ed4242; stroke: #ed4242; stroke-linejoin: miter"/>
    </g>
   </g>
   <g id="line2d_13">
    <path d="M 109.078636 68.63779 
L 113.383411 68.63779 
L 117.688186 68.63779 
L 121.992961 68.63779 
L 126.297736 68.63779 
L 130.602511 68.63779 
L 134.907287 68.63779 
L 139.212062 68.63779 
L 143.516837 68.63779 
L 147.821612 68.63779 
L 152.126387 68.63779 
L 156.431162 68.63779 
L 160.735937 68.63779 
L 165.040712 68.63779 
L 169.345487 68.63779 
L 173.650262 68.63779 
L 177.955037 68.63779 
L 182.259812 68.63779 
L 186.564587 68.63779 
L 190.869362 68.63779 
L 195.174137 68.63779 
L 199.478912 68.63779 
L 203.783687 68.63779 
L 208.088462 68.63779 
L 212.393237 68.63779 
L 216.698012 68.63779 
L 221.002787 68.63779 
L 225.307562 68.63779 
L 229.612337 68.63779 
L 233.917112 68.63779 
L 238.221887 68.63779 
L 242.526662 68.63779 
L 246.831437 68.63779 
L 251.136212 68.63779 
L 255.440987 68.63779 
L 259.745762 68.63779 
L 264.050537 68.63779 
L 268.355312 68.63779 
L 272.660087 68.63779 
L 276.964862 68.63779 
L 281.269637 68.63779 
L 285.574412 68.63779 
L 289.879187 68.63779 
L 294.183962 68.63779 
L 298.488737 68.63779 
L 302.793512 68.63779 
L 307.098287 68.63779 
L 311.403062 68.63779 
L 315.707837 68.63779 
L 320.012612 68.63779 
L 324.317388 68.63779 
L 328.622163 68.63779 
L 332.926938 68.63779 
L 337.231713 68.63779 
L 341.536488 68.63779 
L 345.841263 68.63779 
L 350.146038 68.63779 
L 354.450813 68.63779 
L 358.755588 68.63779 
L 363.060363 68.63779 
L 367.365138 68.63779 
L 371.669913 68.63779 
L 375.974688 68.63779 
L 380.279463 68.63779 
L 384.584238 68.63779 
L 388.889013 68.63779 
L 393.193788 68.63779 
L 397.498563 68.63779 
L 401.803338 68.63779 
L 406.108113 68.63779 
L 410.412888 68.63779 
L 414.717663 68.63779 
L 419.022438 68.63779 
L 423.327213 68.63779 
L 427.631988 68.63779 
L 431.936763 68.63779 
L 436.241538 68.63779 
L 440.546313 68.63779 
L 444.851088 68.63779 
L 449.155863 68.63779 
L 453.460638 68.63779 
L 457.765413 68.63779 
L 462.070188 68.63779 
L 466.374963 68.63779 
L 470.679738 68.63779 
L 474.984513 68.63779 
L 479.289288 68.63779 
L 483.594063 68.63779 
L 487.898838 68.63779 
L 492.203613 68.63779 
L 496.508388 68.63779 
L 500.813163 68.63779 
L 505.117938 68.63779 
L 509.422713 68.63779 
L 513.727489 68.63779 
L 518.032264 68.63779 
L 522.337039 68.63779 
L 526.641814 68.63779 
L 530.946589 68.63779 
L 535.251364 68.63779 
" clip-path="url(#p9965a2b475)" style="fill: none; stroke-dasharray: 5.55,2.4; stroke-dashoffset: 0; stroke: #000000; stroke-width: 1.5"/>
   </g>
   <g id="patch_3">
    <path d="M 87.77 367 
L 87.77 26.28 
" style="fill: none; stroke: #000000; stroke-width: 0.8; stroke-linejoin: miter; stroke-linecap: square"/>
   </g>
   <g id="patch_4">
    <path d="M 556.56 367 
L 556.56 26.28 
" style="fill: none; stroke: #000000; stroke-width: 0.8; stroke-linejoin: miter; stroke-linecap: square"/>
   </g>
   <g id="patch_5">
    <path d="M 87.77 367 
L 556.56 367 
" style="fill: none; stroke: #000000; stroke-width: 0.8; stroke-linejoin: miter; stroke-linecap: square"/>
   </g>
   <g id="patch_6">
    <path d="M 87.77 26.28 
L 556.56 26.28 
" style="fill: none; stroke: #000000; stroke-width: 0.8; stroke-linejoin: miter; stroke-linecap: square"/>
   </g>
  </g>
 </g>
 <defs>
  <clipPath id="p9965a2b475">
   <rect x="87.77" y="26.28" width="468.79" height="340.72"/>
  </clipPath>
 </defs>
</svg>
