<?xml version="1.0" encoding="utf-8" standalone="no"?>
<!DOCTYPE svg PUBLIC "-//W3C//DTD SVG 1.1//EN"
  "http://www.w3.org/Graphics/SVG/1.1/DTD/svg11.dtd">
<svg xmlns:xlink="http://www.w3.org/1999/xlink" width="720pt" height="432pt" viewBox="0 0 720 432" xmlns="http://www.w3.org/2000/svg" version="1.1">
 <metadata>
  <rdf:RDF xmlns:dc="http://purl.org/dc/elements/1.1/" xmlns:cc="http://creativecommons.org/ns#" xmlns:rdf="http://www.w3.org/1999/02/22-rdf-syntax-ns#">
   <cc:Work>
    <dc:type rdf:resource="http://purl.org/dc/dcmitype/StillImage"/>
    <dc:date>2023-09-29T11:11:50.409197</dc:date>
    <dc:format>image/svg+xml</dc:format>
    <dc:creator>
     <cc:Agent>
      <dc:title>Matplotlib v3.5.1, https://matplotlib.org/</dc:title>
     </cc:Agent>
    </dc:creator>
   </cc:Work>
  </rdf:RDF>
 </metadata>
 <defs>
  <style type="text/css">*{stroke-linejoin: round; stroke-linecap: butt}</style>
 </defs>
 <g id="figure_1">
  <g id="patch_1">
   <path d="M 0 432 
L 720 432 
L 720 0 
L 0 0 
z
" style="fill: #ffffff"/>
  </g>
  <g id="axes_1">
   <g id="patch_2">
    <path d="M 54.2 390.04 
L 709.2 390.04 
L 709.2 10.8 
L 54.2 10.8 
z
" style="fill: #ffffff"/>
   </g>
   <g id="matplotlib.axis_1">
    <g id="xtick_1">
     <g id="line2d_1">
      <defs>
       <path id="mfed562257a" d="M 0 0 
L 0 3.5 
" style="stroke: #000000; stroke-width: 0.8"/>
      </defs>
      <g>
       <use xlink:href="#mfed562257a" x="62.706494" y="390.04" style="stroke: #000000; stroke-width: 0.8"/>
      </g>
     </g>
     <g id="text_1">
      <!-- 0 -->
      <g transform="translate(59.525244 404.638438)scale(0.1 -0.1)">
       <defs>
        <path id="DejaVuSans-30" d="M 2034 4250 
Q 1547 4250 1301 3770 
Q 1056 3291 1056 2328 
Q 1056 1369 1301 889 
Q 1547 409 2034 409 
Q 2525 409 2770 889 
Q 3016 1369 3016 2328 
Q 3016 3291 2770 3770 
Q 2525 4250 2034 4250 
z
M 2034 4750 
Q 2819 4750 3233 4129 
Q 3647 3509 3647 2328 
Q 3647 1150 3233 529 
Q 2819 -91 2034 -91 
Q 1250 -91 836 529 
Q 422 1150 422 2328 
Q 422 3509 836 4129 
Q 1250 4750 2034 4750 
z
" transform="scale(0.015625)"/>
       </defs>
       <use xlink:href="#DejaVuSans-30"/>
      </g>
     </g>
    </g>
    <g id="xtick_2">
     <g id="line2d_2">
      <g>
       <use xlink:href="#mfed562257a" x="169.037662" y="390.04" style="stroke: #000000; stroke-width: 0.8"/>
      </g>
     </g>
     <g id="text_2">
      <!-- 10 -->
      <g transform="translate(162.675162 404.638438)scale(0.1 -0.1)">
       <defs>
        <path id="DejaVuSans-31" d="M 794 531 
L 1825 531 
L 1825 4091 
L 703 3866 
L 703 4441 
L 1819 4666 
L 2450 4666 
L 2450 531 
L 3481 531 
L 3481 0 
L 794 0 
L 794 531 
z
" transform="scale(0.015625)"/>
       </defs>
       <use xlink:href="#DejaVuSans-31"/>
       <use xlink:href="#DejaVuSans-30" x="63.623047"/>
      </g>
     </g>
    </g>
    <g id="xtick_3">
     <g id="line2d_3">
      <g>
       <use xlink:href="#mfed562257a" x="275.368831" y="390.04" style="stroke: #000000; stroke-width: 0.8"/>
      </g>
     </g>
     <g id="text_3">
      <!-- 20 -->
      <g transform="translate(269.006331 404.638438)scale(0.1 -0.1)">
       <defs>
        <path id="DejaVuSans-32" d="M 1228 531 
L 3431 531 
L 3431 0 
L 469 0 
L 469 531 
Q 828 903 1448 1529 
Q 2069 2156 2228 2338 
Q 2531 2678 2651 2914 
Q 2772 3150 2772 3378 
Q 2772 3750 2511 3984 
Q 2250 4219 1831 4219 
Q 1534 4219 1204 4116 
Q 875 4013 500 3803 
L 500 4441 
Q 881 4594 1212 4672 
Q 1544 4750 1819 4750 
Q 2544 4750 2975 4387 
Q 3406 4025 3406 3419 
Q 3406 3131 3298 2873 
Q 3191 2616 2906 2266 
Q 2828 2175 2409 1742 
Q 1991 1309 1228 531 
z
" transform="scale(0.015625)"/>
       </defs>
       <use xlink:href="#DejaVuSans-32"/>
       <use xlink:href="#DejaVuSans-30" x="63.623047"/>
      </g>
     </g>
    </g>
    <g id="xtick_4">
     <g id="line2d_4">
      <g>
       <use xlink:href="#mfed562257a" x="381.7" y="390.04" style="stroke: #000000; stroke-width: 0.8"/>
      </g>
     </g>
     <g id="text_4">
      <!-- 30 -->
      <g transform="translate(375.3375 404.638438)scale(0.1 -0.1)">
       <defs>
        <path id="DejaVuSans-33" d="M 2597 2516 
Q 3050 2419 3304 2112 
Q 3559 1806 3559 1356 
Q 3559 666 3084 287 
Q 2609 -91 1734 -91 
Q 1441 -91 1130 -33 
Q 819 25 488 141 
L 488 750 
Q 750 597 1062 519 
Q 1375 441 1716 441 
Q 2309 441 2620 675 
Q 2931 909 2931 1356 
Q 2931 1769 2642 2001 
Q 2353 2234 1838 2234 
L 1294 2234 
L 1294 2753 
L 1863 2753 
Q 2328 2753 2575 2939 
Q 2822 3125 2822 3475 
Q 2822 3834 2567 4026 
Q 2313 4219 1838 4219 
Q 1578 4219 1281 4162 
Q 984 4106 628 3988 
L 628 4550 
Q 988 4650 1302 4700 
Q 1616 4750 1894 4750 
Q 2613 4750 3031 4423 
Q 3450 4097 3450 3541 
Q 3450 3153 3228 2886 
Q 3006 2619 2597 2516 
z
" transform="scale(0.015625)"/>
       </defs>
       <use xlink:href="#DejaVuSans-33"/>
       <use xlink:href="#DejaVuSans-30" x="63.623047"/>
      </g>
     </g>
    </g>
    <g id="xtick_5">
     <g id="line2d_5">
      <g>
       <use xlink:href="#mfed562257a" x="488.031169" y="390.04" style="stroke: #000000; stroke-width: 0.8"/>
      </g>
     </g>
     <g id="text_5">
      <!-- 40 -->
      <g transform="translate(481.668669 404.638438)scale(0.1 -0.1)">
       <defs>
        <path id="DejaVuSans-34" d="M 2419 4116 
L 825 1625 
L 2419 1625 
L 2419 4116 
z
M 2253 4666 
L 3047 4666 
L 3047 1625 
L 3713 1625 
L 3713 1100 
L 3047 1100 
L 3047 0 
L 2419 0 
L 2419 1100 
L 313 1100 
L 313 1709 
L 2253 4666 
z
" transform="scale(0.015625)"/>
       </defs>
       <use xlink:href="#DejaVuSans-34"/>
       <use xlink:href="#DejaVuSans-30" x="63.623047"/>
      </g>
     </g>
    </g>
    <g id="xtick_6">
     <g id="line2d_6">
      <g>
       <use xlink:href="#mfed562257a" x="594.362338" y="390.04" style="stroke: #000000; stroke-width: 0.8"/>
      </g>
     </g>
     <g id="text_6">
      <!-- 50 -->
      <g transform="translate(587.999838 404.638438)scale(0.1 -0.1)">
       <defs>
        <path id="DejaVuSans-35" d="M 691 4666 
L 3169 4666 
L 3169 4134 
L 1269 4134 
L 1269 2991 
Q 1406 3038 1543 3061 
Q 1681 3084 1819 3084 
Q 2600 3084 3056 2656 
Q 3513 2228 3513 1497 
Q 3513 744 3044 326 
Q 2575 -91 1722 -91 
Q 1428 -91 1123 -41 
Q 819 9 494 109 
L 494 744 
Q 775 591 1075 516 
Q 1375 441 1709 441 
Q 2250 441 2565 725 
Q 2881 1009 2881 1497 
Q 2881 1984 2565 2268 
Q 2250 2553 1709 2553 
Q 1456 2553 1204 2497 
Q 953 2441 691 2322 
L 691 4666 
z
" transform="scale(0.015625)"/>
       </defs>
       <use xlink:href="#DejaVuSans-35"/>
       <use xlink:href="#DejaVuSans-30" x="63.623047"/>
      </g>
     </g>
    </g>
    <g id="xtick_7">
     <g id="line2d_7">
      <g>
       <use xlink:href="#mfed562257a" x="700.693506" y="390.04" style="stroke: #000000; stroke-width: 0.8"/>
      </g>
     </g>
     <g id="text_7">
      <!-- 60 -->
      <g transform="translate(694.331006 404.638438)scale(0.1 -0.1)">
       <defs>
        <path id="DejaVuSans-36" d="M 2113 2584 
Q 1688 2584 1439 2293 
Q 1191 2003 1191 1497 
Q 1191 994 1439 701 
Q 1688 409 2113 409 
Q 2538 409 2786 701 
Q 3034 994 3034 1497 
Q 3034 2003 2786 2293 
Q 2538 2584 2113 2584 
z
M 3366 4563 
L 3366 3988 
Q 3128 4100 2886 4159 
Q 2644 4219 2406 4219 
Q 1781 4219 1451 3797 
Q 1122 3375 1075 2522 
Q 1259 2794 1537 2939 
Q 1816 3084 2150 3084 
Q 2853 3084 3261 2657 
Q 3669 2231 3669 1497 
Q 3669 778 3244 343 
Q 2819 -91 2113 -91 
Q 1303 -91 875 529 
Q 447 1150 447 2328 
Q 447 3434 972 4092 
Q 1497 4750 2381 4750 
Q 2619 4750 2861 4703 
Q 3103 4656 3366 4563 
z
" transform="scale(0.015625)"/>
       </defs>
       <use xlink:href="#DejaVuSans-36"/>
       <use xlink:href="#DejaVuSans-30" x="63.623047"/>
      </g>
     </g>
    </g>
    <g id="text_8">
     <!-- step -->
     <g transform="translate(370.884375 418.316562)scale(0.1 -0.1)">
      <defs>
       <path id="DejaVuSans-73" d="M 2834 3397 
L 2834 2853 
Q 2591 2978 2328 3040 
Q 2066 3103 1784 3103 
Q 1356 3103 1142 2972 
Q 928 2841 928 2578 
Q 928 2378 1081 2264 
Q 1234 2150 1697 2047 
L 1894 2003 
Q 2506 1872 2764 1633 
Q 3022 1394 3022 966 
Q 3022 478 2636 193 
Q 2250 -91 1575 -91 
Q 1294 -91 989 -36 
Q 684 19 347 128 
L 347 722 
Q 666 556 975 473 
Q 1284 391 1588 391 
Q 1994 391 2212 530 
Q 2431 669 2431 922 
Q 2431 1156 2273 1281 
Q 2116 1406 1581 1522 
L 1381 1569 
Q 847 1681 609 1914 
Q 372 2147 372 2553 
Q 372 3047 722 3315 
Q 1072 3584 1716 3584 
Q 2034 3584 2315 3537 
Q 2597 3491 2834 3397 
z
" transform="scale(0.015625)"/>
       <path id="DejaVuSans-74" d="M 1172 4494 
L 1172 3500 
L 2356 3500 
L 2356 3053 
L 1172 3053 
L 1172 1153 
Q 1172 725 1289 603 
Q 1406 481 1766 481 
L 2356 481 
L 2356 0 
L 1766 0 
Q 1100 0 847 248 
Q 594 497 594 1153 
L 594 3053 
L 172 3053 
L 172 3500 
L 594 3500 
L 594 4494 
L 1172 4494 
z
" transform="scale(0.015625)"/>
       <path id="DejaVuSans-65" d="M 3597 1894 
L 3597 1613 
L 953 1613 
Q 991 1019 1311 708 
Q 1631 397 2203 397 
Q 2534 397 2845 478 
Q 3156 559 3463 722 
L 3463 178 
Q 3153 47 2828 -22 
Q 2503 -91 2169 -91 
Q 1331 -91 842 396 
Q 353 884 353 1716 
Q 353 2575 817 3079 
Q 1281 3584 2069 3584 
Q 2775 3584 3186 3129 
Q 3597 2675 3597 1894 
z
M 3022 2063 
Q 3016 2534 2758 2815 
Q 2500 3097 2075 3097 
Q 1594 3097 1305 2825 
Q 1016 2553 972 2059 
L 3022 2063 
z
" transform="scale(0.015625)"/>
       <path id="DejaVuSans-70" d="M 1159 525 
L 1159 -1331 
L 581 -1331 
L 581 3500 
L 1159 3500 
L 1159 2969 
Q 1341 3281 1617 3432 
Q 1894 3584 2278 3584 
Q 2916 3584 3314 3078 
Q 3713 2572 3713 1747 
Q 3713 922 3314 415 
Q 2916 -91 2278 -91 
Q 1894 -91 1617 61 
Q 1341 213 1159 525 
z
M 3116 1747 
Q 3116 2381 2855 2742 
Q 2594 3103 2138 3103 
Q 1681 3103 1420 2742 
Q 1159 2381 1159 1747 
Q 1159 1113 1420 752 
Q 1681 391 2138 391 
Q 2594 391 2855 752 
Q 3116 1113 3116 1747 
z
" transform="scale(0.015625)"/>
      </defs>
      <use xlink:href="#DejaVuSans-73"/>
      <use xlink:href="#DejaVuSans-74" x="52.099609"/>
      <use xlink:href="#DejaVuSans-65" x="91.308594"/>
      <use xlink:href="#DejaVuSans-70" x="152.832031"/>
     </g>
    </g>
   </g>
   <g id="matplotlib.axis_2">
    <g id="ytick_1">
     <g id="line2d_8">
      <defs>
       <path id="m5d66eef5e8" d="M 0 0 
L -3.5 0 
" style="stroke: #000000; stroke-width: 0.8"/>
      </defs>
      <g>
       <use xlink:href="#m5d66eef5e8" x="54.2" y="339.139649" style="stroke: #000000; stroke-width: 0.8"/>
      </g>
     </g>
     <g id="text_9">
      <!-- 0.45 -->
      <g transform="translate(24.934375 342.938868)scale(0.1 -0.1)">
       <defs>
        <path id="DejaVuSans-2e" d="M 684 794 
L 1344 794 
L 1344 0 
L 684 0 
L 684 794 
z
" transform="scale(0.015625)"/>
       </defs>
       <use xlink:href="#DejaVuSans-30"/>
       <use xlink:href="#DejaVuSans-2e" x="63.623047"/>
       <use xlink:href="#DejaVuSans-34" x="95.410156"/>
       <use xlink:href="#DejaVuSans-35" x="159.033203"/>
      </g>
     </g>
    </g>
    <g id="ytick_2">
     <g id="line2d_9">
      <g>
       <use xlink:href="#m5d66eef5e8" x="54.2" y="279.36756" style="stroke: #000000; stroke-width: 0.8"/>
      </g>
     </g>
     <g id="text_10">
      <!-- 0.50 -->
      <g transform="translate(24.934375 283.166779)scale(0.1 -0.1)">
       <use xlink:href="#DejaVuSans-30"/>
       <use xlink:href="#DejaVuSans-2e" x="63.623047"/>
       <use xlink:href="#DejaVuSans-35" x="95.410156"/>
       <use xlink:href="#DejaVuSans-30" x="159.033203"/>
      </g>
     </g>
    </g>
    <g id="ytick_3">
     <g id="line2d_10">
      <g>
       <use xlink:href="#m5d66eef5e8" x="54.2" y="219.595472" style="stroke: #000000; stroke-width: 0.8"/>
      </g>
     </g>
     <g id="text_11">
      <!-- 0.55 -->
      <g transform="translate(24.934375 223.39469)scale(0.1 -0.1)">
       <use xlink:href="#DejaVuSans-30"/>
       <use xlink:href="#DejaVuSans-2e" x="63.623047"/>
       <use xlink:href="#DejaVuSans-35" x="95.410156"/>
       <use xlink:href="#DejaVuSans-35" x="159.033203"/>
      </g>
     </g>
    </g>
    <g id="ytick_4">
     <g id="line2d_11">
      <g>
       <use xlink:href="#m5d66eef5e8" x="54.2" y="159.823383" style="stroke: #000000; stroke-width: 0.8"/>
      </g>
     </g>
     <g id="text_12">
      <!-- 0.60 -->
      <g transform="translate(24.934375 163.622602)scale(0.1 -0.1)">
       <use xlink:href="#DejaVuSans-30"/>
       <use xlink:href="#DejaVuSans-2e" x="63.623047"/>
       <use xlink:href="#DejaVuSans-36" x="95.410156"/>
       <use xlink:href="#DejaVuSans-30" x="159.033203"/>
      </g>
     </g>
    </g>
    <g id="ytick_5">
     <g id="line2d_12">
      <g>
       <use xlink:href="#m5d66eef5e8" x="54.2" y="100.051295" style="stroke: #000000; stroke-width: 0.8"/>
      </g>
     </g>
     <g id="text_13">
      <!-- 0.65 -->
      <g transform="translate(24.934375 103.850513)scale(0.1 -0.1)">
       <use xlink:href="#DejaVuSans-30"/>
       <use xlink:href="#DejaVuSans-2e" x="63.623047"/>
       <use xlink:href="#DejaVuSans-36" x="95.410156"/>
       <use xlink:href="#DejaVuSans-35" x="159.033203"/>
      </g>
     </g>
    </g>
    <g id="ytick_6">
     <g id="line2d_13">
      <g>
       <use xlink:href="#m5d66eef5e8" x="54.2" y="40.279206" style="stroke: #000000; stroke-width: 0.8"/>
      </g>
     </g>
     <g id="text_14">
      <!-- 0.70 -->
      <g transform="translate(24.934375 44.078425)scale(0.1 -0.1)">
       <defs>
        <path id="DejaVuSans-37" d="M 525 4666 
L 3525 4666 
L 3525 4397 
L 1831 0 
L 1172 0 
L 2766 4134 
L 525 4134 
L 525 4666 
z
" transform="scale(0.015625)"/>
       </defs>
       <use xlink:href="#DejaVuSans-30"/>
       <use xlink:href="#DejaVuSans-2e" x="63.623047"/>
       <use xlink:href="#DejaVuSans-37" x="95.410156"/>
       <use xlink:href="#DejaVuSans-30" x="159.033203"/>
      </g>
     </g>
    </g>
    <g id="text_15">
     <!-- σ -->
     <g transform="translate(18.854688 203.58875)rotate(-90)scale(0.1 -0.1)">
      <defs>
       <path id="DejaVuSans-3c3" d="M 1959 3044 
Q 1484 3044 1228 2700 
Q 959 2341 959 1747 
Q 959 1119 1226 758 
Q 1494 397 1959 397 
Q 2419 397 2687 759 
Q 2956 1122 2956 1747 
Q 2956 2319 2688 2700 
Q 2441 3044 1959 3044 
z
M 1959 3500 
L 3869 3500 
L 3869 2925 
L 3225 2925 
Q 3566 2438 3566 1747 
Q 3566 888 3138 400 
Q 2709 -91 1959 -91 
Q 1206 -91 781 400 
Q 353 888 353 1747 
Q 353 2613 781 3097 
Q 1134 3500 1959 3500 
z
" transform="scale(0.015625)"/>
      </defs>
      <use xlink:href="#DejaVuSans-3c3"/>
     </g>
    </g>
   </g>
   <g id="line2d_14">
    <path d="M 83.972727 61.355159 
L 126.505195 91.703641 
L 147.771429 73.606884 
L 190.303896 92.368968 
L 211.57013 28.038182 
L 232.836364 77.678443 
L 254.102597 118.375796 
L 275.368831 65.581396 
L 296.635065 103.284453 
L 307.268182 78.094207 
L 328.534416 77.906312 
L 339.167532 116.34276 
L 360.433766 104.065402 
L 381.7 75.463938 
L 402.966234 74.776427 
L 424.232468 86.53962 
L 445.498701 71.698786 
L 466.764935 57.373821 
L 488.031169 70.716237 
L 509.297403 53.184925 
L 530.563636 59.452773 
L 551.82987 67.029994 
L 573.096104 65.838224 
L 594.362338 83.501632 
L 615.628571 105.259967 
L 636.894805 126.423021 
L 658.161039 149.113363 
L 679.427273 180.500093 
" clip-path="url(#p48f21f1797)" style="fill: none; stroke: #0000ff; stroke-width: 1.5; stroke-linecap: square"/>
    <defs>
     <path id="m750d84f1ae" d="M 0 3 
C 0.795609 3 1.55874 2.683901 2.12132 2.12132 
C 2.683901 1.55874 3 0.795609 3 0 
C 3 -0.795609 2.683901 -1.55874 2.12132 -2.12132 
C 1.55874 -2.683901 0.795609 -3 0 -3 
C -0.795609 -3 -1.55874 -2.683901 -2.12132 -2.12132 
C -2.683901 -1.55874 -3 -0.795609 -3 0 
C -3 0.795609 -2.683901 1.55874 -2.12132 2.12132 
C -1.55874 2.683901 -0.795609 3 0 3 
z
" style="stroke: #0000ff"/>
    </defs>
    <g clip-path="url(#p48f21f1797)">
     <use xlink:href="#m750d84f1ae" x="83.972727" y="61.355159" style="fill: #0000ff; stroke: #0000ff"/>
     <use xlink:href="#m750d84f1ae" x="126.505195" y="91.703641" style="fill: #0000ff; stroke: #0000ff"/>
     <use xlink:href="#m750d84f1ae" x="147.771429" y="73.606884" style="fill: #0000ff; stroke: #0000ff"/>
     <use xlink:href="#m750d84f1ae" x="190.303896" y="92.368968" style="fill: #0000ff; stroke: #0000ff"/>
     <use xlink:href="#m750d84f1ae" x="211.57013" y="28.038182" style="fill: #0000ff; stroke: #0000ff"/>
     <use xlink:href="#m750d84f1ae" x="232.836364" y="77.678443" style="fill: #0000ff; stroke: #0000ff"/>
     <use xlink:href="#m750d84f1ae" x="254.102597" y="118.375796" style="fill: #0000ff; stroke: #0000ff"/>
     <use xlink:href="#m750d84f1ae" x="275.368831" y="65.581396" style="fill: #0000ff; stroke: #0000ff"/>
     <use xlink:href="#m750d84f1ae" x="296.635065" y="103.284453" style="fill: #0000ff; stroke: #0000ff"/>
     <use xlink:href="#m750d84f1ae" x="307.268182" y="78.094207" style="fill: #0000ff; stroke: #0000ff"/>
     <use xlink:href="#m750d84f1ae" x="328.534416" y="77.906312" style="fill: #0000ff; stroke: #0000ff"/>
     <use xlink:href="#m750d84f1ae" x="339.167532" y="116.34276" style="fill: #0000ff; stroke: #0000ff"/>
     <use xlink:href="#m750d84f1ae" x="360.433766" y="104.065402" style="fill: #0000ff; stroke: #0000ff"/>
     <use xlink:href="#m750d84f1ae" x="381.7" y="75.463938" style="fill: #0000ff; stroke: #0000ff"/>
     <use xlink:href="#m750d84f1ae" x="402.966234" y="74.776427" style="fill: #0000ff; stroke: #0000ff"/>
     <use xlink:href="#m750d84f1ae" x="424.232468" y="86.53962" style="fill: #0000ff; stroke: #0000ff"/>
     <use xlink:href="#m750d84f1ae" x="445.498701" y="71.698786" style="fill: #0000ff; stroke: #0000ff"/>
     <use xlink:href="#m750d84f1ae" x="466.764935" y="57.373821" style="fill: #0000ff; stroke: #0000ff"/>
     <use xlink:href="#m750d84f1ae" x="488.031169" y="70.716237" style="fill: #0000ff; stroke: #0000ff"/>
     <use xlink:href="#m750d84f1ae" x="509.297403" y="53.184925" style="fill: #0000ff; stroke: #0000ff"/>
     <use xlink:href="#m750d84f1ae" x="530.563636" y="59.452773" style="fill: #0000ff; stroke: #0000ff"/>
     <use xlink:href="#m750d84f1ae" x="551.82987" y="67.029994" style="fill: #0000ff; stroke: #0000ff"/>
     <use xlink:href="#m750d84f1ae" x="573.096104" y="65.838224" style="fill: #0000ff; stroke: #0000ff"/>
     <use xlink:href="#m750d84f1ae" x="594.362338" y="83.501632" style="fill: #0000ff; stroke: #0000ff"/>
     <use xlink:href="#m750d84f1ae" x="615.628571" y="105.259967" style="fill: #0000ff; stroke: #0000ff"/>
     <use xlink:href="#m750d84f1ae" x="636.894805" y="126.423021" style="fill: #0000ff; stroke: #0000ff"/>
     <use xlink:href="#m750d84f1ae" x="658.161039" y="149.113363" style="fill: #0000ff; stroke: #0000ff"/>
     <use xlink:href="#m750d84f1ae" x="679.427273" y="180.500093" style="fill: #0000ff; stroke: #0000ff"/>
    </g>
   </g>
   <g id="line2d_15">
    <path d="M 83.972727 104.987635 
L 126.505195 88.608617 
L 147.771429 38.917924 
L 190.303896 285.125545 
L 211.57013 321.759001 
L 232.836364 353.279098 
L 254.102597 362.539314 
L 275.368831 324.35493 
L 296.635065 356.388286 
L 307.268182 316.227793 
L 339.167532 358.947857 
L 360.433766 347.802603 
L 381.7 326.393113 
L 402.966234 372.801818 
L 424.232468 343.479441 
L 445.498701 323.430729 
L 466.764935 355.246773 
L 488.031169 352.393 
L 509.297403 341.85877 
L 530.563636 318.258503 
L 551.82987 342.20756 
L 573.096104 349.185465 
L 594.362338 323.763292 
L 615.628571 339.309672 
L 636.894805 342.329978 
L 658.161039 361.43454 
L 679.427273 358.973034 
" clip-path="url(#p48f21f1797)" style="fill: none; stroke: #ff0000; stroke-width: 1.5; stroke-linecap: square"/>
    <defs>
     <path id="m937c003eb7" d="M 0 3 
C 0.795609 3 1.55874 2.683901 2.12132 2.12132 
C 2.683901 1.55874 3 0.795609 3 0 
C 3 -0.795609 2.683901 -1.55874 2.12132 -2.12132 
C 1.55874 -2.683901 0.795609 -3 0 -3 
C -0.795609 -3 -1.55874 -2.683901 -2.12132 -2.12132 
C -2.683901 -1.55874 -3 -0.795609 -3 0 
C -3 0.795609 -2.683901 1.55874 -2.12132 2.12132 
C -1.55874 2.683901 -0.795609 3 0 3 
z
" style="stroke: #ff0000"/>
    </defs>
    <g clip-path="url(#p48f21f1797)">
     <use xlink:href="#m937c003eb7" x="83.972727" y="104.987635" style="fill: #ff0000; stroke: #ff0000"/>
     <use xlink:href="#m937c003eb7" x="126.505195" y="88.608617" style="fill: #ff0000; stroke: #ff0000"/>
     <use xlink:href="#m937c003eb7" x="147.771429" y="38.917924" style="fill: #ff0000; stroke: #ff0000"/>
     <use xlink:href="#m937c003eb7" x="190.303896" y="285.125545" style="fill: #ff0000; stroke: #ff0000"/>
     <use xlink:href="#m937c003eb7" x="211.57013" y="321.759001" style="fill: #ff0000; stroke: #ff0000"/>
     <use xlink:href="#m937c003eb7" x="232.836364" y="353.279098" style="fill: #ff0000; stroke: #ff0000"/>
     <use xlink:href="#m937c003eb7" x="254.102597" y="362.539314" style="fill: #ff0000; stroke: #ff0000"/>
     <use xlink:href="#m937c003eb7" x="275.368831" y="324.35493" style="fill: #ff0000; stroke: #ff0000"/>
     <use xlink:href="#m937c003eb7" x="296.635065" y="356.388286" style="fill: #ff0000; stroke: #ff0000"/>
     <use xlink:href="#m937c003eb7" x="307.268182" y="316.227793" style="fill: #ff0000; stroke: #ff0000"/>
     <use xlink:href="#m937c003eb7" x="339.167532" y="358.947857" style="fill: #ff0000; stroke: #ff0000"/>
     <use xlink:href="#m937c003eb7" x="360.433766" y="347.802603" style="fill: #ff0000; stroke: #ff0000"/>
     <use xlink:href="#m937c003eb7" x="381.7" y="326.393113" style="fill: #ff0000; stroke: #ff0000"/>
     <use xlink:href="#m937c003eb7" x="402.966234" y="372.801818" style="fill: #ff0000; stroke: #ff0000"/>
     <use xlink:href="#m937c003eb7" x="424.232468" y="343.479441" style="fill: #ff0000; stroke: #ff0000"/>
     <use xlink:href="#m937c003eb7" x="445.498701" y="323.430729" style="fill: #ff0000; stroke: #ff0000"/>
     <use xlink:href="#m937c003eb7" x="466.764935" y="355.246773" style="fill: #ff0000; stroke: #ff0000"/>
     <use xlink:href="#m937c003eb7" x="488.031169" y="352.393" style="fill: #ff0000; stroke: #ff0000"/>
     <use xlink:href="#m937c003eb7" x="509.297403" y="341.85877" style="fill: #ff0000; stroke: #ff0000"/>
     <use xlink:href="#m937c003eb7" x="530.563636" y="318.258503" style="fill: #ff0000; stroke: #ff0000"/>
     <use xlink:href="#m937c003eb7" x="551.82987" y="342.20756" style="fill: #ff0000; stroke: #ff0000"/>
     <use xlink:href="#m937c003eb7" x="573.096104" y="349.185465" style="fill: #ff0000; stroke: #ff0000"/>
     <use xlink:href="#m937c003eb7" x="594.362338" y="323.763292" style="fill: #ff0000; stroke: #ff0000"/>
     <use xlink:href="#m937c003eb7" x="615.628571" y="339.309672" style="fill: #ff0000; stroke: #ff0000"/>
     <use xlink:href="#m937c003eb7" x="636.894805" y="342.329978" style="fill: #ff0000; stroke: #ff0000"/>
     <use xlink:href="#m937c003eb7" x="658.161039" y="361.43454" style="fill: #ff0000; stroke: #ff0000"/>
     <use xlink:href="#m937c003eb7" x="679.427273" y="358.973034" style="fill: #ff0000; stroke: #ff0000"/>
    </g>
   </g>
   <g id="patch_3">
    <path d="M 54.2 390.04 
L 54.2 10.8 
" style="fill: none; stroke: #000000; stroke-width: 0.8; stroke-linejoin: miter; stroke-linecap: square"/>
   </g>
   <g id="patch_4">
    <path d="M 709.2 390.04 
L 709.2 10.8 
" style="fill: none; stroke: #000000; stroke-width: 0.8; stroke-linejoin: miter; stroke-linecap: square"/>
   </g>
   <g id="patch_5">
    <path d="M 54.2 390.04 
L 709.2 390.04 
" style="fill: none; stroke: #000000; stroke-width: 0.8; stroke-linejoin: miter; stroke-linecap: square"/>
   </g>
   <g id="patch_6">
    <path d="M 54.2 10.8 
L 709.2 10.8 
" style="fill: none; stroke: #000000; stroke-width: 0.8; stroke-linejoin: miter; stroke-linecap: square"/>
   </g>
   <g id="legend_1">
    <g id="patch_7">
     <path d="M 657.475 48.15625 
L 702.2 48.15625 
Q 704.2 48.15625 704.2 46.15625 
L 704.2 17.8 
Q 704.2 15.8 702.2 15.8 
L 657.475 15.8 
Q 655.475 15.8 655.475 17.8 
L 655.475 46.15625 
Q 655.475 48.15625 657.475 48.15625 
z
" style="fill: #ffffff; opacity: 0.8; stroke: #cccccc; stroke-linejoin: miter"/>
    </g>
    <g id="line2d_16">
     <path d="M 659.475 23.898438 
L 669.475 23.898438 
L 679.475 23.898438 
" style="fill: none; stroke: #0000ff; stroke-width: 1.5; stroke-linecap: square"/>
     <g>
      <use xlink:href="#m750d84f1ae" x="669.475" y="23.898438" style="fill: #0000ff; stroke: #0000ff"/>
     </g>
    </g>
    <g id="text_16">
     <!-- 30 -->
     <g transform="translate(687.475 27.398438)scale(0.1 -0.1)">
      <use xlink:href="#DejaVuSans-33"/>
      <use xlink:href="#DejaVuSans-30" x="63.623047"/>
     </g>
    </g>
    <g id="line2d_17">
     <path d="M 659.475 38.576563 
L 669.475 38.576563 
L 679.475 38.576563 
" style="fill: none; stroke: #ff0000; stroke-width: 1.5; stroke-linecap: square"/>
     <g>
      <use xlink:href="#m937c003eb7" x="669.475" y="38.576563" style="fill: #ff0000; stroke: #ff0000"/>
     </g>
    </g>
    <g id="text_17">
     <!-- 43 -->
     <g transform="translate(687.475 42.076563)scale(0.1 -0.1)">
      <use xlink:href="#DejaVuSans-34"/>
      <use xlink:href="#DejaVuSans-33" x="63.623047"/>
     </g>
    </g>
   </g>
  </g>
 </g>
 <defs>
  <clipPath id="p48f21f1797">
   <rect x="54.2" y="10.8" width="655" height="379.24"/>
  </clipPath>
 </defs>
</svg>
