<?xml version="1.0" encoding="utf-8" standalone="no"?>
<!DOCTYPE svg PUBLIC "-//W3C//DTD SVG 1.1//EN"
  "http://www.w3.org/Graphics/SVG/1.1/DTD/svg11.dtd">
<svg xmlns:xlink="http://www.w3.org/1999/xlink" width="720pt" height="432pt" viewBox="0 0 720 432" xmlns="http://www.w3.org/2000/svg" version="1.1">
 <metadata>
  <rdf:RDF xmlns:dc="http://purl.org/dc/elements/1.1/" xmlns:cc="http://creativecommons.org/ns#" xmlns:rdf="http://www.w3.org/1999/02/22-rdf-syntax-ns#">
   <cc:Work>
    <dc:type rdf:resource="http://purl.org/dc/dcmitype/StillImage"/>
    <dc:date>2023-09-29T11:11:48.149804</dc:date>
    <dc:format>image/svg+xml</dc:format>
    <dc:creator>
     <cc:Agent>
      <dc:title>Matplotlib v3.5.1, https://matplotlib.org/</dc:title>
     </cc:Agent>
    </dc:creator>
   </cc:Work>
  </rdf:RDF>
 </metadata>
 <defs>
  <style type="text/css">*{stroke-linejoin: round; stroke-linecap: butt}</style>
 </defs>
 <g id="figure_1">
  <g id="patch_1">
   <path d="M 0 432 
L 720 432 
L 720 0 
L 0 0 
z
" style="fill: #ffffff"/>
  </g>
  <g id="axes_1">
   <g id="patch_2">
    <path d="M 47.81 390.04 
L 709.2 390.04 
L 709.2 10.8 
L 47.81 10.8 
z
" style="fill: #ffffff"/>
   </g>
   <g id="matplotlib.axis_1">
    <g id="xtick_1">
     <g id="line2d_1">
      <defs>
       <path id="meaa922829f" d="M 0 0 
L 0 3.5 
" style="stroke: #000000; stroke-width: 0.8"/>
      </defs>
      <g>
       <use xlink:href="#meaa922829f" x="56.399481" y="390.04" style="stroke: #000000; stroke-width: 0.8"/>
      </g>
     </g>
     <g id="text_1">
      <!-- 0 -->
      <g transform="translate(53.218231 404.638438)scale(0.1 -0.1)">
       <defs>
        <path id="DejaVuSans-30" d="M 2034 4250 
Q 1547 4250 1301 3770 
Q 1056 3291 1056 2328 
Q 1056 1369 1301 889 
Q 1547 409 2034 409 
Q 2525 409 2770 889 
Q 3016 1369 3016 2328 
Q 3016 3291 2770 3770 
Q 2525 4250 2034 4250 
z
M 2034 4750 
Q 2819 4750 3233 4129 
Q 3647 3509 3647 2328 
Q 3647 1150 3233 529 
Q 2819 -91 2034 -91 
Q 1250 -91 836 529 
Q 422 1150 422 2328 
Q 422 3509 836 4129 
Q 1250 4750 2034 4750 
z
" transform="scale(0.015625)"/>
       </defs>
       <use xlink:href="#DejaVuSans-30"/>
      </g>
     </g>
    </g>
    <g id="xtick_2">
     <g id="line2d_2">
      <g>
       <use xlink:href="#meaa922829f" x="163.767987" y="390.04" style="stroke: #000000; stroke-width: 0.8"/>
      </g>
     </g>
     <g id="text_2">
      <!-- 10 -->
      <g transform="translate(157.405487 404.638438)scale(0.1 -0.1)">
       <defs>
        <path id="DejaVuSans-31" d="M 794 531 
L 1825 531 
L 1825 4091 
L 703 3866 
L 703 4441 
L 1819 4666 
L 2450 4666 
L 2450 531 
L 3481 531 
L 3481 0 
L 794 0 
L 794 531 
z
" transform="scale(0.015625)"/>
       </defs>
       <use xlink:href="#DejaVuSans-31"/>
       <use xlink:href="#DejaVuSans-30" x="63.623047"/>
      </g>
     </g>
    </g>
    <g id="xtick_3">
     <g id="line2d_3">
      <g>
       <use xlink:href="#meaa922829f" x="271.136494" y="390.04" style="stroke: #000000; stroke-width: 0.8"/>
      </g>
     </g>
     <g id="text_3">
      <!-- 20 -->
      <g transform="translate(264.773994 404.638438)scale(0.1 -0.1)">
       <defs>
        <path id="DejaVuSans-32" d="M 1228 531 
L 3431 531 
L 3431 0 
L 469 0 
L 469 531 
Q 828 903 1448 1529 
Q 2069 2156 2228 2338 
Q 2531 2678 2651 2914 
Q 2772 3150 2772 3378 
Q 2772 3750 2511 3984 
Q 2250 4219 1831 4219 
Q 1534 4219 1204 4116 
Q 875 4013 500 3803 
L 500 4441 
Q 881 4594 1212 4672 
Q 1544 4750 1819 4750 
Q 2544 4750 2975 4387 
Q 3406 4025 3406 3419 
Q 3406 3131 3298 2873 
Q 3191 2616 2906 2266 
Q 2828 2175 2409 1742 
Q 1991 1309 1228 531 
z
" transform="scale(0.015625)"/>
       </defs>
       <use xlink:href="#DejaVuSans-32"/>
       <use xlink:href="#DejaVuSans-30" x="63.623047"/>
      </g>
     </g>
    </g>
    <g id="xtick_4">
     <g id="line2d_4">
      <g>
       <use xlink:href="#meaa922829f" x="378.505" y="390.04" style="stroke: #000000; stroke-width: 0.8"/>
      </g>
     </g>
     <g id="text_4">
      <!-- 30 -->
      <g transform="translate(372.1425 404.638438)scale(0.1 -0.1)">
       <defs>
        <path id="DejaVuSans-33" d="M 2597 2516 
Q 3050 2419 3304 2112 
Q 3559 1806 3559 1356 
Q 3559 666 3084 287 
Q 2609 -91 1734 -91 
Q 1441 -91 1130 -33 
Q 819 25 488 141 
L 488 750 
Q 750 597 1062 519 
Q 1375 441 1716 441 
Q 2309 441 2620 675 
Q 2931 909 2931 1356 
Q 2931 1769 2642 2001 
Q 2353 2234 1838 2234 
L 1294 2234 
L 1294 2753 
L 1863 2753 
Q 2328 2753 2575 2939 
Q 2822 3125 2822 3475 
Q 2822 3834 2567 4026 
Q 2313 4219 1838 4219 
Q 1578 4219 1281 4162 
Q 984 4106 628 3988 
L 628 4550 
Q 988 4650 1302 4700 
Q 1616 4750 1894 4750 
Q 2613 4750 3031 4423 
Q 3450 4097 3450 3541 
Q 3450 3153 3228 2886 
Q 3006 2619 2597 2516 
z
" transform="scale(0.015625)"/>
       </defs>
       <use xlink:href="#DejaVuSans-33"/>
       <use xlink:href="#DejaVuSans-30" x="63.623047"/>
      </g>
     </g>
    </g>
    <g id="xtick_5">
     <g id="line2d_5">
      <g>
       <use xlink:href="#meaa922829f" x="485.873506" y="390.04" style="stroke: #000000; stroke-width: 0.8"/>
      </g>
     </g>
     <g id="text_5">
      <!-- 40 -->
      <g transform="translate(479.511006 404.638438)scale(0.1 -0.1)">
       <defs>
        <path id="DejaVuSans-34" d="M 2419 4116 
L 825 1625 
L 2419 1625 
L 2419 4116 
z
M 2253 4666 
L 3047 4666 
L 3047 1625 
L 3713 1625 
L 3713 1100 
L 3047 1100 
L 3047 0 
L 2419 0 
L 2419 1100 
L 313 1100 
L 313 1709 
L 2253 4666 
z
" transform="scale(0.015625)"/>
       </defs>
       <use xlink:href="#DejaVuSans-34"/>
       <use xlink:href="#DejaVuSans-30" x="63.623047"/>
      </g>
     </g>
    </g>
    <g id="xtick_6">
     <g id="line2d_6">
      <g>
       <use xlink:href="#meaa922829f" x="593.242013" y="390.04" style="stroke: #000000; stroke-width: 0.8"/>
      </g>
     </g>
     <g id="text_6">
      <!-- 50 -->
      <g transform="translate(586.879513 404.638438)scale(0.1 -0.1)">
       <defs>
        <path id="DejaVuSans-35" d="M 691 4666 
L 3169 4666 
L 3169 4134 
L 1269 4134 
L 1269 2991 
Q 1406 3038 1543 3061 
Q 1681 3084 1819 3084 
Q 2600 3084 3056 2656 
Q 3513 2228 3513 1497 
Q 3513 744 3044 326 
Q 2575 -91 1722 -91 
Q 1428 -91 1123 -41 
Q 819 9 494 109 
L 494 744 
Q 775 591 1075 516 
Q 1375 441 1709 441 
Q 2250 441 2565 725 
Q 2881 1009 2881 1497 
Q 2881 1984 2565 2268 
Q 2250 2553 1709 2553 
Q 1456 2553 1204 2497 
Q 953 2441 691 2322 
L 691 4666 
z
" transform="scale(0.015625)"/>
       </defs>
       <use xlink:href="#DejaVuSans-35"/>
       <use xlink:href="#DejaVuSans-30" x="63.623047"/>
      </g>
     </g>
    </g>
    <g id="xtick_7">
     <g id="line2d_7">
      <g>
       <use xlink:href="#meaa922829f" x="700.610519" y="390.04" style="stroke: #000000; stroke-width: 0.8"/>
      </g>
     </g>
     <g id="text_7">
      <!-- 60 -->
      <g transform="translate(694.248019 404.638438)scale(0.1 -0.1)">
       <defs>
        <path id="DejaVuSans-36" d="M 2113 2584 
Q 1688 2584 1439 2293 
Q 1191 2003 1191 1497 
Q 1191 994 1439 701 
Q 1688 409 2113 409 
Q 2538 409 2786 701 
Q 3034 994 3034 1497 
Q 3034 2003 2786 2293 
Q 2538 2584 2113 2584 
z
M 3366 4563 
L 3366 3988 
Q 3128 4100 2886 4159 
Q 2644 4219 2406 4219 
Q 1781 4219 1451 3797 
Q 1122 3375 1075 2522 
Q 1259 2794 1537 2939 
Q 1816 3084 2150 3084 
Q 2853 3084 3261 2657 
Q 3669 2231 3669 1497 
Q 3669 778 3244 343 
Q 2819 -91 2113 -91 
Q 1303 -91 875 529 
Q 447 1150 447 2328 
Q 447 3434 972 4092 
Q 1497 4750 2381 4750 
Q 2619 4750 2861 4703 
Q 3103 4656 3366 4563 
z
" transform="scale(0.015625)"/>
       </defs>
       <use xlink:href="#DejaVuSans-36"/>
       <use xlink:href="#DejaVuSans-30" x="63.623047"/>
      </g>
     </g>
    </g>
    <g id="text_8">
     <!-- step -->
     <g transform="translate(367.689375 418.316562)scale(0.1 -0.1)">
      <defs>
       <path id="DejaVuSans-73" d="M 2834 3397 
L 2834 2853 
Q 2591 2978 2328 3040 
Q 2066 3103 1784 3103 
Q 1356 3103 1142 2972 
Q 928 2841 928 2578 
Q 928 2378 1081 2264 
Q 1234 2150 1697 2047 
L 1894 2003 
Q 2506 1872 2764 1633 
Q 3022 1394 3022 966 
Q 3022 478 2636 193 
Q 2250 -91 1575 -91 
Q 1294 -91 989 -36 
Q 684 19 347 128 
L 347 722 
Q 666 556 975 473 
Q 1284 391 1588 391 
Q 1994 391 2212 530 
Q 2431 669 2431 922 
Q 2431 1156 2273 1281 
Q 2116 1406 1581 1522 
L 1381 1569 
Q 847 1681 609 1914 
Q 372 2147 372 2553 
Q 372 3047 722 3315 
Q 1072 3584 1716 3584 
Q 2034 3584 2315 3537 
Q 2597 3491 2834 3397 
z
" transform="scale(0.015625)"/>
       <path id="DejaVuSans-74" d="M 1172 4494 
L 1172 3500 
L 2356 3500 
L 2356 3053 
L 1172 3053 
L 1172 1153 
Q 1172 725 1289 603 
Q 1406 481 1766 481 
L 2356 481 
L 2356 0 
L 1766 0 
Q 1100 0 847 248 
Q 594 497 594 1153 
L 594 3053 
L 172 3053 
L 172 3500 
L 594 3500 
L 594 4494 
L 1172 4494 
z
" transform="scale(0.015625)"/>
       <path id="DejaVuSans-65" d="M 3597 1894 
L 3597 1613 
L 953 1613 
Q 991 1019 1311 708 
Q 1631 397 2203 397 
Q 2534 397 2845 478 
Q 3156 559 3463 722 
L 3463 178 
Q 3153 47 2828 -22 
Q 2503 -91 2169 -91 
Q 1331 -91 842 396 
Q 353 884 353 1716 
Q 353 2575 817 3079 
Q 1281 3584 2069 3584 
Q 2775 3584 3186 3129 
Q 3597 2675 3597 1894 
z
M 3022 2063 
Q 3016 2534 2758 2815 
Q 2500 3097 2075 3097 
Q 1594 3097 1305 2825 
Q 1016 2553 972 2059 
L 3022 2063 
z
" transform="scale(0.015625)"/>
       <path id="DejaVuSans-70" d="M 1159 525 
L 1159 -1331 
L 581 -1331 
L 581 3500 
L 1159 3500 
L 1159 2969 
Q 1341 3281 1617 3432 
Q 1894 3584 2278 3584 
Q 2916 3584 3314 3078 
Q 3713 2572 3713 1747 
Q 3713 922 3314 415 
Q 2916 -91 2278 -91 
Q 1894 -91 1617 61 
Q 1341 213 1159 525 
z
M 3116 1747 
Q 3116 2381 2855 2742 
Q 2594 3103 2138 3103 
Q 1681 3103 1420 2742 
Q 1159 2381 1159 1747 
Q 1159 1113 1420 752 
Q 1681 391 2138 391 
Q 2594 391 2855 752 
Q 3116 1113 3116 1747 
z
" transform="scale(0.015625)"/>
      </defs>
      <use xlink:href="#DejaVuSans-73"/>
      <use xlink:href="#DejaVuSans-74" x="52.099609"/>
      <use xlink:href="#DejaVuSans-65" x="91.308594"/>
      <use xlink:href="#DejaVuSans-70" x="152.832031"/>
     </g>
    </g>
   </g>
   <g id="matplotlib.axis_2">
    <g id="ytick_1">
     <g id="line2d_8">
      <defs>
       <path id="m364f814f6a" d="M 0 0 
L -3.5 0 
" style="stroke: #000000; stroke-width: 0.8"/>
      </defs>
      <g>
       <use xlink:href="#m364f814f6a" x="47.81" y="371.62388" style="stroke: #000000; stroke-width: 0.8"/>
      </g>
     </g>
     <g id="text_9">
      <!-- 0.4 -->
      <g transform="translate(24.906875 375.423099)scale(0.1 -0.1)">
       <defs>
        <path id="DejaVuSans-2e" d="M 684 794 
L 1344 794 
L 1344 0 
L 684 0 
L 684 794 
z
" transform="scale(0.015625)"/>
       </defs>
       <use xlink:href="#DejaVuSans-30"/>
       <use xlink:href="#DejaVuSans-2e" x="63.623047"/>
       <use xlink:href="#DejaVuSans-34" x="95.410156"/>
      </g>
     </g>
    </g>
    <g id="ytick_2">
     <g id="line2d_9">
      <g>
       <use xlink:href="#m364f814f6a" x="47.81" y="302.553914" style="stroke: #000000; stroke-width: 0.8"/>
      </g>
     </g>
     <g id="text_10">
      <!-- 0.6 -->
      <g transform="translate(24.906875 306.353133)scale(0.1 -0.1)">
       <use xlink:href="#DejaVuSans-30"/>
       <use xlink:href="#DejaVuSans-2e" x="63.623047"/>
       <use xlink:href="#DejaVuSans-36" x="95.410156"/>
      </g>
     </g>
    </g>
    <g id="ytick_3">
     <g id="line2d_10">
      <g>
       <use xlink:href="#m364f814f6a" x="47.81" y="233.483949" style="stroke: #000000; stroke-width: 0.8"/>
      </g>
     </g>
     <g id="text_11">
      <!-- 0.8 -->
      <g transform="translate(24.906875 237.283167)scale(0.1 -0.1)">
       <defs>
        <path id="DejaVuSans-38" d="M 2034 2216 
Q 1584 2216 1326 1975 
Q 1069 1734 1069 1313 
Q 1069 891 1326 650 
Q 1584 409 2034 409 
Q 2484 409 2743 651 
Q 3003 894 3003 1313 
Q 3003 1734 2745 1975 
Q 2488 2216 2034 2216 
z
M 1403 2484 
Q 997 2584 770 2862 
Q 544 3141 544 3541 
Q 544 4100 942 4425 
Q 1341 4750 2034 4750 
Q 2731 4750 3128 4425 
Q 3525 4100 3525 3541 
Q 3525 3141 3298 2862 
Q 3072 2584 2669 2484 
Q 3125 2378 3379 2068 
Q 3634 1759 3634 1313 
Q 3634 634 3220 271 
Q 2806 -91 2034 -91 
Q 1263 -91 848 271 
Q 434 634 434 1313 
Q 434 1759 690 2068 
Q 947 2378 1403 2484 
z
M 1172 3481 
Q 1172 3119 1398 2916 
Q 1625 2713 2034 2713 
Q 2441 2713 2670 2916 
Q 2900 3119 2900 3481 
Q 2900 3844 2670 4047 
Q 2441 4250 2034 4250 
Q 1625 4250 1398 4047 
Q 1172 3844 1172 3481 
z
" transform="scale(0.015625)"/>
       </defs>
       <use xlink:href="#DejaVuSans-30"/>
       <use xlink:href="#DejaVuSans-2e" x="63.623047"/>
       <use xlink:href="#DejaVuSans-38" x="95.410156"/>
      </g>
     </g>
    </g>
    <g id="ytick_4">
     <g id="line2d_11">
      <g>
       <use xlink:href="#m364f814f6a" x="47.81" y="164.413983" style="stroke: #000000; stroke-width: 0.8"/>
      </g>
     </g>
     <g id="text_12">
      <!-- 1.0 -->
      <g transform="translate(24.906875 168.213202)scale(0.1 -0.1)">
       <use xlink:href="#DejaVuSans-31"/>
       <use xlink:href="#DejaVuSans-2e" x="63.623047"/>
       <use xlink:href="#DejaVuSans-30" x="95.410156"/>
      </g>
     </g>
    </g>
    <g id="ytick_5">
     <g id="line2d_12">
      <g>
       <use xlink:href="#m364f814f6a" x="47.81" y="95.344017" style="stroke: #000000; stroke-width: 0.8"/>
      </g>
     </g>
     <g id="text_13">
      <!-- 1.2 -->
      <g transform="translate(24.906875 99.143236)scale(0.1 -0.1)">
       <use xlink:href="#DejaVuSans-31"/>
       <use xlink:href="#DejaVuSans-2e" x="63.623047"/>
       <use xlink:href="#DejaVuSans-32" x="95.410156"/>
      </g>
     </g>
    </g>
    <g id="ytick_6">
     <g id="line2d_13">
      <g>
       <use xlink:href="#m364f814f6a" x="47.81" y="26.274052" style="stroke: #000000; stroke-width: 0.8"/>
      </g>
     </g>
     <g id="text_14">
      <!-- 1.4 -->
      <g transform="translate(24.906875 30.073271)scale(0.1 -0.1)">
       <use xlink:href="#DejaVuSans-31"/>
       <use xlink:href="#DejaVuSans-2e" x="63.623047"/>
       <use xlink:href="#DejaVuSans-34" x="95.410156"/>
      </g>
     </g>
    </g>
    <g id="text_15">
     <!-- &lt;d&gt; -->
     <g transform="translate(18.827188 211.973906)rotate(-90)scale(0.1 -0.1)">
      <defs>
       <path id="DejaVuSans-3c" d="M 4684 3150 
L 1459 2003 
L 4684 863 
L 4684 294 
L 678 1747 
L 678 2266 
L 4684 3719 
L 4684 3150 
z
" transform="scale(0.015625)"/>
       <path id="DejaVuSans-64" d="M 2906 2969 
L 2906 4863 
L 3481 4863 
L 3481 0 
L 2906 0 
L 2906 525 
Q 2725 213 2448 61 
Q 2172 -91 1784 -91 
Q 1150 -91 751 415 
Q 353 922 353 1747 
Q 353 2572 751 3078 
Q 1150 3584 1784 3584 
Q 2172 3584 2448 3432 
Q 2725 3281 2906 2969 
z
M 947 1747 
Q 947 1113 1208 752 
Q 1469 391 1925 391 
Q 2381 391 2643 752 
Q 2906 1113 2906 1747 
Q 2906 2381 2643 2742 
Q 2381 3103 1925 3103 
Q 1469 3103 1208 2742 
Q 947 2381 947 1747 
z
" transform="scale(0.015625)"/>
       <path id="DejaVuSans-3e" d="M 678 3150 
L 678 3719 
L 4684 2266 
L 4684 1747 
L 678 294 
L 678 863 
L 3897 2003 
L 678 3150 
z
" transform="scale(0.015625)"/>
      </defs>
      <use xlink:href="#DejaVuSans-3c"/>
      <use xlink:href="#DejaVuSans-64" x="83.789062"/>
      <use xlink:href="#DejaVuSans-3e" x="147.265625"/>
     </g>
    </g>
   </g>
   <g id="line2d_14">
    <path d="M 77.873182 346.914018 
L 120.820584 359.037768 
L 142.294286 346.993076 
L 185.241688 355.471262 
L 206.71539 321.36556 
L 228.189091 350.386168 
L 249.662792 372.801818 
L 271.136494 344.202804 
L 292.610195 367.680539 
L 303.347045 356.070412 
L 324.820747 353.26865 
L 335.557597 368.507279 
L 357.031299 362.913739 
L 378.505 344.789169 
L 399.978701 343.810371 
L 421.452403 342.928062 
L 442.926104 331.389717 
L 464.399805 322.692025 
L 485.873506 303.729327 
L 507.347208 279.130021 
L 528.820909 273.998602 
L 550.29461 260.148422 
L 571.768312 239.608776 
L 593.242013 228.073881 
L 614.715714 216.795258 
L 636.189416 199.508219 
L 657.663117 173.007231 
L 679.136818 164.740412 
" clip-path="url(#p17c1362f5b)" style="fill: none; stroke: #0000ff; stroke-width: 1.5; stroke-linecap: square"/>
    <defs>
     <path id="m9698e7b47b" d="M 0 3 
C 0.795609 3 1.55874 2.683901 2.12132 2.12132 
C 2.683901 1.55874 3 0.795609 3 0 
C 3 -0.795609 2.683901 -1.55874 2.12132 -2.12132 
C 1.55874 -2.683901 0.795609 -3 0 -3 
C -0.795609 -3 -1.55874 -2.683901 -2.12132 -2.12132 
C -2.683901 -1.55874 -3 -0.795609 -3 0 
C -3 0.795609 -2.683901 1.55874 -2.12132 2.12132 
C -1.55874 2.683901 -0.795609 3 0 3 
z
" style="stroke: #0000ff"/>
    </defs>
    <g clip-path="url(#p17c1362f5b)">
     <use xlink:href="#m9698e7b47b" x="77.873182" y="346.914018" style="fill: #0000ff; stroke: #0000ff"/>
     <use xlink:href="#m9698e7b47b" x="120.820584" y="359.037768" style="fill: #0000ff; stroke: #0000ff"/>
     <use xlink:href="#m9698e7b47b" x="142.294286" y="346.993076" style="fill: #0000ff; stroke: #0000ff"/>
     <use xlink:href="#m9698e7b47b" x="185.241688" y="355.471262" style="fill: #0000ff; stroke: #0000ff"/>
     <use xlink:href="#m9698e7b47b" x="206.71539" y="321.36556" style="fill: #0000ff; stroke: #0000ff"/>
     <use xlink:href="#m9698e7b47b" x="228.189091" y="350.386168" style="fill: #0000ff; stroke: #0000ff"/>
     <use xlink:href="#m9698e7b47b" x="249.662792" y="372.801818" style="fill: #0000ff; stroke: #0000ff"/>
     <use xlink:href="#m9698e7b47b" x="271.136494" y="344.202804" style="fill: #0000ff; stroke: #0000ff"/>
     <use xlink:href="#m9698e7b47b" x="292.610195" y="367.680539" style="fill: #0000ff; stroke: #0000ff"/>
     <use xlink:href="#m9698e7b47b" x="303.347045" y="356.070412" style="fill: #0000ff; stroke: #0000ff"/>
     <use xlink:href="#m9698e7b47b" x="324.820747" y="353.26865" style="fill: #0000ff; stroke: #0000ff"/>
     <use xlink:href="#m9698e7b47b" x="335.557597" y="368.507279" style="fill: #0000ff; stroke: #0000ff"/>
     <use xlink:href="#m9698e7b47b" x="357.031299" y="362.913739" style="fill: #0000ff; stroke: #0000ff"/>
     <use xlink:href="#m9698e7b47b" x="378.505" y="344.789169" style="fill: #0000ff; stroke: #0000ff"/>
     <use xlink:href="#m9698e7b47b" x="399.978701" y="343.810371" style="fill: #0000ff; stroke: #0000ff"/>
     <use xlink:href="#m9698e7b47b" x="421.452403" y="342.928062" style="fill: #0000ff; stroke: #0000ff"/>
     <use xlink:href="#m9698e7b47b" x="442.926104" y="331.389717" style="fill: #0000ff; stroke: #0000ff"/>
     <use xlink:href="#m9698e7b47b" x="464.399805" y="322.692025" style="fill: #0000ff; stroke: #0000ff"/>
     <use xlink:href="#m9698e7b47b" x="485.873506" y="303.729327" style="fill: #0000ff; stroke: #0000ff"/>
     <use xlink:href="#m9698e7b47b" x="507.347208" y="279.130021" style="fill: #0000ff; stroke: #0000ff"/>
     <use xlink:href="#m9698e7b47b" x="528.820909" y="273.998602" style="fill: #0000ff; stroke: #0000ff"/>
     <use xlink:href="#m9698e7b47b" x="550.29461" y="260.148422" style="fill: #0000ff; stroke: #0000ff"/>
     <use xlink:href="#m9698e7b47b" x="571.768312" y="239.608776" style="fill: #0000ff; stroke: #0000ff"/>
     <use xlink:href="#m9698e7b47b" x="593.242013" y="228.073881" style="fill: #0000ff; stroke: #0000ff"/>
     <use xlink:href="#m9698e7b47b" x="614.715714" y="216.795258" style="fill: #0000ff; stroke: #0000ff"/>
     <use xlink:href="#m9698e7b47b" x="636.189416" y="199.508219" style="fill: #0000ff; stroke: #0000ff"/>
     <use xlink:href="#m9698e7b47b" x="657.663117" y="173.007231" style="fill: #0000ff; stroke: #0000ff"/>
     <use xlink:href="#m9698e7b47b" x="679.136818" y="164.740412" style="fill: #0000ff; stroke: #0000ff"/>
    </g>
   </g>
   <g id="line2d_15">
    <path d="M 77.873182 369.424357 
L 120.820584 350.978884 
L 142.294286 270.714915 
L 185.241688 92.424053 
L 206.71539 96.400955 
L 228.189091 101.132397 
L 249.662792 99.583707 
L 271.136494 76.948876 
L 292.610195 81.347523 
L 303.347045 76.825449 
L 335.557597 77.776647 
L 357.031299 88.133129 
L 378.505 91.142296 
L 399.978701 97.757381 
L 421.452403 97.722821 
L 442.926104 90.966909 
L 464.399805 87.768633 
L 485.873506 83.446384 
L 507.347208 78.92612 
L 528.820909 76.945705 
L 550.29461 65.713258 
L 571.768312 64.07885 
L 593.242013 54.17417 
L 614.715714 51.206973 
L 636.189416 44.126637 
L 657.663117 36.234291 
L 679.136818 28.038182 
" clip-path="url(#p17c1362f5b)" style="fill: none; stroke: #ff0000; stroke-width: 1.5; stroke-linecap: square"/>
    <defs>
     <path id="m5e390c663b" d="M 0 3 
C 0.795609 3 1.55874 2.683901 2.12132 2.12132 
C 2.683901 1.55874 3 0.795609 3 0 
C 3 -0.795609 2.683901 -1.55874 2.12132 -2.12132 
C 1.55874 -2.683901 0.795609 -3 0 -3 
C -0.795609 -3 -1.55874 -2.683901 -2.12132 -2.12132 
C -2.683901 -1.55874 -3 -0.795609 -3 0 
C -3 0.795609 -2.683901 1.55874 -2.12132 2.12132 
C -1.55874 2.683901 -0.795609 3 0 3 
z
" style="stroke: #ff0000"/>
    </defs>
    <g clip-path="url(#p17c1362f5b)">
     <use xlink:href="#m5e390c663b" x="77.873182" y="369.424357" style="fill: #ff0000; stroke: #ff0000"/>
     <use xlink:href="#m5e390c663b" x="120.820584" y="350.978884" style="fill: #ff0000; stroke: #ff0000"/>
     <use xlink:href="#m5e390c663b" x="142.294286" y="270.714915" style="fill: #ff0000; stroke: #ff0000"/>
     <use xlink:href="#m5e390c663b" x="185.241688" y="92.424053" style="fill: #ff0000; stroke: #ff0000"/>
     <use xlink:href="#m5e390c663b" x="206.71539" y="96.400955" style="fill: #ff0000; stroke: #ff0000"/>
     <use xlink:href="#m5e390c663b" x="228.189091" y="101.132397" style="fill: #ff0000; stroke: #ff0000"/>
     <use xlink:href="#m5e390c663b" x="249.662792" y="99.583707" style="fill: #ff0000; stroke: #ff0000"/>
     <use xlink:href="#m5e390c663b" x="271.136494" y="76.948876" style="fill: #ff0000; stroke: #ff0000"/>
     <use xlink:href="#m5e390c663b" x="292.610195" y="81.347523" style="fill: #ff0000; stroke: #ff0000"/>
     <use xlink:href="#m5e390c663b" x="303.347045" y="76.825449" style="fill: #ff0000; stroke: #ff0000"/>
     <use xlink:href="#m5e390c663b" x="335.557597" y="77.776647" style="fill: #ff0000; stroke: #ff0000"/>
     <use xlink:href="#m5e390c663b" x="357.031299" y="88.133129" style="fill: #ff0000; stroke: #ff0000"/>
     <use xlink:href="#m5e390c663b" x="378.505" y="91.142296" style="fill: #ff0000; stroke: #ff0000"/>
     <use xlink:href="#m5e390c663b" x="399.978701" y="97.757381" style="fill: #ff0000; stroke: #ff0000"/>
     <use xlink:href="#m5e390c663b" x="421.452403" y="97.722821" style="fill: #ff0000; stroke: #ff0000"/>
     <use xlink:href="#m5e390c663b" x="442.926104" y="90.966909" style="fill: #ff0000; stroke: #ff0000"/>
     <use xlink:href="#m5e390c663b" x="464.399805" y="87.768633" style="fill: #ff0000; stroke: #ff0000"/>
     <use xlink:href="#m5e390c663b" x="485.873506" y="83.446384" style="fill: #ff0000; stroke: #ff0000"/>
     <use xlink:href="#m5e390c663b" x="507.347208" y="78.92612" style="fill: #ff0000; stroke: #ff0000"/>
     <use xlink:href="#m5e390c663b" x="528.820909" y="76.945705" style="fill: #ff0000; stroke: #ff0000"/>
     <use xlink:href="#m5e390c663b" x="550.29461" y="65.713258" style="fill: #ff0000; stroke: #ff0000"/>
     <use xlink:href="#m5e390c663b" x="571.768312" y="64.07885" style="fill: #ff0000; stroke: #ff0000"/>
     <use xlink:href="#m5e390c663b" x="593.242013" y="54.17417" style="fill: #ff0000; stroke: #ff0000"/>
     <use xlink:href="#m5e390c663b" x="614.715714" y="51.206973" style="fill: #ff0000; stroke: #ff0000"/>
     <use xlink:href="#m5e390c663b" x="636.189416" y="44.126637" style="fill: #ff0000; stroke: #ff0000"/>
     <use xlink:href="#m5e390c663b" x="657.663117" y="36.234291" style="fill: #ff0000; stroke: #ff0000"/>
     <use xlink:href="#m5e390c663b" x="679.136818" y="28.038182" style="fill: #ff0000; stroke: #ff0000"/>
    </g>
   </g>
   <g id="patch_3">
    <path d="M 47.81 390.04 
L 47.81 10.8 
" style="fill: none; stroke: #000000; stroke-width: 0.8; stroke-linejoin: miter; stroke-linecap: square"/>
   </g>
   <g id="patch_4">
    <path d="M 709.2 390.04 
L 709.2 10.8 
" style="fill: none; stroke: #000000; stroke-width: 0.8; stroke-linejoin: miter; stroke-linecap: square"/>
   </g>
   <g id="patch_5">
    <path d="M 47.81 390.04 
L 709.2 390.04 
" style="fill: none; stroke: #000000; stroke-width: 0.8; stroke-linejoin: miter; stroke-linecap: square"/>
   </g>
   <g id="patch_6">
    <path d="M 47.81 10.8 
L 709.2 10.8 
" style="fill: none; stroke: #000000; stroke-width: 0.8; stroke-linejoin: miter; stroke-linecap: square"/>
   </g>
   <g id="legend_1">
    <g id="patch_7">
     <path d="M 54.81 48.15625 
L 99.535 48.15625 
Q 101.535 48.15625 101.535 46.15625 
L 101.535 17.8 
Q 101.535 15.8 99.535 15.8 
L 54.81 15.8 
Q 52.81 15.8 52.81 17.8 
L 52.81 46.15625 
Q 52.81 48.15625 54.81 48.15625 
z
" style="fill: #ffffff; opacity: 0.8; stroke: #cccccc; stroke-linejoin: miter"/>
    </g>
    <g id="line2d_16">
     <path d="M 56.81 23.898438 
L 66.81 23.898438 
L 76.81 23.898438 
" style="fill: none; stroke: #0000ff; stroke-width: 1.5; stroke-linecap: square"/>
     <g>
      <use xlink:href="#m9698e7b47b" x="66.81" y="23.898438" style="fill: #0000ff; stroke: #0000ff"/>
     </g>
    </g>
    <g id="text_16">
     <!-- 30 -->
     <g transform="translate(84.81 27.398438)scale(0.1 -0.1)">
      <use xlink:href="#DejaVuSans-33"/>
      <use xlink:href="#DejaVuSans-30" x="63.623047"/>
     </g>
    </g>
    <g id="line2d_17">
     <path d="M 56.81 38.576563 
L 66.81 38.576563 
L 76.81 38.576563 
" style="fill: none; stroke: #ff0000; stroke-width: 1.5; stroke-linecap: square"/>
     <g>
      <use xlink:href="#m5e390c663b" x="66.81" y="38.576563" style="fill: #ff0000; stroke: #ff0000"/>
     </g>
    </g>
    <g id="text_17">
     <!-- 43 -->
     <g transform="translate(84.81 42.076563)scale(0.1 -0.1)">
      <use xlink:href="#DejaVuSans-34"/>
      <use xlink:href="#DejaVuSans-33" x="63.623047"/>
     </g>
    </g>
   </g>
  </g>
 </g>
 <defs>
  <clipPath id="p17c1362f5b">
   <rect x="47.81" y="10.8" width="661.39" height="379.24"/>
  </clipPath>
 </defs>
</svg>
