<?xml version="1.0" encoding="utf-8" standalone="no"?>
<!DOCTYPE svg PUBLIC "-//W3C//DTD SVG 1.1//EN"
  "http://www.w3.org/Graphics/SVG/1.1/DTD/svg11.dtd">
<svg xmlns:xlink="http://www.w3.org/1999/xlink" width="720pt" height="432pt" viewBox="0 0 720 432" xmlns="http://www.w3.org/2000/svg" version="1.1">
 <metadata>
  <rdf:RDF xmlns:dc="http://purl.org/dc/elements/1.1/" xmlns:cc="http://creativecommons.org/ns#" xmlns:rdf="http://www.w3.org/1999/02/22-rdf-syntax-ns#">
   <cc:Work>
    <dc:type rdf:resource="http://purl.org/dc/dcmitype/StillImage"/>
    <dc:date>2023-09-29T11:11:54.376208</dc:date>
    <dc:format>image/svg+xml</dc:format>
    <dc:creator>
     <cc:Agent>
      <dc:title>Matplotlib v3.5.1, https://matplotlib.org/</dc:title>
     </cc:Agent>
    </dc:creator>
   </cc:Work>
  </rdf:RDF>
 </metadata>
 <defs>
  <style type="text/css">*{stroke-linejoin: round; stroke-linecap: butt}</style>
 </defs>
 <g id="figure_1">
  <g id="patch_1">
   <path d="M 0 432 
L 720 432 
L 720 0 
L 0 0 
z
" style="fill: #ffffff"/>
  </g>
  <g id="axes_1">
   <g id="patch_2">
    <path d="M 47.81 390.04 
L 709.2 390.04 
L 709.2 10.8 
L 47.81 10.8 
z
" style="fill: #ffffff"/>
   </g>
   <g id="matplotlib.axis_1">
    <g id="xtick_1">
     <g id="line2d_1">
      <defs>
       <path id="m00a052ad34" d="M 0 0 
L 0 3.5 
" style="stroke: #000000; stroke-width: 0.8"/>
      </defs>
      <g>
       <use xlink:href="#m00a052ad34" x="77.873182" y="390.04" style="stroke: #000000; stroke-width: 0.8"/>
      </g>
     </g>
     <g id="text_1">
      <!-- 0 -->
      <g transform="translate(74.691932 404.638438)scale(0.1 -0.1)">
       <defs>
        <path id="DejaVuSans-30" d="M 2034 4250 
Q 1547 4250 1301 3770 
Q 1056 3291 1056 2328 
Q 1056 1369 1301 889 
Q 1547 409 2034 409 
Q 2525 409 2770 889 
Q 3016 1369 3016 2328 
Q 3016 3291 2770 3770 
Q 2525 4250 2034 4250 
z
M 2034 4750 
Q 2819 4750 3233 4129 
Q 3647 3509 3647 2328 
Q 3647 1150 3233 529 
Q 2819 -91 2034 -91 
Q 1250 -91 836 529 
Q 422 1150 422 2328 
Q 422 3509 836 4129 
Q 1250 4750 2034 4750 
z
" transform="scale(0.015625)"/>
       </defs>
       <use xlink:href="#DejaVuSans-30"/>
      </g>
     </g>
    </g>
    <g id="xtick_2">
     <g id="line2d_2">
      <g>
       <use xlink:href="#m00a052ad34" x="176.440991" y="390.04" style="stroke: #000000; stroke-width: 0.8"/>
      </g>
     </g>
     <g id="text_2">
      <!-- 10 -->
      <g transform="translate(170.078491 404.638438)scale(0.1 -0.1)">
       <defs>
        <path id="DejaVuSans-31" d="M 794 531 
L 1825 531 
L 1825 4091 
L 703 3866 
L 703 4441 
L 1819 4666 
L 2450 4666 
L 2450 531 
L 3481 531 
L 3481 0 
L 794 0 
L 794 531 
z
" transform="scale(0.015625)"/>
       </defs>
       <use xlink:href="#DejaVuSans-31"/>
       <use xlink:href="#DejaVuSans-30" x="63.623047"/>
      </g>
     </g>
    </g>
    <g id="xtick_3">
     <g id="line2d_3">
      <g>
       <use xlink:href="#m00a052ad34" x="275.0088" y="390.04" style="stroke: #000000; stroke-width: 0.8"/>
      </g>
     </g>
     <g id="text_3">
      <!-- 20 -->
      <g transform="translate(268.6463 404.638438)scale(0.1 -0.1)">
       <defs>
        <path id="DejaVuSans-32" d="M 1228 531 
L 3431 531 
L 3431 0 
L 469 0 
L 469 531 
Q 828 903 1448 1529 
Q 2069 2156 2228 2338 
Q 2531 2678 2651 2914 
Q 2772 3150 2772 3378 
Q 2772 3750 2511 3984 
Q 2250 4219 1831 4219 
Q 1534 4219 1204 4116 
Q 875 4013 500 3803 
L 500 4441 
Q 881 4594 1212 4672 
Q 1544 4750 1819 4750 
Q 2544 4750 2975 4387 
Q 3406 4025 3406 3419 
Q 3406 3131 3298 2873 
Q 3191 2616 2906 2266 
Q 2828 2175 2409 1742 
Q 1991 1309 1228 531 
z
" transform="scale(0.015625)"/>
       </defs>
       <use xlink:href="#DejaVuSans-32"/>
       <use xlink:href="#DejaVuSans-30" x="63.623047"/>
      </g>
     </g>
    </g>
    <g id="xtick_4">
     <g id="line2d_4">
      <g>
       <use xlink:href="#m00a052ad34" x="373.57661" y="390.04" style="stroke: #000000; stroke-width: 0.8"/>
      </g>
     </g>
     <g id="text_4">
      <!-- 30 -->
      <g transform="translate(367.21411 404.638438)scale(0.1 -0.1)">
       <defs>
        <path id="DejaVuSans-33" d="M 2597 2516 
Q 3050 2419 3304 2112 
Q 3559 1806 3559 1356 
Q 3559 666 3084 287 
Q 2609 -91 1734 -91 
Q 1441 -91 1130 -33 
Q 819 25 488 141 
L 488 750 
Q 750 597 1062 519 
Q 1375 441 1716 441 
Q 2309 441 2620 675 
Q 2931 909 2931 1356 
Q 2931 1769 2642 2001 
Q 2353 2234 1838 2234 
L 1294 2234 
L 1294 2753 
L 1863 2753 
Q 2328 2753 2575 2939 
Q 2822 3125 2822 3475 
Q 2822 3834 2567 4026 
Q 2313 4219 1838 4219 
Q 1578 4219 1281 4162 
Q 984 4106 628 3988 
L 628 4550 
Q 988 4650 1302 4700 
Q 1616 4750 1894 4750 
Q 2613 4750 3031 4423 
Q 3450 4097 3450 3541 
Q 3450 3153 3228 2886 
Q 3006 2619 2597 2516 
z
" transform="scale(0.015625)"/>
       </defs>
       <use xlink:href="#DejaVuSans-33"/>
       <use xlink:href="#DejaVuSans-30" x="63.623047"/>
      </g>
     </g>
    </g>
    <g id="xtick_5">
     <g id="line2d_5">
      <g>
       <use xlink:href="#m00a052ad34" x="472.144419" y="390.04" style="stroke: #000000; stroke-width: 0.8"/>
      </g>
     </g>
     <g id="text_5">
      <!-- 40 -->
      <g transform="translate(465.781919 404.638438)scale(0.1 -0.1)">
       <defs>
        <path id="DejaVuSans-34" d="M 2419 4116 
L 825 1625 
L 2419 1625 
L 2419 4116 
z
M 2253 4666 
L 3047 4666 
L 3047 1625 
L 3713 1625 
L 3713 1100 
L 3047 1100 
L 3047 0 
L 2419 0 
L 2419 1100 
L 313 1100 
L 313 1709 
L 2253 4666 
z
" transform="scale(0.015625)"/>
       </defs>
       <use xlink:href="#DejaVuSans-34"/>
       <use xlink:href="#DejaVuSans-30" x="63.623047"/>
      </g>
     </g>
    </g>
    <g id="xtick_6">
     <g id="line2d_6">
      <g>
       <use xlink:href="#m00a052ad34" x="570.712228" y="390.04" style="stroke: #000000; stroke-width: 0.8"/>
      </g>
     </g>
     <g id="text_6">
      <!-- 50 -->
      <g transform="translate(564.349728 404.638438)scale(0.1 -0.1)">
       <defs>
        <path id="DejaVuSans-35" d="M 691 4666 
L 3169 4666 
L 3169 4134 
L 1269 4134 
L 1269 2991 
Q 1406 3038 1543 3061 
Q 1681 3084 1819 3084 
Q 2600 3084 3056 2656 
Q 3513 2228 3513 1497 
Q 3513 744 3044 326 
Q 2575 -91 1722 -91 
Q 1428 -91 1123 -41 
Q 819 9 494 109 
L 494 744 
Q 775 591 1075 516 
Q 1375 441 1709 441 
Q 2250 441 2565 725 
Q 2881 1009 2881 1497 
Q 2881 1984 2565 2268 
Q 2250 2553 1709 2553 
Q 1456 2553 1204 2497 
Q 953 2441 691 2322 
L 691 4666 
z
" transform="scale(0.015625)"/>
       </defs>
       <use xlink:href="#DejaVuSans-35"/>
       <use xlink:href="#DejaVuSans-30" x="63.623047"/>
      </g>
     </g>
    </g>
    <g id="xtick_7">
     <g id="line2d_7">
      <g>
       <use xlink:href="#m00a052ad34" x="669.280037" y="390.04" style="stroke: #000000; stroke-width: 0.8"/>
      </g>
     </g>
     <g id="text_7">
      <!-- 60 -->
      <g transform="translate(662.917537 404.638438)scale(0.1 -0.1)">
       <defs>
        <path id="DejaVuSans-36" d="M 2113 2584 
Q 1688 2584 1439 2293 
Q 1191 2003 1191 1497 
Q 1191 994 1439 701 
Q 1688 409 2113 409 
Q 2538 409 2786 701 
Q 3034 994 3034 1497 
Q 3034 2003 2786 2293 
Q 2538 2584 2113 2584 
z
M 3366 4563 
L 3366 3988 
Q 3128 4100 2886 4159 
Q 2644 4219 2406 4219 
Q 1781 4219 1451 3797 
Q 1122 3375 1075 2522 
Q 1259 2794 1537 2939 
Q 1816 3084 2150 3084 
Q 2853 3084 3261 2657 
Q 3669 2231 3669 1497 
Q 3669 778 3244 343 
Q 2819 -91 2113 -91 
Q 1303 -91 875 529 
Q 447 1150 447 2328 
Q 447 3434 972 4092 
Q 1497 4750 2381 4750 
Q 2619 4750 2861 4703 
Q 3103 4656 3366 4563 
z
" transform="scale(0.015625)"/>
       </defs>
       <use xlink:href="#DejaVuSans-36"/>
       <use xlink:href="#DejaVuSans-30" x="63.623047"/>
      </g>
     </g>
    </g>
    <g id="text_8">
     <!-- step -->
     <g transform="translate(367.689375 418.316562)scale(0.1 -0.1)">
      <defs>
       <path id="DejaVuSans-73" d="M 2834 3397 
L 2834 2853 
Q 2591 2978 2328 3040 
Q 2066 3103 1784 3103 
Q 1356 3103 1142 2972 
Q 928 2841 928 2578 
Q 928 2378 1081 2264 
Q 1234 2150 1697 2047 
L 1894 2003 
Q 2506 1872 2764 1633 
Q 3022 1394 3022 966 
Q 3022 478 2636 193 
Q 2250 -91 1575 -91 
Q 1294 -91 989 -36 
Q 684 19 347 128 
L 347 722 
Q 666 556 975 473 
Q 1284 391 1588 391 
Q 1994 391 2212 530 
Q 2431 669 2431 922 
Q 2431 1156 2273 1281 
Q 2116 1406 1581 1522 
L 1381 1569 
Q 847 1681 609 1914 
Q 372 2147 372 2553 
Q 372 3047 722 3315 
Q 1072 3584 1716 3584 
Q 2034 3584 2315 3537 
Q 2597 3491 2834 3397 
z
" transform="scale(0.015625)"/>
       <path id="DejaVuSans-74" d="M 1172 4494 
L 1172 3500 
L 2356 3500 
L 2356 3053 
L 1172 3053 
L 1172 1153 
Q 1172 725 1289 603 
Q 1406 481 1766 481 
L 2356 481 
L 2356 0 
L 1766 0 
Q 1100 0 847 248 
Q 594 497 594 1153 
L 594 3053 
L 172 3053 
L 172 3500 
L 594 3500 
L 594 4494 
L 1172 4494 
z
" transform="scale(0.015625)"/>
       <path id="DejaVuSans-65" d="M 3597 1894 
L 3597 1613 
L 953 1613 
Q 991 1019 1311 708 
Q 1631 397 2203 397 
Q 2534 397 2845 478 
Q 3156 559 3463 722 
L 3463 178 
Q 3153 47 2828 -22 
Q 2503 -91 2169 -91 
Q 1331 -91 842 396 
Q 353 884 353 1716 
Q 353 2575 817 3079 
Q 1281 3584 2069 3584 
Q 2775 3584 3186 3129 
Q 3597 2675 3597 1894 
z
M 3022 2063 
Q 3016 2534 2758 2815 
Q 2500 3097 2075 3097 
Q 1594 3097 1305 2825 
Q 1016 2553 972 2059 
L 3022 2063 
z
" transform="scale(0.015625)"/>
       <path id="DejaVuSans-70" d="M 1159 525 
L 1159 -1331 
L 581 -1331 
L 581 3500 
L 1159 3500 
L 1159 2969 
Q 1341 3281 1617 3432 
Q 1894 3584 2278 3584 
Q 2916 3584 3314 3078 
Q 3713 2572 3713 1747 
Q 3713 922 3314 415 
Q 2916 -91 2278 -91 
Q 1894 -91 1617 61 
Q 1341 213 1159 525 
z
M 3116 1747 
Q 3116 2381 2855 2742 
Q 2594 3103 2138 3103 
Q 1681 3103 1420 2742 
Q 1159 2381 1159 1747 
Q 1159 1113 1420 752 
Q 1681 391 2138 391 
Q 2594 391 2855 752 
Q 3116 1113 3116 1747 
z
" transform="scale(0.015625)"/>
      </defs>
      <use xlink:href="#DejaVuSans-73"/>
      <use xlink:href="#DejaVuSans-74" x="52.099609"/>
      <use xlink:href="#DejaVuSans-65" x="91.308594"/>
      <use xlink:href="#DejaVuSans-70" x="152.832031"/>
     </g>
    </g>
   </g>
   <g id="matplotlib.axis_2">
    <g id="ytick_1">
     <g id="line2d_8">
      <defs>
       <path id="mdacea68301" d="M 0 0 
L -3.5 0 
" style="stroke: #000000; stroke-width: 0.8"/>
      </defs>
      <g>
       <use xlink:href="#mdacea68301" x="47.81" y="347.54564" style="stroke: #000000; stroke-width: 0.8"/>
      </g>
     </g>
     <g id="text_9">
      <!-- 0.2 -->
      <g transform="translate(24.906875 351.344858)scale(0.1 -0.1)">
       <defs>
        <path id="DejaVuSans-2e" d="M 684 794 
L 1344 794 
L 1344 0 
L 684 0 
L 684 794 
z
" transform="scale(0.015625)"/>
       </defs>
       <use xlink:href="#DejaVuSans-30"/>
       <use xlink:href="#DejaVuSans-2e" x="63.623047"/>
       <use xlink:href="#DejaVuSans-32" x="95.410156"/>
      </g>
     </g>
    </g>
    <g id="ytick_2">
     <g id="line2d_9">
      <g>
       <use xlink:href="#mdacea68301" x="47.81" y="270.232441" style="stroke: #000000; stroke-width: 0.8"/>
      </g>
     </g>
     <g id="text_10">
      <!-- 0.4 -->
      <g transform="translate(24.906875 274.031659)scale(0.1 -0.1)">
       <use xlink:href="#DejaVuSans-30"/>
       <use xlink:href="#DejaVuSans-2e" x="63.623047"/>
       <use xlink:href="#DejaVuSans-34" x="95.410156"/>
      </g>
     </g>
    </g>
    <g id="ytick_3">
     <g id="line2d_10">
      <g>
       <use xlink:href="#mdacea68301" x="47.81" y="192.919241" style="stroke: #000000; stroke-width: 0.8"/>
      </g>
     </g>
     <g id="text_11">
      <!-- 0.6 -->
      <g transform="translate(24.906875 196.71846)scale(0.1 -0.1)">
       <use xlink:href="#DejaVuSans-30"/>
       <use xlink:href="#DejaVuSans-2e" x="63.623047"/>
       <use xlink:href="#DejaVuSans-36" x="95.410156"/>
      </g>
     </g>
    </g>
    <g id="ytick_4">
     <g id="line2d_11">
      <g>
       <use xlink:href="#mdacea68301" x="47.81" y="115.606042" style="stroke: #000000; stroke-width: 0.8"/>
      </g>
     </g>
     <g id="text_12">
      <!-- 0.8 -->
      <g transform="translate(24.906875 119.405261)scale(0.1 -0.1)">
       <defs>
        <path id="DejaVuSans-38" d="M 2034 2216 
Q 1584 2216 1326 1975 
Q 1069 1734 1069 1313 
Q 1069 891 1326 650 
Q 1584 409 2034 409 
Q 2484 409 2743 651 
Q 3003 894 3003 1313 
Q 3003 1734 2745 1975 
Q 2488 2216 2034 2216 
z
M 1403 2484 
Q 997 2584 770 2862 
Q 544 3141 544 3541 
Q 544 4100 942 4425 
Q 1341 4750 2034 4750 
Q 2731 4750 3128 4425 
Q 3525 4100 3525 3541 
Q 3525 3141 3298 2862 
Q 3072 2584 2669 2484 
Q 3125 2378 3379 2068 
Q 3634 1759 3634 1313 
Q 3634 634 3220 271 
Q 2806 -91 2034 -91 
Q 1263 -91 848 271 
Q 434 634 434 1313 
Q 434 1759 690 2068 
Q 947 2378 1403 2484 
z
M 1172 3481 
Q 1172 3119 1398 2916 
Q 1625 2713 2034 2713 
Q 2441 2713 2670 2916 
Q 2900 3119 2900 3481 
Q 2900 3844 2670 4047 
Q 2441 4250 2034 4250 
Q 1625 4250 1398 4047 
Q 1172 3844 1172 3481 
z
" transform="scale(0.015625)"/>
       </defs>
       <use xlink:href="#DejaVuSans-30"/>
       <use xlink:href="#DejaVuSans-2e" x="63.623047"/>
       <use xlink:href="#DejaVuSans-38" x="95.410156"/>
      </g>
     </g>
    </g>
    <g id="ytick_5">
     <g id="line2d_12">
      <g>
       <use xlink:href="#mdacea68301" x="47.81" y="38.292843" style="stroke: #000000; stroke-width: 0.8"/>
      </g>
     </g>
     <g id="text_13">
      <!-- 1.0 -->
      <g transform="translate(24.906875 42.092062)scale(0.1 -0.1)">
       <use xlink:href="#DejaVuSans-31"/>
       <use xlink:href="#DejaVuSans-2e" x="63.623047"/>
       <use xlink:href="#DejaVuSans-30" x="95.410156"/>
      </g>
     </g>
    </g>
    <g id="text_14">
     <!-- D -->
     <g transform="translate(18.827188 204.27)rotate(-90)scale(0.1 -0.1)">
      <defs>
       <path id="DejaVuSans-44" d="M 1259 4147 
L 1259 519 
L 2022 519 
Q 2988 519 3436 956 
Q 3884 1394 3884 2338 
Q 3884 3275 3436 3711 
Q 2988 4147 2022 4147 
L 1259 4147 
z
M 628 4666 
L 1925 4666 
Q 3281 4666 3915 4102 
Q 4550 3538 4550 2338 
Q 4550 1131 3912 565 
Q 3275 0 1925 0 
L 628 0 
L 628 4666 
z
" transform="scale(0.015625)"/>
      </defs>
      <use xlink:href="#DejaVuSans-44"/>
     </g>
    </g>
   </g>
   <g id="line2d_13">
    <path d="M 97.586744 43.147381 
L 137.013867 42.560218 
L 156.727429 54.347464 
L 196.154553 52.029613 
L 215.868115 67.408284 
L 235.581677 50.284695 
L 255.295238 32.231422 
L 275.0088 53.278631 
L 294.722362 31.177327 
L 304.579143 36.835256 
L 324.292705 43.602864 
L 334.149486 42.125322 
L 353.863048 44.724803 
L 373.57661 60.985013 
L 393.290171 62.510416 
L 413.003733 74.91825 
L 432.717295 85.150383 
L 452.430857 89.319757 
L 472.144419 130.038645 
L 491.857981 149.907512 
L 511.571542 159.968582 
L 531.285104 179.282004 
L 550.998666 197.284845 
L 570.712228 216.004451 
L 590.42579 234.905631 
L 610.139352 255.191109 
L 629.852914 277.850159 
L 649.566475 293.478642 
" clip-path="url(#pe51d45d0aa)" style="fill: none; stroke: #0000ff; stroke-width: 1.5; stroke-linecap: square"/>
    <defs>
     <path id="m7bfbb6db28" d="M 0 3 
C 0.795609 3 1.55874 2.683901 2.12132 2.12132 
C 2.683901 1.55874 3 0.795609 3 0 
C 3 -0.795609 2.683901 -1.55874 2.12132 -2.12132 
C 1.55874 -2.683901 0.795609 -3 0 -3 
C -0.795609 -3 -1.55874 -2.683901 -2.12132 -2.12132 
C -2.683901 -1.55874 -3 -0.795609 -3 0 
C -3 0.795609 -2.683901 1.55874 -2.12132 2.12132 
C -1.55874 2.683901 -0.795609 3 0 3 
z
" style="stroke: #0000ff"/>
    </defs>
    <g clip-path="url(#pe51d45d0aa)">
     <use xlink:href="#m7bfbb6db28" x="97.586744" y="43.147381" style="fill: #0000ff; stroke: #0000ff"/>
     <use xlink:href="#m7bfbb6db28" x="137.013867" y="42.560218" style="fill: #0000ff; stroke: #0000ff"/>
     <use xlink:href="#m7bfbb6db28" x="156.727429" y="54.347464" style="fill: #0000ff; stroke: #0000ff"/>
     <use xlink:href="#m7bfbb6db28" x="196.154553" y="52.029613" style="fill: #0000ff; stroke: #0000ff"/>
     <use xlink:href="#m7bfbb6db28" x="215.868115" y="67.408284" style="fill: #0000ff; stroke: #0000ff"/>
     <use xlink:href="#m7bfbb6db28" x="235.581677" y="50.284695" style="fill: #0000ff; stroke: #0000ff"/>
     <use xlink:href="#m7bfbb6db28" x="255.295238" y="32.231422" style="fill: #0000ff; stroke: #0000ff"/>
     <use xlink:href="#m7bfbb6db28" x="275.0088" y="53.278631" style="fill: #0000ff; stroke: #0000ff"/>
     <use xlink:href="#m7bfbb6db28" x="294.722362" y="31.177327" style="fill: #0000ff; stroke: #0000ff"/>
     <use xlink:href="#m7bfbb6db28" x="304.579143" y="36.835256" style="fill: #0000ff; stroke: #0000ff"/>
     <use xlink:href="#m7bfbb6db28" x="324.292705" y="43.602864" style="fill: #0000ff; stroke: #0000ff"/>
     <use xlink:href="#m7bfbb6db28" x="334.149486" y="42.125322" style="fill: #0000ff; stroke: #0000ff"/>
     <use xlink:href="#m7bfbb6db28" x="353.863048" y="44.724803" style="fill: #0000ff; stroke: #0000ff"/>
     <use xlink:href="#m7bfbb6db28" x="373.57661" y="60.985013" style="fill: #0000ff; stroke: #0000ff"/>
     <use xlink:href="#m7bfbb6db28" x="393.290171" y="62.510416" style="fill: #0000ff; stroke: #0000ff"/>
     <use xlink:href="#m7bfbb6db28" x="413.003733" y="74.91825" style="fill: #0000ff; stroke: #0000ff"/>
     <use xlink:href="#m7bfbb6db28" x="432.717295" y="85.150383" style="fill: #0000ff; stroke: #0000ff"/>
     <use xlink:href="#m7bfbb6db28" x="452.430857" y="89.319757" style="fill: #0000ff; stroke: #0000ff"/>
     <use xlink:href="#m7bfbb6db28" x="472.144419" y="130.038645" style="fill: #0000ff; stroke: #0000ff"/>
     <use xlink:href="#m7bfbb6db28" x="491.857981" y="149.907512" style="fill: #0000ff; stroke: #0000ff"/>
     <use xlink:href="#m7bfbb6db28" x="511.571542" y="159.968582" style="fill: #0000ff; stroke: #0000ff"/>
     <use xlink:href="#m7bfbb6db28" x="531.285104" y="179.282004" style="fill: #0000ff; stroke: #0000ff"/>
     <use xlink:href="#m7bfbb6db28" x="550.998666" y="197.284845" style="fill: #0000ff; stroke: #0000ff"/>
     <use xlink:href="#m7bfbb6db28" x="570.712228" y="216.004451" style="fill: #0000ff; stroke: #0000ff"/>
     <use xlink:href="#m7bfbb6db28" x="590.42579" y="234.905631" style="fill: #0000ff; stroke: #0000ff"/>
     <use xlink:href="#m7bfbb6db28" x="610.139352" y="255.191109" style="fill: #0000ff; stroke: #0000ff"/>
     <use xlink:href="#m7bfbb6db28" x="629.852914" y="277.850159" style="fill: #0000ff; stroke: #0000ff"/>
     <use xlink:href="#m7bfbb6db28" x="649.566475" y="293.478642" style="fill: #0000ff; stroke: #0000ff"/>
    </g>
   </g>
   <g id="line2d_14">
    <path d="M 97.586744 28.038182 
L 137.013867 59.097381 
L 156.727429 150.31983 
L 196.154553 346.421065 
L 215.868115 355.164742 
L 235.581677 362.133823 
L 255.295238 364.560528 
L 275.0088 358.917859 
L 294.722362 365.738694 
L 304.579143 356.983827 
L 334.149486 366.802396 
L 353.863048 362.78989 
L 373.57661 357.183991 
L 393.290171 367.198532 
L 413.003733 360.303537 
L 432.717295 356.482586 
L 452.430857 364.575671 
L 472.144419 364.53242 
L 491.857981 362.744378 
L 511.571542 357.455726 
L 531.285104 364.671134 
L 550.998666 366.446272 
L 570.712228 362.080037 
L 590.42579 365.941899 
L 610.139352 367.487665 
L 629.852914 372.402786 
L 649.566475 372.801818 
" clip-path="url(#pe51d45d0aa)" style="fill: none; stroke: #ff0000; stroke-width: 1.5; stroke-linecap: square"/>
    <defs>
     <path id="m9604c69433" d="M 0 3 
C 0.795609 3 1.55874 2.683901 2.12132 2.12132 
C 2.683901 1.55874 3 0.795609 3 0 
C 3 -0.795609 2.683901 -1.55874 2.12132 -2.12132 
C 1.55874 -2.683901 0.795609 -3 0 -3 
C -0.795609 -3 -1.55874 -2.683901 -2.12132 -2.12132 
C -2.683901 -1.55874 -3 -0.795609 -3 0 
C -3 0.795609 -2.683901 1.55874 -2.12132 2.12132 
C -1.55874 2.683901 -0.795609 3 0 3 
z
" style="stroke: #ff0000"/>
    </defs>
    <g clip-path="url(#pe51d45d0aa)">
     <use xlink:href="#m9604c69433" x="97.586744" y="28.038182" style="fill: #ff0000; stroke: #ff0000"/>
     <use xlink:href="#m9604c69433" x="137.013867" y="59.097381" style="fill: #ff0000; stroke: #ff0000"/>
     <use xlink:href="#m9604c69433" x="156.727429" y="150.31983" style="fill: #ff0000; stroke: #ff0000"/>
     <use xlink:href="#m9604c69433" x="196.154553" y="346.421065" style="fill: #ff0000; stroke: #ff0000"/>
     <use xlink:href="#m9604c69433" x="215.868115" y="355.164742" style="fill: #ff0000; stroke: #ff0000"/>
     <use xlink:href="#m9604c69433" x="235.581677" y="362.133823" style="fill: #ff0000; stroke: #ff0000"/>
     <use xlink:href="#m9604c69433" x="255.295238" y="364.560528" style="fill: #ff0000; stroke: #ff0000"/>
     <use xlink:href="#m9604c69433" x="275.0088" y="358.917859" style="fill: #ff0000; stroke: #ff0000"/>
     <use xlink:href="#m9604c69433" x="294.722362" y="365.738694" style="fill: #ff0000; stroke: #ff0000"/>
     <use xlink:href="#m9604c69433" x="304.579143" y="356.983827" style="fill: #ff0000; stroke: #ff0000"/>
     <use xlink:href="#m9604c69433" x="334.149486" y="366.802396" style="fill: #ff0000; stroke: #ff0000"/>
     <use xlink:href="#m9604c69433" x="353.863048" y="362.78989" style="fill: #ff0000; stroke: #ff0000"/>
     <use xlink:href="#m9604c69433" x="373.57661" y="357.183991" style="fill: #ff0000; stroke: #ff0000"/>
     <use xlink:href="#m9604c69433" x="393.290171" y="367.198532" style="fill: #ff0000; stroke: #ff0000"/>
     <use xlink:href="#m9604c69433" x="413.003733" y="360.303537" style="fill: #ff0000; stroke: #ff0000"/>
     <use xlink:href="#m9604c69433" x="432.717295" y="356.482586" style="fill: #ff0000; stroke: #ff0000"/>
     <use xlink:href="#m9604c69433" x="452.430857" y="364.575671" style="fill: #ff0000; stroke: #ff0000"/>
     <use xlink:href="#m9604c69433" x="472.144419" y="364.53242" style="fill: #ff0000; stroke: #ff0000"/>
     <use xlink:href="#m9604c69433" x="491.857981" y="362.744378" style="fill: #ff0000; stroke: #ff0000"/>
     <use xlink:href="#m9604c69433" x="511.571542" y="357.455726" style="fill: #ff0000; stroke: #ff0000"/>
     <use xlink:href="#m9604c69433" x="531.285104" y="364.671134" style="fill: #ff0000; stroke: #ff0000"/>
     <use xlink:href="#m9604c69433" x="550.998666" y="366.446272" style="fill: #ff0000; stroke: #ff0000"/>
     <use xlink:href="#m9604c69433" x="570.712228" y="362.080037" style="fill: #ff0000; stroke: #ff0000"/>
     <use xlink:href="#m9604c69433" x="590.42579" y="365.941899" style="fill: #ff0000; stroke: #ff0000"/>
     <use xlink:href="#m9604c69433" x="610.139352" y="367.487665" style="fill: #ff0000; stroke: #ff0000"/>
     <use xlink:href="#m9604c69433" x="629.852914" y="372.402786" style="fill: #ff0000; stroke: #ff0000"/>
     <use xlink:href="#m9604c69433" x="649.566475" y="372.801818" style="fill: #ff0000; stroke: #ff0000"/>
    </g>
   </g>
   <g id="line2d_15">
    <path d="M 77.873182 38.292843 
L 83.946552 38.292843 
L 90.019922 38.292843 
L 96.093292 38.292843 
L 102.166662 38.292843 
L 108.240032 38.292843 
L 114.313402 38.292843 
L 120.386772 38.292843 
L 126.460142 38.292843 
L 132.533512 38.292843 
L 138.606882 38.292843 
L 144.680253 38.292843 
L 150.753623 38.292843 
L 156.826993 38.292843 
L 162.900363 38.292843 
L 168.973733 38.292843 
L 175.047103 38.292843 
L 181.120473 38.292843 
L 187.193843 38.292843 
L 193.267213 38.292843 
L 199.340583 38.292843 
L 205.413953 38.292843 
L 211.487323 38.292843 
L 217.560693 38.292843 
L 223.634063 38.292843 
L 229.707433 38.292843 
L 235.780803 38.292843 
L 241.854174 38.292843 
L 247.927544 38.292843 
L 254.000914 38.292843 
L 260.074284 38.292843 
L 266.147654 38.292843 
L 272.221024 38.292843 
L 278.294394 38.292843 
L 284.367764 38.292843 
L 290.441134 38.292843 
L 296.514504 38.292843 
L 302.587874 38.292843 
L 308.661244 38.292843 
L 314.734614 38.292843 
L 320.807984 38.292843 
L 326.881354 38.292843 
L 332.954725 38.292843 
L 339.028095 38.292843 
L 345.101465 38.292843 
L 351.174835 38.292843 
L 357.248205 38.292843 
L 363.321575 38.292843 
L 369.394945 38.292843 
L 375.468315 38.292843 
L 381.541685 38.292843 
L 387.615055 38.292843 
L 393.688425 38.292843 
L 399.761795 38.292843 
L 405.835165 38.292843 
L 411.908535 38.292843 
L 417.981905 38.292843 
L 424.055275 38.292843 
L 430.128646 38.292843 
L 436.202016 38.292843 
L 442.275386 38.292843 
L 448.348756 38.292843 
L 454.422126 38.292843 
L 460.495496 38.292843 
L 466.568866 38.292843 
L 472.642236 38.292843 
L 478.715606 38.292843 
L 484.788976 38.292843 
L 490.862346 38.292843 
L 496.935716 38.292843 
L 503.009086 38.292843 
L 509.082456 38.292843 
L 515.155826 38.292843 
L 521.229197 38.292843 
L 527.302567 38.292843 
L 533.375937 38.292843 
L 539.449307 38.292843 
L 545.522677 38.292843 
L 551.596047 38.292843 
L 557.669417 38.292843 
L 563.742787 38.292843 
L 569.816157 38.292843 
L 575.889527 38.292843 
L 581.962897 38.292843 
L 588.036267 38.292843 
L 594.109637 38.292843 
L 600.183007 38.292843 
L 606.256377 38.292843 
L 612.329747 38.292843 
L 618.403118 38.292843 
L 624.476488 38.292843 
L 630.549858 38.292843 
L 636.623228 38.292843 
L 642.696598 38.292843 
L 648.769968 38.292843 
L 654.843338 38.292843 
L 660.916708 38.292843 
L 666.990078 38.292843 
L 673.063448 38.292843 
L 679.136818 38.292843 
" clip-path="url(#pe51d45d0aa)" style="fill: none; stroke-dasharray: 5.55,2.4; stroke-dashoffset: 0; stroke: #000000; stroke-width: 1.5"/>
   </g>
   <g id="patch_3">
    <path d="M 47.81 390.04 
L 47.81 10.8 
" style="fill: none; stroke: #000000; stroke-width: 0.8; stroke-linejoin: miter; stroke-linecap: square"/>
   </g>
   <g id="patch_4">
    <path d="M 709.2 390.04 
L 709.2 10.8 
" style="fill: none; stroke: #000000; stroke-width: 0.8; stroke-linejoin: miter; stroke-linecap: square"/>
   </g>
   <g id="patch_5">
    <path d="M 47.81 390.04 
L 709.2 390.04 
" style="fill: none; stroke: #000000; stroke-width: 0.8; stroke-linejoin: miter; stroke-linecap: square"/>
   </g>
   <g id="patch_6">
    <path d="M 47.81 10.8 
L 709.2 10.8 
" style="fill: none; stroke: #000000; stroke-width: 0.8; stroke-linejoin: miter; stroke-linecap: square"/>
   </g>
   <g id="legend_1">
    <g id="patch_7">
     <path d="M 54.81 385.04 
L 109.252188 385.04 
Q 111.252188 385.04 111.252188 383.04 
L 111.252188 340.005625 
Q 111.252188 338.005625 109.252188 338.005625 
L 54.81 338.005625 
Q 52.81 338.005625 52.81 340.005625 
L 52.81 383.04 
Q 52.81 385.04 54.81 385.04 
z
" style="fill: #ffffff; opacity: 0.8; stroke: #cccccc; stroke-linejoin: miter"/>
    </g>
    <g id="line2d_16">
     <path d="M 56.81 346.104062 
L 66.81 346.104062 
L 76.81 346.104062 
" style="fill: none; stroke: #0000ff; stroke-width: 1.5; stroke-linecap: square"/>
     <g>
      <use xlink:href="#m7bfbb6db28" x="66.81" y="346.104062" style="fill: #0000ff; stroke: #0000ff"/>
     </g>
    </g>
    <g id="text_15">
     <!-- 30 -->
     <g transform="translate(84.81 349.604062)scale(0.1 -0.1)">
      <use xlink:href="#DejaVuSans-33"/>
      <use xlink:href="#DejaVuSans-30" x="63.623047"/>
     </g>
    </g>
    <g id="line2d_17">
     <path d="M 56.81 360.782187 
L 66.81 360.782187 
L 76.81 360.782187 
" style="fill: none; stroke: #ff0000; stroke-width: 1.5; stroke-linecap: square"/>
     <g>
      <use xlink:href="#m9604c69433" x="66.81" y="360.782187" style="fill: #ff0000; stroke: #ff0000"/>
     </g>
    </g>
    <g id="text_16">
     <!-- 43 -->
     <g transform="translate(84.81 364.282187)scale(0.1 -0.1)">
      <use xlink:href="#DejaVuSans-34"/>
      <use xlink:href="#DejaVuSans-33" x="63.623047"/>
     </g>
    </g>
    <g id="line2d_18">
     <path d="M 56.81 375.460312 
L 66.81 375.460312 
L 76.81 375.460312 
" style="fill: none; stroke-dasharray: 5.55,2.4; stroke-dashoffset: 0; stroke: #000000; stroke-width: 1.5"/>
    </g>
    <g id="text_17">
     <!-- D=1 -->
     <g transform="translate(84.81 378.960312)scale(0.1 -0.1)">
      <defs>
       <path id="DejaVuSans-3d" d="M 678 2906 
L 4684 2906 
L 4684 2381 
L 678 2381 
L 678 2906 
z
M 678 1631 
L 4684 1631 
L 4684 1100 
L 678 1100 
L 678 1631 
z
" transform="scale(0.015625)"/>
      </defs>
      <use xlink:href="#DejaVuSans-44"/>
      <use xlink:href="#DejaVuSans-3d" x="77.001953"/>
      <use xlink:href="#DejaVuSans-31" x="160.791016"/>
     </g>
    </g>
   </g>
  </g>
 </g>
 <defs>
  <clipPath id="pe51d45d0aa">
   <rect x="47.81" y="10.8" width="661.39" height="379.24"/>
  </clipPath>
 </defs>
</svg>
