<?xml version="1.0" encoding="utf-8" standalone="no"?>
<!DOCTYPE svg PUBLIC "-//W3C//DTD SVG 1.1//EN"
  "http://www.w3.org/Graphics/SVG/1.1/DTD/svg11.dtd">
<svg xmlns:xlink="http://www.w3.org/1999/xlink" width="720pt" height="432pt" viewBox="0 0 720 432" xmlns="http://www.w3.org/2000/svg" version="1.1">
 <metadata>
  <rdf:RDF xmlns:dc="http://purl.org/dc/elements/1.1/" xmlns:cc="http://creativecommons.org/ns#" xmlns:rdf="http://www.w3.org/1999/02/22-rdf-syntax-ns#">
   <cc:Work>
    <dc:type rdf:resource="http://purl.org/dc/dcmitype/StillImage"/>
    <dc:date>2023-09-29T15:21:00.073049</dc:date>
    <dc:format>image/svg+xml</dc:format>
    <dc:creator>
     <cc:Agent>
      <dc:title>Matplotlib v3.5.1, https://matplotlib.org/</dc:title>
     </cc:Agent>
    </dc:creator>
   </cc:Work>
  </rdf:RDF>
 </metadata>
 <defs>
  <style type="text/css">*{stroke-linejoin: round; stroke-linecap: butt}</style>
 </defs>
 <g id="figure_1">
  <g id="patch_1">
   <path d="M 0 432 
L 720 432 
L 720 0 
L 0 0 
z
" style="fill: #ffffff"/>
  </g>
  <g id="axes_1">
   <g id="patch_2">
    <path d="M 47.81 390.04 
L 709.2 390.04 
L 709.2 12.289558 
L 47.81 12.289558 
z
" style="fill: #ffffff"/>
   </g>
   <g id="matplotlib.axis_1">
    <g id="xtick_1">
     <g id="line2d_1">
      <defs>
       <path id="mb03d35e783" d="M 0 0 
L 0 3.5 
" style="stroke: #000000; stroke-width: 0.8"/>
      </defs>
      <g>
       <use xlink:href="#mb03d35e783" x="56.399481" y="390.04" style="stroke: #000000; stroke-width: 0.8"/>
      </g>
     </g>
     <g id="text_1">
      <!-- 0 -->
      <g transform="translate(53.218231 404.638438)scale(0.1 -0.1)">
       <defs>
        <path id="DejaVuSans-30" d="M 2034 4250 
Q 1547 4250 1301 3770 
Q 1056 3291 1056 2328 
Q 1056 1369 1301 889 
Q 1547 409 2034 409 
Q 2525 409 2770 889 
Q 3016 1369 3016 2328 
Q 3016 3291 2770 3770 
Q 2525 4250 2034 4250 
z
M 2034 4750 
Q 2819 4750 3233 4129 
Q 3647 3509 3647 2328 
Q 3647 1150 3233 529 
Q 2819 -91 2034 -91 
Q 1250 -91 836 529 
Q 422 1150 422 2328 
Q 422 3509 836 4129 
Q 1250 4750 2034 4750 
z
" transform="scale(0.015625)"/>
       </defs>
       <use xlink:href="#DejaVuSans-30"/>
      </g>
     </g>
    </g>
    <g id="xtick_2">
     <g id="line2d_2">
      <g>
       <use xlink:href="#mb03d35e783" x="163.767987" y="390.04" style="stroke: #000000; stroke-width: 0.8"/>
      </g>
     </g>
     <g id="text_2">
      <!-- 10 -->
      <g transform="translate(157.405487 404.638438)scale(0.1 -0.1)">
       <defs>
        <path id="DejaVuSans-31" d="M 794 531 
L 1825 531 
L 1825 4091 
L 703 3866 
L 703 4441 
L 1819 4666 
L 2450 4666 
L 2450 531 
L 3481 531 
L 3481 0 
L 794 0 
L 794 531 
z
" transform="scale(0.015625)"/>
       </defs>
       <use xlink:href="#DejaVuSans-31"/>
       <use xlink:href="#DejaVuSans-30" x="63.623047"/>
      </g>
     </g>
    </g>
    <g id="xtick_3">
     <g id="line2d_3">
      <g>
       <use xlink:href="#mb03d35e783" x="271.136494" y="390.04" style="stroke: #000000; stroke-width: 0.8"/>
      </g>
     </g>
     <g id="text_3">
      <!-- 20 -->
      <g transform="translate(264.773994 404.638438)scale(0.1 -0.1)">
       <defs>
        <path id="DejaVuSans-32" d="M 1228 531 
L 3431 531 
L 3431 0 
L 469 0 
L 469 531 
Q 828 903 1448 1529 
Q 2069 2156 2228 2338 
Q 2531 2678 2651 2914 
Q 2772 3150 2772 3378 
Q 2772 3750 2511 3984 
Q 2250 4219 1831 4219 
Q 1534 4219 1204 4116 
Q 875 4013 500 3803 
L 500 4441 
Q 881 4594 1212 4672 
Q 1544 4750 1819 4750 
Q 2544 4750 2975 4387 
Q 3406 4025 3406 3419 
Q 3406 3131 3298 2873 
Q 3191 2616 2906 2266 
Q 2828 2175 2409 1742 
Q 1991 1309 1228 531 
z
" transform="scale(0.015625)"/>
       </defs>
       <use xlink:href="#DejaVuSans-32"/>
       <use xlink:href="#DejaVuSans-30" x="63.623047"/>
      </g>
     </g>
    </g>
    <g id="xtick_4">
     <g id="line2d_4">
      <g>
       <use xlink:href="#mb03d35e783" x="378.505" y="390.04" style="stroke: #000000; stroke-width: 0.8"/>
      </g>
     </g>
     <g id="text_4">
      <!-- 30 -->
      <g transform="translate(372.1425 404.638438)scale(0.1 -0.1)">
       <defs>
        <path id="DejaVuSans-33" d="M 2597 2516 
Q 3050 2419 3304 2112 
Q 3559 1806 3559 1356 
Q 3559 666 3084 287 
Q 2609 -91 1734 -91 
Q 1441 -91 1130 -33 
Q 819 25 488 141 
L 488 750 
Q 750 597 1062 519 
Q 1375 441 1716 441 
Q 2309 441 2620 675 
Q 2931 909 2931 1356 
Q 2931 1769 2642 2001 
Q 2353 2234 1838 2234 
L 1294 2234 
L 1294 2753 
L 1863 2753 
Q 2328 2753 2575 2939 
Q 2822 3125 2822 3475 
Q 2822 3834 2567 4026 
Q 2313 4219 1838 4219 
Q 1578 4219 1281 4162 
Q 984 4106 628 3988 
L 628 4550 
Q 988 4650 1302 4700 
Q 1616 4750 1894 4750 
Q 2613 4750 3031 4423 
Q 3450 4097 3450 3541 
Q 3450 3153 3228 2886 
Q 3006 2619 2597 2516 
z
" transform="scale(0.015625)"/>
       </defs>
       <use xlink:href="#DejaVuSans-33"/>
       <use xlink:href="#DejaVuSans-30" x="63.623047"/>
      </g>
     </g>
    </g>
    <g id="xtick_5">
     <g id="line2d_5">
      <g>
       <use xlink:href="#mb03d35e783" x="485.873506" y="390.04" style="stroke: #000000; stroke-width: 0.8"/>
      </g>
     </g>
     <g id="text_5">
      <!-- 40 -->
      <g transform="translate(479.511006 404.638438)scale(0.1 -0.1)">
       <defs>
        <path id="DejaVuSans-34" d="M 2419 4116 
L 825 1625 
L 2419 1625 
L 2419 4116 
z
M 2253 4666 
L 3047 4666 
L 3047 1625 
L 3713 1625 
L 3713 1100 
L 3047 1100 
L 3047 0 
L 2419 0 
L 2419 1100 
L 313 1100 
L 313 1709 
L 2253 4666 
z
" transform="scale(0.015625)"/>
       </defs>
       <use xlink:href="#DejaVuSans-34"/>
       <use xlink:href="#DejaVuSans-30" x="63.623047"/>
      </g>
     </g>
    </g>
    <g id="xtick_6">
     <g id="line2d_6">
      <g>
       <use xlink:href="#mb03d35e783" x="593.242013" y="390.04" style="stroke: #000000; stroke-width: 0.8"/>
      </g>
     </g>
     <g id="text_6">
      <!-- 50 -->
      <g transform="translate(586.879513 404.638438)scale(0.1 -0.1)">
       <defs>
        <path id="DejaVuSans-35" d="M 691 4666 
L 3169 4666 
L 3169 4134 
L 1269 4134 
L 1269 2991 
Q 1406 3038 1543 3061 
Q 1681 3084 1819 3084 
Q 2600 3084 3056 2656 
Q 3513 2228 3513 1497 
Q 3513 744 3044 326 
Q 2575 -91 1722 -91 
Q 1428 -91 1123 -41 
Q 819 9 494 109 
L 494 744 
Q 775 591 1075 516 
Q 1375 441 1709 441 
Q 2250 441 2565 725 
Q 2881 1009 2881 1497 
Q 2881 1984 2565 2268 
Q 2250 2553 1709 2553 
Q 1456 2553 1204 2497 
Q 953 2441 691 2322 
L 691 4666 
z
" transform="scale(0.015625)"/>
       </defs>
       <use xlink:href="#DejaVuSans-35"/>
       <use xlink:href="#DejaVuSans-30" x="63.623047"/>
      </g>
     </g>
    </g>
    <g id="xtick_7">
     <g id="line2d_7">
      <g>
       <use xlink:href="#mb03d35e783" x="700.610519" y="390.04" style="stroke: #000000; stroke-width: 0.8"/>
      </g>
     </g>
     <g id="text_7">
      <!-- 60 -->
      <g transform="translate(694.248019 404.638438)scale(0.1 -0.1)">
       <defs>
        <path id="DejaVuSans-36" d="M 2113 2584 
Q 1688 2584 1439 2293 
Q 1191 2003 1191 1497 
Q 1191 994 1439 701 
Q 1688 409 2113 409 
Q 2538 409 2786 701 
Q 3034 994 3034 1497 
Q 3034 2003 2786 2293 
Q 2538 2584 2113 2584 
z
M 3366 4563 
L 3366 3988 
Q 3128 4100 2886 4159 
Q 2644 4219 2406 4219 
Q 1781 4219 1451 3797 
Q 1122 3375 1075 2522 
Q 1259 2794 1537 2939 
Q 1816 3084 2150 3084 
Q 2853 3084 3261 2657 
Q 3669 2231 3669 1497 
Q 3669 778 3244 343 
Q 2819 -91 2113 -91 
Q 1303 -91 875 529 
Q 447 1150 447 2328 
Q 447 3434 972 4092 
Q 1497 4750 2381 4750 
Q 2619 4750 2861 4703 
Q 3103 4656 3366 4563 
z
" transform="scale(0.015625)"/>
       </defs>
       <use xlink:href="#DejaVuSans-36"/>
       <use xlink:href="#DejaVuSans-30" x="63.623047"/>
      </g>
     </g>
    </g>
    <g id="text_8">
     <!-- step -->
     <g transform="translate(367.689375 418.316562)scale(0.1 -0.1)">
      <defs>
       <path id="DejaVuSans-73" d="M 2834 3397 
L 2834 2853 
Q 2591 2978 2328 3040 
Q 2066 3103 1784 3103 
Q 1356 3103 1142 2972 
Q 928 2841 928 2578 
Q 928 2378 1081 2264 
Q 1234 2150 1697 2047 
L 1894 2003 
Q 2506 1872 2764 1633 
Q 3022 1394 3022 966 
Q 3022 478 2636 193 
Q 2250 -91 1575 -91 
Q 1294 -91 989 -36 
Q 684 19 347 128 
L 347 722 
Q 666 556 975 473 
Q 1284 391 1588 391 
Q 1994 391 2212 530 
Q 2431 669 2431 922 
Q 2431 1156 2273 1281 
Q 2116 1406 1581 1522 
L 1381 1569 
Q 847 1681 609 1914 
Q 372 2147 372 2553 
Q 372 3047 722 3315 
Q 1072 3584 1716 3584 
Q 2034 3584 2315 3537 
Q 2597 3491 2834 3397 
z
" transform="scale(0.015625)"/>
       <path id="DejaVuSans-74" d="M 1172 4494 
L 1172 3500 
L 2356 3500 
L 2356 3053 
L 1172 3053 
L 1172 1153 
Q 1172 725 1289 603 
Q 1406 481 1766 481 
L 2356 481 
L 2356 0 
L 1766 0 
Q 1100 0 847 248 
Q 594 497 594 1153 
L 594 3053 
L 172 3053 
L 172 3500 
L 594 3500 
L 594 4494 
L 1172 4494 
z
" transform="scale(0.015625)"/>
       <path id="DejaVuSans-65" d="M 3597 1894 
L 3597 1613 
L 953 1613 
Q 991 1019 1311 708 
Q 1631 397 2203 397 
Q 2534 397 2845 478 
Q 3156 559 3463 722 
L 3463 178 
Q 3153 47 2828 -22 
Q 2503 -91 2169 -91 
Q 1331 -91 842 396 
Q 353 884 353 1716 
Q 353 2575 817 3079 
Q 1281 3584 2069 3584 
Q 2775 3584 3186 3129 
Q 3597 2675 3597 1894 
z
M 3022 2063 
Q 3016 2534 2758 2815 
Q 2500 3097 2075 3097 
Q 1594 3097 1305 2825 
Q 1016 2553 972 2059 
L 3022 2063 
z
" transform="scale(0.015625)"/>
       <path id="DejaVuSans-70" d="M 1159 525 
L 1159 -1331 
L 581 -1331 
L 581 3500 
L 1159 3500 
L 1159 2969 
Q 1341 3281 1617 3432 
Q 1894 3584 2278 3584 
Q 2916 3584 3314 3078 
Q 3713 2572 3713 1747 
Q 3713 922 3314 415 
Q 2916 -91 2278 -91 
Q 1894 -91 1617 61 
Q 1341 213 1159 525 
z
M 3116 1747 
Q 3116 2381 2855 2742 
Q 2594 3103 2138 3103 
Q 1681 3103 1420 2742 
Q 1159 2381 1159 1747 
Q 1159 1113 1420 752 
Q 1681 391 2138 391 
Q 2594 391 2855 752 
Q 3116 1113 3116 1747 
z
" transform="scale(0.015625)"/>
      </defs>
      <use xlink:href="#DejaVuSans-73"/>
      <use xlink:href="#DejaVuSans-74" x="52.099609"/>
      <use xlink:href="#DejaVuSans-65" x="91.308594"/>
      <use xlink:href="#DejaVuSans-70" x="152.832031"/>
     </g>
    </g>
   </g>
   <g id="matplotlib.axis_2">
    <g id="ytick_1">
     <g id="line2d_8">
      <defs>
       <path id="m58408ae2e7" d="M 0 0 
L -3.5 0 
" style="stroke: #000000; stroke-width: 0.8"/>
      </defs>
      <g>
       <use xlink:href="#m58408ae2e7" x="47.81" y="361.065335" style="stroke: #000000; stroke-width: 0.8"/>
      </g>
     </g>
     <g id="text_9">
      <!-- 0.6 -->
      <g transform="translate(24.906875 364.864554)scale(0.1 -0.1)">
       <defs>
        <path id="DejaVuSans-2e" d="M 684 794 
L 1344 794 
L 1344 0 
L 684 0 
L 684 794 
z
" transform="scale(0.015625)"/>
       </defs>
       <use xlink:href="#DejaVuSans-30"/>
       <use xlink:href="#DejaVuSans-2e" x="63.623047"/>
       <use xlink:href="#DejaVuSans-36" x="95.410156"/>
      </g>
     </g>
    </g>
    <g id="ytick_2">
     <g id="line2d_9">
      <g>
       <use xlink:href="#m58408ae2e7" x="47.81" y="317.819047" style="stroke: #000000; stroke-width: 0.8"/>
      </g>
     </g>
     <g id="text_10">
      <!-- 0.8 -->
      <g transform="translate(24.906875 321.618265)scale(0.1 -0.1)">
       <defs>
        <path id="DejaVuSans-38" d="M 2034 2216 
Q 1584 2216 1326 1975 
Q 1069 1734 1069 1313 
Q 1069 891 1326 650 
Q 1584 409 2034 409 
Q 2484 409 2743 651 
Q 3003 894 3003 1313 
Q 3003 1734 2745 1975 
Q 2488 2216 2034 2216 
z
M 1403 2484 
Q 997 2584 770 2862 
Q 544 3141 544 3541 
Q 544 4100 942 4425 
Q 1341 4750 2034 4750 
Q 2731 4750 3128 4425 
Q 3525 4100 3525 3541 
Q 3525 3141 3298 2862 
Q 3072 2584 2669 2484 
Q 3125 2378 3379 2068 
Q 3634 1759 3634 1313 
Q 3634 634 3220 271 
Q 2806 -91 2034 -91 
Q 1263 -91 848 271 
Q 434 634 434 1313 
Q 434 1759 690 2068 
Q 947 2378 1403 2484 
z
M 1172 3481 
Q 1172 3119 1398 2916 
Q 1625 2713 2034 2713 
Q 2441 2713 2670 2916 
Q 2900 3119 2900 3481 
Q 2900 3844 2670 4047 
Q 2441 4250 2034 4250 
Q 1625 4250 1398 4047 
Q 1172 3844 1172 3481 
z
" transform="scale(0.015625)"/>
       </defs>
       <use xlink:href="#DejaVuSans-30"/>
       <use xlink:href="#DejaVuSans-2e" x="63.623047"/>
       <use xlink:href="#DejaVuSans-38" x="95.410156"/>
      </g>
     </g>
    </g>
    <g id="ytick_3">
     <g id="line2d_10">
      <g>
       <use xlink:href="#m58408ae2e7" x="47.81" y="274.572758" style="stroke: #000000; stroke-width: 0.8"/>
      </g>
     </g>
     <g id="text_11">
      <!-- 1.0 -->
      <g transform="translate(24.906875 278.371977)scale(0.1 -0.1)">
       <use xlink:href="#DejaVuSans-31"/>
       <use xlink:href="#DejaVuSans-2e" x="63.623047"/>
       <use xlink:href="#DejaVuSans-30" x="95.410156"/>
      </g>
     </g>
    </g>
    <g id="ytick_4">
     <g id="line2d_11">
      <g>
       <use xlink:href="#m58408ae2e7" x="47.81" y="231.326469" style="stroke: #000000; stroke-width: 0.8"/>
      </g>
     </g>
     <g id="text_12">
      <!-- 1.2 -->
      <g transform="translate(24.906875 235.125688)scale(0.1 -0.1)">
       <use xlink:href="#DejaVuSans-31"/>
       <use xlink:href="#DejaVuSans-2e" x="63.623047"/>
       <use xlink:href="#DejaVuSans-32" x="95.410156"/>
      </g>
     </g>
    </g>
    <g id="ytick_5">
     <g id="line2d_12">
      <g>
       <use xlink:href="#m58408ae2e7" x="47.81" y="188.08018" style="stroke: #000000; stroke-width: 0.8"/>
      </g>
     </g>
     <g id="text_13">
      <!-- 1.4 -->
      <g transform="translate(24.906875 191.879399)scale(0.1 -0.1)">
       <use xlink:href="#DejaVuSans-31"/>
       <use xlink:href="#DejaVuSans-2e" x="63.623047"/>
       <use xlink:href="#DejaVuSans-34" x="95.410156"/>
      </g>
     </g>
    </g>
    <g id="ytick_6">
     <g id="line2d_13">
      <g>
       <use xlink:href="#m58408ae2e7" x="47.81" y="144.833891" style="stroke: #000000; stroke-width: 0.8"/>
      </g>
     </g>
     <g id="text_14">
      <!-- 1.6 -->
      <g transform="translate(24.906875 148.63311)scale(0.1 -0.1)">
       <use xlink:href="#DejaVuSans-31"/>
       <use xlink:href="#DejaVuSans-2e" x="63.623047"/>
       <use xlink:href="#DejaVuSans-36" x="95.410156"/>
      </g>
     </g>
    </g>
    <g id="ytick_7">
     <g id="line2d_14">
      <g>
       <use xlink:href="#m58408ae2e7" x="47.81" y="101.587603" style="stroke: #000000; stroke-width: 0.8"/>
      </g>
     </g>
     <g id="text_15">
      <!-- 1.8 -->
      <g transform="translate(24.906875 105.386821)scale(0.1 -0.1)">
       <use xlink:href="#DejaVuSans-31"/>
       <use xlink:href="#DejaVuSans-2e" x="63.623047"/>
       <use xlink:href="#DejaVuSans-38" x="95.410156"/>
      </g>
     </g>
    </g>
    <g id="ytick_8">
     <g id="line2d_15">
      <g>
       <use xlink:href="#m58408ae2e7" x="47.81" y="58.341314" style="stroke: #000000; stroke-width: 0.8"/>
      </g>
     </g>
     <g id="text_16">
      <!-- 2.0 -->
      <g transform="translate(24.906875 62.140533)scale(0.1 -0.1)">
       <use xlink:href="#DejaVuSans-32"/>
       <use xlink:href="#DejaVuSans-2e" x="63.623047"/>
       <use xlink:href="#DejaVuSans-30" x="95.410156"/>
      </g>
     </g>
    </g>
    <g id="ytick_9">
     <g id="line2d_16">
      <g>
       <use xlink:href="#m58408ae2e7" x="47.81" y="15.095025" style="stroke: #000000; stroke-width: 0.8"/>
      </g>
     </g>
     <g id="text_17">
      <!-- 2.2 -->
      <g transform="translate(24.906875 18.894244)scale(0.1 -0.1)">
       <use xlink:href="#DejaVuSans-32"/>
       <use xlink:href="#DejaVuSans-2e" x="63.623047"/>
       <use xlink:href="#DejaVuSans-32" x="95.410156"/>
      </g>
     </g>
    </g>
    <g id="text_18">
     <!-- &lt;d^2&gt; -->
     <g transform="translate(18.827187 220.089779)rotate(-90)scale(0.1 -0.1)">
      <defs>
       <path id="DejaVuSans-3c" d="M 4684 3150 
L 1459 2003 
L 4684 863 
L 4684 294 
L 678 1747 
L 678 2266 
L 4684 3719 
L 4684 3150 
z
" transform="scale(0.015625)"/>
       <path id="DejaVuSans-64" d="M 2906 2969 
L 2906 4863 
L 3481 4863 
L 3481 0 
L 2906 0 
L 2906 525 
Q 2725 213 2448 61 
Q 2172 -91 1784 -91 
Q 1150 -91 751 415 
Q 353 922 353 1747 
Q 353 2572 751 3078 
Q 1150 3584 1784 3584 
Q 2172 3584 2448 3432 
Q 2725 3281 2906 2969 
z
M 947 1747 
Q 947 1113 1208 752 
Q 1469 391 1925 391 
Q 2381 391 2643 752 
Q 2906 1113 2906 1747 
Q 2906 2381 2643 2742 
Q 2381 3103 1925 3103 
Q 1469 3103 1208 2742 
Q 947 2381 947 1747 
z
" transform="scale(0.015625)"/>
       <path id="DejaVuSans-5e" d="M 2988 4666 
L 4684 2925 
L 4056 2925 
L 2681 4159 
L 1306 2925 
L 678 2925 
L 2375 4666 
L 2988 4666 
z
" transform="scale(0.015625)"/>
       <path id="DejaVuSans-3e" d="M 678 3150 
L 678 3719 
L 4684 2266 
L 4684 1747 
L 678 294 
L 678 863 
L 3897 2003 
L 678 3150 
z
" transform="scale(0.015625)"/>
      </defs>
      <use xlink:href="#DejaVuSans-3c"/>
      <use xlink:href="#DejaVuSans-64" x="83.789062"/>
      <use xlink:href="#DejaVuSans-5e" x="147.265625"/>
      <use xlink:href="#DejaVuSans-32" x="231.054688"/>
      <use xlink:href="#DejaVuSans-3e" x="294.677734"/>
     </g>
    </g>
   </g>
   <g id="line2d_17">
    <path d="M 399.978701 353.273177 
L 421.452403 342.543296 
L 442.926104 331.661315 
L 464.399805 320.633713 
L 485.873506 309.466363 
L 507.347208 298.164619 
L 528.820909 286.733381 
L 550.29461 275.177155 
L 571.768312 263.500099 
L 593.242013 251.706066 
L 614.715714 239.798635 
L 636.189416 227.781141 
L 657.663117 215.656701 
L 679.136818 203.428234 
" clip-path="url(#p9259f12578)" style="fill: none; stroke-dasharray: 5.55,2.4; stroke-dashoffset: 0; stroke: #0000ff; stroke-width: 1.5"/>
   </g>
   <g id="line2d_18">
    <path d="M 77.873182 341.552052 
L 120.820584 347.034277 
L 142.294286 348.436275 
L 185.241688 350.389097 
L 206.71539 351.124478 
L 228.189091 351.75838 
L 249.662792 352.315133 
L 271.136494 352.811276 
L 292.610195 353.258561 
L 303.347045 353.466675 
L 324.820747 353.8562 
L 335.557597 354.039041 
L 357.031299 354.383855 
L 378.505 354.704088 
" clip-path="url(#p9259f12578)" style="fill: none; stroke-dasharray: 9.6,2.4,1.5,2.4; stroke-dashoffset: 0; stroke: #0000ff; stroke-width: 1.5"/>
   </g>
   <g id="line2d_19">
    <path d="M 77.873182 342.039545 
L 120.820584 356.28438 
L 142.294286 345.087893 
L 185.241688 354.470157 
L 206.71539 317.377483 
L 228.189091 348.057134 
L 249.662792 369.694985 
L 271.136494 341.465816 
L 292.610195 363.604656 
L 303.347045 351.38407 
L 324.820747 349.762992 
L 335.557597 367.061356 
L 357.031299 361.290399 
L 378.505 344.229332 
L 399.978701 343.475226 
L 421.452403 345.777963 
L 442.926104 334.972729 
L 464.399805 325.687625 
L 485.873506 315.455568 
L 507.347208 291.656169 
L 528.820909 288.873907 
L 550.29461 278.551888 
L 571.768312 258.904005 
L 593.242013 251.652445 
L 614.715714 245.055355 
L 636.189416 231.024592 
L 657.663117 205.014389 
L 679.136818 201.561329 
" clip-path="url(#p9259f12578)" style="fill: none; stroke: #0000ff; stroke-width: 1.5; stroke-linecap: square"/>
    <defs>
     <path id="mad90f01385" d="M 0 3 
C 0.795609 3 1.55874 2.683901 2.12132 2.12132 
C 2.683901 1.55874 3 0.795609 3 0 
C 3 -0.795609 2.683901 -1.55874 2.12132 -2.12132 
C 1.55874 -2.683901 0.795609 -3 0 -3 
C -0.795609 -3 -1.55874 -2.683901 -2.12132 -2.12132 
C -2.683901 -1.55874 -3 -0.795609 -3 0 
C -3 0.795609 -2.683901 1.55874 -2.12132 2.12132 
C -1.55874 2.683901 -0.795609 3 0 3 
z
" style="stroke: #0000ff"/>
    </defs>
    <g clip-path="url(#p9259f12578)">
     <use xlink:href="#mad90f01385" x="77.873182" y="342.039545" style="fill: #0000ff; stroke: #0000ff"/>
     <use xlink:href="#mad90f01385" x="120.820584" y="356.28438" style="fill: #0000ff; stroke: #0000ff"/>
     <use xlink:href="#mad90f01385" x="142.294286" y="345.087893" style="fill: #0000ff; stroke: #0000ff"/>
     <use xlink:href="#mad90f01385" x="185.241688" y="354.470157" style="fill: #0000ff; stroke: #0000ff"/>
     <use xlink:href="#mad90f01385" x="206.71539" y="317.377483" style="fill: #0000ff; stroke: #0000ff"/>
     <use xlink:href="#mad90f01385" x="228.189091" y="348.057134" style="fill: #0000ff; stroke: #0000ff"/>
     <use xlink:href="#mad90f01385" x="249.662792" y="369.694985" style="fill: #0000ff; stroke: #0000ff"/>
     <use xlink:href="#mad90f01385" x="271.136494" y="341.465816" style="fill: #0000ff; stroke: #0000ff"/>
     <use xlink:href="#mad90f01385" x="292.610195" y="363.604656" style="fill: #0000ff; stroke: #0000ff"/>
     <use xlink:href="#mad90f01385" x="303.347045" y="351.38407" style="fill: #0000ff; stroke: #0000ff"/>
     <use xlink:href="#mad90f01385" x="324.820747" y="349.762992" style="fill: #0000ff; stroke: #0000ff"/>
     <use xlink:href="#mad90f01385" x="335.557597" y="367.061356" style="fill: #0000ff; stroke: #0000ff"/>
     <use xlink:href="#mad90f01385" x="357.031299" y="361.290399" style="fill: #0000ff; stroke: #0000ff"/>
     <use xlink:href="#mad90f01385" x="378.505" y="344.229332" style="fill: #0000ff; stroke: #0000ff"/>
     <use xlink:href="#mad90f01385" x="399.978701" y="343.475226" style="fill: #0000ff; stroke: #0000ff"/>
     <use xlink:href="#mad90f01385" x="421.452403" y="345.777963" style="fill: #0000ff; stroke: #0000ff"/>
     <use xlink:href="#mad90f01385" x="442.926104" y="334.972729" style="fill: #0000ff; stroke: #0000ff"/>
     <use xlink:href="#mad90f01385" x="464.399805" y="325.687625" style="fill: #0000ff; stroke: #0000ff"/>
     <use xlink:href="#mad90f01385" x="485.873506" y="315.455568" style="fill: #0000ff; stroke: #0000ff"/>
     <use xlink:href="#mad90f01385" x="507.347208" y="291.656169" style="fill: #0000ff; stroke: #0000ff"/>
     <use xlink:href="#mad90f01385" x="528.820909" y="288.873907" style="fill: #0000ff; stroke: #0000ff"/>
     <use xlink:href="#mad90f01385" x="550.29461" y="278.551888" style="fill: #0000ff; stroke: #0000ff"/>
     <use xlink:href="#mad90f01385" x="571.768312" y="258.904005" style="fill: #0000ff; stroke: #0000ff"/>
     <use xlink:href="#mad90f01385" x="593.242013" y="251.652445" style="fill: #0000ff; stroke: #0000ff"/>
     <use xlink:href="#mad90f01385" x="614.715714" y="245.055355" style="fill: #0000ff; stroke: #0000ff"/>
     <use xlink:href="#mad90f01385" x="636.189416" y="231.024592" style="fill: #0000ff; stroke: #0000ff"/>
     <use xlink:href="#mad90f01385" x="657.663117" y="205.014389" style="fill: #0000ff; stroke: #0000ff"/>
     <use xlink:href="#mad90f01385" x="679.136818" y="201.561329" style="fill: #0000ff; stroke: #0000ff"/>
    </g>
   </g>
   <g id="line2d_20">
    <path d="M 399.978701 151.992936 
L 421.452403 142.056688 
L 442.926104 132.421809 
L 464.399805 123.063136 
L 485.873506 113.958808 
L 507.347208 105.08969 
L 528.820909 96.438918 
L 550.29461 87.991543 
L 571.768312 79.734237 
L 593.242013 71.655062 
L 614.715714 63.743271 
L 636.189416 55.989151 
L 657.663117 48.383888 
L 679.136818 40.919457 
" clip-path="url(#p9259f12578)" style="fill: none; stroke-dasharray: 5.55,2.4; stroke-dashoffset: 0; stroke: #ff0000; stroke-width: 1.5"/>
   </g>
   <g id="line2d_21">
    <path d="M 77.873182 372.869525 
L 120.820584 291.939736 
L 142.294286 262.78196 
L 185.241688 214.285166 
L 206.71539 193.251103 
L 228.189091 173.741572 
L 249.662792 155.473858 
L 271.136494 138.242763 
L 292.610195 121.893806 
L 303.347045 114.011662 
L 335.557597 91.38816 
L 357.031299 77.059616 
L 378.505 63.258415 
" clip-path="url(#p9259f12578)" style="fill: none; stroke-dasharray: 9.6,2.4,1.5,2.4; stroke-dashoffset: 0; stroke: #ff0000; stroke-width: 1.5"/>
   </g>
   <g id="line2d_22">
    <path d="M 77.873182 364.895941 
L 120.820584 351.02512 
L 142.294286 280.902432 
L 185.241688 122.006275 
L 206.71539 134.355147 
L 228.189091 146.553017 
L 249.662792 145.708856 
L 271.136494 104.948371 
L 292.610195 117.019343 
L 303.347045 103.385251 
L 335.557597 111.851386 
L 357.031299 126.112922 
L 378.505 127.198524 
L 399.978701 144.568522 
L 421.452403 139.912046 
L 442.926104 126.437237 
L 464.399805 126.739375 
L 485.873506 119.639863 
L 507.347208 110.925802 
L 528.820909 103.918047 
L 550.29461 90.024277 
L 571.768312 88.509915 
L 593.242013 68.166435 
L 614.715714 65.815326 
L 636.189416 54.441846 
L 657.663117 44.039797 
L 679.136818 29.460033 
" clip-path="url(#p9259f12578)" style="fill: none; stroke: #ff0000; stroke-width: 1.5; stroke-linecap: square"/>
    <defs>
     <path id="m2646b042e4" d="M 0 3 
C 0.795609 3 1.55874 2.683901 2.12132 2.12132 
C 2.683901 1.55874 3 0.795609 3 0 
C 3 -0.795609 2.683901 -1.55874 2.12132 -2.12132 
C 1.55874 -2.683901 0.795609 -3 0 -3 
C -0.795609 -3 -1.55874 -2.683901 -2.12132 -2.12132 
C -2.683901 -1.55874 -3 -0.795609 -3 0 
C -3 0.795609 -2.683901 1.55874 -2.12132 2.12132 
C -1.55874 2.683901 -0.795609 3 0 3 
z
" style="stroke: #ff0000"/>
    </defs>
    <g clip-path="url(#p9259f12578)">
     <use xlink:href="#m2646b042e4" x="77.873182" y="364.895941" style="fill: #ff0000; stroke: #ff0000"/>
     <use xlink:href="#m2646b042e4" x="120.820584" y="351.02512" style="fill: #ff0000; stroke: #ff0000"/>
     <use xlink:href="#m2646b042e4" x="142.294286" y="280.902432" style="fill: #ff0000; stroke: #ff0000"/>
     <use xlink:href="#m2646b042e4" x="185.241688" y="122.006275" style="fill: #ff0000; stroke: #ff0000"/>
     <use xlink:href="#m2646b042e4" x="206.71539" y="134.355147" style="fill: #ff0000; stroke: #ff0000"/>
     <use xlink:href="#m2646b042e4" x="228.189091" y="146.553017" style="fill: #ff0000; stroke: #ff0000"/>
     <use xlink:href="#m2646b042e4" x="249.662792" y="145.708856" style="fill: #ff0000; stroke: #ff0000"/>
     <use xlink:href="#m2646b042e4" x="271.136494" y="104.948371" style="fill: #ff0000; stroke: #ff0000"/>
     <use xlink:href="#m2646b042e4" x="292.610195" y="117.019343" style="fill: #ff0000; stroke: #ff0000"/>
     <use xlink:href="#m2646b042e4" x="303.347045" y="103.385251" style="fill: #ff0000; stroke: #ff0000"/>
     <use xlink:href="#m2646b042e4" x="335.557597" y="111.851386" style="fill: #ff0000; stroke: #ff0000"/>
     <use xlink:href="#m2646b042e4" x="357.031299" y="126.112922" style="fill: #ff0000; stroke: #ff0000"/>
     <use xlink:href="#m2646b042e4" x="378.505" y="127.198524" style="fill: #ff0000; stroke: #ff0000"/>
     <use xlink:href="#m2646b042e4" x="399.978701" y="144.568522" style="fill: #ff0000; stroke: #ff0000"/>
     <use xlink:href="#m2646b042e4" x="421.452403" y="139.912046" style="fill: #ff0000; stroke: #ff0000"/>
     <use xlink:href="#m2646b042e4" x="442.926104" y="126.437237" style="fill: #ff0000; stroke: #ff0000"/>
     <use xlink:href="#m2646b042e4" x="464.399805" y="126.739375" style="fill: #ff0000; stroke: #ff0000"/>
     <use xlink:href="#m2646b042e4" x="485.873506" y="119.639863" style="fill: #ff0000; stroke: #ff0000"/>
     <use xlink:href="#m2646b042e4" x="507.347208" y="110.925802" style="fill: #ff0000; stroke: #ff0000"/>
     <use xlink:href="#m2646b042e4" x="528.820909" y="103.918047" style="fill: #ff0000; stroke: #ff0000"/>
     <use xlink:href="#m2646b042e4" x="550.29461" y="90.024277" style="fill: #ff0000; stroke: #ff0000"/>
     <use xlink:href="#m2646b042e4" x="571.768312" y="88.509915" style="fill: #ff0000; stroke: #ff0000"/>
     <use xlink:href="#m2646b042e4" x="593.242013" y="68.166435" style="fill: #ff0000; stroke: #ff0000"/>
     <use xlink:href="#m2646b042e4" x="614.715714" y="65.815326" style="fill: #ff0000; stroke: #ff0000"/>
     <use xlink:href="#m2646b042e4" x="636.189416" y="54.441846" style="fill: #ff0000; stroke: #ff0000"/>
     <use xlink:href="#m2646b042e4" x="657.663117" y="44.039797" style="fill: #ff0000; stroke: #ff0000"/>
     <use xlink:href="#m2646b042e4" x="679.136818" y="29.460033" style="fill: #ff0000; stroke: #ff0000"/>
    </g>
   </g>
   <g id="patch_3">
    <path d="M 47.81 390.04 
L 47.81 12.289558 
" style="fill: none; stroke: #000000; stroke-width: 0.8; stroke-linejoin: miter; stroke-linecap: square"/>
   </g>
   <g id="patch_4">
    <path d="M 709.2 390.04 
L 709.2 12.289558 
" style="fill: none; stroke: #000000; stroke-width: 0.8; stroke-linejoin: miter; stroke-linecap: square"/>
   </g>
   <g id="patch_5">
    <path d="M 47.81 390.04 
L 709.2 390.04 
" style="fill: none; stroke: #000000; stroke-width: 0.8; stroke-linejoin: miter; stroke-linecap: square"/>
   </g>
   <g id="patch_6">
    <path d="M 47.81 12.289558 
L 709.2 12.289558 
" style="fill: none; stroke: #000000; stroke-width: 0.8; stroke-linejoin: miter; stroke-linecap: square"/>
   </g>
   <g id="legend_1">
    <g id="patch_7">
     <path d="M 54.81 108.358308 
L 181.180313 108.358308 
Q 183.180313 108.358308 183.180313 106.358308 
L 183.180313 19.289558 
Q 183.180313 17.289558 181.180313 17.289558 
L 54.81 17.289558 
Q 52.81 17.289558 52.81 19.289558 
L 52.81 106.358308 
Q 52.81 108.358308 54.81 108.358308 
z
" style="fill: #ffffff; opacity: 0.8; stroke: #cccccc; stroke-linejoin: miter"/>
    </g>
    <g id="line2d_23">
     <path d="M 56.81 25.387996 
L 66.81 25.387996 
L 76.81 25.387996 
" style="fill: none; stroke-dasharray: 5.55,2.4; stroke-dashoffset: 0; stroke: #0000ff; stroke-width: 1.5"/>
    </g>
    <g id="text_19">
     <!-- &gt;30 α:1.24+-0.05 -->
     <g transform="translate(84.81 28.887996)scale(0.1 -0.1)">
      <defs>
       <path id="DejaVuSans-20" transform="scale(0.015625)"/>
       <path id="DejaVuSans-3b1" d="M 2644 1628 
L 2506 2350 
Q 2366 3091 1809 3091 
Q 1391 3091 1200 2747 
Q 959 2316 959 1747 
Q 959 1059 1194 731 
Q 1431 397 1809 397 
Q 2228 397 2453 1063 
L 2644 1628 
z
M 2966 2584 
L 3275 3500 
L 3788 3500 
L 3147 1603 
L 3272 919 
Q 3300 766 3409 638 
Q 3538 488 3638 488 
L 3913 488 
L 3913 0 
L 3569 0 
Q 3275 0 3013 263 
Q 2884 394 2831 669 
Q 2688 322 2394 50 
Q 2256 -78 1809 -78 
Q 1075 -78 719 397 
Q 353 888 353 1747 
Q 353 2666 750 3097 
Q 1191 3578 1809 3578 
Q 2781 3578 2966 2584 
z
" transform="scale(0.015625)"/>
       <path id="DejaVuSans-3a" d="M 750 794 
L 1409 794 
L 1409 0 
L 750 0 
L 750 794 
z
M 750 3309 
L 1409 3309 
L 1409 2516 
L 750 2516 
L 750 3309 
z
" transform="scale(0.015625)"/>
       <path id="DejaVuSans-2b" d="M 2944 4013 
L 2944 2272 
L 4684 2272 
L 4684 1741 
L 2944 1741 
L 2944 0 
L 2419 0 
L 2419 1741 
L 678 1741 
L 678 2272 
L 2419 2272 
L 2419 4013 
L 2944 4013 
z
" transform="scale(0.015625)"/>
       <path id="DejaVuSans-2d" d="M 313 2009 
L 1997 2009 
L 1997 1497 
L 313 1497 
L 313 2009 
z
" transform="scale(0.015625)"/>
      </defs>
      <use xlink:href="#DejaVuSans-3e"/>
      <use xlink:href="#DejaVuSans-33" x="83.789062"/>
      <use xlink:href="#DejaVuSans-30" x="147.412109"/>
      <use xlink:href="#DejaVuSans-20" x="211.035156"/>
      <use xlink:href="#DejaVuSans-3b1" x="242.822266"/>
      <use xlink:href="#DejaVuSans-3a" x="308.740234"/>
      <use xlink:href="#DejaVuSans-31" x="342.431641"/>
      <use xlink:href="#DejaVuSans-2e" x="406.054688"/>
      <use xlink:href="#DejaVuSans-32" x="437.841797"/>
      <use xlink:href="#DejaVuSans-34" x="501.464844"/>
      <use xlink:href="#DejaVuSans-2b" x="565.087891"/>
      <use xlink:href="#DejaVuSans-2d" x="648.876953"/>
      <use xlink:href="#DejaVuSans-30" x="684.960938"/>
      <use xlink:href="#DejaVuSans-2e" x="748.583984"/>
      <use xlink:href="#DejaVuSans-30" x="780.371094"/>
      <use xlink:href="#DejaVuSans-35" x="843.994141"/>
     </g>
    </g>
    <g id="line2d_24">
     <path d="M 56.81 40.066121 
L 66.81 40.066121 
L 76.81 40.066121 
" style="fill: none; stroke-dasharray: 9.6,2.4,1.5,2.4; stroke-dashoffset: 0; stroke: #0000ff; stroke-width: 1.5"/>
    </g>
    <g id="text_20">
     <!-- &lt;30 α:-0.03+-0.03 -->
     <g transform="translate(84.81 43.566121)scale(0.1 -0.1)">
      <use xlink:href="#DejaVuSans-3c"/>
      <use xlink:href="#DejaVuSans-33" x="83.789062"/>
      <use xlink:href="#DejaVuSans-30" x="147.412109"/>
      <use xlink:href="#DejaVuSans-20" x="211.035156"/>
      <use xlink:href="#DejaVuSans-3b1" x="242.822266"/>
      <use xlink:href="#DejaVuSans-3a" x="308.740234"/>
      <use xlink:href="#DejaVuSans-2d" x="342.431641"/>
      <use xlink:href="#DejaVuSans-30" x="378.515625"/>
      <use xlink:href="#DejaVuSans-2e" x="442.138672"/>
      <use xlink:href="#DejaVuSans-30" x="473.925781"/>
      <use xlink:href="#DejaVuSans-33" x="537.548828"/>
      <use xlink:href="#DejaVuSans-2b" x="601.171875"/>
      <use xlink:href="#DejaVuSans-2d" x="684.960938"/>
      <use xlink:href="#DejaVuSans-30" x="721.044922"/>
      <use xlink:href="#DejaVuSans-2e" x="784.667969"/>
      <use xlink:href="#DejaVuSans-30" x="816.455078"/>
      <use xlink:href="#DejaVuSans-33" x="880.078125"/>
     </g>
    </g>
    <g id="line2d_25">
     <path d="M 56.81 54.744246 
L 66.81 54.744246 
L 76.81 54.744246 
" style="fill: none; stroke: #0000ff; stroke-width: 1.5; stroke-linecap: square"/>
     <g>
      <use xlink:href="#mad90f01385" x="66.81" y="54.744246" style="fill: #0000ff; stroke: #0000ff"/>
     </g>
    </g>
    <g id="text_21">
     <!-- 30 -->
     <g transform="translate(84.81 58.244246)scale(0.1 -0.1)">
      <use xlink:href="#DejaVuSans-33"/>
      <use xlink:href="#DejaVuSans-30" x="63.623047"/>
     </g>
    </g>
    <g id="line2d_26">
     <path d="M 56.81 69.422371 
L 66.81 69.422371 
L 76.81 69.422371 
" style="fill: none; stroke-dasharray: 5.55,2.4; stroke-dashoffset: 0; stroke: #ff0000; stroke-width: 1.5"/>
    </g>
    <g id="text_22">
     <!-- &gt;30 α:0.48+-0.02 -->
     <g transform="translate(84.81 72.922371)scale(0.1 -0.1)">
      <use xlink:href="#DejaVuSans-3e"/>
      <use xlink:href="#DejaVuSans-33" x="83.789062"/>
      <use xlink:href="#DejaVuSans-30" x="147.412109"/>
      <use xlink:href="#DejaVuSans-20" x="211.035156"/>
      <use xlink:href="#DejaVuSans-3b1" x="242.822266"/>
      <use xlink:href="#DejaVuSans-3a" x="308.740234"/>
      <use xlink:href="#DejaVuSans-30" x="342.431641"/>
      <use xlink:href="#DejaVuSans-2e" x="406.054688"/>
      <use xlink:href="#DejaVuSans-34" x="437.841797"/>
      <use xlink:href="#DejaVuSans-38" x="501.464844"/>
      <use xlink:href="#DejaVuSans-2b" x="565.087891"/>
      <use xlink:href="#DejaVuSans-2d" x="648.876953"/>
      <use xlink:href="#DejaVuSans-30" x="684.960938"/>
      <use xlink:href="#DejaVuSans-2e" x="748.583984"/>
      <use xlink:href="#DejaVuSans-30" x="780.371094"/>
      <use xlink:href="#DejaVuSans-32" x="843.994141"/>
     </g>
    </g>
    <g id="line2d_27">
     <path d="M 56.81 84.100496 
L 66.81 84.100496 
L 76.81 84.100496 
" style="fill: none; stroke-dasharray: 9.6,2.4,1.5,2.4; stroke-dashoffset: 0; stroke: #ff0000; stroke-width: 1.5"/>
    </g>
    <g id="text_23">
     <!-- &lt;30 α:0.48+-0.06 -->
     <g transform="translate(84.81 87.600496)scale(0.1 -0.1)">
      <use xlink:href="#DejaVuSans-3c"/>
      <use xlink:href="#DejaVuSans-33" x="83.789062"/>
      <use xlink:href="#DejaVuSans-30" x="147.412109"/>
      <use xlink:href="#DejaVuSans-20" x="211.035156"/>
      <use xlink:href="#DejaVuSans-3b1" x="242.822266"/>
      <use xlink:href="#DejaVuSans-3a" x="308.740234"/>
      <use xlink:href="#DejaVuSans-30" x="342.431641"/>
      <use xlink:href="#DejaVuSans-2e" x="406.054688"/>
      <use xlink:href="#DejaVuSans-34" x="437.841797"/>
      <use xlink:href="#DejaVuSans-38" x="501.464844"/>
      <use xlink:href="#DejaVuSans-2b" x="565.087891"/>
      <use xlink:href="#DejaVuSans-2d" x="648.876953"/>
      <use xlink:href="#DejaVuSans-30" x="684.960938"/>
      <use xlink:href="#DejaVuSans-2e" x="748.583984"/>
      <use xlink:href="#DejaVuSans-30" x="780.371094"/>
      <use xlink:href="#DejaVuSans-36" x="843.994141"/>
     </g>
    </g>
    <g id="line2d_28">
     <path d="M 56.81 98.778621 
L 66.81 98.778621 
L 76.81 98.778621 
" style="fill: none; stroke: #ff0000; stroke-width: 1.5; stroke-linecap: square"/>
     <g>
      <use xlink:href="#m2646b042e4" x="66.81" y="98.778621" style="fill: #ff0000; stroke: #ff0000"/>
     </g>
    </g>
    <g id="text_24">
     <!-- 43 -->
     <g transform="translate(84.81 102.278621)scale(0.1 -0.1)">
      <use xlink:href="#DejaVuSans-34"/>
      <use xlink:href="#DejaVuSans-33" x="63.623047"/>
     </g>
    </g>
   </g>
  </g>
 </g>
 <defs>
  <clipPath id="p9259f12578">
   <rect x="47.81" y="12.289558" width="661.39" height="377.750442"/>
  </clipPath>
 </defs>
</svg>
