<?xml version="1.0" encoding="utf-8" standalone="no"?>
<!DOCTYPE svg PUBLIC "-//W3C//DTD SVG 1.1//EN"
  "http://www.w3.org/Graphics/SVG/1.1/DTD/svg11.dtd">
<svg xmlns:xlink="http://www.w3.org/1999/xlink" width="460.8pt" height="345.6pt" viewBox="0 0 460.8 345.6" xmlns="http://www.w3.org/2000/svg" version="1.1">
 <metadata>
  <rdf:RDF xmlns:dc="http://purl.org/dc/elements/1.1/" xmlns:cc="http://creativecommons.org/ns#" xmlns:rdf="http://www.w3.org/1999/02/22-rdf-syntax-ns#">
   <cc:Work>
    <dc:type rdf:resource="http://purl.org/dc/dcmitype/StillImage"/>
    <dc:date>2023-09-06T15:30:55.494762</dc:date>
    <dc:format>image/svg+xml</dc:format>
    <dc:creator>
     <cc:Agent>
      <dc:title>Matplotlib v3.7.0, https://matplotlib.org/</dc:title>
     </cc:Agent>
    </dc:creator>
   </cc:Work>
  </rdf:RDF>
 </metadata>
 <defs>
  <style type="text/css">*{stroke-linejoin: round; stroke-linecap: butt}</style>
 </defs>
 <g id="figure_1">
  <g id="patch_1">
   <path d="M 0 345.6 
L 460.8 345.6 
L 460.8 0 
L 0 0 
z
" style="fill: #ffffff"/>
  </g>
  <g id="axes_1">
   <g id="patch_2">
    <path d="M 57.6 307.584 
L 414.72 307.584 
L 414.72 41.472 
L 57.6 41.472 
z
" style="fill: #ffffff"/>
   </g>
   <g id="matplotlib.axis_1">
    <g id="xtick_1">
     <g id="line2d_1">
      <defs>
       <path id="me9ffd13dba" d="M 0 0 
L 0 3.5 
" style="stroke: #000000; stroke-width: 0.8"/>
      </defs>
      <g>
       <use xlink:href="#me9ffd13dba" x="73.832727" y="307.584" style="stroke: #000000; stroke-width: 0.8"/>
      </g>
     </g>
     <g id="text_1">
      <!-- $\mathdefault{10^{0}}$ -->
      <g transform="translate(65.032727 322.182437) scale(0.1 -0.1)">
       <defs>
        <path id="DejaVuSans-31" d="M 794 531 
L 1825 531 
L 1825 4091 
L 703 3866 
L 703 4441 
L 1819 4666 
L 2450 4666 
L 2450 531 
L 3481 531 
L 3481 0 
L 794 0 
L 794 531 
z
" transform="scale(0.015625)"/>
        <path id="DejaVuSans-30" d="M 2034 4250 
Q 1547 4250 1301 3770 
Q 1056 3291 1056 2328 
Q 1056 1369 1301 889 
Q 1547 409 2034 409 
Q 2525 409 2770 889 
Q 3016 1369 3016 2328 
Q 3016 3291 2770 3770 
Q 2525 4250 2034 4250 
z
M 2034 4750 
Q 2819 4750 3233 4129 
Q 3647 3509 3647 2328 
Q 3647 1150 3233 529 
Q 2819 -91 2034 -91 
Q 1250 -91 836 529 
Q 422 1150 422 2328 
Q 422 3509 836 4129 
Q 1250 4750 2034 4750 
z
" transform="scale(0.015625)"/>
       </defs>
       <use xlink:href="#DejaVuSans-31" transform="translate(0 0.765625)"/>
       <use xlink:href="#DejaVuSans-30" transform="translate(63.623047 0.765625)"/>
       <use xlink:href="#DejaVuSans-30" transform="translate(128.203125 39.046875) scale(0.7)"/>
      </g>
     </g>
    </g>
    <g id="xtick_2">
     <g id="line2d_2">
      <g>
       <use xlink:href="#me9ffd13dba" x="236.515038" y="307.584" style="stroke: #000000; stroke-width: 0.8"/>
      </g>
     </g>
     <g id="text_2">
      <!-- $\mathdefault{10^{1}}$ -->
      <g transform="translate(227.715038 322.182437) scale(0.1 -0.1)">
       <use xlink:href="#DejaVuSans-31" transform="translate(0 0.684375)"/>
       <use xlink:href="#DejaVuSans-30" transform="translate(63.623047 0.684375)"/>
       <use xlink:href="#DejaVuSans-31" transform="translate(128.203125 38.965625) scale(0.7)"/>
      </g>
     </g>
    </g>
    <g id="xtick_3">
     <g id="line2d_3">
      <g>
       <use xlink:href="#me9ffd13dba" x="399.197349" y="307.584" style="stroke: #000000; stroke-width: 0.8"/>
      </g>
     </g>
     <g id="text_3">
      <!-- $\mathdefault{10^{2}}$ -->
      <g transform="translate(390.397349 322.182437) scale(0.1 -0.1)">
       <defs>
        <path id="DejaVuSans-32" d="M 1228 531 
L 3431 531 
L 3431 0 
L 469 0 
L 469 531 
Q 828 903 1448 1529 
Q 2069 2156 2228 2338 
Q 2531 2678 2651 2914 
Q 2772 3150 2772 3378 
Q 2772 3750 2511 3984 
Q 2250 4219 1831 4219 
Q 1534 4219 1204 4116 
Q 875 4013 500 3803 
L 500 4441 
Q 881 4594 1212 4672 
Q 1544 4750 1819 4750 
Q 2544 4750 2975 4387 
Q 3406 4025 3406 3419 
Q 3406 3131 3298 2873 
Q 3191 2616 2906 2266 
Q 2828 2175 2409 1742 
Q 1991 1309 1228 531 
z
" transform="scale(0.015625)"/>
       </defs>
       <use xlink:href="#DejaVuSans-31" transform="translate(0 0.765625)"/>
       <use xlink:href="#DejaVuSans-30" transform="translate(63.623047 0.765625)"/>
       <use xlink:href="#DejaVuSans-32" transform="translate(128.203125 39.046875) scale(0.7)"/>
      </g>
     </g>
    </g>
    <g id="xtick_4">
     <g id="line2d_4">
      <defs>
       <path id="m59924709a6" d="M 0 0 
L 0 2 
" style="stroke: #000000; stroke-width: 0.6"/>
      </defs>
      <g>
       <use xlink:href="#m59924709a6" x="58.067182" y="307.584" style="stroke: #000000; stroke-width: 0.6"/>
      </g>
     </g>
    </g>
    <g id="xtick_5">
     <g id="line2d_5">
      <g>
       <use xlink:href="#m59924709a6" x="66.388793" y="307.584" style="stroke: #000000; stroke-width: 0.6"/>
      </g>
     </g>
    </g>
    <g id="xtick_6">
     <g id="line2d_6">
      <g>
       <use xlink:href="#m59924709a6" x="122.804983" y="307.584" style="stroke: #000000; stroke-width: 0.6"/>
      </g>
     </g>
    </g>
    <g id="xtick_7">
     <g id="line2d_7">
      <g>
       <use xlink:href="#m59924709a6" x="151.451916" y="307.584" style="stroke: #000000; stroke-width: 0.6"/>
      </g>
     </g>
    </g>
    <g id="xtick_8">
     <g id="line2d_8">
      <g>
       <use xlink:href="#m59924709a6" x="171.777238" y="307.584" style="stroke: #000000; stroke-width: 0.6"/>
      </g>
     </g>
    </g>
    <g id="xtick_9">
     <g id="line2d_9">
      <g>
       <use xlink:href="#m59924709a6" x="187.542783" y="307.584" style="stroke: #000000; stroke-width: 0.6"/>
      </g>
     </g>
    </g>
    <g id="xtick_10">
     <g id="line2d_10">
      <g>
       <use xlink:href="#m59924709a6" x="200.424171" y="307.584" style="stroke: #000000; stroke-width: 0.6"/>
      </g>
     </g>
    </g>
    <g id="xtick_11">
     <g id="line2d_11">
      <g>
       <use xlink:href="#m59924709a6" x="211.315229" y="307.584" style="stroke: #000000; stroke-width: 0.6"/>
      </g>
     </g>
    </g>
    <g id="xtick_12">
     <g id="line2d_12">
      <g>
       <use xlink:href="#m59924709a6" x="220.749493" y="307.584" style="stroke: #000000; stroke-width: 0.6"/>
      </g>
     </g>
    </g>
    <g id="xtick_13">
     <g id="line2d_13">
      <g>
       <use xlink:href="#m59924709a6" x="229.071104" y="307.584" style="stroke: #000000; stroke-width: 0.6"/>
      </g>
     </g>
    </g>
    <g id="xtick_14">
     <g id="line2d_14">
      <g>
       <use xlink:href="#m59924709a6" x="285.487294" y="307.584" style="stroke: #000000; stroke-width: 0.6"/>
      </g>
     </g>
    </g>
    <g id="xtick_15">
     <g id="line2d_15">
      <g>
       <use xlink:href="#m59924709a6" x="314.134227" y="307.584" style="stroke: #000000; stroke-width: 0.6"/>
      </g>
     </g>
    </g>
    <g id="xtick_16">
     <g id="line2d_16">
      <g>
       <use xlink:href="#m59924709a6" x="334.459549" y="307.584" style="stroke: #000000; stroke-width: 0.6"/>
      </g>
     </g>
    </g>
    <g id="xtick_17">
     <g id="line2d_17">
      <g>
       <use xlink:href="#m59924709a6" x="350.225094" y="307.584" style="stroke: #000000; stroke-width: 0.6"/>
      </g>
     </g>
    </g>
    <g id="xtick_18">
     <g id="line2d_18">
      <g>
       <use xlink:href="#m59924709a6" x="363.106482" y="307.584" style="stroke: #000000; stroke-width: 0.6"/>
      </g>
     </g>
    </g>
    <g id="xtick_19">
     <g id="line2d_19">
      <g>
       <use xlink:href="#m59924709a6" x="373.997541" y="307.584" style="stroke: #000000; stroke-width: 0.6"/>
      </g>
     </g>
    </g>
    <g id="xtick_20">
     <g id="line2d_20">
      <g>
       <use xlink:href="#m59924709a6" x="383.431804" y="307.584" style="stroke: #000000; stroke-width: 0.6"/>
      </g>
     </g>
    </g>
    <g id="xtick_21">
     <g id="line2d_21">
      <g>
       <use xlink:href="#m59924709a6" x="391.753415" y="307.584" style="stroke: #000000; stroke-width: 0.6"/>
      </g>
     </g>
    </g>
   </g>
   <g id="matplotlib.axis_2">
    <g id="ytick_1">
     <g id="line2d_22">
      <defs>
       <path id="m07433b9d9c" d="M 0 0 
L -3.5 0 
" style="stroke: #000000; stroke-width: 0.8"/>
      </defs>
      <g>
       <use xlink:href="#m07433b9d9c" x="57.6" y="295.488" style="stroke: #000000; stroke-width: 0.8"/>
      </g>
     </g>
     <g id="text_4">
      <!-- $\mathdefault{10^{0}}$ -->
      <g transform="translate(33 299.287219) scale(0.1 -0.1)">
       <use xlink:href="#DejaVuSans-31" transform="translate(0 0.765625)"/>
       <use xlink:href="#DejaVuSans-30" transform="translate(63.623047 0.765625)"/>
       <use xlink:href="#DejaVuSans-30" transform="translate(128.203125 39.046875) scale(0.7)"/>
      </g>
     </g>
    </g>
    <g id="ytick_2">
     <g id="line2d_23">
      <g>
       <use xlink:href="#m07433b9d9c" x="57.6" y="174.899301" style="stroke: #000000; stroke-width: 0.8"/>
      </g>
     </g>
     <g id="text_5">
      <!-- $\mathdefault{10^{1}}$ -->
      <g transform="translate(33 178.69852) scale(0.1 -0.1)">
       <use xlink:href="#DejaVuSans-31" transform="translate(0 0.684375)"/>
       <use xlink:href="#DejaVuSans-30" transform="translate(63.623047 0.684375)"/>
       <use xlink:href="#DejaVuSans-31" transform="translate(128.203125 38.965625) scale(0.7)"/>
      </g>
     </g>
    </g>
    <g id="ytick_3">
     <g id="line2d_24">
      <g>
       <use xlink:href="#m07433b9d9c" x="57.6" y="54.310603" style="stroke: #000000; stroke-width: 0.8"/>
      </g>
     </g>
     <g id="text_6">
      <!-- $\mathdefault{10^{2}}$ -->
      <g transform="translate(33 58.109822) scale(0.1 -0.1)">
       <use xlink:href="#DejaVuSans-31" transform="translate(0 0.765625)"/>
       <use xlink:href="#DejaVuSans-30" transform="translate(63.623047 0.765625)"/>
       <use xlink:href="#DejaVuSans-32" transform="translate(128.203125 39.046875) scale(0.7)"/>
      </g>
     </g>
    </g>
    <g id="ytick_4">
     <g id="line2d_25">
      <defs>
       <path id="me066762c1b" d="M 0 0 
L -2 0 
" style="stroke: #000000; stroke-width: 0.6"/>
      </defs>
      <g>
       <use xlink:href="#me066762c1b" x="57.6" y="307.174252" style="stroke: #000000; stroke-width: 0.6"/>
      </g>
     </g>
    </g>
    <g id="ytick_5">
     <g id="line2d_26">
      <g>
       <use xlink:href="#me066762c1b" x="57.6" y="301.005836" style="stroke: #000000; stroke-width: 0.6"/>
      </g>
     </g>
    </g>
    <g id="ytick_6">
     <g id="line2d_27">
      <g>
       <use xlink:href="#me066762c1b" x="57.6" y="259.187185" style="stroke: #000000; stroke-width: 0.6"/>
      </g>
     </g>
    </g>
    <g id="ytick_7">
     <g id="line2d_28">
      <g>
       <use xlink:href="#me066762c1b" x="57.6" y="237.952569" style="stroke: #000000; stroke-width: 0.6"/>
      </g>
     </g>
    </g>
    <g id="ytick_8">
     <g id="line2d_29">
      <g>
       <use xlink:href="#me066762c1b" x="57.6" y="222.886369" style="stroke: #000000; stroke-width: 0.6"/>
      </g>
     </g>
    </g>
    <g id="ytick_9">
     <g id="line2d_30">
      <g>
       <use xlink:href="#me066762c1b" x="57.6" y="211.200117" style="stroke: #000000; stroke-width: 0.6"/>
      </g>
     </g>
    </g>
    <g id="ytick_10">
     <g id="line2d_31">
      <g>
       <use xlink:href="#me066762c1b" x="57.6" y="201.651753" style="stroke: #000000; stroke-width: 0.6"/>
      </g>
     </g>
    </g>
    <g id="ytick_11">
     <g id="line2d_32">
      <g>
       <use xlink:href="#me066762c1b" x="57.6" y="193.578727" style="stroke: #000000; stroke-width: 0.6"/>
      </g>
     </g>
    </g>
    <g id="ytick_12">
     <g id="line2d_33">
      <g>
       <use xlink:href="#me066762c1b" x="57.6" y="186.585554" style="stroke: #000000; stroke-width: 0.6"/>
      </g>
     </g>
    </g>
    <g id="ytick_13">
     <g id="line2d_34">
      <g>
       <use xlink:href="#me066762c1b" x="57.6" y="180.417138" style="stroke: #000000; stroke-width: 0.6"/>
      </g>
     </g>
    </g>
    <g id="ytick_14">
     <g id="line2d_35">
      <g>
       <use xlink:href="#me066762c1b" x="57.6" y="138.598486" style="stroke: #000000; stroke-width: 0.6"/>
      </g>
     </g>
    </g>
    <g id="ytick_15">
     <g id="line2d_36">
      <g>
       <use xlink:href="#me066762c1b" x="57.6" y="117.36387" style="stroke: #000000; stroke-width: 0.6"/>
      </g>
     </g>
    </g>
    <g id="ytick_16">
     <g id="line2d_37">
      <g>
       <use xlink:href="#me066762c1b" x="57.6" y="102.297671" style="stroke: #000000; stroke-width: 0.6"/>
      </g>
     </g>
    </g>
    <g id="ytick_17">
     <g id="line2d_38">
      <g>
       <use xlink:href="#me066762c1b" x="57.6" y="90.611418" style="stroke: #000000; stroke-width: 0.6"/>
      </g>
     </g>
    </g>
    <g id="ytick_18">
     <g id="line2d_39">
      <g>
       <use xlink:href="#me066762c1b" x="57.6" y="81.063055" style="stroke: #000000; stroke-width: 0.6"/>
      </g>
     </g>
    </g>
    <g id="ytick_19">
     <g id="line2d_40">
      <g>
       <use xlink:href="#me066762c1b" x="57.6" y="72.990029" style="stroke: #000000; stroke-width: 0.6"/>
      </g>
     </g>
    </g>
    <g id="ytick_20">
     <g id="line2d_41">
      <g>
       <use xlink:href="#me066762c1b" x="57.6" y="65.996855" style="stroke: #000000; stroke-width: 0.6"/>
      </g>
     </g>
    </g>
    <g id="ytick_21">
     <g id="line2d_42">
      <g>
       <use xlink:href="#me066762c1b" x="57.6" y="59.828439" style="stroke: #000000; stroke-width: 0.6"/>
      </g>
     </g>
    </g>
    <g id="text_7">
     <!-- &lt;d^2&gt; -->
     <g transform="translate(26.920312 193.453) rotate(-90) scale(0.1 -0.1)">
      <defs>
       <path id="DejaVuSans-3c" d="M 4684 3150 
L 1459 2003 
L 4684 863 
L 4684 294 
L 678 1747 
L 678 2266 
L 4684 3719 
L 4684 3150 
z
" transform="scale(0.015625)"/>
       <path id="DejaVuSans-64" d="M 2906 2969 
L 2906 4863 
L 3481 4863 
L 3481 0 
L 2906 0 
L 2906 525 
Q 2725 213 2448 61 
Q 2172 -91 1784 -91 
Q 1150 -91 751 415 
Q 353 922 353 1747 
Q 353 2572 751 3078 
Q 1150 3584 1784 3584 
Q 2172 3584 2448 3432 
Q 2725 3281 2906 2969 
z
M 947 1747 
Q 947 1113 1208 752 
Q 1469 391 1925 391 
Q 2381 391 2643 752 
Q 2906 1113 2906 1747 
Q 2906 2381 2643 2742 
Q 2381 3103 1925 3103 
Q 1469 3103 1208 2742 
Q 947 2381 947 1747 
z
" transform="scale(0.015625)"/>
       <path id="DejaVuSans-5e" d="M 2988 4666 
L 4684 2925 
L 4056 2925 
L 2681 4159 
L 1306 2925 
L 678 2925 
L 2375 4666 
L 2988 4666 
z
" transform="scale(0.015625)"/>
       <path id="DejaVuSans-3e" d="M 678 3150 
L 678 3719 
L 4684 2266 
L 4684 1747 
L 678 294 
L 678 863 
L 3897 2003 
L 678 3150 
z
" transform="scale(0.015625)"/>
      </defs>
      <use xlink:href="#DejaVuSans-3c"/>
      <use xlink:href="#DejaVuSans-64" x="83.789062"/>
      <use xlink:href="#DejaVuSans-5e" x="147.265625"/>
      <use xlink:href="#DejaVuSans-32" x="231.054688"/>
      <use xlink:href="#DejaVuSans-3e" x="294.677734"/>
     </g>
    </g>
   </g>
   <g id="line2d_43">
    <path d="M 4.879182 346.6 
L 73.832727 295.488 
L 122.804983 259.742684 
L 151.451916 238.139132 
L 171.777238 222.66797 
L 187.542783 211.367862 
L 200.424171 202.208571 
L 211.315229 194.630943 
L 220.749493 187.347557 
L 229.071104 181.012101 
L 236.515038 175.052628 
L 243.248896 170.242134 
L 249.396426 165.005159 
L 255.051606 160.955301 
L 260.287485 157.222624 
L 265.161971 154.138145 
L 269.721749 150.603497 
L 274.005001 146.766017 
L 278.043359 144.400065 
L 281.863318 141.078224 
L 285.487294 138.881282 
L 288.934418 136.321796 
L 292.221151 133.417668 
L 295.361759 131.229792 
L 298.368682 129.025324 
L 301.252839 126.077567 
L 304.023862 124.658469 
L 306.690292 122.783039 
L 309.25974 121.146583 
L 311.739013 119.335208 
L 314.134227 116.6741 
L 316.450894 114.758373 
L 318.694004 113.413138 
L 320.868084 111.254837 
L 322.977257 109.665792 
L 325.025285 108.71218 
L 327.015615 108.092264 
L 328.951408 106.943112 
L 330.835574 105.464869 
L 332.670795 104.69775 
L 334.459549 102.203489 
L 336.204132 101.016116 
L 337.906673 100.093187 
L 339.569151 98.736662 
L 341.193407 97.557669 
L 342.78116 96.480732 
L 344.334014 95.670711 
L 345.853471 94.246343 
L 347.340937 94.042854 
L 348.797732 92.632311 
L 350.225094 91.885385 
L 351.62419 91.176469 
L 352.996117 90.283206 
L 354.341911 89.281811 
L 355.662548 88.989525 
L 356.958952 87.220548 
L 358.231996 86.244429 
L 359.482507 86.625503 
L 360.711269 86.755193 
L 361.919025 86.261453 
L 363.106482 85.088696 
L 364.274311 84.223702 
L 365.42315 83.099644 
L 366.553606 81.757031 
L 367.66626 80.935548 
L 368.761662 79.812032 
L 369.84034 79.504528 
L 370.902796 78.934439 
L 371.949512 77.945933 
L 372.980947 76.948847 
L 373.997541 76.275229 
L 374.999714 74.94525 
L 375.98787 73.800124 
L 376.962396 72.839619 
L 377.923663 72.48944 
L 378.872027 72.310897 
L 379.807829 72.039435 
L 380.731398 71.17222 
L 381.64305 71.003217 
L 382.543088 71.332771 
L 383.431804 70.106669 
L 384.309481 70.293576 
L 385.176388 69.611 
L 386.032786 69.157548 
L 386.878929 68.902549 
L 387.715057 67.940511 
L 388.541406 65.645387 
L 389.358202 63.663491 
L 390.165662 62.445388 
L 390.963999 61.263152 
L 391.753415 60.831671 
L 392.534108 60.808332 
L 393.306269 60.466574 
L 394.070083 59.460269 
L 394.825726 58.769079 
L 395.573374 58.723673 
L 396.313193 57.997673 
L 397.045345 55.837801 
L 397.769987 54.581452 
L 398.487273 53.568 
" clip-path="url(#pc33456da88)" style="fill: none; stroke: #1f77b4; stroke-width: 1.5; stroke-linecap: square"/>
    <defs>
     <path id="mcdca755b1e" d="M 0 3 
C 0.795609 3 1.55874 2.683901 2.12132 2.12132 
C 2.683901 1.55874 3 0.795609 3 0 
C 3 -0.795609 2.683901 -1.55874 2.12132 -2.12132 
C 1.55874 -2.683901 0.795609 -3 0 -3 
C -0.795609 -3 -1.55874 -2.683901 -2.12132 -2.12132 
C -2.683901 -1.55874 -3 -0.795609 -3 0 
C -3 0.795609 -2.683901 1.55874 -2.12132 2.12132 
C -1.55874 2.683901 -0.795609 3 0 3 
z
" style="stroke: #1f77b4"/>
    </defs>
    <g clip-path="url(#pc33456da88)">
     <use xlink:href="#mcdca755b1e" x="-1" y="350.957959" style="fill: #1f77b4; stroke: #1f77b4"/>
     <use xlink:href="#mcdca755b1e" x="73.832727" y="295.488" style="fill: #1f77b4; stroke: #1f77b4"/>
     <use xlink:href="#mcdca755b1e" x="122.804983" y="259.742684" style="fill: #1f77b4; stroke: #1f77b4"/>
     <use xlink:href="#mcdca755b1e" x="151.451916" y="238.139132" style="fill: #1f77b4; stroke: #1f77b4"/>
     <use xlink:href="#mcdca755b1e" x="171.777238" y="222.66797" style="fill: #1f77b4; stroke: #1f77b4"/>
     <use xlink:href="#mcdca755b1e" x="187.542783" y="211.367862" style="fill: #1f77b4; stroke: #1f77b4"/>
     <use xlink:href="#mcdca755b1e" x="200.424171" y="202.208571" style="fill: #1f77b4; stroke: #1f77b4"/>
     <use xlink:href="#mcdca755b1e" x="211.315229" y="194.630943" style="fill: #1f77b4; stroke: #1f77b4"/>
     <use xlink:href="#mcdca755b1e" x="220.749493" y="187.347557" style="fill: #1f77b4; stroke: #1f77b4"/>
     <use xlink:href="#mcdca755b1e" x="229.071104" y="181.012101" style="fill: #1f77b4; stroke: #1f77b4"/>
     <use xlink:href="#mcdca755b1e" x="236.515038" y="175.052628" style="fill: #1f77b4; stroke: #1f77b4"/>
     <use xlink:href="#mcdca755b1e" x="243.248896" y="170.242134" style="fill: #1f77b4; stroke: #1f77b4"/>
     <use xlink:href="#mcdca755b1e" x="249.396426" y="165.005159" style="fill: #1f77b4; stroke: #1f77b4"/>
     <use xlink:href="#mcdca755b1e" x="255.051606" y="160.955301" style="fill: #1f77b4; stroke: #1f77b4"/>
     <use xlink:href="#mcdca755b1e" x="260.287485" y="157.222624" style="fill: #1f77b4; stroke: #1f77b4"/>
     <use xlink:href="#mcdca755b1e" x="265.161971" y="154.138145" style="fill: #1f77b4; stroke: #1f77b4"/>
     <use xlink:href="#mcdca755b1e" x="269.721749" y="150.603497" style="fill: #1f77b4; stroke: #1f77b4"/>
     <use xlink:href="#mcdca755b1e" x="274.005001" y="146.766017" style="fill: #1f77b4; stroke: #1f77b4"/>
     <use xlink:href="#mcdca755b1e" x="278.043359" y="144.400065" style="fill: #1f77b4; stroke: #1f77b4"/>
     <use xlink:href="#mcdca755b1e" x="281.863318" y="141.078224" style="fill: #1f77b4; stroke: #1f77b4"/>
     <use xlink:href="#mcdca755b1e" x="285.487294" y="138.881282" style="fill: #1f77b4; stroke: #1f77b4"/>
     <use xlink:href="#mcdca755b1e" x="288.934418" y="136.321796" style="fill: #1f77b4; stroke: #1f77b4"/>
     <use xlink:href="#mcdca755b1e" x="292.221151" y="133.417668" style="fill: #1f77b4; stroke: #1f77b4"/>
     <use xlink:href="#mcdca755b1e" x="295.361759" y="131.229792" style="fill: #1f77b4; stroke: #1f77b4"/>
     <use xlink:href="#mcdca755b1e" x="298.368682" y="129.025324" style="fill: #1f77b4; stroke: #1f77b4"/>
     <use xlink:href="#mcdca755b1e" x="301.252839" y="126.077567" style="fill: #1f77b4; stroke: #1f77b4"/>
     <use xlink:href="#mcdca755b1e" x="304.023862" y="124.658469" style="fill: #1f77b4; stroke: #1f77b4"/>
     <use xlink:href="#mcdca755b1e" x="306.690292" y="122.783039" style="fill: #1f77b4; stroke: #1f77b4"/>
     <use xlink:href="#mcdca755b1e" x="309.25974" y="121.146583" style="fill: #1f77b4; stroke: #1f77b4"/>
     <use xlink:href="#mcdca755b1e" x="311.739013" y="119.335208" style="fill: #1f77b4; stroke: #1f77b4"/>
     <use xlink:href="#mcdca755b1e" x="314.134227" y="116.6741" style="fill: #1f77b4; stroke: #1f77b4"/>
     <use xlink:href="#mcdca755b1e" x="316.450894" y="114.758373" style="fill: #1f77b4; stroke: #1f77b4"/>
     <use xlink:href="#mcdca755b1e" x="318.694004" y="113.413138" style="fill: #1f77b4; stroke: #1f77b4"/>
     <use xlink:href="#mcdca755b1e" x="320.868084" y="111.254837" style="fill: #1f77b4; stroke: #1f77b4"/>
     <use xlink:href="#mcdca755b1e" x="322.977257" y="109.665792" style="fill: #1f77b4; stroke: #1f77b4"/>
     <use xlink:href="#mcdca755b1e" x="325.025285" y="108.71218" style="fill: #1f77b4; stroke: #1f77b4"/>
     <use xlink:href="#mcdca755b1e" x="327.015615" y="108.092264" style="fill: #1f77b4; stroke: #1f77b4"/>
     <use xlink:href="#mcdca755b1e" x="328.951408" y="106.943112" style="fill: #1f77b4; stroke: #1f77b4"/>
     <use xlink:href="#mcdca755b1e" x="330.835574" y="105.464869" style="fill: #1f77b4; stroke: #1f77b4"/>
     <use xlink:href="#mcdca755b1e" x="332.670795" y="104.69775" style="fill: #1f77b4; stroke: #1f77b4"/>
     <use xlink:href="#mcdca755b1e" x="334.459549" y="102.203489" style="fill: #1f77b4; stroke: #1f77b4"/>
     <use xlink:href="#mcdca755b1e" x="336.204132" y="101.016116" style="fill: #1f77b4; stroke: #1f77b4"/>
     <use xlink:href="#mcdca755b1e" x="337.906673" y="100.093187" style="fill: #1f77b4; stroke: #1f77b4"/>
     <use xlink:href="#mcdca755b1e" x="339.569151" y="98.736662" style="fill: #1f77b4; stroke: #1f77b4"/>
     <use xlink:href="#mcdca755b1e" x="341.193407" y="97.557669" style="fill: #1f77b4; stroke: #1f77b4"/>
     <use xlink:href="#mcdca755b1e" x="342.78116" y="96.480732" style="fill: #1f77b4; stroke: #1f77b4"/>
     <use xlink:href="#mcdca755b1e" x="344.334014" y="95.670711" style="fill: #1f77b4; stroke: #1f77b4"/>
     <use xlink:href="#mcdca755b1e" x="345.853471" y="94.246343" style="fill: #1f77b4; stroke: #1f77b4"/>
     <use xlink:href="#mcdca755b1e" x="347.340937" y="94.042854" style="fill: #1f77b4; stroke: #1f77b4"/>
     <use xlink:href="#mcdca755b1e" x="348.797732" y="92.632311" style="fill: #1f77b4; stroke: #1f77b4"/>
     <use xlink:href="#mcdca755b1e" x="350.225094" y="91.885385" style="fill: #1f77b4; stroke: #1f77b4"/>
     <use xlink:href="#mcdca755b1e" x="351.62419" y="91.176469" style="fill: #1f77b4; stroke: #1f77b4"/>
     <use xlink:href="#mcdca755b1e" x="352.996117" y="90.283206" style="fill: #1f77b4; stroke: #1f77b4"/>
     <use xlink:href="#mcdca755b1e" x="354.341911" y="89.281811" style="fill: #1f77b4; stroke: #1f77b4"/>
     <use xlink:href="#mcdca755b1e" x="355.662548" y="88.989525" style="fill: #1f77b4; stroke: #1f77b4"/>
     <use xlink:href="#mcdca755b1e" x="356.958952" y="87.220548" style="fill: #1f77b4; stroke: #1f77b4"/>
     <use xlink:href="#mcdca755b1e" x="358.231996" y="86.244429" style="fill: #1f77b4; stroke: #1f77b4"/>
     <use xlink:href="#mcdca755b1e" x="359.482507" y="86.625503" style="fill: #1f77b4; stroke: #1f77b4"/>
     <use xlink:href="#mcdca755b1e" x="360.711269" y="86.755193" style="fill: #1f77b4; stroke: #1f77b4"/>
     <use xlink:href="#mcdca755b1e" x="361.919025" y="86.261453" style="fill: #1f77b4; stroke: #1f77b4"/>
     <use xlink:href="#mcdca755b1e" x="363.106482" y="85.088696" style="fill: #1f77b4; stroke: #1f77b4"/>
     <use xlink:href="#mcdca755b1e" x="364.274311" y="84.223702" style="fill: #1f77b4; stroke: #1f77b4"/>
     <use xlink:href="#mcdca755b1e" x="365.42315" y="83.099644" style="fill: #1f77b4; stroke: #1f77b4"/>
     <use xlink:href="#mcdca755b1e" x="366.553606" y="81.757031" style="fill: #1f77b4; stroke: #1f77b4"/>
     <use xlink:href="#mcdca755b1e" x="367.66626" y="80.935548" style="fill: #1f77b4; stroke: #1f77b4"/>
     <use xlink:href="#mcdca755b1e" x="368.761662" y="79.812032" style="fill: #1f77b4; stroke: #1f77b4"/>
     <use xlink:href="#mcdca755b1e" x="369.84034" y="79.504528" style="fill: #1f77b4; stroke: #1f77b4"/>
     <use xlink:href="#mcdca755b1e" x="370.902796" y="78.934439" style="fill: #1f77b4; stroke: #1f77b4"/>
     <use xlink:href="#mcdca755b1e" x="371.949512" y="77.945933" style="fill: #1f77b4; stroke: #1f77b4"/>
     <use xlink:href="#mcdca755b1e" x="372.980947" y="76.948847" style="fill: #1f77b4; stroke: #1f77b4"/>
     <use xlink:href="#mcdca755b1e" x="373.997541" y="76.275229" style="fill: #1f77b4; stroke: #1f77b4"/>
     <use xlink:href="#mcdca755b1e" x="374.999714" y="74.94525" style="fill: #1f77b4; stroke: #1f77b4"/>
     <use xlink:href="#mcdca755b1e" x="375.98787" y="73.800124" style="fill: #1f77b4; stroke: #1f77b4"/>
     <use xlink:href="#mcdca755b1e" x="376.962396" y="72.839619" style="fill: #1f77b4; stroke: #1f77b4"/>
     <use xlink:href="#mcdca755b1e" x="377.923663" y="72.48944" style="fill: #1f77b4; stroke: #1f77b4"/>
     <use xlink:href="#mcdca755b1e" x="378.872027" y="72.310897" style="fill: #1f77b4; stroke: #1f77b4"/>
     <use xlink:href="#mcdca755b1e" x="379.807829" y="72.039435" style="fill: #1f77b4; stroke: #1f77b4"/>
     <use xlink:href="#mcdca755b1e" x="380.731398" y="71.17222" style="fill: #1f77b4; stroke: #1f77b4"/>
     <use xlink:href="#mcdca755b1e" x="381.64305" y="71.003217" style="fill: #1f77b4; stroke: #1f77b4"/>
     <use xlink:href="#mcdca755b1e" x="382.543088" y="71.332771" style="fill: #1f77b4; stroke: #1f77b4"/>
     <use xlink:href="#mcdca755b1e" x="383.431804" y="70.106669" style="fill: #1f77b4; stroke: #1f77b4"/>
     <use xlink:href="#mcdca755b1e" x="384.309481" y="70.293576" style="fill: #1f77b4; stroke: #1f77b4"/>
     <use xlink:href="#mcdca755b1e" x="385.176388" y="69.611" style="fill: #1f77b4; stroke: #1f77b4"/>
     <use xlink:href="#mcdca755b1e" x="386.032786" y="69.157548" style="fill: #1f77b4; stroke: #1f77b4"/>
     <use xlink:href="#mcdca755b1e" x="386.878929" y="68.902549" style="fill: #1f77b4; stroke: #1f77b4"/>
     <use xlink:href="#mcdca755b1e" x="387.715057" y="67.940511" style="fill: #1f77b4; stroke: #1f77b4"/>
     <use xlink:href="#mcdca755b1e" x="388.541406" y="65.645387" style="fill: #1f77b4; stroke: #1f77b4"/>
     <use xlink:href="#mcdca755b1e" x="389.358202" y="63.663491" style="fill: #1f77b4; stroke: #1f77b4"/>
     <use xlink:href="#mcdca755b1e" x="390.165662" y="62.445388" style="fill: #1f77b4; stroke: #1f77b4"/>
     <use xlink:href="#mcdca755b1e" x="390.963999" y="61.263152" style="fill: #1f77b4; stroke: #1f77b4"/>
     <use xlink:href="#mcdca755b1e" x="391.753415" y="60.831671" style="fill: #1f77b4; stroke: #1f77b4"/>
     <use xlink:href="#mcdca755b1e" x="392.534108" y="60.808332" style="fill: #1f77b4; stroke: #1f77b4"/>
     <use xlink:href="#mcdca755b1e" x="393.306269" y="60.466574" style="fill: #1f77b4; stroke: #1f77b4"/>
     <use xlink:href="#mcdca755b1e" x="394.070083" y="59.460269" style="fill: #1f77b4; stroke: #1f77b4"/>
     <use xlink:href="#mcdca755b1e" x="394.825726" y="58.769079" style="fill: #1f77b4; stroke: #1f77b4"/>
     <use xlink:href="#mcdca755b1e" x="395.573374" y="58.723673" style="fill: #1f77b4; stroke: #1f77b4"/>
     <use xlink:href="#mcdca755b1e" x="396.313193" y="57.997673" style="fill: #1f77b4; stroke: #1f77b4"/>
     <use xlink:href="#mcdca755b1e" x="397.045345" y="55.837801" style="fill: #1f77b4; stroke: #1f77b4"/>
     <use xlink:href="#mcdca755b1e" x="397.769987" y="54.581452" style="fill: #1f77b4; stroke: #1f77b4"/>
     <use xlink:href="#mcdca755b1e" x="398.487273" y="53.568" style="fill: #1f77b4; stroke: #1f77b4"/>
    </g>
   </g>
   <g id="line2d_44">
    <path d="M 2.118261 346.6 
L 73.832727 293.440558 
L 122.804983 257.800133 
L 151.451916 236.951821 
L 171.777238 222.159708 
L 187.542783 210.686054 
L 200.424171 201.311396 
L 211.315229 193.385235 
L 220.749493 186.519283 
L 229.071104 180.463084 
L 236.515038 175.045629 
L 243.248896 170.144945 
L 249.396426 165.670971 
L 255.051606 161.555314 
L 260.287485 157.744811 
L 265.161971 154.197317 
L 269.721749 150.878858 
L 274.005001 147.761645 
L 278.043359 144.822659 
L 281.863318 142.042616 
L 285.487294 139.405204 
L 288.934418 136.896499 
L 292.221151 134.50452 
L 295.361759 132.218888 
L 298.368682 130.030546 
L 301.252839 127.93155 
L 304.023862 125.914889 
L 306.690292 123.974347 
L 309.25974 122.104386 
L 311.739013 120.300051 
L 314.134227 118.556892 
L 316.450894 116.870896 
L 318.694004 115.238433 
L 320.868084 113.656208 
L 322.977257 112.12122 
L 325.025285 110.630732 
L 327.015615 109.182234 
L 328.951408 107.773426 
L 330.835574 106.402191 
L 332.670795 105.066577 
L 334.459549 103.764779 
L 336.204132 102.495128 
L 337.906673 101.256074 
L 339.569151 100.046176 
L 341.193407 98.864095 
L 342.78116 97.70858 
L 344.334014 96.578463 
L 345.853471 95.472651 
L 347.340937 94.390121 
L 348.797732 93.329913 
L 350.225094 92.291125 
L 351.62419 91.272908 
L 352.996117 90.274464 
L 354.341911 89.295039 
L 355.662548 88.333922 
L 356.958952 87.390441 
L 358.231996 86.463961 
L 359.482507 85.553879 
L 360.711269 84.659626 
L 361.919025 83.78066 
L 363.106482 82.916467 
L 364.274311 82.066559 
L 365.42315 81.230471 
L 366.553606 80.407762 
L 367.66626 79.598008 
L 368.761662 78.80081 
L 369.84034 78.015783 
L 370.902796 77.242562 
L 371.949512 76.480796 
L 372.980947 75.730151 
L 373.997541 74.990307 
L 374.999714 74.260958 
L 375.98787 73.541809 
L 376.962396 72.832581 
L 377.923663 72.133002 
L 378.872027 71.442813 
L 379.807829 70.761767 
L 380.731398 70.089623 
L 381.64305 69.426152 
L 382.543088 68.771134 
L 383.431804 68.124354 
L 384.309481 67.48561 
L 385.176388 66.854703 
L 386.032786 66.231444 
L 386.878929 65.615649 
L 387.715057 65.007142 
L 388.541406 64.405752 
L 389.358202 63.811314 
L 390.165662 63.22367 
L 390.963999 62.642667 
L 391.753415 62.068155 
L 392.534108 61.499992 
L 393.306269 60.938038 
L 394.070083 60.382159 
L 394.825726 59.832226 
L 395.573374 59.288112 
L 396.313193 58.749696 
L 397.045345 58.21686 
L 397.769987 57.689488 
L 398.487273 57.167471 
" clip-path="url(#pc33456da88)" style="fill: none; stroke-dasharray: 5.55,2.4; stroke-dashoffset: 0; stroke: #ff7f0e; stroke-width: 1.5"/>
   </g>
   <g id="patch_3">
    <path d="M 57.6 307.584 
L 57.6 41.472 
" style="fill: none; stroke: #000000; stroke-width: 0.8; stroke-linejoin: miter; stroke-linecap: square"/>
   </g>
   <g id="patch_4">
    <path d="M 414.72 307.584 
L 414.72 41.472 
" style="fill: none; stroke: #000000; stroke-width: 0.8; stroke-linejoin: miter; stroke-linecap: square"/>
   </g>
   <g id="patch_5">
    <path d="M 57.6 307.584 
L 414.72 307.584 
" style="fill: none; stroke: #000000; stroke-width: 0.8; stroke-linejoin: miter; stroke-linecap: square"/>
   </g>
   <g id="patch_6">
    <path d="M 57.6 41.472 
L 414.72 41.472 
" style="fill: none; stroke: #000000; stroke-width: 0.8; stroke-linejoin: miter; stroke-linecap: square"/>
   </g>
   <g id="legend_1">
    <g id="patch_7">
     <path d="M 64.6 64.150125 
L 175.804688 64.150125 
Q 177.804688 64.150125 177.804688 62.150125 
L 177.804688 48.472 
Q 177.804688 46.472 175.804688 46.472 
L 64.6 46.472 
Q 62.6 46.472 62.6 48.472 
L 62.6 62.150125 
Q 62.6 64.150125 64.6 64.150125 
z
" style="fill: #ffffff; opacity: 0.8; stroke: #cccccc; stroke-linejoin: miter"/>
    </g>
    <g id="line2d_45">
     <path d="M 66.6 54.570438 
L 76.6 54.570438 
L 86.6 54.570438 
" style="fill: none; stroke-dasharray: 5.55,2.4; stroke-dashoffset: 0; stroke: #ff7f0e; stroke-width: 1.5"/>
    </g>
    <g id="text_8">
     <!-- α:0.982+-0.003 -->
     <g transform="translate(94.6 58.070438) scale(0.1 -0.1)">
      <defs>
       <path id="DejaVuSans-3b1" d="M 2644 1628 
L 2506 2350 
Q 2366 3091 1809 3091 
Q 1391 3091 1200 2747 
Q 959 2316 959 1747 
Q 959 1059 1194 731 
Q 1431 397 1809 397 
Q 2228 397 2453 1063 
L 2644 1628 
z
M 2966 2584 
L 3275 3500 
L 3788 3500 
L 3147 1603 
L 3272 919 
Q 3300 766 3409 638 
Q 3538 488 3638 488 
L 3913 488 
L 3913 0 
L 3569 0 
Q 3275 0 3013 263 
Q 2884 394 2831 669 
Q 2688 322 2394 50 
Q 2256 -78 1809 -78 
Q 1075 -78 719 397 
Q 353 888 353 1747 
Q 353 2666 750 3097 
Q 1191 3578 1809 3578 
Q 2781 3578 2966 2584 
z
" transform="scale(0.015625)"/>
       <path id="DejaVuSans-3a" d="M 750 794 
L 1409 794 
L 1409 0 
L 750 0 
L 750 794 
z
M 750 3309 
L 1409 3309 
L 1409 2516 
L 750 2516 
L 750 3309 
z
" transform="scale(0.015625)"/>
       <path id="DejaVuSans-2e" d="M 684 794 
L 1344 794 
L 1344 0 
L 684 0 
L 684 794 
z
" transform="scale(0.015625)"/>
       <path id="DejaVuSans-39" d="M 703 97 
L 703 672 
Q 941 559 1184 500 
Q 1428 441 1663 441 
Q 2288 441 2617 861 
Q 2947 1281 2994 2138 
Q 2813 1869 2534 1725 
Q 2256 1581 1919 1581 
Q 1219 1581 811 2004 
Q 403 2428 403 3163 
Q 403 3881 828 4315 
Q 1253 4750 1959 4750 
Q 2769 4750 3195 4129 
Q 3622 3509 3622 2328 
Q 3622 1225 3098 567 
Q 2575 -91 1691 -91 
Q 1453 -91 1209 -44 
Q 966 3 703 97 
z
M 1959 2075 
Q 2384 2075 2632 2365 
Q 2881 2656 2881 3163 
Q 2881 3666 2632 3958 
Q 2384 4250 1959 4250 
Q 1534 4250 1286 3958 
Q 1038 3666 1038 3163 
Q 1038 2656 1286 2365 
Q 1534 2075 1959 2075 
z
" transform="scale(0.015625)"/>
       <path id="DejaVuSans-38" d="M 2034 2216 
Q 1584 2216 1326 1975 
Q 1069 1734 1069 1313 
Q 1069 891 1326 650 
Q 1584 409 2034 409 
Q 2484 409 2743 651 
Q 3003 894 3003 1313 
Q 3003 1734 2745 1975 
Q 2488 2216 2034 2216 
z
M 1403 2484 
Q 997 2584 770 2862 
Q 544 3141 544 3541 
Q 544 4100 942 4425 
Q 1341 4750 2034 4750 
Q 2731 4750 3128 4425 
Q 3525 4100 3525 3541 
Q 3525 3141 3298 2862 
Q 3072 2584 2669 2484 
Q 3125 2378 3379 2068 
Q 3634 1759 3634 1313 
Q 3634 634 3220 271 
Q 2806 -91 2034 -91 
Q 1263 -91 848 271 
Q 434 634 434 1313 
Q 434 1759 690 2068 
Q 947 2378 1403 2484 
z
M 1172 3481 
Q 1172 3119 1398 2916 
Q 1625 2713 2034 2713 
Q 2441 2713 2670 2916 
Q 2900 3119 2900 3481 
Q 2900 3844 2670 4047 
Q 2441 4250 2034 4250 
Q 1625 4250 1398 4047 
Q 1172 3844 1172 3481 
z
" transform="scale(0.015625)"/>
       <path id="DejaVuSans-2b" d="M 2944 4013 
L 2944 2272 
L 4684 2272 
L 4684 1741 
L 2944 1741 
L 2944 0 
L 2419 0 
L 2419 1741 
L 678 1741 
L 678 2272 
L 2419 2272 
L 2419 4013 
L 2944 4013 
z
" transform="scale(0.015625)"/>
       <path id="DejaVuSans-2d" d="M 313 2009 
L 1997 2009 
L 1997 1497 
L 313 1497 
L 313 2009 
z
" transform="scale(0.015625)"/>
       <path id="DejaVuSans-33" d="M 2597 2516 
Q 3050 2419 3304 2112 
Q 3559 1806 3559 1356 
Q 3559 666 3084 287 
Q 2609 -91 1734 -91 
Q 1441 -91 1130 -33 
Q 819 25 488 141 
L 488 750 
Q 750 597 1062 519 
Q 1375 441 1716 441 
Q 2309 441 2620 675 
Q 2931 909 2931 1356 
Q 2931 1769 2642 2001 
Q 2353 2234 1838 2234 
L 1294 2234 
L 1294 2753 
L 1863 2753 
Q 2328 2753 2575 2939 
Q 2822 3125 2822 3475 
Q 2822 3834 2567 4026 
Q 2313 4219 1838 4219 
Q 1578 4219 1281 4162 
Q 984 4106 628 3988 
L 628 4550 
Q 988 4650 1302 4700 
Q 1616 4750 1894 4750 
Q 2613 4750 3031 4423 
Q 3450 4097 3450 3541 
Q 3450 3153 3228 2886 
Q 3006 2619 2597 2516 
z
" transform="scale(0.015625)"/>
      </defs>
      <use xlink:href="#DejaVuSans-3b1"/>
      <use xlink:href="#DejaVuSans-3a" x="65.917969"/>
      <use xlink:href="#DejaVuSans-30" x="99.609375"/>
      <use xlink:href="#DejaVuSans-2e" x="163.232422"/>
      <use xlink:href="#DejaVuSans-39" x="195.019531"/>
      <use xlink:href="#DejaVuSans-38" x="258.642578"/>
      <use xlink:href="#DejaVuSans-32" x="322.265625"/>
      <use xlink:href="#DejaVuSans-2b" x="385.888672"/>
      <use xlink:href="#DejaVuSans-2d" x="469.677734"/>
      <use xlink:href="#DejaVuSans-30" x="505.761719"/>
      <use xlink:href="#DejaVuSans-2e" x="569.384766"/>
      <use xlink:href="#DejaVuSans-30" x="601.171875"/>
      <use xlink:href="#DejaVuSans-30" x="664.794922"/>
      <use xlink:href="#DejaVuSans-33" x="728.417969"/>
     </g>
    </g>
   </g>
  </g>
 </g>
 <defs>
  <clipPath id="pc33456da88">
   <rect x="57.6" y="41.472" width="357.12" height="266.112"/>
  </clipPath>
 </defs>
</svg>
