<?xml version="1.0" encoding="utf-8" standalone="no"?>
<!DOCTYPE svg PUBLIC "-//W3C//DTD SVG 1.1//EN"
  "http://www.w3.org/Graphics/SVG/1.1/DTD/svg11.dtd">
<svg xmlns:xlink="http://www.w3.org/1999/xlink" width="460.8pt" height="345.6pt" viewBox="0 0 460.8 345.6" xmlns="http://www.w3.org/2000/svg" version="1.1">
 <metadata>
  <rdf:RDF xmlns:dc="http://purl.org/dc/elements/1.1/" xmlns:cc="http://creativecommons.org/ns#" xmlns:rdf="http://www.w3.org/1999/02/22-rdf-syntax-ns#">
   <cc:Work>
    <dc:type rdf:resource="http://purl.org/dc/dcmitype/StillImage"/>
    <dc:date>2023-09-06T15:22:13.260339</dc:date>
    <dc:format>image/svg+xml</dc:format>
    <dc:creator>
     <cc:Agent>
      <dc:title>Matplotlib v3.7.0, https://matplotlib.org/</dc:title>
     </cc:Agent>
    </dc:creator>
   </cc:Work>
  </rdf:RDF>
 </metadata>
 <defs>
  <style type="text/css">*{stroke-linejoin: round; stroke-linecap: butt}</style>
 </defs>
 <g id="figure_1">
  <g id="patch_1">
   <path d="M 0 345.6 
L 460.8 345.6 
L 460.8 0 
L 0 0 
z
" style="fill: #ffffff"/>
  </g>
  <g id="axes_1">
   <g id="patch_2">
    <path d="M 57.6 307.584 
L 414.72 307.584 
L 414.72 41.472 
L 57.6 41.472 
z
" style="fill: #ffffff"/>
   </g>
   <g id="matplotlib.axis_1">
    <g id="xtick_1">
     <g id="line2d_1">
      <defs>
       <path id="md160baf519" d="M 0 0 
L 0 3.5 
" style="stroke: #000000; stroke-width: 0.8"/>
      </defs>
      <g>
       <use xlink:href="#md160baf519" x="73.832727" y="307.584" style="stroke: #000000; stroke-width: 0.8"/>
      </g>
     </g>
     <g id="text_1">
      <!-- $\mathdefault{10^{0}}$ -->
      <g transform="translate(65.032727 322.182437) scale(0.1 -0.1)">
       <defs>
        <path id="DejaVuSans-31" d="M 794 531 
L 1825 531 
L 1825 4091 
L 703 3866 
L 703 4441 
L 1819 4666 
L 2450 4666 
L 2450 531 
L 3481 531 
L 3481 0 
L 794 0 
L 794 531 
z
" transform="scale(0.015625)"/>
        <path id="DejaVuSans-30" d="M 2034 4250 
Q 1547 4250 1301 3770 
Q 1056 3291 1056 2328 
Q 1056 1369 1301 889 
Q 1547 409 2034 409 
Q 2525 409 2770 889 
Q 3016 1369 3016 2328 
Q 3016 3291 2770 3770 
Q 2525 4250 2034 4250 
z
M 2034 4750 
Q 2819 4750 3233 4129 
Q 3647 3509 3647 2328 
Q 3647 1150 3233 529 
Q 2819 -91 2034 -91 
Q 1250 -91 836 529 
Q 422 1150 422 2328 
Q 422 3509 836 4129 
Q 1250 4750 2034 4750 
z
" transform="scale(0.015625)"/>
       </defs>
       <use xlink:href="#DejaVuSans-31" transform="translate(0 0.765625)"/>
       <use xlink:href="#DejaVuSans-30" transform="translate(63.623047 0.765625)"/>
       <use xlink:href="#DejaVuSans-30" transform="translate(128.203125 39.046875) scale(0.7)"/>
      </g>
     </g>
    </g>
    <g id="xtick_2">
     <g id="line2d_2">
      <g>
       <use xlink:href="#md160baf519" x="236.515038" y="307.584" style="stroke: #000000; stroke-width: 0.8"/>
      </g>
     </g>
     <g id="text_2">
      <!-- $\mathdefault{10^{1}}$ -->
      <g transform="translate(227.715038 322.182437) scale(0.1 -0.1)">
       <use xlink:href="#DejaVuSans-31" transform="translate(0 0.684375)"/>
       <use xlink:href="#DejaVuSans-30" transform="translate(63.623047 0.684375)"/>
       <use xlink:href="#DejaVuSans-31" transform="translate(128.203125 38.965625) scale(0.7)"/>
      </g>
     </g>
    </g>
    <g id="xtick_3">
     <g id="line2d_3">
      <g>
       <use xlink:href="#md160baf519" x="399.197349" y="307.584" style="stroke: #000000; stroke-width: 0.8"/>
      </g>
     </g>
     <g id="text_3">
      <!-- $\mathdefault{10^{2}}$ -->
      <g transform="translate(390.397349 322.182437) scale(0.1 -0.1)">
       <defs>
        <path id="DejaVuSans-32" d="M 1228 531 
L 3431 531 
L 3431 0 
L 469 0 
L 469 531 
Q 828 903 1448 1529 
Q 2069 2156 2228 2338 
Q 2531 2678 2651 2914 
Q 2772 3150 2772 3378 
Q 2772 3750 2511 3984 
Q 2250 4219 1831 4219 
Q 1534 4219 1204 4116 
Q 875 4013 500 3803 
L 500 4441 
Q 881 4594 1212 4672 
Q 1544 4750 1819 4750 
Q 2544 4750 2975 4387 
Q 3406 4025 3406 3419 
Q 3406 3131 3298 2873 
Q 3191 2616 2906 2266 
Q 2828 2175 2409 1742 
Q 1991 1309 1228 531 
z
" transform="scale(0.015625)"/>
       </defs>
       <use xlink:href="#DejaVuSans-31" transform="translate(0 0.765625)"/>
       <use xlink:href="#DejaVuSans-30" transform="translate(63.623047 0.765625)"/>
       <use xlink:href="#DejaVuSans-32" transform="translate(128.203125 39.046875) scale(0.7)"/>
      </g>
     </g>
    </g>
    <g id="xtick_4">
     <g id="line2d_4">
      <defs>
       <path id="m00644fdb83" d="M 0 0 
L 0 2 
" style="stroke: #000000; stroke-width: 0.6"/>
      </defs>
      <g>
       <use xlink:href="#m00644fdb83" x="58.067182" y="307.584" style="stroke: #000000; stroke-width: 0.6"/>
      </g>
     </g>
    </g>
    <g id="xtick_5">
     <g id="line2d_5">
      <g>
       <use xlink:href="#m00644fdb83" x="66.388793" y="307.584" style="stroke: #000000; stroke-width: 0.6"/>
      </g>
     </g>
    </g>
    <g id="xtick_6">
     <g id="line2d_6">
      <g>
       <use xlink:href="#m00644fdb83" x="122.804983" y="307.584" style="stroke: #000000; stroke-width: 0.6"/>
      </g>
     </g>
    </g>
    <g id="xtick_7">
     <g id="line2d_7">
      <g>
       <use xlink:href="#m00644fdb83" x="151.451916" y="307.584" style="stroke: #000000; stroke-width: 0.6"/>
      </g>
     </g>
    </g>
    <g id="xtick_8">
     <g id="line2d_8">
      <g>
       <use xlink:href="#m00644fdb83" x="171.777238" y="307.584" style="stroke: #000000; stroke-width: 0.6"/>
      </g>
     </g>
    </g>
    <g id="xtick_9">
     <g id="line2d_9">
      <g>
       <use xlink:href="#m00644fdb83" x="187.542783" y="307.584" style="stroke: #000000; stroke-width: 0.6"/>
      </g>
     </g>
    </g>
    <g id="xtick_10">
     <g id="line2d_10">
      <g>
       <use xlink:href="#m00644fdb83" x="200.424171" y="307.584" style="stroke: #000000; stroke-width: 0.6"/>
      </g>
     </g>
    </g>
    <g id="xtick_11">
     <g id="line2d_11">
      <g>
       <use xlink:href="#m00644fdb83" x="211.315229" y="307.584" style="stroke: #000000; stroke-width: 0.6"/>
      </g>
     </g>
    </g>
    <g id="xtick_12">
     <g id="line2d_12">
      <g>
       <use xlink:href="#m00644fdb83" x="220.749493" y="307.584" style="stroke: #000000; stroke-width: 0.6"/>
      </g>
     </g>
    </g>
    <g id="xtick_13">
     <g id="line2d_13">
      <g>
       <use xlink:href="#m00644fdb83" x="229.071104" y="307.584" style="stroke: #000000; stroke-width: 0.6"/>
      </g>
     </g>
    </g>
    <g id="xtick_14">
     <g id="line2d_14">
      <g>
       <use xlink:href="#m00644fdb83" x="285.487294" y="307.584" style="stroke: #000000; stroke-width: 0.6"/>
      </g>
     </g>
    </g>
    <g id="xtick_15">
     <g id="line2d_15">
      <g>
       <use xlink:href="#m00644fdb83" x="314.134227" y="307.584" style="stroke: #000000; stroke-width: 0.6"/>
      </g>
     </g>
    </g>
    <g id="xtick_16">
     <g id="line2d_16">
      <g>
       <use xlink:href="#m00644fdb83" x="334.459549" y="307.584" style="stroke: #000000; stroke-width: 0.6"/>
      </g>
     </g>
    </g>
    <g id="xtick_17">
     <g id="line2d_17">
      <g>
       <use xlink:href="#m00644fdb83" x="350.225094" y="307.584" style="stroke: #000000; stroke-width: 0.6"/>
      </g>
     </g>
    </g>
    <g id="xtick_18">
     <g id="line2d_18">
      <g>
       <use xlink:href="#m00644fdb83" x="363.106482" y="307.584" style="stroke: #000000; stroke-width: 0.6"/>
      </g>
     </g>
    </g>
    <g id="xtick_19">
     <g id="line2d_19">
      <g>
       <use xlink:href="#m00644fdb83" x="373.997541" y="307.584" style="stroke: #000000; stroke-width: 0.6"/>
      </g>
     </g>
    </g>
    <g id="xtick_20">
     <g id="line2d_20">
      <g>
       <use xlink:href="#m00644fdb83" x="383.431804" y="307.584" style="stroke: #000000; stroke-width: 0.6"/>
      </g>
     </g>
    </g>
    <g id="xtick_21">
     <g id="line2d_21">
      <g>
       <use xlink:href="#m00644fdb83" x="391.753415" y="307.584" style="stroke: #000000; stroke-width: 0.6"/>
      </g>
     </g>
    </g>
   </g>
   <g id="matplotlib.axis_2">
    <g id="ytick_1">
     <g id="line2d_22">
      <defs>
       <path id="m85e9b27d39" d="M 0 0 
L -3.5 0 
" style="stroke: #000000; stroke-width: 0.8"/>
      </defs>
      <g>
       <use xlink:href="#m85e9b27d39" x="57.6" y="294.455823" style="stroke: #000000; stroke-width: 0.8"/>
      </g>
     </g>
     <g id="text_4">
      <!-- $\mathdefault{10^{0}}$ -->
      <g transform="translate(33 298.255042) scale(0.1 -0.1)">
       <use xlink:href="#DejaVuSans-31" transform="translate(0 0.765625)"/>
       <use xlink:href="#DejaVuSans-30" transform="translate(63.623047 0.765625)"/>
       <use xlink:href="#DejaVuSans-30" transform="translate(128.203125 39.046875) scale(0.7)"/>
      </g>
     </g>
    </g>
    <g id="ytick_2">
     <g id="line2d_23">
      <g>
       <use xlink:href="#m85e9b27d39" x="57.6" y="174.75875" style="stroke: #000000; stroke-width: 0.8"/>
      </g>
     </g>
     <g id="text_5">
      <!-- $\mathdefault{10^{1}}$ -->
      <g transform="translate(33 178.557969) scale(0.1 -0.1)">
       <use xlink:href="#DejaVuSans-31" transform="translate(0 0.684375)"/>
       <use xlink:href="#DejaVuSans-30" transform="translate(63.623047 0.684375)"/>
       <use xlink:href="#DejaVuSans-31" transform="translate(128.203125 38.965625) scale(0.7)"/>
      </g>
     </g>
    </g>
    <g id="ytick_3">
     <g id="line2d_24">
      <g>
       <use xlink:href="#m85e9b27d39" x="57.6" y="55.061677" style="stroke: #000000; stroke-width: 0.8"/>
      </g>
     </g>
     <g id="text_6">
      <!-- $\mathdefault{10^{2}}$ -->
      <g transform="translate(33 58.860896) scale(0.1 -0.1)">
       <use xlink:href="#DejaVuSans-31" transform="translate(0 0.765625)"/>
       <use xlink:href="#DejaVuSans-30" transform="translate(63.623047 0.765625)"/>
       <use xlink:href="#DejaVuSans-32" transform="translate(128.203125 39.046875) scale(0.7)"/>
      </g>
     </g>
    </g>
    <g id="ytick_4">
     <g id="line2d_25">
      <defs>
       <path id="m5dbcda3ff9" d="M 0 0 
L -2 0 
" style="stroke: #000000; stroke-width: 0.6"/>
      </defs>
      <g>
       <use xlink:href="#m5dbcda3ff9" x="57.6" y="306.055668" style="stroke: #000000; stroke-width: 0.6"/>
      </g>
     </g>
    </g>
    <g id="ytick_5">
     <g id="line2d_26">
      <g>
       <use xlink:href="#m5dbcda3ff9" x="57.6" y="299.93286" style="stroke: #000000; stroke-width: 0.6"/>
      </g>
     </g>
    </g>
    <g id="ytick_6">
     <g id="line2d_27">
      <g>
       <use xlink:href="#m5dbcda3ff9" x="57.6" y="258.423413" style="stroke: #000000; stroke-width: 0.6"/>
      </g>
     </g>
    </g>
    <g id="ytick_7">
     <g id="line2d_28">
      <g>
       <use xlink:href="#m5dbcda3ff9" x="57.6" y="237.345805" style="stroke: #000000; stroke-width: 0.6"/>
      </g>
     </g>
    </g>
    <g id="ytick_8">
     <g id="line2d_29">
      <g>
       <use xlink:href="#m5dbcda3ff9" x="57.6" y="222.391004" style="stroke: #000000; stroke-width: 0.6"/>
      </g>
     </g>
    </g>
    <g id="ytick_9">
     <g id="line2d_30">
      <g>
       <use xlink:href="#m5dbcda3ff9" x="57.6" y="210.791159" style="stroke: #000000; stroke-width: 0.6"/>
      </g>
     </g>
    </g>
    <g id="ytick_10">
     <g id="line2d_31">
      <g>
       <use xlink:href="#m5dbcda3ff9" x="57.6" y="201.313396" style="stroke: #000000; stroke-width: 0.6"/>
      </g>
     </g>
    </g>
    <g id="ytick_11">
     <g id="line2d_32">
      <g>
       <use xlink:href="#m5dbcda3ff9" x="57.6" y="193.300061" style="stroke: #000000; stroke-width: 0.6"/>
      </g>
     </g>
    </g>
    <g id="ytick_12">
     <g id="line2d_33">
      <g>
       <use xlink:href="#m5dbcda3ff9" x="57.6" y="186.358595" style="stroke: #000000; stroke-width: 0.6"/>
      </g>
     </g>
    </g>
    <g id="ytick_13">
     <g id="line2d_34">
      <g>
       <use xlink:href="#m5dbcda3ff9" x="57.6" y="180.235788" style="stroke: #000000; stroke-width: 0.6"/>
      </g>
     </g>
    </g>
    <g id="ytick_14">
     <g id="line2d_35">
      <g>
       <use xlink:href="#m5dbcda3ff9" x="57.6" y="138.726341" style="stroke: #000000; stroke-width: 0.6"/>
      </g>
     </g>
    </g>
    <g id="ytick_15">
     <g id="line2d_36">
      <g>
       <use xlink:href="#m5dbcda3ff9" x="57.6" y="117.648732" style="stroke: #000000; stroke-width: 0.6"/>
      </g>
     </g>
    </g>
    <g id="ytick_16">
     <g id="line2d_37">
      <g>
       <use xlink:href="#m5dbcda3ff9" x="57.6" y="102.693931" style="stroke: #000000; stroke-width: 0.6"/>
      </g>
     </g>
    </g>
    <g id="ytick_17">
     <g id="line2d_38">
      <g>
       <use xlink:href="#m5dbcda3ff9" x="57.6" y="91.094087" style="stroke: #000000; stroke-width: 0.6"/>
      </g>
     </g>
    </g>
    <g id="ytick_18">
     <g id="line2d_39">
      <g>
       <use xlink:href="#m5dbcda3ff9" x="57.6" y="81.616323" style="stroke: #000000; stroke-width: 0.6"/>
      </g>
     </g>
    </g>
    <g id="ytick_19">
     <g id="line2d_40">
      <g>
       <use xlink:href="#m5dbcda3ff9" x="57.6" y="73.602988" style="stroke: #000000; stroke-width: 0.6"/>
      </g>
     </g>
    </g>
    <g id="ytick_20">
     <g id="line2d_41">
      <g>
       <use xlink:href="#m5dbcda3ff9" x="57.6" y="66.661522" style="stroke: #000000; stroke-width: 0.6"/>
      </g>
     </g>
    </g>
    <g id="ytick_21">
     <g id="line2d_42">
      <g>
       <use xlink:href="#m5dbcda3ff9" x="57.6" y="60.538715" style="stroke: #000000; stroke-width: 0.6"/>
      </g>
     </g>
    </g>
    <g id="text_7">
     <!-- &lt;d^2&gt; -->
     <g transform="translate(26.920312 193.453) rotate(-90) scale(0.1 -0.1)">
      <defs>
       <path id="DejaVuSans-3c" d="M 4684 3150 
L 1459 2003 
L 4684 863 
L 4684 294 
L 678 1747 
L 678 2266 
L 4684 3719 
L 4684 3150 
z
" transform="scale(0.015625)"/>
       <path id="DejaVuSans-64" d="M 2906 2969 
L 2906 4863 
L 3481 4863 
L 3481 0 
L 2906 0 
L 2906 525 
Q 2725 213 2448 61 
Q 2172 -91 1784 -91 
Q 1150 -91 751 415 
Q 353 922 353 1747 
Q 353 2572 751 3078 
Q 1150 3584 1784 3584 
Q 2172 3584 2448 3432 
Q 2725 3281 2906 2969 
z
M 947 1747 
Q 947 1113 1208 752 
Q 1469 391 1925 391 
Q 2381 391 2643 752 
Q 2906 1113 2906 1747 
Q 2906 2381 2643 2742 
Q 2381 3103 1925 3103 
Q 1469 3103 1208 2742 
Q 947 2381 947 1747 
z
" transform="scale(0.015625)"/>
       <path id="DejaVuSans-5e" d="M 2988 4666 
L 4684 2925 
L 4056 2925 
L 2681 4159 
L 1306 2925 
L 678 2925 
L 2375 4666 
L 2988 4666 
z
" transform="scale(0.015625)"/>
       <path id="DejaVuSans-3e" d="M 678 3150 
L 678 3719 
L 4684 2266 
L 4684 1747 
L 678 294 
L 678 863 
L 3897 2003 
L 678 3150 
z
" transform="scale(0.015625)"/>
      </defs>
      <use xlink:href="#DejaVuSans-3c"/>
      <use xlink:href="#DejaVuSans-64" x="83.789062"/>
      <use xlink:href="#DejaVuSans-5e" x="147.265625"/>
      <use xlink:href="#DejaVuSans-32" x="231.054688"/>
      <use xlink:href="#DejaVuSans-3e" x="294.677734"/>
     </g>
    </g>
   </g>
   <g id="line2d_43">
    <path d="M 2.962696 346.6 
L 73.832727 294.455823 
L 122.804983 258.694629 
L 151.451916 237.933842 
L 171.777238 222.458389 
L 187.542783 210.413857 
L 200.424171 201.059619 
L 211.315229 193.003671 
L 220.749493 185.18926 
L 229.071104 178.964661 
L 236.515038 173.380141 
L 243.248896 169.509606 
L 249.396426 164.142249 
L 255.051606 160.615639 
L 260.287485 157.419512 
L 265.161971 153.13193 
L 269.721749 149.38394 
L 274.005001 146.460722 
L 278.043359 143.9978 
L 281.863318 141.6725 
L 285.487294 138.671566 
L 288.934418 136.543353 
L 292.221151 134.549149 
L 295.361759 131.855173 
L 298.368682 129.529865 
L 301.252839 126.721721 
L 304.023862 124.400915 
L 306.690292 121.422374 
L 309.25974 120.132223 
L 311.739013 118.161773 
L 314.134227 117.021465 
L 316.450894 114.780428 
L 318.694004 113.545644 
L 320.868084 112.084007 
L 322.977257 110.5049 
L 325.025285 108.562741 
L 327.015615 106.510169 
L 328.951408 105.074576 
L 330.835574 103.0389 
L 332.670795 101.256482 
L 334.459549 100.932978 
L 336.204132 100.011305 
L 337.906673 98.920774 
L 339.569151 97.539864 
L 341.193407 96.255775 
L 342.78116 95.955876 
L 344.334014 94.014916 
L 345.853471 92.831423 
L 347.340937 91.372309 
L 348.797732 89.359738 
L 350.225094 88.018518 
L 351.62419 87.497102 
L 352.996117 86.497591 
L 354.341911 85.588622 
L 355.662548 84.118387 
L 356.958952 83.366172 
L 358.231996 82.861375 
L 359.482507 80.9746 
L 360.711269 81.107436 
L 361.919025 80.666749 
L 363.106482 80.586811 
L 364.274311 79.979965 
L 365.42315 79.895794 
L 366.553606 78.290036 
L 367.66626 78.477536 
L 368.761662 77.619228 
L 369.84034 76.091762 
L 370.902796 74.880188 
L 371.949512 73.539112 
L 372.980947 72.785509 
L 373.997541 72.207545 
L 374.999714 71.432106 
L 375.98787 70.568057 
L 376.962396 69.748177 
L 377.923663 69.182342 
L 378.872027 67.625333 
L 379.807829 66.959756 
L 380.731398 65.630489 
L 381.64305 64.589248 
L 382.543088 63.617512 
L 383.431804 63.050439 
L 384.309481 63.259069 
L 385.176388 62.621057 
L 386.032786 62.115419 
L 386.878929 61.917564 
L 387.715057 61.263162 
L 388.541406 59.917631 
L 389.358202 59.331294 
L 390.165662 58.576115 
L 390.963999 58.844262 
L 391.753415 58.862467 
L 392.534108 58.669167 
L 393.306269 57.966244 
L 394.070083 57.280523 
L 394.825726 56.697734 
L 395.573374 56.351543 
L 396.313193 56.402087 
L 397.045345 55.450714 
L 397.769987 55.115207 
L 398.487273 54.371876 
" clip-path="url(#p2fb6dd765c)" style="fill: none; stroke: #1f77b4; stroke-width: 1.5; stroke-linecap: square"/>
    <defs>
     <path id="m4a8a78fb82" d="M 0 3 
C 0.795609 3 1.55874 2.683901 2.12132 2.12132 
C 2.683901 1.55874 3 0.795609 3 0 
C 3 -0.795609 2.683901 -1.55874 2.12132 -2.12132 
C 1.55874 -2.683901 0.795609 -3 0 -3 
C -0.795609 -3 -1.55874 -2.683901 -2.12132 -2.12132 
C -2.683901 -1.55874 -3 -0.795609 -3 0 
C -3 0.795609 -2.683901 1.55874 -2.12132 2.12132 
C -1.55874 2.683901 -0.795609 3 0 3 
z
" style="stroke: #1f77b4"/>
    </defs>
    <g clip-path="url(#p2fb6dd765c)">
     <use xlink:href="#m4a8a78fb82" x="-1" y="349.515641" style="fill: #1f77b4; stroke: #1f77b4"/>
     <use xlink:href="#m4a8a78fb82" x="73.832727" y="294.455823" style="fill: #1f77b4; stroke: #1f77b4"/>
     <use xlink:href="#m4a8a78fb82" x="122.804983" y="258.694629" style="fill: #1f77b4; stroke: #1f77b4"/>
     <use xlink:href="#m4a8a78fb82" x="151.451916" y="237.933842" style="fill: #1f77b4; stroke: #1f77b4"/>
     <use xlink:href="#m4a8a78fb82" x="171.777238" y="222.458389" style="fill: #1f77b4; stroke: #1f77b4"/>
     <use xlink:href="#m4a8a78fb82" x="187.542783" y="210.413857" style="fill: #1f77b4; stroke: #1f77b4"/>
     <use xlink:href="#m4a8a78fb82" x="200.424171" y="201.059619" style="fill: #1f77b4; stroke: #1f77b4"/>
     <use xlink:href="#m4a8a78fb82" x="211.315229" y="193.003671" style="fill: #1f77b4; stroke: #1f77b4"/>
     <use xlink:href="#m4a8a78fb82" x="220.749493" y="185.18926" style="fill: #1f77b4; stroke: #1f77b4"/>
     <use xlink:href="#m4a8a78fb82" x="229.071104" y="178.964661" style="fill: #1f77b4; stroke: #1f77b4"/>
     <use xlink:href="#m4a8a78fb82" x="236.515038" y="173.380141" style="fill: #1f77b4; stroke: #1f77b4"/>
     <use xlink:href="#m4a8a78fb82" x="243.248896" y="169.509606" style="fill: #1f77b4; stroke: #1f77b4"/>
     <use xlink:href="#m4a8a78fb82" x="249.396426" y="164.142249" style="fill: #1f77b4; stroke: #1f77b4"/>
     <use xlink:href="#m4a8a78fb82" x="255.051606" y="160.615639" style="fill: #1f77b4; stroke: #1f77b4"/>
     <use xlink:href="#m4a8a78fb82" x="260.287485" y="157.419512" style="fill: #1f77b4; stroke: #1f77b4"/>
     <use xlink:href="#m4a8a78fb82" x="265.161971" y="153.13193" style="fill: #1f77b4; stroke: #1f77b4"/>
     <use xlink:href="#m4a8a78fb82" x="269.721749" y="149.38394" style="fill: #1f77b4; stroke: #1f77b4"/>
     <use xlink:href="#m4a8a78fb82" x="274.005001" y="146.460722" style="fill: #1f77b4; stroke: #1f77b4"/>
     <use xlink:href="#m4a8a78fb82" x="278.043359" y="143.9978" style="fill: #1f77b4; stroke: #1f77b4"/>
     <use xlink:href="#m4a8a78fb82" x="281.863318" y="141.6725" style="fill: #1f77b4; stroke: #1f77b4"/>
     <use xlink:href="#m4a8a78fb82" x="285.487294" y="138.671566" style="fill: #1f77b4; stroke: #1f77b4"/>
     <use xlink:href="#m4a8a78fb82" x="288.934418" y="136.543353" style="fill: #1f77b4; stroke: #1f77b4"/>
     <use xlink:href="#m4a8a78fb82" x="292.221151" y="134.549149" style="fill: #1f77b4; stroke: #1f77b4"/>
     <use xlink:href="#m4a8a78fb82" x="295.361759" y="131.855173" style="fill: #1f77b4; stroke: #1f77b4"/>
     <use xlink:href="#m4a8a78fb82" x="298.368682" y="129.529865" style="fill: #1f77b4; stroke: #1f77b4"/>
     <use xlink:href="#m4a8a78fb82" x="301.252839" y="126.721721" style="fill: #1f77b4; stroke: #1f77b4"/>
     <use xlink:href="#m4a8a78fb82" x="304.023862" y="124.400915" style="fill: #1f77b4; stroke: #1f77b4"/>
     <use xlink:href="#m4a8a78fb82" x="306.690292" y="121.422374" style="fill: #1f77b4; stroke: #1f77b4"/>
     <use xlink:href="#m4a8a78fb82" x="309.25974" y="120.132223" style="fill: #1f77b4; stroke: #1f77b4"/>
     <use xlink:href="#m4a8a78fb82" x="311.739013" y="118.161773" style="fill: #1f77b4; stroke: #1f77b4"/>
     <use xlink:href="#m4a8a78fb82" x="314.134227" y="117.021465" style="fill: #1f77b4; stroke: #1f77b4"/>
     <use xlink:href="#m4a8a78fb82" x="316.450894" y="114.780428" style="fill: #1f77b4; stroke: #1f77b4"/>
     <use xlink:href="#m4a8a78fb82" x="318.694004" y="113.545644" style="fill: #1f77b4; stroke: #1f77b4"/>
     <use xlink:href="#m4a8a78fb82" x="320.868084" y="112.084007" style="fill: #1f77b4; stroke: #1f77b4"/>
     <use xlink:href="#m4a8a78fb82" x="322.977257" y="110.5049" style="fill: #1f77b4; stroke: #1f77b4"/>
     <use xlink:href="#m4a8a78fb82" x="325.025285" y="108.562741" style="fill: #1f77b4; stroke: #1f77b4"/>
     <use xlink:href="#m4a8a78fb82" x="327.015615" y="106.510169" style="fill: #1f77b4; stroke: #1f77b4"/>
     <use xlink:href="#m4a8a78fb82" x="328.951408" y="105.074576" style="fill: #1f77b4; stroke: #1f77b4"/>
     <use xlink:href="#m4a8a78fb82" x="330.835574" y="103.0389" style="fill: #1f77b4; stroke: #1f77b4"/>
     <use xlink:href="#m4a8a78fb82" x="332.670795" y="101.256482" style="fill: #1f77b4; stroke: #1f77b4"/>
     <use xlink:href="#m4a8a78fb82" x="334.459549" y="100.932978" style="fill: #1f77b4; stroke: #1f77b4"/>
     <use xlink:href="#m4a8a78fb82" x="336.204132" y="100.011305" style="fill: #1f77b4; stroke: #1f77b4"/>
     <use xlink:href="#m4a8a78fb82" x="337.906673" y="98.920774" style="fill: #1f77b4; stroke: #1f77b4"/>
     <use xlink:href="#m4a8a78fb82" x="339.569151" y="97.539864" style="fill: #1f77b4; stroke: #1f77b4"/>
     <use xlink:href="#m4a8a78fb82" x="341.193407" y="96.255775" style="fill: #1f77b4; stroke: #1f77b4"/>
     <use xlink:href="#m4a8a78fb82" x="342.78116" y="95.955876" style="fill: #1f77b4; stroke: #1f77b4"/>
     <use xlink:href="#m4a8a78fb82" x="344.334014" y="94.014916" style="fill: #1f77b4; stroke: #1f77b4"/>
     <use xlink:href="#m4a8a78fb82" x="345.853471" y="92.831423" style="fill: #1f77b4; stroke: #1f77b4"/>
     <use xlink:href="#m4a8a78fb82" x="347.340937" y="91.372309" style="fill: #1f77b4; stroke: #1f77b4"/>
     <use xlink:href="#m4a8a78fb82" x="348.797732" y="89.359738" style="fill: #1f77b4; stroke: #1f77b4"/>
     <use xlink:href="#m4a8a78fb82" x="350.225094" y="88.018518" style="fill: #1f77b4; stroke: #1f77b4"/>
     <use xlink:href="#m4a8a78fb82" x="351.62419" y="87.497102" style="fill: #1f77b4; stroke: #1f77b4"/>
     <use xlink:href="#m4a8a78fb82" x="352.996117" y="86.497591" style="fill: #1f77b4; stroke: #1f77b4"/>
     <use xlink:href="#m4a8a78fb82" x="354.341911" y="85.588622" style="fill: #1f77b4; stroke: #1f77b4"/>
     <use xlink:href="#m4a8a78fb82" x="355.662548" y="84.118387" style="fill: #1f77b4; stroke: #1f77b4"/>
     <use xlink:href="#m4a8a78fb82" x="356.958952" y="83.366172" style="fill: #1f77b4; stroke: #1f77b4"/>
     <use xlink:href="#m4a8a78fb82" x="358.231996" y="82.861375" style="fill: #1f77b4; stroke: #1f77b4"/>
     <use xlink:href="#m4a8a78fb82" x="359.482507" y="80.9746" style="fill: #1f77b4; stroke: #1f77b4"/>
     <use xlink:href="#m4a8a78fb82" x="360.711269" y="81.107436" style="fill: #1f77b4; stroke: #1f77b4"/>
     <use xlink:href="#m4a8a78fb82" x="361.919025" y="80.666749" style="fill: #1f77b4; stroke: #1f77b4"/>
     <use xlink:href="#m4a8a78fb82" x="363.106482" y="80.586811" style="fill: #1f77b4; stroke: #1f77b4"/>
     <use xlink:href="#m4a8a78fb82" x="364.274311" y="79.979965" style="fill: #1f77b4; stroke: #1f77b4"/>
     <use xlink:href="#m4a8a78fb82" x="365.42315" y="79.895794" style="fill: #1f77b4; stroke: #1f77b4"/>
     <use xlink:href="#m4a8a78fb82" x="366.553606" y="78.290036" style="fill: #1f77b4; stroke: #1f77b4"/>
     <use xlink:href="#m4a8a78fb82" x="367.66626" y="78.477536" style="fill: #1f77b4; stroke: #1f77b4"/>
     <use xlink:href="#m4a8a78fb82" x="368.761662" y="77.619228" style="fill: #1f77b4; stroke: #1f77b4"/>
     <use xlink:href="#m4a8a78fb82" x="369.84034" y="76.091762" style="fill: #1f77b4; stroke: #1f77b4"/>
     <use xlink:href="#m4a8a78fb82" x="370.902796" y="74.880188" style="fill: #1f77b4; stroke: #1f77b4"/>
     <use xlink:href="#m4a8a78fb82" x="371.949512" y="73.539112" style="fill: #1f77b4; stroke: #1f77b4"/>
     <use xlink:href="#m4a8a78fb82" x="372.980947" y="72.785509" style="fill: #1f77b4; stroke: #1f77b4"/>
     <use xlink:href="#m4a8a78fb82" x="373.997541" y="72.207545" style="fill: #1f77b4; stroke: #1f77b4"/>
     <use xlink:href="#m4a8a78fb82" x="374.999714" y="71.432106" style="fill: #1f77b4; stroke: #1f77b4"/>
     <use xlink:href="#m4a8a78fb82" x="375.98787" y="70.568057" style="fill: #1f77b4; stroke: #1f77b4"/>
     <use xlink:href="#m4a8a78fb82" x="376.962396" y="69.748177" style="fill: #1f77b4; stroke: #1f77b4"/>
     <use xlink:href="#m4a8a78fb82" x="377.923663" y="69.182342" style="fill: #1f77b4; stroke: #1f77b4"/>
     <use xlink:href="#m4a8a78fb82" x="378.872027" y="67.625333" style="fill: #1f77b4; stroke: #1f77b4"/>
     <use xlink:href="#m4a8a78fb82" x="379.807829" y="66.959756" style="fill: #1f77b4; stroke: #1f77b4"/>
     <use xlink:href="#m4a8a78fb82" x="380.731398" y="65.630489" style="fill: #1f77b4; stroke: #1f77b4"/>
     <use xlink:href="#m4a8a78fb82" x="381.64305" y="64.589248" style="fill: #1f77b4; stroke: #1f77b4"/>
     <use xlink:href="#m4a8a78fb82" x="382.543088" y="63.617512" style="fill: #1f77b4; stroke: #1f77b4"/>
     <use xlink:href="#m4a8a78fb82" x="383.431804" y="63.050439" style="fill: #1f77b4; stroke: #1f77b4"/>
     <use xlink:href="#m4a8a78fb82" x="384.309481" y="63.259069" style="fill: #1f77b4; stroke: #1f77b4"/>
     <use xlink:href="#m4a8a78fb82" x="385.176388" y="62.621057" style="fill: #1f77b4; stroke: #1f77b4"/>
     <use xlink:href="#m4a8a78fb82" x="386.032786" y="62.115419" style="fill: #1f77b4; stroke: #1f77b4"/>
     <use xlink:href="#m4a8a78fb82" x="386.878929" y="61.917564" style="fill: #1f77b4; stroke: #1f77b4"/>
     <use xlink:href="#m4a8a78fb82" x="387.715057" y="61.263162" style="fill: #1f77b4; stroke: #1f77b4"/>
     <use xlink:href="#m4a8a78fb82" x="388.541406" y="59.917631" style="fill: #1f77b4; stroke: #1f77b4"/>
     <use xlink:href="#m4a8a78fb82" x="389.358202" y="59.331294" style="fill: #1f77b4; stroke: #1f77b4"/>
     <use xlink:href="#m4a8a78fb82" x="390.165662" y="58.576115" style="fill: #1f77b4; stroke: #1f77b4"/>
     <use xlink:href="#m4a8a78fb82" x="390.963999" y="58.844262" style="fill: #1f77b4; stroke: #1f77b4"/>
     <use xlink:href="#m4a8a78fb82" x="391.753415" y="58.862467" style="fill: #1f77b4; stroke: #1f77b4"/>
     <use xlink:href="#m4a8a78fb82" x="392.534108" y="58.669167" style="fill: #1f77b4; stroke: #1f77b4"/>
     <use xlink:href="#m4a8a78fb82" x="393.306269" y="57.966244" style="fill: #1f77b4; stroke: #1f77b4"/>
     <use xlink:href="#m4a8a78fb82" x="394.070083" y="57.280523" style="fill: #1f77b4; stroke: #1f77b4"/>
     <use xlink:href="#m4a8a78fb82" x="394.825726" y="56.697734" style="fill: #1f77b4; stroke: #1f77b4"/>
     <use xlink:href="#m4a8a78fb82" x="395.573374" y="56.351543" style="fill: #1f77b4; stroke: #1f77b4"/>
     <use xlink:href="#m4a8a78fb82" x="396.313193" y="56.402087" style="fill: #1f77b4; stroke: #1f77b4"/>
     <use xlink:href="#m4a8a78fb82" x="397.045345" y="55.450714" style="fill: #1f77b4; stroke: #1f77b4"/>
     <use xlink:href="#m4a8a78fb82" x="397.769987" y="55.115207" style="fill: #1f77b4; stroke: #1f77b4"/>
     <use xlink:href="#m4a8a78fb82" x="398.487273" y="54.371876" style="fill: #1f77b4; stroke: #1f77b4"/>
    </g>
   </g>
   <g id="line2d_44">
    <path d="M 4.364947 346.6 
L 73.832727 295.488 
L 122.804983 258.995771 
L 151.451916 237.649185 
L 171.777238 222.503542 
L 187.542783 210.755668 
L 200.424171 201.156956 
L 211.315229 193.041361 
L 220.749493 186.011313 
L 229.071104 179.810371 
L 236.515038 174.263439 
L 243.248896 169.245629 
L 249.396426 164.664727 
L 255.051606 160.450706 
L 260.287485 156.549132 
L 265.161971 152.916854 
L 269.721749 149.519084 
L 274.005001 146.32737 
L 278.043359 143.318142 
L 281.863318 140.471656 
L 285.487294 137.77121 
L 288.934418 135.202547 
L 292.221151 132.7534 
L 295.361759 130.413141 
L 298.368682 128.172498 
L 301.252839 126.023336 
L 304.023862 123.958477 
L 306.690292 121.971556 
L 309.25974 120.056903 
L 311.739013 118.209445 
L 314.134227 116.424625 
L 316.450894 114.698334 
L 318.694004 113.026855 
L 320.868084 111.406815 
L 322.977257 109.835141 
L 325.025285 108.309029 
L 327.015615 106.825913 
L 328.951408 105.383435 
L 330.835574 103.979427 
L 332.670795 102.611892 
L 334.459549 101.278981 
L 336.204132 99.978985 
L 337.906673 98.710318 
L 339.569151 97.471504 
L 341.193407 96.261171 
L 342.78116 95.078039 
L 344.334014 93.920912 
L 345.853471 92.788672 
L 347.340937 91.680269 
L 348.797732 90.594723 
L 350.225094 89.531107 
L 351.62419 88.488555 
L 352.996117 87.466248 
L 354.341911 86.463415 
L 355.662548 85.479327 
L 356.958952 84.513297 
L 358.231996 83.564674 
L 359.482507 82.632842 
L 360.711269 81.717216 
L 361.919025 80.817243 
L 363.106482 79.932396 
L 364.274311 79.062175 
L 365.42315 78.206105 
L 366.553606 77.363732 
L 367.66626 76.534626 
L 368.761662 75.718375 
L 369.84034 74.914586 
L 370.902796 74.122884 
L 371.949512 73.342912 
L 372.980947 72.574327 
L 373.997541 71.8168 
L 374.999714 71.07002 
L 375.98787 70.333684 
L 376.962396 69.607505 
L 377.923663 68.891206 
L 378.872027 68.184522 
L 379.807829 67.487198 
L 380.731398 66.79899 
L 381.64305 66.119663 
L 382.543088 65.448989 
L 383.431804 64.786752 
L 384.309481 64.132742 
L 385.176388 63.486756 
L 386.032786 62.848601 
L 386.878929 62.218089 
L 387.715057 61.595038 
L 388.541406 60.979275 
L 389.358202 60.37063 
L 390.165662 59.768942 
L 390.963999 59.174053 
L 391.753415 58.58581 
L 392.534108 58.004068 
L 393.306269 57.428683 
L 394.070083 56.859519 
L 394.825726 56.296443 
L 395.573374 55.739325 
L 396.313193 55.18804 
L 397.045345 54.642469 
L 397.769987 54.102494 
L 398.487273 53.568 
" clip-path="url(#p2fb6dd765c)" style="fill: none; stroke-dasharray: 5.55,2.4; stroke-dashoffset: 0; stroke: #ff7f0e; stroke-width: 1.5"/>
   </g>
   <g id="patch_3">
    <path d="M 57.6 307.584 
L 57.6 41.472 
" style="fill: none; stroke: #000000; stroke-width: 0.8; stroke-linejoin: miter; stroke-linecap: square"/>
   </g>
   <g id="patch_4">
    <path d="M 414.72 307.584 
L 414.72 41.472 
" style="fill: none; stroke: #000000; stroke-width: 0.8; stroke-linejoin: miter; stroke-linecap: square"/>
   </g>
   <g id="patch_5">
    <path d="M 57.6 307.584 
L 414.72 307.584 
" style="fill: none; stroke: #000000; stroke-width: 0.8; stroke-linejoin: miter; stroke-linecap: square"/>
   </g>
   <g id="patch_6">
    <path d="M 57.6 41.472 
L 414.72 41.472 
" style="fill: none; stroke: #000000; stroke-width: 0.8; stroke-linejoin: miter; stroke-linecap: square"/>
   </g>
   <g id="legend_1">
    <g id="patch_7">
     <path d="M 64.6 64.150125 
L 175.804688 64.150125 
Q 177.804688 64.150125 177.804688 62.150125 
L 177.804688 48.472 
Q 177.804688 46.472 175.804688 46.472 
L 64.6 46.472 
Q 62.6 46.472 62.6 48.472 
L 62.6 62.150125 
Q 62.6 64.150125 64.6 64.150125 
z
" style="fill: #ffffff; opacity: 0.8; stroke: #cccccc; stroke-linejoin: miter"/>
    </g>
    <g id="line2d_45">
     <path d="M 66.6 54.570438 
L 76.6 54.570438 
L 86.6 54.570438 
" style="fill: none; stroke-dasharray: 5.55,2.4; stroke-dashoffset: 0; stroke: #ff7f0e; stroke-width: 1.5"/>
    </g>
    <g id="text_8">
     <!-- α:1.013+-0.002 -->
     <g transform="translate(94.6 58.070438) scale(0.1 -0.1)">
      <defs>
       <path id="DejaVuSans-3b1" d="M 2644 1628 
L 2506 2350 
Q 2366 3091 1809 3091 
Q 1391 3091 1200 2747 
Q 959 2316 959 1747 
Q 959 1059 1194 731 
Q 1431 397 1809 397 
Q 2228 397 2453 1063 
L 2644 1628 
z
M 2966 2584 
L 3275 3500 
L 3788 3500 
L 3147 1603 
L 3272 919 
Q 3300 766 3409 638 
Q 3538 488 3638 488 
L 3913 488 
L 3913 0 
L 3569 0 
Q 3275 0 3013 263 
Q 2884 394 2831 669 
Q 2688 322 2394 50 
Q 2256 -78 1809 -78 
Q 1075 -78 719 397 
Q 353 888 353 1747 
Q 353 2666 750 3097 
Q 1191 3578 1809 3578 
Q 2781 3578 2966 2584 
z
" transform="scale(0.015625)"/>
       <path id="DejaVuSans-3a" d="M 750 794 
L 1409 794 
L 1409 0 
L 750 0 
L 750 794 
z
M 750 3309 
L 1409 3309 
L 1409 2516 
L 750 2516 
L 750 3309 
z
" transform="scale(0.015625)"/>
       <path id="DejaVuSans-2e" d="M 684 794 
L 1344 794 
L 1344 0 
L 684 0 
L 684 794 
z
" transform="scale(0.015625)"/>
       <path id="DejaVuSans-33" d="M 2597 2516 
Q 3050 2419 3304 2112 
Q 3559 1806 3559 1356 
Q 3559 666 3084 287 
Q 2609 -91 1734 -91 
Q 1441 -91 1130 -33 
Q 819 25 488 141 
L 488 750 
Q 750 597 1062 519 
Q 1375 441 1716 441 
Q 2309 441 2620 675 
Q 2931 909 2931 1356 
Q 2931 1769 2642 2001 
Q 2353 2234 1838 2234 
L 1294 2234 
L 1294 2753 
L 1863 2753 
Q 2328 2753 2575 2939 
Q 2822 3125 2822 3475 
Q 2822 3834 2567 4026 
Q 2313 4219 1838 4219 
Q 1578 4219 1281 4162 
Q 984 4106 628 3988 
L 628 4550 
Q 988 4650 1302 4700 
Q 1616 4750 1894 4750 
Q 2613 4750 3031 4423 
Q 3450 4097 3450 3541 
Q 3450 3153 3228 2886 
Q 3006 2619 2597 2516 
z
" transform="scale(0.015625)"/>
       <path id="DejaVuSans-2b" d="M 2944 4013 
L 2944 2272 
L 4684 2272 
L 4684 1741 
L 2944 1741 
L 2944 0 
L 2419 0 
L 2419 1741 
L 678 1741 
L 678 2272 
L 2419 2272 
L 2419 4013 
L 2944 4013 
z
" transform="scale(0.015625)"/>
       <path id="DejaVuSans-2d" d="M 313 2009 
L 1997 2009 
L 1997 1497 
L 313 1497 
L 313 2009 
z
" transform="scale(0.015625)"/>
      </defs>
      <use xlink:href="#DejaVuSans-3b1"/>
      <use xlink:href="#DejaVuSans-3a" x="65.917969"/>
      <use xlink:href="#DejaVuSans-31" x="99.609375"/>
      <use xlink:href="#DejaVuSans-2e" x="163.232422"/>
      <use xlink:href="#DejaVuSans-30" x="195.019531"/>
      <use xlink:href="#DejaVuSans-31" x="258.642578"/>
      <use xlink:href="#DejaVuSans-33" x="322.265625"/>
      <use xlink:href="#DejaVuSans-2b" x="385.888672"/>
      <use xlink:href="#DejaVuSans-2d" x="469.677734"/>
      <use xlink:href="#DejaVuSans-30" x="505.761719"/>
      <use xlink:href="#DejaVuSans-2e" x="569.384766"/>
      <use xlink:href="#DejaVuSans-30" x="601.171875"/>
      <use xlink:href="#DejaVuSans-30" x="664.794922"/>
      <use xlink:href="#DejaVuSans-32" x="728.417969"/>
     </g>
    </g>
   </g>
  </g>
 </g>
 <defs>
  <clipPath id="p2fb6dd765c">
   <rect x="57.6" y="41.472" width="357.12" height="266.112"/>
  </clipPath>
 </defs>
</svg>
