<?xml version="1.0" encoding="utf-8" standalone="no"?>
<!DOCTYPE svg PUBLIC "-//W3C//DTD SVG 1.1//EN"
  "http://www.w3.org/Graphics/SVG/1.1/DTD/svg11.dtd">
<svg xmlns:xlink="http://www.w3.org/1999/xlink" width="460.8pt" height="345.6pt" viewBox="0 0 460.8 345.6" xmlns="http://www.w3.org/2000/svg" version="1.1">
 <metadata>
  <rdf:RDF xmlns:dc="http://purl.org/dc/elements/1.1/" xmlns:cc="http://creativecommons.org/ns#" xmlns:rdf="http://www.w3.org/1999/02/22-rdf-syntax-ns#">
   <cc:Work>
    <dc:type rdf:resource="http://purl.org/dc/dcmitype/StillImage"/>
    <dc:date>2023-09-06T15:34:43.394176</dc:date>
    <dc:format>image/svg+xml</dc:format>
    <dc:creator>
     <cc:Agent>
      <dc:title>Matplotlib v3.7.0, https://matplotlib.org/</dc:title>
     </cc:Agent>
    </dc:creator>
   </cc:Work>
  </rdf:RDF>
 </metadata>
 <defs>
  <style type="text/css">*{stroke-linejoin: round; stroke-linecap: butt}</style>
 </defs>
 <g id="figure_1">
  <g id="patch_1">
   <path d="M 0 345.6 
L 460.8 345.6 
L 460.8 0 
L 0 0 
z
" style="fill: #ffffff"/>
  </g>
  <g id="axes_1">
   <g id="patch_2">
    <path d="M 57.6 307.584 
L 414.72 307.584 
L 414.72 41.472 
L 57.6 41.472 
z
" style="fill: #ffffff"/>
   </g>
   <g id="matplotlib.axis_1">
    <g id="xtick_1">
     <g id="line2d_1">
      <defs>
       <path id="mb2e569660f" d="M 0 0 
L 0 3.5 
" style="stroke: #000000; stroke-width: 0.8"/>
      </defs>
      <g>
       <use xlink:href="#mb2e569660f" x="73.832727" y="307.584" style="stroke: #000000; stroke-width: 0.8"/>
      </g>
     </g>
     <g id="text_1">
      <!-- $\mathdefault{10^{0}}$ -->
      <g transform="translate(65.032727 322.182437) scale(0.1 -0.1)">
       <defs>
        <path id="DejaVuSans-31" d="M 794 531 
L 1825 531 
L 1825 4091 
L 703 3866 
L 703 4441 
L 1819 4666 
L 2450 4666 
L 2450 531 
L 3481 531 
L 3481 0 
L 794 0 
L 794 531 
z
" transform="scale(0.015625)"/>
        <path id="DejaVuSans-30" d="M 2034 4250 
Q 1547 4250 1301 3770 
Q 1056 3291 1056 2328 
Q 1056 1369 1301 889 
Q 1547 409 2034 409 
Q 2525 409 2770 889 
Q 3016 1369 3016 2328 
Q 3016 3291 2770 3770 
Q 2525 4250 2034 4250 
z
M 2034 4750 
Q 2819 4750 3233 4129 
Q 3647 3509 3647 2328 
Q 3647 1150 3233 529 
Q 2819 -91 2034 -91 
Q 1250 -91 836 529 
Q 422 1150 422 2328 
Q 422 3509 836 4129 
Q 1250 4750 2034 4750 
z
" transform="scale(0.015625)"/>
       </defs>
       <use xlink:href="#DejaVuSans-31" transform="translate(0 0.765625)"/>
       <use xlink:href="#DejaVuSans-30" transform="translate(63.623047 0.765625)"/>
       <use xlink:href="#DejaVuSans-30" transform="translate(128.203125 39.046875) scale(0.7)"/>
      </g>
     </g>
    </g>
    <g id="xtick_2">
     <g id="line2d_2">
      <g>
       <use xlink:href="#mb2e569660f" x="236.515038" y="307.584" style="stroke: #000000; stroke-width: 0.8"/>
      </g>
     </g>
     <g id="text_2">
      <!-- $\mathdefault{10^{1}}$ -->
      <g transform="translate(227.715038 322.182437) scale(0.1 -0.1)">
       <use xlink:href="#DejaVuSans-31" transform="translate(0 0.684375)"/>
       <use xlink:href="#DejaVuSans-30" transform="translate(63.623047 0.684375)"/>
       <use xlink:href="#DejaVuSans-31" transform="translate(128.203125 38.965625) scale(0.7)"/>
      </g>
     </g>
    </g>
    <g id="xtick_3">
     <g id="line2d_3">
      <g>
       <use xlink:href="#mb2e569660f" x="399.197349" y="307.584" style="stroke: #000000; stroke-width: 0.8"/>
      </g>
     </g>
     <g id="text_3">
      <!-- $\mathdefault{10^{2}}$ -->
      <g transform="translate(390.397349 322.182437) scale(0.1 -0.1)">
       <defs>
        <path id="DejaVuSans-32" d="M 1228 531 
L 3431 531 
L 3431 0 
L 469 0 
L 469 531 
Q 828 903 1448 1529 
Q 2069 2156 2228 2338 
Q 2531 2678 2651 2914 
Q 2772 3150 2772 3378 
Q 2772 3750 2511 3984 
Q 2250 4219 1831 4219 
Q 1534 4219 1204 4116 
Q 875 4013 500 3803 
L 500 4441 
Q 881 4594 1212 4672 
Q 1544 4750 1819 4750 
Q 2544 4750 2975 4387 
Q 3406 4025 3406 3419 
Q 3406 3131 3298 2873 
Q 3191 2616 2906 2266 
Q 2828 2175 2409 1742 
Q 1991 1309 1228 531 
z
" transform="scale(0.015625)"/>
       </defs>
       <use xlink:href="#DejaVuSans-31" transform="translate(0 0.765625)"/>
       <use xlink:href="#DejaVuSans-30" transform="translate(63.623047 0.765625)"/>
       <use xlink:href="#DejaVuSans-32" transform="translate(128.203125 39.046875) scale(0.7)"/>
      </g>
     </g>
    </g>
    <g id="xtick_4">
     <g id="line2d_4">
      <defs>
       <path id="ma91ed526d5" d="M 0 0 
L 0 2 
" style="stroke: #000000; stroke-width: 0.6"/>
      </defs>
      <g>
       <use xlink:href="#ma91ed526d5" x="58.067182" y="307.584" style="stroke: #000000; stroke-width: 0.6"/>
      </g>
     </g>
    </g>
    <g id="xtick_5">
     <g id="line2d_5">
      <g>
       <use xlink:href="#ma91ed526d5" x="66.388793" y="307.584" style="stroke: #000000; stroke-width: 0.6"/>
      </g>
     </g>
    </g>
    <g id="xtick_6">
     <g id="line2d_6">
      <g>
       <use xlink:href="#ma91ed526d5" x="122.804983" y="307.584" style="stroke: #000000; stroke-width: 0.6"/>
      </g>
     </g>
    </g>
    <g id="xtick_7">
     <g id="line2d_7">
      <g>
       <use xlink:href="#ma91ed526d5" x="151.451916" y="307.584" style="stroke: #000000; stroke-width: 0.6"/>
      </g>
     </g>
    </g>
    <g id="xtick_8">
     <g id="line2d_8">
      <g>
       <use xlink:href="#ma91ed526d5" x="171.777238" y="307.584" style="stroke: #000000; stroke-width: 0.6"/>
      </g>
     </g>
    </g>
    <g id="xtick_9">
     <g id="line2d_9">
      <g>
       <use xlink:href="#ma91ed526d5" x="187.542783" y="307.584" style="stroke: #000000; stroke-width: 0.6"/>
      </g>
     </g>
    </g>
    <g id="xtick_10">
     <g id="line2d_10">
      <g>
       <use xlink:href="#ma91ed526d5" x="200.424171" y="307.584" style="stroke: #000000; stroke-width: 0.6"/>
      </g>
     </g>
    </g>
    <g id="xtick_11">
     <g id="line2d_11">
      <g>
       <use xlink:href="#ma91ed526d5" x="211.315229" y="307.584" style="stroke: #000000; stroke-width: 0.6"/>
      </g>
     </g>
    </g>
    <g id="xtick_12">
     <g id="line2d_12">
      <g>
       <use xlink:href="#ma91ed526d5" x="220.749493" y="307.584" style="stroke: #000000; stroke-width: 0.6"/>
      </g>
     </g>
    </g>
    <g id="xtick_13">
     <g id="line2d_13">
      <g>
       <use xlink:href="#ma91ed526d5" x="229.071104" y="307.584" style="stroke: #000000; stroke-width: 0.6"/>
      </g>
     </g>
    </g>
    <g id="xtick_14">
     <g id="line2d_14">
      <g>
       <use xlink:href="#ma91ed526d5" x="285.487294" y="307.584" style="stroke: #000000; stroke-width: 0.6"/>
      </g>
     </g>
    </g>
    <g id="xtick_15">
     <g id="line2d_15">
      <g>
       <use xlink:href="#ma91ed526d5" x="314.134227" y="307.584" style="stroke: #000000; stroke-width: 0.6"/>
      </g>
     </g>
    </g>
    <g id="xtick_16">
     <g id="line2d_16">
      <g>
       <use xlink:href="#ma91ed526d5" x="334.459549" y="307.584" style="stroke: #000000; stroke-width: 0.6"/>
      </g>
     </g>
    </g>
    <g id="xtick_17">
     <g id="line2d_17">
      <g>
       <use xlink:href="#ma91ed526d5" x="350.225094" y="307.584" style="stroke: #000000; stroke-width: 0.6"/>
      </g>
     </g>
    </g>
    <g id="xtick_18">
     <g id="line2d_18">
      <g>
       <use xlink:href="#ma91ed526d5" x="363.106482" y="307.584" style="stroke: #000000; stroke-width: 0.6"/>
      </g>
     </g>
    </g>
    <g id="xtick_19">
     <g id="line2d_19">
      <g>
       <use xlink:href="#ma91ed526d5" x="373.997541" y="307.584" style="stroke: #000000; stroke-width: 0.6"/>
      </g>
     </g>
    </g>
    <g id="xtick_20">
     <g id="line2d_20">
      <g>
       <use xlink:href="#ma91ed526d5" x="383.431804" y="307.584" style="stroke: #000000; stroke-width: 0.6"/>
      </g>
     </g>
    </g>
    <g id="xtick_21">
     <g id="line2d_21">
      <g>
       <use xlink:href="#ma91ed526d5" x="391.753415" y="307.584" style="stroke: #000000; stroke-width: 0.6"/>
      </g>
     </g>
    </g>
   </g>
   <g id="matplotlib.axis_2">
    <g id="ytick_1">
     <g id="line2d_22">
      <defs>
       <path id="me9dfffb5be" d="M 0 0 
L -3.5 0 
" style="stroke: #000000; stroke-width: 0.8"/>
      </defs>
      <g>
       <use xlink:href="#me9dfffb5be" x="57.6" y="295.488" style="stroke: #000000; stroke-width: 0.8"/>
      </g>
     </g>
     <g id="text_4">
      <!-- $\mathdefault{10^{0}}$ -->
      <g transform="translate(33 299.287219) scale(0.1 -0.1)">
       <use xlink:href="#DejaVuSans-31" transform="translate(0 0.765625)"/>
       <use xlink:href="#DejaVuSans-30" transform="translate(63.623047 0.765625)"/>
       <use xlink:href="#DejaVuSans-30" transform="translate(128.203125 39.046875) scale(0.7)"/>
      </g>
     </g>
    </g>
    <g id="ytick_2">
     <g id="line2d_23">
      <g>
       <use xlink:href="#me9dfffb5be" x="57.6" y="173.957105" style="stroke: #000000; stroke-width: 0.8"/>
      </g>
     </g>
     <g id="text_5">
      <!-- $\mathdefault{10^{1}}$ -->
      <g transform="translate(33 177.756324) scale(0.1 -0.1)">
       <use xlink:href="#DejaVuSans-31" transform="translate(0 0.684375)"/>
       <use xlink:href="#DejaVuSans-30" transform="translate(63.623047 0.684375)"/>
       <use xlink:href="#DejaVuSans-31" transform="translate(128.203125 38.965625) scale(0.7)"/>
      </g>
     </g>
    </g>
    <g id="ytick_3">
     <g id="line2d_24">
      <g>
       <use xlink:href="#me9dfffb5be" x="57.6" y="52.42621" style="stroke: #000000; stroke-width: 0.8"/>
      </g>
     </g>
     <g id="text_6">
      <!-- $\mathdefault{10^{2}}$ -->
      <g transform="translate(33 56.225429) scale(0.1 -0.1)">
       <use xlink:href="#DejaVuSans-31" transform="translate(0 0.765625)"/>
       <use xlink:href="#DejaVuSans-30" transform="translate(63.623047 0.765625)"/>
       <use xlink:href="#DejaVuSans-32" transform="translate(128.203125 39.046875) scale(0.7)"/>
      </g>
     </g>
    </g>
    <g id="ytick_4">
     <g id="line2d_25">
      <defs>
       <path id="m533d47d833" d="M 0 0 
L -2 0 
" style="stroke: #000000; stroke-width: 0.6"/>
      </defs>
      <g>
       <use xlink:href="#m533d47d833" x="57.6" y="307.265561" style="stroke: #000000; stroke-width: 0.6"/>
      </g>
     </g>
    </g>
    <g id="ytick_5">
     <g id="line2d_26">
      <g>
       <use xlink:href="#m533d47d833" x="57.6" y="301.048949" style="stroke: #000000; stroke-width: 0.6"/>
      </g>
     </g>
    </g>
    <g id="ytick_6">
     <g id="line2d_27">
      <g>
       <use xlink:href="#m533d47d833" x="57.6" y="258.903555" style="stroke: #000000; stroke-width: 0.6"/>
      </g>
     </g>
    </g>
    <g id="ytick_7">
     <g id="line2d_28">
      <g>
       <use xlink:href="#m533d47d833" x="57.6" y="237.503027" style="stroke: #000000; stroke-width: 0.6"/>
      </g>
     </g>
    </g>
    <g id="ytick_8">
     <g id="line2d_29">
      <g>
       <use xlink:href="#m533d47d833" x="57.6" y="222.31911" style="stroke: #000000; stroke-width: 0.6"/>
      </g>
     </g>
    </g>
    <g id="ytick_9">
     <g id="line2d_30">
      <g>
       <use xlink:href="#m533d47d833" x="57.6" y="210.54155" style="stroke: #000000; stroke-width: 0.6"/>
      </g>
     </g>
    </g>
    <g id="ytick_10">
     <g id="line2d_31">
      <g>
       <use xlink:href="#m533d47d833" x="57.6" y="200.918582" style="stroke: #000000; stroke-width: 0.6"/>
      </g>
     </g>
    </g>
    <g id="ytick_11">
     <g id="line2d_32">
      <g>
       <use xlink:href="#m533d47d833" x="57.6" y="192.782479" style="stroke: #000000; stroke-width: 0.6"/>
      </g>
     </g>
    </g>
    <g id="ytick_12">
     <g id="line2d_33">
      <g>
       <use xlink:href="#m533d47d833" x="57.6" y="185.734666" style="stroke: #000000; stroke-width: 0.6"/>
      </g>
     </g>
    </g>
    <g id="ytick_13">
     <g id="line2d_34">
      <g>
       <use xlink:href="#m533d47d833" x="57.6" y="179.518054" style="stroke: #000000; stroke-width: 0.6"/>
      </g>
     </g>
    </g>
    <g id="ytick_14">
     <g id="line2d_35">
      <g>
       <use xlink:href="#m533d47d833" x="57.6" y="137.37266" style="stroke: #000000; stroke-width: 0.6"/>
      </g>
     </g>
    </g>
    <g id="ytick_15">
     <g id="line2d_36">
      <g>
       <use xlink:href="#m533d47d833" x="57.6" y="115.972132" style="stroke: #000000; stroke-width: 0.6"/>
      </g>
     </g>
    </g>
    <g id="ytick_16">
     <g id="line2d_37">
      <g>
       <use xlink:href="#m533d47d833" x="57.6" y="100.788215" style="stroke: #000000; stroke-width: 0.6"/>
      </g>
     </g>
    </g>
    <g id="ytick_17">
     <g id="line2d_38">
      <g>
       <use xlink:href="#m533d47d833" x="57.6" y="89.010655" style="stroke: #000000; stroke-width: 0.6"/>
      </g>
     </g>
    </g>
    <g id="ytick_18">
     <g id="line2d_39">
      <g>
       <use xlink:href="#m533d47d833" x="57.6" y="79.387687" style="stroke: #000000; stroke-width: 0.6"/>
      </g>
     </g>
    </g>
    <g id="ytick_19">
     <g id="line2d_40">
      <g>
       <use xlink:href="#m533d47d833" x="57.6" y="71.251584" style="stroke: #000000; stroke-width: 0.6"/>
      </g>
     </g>
    </g>
    <g id="ytick_20">
     <g id="line2d_41">
      <g>
       <use xlink:href="#m533d47d833" x="57.6" y="64.20377" style="stroke: #000000; stroke-width: 0.6"/>
      </g>
     </g>
    </g>
    <g id="ytick_21">
     <g id="line2d_42">
      <g>
       <use xlink:href="#m533d47d833" x="57.6" y="57.987159" style="stroke: #000000; stroke-width: 0.6"/>
      </g>
     </g>
    </g>
    <g id="text_7">
     <!-- &lt;d^2&gt; -->
     <g transform="translate(26.920312 193.453) rotate(-90) scale(0.1 -0.1)">
      <defs>
       <path id="DejaVuSans-3c" d="M 4684 3150 
L 1459 2003 
L 4684 863 
L 4684 294 
L 678 1747 
L 678 2266 
L 4684 3719 
L 4684 3150 
z
" transform="scale(0.015625)"/>
       <path id="DejaVuSans-64" d="M 2906 2969 
L 2906 4863 
L 3481 4863 
L 3481 0 
L 2906 0 
L 2906 525 
Q 2725 213 2448 61 
Q 2172 -91 1784 -91 
Q 1150 -91 751 415 
Q 353 922 353 1747 
Q 353 2572 751 3078 
Q 1150 3584 1784 3584 
Q 2172 3584 2448 3432 
Q 2725 3281 2906 2969 
z
M 947 1747 
Q 947 1113 1208 752 
Q 1469 391 1925 391 
Q 2381 391 2643 752 
Q 2906 1113 2906 1747 
Q 2906 2381 2643 2742 
Q 2381 3103 1925 3103 
Q 1469 3103 1208 2742 
Q 947 2381 947 1747 
z
" transform="scale(0.015625)"/>
       <path id="DejaVuSans-5e" d="M 2988 4666 
L 4684 2925 
L 4056 2925 
L 2681 4159 
L 1306 2925 
L 678 2925 
L 2375 4666 
L 2988 4666 
z
" transform="scale(0.015625)"/>
       <path id="DejaVuSans-3e" d="M 678 3150 
L 678 3719 
L 4684 2266 
L 4684 1747 
L 678 294 
L 678 863 
L 3897 2003 
L 678 3150 
z
" transform="scale(0.015625)"/>
      </defs>
      <use xlink:href="#DejaVuSans-3c"/>
      <use xlink:href="#DejaVuSans-64" x="83.789062"/>
      <use xlink:href="#DejaVuSans-5e" x="147.265625"/>
      <use xlink:href="#DejaVuSans-32" x="231.054688"/>
      <use xlink:href="#DejaVuSans-3e" x="294.677734"/>
     </g>
    </g>
   </g>
   <g id="line2d_43">
    <path d="M 5.41376 346.6 
L 73.832727 295.488 
L 122.804983 259.313487 
L 151.451916 238.115589 
L 171.777238 222.812484 
L 187.542783 210.692406 
L 200.424171 200.762446 
L 211.315229 191.860788 
L 220.749493 185.529821 
L 229.071104 179.519721 
L 236.515038 173.241594 
L 243.248896 169.019644 
L 249.396426 164.88118 
L 255.051606 161.490281 
L 260.287485 157.122178 
L 265.161971 153.491583 
L 269.721749 150.280943 
L 274.005001 146.065669 
L 278.043359 142.795456 
L 281.863318 139.445684 
L 285.487294 136.236921 
L 288.934418 132.217494 
L 292.221151 129.745139 
L 295.361759 127.579712 
L 298.368682 125.731247 
L 301.252839 123.094753 
L 304.023862 121.773526 
L 306.690292 120.224901 
L 309.25974 119.29683 
L 311.739013 116.887979 
L 314.134227 115.627558 
L 316.450894 114.021655 
L 318.694004 111.858737 
L 320.868084 110.769488 
L 322.977257 109.253828 
L 325.025285 107.500182 
L 327.015615 106.005665 
L 328.951408 104.170817 
L 330.835574 102.696276 
L 332.670795 101.648339 
L 334.459549 100.638979 
L 336.204132 99.924759 
L 337.906673 98.611214 
L 339.569151 96.287629 
L 341.193407 96.005483 
L 342.78116 94.619774 
L 344.334014 93.200795 
L 345.853471 93.345166 
L 347.340937 92.138278 
L 348.797732 90.596498 
L 350.225094 89.140221 
L 351.62419 87.64849 
L 352.996117 86.789112 
L 354.341911 84.497626 
L 355.662548 82.705643 
L 356.958952 81.785314 
L 358.231996 81.339895 
L 359.482507 81.31532 
L 360.711269 81.171849 
L 361.919025 80.811607 
L 363.106482 79.455065 
L 364.274311 78.307501 
L 365.42315 77.851275 
L 366.553606 76.665086 
L 367.66626 76.038214 
L 368.761662 74.564628 
L 369.84034 73.129109 
L 370.902796 71.680863 
L 371.949512 71.250902 
L 372.980947 71.356941 
L 373.997541 69.805874 
L 374.999714 69.408162 
L 375.98787 68.943792 
L 376.962396 69.048546 
L 377.923663 68.891601 
L 378.872027 67.853732 
L 379.807829 67.976202 
L 380.731398 67.748382 
L 381.64305 67.021115 
L 382.543088 66.585821 
L 383.431804 65.141083 
L 384.309481 64.642941 
L 385.176388 63.675102 
L 386.032786 63.052068 
L 386.878929 62.762446 
L 387.715057 62.161154 
L 388.541406 61.760376 
L 389.358202 61.294645 
L 390.165662 60.841679 
L 390.963999 60.465966 
L 391.753415 60.919079 
L 392.534108 59.592453 
L 393.306269 59.518297 
L 394.070083 59.078745 
L 394.825726 58.197572 
L 395.573374 56.985509 
L 396.313193 57.865954 
L 397.045345 57.668072 
L 397.769987 57.810208 
L 398.487273 57.420951 
" clip-path="url(#p4d625bb7ee)" style="fill: none; stroke: #1f77b4; stroke-width: 1.5; stroke-linecap: square"/>
    <defs>
     <path id="m85ed111e0b" d="M 0 3 
C 0.795609 3 1.55874 2.683901 2.12132 2.12132 
C 2.683901 1.55874 3 0.795609 3 0 
C 3 -0.795609 2.683901 -1.55874 2.12132 -2.12132 
C 1.55874 -2.683901 0.795609 -3 0 -3 
C -0.795609 -3 -1.55874 -2.683901 -2.12132 -2.12132 
C -2.683901 -1.55874 -3 -0.795609 -3 0 
C -3 0.795609 -2.683901 1.55874 -2.12132 2.12132 
C -1.55874 2.683901 -0.795609 3 0 3 
z
" style="stroke: #1f77b4"/>
    </defs>
    <g clip-path="url(#p4d625bb7ee)">
     <use xlink:href="#m85ed111e0b" x="-1" y="351.391363" style="fill: #1f77b4; stroke: #1f77b4"/>
     <use xlink:href="#m85ed111e0b" x="73.832727" y="295.488" style="fill: #1f77b4; stroke: #1f77b4"/>
     <use xlink:href="#m85ed111e0b" x="122.804983" y="259.313487" style="fill: #1f77b4; stroke: #1f77b4"/>
     <use xlink:href="#m85ed111e0b" x="151.451916" y="238.115589" style="fill: #1f77b4; stroke: #1f77b4"/>
     <use xlink:href="#m85ed111e0b" x="171.777238" y="222.812484" style="fill: #1f77b4; stroke: #1f77b4"/>
     <use xlink:href="#m85ed111e0b" x="187.542783" y="210.692406" style="fill: #1f77b4; stroke: #1f77b4"/>
     <use xlink:href="#m85ed111e0b" x="200.424171" y="200.762446" style="fill: #1f77b4; stroke: #1f77b4"/>
     <use xlink:href="#m85ed111e0b" x="211.315229" y="191.860788" style="fill: #1f77b4; stroke: #1f77b4"/>
     <use xlink:href="#m85ed111e0b" x="220.749493" y="185.529821" style="fill: #1f77b4; stroke: #1f77b4"/>
     <use xlink:href="#m85ed111e0b" x="229.071104" y="179.519721" style="fill: #1f77b4; stroke: #1f77b4"/>
     <use xlink:href="#m85ed111e0b" x="236.515038" y="173.241594" style="fill: #1f77b4; stroke: #1f77b4"/>
     <use xlink:href="#m85ed111e0b" x="243.248896" y="169.019644" style="fill: #1f77b4; stroke: #1f77b4"/>
     <use xlink:href="#m85ed111e0b" x="249.396426" y="164.88118" style="fill: #1f77b4; stroke: #1f77b4"/>
     <use xlink:href="#m85ed111e0b" x="255.051606" y="161.490281" style="fill: #1f77b4; stroke: #1f77b4"/>
     <use xlink:href="#m85ed111e0b" x="260.287485" y="157.122178" style="fill: #1f77b4; stroke: #1f77b4"/>
     <use xlink:href="#m85ed111e0b" x="265.161971" y="153.491583" style="fill: #1f77b4; stroke: #1f77b4"/>
     <use xlink:href="#m85ed111e0b" x="269.721749" y="150.280943" style="fill: #1f77b4; stroke: #1f77b4"/>
     <use xlink:href="#m85ed111e0b" x="274.005001" y="146.065669" style="fill: #1f77b4; stroke: #1f77b4"/>
     <use xlink:href="#m85ed111e0b" x="278.043359" y="142.795456" style="fill: #1f77b4; stroke: #1f77b4"/>
     <use xlink:href="#m85ed111e0b" x="281.863318" y="139.445684" style="fill: #1f77b4; stroke: #1f77b4"/>
     <use xlink:href="#m85ed111e0b" x="285.487294" y="136.236921" style="fill: #1f77b4; stroke: #1f77b4"/>
     <use xlink:href="#m85ed111e0b" x="288.934418" y="132.217494" style="fill: #1f77b4; stroke: #1f77b4"/>
     <use xlink:href="#m85ed111e0b" x="292.221151" y="129.745139" style="fill: #1f77b4; stroke: #1f77b4"/>
     <use xlink:href="#m85ed111e0b" x="295.361759" y="127.579712" style="fill: #1f77b4; stroke: #1f77b4"/>
     <use xlink:href="#m85ed111e0b" x="298.368682" y="125.731247" style="fill: #1f77b4; stroke: #1f77b4"/>
     <use xlink:href="#m85ed111e0b" x="301.252839" y="123.094753" style="fill: #1f77b4; stroke: #1f77b4"/>
     <use xlink:href="#m85ed111e0b" x="304.023862" y="121.773526" style="fill: #1f77b4; stroke: #1f77b4"/>
     <use xlink:href="#m85ed111e0b" x="306.690292" y="120.224901" style="fill: #1f77b4; stroke: #1f77b4"/>
     <use xlink:href="#m85ed111e0b" x="309.25974" y="119.29683" style="fill: #1f77b4; stroke: #1f77b4"/>
     <use xlink:href="#m85ed111e0b" x="311.739013" y="116.887979" style="fill: #1f77b4; stroke: #1f77b4"/>
     <use xlink:href="#m85ed111e0b" x="314.134227" y="115.627558" style="fill: #1f77b4; stroke: #1f77b4"/>
     <use xlink:href="#m85ed111e0b" x="316.450894" y="114.021655" style="fill: #1f77b4; stroke: #1f77b4"/>
     <use xlink:href="#m85ed111e0b" x="318.694004" y="111.858737" style="fill: #1f77b4; stroke: #1f77b4"/>
     <use xlink:href="#m85ed111e0b" x="320.868084" y="110.769488" style="fill: #1f77b4; stroke: #1f77b4"/>
     <use xlink:href="#m85ed111e0b" x="322.977257" y="109.253828" style="fill: #1f77b4; stroke: #1f77b4"/>
     <use xlink:href="#m85ed111e0b" x="325.025285" y="107.500182" style="fill: #1f77b4; stroke: #1f77b4"/>
     <use xlink:href="#m85ed111e0b" x="327.015615" y="106.005665" style="fill: #1f77b4; stroke: #1f77b4"/>
     <use xlink:href="#m85ed111e0b" x="328.951408" y="104.170817" style="fill: #1f77b4; stroke: #1f77b4"/>
     <use xlink:href="#m85ed111e0b" x="330.835574" y="102.696276" style="fill: #1f77b4; stroke: #1f77b4"/>
     <use xlink:href="#m85ed111e0b" x="332.670795" y="101.648339" style="fill: #1f77b4; stroke: #1f77b4"/>
     <use xlink:href="#m85ed111e0b" x="334.459549" y="100.638979" style="fill: #1f77b4; stroke: #1f77b4"/>
     <use xlink:href="#m85ed111e0b" x="336.204132" y="99.924759" style="fill: #1f77b4; stroke: #1f77b4"/>
     <use xlink:href="#m85ed111e0b" x="337.906673" y="98.611214" style="fill: #1f77b4; stroke: #1f77b4"/>
     <use xlink:href="#m85ed111e0b" x="339.569151" y="96.287629" style="fill: #1f77b4; stroke: #1f77b4"/>
     <use xlink:href="#m85ed111e0b" x="341.193407" y="96.005483" style="fill: #1f77b4; stroke: #1f77b4"/>
     <use xlink:href="#m85ed111e0b" x="342.78116" y="94.619774" style="fill: #1f77b4; stroke: #1f77b4"/>
     <use xlink:href="#m85ed111e0b" x="344.334014" y="93.200795" style="fill: #1f77b4; stroke: #1f77b4"/>
     <use xlink:href="#m85ed111e0b" x="345.853471" y="93.345166" style="fill: #1f77b4; stroke: #1f77b4"/>
     <use xlink:href="#m85ed111e0b" x="347.340937" y="92.138278" style="fill: #1f77b4; stroke: #1f77b4"/>
     <use xlink:href="#m85ed111e0b" x="348.797732" y="90.596498" style="fill: #1f77b4; stroke: #1f77b4"/>
     <use xlink:href="#m85ed111e0b" x="350.225094" y="89.140221" style="fill: #1f77b4; stroke: #1f77b4"/>
     <use xlink:href="#m85ed111e0b" x="351.62419" y="87.64849" style="fill: #1f77b4; stroke: #1f77b4"/>
     <use xlink:href="#m85ed111e0b" x="352.996117" y="86.789112" style="fill: #1f77b4; stroke: #1f77b4"/>
     <use xlink:href="#m85ed111e0b" x="354.341911" y="84.497626" style="fill: #1f77b4; stroke: #1f77b4"/>
     <use xlink:href="#m85ed111e0b" x="355.662548" y="82.705643" style="fill: #1f77b4; stroke: #1f77b4"/>
     <use xlink:href="#m85ed111e0b" x="356.958952" y="81.785314" style="fill: #1f77b4; stroke: #1f77b4"/>
     <use xlink:href="#m85ed111e0b" x="358.231996" y="81.339895" style="fill: #1f77b4; stroke: #1f77b4"/>
     <use xlink:href="#m85ed111e0b" x="359.482507" y="81.31532" style="fill: #1f77b4; stroke: #1f77b4"/>
     <use xlink:href="#m85ed111e0b" x="360.711269" y="81.171849" style="fill: #1f77b4; stroke: #1f77b4"/>
     <use xlink:href="#m85ed111e0b" x="361.919025" y="80.811607" style="fill: #1f77b4; stroke: #1f77b4"/>
     <use xlink:href="#m85ed111e0b" x="363.106482" y="79.455065" style="fill: #1f77b4; stroke: #1f77b4"/>
     <use xlink:href="#m85ed111e0b" x="364.274311" y="78.307501" style="fill: #1f77b4; stroke: #1f77b4"/>
     <use xlink:href="#m85ed111e0b" x="365.42315" y="77.851275" style="fill: #1f77b4; stroke: #1f77b4"/>
     <use xlink:href="#m85ed111e0b" x="366.553606" y="76.665086" style="fill: #1f77b4; stroke: #1f77b4"/>
     <use xlink:href="#m85ed111e0b" x="367.66626" y="76.038214" style="fill: #1f77b4; stroke: #1f77b4"/>
     <use xlink:href="#m85ed111e0b" x="368.761662" y="74.564628" style="fill: #1f77b4; stroke: #1f77b4"/>
     <use xlink:href="#m85ed111e0b" x="369.84034" y="73.129109" style="fill: #1f77b4; stroke: #1f77b4"/>
     <use xlink:href="#m85ed111e0b" x="370.902796" y="71.680863" style="fill: #1f77b4; stroke: #1f77b4"/>
     <use xlink:href="#m85ed111e0b" x="371.949512" y="71.250902" style="fill: #1f77b4; stroke: #1f77b4"/>
     <use xlink:href="#m85ed111e0b" x="372.980947" y="71.356941" style="fill: #1f77b4; stroke: #1f77b4"/>
     <use xlink:href="#m85ed111e0b" x="373.997541" y="69.805874" style="fill: #1f77b4; stroke: #1f77b4"/>
     <use xlink:href="#m85ed111e0b" x="374.999714" y="69.408162" style="fill: #1f77b4; stroke: #1f77b4"/>
     <use xlink:href="#m85ed111e0b" x="375.98787" y="68.943792" style="fill: #1f77b4; stroke: #1f77b4"/>
     <use xlink:href="#m85ed111e0b" x="376.962396" y="69.048546" style="fill: #1f77b4; stroke: #1f77b4"/>
     <use xlink:href="#m85ed111e0b" x="377.923663" y="68.891601" style="fill: #1f77b4; stroke: #1f77b4"/>
     <use xlink:href="#m85ed111e0b" x="378.872027" y="67.853732" style="fill: #1f77b4; stroke: #1f77b4"/>
     <use xlink:href="#m85ed111e0b" x="379.807829" y="67.976202" style="fill: #1f77b4; stroke: #1f77b4"/>
     <use xlink:href="#m85ed111e0b" x="380.731398" y="67.748382" style="fill: #1f77b4; stroke: #1f77b4"/>
     <use xlink:href="#m85ed111e0b" x="381.64305" y="67.021115" style="fill: #1f77b4; stroke: #1f77b4"/>
     <use xlink:href="#m85ed111e0b" x="382.543088" y="66.585821" style="fill: #1f77b4; stroke: #1f77b4"/>
     <use xlink:href="#m85ed111e0b" x="383.431804" y="65.141083" style="fill: #1f77b4; stroke: #1f77b4"/>
     <use xlink:href="#m85ed111e0b" x="384.309481" y="64.642941" style="fill: #1f77b4; stroke: #1f77b4"/>
     <use xlink:href="#m85ed111e0b" x="385.176388" y="63.675102" style="fill: #1f77b4; stroke: #1f77b4"/>
     <use xlink:href="#m85ed111e0b" x="386.032786" y="63.052068" style="fill: #1f77b4; stroke: #1f77b4"/>
     <use xlink:href="#m85ed111e0b" x="386.878929" y="62.762446" style="fill: #1f77b4; stroke: #1f77b4"/>
     <use xlink:href="#m85ed111e0b" x="387.715057" y="62.161154" style="fill: #1f77b4; stroke: #1f77b4"/>
     <use xlink:href="#m85ed111e0b" x="388.541406" y="61.760376" style="fill: #1f77b4; stroke: #1f77b4"/>
     <use xlink:href="#m85ed111e0b" x="389.358202" y="61.294645" style="fill: #1f77b4; stroke: #1f77b4"/>
     <use xlink:href="#m85ed111e0b" x="390.165662" y="60.841679" style="fill: #1f77b4; stroke: #1f77b4"/>
     <use xlink:href="#m85ed111e0b" x="390.963999" y="60.465966" style="fill: #1f77b4; stroke: #1f77b4"/>
     <use xlink:href="#m85ed111e0b" x="391.753415" y="60.919079" style="fill: #1f77b4; stroke: #1f77b4"/>
     <use xlink:href="#m85ed111e0b" x="392.534108" y="59.592453" style="fill: #1f77b4; stroke: #1f77b4"/>
     <use xlink:href="#m85ed111e0b" x="393.306269" y="59.518297" style="fill: #1f77b4; stroke: #1f77b4"/>
     <use xlink:href="#m85ed111e0b" x="394.070083" y="59.078745" style="fill: #1f77b4; stroke: #1f77b4"/>
     <use xlink:href="#m85ed111e0b" x="394.825726" y="58.197572" style="fill: #1f77b4; stroke: #1f77b4"/>
     <use xlink:href="#m85ed111e0b" x="395.573374" y="56.985509" style="fill: #1f77b4; stroke: #1f77b4"/>
     <use xlink:href="#m85ed111e0b" x="396.313193" y="57.865954" style="fill: #1f77b4; stroke: #1f77b4"/>
     <use xlink:href="#m85ed111e0b" x="397.045345" y="57.668072" style="fill: #1f77b4; stroke: #1f77b4"/>
     <use xlink:href="#m85ed111e0b" x="397.769987" y="57.810208" style="fill: #1f77b4; stroke: #1f77b4"/>
     <use xlink:href="#m85ed111e0b" x="398.487273" y="57.420951" style="fill: #1f77b4; stroke: #1f77b4"/>
    </g>
   </g>
   <g id="line2d_44">
    <path d="M 3.447195 346.6 
L 73.832727 294.018253 
L 122.804983 257.747727 
L 151.451916 236.530829 
L 171.777238 221.4772 
L 187.542783 209.800699 
L 200.424171 200.260303 
L 211.315229 192.194013 
L 220.749493 185.206674 
L 229.071104 179.043405 
L 236.515038 173.530173 
L 243.248896 168.542848 
L 249.396426 163.989777 
L 255.051606 159.801357 
L 260.287485 155.923486 
L 265.161971 152.313275 
L 269.721749 148.936148 
L 274.005001 145.763825 
L 278.043359 142.772879 
L 281.863318 139.943687 
L 285.487294 137.259647 
L 288.934418 134.706589 
L 292.221151 132.272322 
L 295.361759 129.94628 
L 298.368682 127.71925 
L 301.252839 125.583145 
L 304.023862 123.530831 
L 306.690292 121.555981 
L 309.25974 119.65296 
L 311.739013 117.816726 
L 314.134227 116.042749 
L 316.450894 114.326946 
L 318.694004 112.665622 
L 320.868084 111.055424 
L 322.977257 109.493299 
L 325.025285 107.976459 
L 327.015615 106.502353 
L 328.951408 105.068638 
L 330.835574 103.673161 
L 332.670795 102.313933 
L 334.459549 100.989121 
L 336.204132 99.697023 
L 337.906673 98.436063 
L 339.569151 97.204775 
L 341.193407 96.001795 
L 342.78116 94.825851 
L 344.334014 93.675754 
L 345.853471 92.550392 
L 347.340937 91.448724 
L 348.797732 90.369772 
L 350.225094 89.312619 
L 351.62419 88.276401 
L 352.996117 87.260305 
L 354.341911 86.263564 
L 355.662548 85.285455 
L 356.958952 84.325294 
L 358.231996 83.382434 
L 359.482507 82.456263 
L 360.711269 81.5462 
L 361.919025 80.651694 
L 363.106482 79.772223 
L 364.274311 78.907289 
L 365.42315 78.05642 
L 366.553606 77.219165 
L 367.66626 76.395096 
L 368.761662 75.583803 
L 369.84034 74.784898 
L 370.902796 73.998006 
L 371.949512 73.222772 
L 372.980947 72.458857 
L 373.997541 71.705933 
L 374.999714 70.963689 
L 375.98787 70.231827 
L 376.962396 69.510059 
L 377.923663 68.798112 
L 378.872027 68.095721 
L 379.807829 67.402634 
L 380.731398 66.718608 
L 381.64305 66.043407 
L 382.543088 65.376808 
L 383.431804 64.718594 
L 384.309481 64.068557 
L 385.176388 63.426496 
L 386.032786 62.792218 
L 386.878929 62.165536 
L 387.715057 61.546271 
L 388.541406 60.934249 
L 389.358202 60.329302 
L 390.165662 59.731269 
L 390.963999 59.139994 
L 391.753415 58.555325 
L 392.534108 57.977117 
L 393.306269 57.405228 
L 394.070083 56.839522 
L 394.825726 56.279866 
L 395.573374 55.726133 
L 396.313193 55.178198 
L 397.045345 54.635941 
L 397.769987 54.099246 
L 398.487273 53.568 
" clip-path="url(#p4d625bb7ee)" style="fill: none; stroke-dasharray: 5.55,2.4; stroke-dashoffset: 0; stroke: #ff7f0e; stroke-width: 1.5"/>
   </g>
   <g id="patch_3">
    <path d="M 57.6 307.584 
L 57.6 41.472 
" style="fill: none; stroke: #000000; stroke-width: 0.8; stroke-linejoin: miter; stroke-linecap: square"/>
   </g>
   <g id="patch_4">
    <path d="M 414.72 307.584 
L 414.72 41.472 
" style="fill: none; stroke: #000000; stroke-width: 0.8; stroke-linejoin: miter; stroke-linecap: square"/>
   </g>
   <g id="patch_5">
    <path d="M 57.6 307.584 
L 414.72 307.584 
" style="fill: none; stroke: #000000; stroke-width: 0.8; stroke-linejoin: miter; stroke-linecap: square"/>
   </g>
   <g id="patch_6">
    <path d="M 57.6 41.472 
L 414.72 41.472 
" style="fill: none; stroke: #000000; stroke-width: 0.8; stroke-linejoin: miter; stroke-linecap: square"/>
   </g>
   <g id="legend_1">
    <g id="patch_7">
     <path d="M 64.6 64.150125 
L 175.804688 64.150125 
Q 177.804688 64.150125 177.804688 62.150125 
L 177.804688 48.472 
Q 177.804688 46.472 175.804688 46.472 
L 64.6 46.472 
Q 62.6 46.472 62.6 48.472 
L 62.6 62.150125 
Q 62.6 64.150125 64.6 64.150125 
z
" style="fill: #ffffff; opacity: 0.8; stroke: #cccccc; stroke-linejoin: miter"/>
    </g>
    <g id="line2d_45">
     <path d="M 66.6 54.570438 
L 76.6 54.570438 
L 86.6 54.570438 
" style="fill: none; stroke-dasharray: 5.55,2.4; stroke-dashoffset: 0; stroke: #ff7f0e; stroke-width: 1.5"/>
    </g>
    <g id="text_8">
     <!-- α:0.991+-0.003 -->
     <g transform="translate(94.6 58.070438) scale(0.1 -0.1)">
      <defs>
       <path id="DejaVuSans-3b1" d="M 2644 1628 
L 2506 2350 
Q 2366 3091 1809 3091 
Q 1391 3091 1200 2747 
Q 959 2316 959 1747 
Q 959 1059 1194 731 
Q 1431 397 1809 397 
Q 2228 397 2453 1063 
L 2644 1628 
z
M 2966 2584 
L 3275 3500 
L 3788 3500 
L 3147 1603 
L 3272 919 
Q 3300 766 3409 638 
Q 3538 488 3638 488 
L 3913 488 
L 3913 0 
L 3569 0 
Q 3275 0 3013 263 
Q 2884 394 2831 669 
Q 2688 322 2394 50 
Q 2256 -78 1809 -78 
Q 1075 -78 719 397 
Q 353 888 353 1747 
Q 353 2666 750 3097 
Q 1191 3578 1809 3578 
Q 2781 3578 2966 2584 
z
" transform="scale(0.015625)"/>
       <path id="DejaVuSans-3a" d="M 750 794 
L 1409 794 
L 1409 0 
L 750 0 
L 750 794 
z
M 750 3309 
L 1409 3309 
L 1409 2516 
L 750 2516 
L 750 3309 
z
" transform="scale(0.015625)"/>
       <path id="DejaVuSans-2e" d="M 684 794 
L 1344 794 
L 1344 0 
L 684 0 
L 684 794 
z
" transform="scale(0.015625)"/>
       <path id="DejaVuSans-39" d="M 703 97 
L 703 672 
Q 941 559 1184 500 
Q 1428 441 1663 441 
Q 2288 441 2617 861 
Q 2947 1281 2994 2138 
Q 2813 1869 2534 1725 
Q 2256 1581 1919 1581 
Q 1219 1581 811 2004 
Q 403 2428 403 3163 
Q 403 3881 828 4315 
Q 1253 4750 1959 4750 
Q 2769 4750 3195 4129 
Q 3622 3509 3622 2328 
Q 3622 1225 3098 567 
Q 2575 -91 1691 -91 
Q 1453 -91 1209 -44 
Q 966 3 703 97 
z
M 1959 2075 
Q 2384 2075 2632 2365 
Q 2881 2656 2881 3163 
Q 2881 3666 2632 3958 
Q 2384 4250 1959 4250 
Q 1534 4250 1286 3958 
Q 1038 3666 1038 3163 
Q 1038 2656 1286 2365 
Q 1534 2075 1959 2075 
z
" transform="scale(0.015625)"/>
       <path id="DejaVuSans-2b" d="M 2944 4013 
L 2944 2272 
L 4684 2272 
L 4684 1741 
L 2944 1741 
L 2944 0 
L 2419 0 
L 2419 1741 
L 678 1741 
L 678 2272 
L 2419 2272 
L 2419 4013 
L 2944 4013 
z
" transform="scale(0.015625)"/>
       <path id="DejaVuSans-2d" d="M 313 2009 
L 1997 2009 
L 1997 1497 
L 313 1497 
L 313 2009 
z
" transform="scale(0.015625)"/>
       <path id="DejaVuSans-33" d="M 2597 2516 
Q 3050 2419 3304 2112 
Q 3559 1806 3559 1356 
Q 3559 666 3084 287 
Q 2609 -91 1734 -91 
Q 1441 -91 1130 -33 
Q 819 25 488 141 
L 488 750 
Q 750 597 1062 519 
Q 1375 441 1716 441 
Q 2309 441 2620 675 
Q 2931 909 2931 1356 
Q 2931 1769 2642 2001 
Q 2353 2234 1838 2234 
L 1294 2234 
L 1294 2753 
L 1863 2753 
Q 2328 2753 2575 2939 
Q 2822 3125 2822 3475 
Q 2822 3834 2567 4026 
Q 2313 4219 1838 4219 
Q 1578 4219 1281 4162 
Q 984 4106 628 3988 
L 628 4550 
Q 988 4650 1302 4700 
Q 1616 4750 1894 4750 
Q 2613 4750 3031 4423 
Q 3450 4097 3450 3541 
Q 3450 3153 3228 2886 
Q 3006 2619 2597 2516 
z
" transform="scale(0.015625)"/>
      </defs>
      <use xlink:href="#DejaVuSans-3b1"/>
      <use xlink:href="#DejaVuSans-3a" x="65.917969"/>
      <use xlink:href="#DejaVuSans-30" x="99.609375"/>
      <use xlink:href="#DejaVuSans-2e" x="163.232422"/>
      <use xlink:href="#DejaVuSans-39" x="195.019531"/>
      <use xlink:href="#DejaVuSans-39" x="258.642578"/>
      <use xlink:href="#DejaVuSans-31" x="322.265625"/>
      <use xlink:href="#DejaVuSans-2b" x="385.888672"/>
      <use xlink:href="#DejaVuSans-2d" x="469.677734"/>
      <use xlink:href="#DejaVuSans-30" x="505.761719"/>
      <use xlink:href="#DejaVuSans-2e" x="569.384766"/>
      <use xlink:href="#DejaVuSans-30" x="601.171875"/>
      <use xlink:href="#DejaVuSans-30" x="664.794922"/>
      <use xlink:href="#DejaVuSans-33" x="728.417969"/>
     </g>
    </g>
   </g>
  </g>
 </g>
 <defs>
  <clipPath id="p4d625bb7ee">
   <rect x="57.6" y="41.472" width="357.12" height="266.112"/>
  </clipPath>
 </defs>
</svg>
