<?xml version="1.0" encoding="utf-8" standalone="no"?>
<!DOCTYPE svg PUBLIC "-//W3C//DTD SVG 1.1//EN"
  "http://www.w3.org/Graphics/SVG/1.1/DTD/svg11.dtd">
<svg xmlns:xlink="http://www.w3.org/1999/xlink" width="460.8pt" height="345.6pt" viewBox="0 0 460.8 345.6" xmlns="http://www.w3.org/2000/svg" version="1.1">
 <metadata>
  <rdf:RDF xmlns:dc="http://purl.org/dc/elements/1.1/" xmlns:cc="http://creativecommons.org/ns#" xmlns:rdf="http://www.w3.org/1999/02/22-rdf-syntax-ns#">
   <cc:Work>
    <dc:type rdf:resource="http://purl.org/dc/dcmitype/StillImage"/>
    <dc:date>2023-09-06T15:34:42.722441</dc:date>
    <dc:format>image/svg+xml</dc:format>
    <dc:creator>
     <cc:Agent>
      <dc:title>Matplotlib v3.7.0, https://matplotlib.org/</dc:title>
     </cc:Agent>
    </dc:creator>
   </cc:Work>
  </rdf:RDF>
 </metadata>
 <defs>
  <style type="text/css">*{stroke-linejoin: round; stroke-linecap: butt}</style>
 </defs>
 <g id="figure_1">
  <g id="patch_1">
   <path d="M 0 345.6 
L 460.8 345.6 
L 460.8 0 
L 0 0 
z
" style="fill: #ffffff"/>
  </g>
  <g id="axes_1">
   <g id="patch_2">
    <path d="M 57.6 307.584 
L 414.72 307.584 
L 414.72 41.472 
L 57.6 41.472 
z
" style="fill: #ffffff"/>
   </g>
   <g id="matplotlib.axis_1">
    <g id="xtick_1">
     <g id="line2d_1">
      <defs>
       <path id="mde0955da4d" d="M 0 0 
L 0 3.5 
" style="stroke: #000000; stroke-width: 0.8"/>
      </defs>
      <g>
       <use xlink:href="#mde0955da4d" x="73.832727" y="307.584" style="stroke: #000000; stroke-width: 0.8"/>
      </g>
     </g>
     <g id="text_1">
      <!-- $\mathdefault{10^{0}}$ -->
      <g transform="translate(65.032727 322.182437) scale(0.1 -0.1)">
       <defs>
        <path id="DejaVuSans-31" d="M 794 531 
L 1825 531 
L 1825 4091 
L 703 3866 
L 703 4441 
L 1819 4666 
L 2450 4666 
L 2450 531 
L 3481 531 
L 3481 0 
L 794 0 
L 794 531 
z
" transform="scale(0.015625)"/>
        <path id="DejaVuSans-30" d="M 2034 4250 
Q 1547 4250 1301 3770 
Q 1056 3291 1056 2328 
Q 1056 1369 1301 889 
Q 1547 409 2034 409 
Q 2525 409 2770 889 
Q 3016 1369 3016 2328 
Q 3016 3291 2770 3770 
Q 2525 4250 2034 4250 
z
M 2034 4750 
Q 2819 4750 3233 4129 
Q 3647 3509 3647 2328 
Q 3647 1150 3233 529 
Q 2819 -91 2034 -91 
Q 1250 -91 836 529 
Q 422 1150 422 2328 
Q 422 3509 836 4129 
Q 1250 4750 2034 4750 
z
" transform="scale(0.015625)"/>
       </defs>
       <use xlink:href="#DejaVuSans-31" transform="translate(0 0.765625)"/>
       <use xlink:href="#DejaVuSans-30" transform="translate(63.623047 0.765625)"/>
       <use xlink:href="#DejaVuSans-30" transform="translate(128.203125 39.046875) scale(0.7)"/>
      </g>
     </g>
    </g>
    <g id="xtick_2">
     <g id="line2d_2">
      <g>
       <use xlink:href="#mde0955da4d" x="236.515038" y="307.584" style="stroke: #000000; stroke-width: 0.8"/>
      </g>
     </g>
     <g id="text_2">
      <!-- $\mathdefault{10^{1}}$ -->
      <g transform="translate(227.715038 322.182437) scale(0.1 -0.1)">
       <use xlink:href="#DejaVuSans-31" transform="translate(0 0.684375)"/>
       <use xlink:href="#DejaVuSans-30" transform="translate(63.623047 0.684375)"/>
       <use xlink:href="#DejaVuSans-31" transform="translate(128.203125 38.965625) scale(0.7)"/>
      </g>
     </g>
    </g>
    <g id="xtick_3">
     <g id="line2d_3">
      <g>
       <use xlink:href="#mde0955da4d" x="399.197349" y="307.584" style="stroke: #000000; stroke-width: 0.8"/>
      </g>
     </g>
     <g id="text_3">
      <!-- $\mathdefault{10^{2}}$ -->
      <g transform="translate(390.397349 322.182437) scale(0.1 -0.1)">
       <defs>
        <path id="DejaVuSans-32" d="M 1228 531 
L 3431 531 
L 3431 0 
L 469 0 
L 469 531 
Q 828 903 1448 1529 
Q 2069 2156 2228 2338 
Q 2531 2678 2651 2914 
Q 2772 3150 2772 3378 
Q 2772 3750 2511 3984 
Q 2250 4219 1831 4219 
Q 1534 4219 1204 4116 
Q 875 4013 500 3803 
L 500 4441 
Q 881 4594 1212 4672 
Q 1544 4750 1819 4750 
Q 2544 4750 2975 4387 
Q 3406 4025 3406 3419 
Q 3406 3131 3298 2873 
Q 3191 2616 2906 2266 
Q 2828 2175 2409 1742 
Q 1991 1309 1228 531 
z
" transform="scale(0.015625)"/>
       </defs>
       <use xlink:href="#DejaVuSans-31" transform="translate(0 0.765625)"/>
       <use xlink:href="#DejaVuSans-30" transform="translate(63.623047 0.765625)"/>
       <use xlink:href="#DejaVuSans-32" transform="translate(128.203125 39.046875) scale(0.7)"/>
      </g>
     </g>
    </g>
    <g id="xtick_4">
     <g id="line2d_4">
      <defs>
       <path id="m0697a5141a" d="M 0 0 
L 0 2 
" style="stroke: #000000; stroke-width: 0.6"/>
      </defs>
      <g>
       <use xlink:href="#m0697a5141a" x="58.067182" y="307.584" style="stroke: #000000; stroke-width: 0.6"/>
      </g>
     </g>
    </g>
    <g id="xtick_5">
     <g id="line2d_5">
      <g>
       <use xlink:href="#m0697a5141a" x="66.388793" y="307.584" style="stroke: #000000; stroke-width: 0.6"/>
      </g>
     </g>
    </g>
    <g id="xtick_6">
     <g id="line2d_6">
      <g>
       <use xlink:href="#m0697a5141a" x="122.804983" y="307.584" style="stroke: #000000; stroke-width: 0.6"/>
      </g>
     </g>
    </g>
    <g id="xtick_7">
     <g id="line2d_7">
      <g>
       <use xlink:href="#m0697a5141a" x="151.451916" y="307.584" style="stroke: #000000; stroke-width: 0.6"/>
      </g>
     </g>
    </g>
    <g id="xtick_8">
     <g id="line2d_8">
      <g>
       <use xlink:href="#m0697a5141a" x="171.777238" y="307.584" style="stroke: #000000; stroke-width: 0.6"/>
      </g>
     </g>
    </g>
    <g id="xtick_9">
     <g id="line2d_9">
      <g>
       <use xlink:href="#m0697a5141a" x="187.542783" y="307.584" style="stroke: #000000; stroke-width: 0.6"/>
      </g>
     </g>
    </g>
    <g id="xtick_10">
     <g id="line2d_10">
      <g>
       <use xlink:href="#m0697a5141a" x="200.424171" y="307.584" style="stroke: #000000; stroke-width: 0.6"/>
      </g>
     </g>
    </g>
    <g id="xtick_11">
     <g id="line2d_11">
      <g>
       <use xlink:href="#m0697a5141a" x="211.315229" y="307.584" style="stroke: #000000; stroke-width: 0.6"/>
      </g>
     </g>
    </g>
    <g id="xtick_12">
     <g id="line2d_12">
      <g>
       <use xlink:href="#m0697a5141a" x="220.749493" y="307.584" style="stroke: #000000; stroke-width: 0.6"/>
      </g>
     </g>
    </g>
    <g id="xtick_13">
     <g id="line2d_13">
      <g>
       <use xlink:href="#m0697a5141a" x="229.071104" y="307.584" style="stroke: #000000; stroke-width: 0.6"/>
      </g>
     </g>
    </g>
    <g id="xtick_14">
     <g id="line2d_14">
      <g>
       <use xlink:href="#m0697a5141a" x="285.487294" y="307.584" style="stroke: #000000; stroke-width: 0.6"/>
      </g>
     </g>
    </g>
    <g id="xtick_15">
     <g id="line2d_15">
      <g>
       <use xlink:href="#m0697a5141a" x="314.134227" y="307.584" style="stroke: #000000; stroke-width: 0.6"/>
      </g>
     </g>
    </g>
    <g id="xtick_16">
     <g id="line2d_16">
      <g>
       <use xlink:href="#m0697a5141a" x="334.459549" y="307.584" style="stroke: #000000; stroke-width: 0.6"/>
      </g>
     </g>
    </g>
    <g id="xtick_17">
     <g id="line2d_17">
      <g>
       <use xlink:href="#m0697a5141a" x="350.225094" y="307.584" style="stroke: #000000; stroke-width: 0.6"/>
      </g>
     </g>
    </g>
    <g id="xtick_18">
     <g id="line2d_18">
      <g>
       <use xlink:href="#m0697a5141a" x="363.106482" y="307.584" style="stroke: #000000; stroke-width: 0.6"/>
      </g>
     </g>
    </g>
    <g id="xtick_19">
     <g id="line2d_19">
      <g>
       <use xlink:href="#m0697a5141a" x="373.997541" y="307.584" style="stroke: #000000; stroke-width: 0.6"/>
      </g>
     </g>
    </g>
    <g id="xtick_20">
     <g id="line2d_20">
      <g>
       <use xlink:href="#m0697a5141a" x="383.431804" y="307.584" style="stroke: #000000; stroke-width: 0.6"/>
      </g>
     </g>
    </g>
    <g id="xtick_21">
     <g id="line2d_21">
      <g>
       <use xlink:href="#m0697a5141a" x="391.753415" y="307.584" style="stroke: #000000; stroke-width: 0.6"/>
      </g>
     </g>
    </g>
    <g id="text_4">
     <!-- t -->
     <g transform="translate(234.199844 335.860562) scale(0.1 -0.1)">
      <defs>
       <path id="DejaVuSans-74" d="M 1172 4494 
L 1172 3500 
L 2356 3500 
L 2356 3053 
L 1172 3053 
L 1172 1153 
Q 1172 725 1289 603 
Q 1406 481 1766 481 
L 2356 481 
L 2356 0 
L 1766 0 
Q 1100 0 847 248 
Q 594 497 594 1153 
L 594 3053 
L 172 3053 
L 172 3500 
L 594 3500 
L 594 4494 
L 1172 4494 
z
" transform="scale(0.015625)"/>
      </defs>
      <use xlink:href="#DejaVuSans-74"/>
     </g>
    </g>
   </g>
   <g id="matplotlib.axis_2">
    <g id="ytick_1">
     <g id="line2d_22">
      <defs>
       <path id="ma59f27e083" d="M 0 0 
L -3.5 0 
" style="stroke: #000000; stroke-width: 0.8"/>
      </defs>
      <g>
       <use xlink:href="#ma59f27e083" x="57.6" y="287.09058" style="stroke: #000000; stroke-width: 0.8"/>
      </g>
     </g>
     <g id="text_5">
      <!-- $\mathdefault{10^{0}}$ -->
      <g transform="translate(33 290.889799) scale(0.1 -0.1)">
       <use xlink:href="#DejaVuSans-31" transform="translate(0 0.765625)"/>
       <use xlink:href="#DejaVuSans-30" transform="translate(63.623047 0.765625)"/>
       <use xlink:href="#DejaVuSans-30" transform="translate(128.203125 39.046875) scale(0.7)"/>
      </g>
     </g>
    </g>
    <g id="ytick_2">
     <g id="line2d_23">
      <defs>
       <path id="mef6fc8931d" d="M 0 0 
L -2 0 
" style="stroke: #000000; stroke-width: 0.6"/>
      </defs>
      <g>
       <use xlink:href="#mef6fc8931d" x="57.6" y="298.402426" style="stroke: #000000; stroke-width: 0.6"/>
      </g>
     </g>
    </g>
    <g id="ytick_3">
     <g id="line2d_24">
      <g>
       <use xlink:href="#mef6fc8931d" x="57.6" y="212.672054" style="stroke: #000000; stroke-width: 0.6"/>
      </g>
     </g>
    </g>
    <g id="ytick_4">
     <g id="line2d_25">
      <g>
       <use xlink:href="#mef6fc8931d" x="57.6" y="169.140008" style="stroke: #000000; stroke-width: 0.6"/>
      </g>
     </g>
    </g>
    <g id="ytick_5">
     <g id="line2d_26">
      <g>
       <use xlink:href="#mef6fc8931d" x="57.6" y="138.253529" style="stroke: #000000; stroke-width: 0.6"/>
      </g>
     </g>
    </g>
    <g id="ytick_6">
     <g id="line2d_27">
      <g>
       <use xlink:href="#mef6fc8931d" x="57.6" y="114.296114" style="stroke: #000000; stroke-width: 0.6"/>
      </g>
     </g>
    </g>
    <g id="ytick_7">
     <g id="line2d_28">
      <g>
       <use xlink:href="#mef6fc8931d" x="57.6" y="94.721482" style="stroke: #000000; stroke-width: 0.6"/>
      </g>
     </g>
    </g>
    <g id="ytick_8">
     <g id="line2d_29">
      <g>
       <use xlink:href="#mef6fc8931d" x="57.6" y="78.171366" style="stroke: #000000; stroke-width: 0.6"/>
      </g>
     </g>
    </g>
    <g id="ytick_9">
     <g id="line2d_30">
      <g>
       <use xlink:href="#mef6fc8931d" x="57.6" y="63.835003" style="stroke: #000000; stroke-width: 0.6"/>
      </g>
     </g>
    </g>
    <g id="ytick_10">
     <g id="line2d_31">
      <g>
       <use xlink:href="#mef6fc8931d" x="57.6" y="51.189435" style="stroke: #000000; stroke-width: 0.6"/>
      </g>
     </g>
    </g>
    <g id="text_6">
     <!-- &lt;d&gt; -->
     <g transform="translate(26.920313 186.081906) rotate(-90) scale(0.1 -0.1)">
      <defs>
       <path id="DejaVuSans-3c" d="M 4684 3150 
L 1459 2003 
L 4684 863 
L 4684 294 
L 678 1747 
L 678 2266 
L 4684 3719 
L 4684 3150 
z
" transform="scale(0.015625)"/>
       <path id="DejaVuSans-64" d="M 2906 2969 
L 2906 4863 
L 3481 4863 
L 3481 0 
L 2906 0 
L 2906 525 
Q 2725 213 2448 61 
Q 2172 -91 1784 -91 
Q 1150 -91 751 415 
Q 353 922 353 1747 
Q 353 2572 751 3078 
Q 1150 3584 1784 3584 
Q 2172 3584 2448 3432 
Q 2725 3281 2906 2969 
z
M 947 1747 
Q 947 1113 1208 752 
Q 1469 391 1925 391 
Q 2381 391 2643 752 
Q 2906 1113 2906 1747 
Q 2906 2381 2643 2742 
Q 2381 3103 1925 3103 
Q 1469 3103 1208 2742 
Q 947 2381 947 1747 
z
" transform="scale(0.015625)"/>
       <path id="DejaVuSans-3e" d="M 678 3150 
L 678 3719 
L 4684 2266 
L 4684 1747 
L 678 294 
L 678 863 
L 3897 2003 
L 678 3150 
z
" transform="scale(0.015625)"/>
      </defs>
      <use xlink:href="#DejaVuSans-3c"/>
      <use xlink:href="#DejaVuSans-64" x="83.789062"/>
      <use xlink:href="#DejaVuSans-3e" x="147.265625"/>
     </g>
    </g>
   </g>
   <g id="line2d_32">
    <path d="M 40.196547 346.6 
L 73.832727 295.488 
L 122.804983 258.995771 
L 151.451916 237.649185 
L 171.777238 222.503542 
L 187.542783 210.755668 
L 200.424171 201.156956 
L 211.315229 193.041361 
L 220.749493 186.011313 
L 229.071104 179.810371 
L 236.515038 174.263439 
L 243.248896 169.245629 
L 249.396426 164.664727 
L 255.051606 160.450706 
L 260.287485 156.549132 
L 265.161971 152.916854 
L 269.721749 149.519084 
L 274.005001 146.32737 
L 278.043359 143.318142 
L 281.863318 140.471656 
L 285.487294 137.77121 
L 288.934418 135.202547 
L 292.221151 132.7534 
L 295.361759 130.413141 
L 298.368682 128.172498 
L 301.252839 126.023336 
L 304.023862 123.958477 
L 306.690292 121.971556 
L 309.25974 120.056903 
L 311.739013 118.209445 
L 314.134227 116.424625 
L 316.450894 114.698334 
L 318.694004 113.026855 
L 320.868084 111.406815 
L 322.977257 109.835141 
L 325.025285 108.309029 
L 327.015615 106.825913 
L 328.951408 105.383435 
L 330.835574 103.979427 
L 332.670795 102.611892 
L 334.459549 101.278981 
L 336.204132 99.978985 
L 337.906673 98.710318 
L 339.569151 97.471504 
L 341.193407 96.261171 
L 342.78116 95.078039 
L 344.334014 93.920912 
L 345.853471 92.788672 
L 347.340937 91.680269 
L 348.797732 90.594723 
L 350.225094 89.531107 
L 351.62419 88.488555 
L 352.996117 87.466248 
L 354.341911 86.463415 
L 355.662548 85.479327 
L 356.958952 84.513297 
L 358.231996 83.564674 
L 359.482507 82.632842 
L 360.711269 81.717216 
L 361.919025 80.817243 
L 363.106482 79.932396 
L 364.274311 79.062175 
L 365.42315 78.206105 
L 366.553606 77.363732 
L 367.66626 76.534626 
L 368.761662 75.718375 
L 369.84034 74.914586 
L 370.902796 74.122884 
L 371.949512 73.342912 
L 372.980947 72.574327 
L 373.997541 71.8168 
L 374.999714 71.07002 
L 375.98787 70.333684 
L 376.962396 69.607505 
L 377.923663 68.891206 
L 378.872027 68.184522 
L 379.807829 67.487198 
L 380.731398 66.79899 
L 381.64305 66.119663 
L 382.543088 65.448989 
L 383.431804 64.786752 
L 384.309481 64.132742 
L 385.176388 63.486756 
L 386.032786 62.848601 
L 386.878929 62.218089 
L 387.715057 61.595038 
L 388.541406 60.979275 
L 389.358202 60.37063 
L 390.165662 59.768942 
L 390.963999 59.174053 
L 391.753415 58.58581 
L 392.534108 58.004068 
L 393.306269 57.428683 
L 394.070083 56.859519 
L 394.825726 56.296443 
L 395.573374 55.739325 
L 396.313193 55.18804 
L 397.045345 54.642469 
L 397.769987 54.102494 
L 398.487273 53.568 
" clip-path="url(#p22512d9c77)" style="fill: none; stroke-dasharray: 5.55,2.4; stroke-dashoffset: 0; stroke: #1f77b4; stroke-width: 1.5"/>
   </g>
   <g id="line2d_33">
    <path d="M 34.671638 346.6 
L 73.832727 287.09058 
L 122.804983 261.646985 
L 151.451916 238.88902 
L 171.777238 224.781787 
L 187.542783 212.536297 
L 200.424171 202.302737 
L 211.315229 193.329103 
L 220.749493 187.020836 
L 229.071104 180.981808 
L 236.515038 174.668541 
L 243.248896 170.126889 
L 249.396426 165.962028 
L 255.051606 162.934205 
L 260.287485 158.524513 
L 265.161971 155.097258 
L 269.721749 151.657278 
L 274.005001 147.515013 
L 278.043359 144.019511 
L 281.863318 140.81257 
L 285.487294 137.905138 
L 288.934418 134.06163 
L 292.221151 131.589055 
L 295.361759 129.504864 
L 298.368682 127.417242 
L 301.252839 124.591777 
L 304.023862 123.244446 
L 306.690292 121.728251 
L 309.25974 120.442796 
L 311.739013 118.222654 
L 314.134227 116.605545 
L 316.450894 115.15636 
L 318.694004 112.845363 
L 320.868084 111.622827 
L 322.977257 109.993281 
L 325.025285 107.991553 
L 327.015615 106.462929 
L 328.951408 104.58176 
L 330.835574 102.965795 
L 332.670795 101.875522 
L 334.459549 101.361959 
L 336.204132 100.799776 
L 337.906673 98.999869 
L 339.569151 96.926426 
L 341.193407 96.352915 
L 342.78116 94.877075 
L 344.334014 93.449402 
L 345.853471 93.542256 
L 347.340937 92.287678 
L 348.797732 90.777898 
L 350.225094 89.209302 
L 351.62419 87.923151 
L 352.996117 86.818575 
L 354.341911 84.670732 
L 355.662548 82.694635 
L 356.958952 81.920991 
L 358.231996 81.12813 
L 359.482507 81.298176 
L 360.711269 81.063568 
L 361.919025 80.674213 
L 363.106482 79.459443 
L 364.274311 78.261391 
L 365.42315 77.779213 
L 366.553606 76.525251 
L 367.66626 75.921414 
L 368.761662 74.497269 
L 369.84034 72.884768 
L 370.902796 71.351224 
L 371.949512 70.683006 
L 372.980947 70.7415 
L 373.997541 68.965692 
L 374.999714 68.661756 
L 375.98787 68.2691 
L 376.962396 68.291073 
L 377.923663 68.169771 
L 378.872027 67.343429 
L 379.807829 67.606163 
L 380.731398 67.35844 
L 381.64305 66.548737 
L 382.543088 66.257452 
L 383.431804 64.762833 
L 384.309481 64.550466 
L 385.176388 63.35891 
L 386.032786 62.487416 
L 386.878929 62.256569 
L 387.715057 61.585946 
L 388.541406 61.300795 
L 389.358202 60.968936 
L 390.165662 60.559591 
L 390.963999 60.145415 
L 391.753415 60.705582 
L 392.534108 59.499473 
L 393.306269 59.491039 
L 394.070083 59.062376 
L 394.825726 58.016652 
L 395.573374 56.659687 
L 396.313193 57.493496 
L 397.045345 57.346442 
L 397.769987 57.475699 
L 398.487273 57.130921 
" clip-path="url(#p22512d9c77)" style="fill: none; stroke: #ff7f0e; stroke-width: 1.5; stroke-linecap: square"/>
    <defs>
     <path id="m71f17b6184" d="M 0 3 
C 0.795609 3 1.55874 2.683901 2.12132 2.12132 
C 2.683901 1.55874 3 0.795609 3 0 
C 3 -0.795609 2.683901 -1.55874 2.12132 -2.12132 
C 1.55874 -2.683901 0.795609 -3 0 -3 
C -0.795609 -3 -1.55874 -2.683901 -2.12132 -2.12132 
C -2.683901 -1.55874 -3 -0.795609 -3 0 
C -3 0.795609 -2.683901 1.55874 -2.12132 2.12132 
C -1.55874 2.683901 -0.795609 3 0 3 
z
" style="stroke: #ff7f0e"/>
    </defs>
    <g clip-path="url(#p22512d9c77)">
     <use xlink:href="#m71f17b6184" x="-1" y="400.80683" style="fill: #ff7f0e; stroke: #ff7f0e"/>
     <use xlink:href="#m71f17b6184" x="73.832727" y="287.09058" style="fill: #ff7f0e; stroke: #ff7f0e"/>
     <use xlink:href="#m71f17b6184" x="122.804983" y="261.646985" style="fill: #ff7f0e; stroke: #ff7f0e"/>
     <use xlink:href="#m71f17b6184" x="151.451916" y="238.88902" style="fill: #ff7f0e; stroke: #ff7f0e"/>
     <use xlink:href="#m71f17b6184" x="171.777238" y="224.781787" style="fill: #ff7f0e; stroke: #ff7f0e"/>
     <use xlink:href="#m71f17b6184" x="187.542783" y="212.536297" style="fill: #ff7f0e; stroke: #ff7f0e"/>
     <use xlink:href="#m71f17b6184" x="200.424171" y="202.302737" style="fill: #ff7f0e; stroke: #ff7f0e"/>
     <use xlink:href="#m71f17b6184" x="211.315229" y="193.329103" style="fill: #ff7f0e; stroke: #ff7f0e"/>
     <use xlink:href="#m71f17b6184" x="220.749493" y="187.020836" style="fill: #ff7f0e; stroke: #ff7f0e"/>
     <use xlink:href="#m71f17b6184" x="229.071104" y="180.981808" style="fill: #ff7f0e; stroke: #ff7f0e"/>
     <use xlink:href="#m71f17b6184" x="236.515038" y="174.668541" style="fill: #ff7f0e; stroke: #ff7f0e"/>
     <use xlink:href="#m71f17b6184" x="243.248896" y="170.126889" style="fill: #ff7f0e; stroke: #ff7f0e"/>
     <use xlink:href="#m71f17b6184" x="249.396426" y="165.962028" style="fill: #ff7f0e; stroke: #ff7f0e"/>
     <use xlink:href="#m71f17b6184" x="255.051606" y="162.934205" style="fill: #ff7f0e; stroke: #ff7f0e"/>
     <use xlink:href="#m71f17b6184" x="260.287485" y="158.524513" style="fill: #ff7f0e; stroke: #ff7f0e"/>
     <use xlink:href="#m71f17b6184" x="265.161971" y="155.097258" style="fill: #ff7f0e; stroke: #ff7f0e"/>
     <use xlink:href="#m71f17b6184" x="269.721749" y="151.657278" style="fill: #ff7f0e; stroke: #ff7f0e"/>
     <use xlink:href="#m71f17b6184" x="274.005001" y="147.515013" style="fill: #ff7f0e; stroke: #ff7f0e"/>
     <use xlink:href="#m71f17b6184" x="278.043359" y="144.019511" style="fill: #ff7f0e; stroke: #ff7f0e"/>
     <use xlink:href="#m71f17b6184" x="281.863318" y="140.81257" style="fill: #ff7f0e; stroke: #ff7f0e"/>
     <use xlink:href="#m71f17b6184" x="285.487294" y="137.905138" style="fill: #ff7f0e; stroke: #ff7f0e"/>
     <use xlink:href="#m71f17b6184" x="288.934418" y="134.06163" style="fill: #ff7f0e; stroke: #ff7f0e"/>
     <use xlink:href="#m71f17b6184" x="292.221151" y="131.589055" style="fill: #ff7f0e; stroke: #ff7f0e"/>
     <use xlink:href="#m71f17b6184" x="295.361759" y="129.504864" style="fill: #ff7f0e; stroke: #ff7f0e"/>
     <use xlink:href="#m71f17b6184" x="298.368682" y="127.417242" style="fill: #ff7f0e; stroke: #ff7f0e"/>
     <use xlink:href="#m71f17b6184" x="301.252839" y="124.591777" style="fill: #ff7f0e; stroke: #ff7f0e"/>
     <use xlink:href="#m71f17b6184" x="304.023862" y="123.244446" style="fill: #ff7f0e; stroke: #ff7f0e"/>
     <use xlink:href="#m71f17b6184" x="306.690292" y="121.728251" style="fill: #ff7f0e; stroke: #ff7f0e"/>
     <use xlink:href="#m71f17b6184" x="309.25974" y="120.442796" style="fill: #ff7f0e; stroke: #ff7f0e"/>
     <use xlink:href="#m71f17b6184" x="311.739013" y="118.222654" style="fill: #ff7f0e; stroke: #ff7f0e"/>
     <use xlink:href="#m71f17b6184" x="314.134227" y="116.605545" style="fill: #ff7f0e; stroke: #ff7f0e"/>
     <use xlink:href="#m71f17b6184" x="316.450894" y="115.15636" style="fill: #ff7f0e; stroke: #ff7f0e"/>
     <use xlink:href="#m71f17b6184" x="318.694004" y="112.845363" style="fill: #ff7f0e; stroke: #ff7f0e"/>
     <use xlink:href="#m71f17b6184" x="320.868084" y="111.622827" style="fill: #ff7f0e; stroke: #ff7f0e"/>
     <use xlink:href="#m71f17b6184" x="322.977257" y="109.993281" style="fill: #ff7f0e; stroke: #ff7f0e"/>
     <use xlink:href="#m71f17b6184" x="325.025285" y="107.991553" style="fill: #ff7f0e; stroke: #ff7f0e"/>
     <use xlink:href="#m71f17b6184" x="327.015615" y="106.462929" style="fill: #ff7f0e; stroke: #ff7f0e"/>
     <use xlink:href="#m71f17b6184" x="328.951408" y="104.58176" style="fill: #ff7f0e; stroke: #ff7f0e"/>
     <use xlink:href="#m71f17b6184" x="330.835574" y="102.965795" style="fill: #ff7f0e; stroke: #ff7f0e"/>
     <use xlink:href="#m71f17b6184" x="332.670795" y="101.875522" style="fill: #ff7f0e; stroke: #ff7f0e"/>
     <use xlink:href="#m71f17b6184" x="334.459549" y="101.361959" style="fill: #ff7f0e; stroke: #ff7f0e"/>
     <use xlink:href="#m71f17b6184" x="336.204132" y="100.799776" style="fill: #ff7f0e; stroke: #ff7f0e"/>
     <use xlink:href="#m71f17b6184" x="337.906673" y="98.999869" style="fill: #ff7f0e; stroke: #ff7f0e"/>
     <use xlink:href="#m71f17b6184" x="339.569151" y="96.926426" style="fill: #ff7f0e; stroke: #ff7f0e"/>
     <use xlink:href="#m71f17b6184" x="341.193407" y="96.352915" style="fill: #ff7f0e; stroke: #ff7f0e"/>
     <use xlink:href="#m71f17b6184" x="342.78116" y="94.877075" style="fill: #ff7f0e; stroke: #ff7f0e"/>
     <use xlink:href="#m71f17b6184" x="344.334014" y="93.449402" style="fill: #ff7f0e; stroke: #ff7f0e"/>
     <use xlink:href="#m71f17b6184" x="345.853471" y="93.542256" style="fill: #ff7f0e; stroke: #ff7f0e"/>
     <use xlink:href="#m71f17b6184" x="347.340937" y="92.287678" style="fill: #ff7f0e; stroke: #ff7f0e"/>
     <use xlink:href="#m71f17b6184" x="348.797732" y="90.777898" style="fill: #ff7f0e; stroke: #ff7f0e"/>
     <use xlink:href="#m71f17b6184" x="350.225094" y="89.209302" style="fill: #ff7f0e; stroke: #ff7f0e"/>
     <use xlink:href="#m71f17b6184" x="351.62419" y="87.923151" style="fill: #ff7f0e; stroke: #ff7f0e"/>
     <use xlink:href="#m71f17b6184" x="352.996117" y="86.818575" style="fill: #ff7f0e; stroke: #ff7f0e"/>
     <use xlink:href="#m71f17b6184" x="354.341911" y="84.670732" style="fill: #ff7f0e; stroke: #ff7f0e"/>
     <use xlink:href="#m71f17b6184" x="355.662548" y="82.694635" style="fill: #ff7f0e; stroke: #ff7f0e"/>
     <use xlink:href="#m71f17b6184" x="356.958952" y="81.920991" style="fill: #ff7f0e; stroke: #ff7f0e"/>
     <use xlink:href="#m71f17b6184" x="358.231996" y="81.12813" style="fill: #ff7f0e; stroke: #ff7f0e"/>
     <use xlink:href="#m71f17b6184" x="359.482507" y="81.298176" style="fill: #ff7f0e; stroke: #ff7f0e"/>
     <use xlink:href="#m71f17b6184" x="360.711269" y="81.063568" style="fill: #ff7f0e; stroke: #ff7f0e"/>
     <use xlink:href="#m71f17b6184" x="361.919025" y="80.674213" style="fill: #ff7f0e; stroke: #ff7f0e"/>
     <use xlink:href="#m71f17b6184" x="363.106482" y="79.459443" style="fill: #ff7f0e; stroke: #ff7f0e"/>
     <use xlink:href="#m71f17b6184" x="364.274311" y="78.261391" style="fill: #ff7f0e; stroke: #ff7f0e"/>
     <use xlink:href="#m71f17b6184" x="365.42315" y="77.779213" style="fill: #ff7f0e; stroke: #ff7f0e"/>
     <use xlink:href="#m71f17b6184" x="366.553606" y="76.525251" style="fill: #ff7f0e; stroke: #ff7f0e"/>
     <use xlink:href="#m71f17b6184" x="367.66626" y="75.921414" style="fill: #ff7f0e; stroke: #ff7f0e"/>
     <use xlink:href="#m71f17b6184" x="368.761662" y="74.497269" style="fill: #ff7f0e; stroke: #ff7f0e"/>
     <use xlink:href="#m71f17b6184" x="369.84034" y="72.884768" style="fill: #ff7f0e; stroke: #ff7f0e"/>
     <use xlink:href="#m71f17b6184" x="370.902796" y="71.351224" style="fill: #ff7f0e; stroke: #ff7f0e"/>
     <use xlink:href="#m71f17b6184" x="371.949512" y="70.683006" style="fill: #ff7f0e; stroke: #ff7f0e"/>
     <use xlink:href="#m71f17b6184" x="372.980947" y="70.7415" style="fill: #ff7f0e; stroke: #ff7f0e"/>
     <use xlink:href="#m71f17b6184" x="373.997541" y="68.965692" style="fill: #ff7f0e; stroke: #ff7f0e"/>
     <use xlink:href="#m71f17b6184" x="374.999714" y="68.661756" style="fill: #ff7f0e; stroke: #ff7f0e"/>
     <use xlink:href="#m71f17b6184" x="375.98787" y="68.2691" style="fill: #ff7f0e; stroke: #ff7f0e"/>
     <use xlink:href="#m71f17b6184" x="376.962396" y="68.291073" style="fill: #ff7f0e; stroke: #ff7f0e"/>
     <use xlink:href="#m71f17b6184" x="377.923663" y="68.169771" style="fill: #ff7f0e; stroke: #ff7f0e"/>
     <use xlink:href="#m71f17b6184" x="378.872027" y="67.343429" style="fill: #ff7f0e; stroke: #ff7f0e"/>
     <use xlink:href="#m71f17b6184" x="379.807829" y="67.606163" style="fill: #ff7f0e; stroke: #ff7f0e"/>
     <use xlink:href="#m71f17b6184" x="380.731398" y="67.35844" style="fill: #ff7f0e; stroke: #ff7f0e"/>
     <use xlink:href="#m71f17b6184" x="381.64305" y="66.548737" style="fill: #ff7f0e; stroke: #ff7f0e"/>
     <use xlink:href="#m71f17b6184" x="382.543088" y="66.257452" style="fill: #ff7f0e; stroke: #ff7f0e"/>
     <use xlink:href="#m71f17b6184" x="383.431804" y="64.762833" style="fill: #ff7f0e; stroke: #ff7f0e"/>
     <use xlink:href="#m71f17b6184" x="384.309481" y="64.550466" style="fill: #ff7f0e; stroke: #ff7f0e"/>
     <use xlink:href="#m71f17b6184" x="385.176388" y="63.35891" style="fill: #ff7f0e; stroke: #ff7f0e"/>
     <use xlink:href="#m71f17b6184" x="386.032786" y="62.487416" style="fill: #ff7f0e; stroke: #ff7f0e"/>
     <use xlink:href="#m71f17b6184" x="386.878929" y="62.256569" style="fill: #ff7f0e; stroke: #ff7f0e"/>
     <use xlink:href="#m71f17b6184" x="387.715057" y="61.585946" style="fill: #ff7f0e; stroke: #ff7f0e"/>
     <use xlink:href="#m71f17b6184" x="388.541406" y="61.300795" style="fill: #ff7f0e; stroke: #ff7f0e"/>
     <use xlink:href="#m71f17b6184" x="389.358202" y="60.968936" style="fill: #ff7f0e; stroke: #ff7f0e"/>
     <use xlink:href="#m71f17b6184" x="390.165662" y="60.559591" style="fill: #ff7f0e; stroke: #ff7f0e"/>
     <use xlink:href="#m71f17b6184" x="390.963999" y="60.145415" style="fill: #ff7f0e; stroke: #ff7f0e"/>
     <use xlink:href="#m71f17b6184" x="391.753415" y="60.705582" style="fill: #ff7f0e; stroke: #ff7f0e"/>
     <use xlink:href="#m71f17b6184" x="392.534108" y="59.499473" style="fill: #ff7f0e; stroke: #ff7f0e"/>
     <use xlink:href="#m71f17b6184" x="393.306269" y="59.491039" style="fill: #ff7f0e; stroke: #ff7f0e"/>
     <use xlink:href="#m71f17b6184" x="394.070083" y="59.062376" style="fill: #ff7f0e; stroke: #ff7f0e"/>
     <use xlink:href="#m71f17b6184" x="394.825726" y="58.016652" style="fill: #ff7f0e; stroke: #ff7f0e"/>
     <use xlink:href="#m71f17b6184" x="395.573374" y="56.659687" style="fill: #ff7f0e; stroke: #ff7f0e"/>
     <use xlink:href="#m71f17b6184" x="396.313193" y="57.493496" style="fill: #ff7f0e; stroke: #ff7f0e"/>
     <use xlink:href="#m71f17b6184" x="397.045345" y="57.346442" style="fill: #ff7f0e; stroke: #ff7f0e"/>
     <use xlink:href="#m71f17b6184" x="397.769987" y="57.475699" style="fill: #ff7f0e; stroke: #ff7f0e"/>
     <use xlink:href="#m71f17b6184" x="398.487273" y="57.130921" style="fill: #ff7f0e; stroke: #ff7f0e"/>
    </g>
   </g>
   <g id="patch_3">
    <path d="M 57.6 307.584 
L 57.6 41.472 
" style="fill: none; stroke: #000000; stroke-width: 0.8; stroke-linejoin: miter; stroke-linecap: square"/>
   </g>
   <g id="patch_4">
    <path d="M 414.72 307.584 
L 414.72 41.472 
" style="fill: none; stroke: #000000; stroke-width: 0.8; stroke-linejoin: miter; stroke-linecap: square"/>
   </g>
   <g id="patch_5">
    <path d="M 57.6 307.584 
L 414.72 307.584 
" style="fill: none; stroke: #000000; stroke-width: 0.8; stroke-linejoin: miter; stroke-linecap: square"/>
   </g>
   <g id="patch_6">
    <path d="M 57.6 41.472 
L 414.72 41.472 
" style="fill: none; stroke: #000000; stroke-width: 0.8; stroke-linejoin: miter; stroke-linecap: square"/>
   </g>
   <g id="legend_1">
    <g id="patch_7">
     <path d="M 64.6 64.150125 
L 169.442187 64.150125 
Q 171.442187 64.150125 171.442187 62.150125 
L 171.442187 48.472 
Q 171.442187 46.472 169.442187 46.472 
L 64.6 46.472 
Q 62.6 46.472 62.6 48.472 
L 62.6 62.150125 
Q 62.6 64.150125 64.6 64.150125 
z
" style="fill: #ffffff; opacity: 0.8; stroke: #cccccc; stroke-linejoin: miter"/>
    </g>
    <g id="line2d_34">
     <path d="M 66.6 54.570438 
L 76.6 54.570438 
L 86.6 54.570438 
" style="fill: none; stroke-dasharray: 5.55,2.4; stroke-dashoffset: 0; stroke: #1f77b4; stroke-width: 1.5"/>
    </g>
    <g id="text_7">
     <!-- α:0.49+-0.002 -->
     <g transform="translate(94.6 58.070438) scale(0.1 -0.1)">
      <defs>
       <path id="DejaVuSans-3b1" d="M 2644 1628 
L 2506 2350 
Q 2366 3091 1809 3091 
Q 1391 3091 1200 2747 
Q 959 2316 959 1747 
Q 959 1059 1194 731 
Q 1431 397 1809 397 
Q 2228 397 2453 1063 
L 2644 1628 
z
M 2966 2584 
L 3275 3500 
L 3788 3500 
L 3147 1603 
L 3272 919 
Q 3300 766 3409 638 
Q 3538 488 3638 488 
L 3913 488 
L 3913 0 
L 3569 0 
Q 3275 0 3013 263 
Q 2884 394 2831 669 
Q 2688 322 2394 50 
Q 2256 -78 1809 -78 
Q 1075 -78 719 397 
Q 353 888 353 1747 
Q 353 2666 750 3097 
Q 1191 3578 1809 3578 
Q 2781 3578 2966 2584 
z
" transform="scale(0.015625)"/>
       <path id="DejaVuSans-3a" d="M 750 794 
L 1409 794 
L 1409 0 
L 750 0 
L 750 794 
z
M 750 3309 
L 1409 3309 
L 1409 2516 
L 750 2516 
L 750 3309 
z
" transform="scale(0.015625)"/>
       <path id="DejaVuSans-2e" d="M 684 794 
L 1344 794 
L 1344 0 
L 684 0 
L 684 794 
z
" transform="scale(0.015625)"/>
       <path id="DejaVuSans-34" d="M 2419 4116 
L 825 1625 
L 2419 1625 
L 2419 4116 
z
M 2253 4666 
L 3047 4666 
L 3047 1625 
L 3713 1625 
L 3713 1100 
L 3047 1100 
L 3047 0 
L 2419 0 
L 2419 1100 
L 313 1100 
L 313 1709 
L 2253 4666 
z
" transform="scale(0.015625)"/>
       <path id="DejaVuSans-39" d="M 703 97 
L 703 672 
Q 941 559 1184 500 
Q 1428 441 1663 441 
Q 2288 441 2617 861 
Q 2947 1281 2994 2138 
Q 2813 1869 2534 1725 
Q 2256 1581 1919 1581 
Q 1219 1581 811 2004 
Q 403 2428 403 3163 
Q 403 3881 828 4315 
Q 1253 4750 1959 4750 
Q 2769 4750 3195 4129 
Q 3622 3509 3622 2328 
Q 3622 1225 3098 567 
Q 2575 -91 1691 -91 
Q 1453 -91 1209 -44 
Q 966 3 703 97 
z
M 1959 2075 
Q 2384 2075 2632 2365 
Q 2881 2656 2881 3163 
Q 2881 3666 2632 3958 
Q 2384 4250 1959 4250 
Q 1534 4250 1286 3958 
Q 1038 3666 1038 3163 
Q 1038 2656 1286 2365 
Q 1534 2075 1959 2075 
z
" transform="scale(0.015625)"/>
       <path id="DejaVuSans-2b" d="M 2944 4013 
L 2944 2272 
L 4684 2272 
L 4684 1741 
L 2944 1741 
L 2944 0 
L 2419 0 
L 2419 1741 
L 678 1741 
L 678 2272 
L 2419 2272 
L 2419 4013 
L 2944 4013 
z
" transform="scale(0.015625)"/>
       <path id="DejaVuSans-2d" d="M 313 2009 
L 1997 2009 
L 1997 1497 
L 313 1497 
L 313 2009 
z
" transform="scale(0.015625)"/>
      </defs>
      <use xlink:href="#DejaVuSans-3b1"/>
      <use xlink:href="#DejaVuSans-3a" x="65.917969"/>
      <use xlink:href="#DejaVuSans-30" x="99.609375"/>
      <use xlink:href="#DejaVuSans-2e" x="163.232422"/>
      <use xlink:href="#DejaVuSans-34" x="195.019531"/>
      <use xlink:href="#DejaVuSans-39" x="258.642578"/>
      <use xlink:href="#DejaVuSans-2b" x="322.265625"/>
      <use xlink:href="#DejaVuSans-2d" x="406.054688"/>
      <use xlink:href="#DejaVuSans-30" x="442.138672"/>
      <use xlink:href="#DejaVuSans-2e" x="505.761719"/>
      <use xlink:href="#DejaVuSans-30" x="537.548828"/>
      <use xlink:href="#DejaVuSans-30" x="601.171875"/>
      <use xlink:href="#DejaVuSans-32" x="664.794922"/>
     </g>
    </g>
   </g>
  </g>
 </g>
 <defs>
  <clipPath id="p22512d9c77">
   <rect x="57.6" y="41.472" width="357.12" height="266.112"/>
  </clipPath>
 </defs>
</svg>
