<?xml version="1.0" encoding="utf-8" standalone="no"?>
<!DOCTYPE svg PUBLIC "-//W3C//DTD SVG 1.1//EN"
  "http://www.w3.org/Graphics/SVG/1.1/DTD/svg11.dtd">
<svg xmlns:xlink="http://www.w3.org/1999/xlink" width="460.8pt" height="345.6pt" viewBox="0 0 460.8 345.6" xmlns="http://www.w3.org/2000/svg" version="1.1">
 <metadata>
  <rdf:RDF xmlns:dc="http://purl.org/dc/elements/1.1/" xmlns:cc="http://creativecommons.org/ns#" xmlns:rdf="http://www.w3.org/1999/02/22-rdf-syntax-ns#">
   <cc:Work>
    <dc:type rdf:resource="http://purl.org/dc/dcmitype/StillImage"/>
    <dc:date>2023-09-06T15:30:54.826606</dc:date>
    <dc:format>image/svg+xml</dc:format>
    <dc:creator>
     <cc:Agent>
      <dc:title>Matplotlib v3.7.0, https://matplotlib.org/</dc:title>
     </cc:Agent>
    </dc:creator>
   </cc:Work>
  </rdf:RDF>
 </metadata>
 <defs>
  <style type="text/css">*{stroke-linejoin: round; stroke-linecap: butt}</style>
 </defs>
 <g id="figure_1">
  <g id="patch_1">
   <path d="M 0 345.6 
L 460.8 345.6 
L 460.8 0 
L 0 0 
z
" style="fill: #ffffff"/>
  </g>
  <g id="axes_1">
   <g id="patch_2">
    <path d="M 57.6 307.584 
L 414.72 307.584 
L 414.72 41.472 
L 57.6 41.472 
z
" style="fill: #ffffff"/>
   </g>
   <g id="matplotlib.axis_1">
    <g id="xtick_1">
     <g id="line2d_1">
      <defs>
       <path id="maaf9e32f10" d="M 0 0 
L 0 3.5 
" style="stroke: #000000; stroke-width: 0.8"/>
      </defs>
      <g>
       <use xlink:href="#maaf9e32f10" x="73.832727" y="307.584" style="stroke: #000000; stroke-width: 0.8"/>
      </g>
     </g>
     <g id="text_1">
      <!-- $\mathdefault{10^{0}}$ -->
      <g transform="translate(65.032727 322.182437) scale(0.1 -0.1)">
       <defs>
        <path id="DejaVuSans-31" d="M 794 531 
L 1825 531 
L 1825 4091 
L 703 3866 
L 703 4441 
L 1819 4666 
L 2450 4666 
L 2450 531 
L 3481 531 
L 3481 0 
L 794 0 
L 794 531 
z
" transform="scale(0.015625)"/>
        <path id="DejaVuSans-30" d="M 2034 4250 
Q 1547 4250 1301 3770 
Q 1056 3291 1056 2328 
Q 1056 1369 1301 889 
Q 1547 409 2034 409 
Q 2525 409 2770 889 
Q 3016 1369 3016 2328 
Q 3016 3291 2770 3770 
Q 2525 4250 2034 4250 
z
M 2034 4750 
Q 2819 4750 3233 4129 
Q 3647 3509 3647 2328 
Q 3647 1150 3233 529 
Q 2819 -91 2034 -91 
Q 1250 -91 836 529 
Q 422 1150 422 2328 
Q 422 3509 836 4129 
Q 1250 4750 2034 4750 
z
" transform="scale(0.015625)"/>
       </defs>
       <use xlink:href="#DejaVuSans-31" transform="translate(0 0.765625)"/>
       <use xlink:href="#DejaVuSans-30" transform="translate(63.623047 0.765625)"/>
       <use xlink:href="#DejaVuSans-30" transform="translate(128.203125 39.046875) scale(0.7)"/>
      </g>
     </g>
    </g>
    <g id="xtick_2">
     <g id="line2d_2">
      <g>
       <use xlink:href="#maaf9e32f10" x="236.515038" y="307.584" style="stroke: #000000; stroke-width: 0.8"/>
      </g>
     </g>
     <g id="text_2">
      <!-- $\mathdefault{10^{1}}$ -->
      <g transform="translate(227.715038 322.182437) scale(0.1 -0.1)">
       <use xlink:href="#DejaVuSans-31" transform="translate(0 0.684375)"/>
       <use xlink:href="#DejaVuSans-30" transform="translate(63.623047 0.684375)"/>
       <use xlink:href="#DejaVuSans-31" transform="translate(128.203125 38.965625) scale(0.7)"/>
      </g>
     </g>
    </g>
    <g id="xtick_3">
     <g id="line2d_3">
      <g>
       <use xlink:href="#maaf9e32f10" x="399.197349" y="307.584" style="stroke: #000000; stroke-width: 0.8"/>
      </g>
     </g>
     <g id="text_3">
      <!-- $\mathdefault{10^{2}}$ -->
      <g transform="translate(390.397349 322.182437) scale(0.1 -0.1)">
       <defs>
        <path id="DejaVuSans-32" d="M 1228 531 
L 3431 531 
L 3431 0 
L 469 0 
L 469 531 
Q 828 903 1448 1529 
Q 2069 2156 2228 2338 
Q 2531 2678 2651 2914 
Q 2772 3150 2772 3378 
Q 2772 3750 2511 3984 
Q 2250 4219 1831 4219 
Q 1534 4219 1204 4116 
Q 875 4013 500 3803 
L 500 4441 
Q 881 4594 1212 4672 
Q 1544 4750 1819 4750 
Q 2544 4750 2975 4387 
Q 3406 4025 3406 3419 
Q 3406 3131 3298 2873 
Q 3191 2616 2906 2266 
Q 2828 2175 2409 1742 
Q 1991 1309 1228 531 
z
" transform="scale(0.015625)"/>
       </defs>
       <use xlink:href="#DejaVuSans-31" transform="translate(0 0.765625)"/>
       <use xlink:href="#DejaVuSans-30" transform="translate(63.623047 0.765625)"/>
       <use xlink:href="#DejaVuSans-32" transform="translate(128.203125 39.046875) scale(0.7)"/>
      </g>
     </g>
    </g>
    <g id="xtick_4">
     <g id="line2d_4">
      <defs>
       <path id="m360b8935d0" d="M 0 0 
L 0 2 
" style="stroke: #000000; stroke-width: 0.6"/>
      </defs>
      <g>
       <use xlink:href="#m360b8935d0" x="58.067182" y="307.584" style="stroke: #000000; stroke-width: 0.6"/>
      </g>
     </g>
    </g>
    <g id="xtick_5">
     <g id="line2d_5">
      <g>
       <use xlink:href="#m360b8935d0" x="66.388793" y="307.584" style="stroke: #000000; stroke-width: 0.6"/>
      </g>
     </g>
    </g>
    <g id="xtick_6">
     <g id="line2d_6">
      <g>
       <use xlink:href="#m360b8935d0" x="122.804983" y="307.584" style="stroke: #000000; stroke-width: 0.6"/>
      </g>
     </g>
    </g>
    <g id="xtick_7">
     <g id="line2d_7">
      <g>
       <use xlink:href="#m360b8935d0" x="151.451916" y="307.584" style="stroke: #000000; stroke-width: 0.6"/>
      </g>
     </g>
    </g>
    <g id="xtick_8">
     <g id="line2d_8">
      <g>
       <use xlink:href="#m360b8935d0" x="171.777238" y="307.584" style="stroke: #000000; stroke-width: 0.6"/>
      </g>
     </g>
    </g>
    <g id="xtick_9">
     <g id="line2d_9">
      <g>
       <use xlink:href="#m360b8935d0" x="187.542783" y="307.584" style="stroke: #000000; stroke-width: 0.6"/>
      </g>
     </g>
    </g>
    <g id="xtick_10">
     <g id="line2d_10">
      <g>
       <use xlink:href="#m360b8935d0" x="200.424171" y="307.584" style="stroke: #000000; stroke-width: 0.6"/>
      </g>
     </g>
    </g>
    <g id="xtick_11">
     <g id="line2d_11">
      <g>
       <use xlink:href="#m360b8935d0" x="211.315229" y="307.584" style="stroke: #000000; stroke-width: 0.6"/>
      </g>
     </g>
    </g>
    <g id="xtick_12">
     <g id="line2d_12">
      <g>
       <use xlink:href="#m360b8935d0" x="220.749493" y="307.584" style="stroke: #000000; stroke-width: 0.6"/>
      </g>
     </g>
    </g>
    <g id="xtick_13">
     <g id="line2d_13">
      <g>
       <use xlink:href="#m360b8935d0" x="229.071104" y="307.584" style="stroke: #000000; stroke-width: 0.6"/>
      </g>
     </g>
    </g>
    <g id="xtick_14">
     <g id="line2d_14">
      <g>
       <use xlink:href="#m360b8935d0" x="285.487294" y="307.584" style="stroke: #000000; stroke-width: 0.6"/>
      </g>
     </g>
    </g>
    <g id="xtick_15">
     <g id="line2d_15">
      <g>
       <use xlink:href="#m360b8935d0" x="314.134227" y="307.584" style="stroke: #000000; stroke-width: 0.6"/>
      </g>
     </g>
    </g>
    <g id="xtick_16">
     <g id="line2d_16">
      <g>
       <use xlink:href="#m360b8935d0" x="334.459549" y="307.584" style="stroke: #000000; stroke-width: 0.6"/>
      </g>
     </g>
    </g>
    <g id="xtick_17">
     <g id="line2d_17">
      <g>
       <use xlink:href="#m360b8935d0" x="350.225094" y="307.584" style="stroke: #000000; stroke-width: 0.6"/>
      </g>
     </g>
    </g>
    <g id="xtick_18">
     <g id="line2d_18">
      <g>
       <use xlink:href="#m360b8935d0" x="363.106482" y="307.584" style="stroke: #000000; stroke-width: 0.6"/>
      </g>
     </g>
    </g>
    <g id="xtick_19">
     <g id="line2d_19">
      <g>
       <use xlink:href="#m360b8935d0" x="373.997541" y="307.584" style="stroke: #000000; stroke-width: 0.6"/>
      </g>
     </g>
    </g>
    <g id="xtick_20">
     <g id="line2d_20">
      <g>
       <use xlink:href="#m360b8935d0" x="383.431804" y="307.584" style="stroke: #000000; stroke-width: 0.6"/>
      </g>
     </g>
    </g>
    <g id="xtick_21">
     <g id="line2d_21">
      <g>
       <use xlink:href="#m360b8935d0" x="391.753415" y="307.584" style="stroke: #000000; stroke-width: 0.6"/>
      </g>
     </g>
    </g>
    <g id="text_4">
     <!-- t -->
     <g transform="translate(234.199844 335.860562) scale(0.1 -0.1)">
      <defs>
       <path id="DejaVuSans-74" d="M 1172 4494 
L 1172 3500 
L 2356 3500 
L 2356 3053 
L 1172 3053 
L 1172 1153 
Q 1172 725 1289 603 
Q 1406 481 1766 481 
L 2356 481 
L 2356 0 
L 1766 0 
Q 1100 0 847 248 
Q 594 497 594 1153 
L 594 3053 
L 172 3053 
L 172 3500 
L 594 3500 
L 594 4494 
L 1172 4494 
z
" transform="scale(0.015625)"/>
      </defs>
      <use xlink:href="#DejaVuSans-74"/>
     </g>
    </g>
   </g>
   <g id="matplotlib.axis_2">
    <g id="ytick_1">
     <g id="line2d_22">
      <defs>
       <path id="mb4e64467c9" d="M 0 0 
L -3.5 0 
" style="stroke: #000000; stroke-width: 0.8"/>
      </defs>
      <g>
       <use xlink:href="#mb4e64467c9" x="57.6" y="288.036789" style="stroke: #000000; stroke-width: 0.8"/>
      </g>
     </g>
     <g id="text_5">
      <!-- $\mathdefault{10^{0}}$ -->
      <g transform="translate(33 291.836008) scale(0.1 -0.1)">
       <use xlink:href="#DejaVuSans-31" transform="translate(0 0.765625)"/>
       <use xlink:href="#DejaVuSans-30" transform="translate(63.623047 0.765625)"/>
       <use xlink:href="#DejaVuSans-30" transform="translate(128.203125 39.046875) scale(0.7)"/>
      </g>
     </g>
    </g>
    <g id="ytick_2">
     <g id="line2d_23">
      <defs>
       <path id="mc0edde9452" d="M 0 0 
L -2 0 
" style="stroke: #000000; stroke-width: 0.6"/>
      </defs>
      <g>
       <use xlink:href="#mc0edde9452" x="57.6" y="299.367388" style="stroke: #000000; stroke-width: 0.6"/>
      </g>
     </g>
    </g>
    <g id="ytick_3">
     <g id="line2d_24">
      <g>
       <use xlink:href="#mc0edde9452" x="57.6" y="213.494893" style="stroke: #000000; stroke-width: 0.6"/>
      </g>
     </g>
    </g>
    <g id="ytick_4">
     <g id="line2d_25">
      <g>
       <use xlink:href="#mc0edde9452" x="57.6" y="169.890679" style="stroke: #000000; stroke-width: 0.6"/>
      </g>
     </g>
    </g>
    <g id="ytick_5">
     <g id="line2d_26">
      <g>
       <use xlink:href="#mc0edde9452" x="57.6" y="138.952996" style="stroke: #000000; stroke-width: 0.6"/>
      </g>
     </g>
    </g>
    <g id="ytick_6">
     <g id="line2d_27">
      <g>
       <use xlink:href="#mc0edde9452" x="57.6" y="114.955865" style="stroke: #000000; stroke-width: 0.6"/>
      </g>
     </g>
    </g>
    <g id="ytick_7">
     <g id="line2d_28">
      <g>
       <use xlink:href="#mc0edde9452" x="57.6" y="95.348782" style="stroke: #000000; stroke-width: 0.6"/>
      </g>
     </g>
    </g>
    <g id="ytick_8">
     <g id="line2d_29">
      <g>
       <use xlink:href="#mc0edde9452" x="57.6" y="78.771229" style="stroke: #000000; stroke-width: 0.6"/>
      </g>
     </g>
    </g>
    <g id="ytick_9">
     <g id="line2d_30">
      <g>
       <use xlink:href="#mc0edde9452" x="57.6" y="64.4111" style="stroke: #000000; stroke-width: 0.6"/>
      </g>
     </g>
    </g>
    <g id="ytick_10">
     <g id="line2d_31">
      <g>
       <use xlink:href="#mc0edde9452" x="57.6" y="51.744568" style="stroke: #000000; stroke-width: 0.6"/>
      </g>
     </g>
    </g>
    <g id="text_6">
     <!-- &lt;d&gt; -->
     <g transform="translate(26.920313 186.081906) rotate(-90) scale(0.1 -0.1)">
      <defs>
       <path id="DejaVuSans-3c" d="M 4684 3150 
L 1459 2003 
L 4684 863 
L 4684 294 
L 678 1747 
L 678 2266 
L 4684 3719 
L 4684 3150 
z
" transform="scale(0.015625)"/>
       <path id="DejaVuSans-64" d="M 2906 2969 
L 2906 4863 
L 3481 4863 
L 3481 0 
L 2906 0 
L 2906 525 
Q 2725 213 2448 61 
Q 2172 -91 1784 -91 
Q 1150 -91 751 415 
Q 353 922 353 1747 
Q 353 2572 751 3078 
Q 1150 3584 1784 3584 
Q 2172 3584 2448 3432 
Q 2725 3281 2906 2969 
z
M 947 1747 
Q 947 1113 1208 752 
Q 1469 391 1925 391 
Q 2381 391 2643 752 
Q 2906 1113 2906 1747 
Q 2906 2381 2643 2742 
Q 2381 3103 1925 3103 
Q 1469 3103 1208 2742 
Q 947 2381 947 1747 
z
" transform="scale(0.015625)"/>
       <path id="DejaVuSans-3e" d="M 678 3150 
L 678 3719 
L 4684 2266 
L 4684 1747 
L 678 294 
L 678 863 
L 3897 2003 
L 678 3150 
z
" transform="scale(0.015625)"/>
      </defs>
      <use xlink:href="#DejaVuSans-3c"/>
      <use xlink:href="#DejaVuSans-64" x="83.789062"/>
      <use xlink:href="#DejaVuSans-3e" x="147.265625"/>
     </g>
    </g>
   </g>
   <g id="line2d_32">
    <path d="M 40.252347 346.6 
L 73.832727 295.488 
L 122.804983 259.493072 
L 151.451916 238.437389 
L 171.777238 223.498144 
L 187.542783 211.910365 
L 200.424171 202.442461 
L 211.315229 194.437462 
L 220.749493 187.503216 
L 229.071104 181.386778 
L 236.515038 175.915438 
L 243.248896 170.966008 
L 249.396426 166.447533 
L 255.051606 162.290939 
L 260.287485 158.442534 
L 265.161971 154.859754 
L 269.721749 151.508288 
L 274.005001 148.360069 
L 278.043359 145.39185 
L 281.863318 142.584155 
L 285.487294 139.92051 
L 288.934418 137.386851 
L 292.221151 134.97108 
L 295.361759 132.662713 
L 298.368682 130.452605 
L 301.252839 128.332731 
L 304.023862 126.296011 
L 306.690292 124.336167 
L 309.25974 122.447606 
L 311.739013 120.625324 
L 314.134227 118.864826 
L 316.450894 117.162061 
L 318.694004 115.51336 
L 320.868084 113.915397 
L 322.977257 112.365142 
L 325.025285 110.859827 
L 327.015615 109.396922 
L 328.951408 107.974101 
L 330.835574 106.589227 
L 332.670795 105.240328 
L 334.459549 103.925582 
L 336.204132 102.643302 
L 337.906673 101.391923 
L 339.569151 100.169991 
L 341.193407 98.976152 
L 342.78116 97.809143 
L 344.334014 96.667785 
L 345.853471 95.550974 
L 347.340937 94.457677 
L 348.797732 93.386924 
L 350.225094 92.337803 
L 351.62419 91.309458 
L 352.996117 90.301083 
L 354.341911 89.311916 
L 355.662548 88.341239 
L 356.958952 87.388374 
L 358.231996 86.452678 
L 359.482507 85.533544 
L 360.711269 84.630396 
L 361.919025 83.742687 
L 363.106482 82.869899 
L 364.274311 82.011537 
L 365.42315 81.167133 
L 366.553606 80.33624 
L 367.66626 79.518432 
L 368.761662 78.713304 
L 369.84034 77.920469 
L 370.902796 77.139557 
L 371.949512 76.370214 
L 372.980947 75.612102 
L 373.997541 74.864899 
L 374.999714 74.128295 
L 375.98787 73.401994 
L 376.962396 72.685711 
L 377.923663 71.979173 
L 378.872027 71.28212 
L 379.807829 70.594299 
L 380.731398 69.91547 
L 381.64305 69.2454 
L 382.543088 68.583866 
L 383.431804 67.930654 
L 384.309481 67.285556 
L 385.176388 66.648374 
L 386.032786 66.018915 
L 386.878929 65.396995 
L 387.715057 64.782435 
L 388.541406 64.175063 
L 389.358202 63.574713 
L 390.165662 62.981224 
L 390.963999 62.394442 
L 391.753415 61.814215 
L 392.534108 61.240401 
L 393.306269 60.672857 
L 394.070083 60.11145 
L 394.825726 59.556046 
L 395.573374 59.006521 
L 396.313193 58.462749 
L 397.045345 57.924613 
L 397.769987 57.391996 
L 398.487273 56.864786 
" clip-path="url(#p58d1a2d574)" style="fill: none; stroke-dasharray: 5.55,2.4; stroke-dashoffset: 0; stroke: #1f77b4; stroke-width: 1.5"/>
   </g>
   <g id="line2d_33">
    <path d="M 35.358089 346.6 
L 73.832727 288.036789 
L 122.804983 262.617609 
L 151.451916 239.252804 
L 171.777238 224.654274 
L 187.542783 213.295365 
L 200.424171 204.199025 
L 211.315229 196.548673 
L 220.749493 189.215352 
L 229.071104 182.923513 
L 236.515038 176.980564 
L 243.248896 172.154905 
L 249.396426 166.493801 
L 255.051606 162.508088 
L 260.287485 158.544261 
L 265.161971 155.575106 
L 269.721749 152.176976 
L 274.005001 148.278534 
L 278.043359 145.568343 
L 281.863318 142.562078 
L 285.487294 140.41436 
L 288.934418 137.84384 
L 292.221151 134.693397 
L 295.361759 132.608635 
L 298.368682 130.267788 
L 301.252839 127.214237 
L 304.023862 125.833392 
L 306.690292 124.03103 
L 309.25974 122.290883 
L 311.739013 120.351189 
L 314.134227 117.624742 
L 316.450894 115.545414 
L 318.694004 114.040827 
L 320.868084 111.927934 
L 322.977257 110.330864 
L 325.025285 109.244906 
L 327.015615 108.747905 
L 328.951408 107.540124 
L 330.835574 106.207958 
L 332.670795 105.661365 
L 334.459549 102.803349 
L 336.204132 101.424574 
L 337.906673 100.64026 
L 339.569151 98.981773 
L 341.193407 97.634368 
L 342.78116 96.58824 
L 344.334014 95.536697 
L 345.853471 93.865128 
L 347.340937 93.930946 
L 348.797732 92.543065 
L 350.225094 91.838667 
L 351.62419 91.05656 
L 352.996117 90.070542 
L 354.341911 88.985114 
L 355.662548 88.544371 
L 356.958952 86.705742 
L 358.231996 85.50317 
L 359.482507 85.739259 
L 360.711269 86.186991 
L 361.919025 85.559929 
L 363.106482 84.335863 
L 364.274311 83.468526 
L 365.42315 82.292431 
L 366.553606 81.170513 
L 367.66626 80.393005 
L 368.761662 79.160929 
L 369.84034 79.015056 
L 370.902796 78.55346 
L 371.949512 77.309032 
L 372.980947 76.418169 
L 373.997541 75.524536 
L 374.999714 74.234451 
L 375.98787 73.085057 
L 376.962396 72.10691 
L 377.923663 71.718584 
L 378.872027 71.70517 
L 379.807829 71.232359 
L 380.731398 70.477225 
L 381.64305 69.916367 
L 382.543088 70.455286 
L 383.431804 69.25699 
L 384.309481 69.488751 
L 385.176388 68.90353 
L 386.032786 68.630903 
L 386.878929 68.755615 
L 387.715057 67.912693 
L 388.541406 65.719788 
L 389.358202 63.355243 
L 390.165662 61.959031 
L 390.963999 60.55793 
L 391.753415 60.227584 
L 392.534108 60.285832 
L 393.306269 60.175622 
L 394.070083 59.274227 
L 394.825726 58.614758 
L 395.573374 58.530773 
L 396.313193 57.629959 
L 397.045345 55.567498 
L 397.769987 54.44574 
L 398.487273 53.568 
" clip-path="url(#p58d1a2d574)" style="fill: none; stroke: #ff7f0e; stroke-width: 1.5; stroke-linecap: square"/>
    <defs>
     <path id="m6425d759c0" d="M 0 3 
C 0.795609 3 1.55874 2.683901 2.12132 2.12132 
C 2.683901 1.55874 3 0.795609 3 0 
C 3 -0.795609 2.683901 -1.55874 2.12132 -2.12132 
C 1.55874 -2.683901 0.795609 -3 0 -3 
C -0.795609 -3 -1.55874 -2.683901 -2.12132 -2.12132 
C -2.683901 -1.55874 -3 -0.795609 -3 0 
C -3 0.795609 -2.683901 1.55874 -2.12132 2.12132 
C -1.55874 2.683901 -0.795609 3 0 3 
z
" style="stroke: #ff7f0e"/>
    </defs>
    <g clip-path="url(#p58d1a2d574)">
     <use xlink:href="#m6425d759c0" x="-1" y="401.941558" style="fill: #ff7f0e; stroke: #ff7f0e"/>
     <use xlink:href="#m6425d759c0" x="73.832727" y="288.036789" style="fill: #ff7f0e; stroke: #ff7f0e"/>
     <use xlink:href="#m6425d759c0" x="122.804983" y="262.617609" style="fill: #ff7f0e; stroke: #ff7f0e"/>
     <use xlink:href="#m6425d759c0" x="151.451916" y="239.252804" style="fill: #ff7f0e; stroke: #ff7f0e"/>
     <use xlink:href="#m6425d759c0" x="171.777238" y="224.654274" style="fill: #ff7f0e; stroke: #ff7f0e"/>
     <use xlink:href="#m6425d759c0" x="187.542783" y="213.295365" style="fill: #ff7f0e; stroke: #ff7f0e"/>
     <use xlink:href="#m6425d759c0" x="200.424171" y="204.199025" style="fill: #ff7f0e; stroke: #ff7f0e"/>
     <use xlink:href="#m6425d759c0" x="211.315229" y="196.548673" style="fill: #ff7f0e; stroke: #ff7f0e"/>
     <use xlink:href="#m6425d759c0" x="220.749493" y="189.215352" style="fill: #ff7f0e; stroke: #ff7f0e"/>
     <use xlink:href="#m6425d759c0" x="229.071104" y="182.923513" style="fill: #ff7f0e; stroke: #ff7f0e"/>
     <use xlink:href="#m6425d759c0" x="236.515038" y="176.980564" style="fill: #ff7f0e; stroke: #ff7f0e"/>
     <use xlink:href="#m6425d759c0" x="243.248896" y="172.154905" style="fill: #ff7f0e; stroke: #ff7f0e"/>
     <use xlink:href="#m6425d759c0" x="249.396426" y="166.493801" style="fill: #ff7f0e; stroke: #ff7f0e"/>
     <use xlink:href="#m6425d759c0" x="255.051606" y="162.508088" style="fill: #ff7f0e; stroke: #ff7f0e"/>
     <use xlink:href="#m6425d759c0" x="260.287485" y="158.544261" style="fill: #ff7f0e; stroke: #ff7f0e"/>
     <use xlink:href="#m6425d759c0" x="265.161971" y="155.575106" style="fill: #ff7f0e; stroke: #ff7f0e"/>
     <use xlink:href="#m6425d759c0" x="269.721749" y="152.176976" style="fill: #ff7f0e; stroke: #ff7f0e"/>
     <use xlink:href="#m6425d759c0" x="274.005001" y="148.278534" style="fill: #ff7f0e; stroke: #ff7f0e"/>
     <use xlink:href="#m6425d759c0" x="278.043359" y="145.568343" style="fill: #ff7f0e; stroke: #ff7f0e"/>
     <use xlink:href="#m6425d759c0" x="281.863318" y="142.562078" style="fill: #ff7f0e; stroke: #ff7f0e"/>
     <use xlink:href="#m6425d759c0" x="285.487294" y="140.41436" style="fill: #ff7f0e; stroke: #ff7f0e"/>
     <use xlink:href="#m6425d759c0" x="288.934418" y="137.84384" style="fill: #ff7f0e; stroke: #ff7f0e"/>
     <use xlink:href="#m6425d759c0" x="292.221151" y="134.693397" style="fill: #ff7f0e; stroke: #ff7f0e"/>
     <use xlink:href="#m6425d759c0" x="295.361759" y="132.608635" style="fill: #ff7f0e; stroke: #ff7f0e"/>
     <use xlink:href="#m6425d759c0" x="298.368682" y="130.267788" style="fill: #ff7f0e; stroke: #ff7f0e"/>
     <use xlink:href="#m6425d759c0" x="301.252839" y="127.214237" style="fill: #ff7f0e; stroke: #ff7f0e"/>
     <use xlink:href="#m6425d759c0" x="304.023862" y="125.833392" style="fill: #ff7f0e; stroke: #ff7f0e"/>
     <use xlink:href="#m6425d759c0" x="306.690292" y="124.03103" style="fill: #ff7f0e; stroke: #ff7f0e"/>
     <use xlink:href="#m6425d759c0" x="309.25974" y="122.290883" style="fill: #ff7f0e; stroke: #ff7f0e"/>
     <use xlink:href="#m6425d759c0" x="311.739013" y="120.351189" style="fill: #ff7f0e; stroke: #ff7f0e"/>
     <use xlink:href="#m6425d759c0" x="314.134227" y="117.624742" style="fill: #ff7f0e; stroke: #ff7f0e"/>
     <use xlink:href="#m6425d759c0" x="316.450894" y="115.545414" style="fill: #ff7f0e; stroke: #ff7f0e"/>
     <use xlink:href="#m6425d759c0" x="318.694004" y="114.040827" style="fill: #ff7f0e; stroke: #ff7f0e"/>
     <use xlink:href="#m6425d759c0" x="320.868084" y="111.927934" style="fill: #ff7f0e; stroke: #ff7f0e"/>
     <use xlink:href="#m6425d759c0" x="322.977257" y="110.330864" style="fill: #ff7f0e; stroke: #ff7f0e"/>
     <use xlink:href="#m6425d759c0" x="325.025285" y="109.244906" style="fill: #ff7f0e; stroke: #ff7f0e"/>
     <use xlink:href="#m6425d759c0" x="327.015615" y="108.747905" style="fill: #ff7f0e; stroke: #ff7f0e"/>
     <use xlink:href="#m6425d759c0" x="328.951408" y="107.540124" style="fill: #ff7f0e; stroke: #ff7f0e"/>
     <use xlink:href="#m6425d759c0" x="330.835574" y="106.207958" style="fill: #ff7f0e; stroke: #ff7f0e"/>
     <use xlink:href="#m6425d759c0" x="332.670795" y="105.661365" style="fill: #ff7f0e; stroke: #ff7f0e"/>
     <use xlink:href="#m6425d759c0" x="334.459549" y="102.803349" style="fill: #ff7f0e; stroke: #ff7f0e"/>
     <use xlink:href="#m6425d759c0" x="336.204132" y="101.424574" style="fill: #ff7f0e; stroke: #ff7f0e"/>
     <use xlink:href="#m6425d759c0" x="337.906673" y="100.64026" style="fill: #ff7f0e; stroke: #ff7f0e"/>
     <use xlink:href="#m6425d759c0" x="339.569151" y="98.981773" style="fill: #ff7f0e; stroke: #ff7f0e"/>
     <use xlink:href="#m6425d759c0" x="341.193407" y="97.634368" style="fill: #ff7f0e; stroke: #ff7f0e"/>
     <use xlink:href="#m6425d759c0" x="342.78116" y="96.58824" style="fill: #ff7f0e; stroke: #ff7f0e"/>
     <use xlink:href="#m6425d759c0" x="344.334014" y="95.536697" style="fill: #ff7f0e; stroke: #ff7f0e"/>
     <use xlink:href="#m6425d759c0" x="345.853471" y="93.865128" style="fill: #ff7f0e; stroke: #ff7f0e"/>
     <use xlink:href="#m6425d759c0" x="347.340937" y="93.930946" style="fill: #ff7f0e; stroke: #ff7f0e"/>
     <use xlink:href="#m6425d759c0" x="348.797732" y="92.543065" style="fill: #ff7f0e; stroke: #ff7f0e"/>
     <use xlink:href="#m6425d759c0" x="350.225094" y="91.838667" style="fill: #ff7f0e; stroke: #ff7f0e"/>
     <use xlink:href="#m6425d759c0" x="351.62419" y="91.05656" style="fill: #ff7f0e; stroke: #ff7f0e"/>
     <use xlink:href="#m6425d759c0" x="352.996117" y="90.070542" style="fill: #ff7f0e; stroke: #ff7f0e"/>
     <use xlink:href="#m6425d759c0" x="354.341911" y="88.985114" style="fill: #ff7f0e; stroke: #ff7f0e"/>
     <use xlink:href="#m6425d759c0" x="355.662548" y="88.544371" style="fill: #ff7f0e; stroke: #ff7f0e"/>
     <use xlink:href="#m6425d759c0" x="356.958952" y="86.705742" style="fill: #ff7f0e; stroke: #ff7f0e"/>
     <use xlink:href="#m6425d759c0" x="358.231996" y="85.50317" style="fill: #ff7f0e; stroke: #ff7f0e"/>
     <use xlink:href="#m6425d759c0" x="359.482507" y="85.739259" style="fill: #ff7f0e; stroke: #ff7f0e"/>
     <use xlink:href="#m6425d759c0" x="360.711269" y="86.186991" style="fill: #ff7f0e; stroke: #ff7f0e"/>
     <use xlink:href="#m6425d759c0" x="361.919025" y="85.559929" style="fill: #ff7f0e; stroke: #ff7f0e"/>
     <use xlink:href="#m6425d759c0" x="363.106482" y="84.335863" style="fill: #ff7f0e; stroke: #ff7f0e"/>
     <use xlink:href="#m6425d759c0" x="364.274311" y="83.468526" style="fill: #ff7f0e; stroke: #ff7f0e"/>
     <use xlink:href="#m6425d759c0" x="365.42315" y="82.292431" style="fill: #ff7f0e; stroke: #ff7f0e"/>
     <use xlink:href="#m6425d759c0" x="366.553606" y="81.170513" style="fill: #ff7f0e; stroke: #ff7f0e"/>
     <use xlink:href="#m6425d759c0" x="367.66626" y="80.393005" style="fill: #ff7f0e; stroke: #ff7f0e"/>
     <use xlink:href="#m6425d759c0" x="368.761662" y="79.160929" style="fill: #ff7f0e; stroke: #ff7f0e"/>
     <use xlink:href="#m6425d759c0" x="369.84034" y="79.015056" style="fill: #ff7f0e; stroke: #ff7f0e"/>
     <use xlink:href="#m6425d759c0" x="370.902796" y="78.55346" style="fill: #ff7f0e; stroke: #ff7f0e"/>
     <use xlink:href="#m6425d759c0" x="371.949512" y="77.309032" style="fill: #ff7f0e; stroke: #ff7f0e"/>
     <use xlink:href="#m6425d759c0" x="372.980947" y="76.418169" style="fill: #ff7f0e; stroke: #ff7f0e"/>
     <use xlink:href="#m6425d759c0" x="373.997541" y="75.524536" style="fill: #ff7f0e; stroke: #ff7f0e"/>
     <use xlink:href="#m6425d759c0" x="374.999714" y="74.234451" style="fill: #ff7f0e; stroke: #ff7f0e"/>
     <use xlink:href="#m6425d759c0" x="375.98787" y="73.085057" style="fill: #ff7f0e; stroke: #ff7f0e"/>
     <use xlink:href="#m6425d759c0" x="376.962396" y="72.10691" style="fill: #ff7f0e; stroke: #ff7f0e"/>
     <use xlink:href="#m6425d759c0" x="377.923663" y="71.718584" style="fill: #ff7f0e; stroke: #ff7f0e"/>
     <use xlink:href="#m6425d759c0" x="378.872027" y="71.70517" style="fill: #ff7f0e; stroke: #ff7f0e"/>
     <use xlink:href="#m6425d759c0" x="379.807829" y="71.232359" style="fill: #ff7f0e; stroke: #ff7f0e"/>
     <use xlink:href="#m6425d759c0" x="380.731398" y="70.477225" style="fill: #ff7f0e; stroke: #ff7f0e"/>
     <use xlink:href="#m6425d759c0" x="381.64305" y="69.916367" style="fill: #ff7f0e; stroke: #ff7f0e"/>
     <use xlink:href="#m6425d759c0" x="382.543088" y="70.455286" style="fill: #ff7f0e; stroke: #ff7f0e"/>
     <use xlink:href="#m6425d759c0" x="383.431804" y="69.25699" style="fill: #ff7f0e; stroke: #ff7f0e"/>
     <use xlink:href="#m6425d759c0" x="384.309481" y="69.488751" style="fill: #ff7f0e; stroke: #ff7f0e"/>
     <use xlink:href="#m6425d759c0" x="385.176388" y="68.90353" style="fill: #ff7f0e; stroke: #ff7f0e"/>
     <use xlink:href="#m6425d759c0" x="386.032786" y="68.630903" style="fill: #ff7f0e; stroke: #ff7f0e"/>
     <use xlink:href="#m6425d759c0" x="386.878929" y="68.755615" style="fill: #ff7f0e; stroke: #ff7f0e"/>
     <use xlink:href="#m6425d759c0" x="387.715057" y="67.912693" style="fill: #ff7f0e; stroke: #ff7f0e"/>
     <use xlink:href="#m6425d759c0" x="388.541406" y="65.719788" style="fill: #ff7f0e; stroke: #ff7f0e"/>
     <use xlink:href="#m6425d759c0" x="389.358202" y="63.355243" style="fill: #ff7f0e; stroke: #ff7f0e"/>
     <use xlink:href="#m6425d759c0" x="390.165662" y="61.959031" style="fill: #ff7f0e; stroke: #ff7f0e"/>
     <use xlink:href="#m6425d759c0" x="390.963999" y="60.55793" style="fill: #ff7f0e; stroke: #ff7f0e"/>
     <use xlink:href="#m6425d759c0" x="391.753415" y="60.227584" style="fill: #ff7f0e; stroke: #ff7f0e"/>
     <use xlink:href="#m6425d759c0" x="392.534108" y="60.285832" style="fill: #ff7f0e; stroke: #ff7f0e"/>
     <use xlink:href="#m6425d759c0" x="393.306269" y="60.175622" style="fill: #ff7f0e; stroke: #ff7f0e"/>
     <use xlink:href="#m6425d759c0" x="394.070083" y="59.274227" style="fill: #ff7f0e; stroke: #ff7f0e"/>
     <use xlink:href="#m6425d759c0" x="394.825726" y="58.614758" style="fill: #ff7f0e; stroke: #ff7f0e"/>
     <use xlink:href="#m6425d759c0" x="395.573374" y="58.530773" style="fill: #ff7f0e; stroke: #ff7f0e"/>
     <use xlink:href="#m6425d759c0" x="396.313193" y="57.629959" style="fill: #ff7f0e; stroke: #ff7f0e"/>
     <use xlink:href="#m6425d759c0" x="397.045345" y="55.567498" style="fill: #ff7f0e; stroke: #ff7f0e"/>
     <use xlink:href="#m6425d759c0" x="397.769987" y="54.44574" style="fill: #ff7f0e; stroke: #ff7f0e"/>
     <use xlink:href="#m6425d759c0" x="398.487273" y="53.568" style="fill: #ff7f0e; stroke: #ff7f0e"/>
    </g>
   </g>
   <g id="patch_3">
    <path d="M 57.6 307.584 
L 57.6 41.472 
" style="fill: none; stroke: #000000; stroke-width: 0.8; stroke-linejoin: miter; stroke-linecap: square"/>
   </g>
   <g id="patch_4">
    <path d="M 414.72 307.584 
L 414.72 41.472 
" style="fill: none; stroke: #000000; stroke-width: 0.8; stroke-linejoin: miter; stroke-linecap: square"/>
   </g>
   <g id="patch_5">
    <path d="M 57.6 307.584 
L 414.72 307.584 
" style="fill: none; stroke: #000000; stroke-width: 0.8; stroke-linejoin: miter; stroke-linecap: square"/>
   </g>
   <g id="patch_6">
    <path d="M 57.6 41.472 
L 414.72 41.472 
" style="fill: none; stroke: #000000; stroke-width: 0.8; stroke-linejoin: miter; stroke-linecap: square"/>
   </g>
   <g id="legend_1">
    <g id="patch_7">
     <path d="M 64.6 64.150125 
L 175.804688 64.150125 
Q 177.804688 64.150125 177.804688 62.150125 
L 177.804688 48.472 
Q 177.804688 46.472 175.804688 46.472 
L 64.6 46.472 
Q 62.6 46.472 62.6 48.472 
L 62.6 62.150125 
Q 62.6 64.150125 64.6 64.150125 
z
" style="fill: #ffffff; opacity: 0.8; stroke: #cccccc; stroke-linejoin: miter"/>
    </g>
    <g id="line2d_34">
     <path d="M 66.6 54.570438 
L 76.6 54.570438 
L 86.6 54.570438 
" style="fill: none; stroke-dasharray: 5.55,2.4; stroke-dashoffset: 0; stroke: #1f77b4; stroke-width: 1.5"/>
    </g>
    <g id="text_7">
     <!-- α:0.483+-0.002 -->
     <g transform="translate(94.6 58.070438) scale(0.1 -0.1)">
      <defs>
       <path id="DejaVuSans-3b1" d="M 2644 1628 
L 2506 2350 
Q 2366 3091 1809 3091 
Q 1391 3091 1200 2747 
Q 959 2316 959 1747 
Q 959 1059 1194 731 
Q 1431 397 1809 397 
Q 2228 397 2453 1063 
L 2644 1628 
z
M 2966 2584 
L 3275 3500 
L 3788 3500 
L 3147 1603 
L 3272 919 
Q 3300 766 3409 638 
Q 3538 488 3638 488 
L 3913 488 
L 3913 0 
L 3569 0 
Q 3275 0 3013 263 
Q 2884 394 2831 669 
Q 2688 322 2394 50 
Q 2256 -78 1809 -78 
Q 1075 -78 719 397 
Q 353 888 353 1747 
Q 353 2666 750 3097 
Q 1191 3578 1809 3578 
Q 2781 3578 2966 2584 
z
" transform="scale(0.015625)"/>
       <path id="DejaVuSans-3a" d="M 750 794 
L 1409 794 
L 1409 0 
L 750 0 
L 750 794 
z
M 750 3309 
L 1409 3309 
L 1409 2516 
L 750 2516 
L 750 3309 
z
" transform="scale(0.015625)"/>
       <path id="DejaVuSans-2e" d="M 684 794 
L 1344 794 
L 1344 0 
L 684 0 
L 684 794 
z
" transform="scale(0.015625)"/>
       <path id="DejaVuSans-34" d="M 2419 4116 
L 825 1625 
L 2419 1625 
L 2419 4116 
z
M 2253 4666 
L 3047 4666 
L 3047 1625 
L 3713 1625 
L 3713 1100 
L 3047 1100 
L 3047 0 
L 2419 0 
L 2419 1100 
L 313 1100 
L 313 1709 
L 2253 4666 
z
" transform="scale(0.015625)"/>
       <path id="DejaVuSans-38" d="M 2034 2216 
Q 1584 2216 1326 1975 
Q 1069 1734 1069 1313 
Q 1069 891 1326 650 
Q 1584 409 2034 409 
Q 2484 409 2743 651 
Q 3003 894 3003 1313 
Q 3003 1734 2745 1975 
Q 2488 2216 2034 2216 
z
M 1403 2484 
Q 997 2584 770 2862 
Q 544 3141 544 3541 
Q 544 4100 942 4425 
Q 1341 4750 2034 4750 
Q 2731 4750 3128 4425 
Q 3525 4100 3525 3541 
Q 3525 3141 3298 2862 
Q 3072 2584 2669 2484 
Q 3125 2378 3379 2068 
Q 3634 1759 3634 1313 
Q 3634 634 3220 271 
Q 2806 -91 2034 -91 
Q 1263 -91 848 271 
Q 434 634 434 1313 
Q 434 1759 690 2068 
Q 947 2378 1403 2484 
z
M 1172 3481 
Q 1172 3119 1398 2916 
Q 1625 2713 2034 2713 
Q 2441 2713 2670 2916 
Q 2900 3119 2900 3481 
Q 2900 3844 2670 4047 
Q 2441 4250 2034 4250 
Q 1625 4250 1398 4047 
Q 1172 3844 1172 3481 
z
" transform="scale(0.015625)"/>
       <path id="DejaVuSans-33" d="M 2597 2516 
Q 3050 2419 3304 2112 
Q 3559 1806 3559 1356 
Q 3559 666 3084 287 
Q 2609 -91 1734 -91 
Q 1441 -91 1130 -33 
Q 819 25 488 141 
L 488 750 
Q 750 597 1062 519 
Q 1375 441 1716 441 
Q 2309 441 2620 675 
Q 2931 909 2931 1356 
Q 2931 1769 2642 2001 
Q 2353 2234 1838 2234 
L 1294 2234 
L 1294 2753 
L 1863 2753 
Q 2328 2753 2575 2939 
Q 2822 3125 2822 3475 
Q 2822 3834 2567 4026 
Q 2313 4219 1838 4219 
Q 1578 4219 1281 4162 
Q 984 4106 628 3988 
L 628 4550 
Q 988 4650 1302 4700 
Q 1616 4750 1894 4750 
Q 2613 4750 3031 4423 
Q 3450 4097 3450 3541 
Q 3450 3153 3228 2886 
Q 3006 2619 2597 2516 
z
" transform="scale(0.015625)"/>
       <path id="DejaVuSans-2b" d="M 2944 4013 
L 2944 2272 
L 4684 2272 
L 4684 1741 
L 2944 1741 
L 2944 0 
L 2419 0 
L 2419 1741 
L 678 1741 
L 678 2272 
L 2419 2272 
L 2419 4013 
L 2944 4013 
z
" transform="scale(0.015625)"/>
       <path id="DejaVuSans-2d" d="M 313 2009 
L 1997 2009 
L 1997 1497 
L 313 1497 
L 313 2009 
z
" transform="scale(0.015625)"/>
      </defs>
      <use xlink:href="#DejaVuSans-3b1"/>
      <use xlink:href="#DejaVuSans-3a" x="65.917969"/>
      <use xlink:href="#DejaVuSans-30" x="99.609375"/>
      <use xlink:href="#DejaVuSans-2e" x="163.232422"/>
      <use xlink:href="#DejaVuSans-34" x="195.019531"/>
      <use xlink:href="#DejaVuSans-38" x="258.642578"/>
      <use xlink:href="#DejaVuSans-33" x="322.265625"/>
      <use xlink:href="#DejaVuSans-2b" x="385.888672"/>
      <use xlink:href="#DejaVuSans-2d" x="469.677734"/>
      <use xlink:href="#DejaVuSans-30" x="505.761719"/>
      <use xlink:href="#DejaVuSans-2e" x="569.384766"/>
      <use xlink:href="#DejaVuSans-30" x="601.171875"/>
      <use xlink:href="#DejaVuSans-30" x="664.794922"/>
      <use xlink:href="#DejaVuSans-32" x="728.417969"/>
     </g>
    </g>
   </g>
  </g>
 </g>
 <defs>
  <clipPath id="p58d1a2d574">
   <rect x="57.6" y="41.472" width="357.12" height="266.112"/>
  </clipPath>
 </defs>
</svg>
