<?xml version="1.0" encoding="utf-8" standalone="no"?>
<!DOCTYPE svg PUBLIC "-//W3C//DTD SVG 1.1//EN"
  "http://www.w3.org/Graphics/SVG/1.1/DTD/svg11.dtd">
<svg xmlns:xlink="http://www.w3.org/1999/xlink" width="460.8pt" height="345.6pt" viewBox="0 0 460.8 345.6" xmlns="http://www.w3.org/2000/svg" version="1.1">
 <metadata>
  <rdf:RDF xmlns:dc="http://purl.org/dc/elements/1.1/" xmlns:cc="http://creativecommons.org/ns#" xmlns:rdf="http://www.w3.org/1999/02/22-rdf-syntax-ns#">
   <cc:Work>
    <dc:type rdf:resource="http://purl.org/dc/dcmitype/StillImage"/>
    <dc:date>2023-09-06T15:34:43.000186</dc:date>
    <dc:format>image/svg+xml</dc:format>
    <dc:creator>
     <cc:Agent>
      <dc:title>Matplotlib v3.7.0, https://matplotlib.org/</dc:title>
     </cc:Agent>
    </dc:creator>
   </cc:Work>
  </rdf:RDF>
 </metadata>
 <defs>
  <style type="text/css">*{stroke-linejoin: round; stroke-linecap: butt}</style>
 </defs>
 <g id="figure_1">
  <g id="patch_1">
   <path d="M 0 345.6 
L 460.8 345.6 
L 460.8 0 
L 0 0 
z
" style="fill: #ffffff"/>
  </g>
  <g id="axes_1">
   <g id="patch_2">
    <path d="M 57.6 307.584 
L 414.72 307.584 
L 414.72 41.472 
L 57.6 41.472 
z
" style="fill: #ffffff"/>
   </g>
   <g id="matplotlib.axis_1">
    <g id="xtick_1">
     <g id="line2d_1">
      <defs>
       <path id="mf056b0fe37" d="M 0 0 
L 0 3.5 
" style="stroke: #000000; stroke-width: 0.8"/>
      </defs>
      <g>
       <use xlink:href="#mf056b0fe37" x="70.519926" y="307.584" style="stroke: #000000; stroke-width: 0.8"/>
      </g>
     </g>
     <g id="text_1">
      <!-- 0 -->
      <g transform="translate(67.338676 322.182437) scale(0.1 -0.1)">
       <defs>
        <path id="DejaVuSans-30" d="M 2034 4250 
Q 1547 4250 1301 3770 
Q 1056 3291 1056 2328 
Q 1056 1369 1301 889 
Q 1547 409 2034 409 
Q 2525 409 2770 889 
Q 3016 1369 3016 2328 
Q 3016 3291 2770 3770 
Q 2525 4250 2034 4250 
z
M 2034 4750 
Q 2819 4750 3233 4129 
Q 3647 3509 3647 2328 
Q 3647 1150 3233 529 
Q 2819 -91 2034 -91 
Q 1250 -91 836 529 
Q 422 1150 422 2328 
Q 422 3509 836 4129 
Q 1250 4750 2034 4750 
z
" transform="scale(0.015625)"/>
       </defs>
       <use xlink:href="#DejaVuSans-30"/>
      </g>
     </g>
    </g>
    <g id="xtick_2">
     <g id="line2d_2">
      <g>
       <use xlink:href="#mf056b0fe37" x="136.775955" y="307.584" style="stroke: #000000; stroke-width: 0.8"/>
      </g>
     </g>
     <g id="text_2">
      <!-- 20 -->
      <g transform="translate(130.413455 322.182437) scale(0.1 -0.1)">
       <defs>
        <path id="DejaVuSans-32" d="M 1228 531 
L 3431 531 
L 3431 0 
L 469 0 
L 469 531 
Q 828 903 1448 1529 
Q 2069 2156 2228 2338 
Q 2531 2678 2651 2914 
Q 2772 3150 2772 3378 
Q 2772 3750 2511 3984 
Q 2250 4219 1831 4219 
Q 1534 4219 1204 4116 
Q 875 4013 500 3803 
L 500 4441 
Q 881 4594 1212 4672 
Q 1544 4750 1819 4750 
Q 2544 4750 2975 4387 
Q 3406 4025 3406 3419 
Q 3406 3131 3298 2873 
Q 3191 2616 2906 2266 
Q 2828 2175 2409 1742 
Q 1991 1309 1228 531 
z
" transform="scale(0.015625)"/>
       </defs>
       <use xlink:href="#DejaVuSans-32"/>
       <use xlink:href="#DejaVuSans-30" x="63.623047"/>
      </g>
     </g>
    </g>
    <g id="xtick_3">
     <g id="line2d_3">
      <g>
       <use xlink:href="#mf056b0fe37" x="203.031985" y="307.584" style="stroke: #000000; stroke-width: 0.8"/>
      </g>
     </g>
     <g id="text_3">
      <!-- 40 -->
      <g transform="translate(196.669485 322.182437) scale(0.1 -0.1)">
       <defs>
        <path id="DejaVuSans-34" d="M 2419 4116 
L 825 1625 
L 2419 1625 
L 2419 4116 
z
M 2253 4666 
L 3047 4666 
L 3047 1625 
L 3713 1625 
L 3713 1100 
L 3047 1100 
L 3047 0 
L 2419 0 
L 2419 1100 
L 313 1100 
L 313 1709 
L 2253 4666 
z
" transform="scale(0.015625)"/>
       </defs>
       <use xlink:href="#DejaVuSans-34"/>
       <use xlink:href="#DejaVuSans-30" x="63.623047"/>
      </g>
     </g>
    </g>
    <g id="xtick_4">
     <g id="line2d_4">
      <g>
       <use xlink:href="#mf056b0fe37" x="269.288015" y="307.584" style="stroke: #000000; stroke-width: 0.8"/>
      </g>
     </g>
     <g id="text_4">
      <!-- 60 -->
      <g transform="translate(262.925515 322.182437) scale(0.1 -0.1)">
       <defs>
        <path id="DejaVuSans-36" d="M 2113 2584 
Q 1688 2584 1439 2293 
Q 1191 2003 1191 1497 
Q 1191 994 1439 701 
Q 1688 409 2113 409 
Q 2538 409 2786 701 
Q 3034 994 3034 1497 
Q 3034 2003 2786 2293 
Q 2538 2584 2113 2584 
z
M 3366 4563 
L 3366 3988 
Q 3128 4100 2886 4159 
Q 2644 4219 2406 4219 
Q 1781 4219 1451 3797 
Q 1122 3375 1075 2522 
Q 1259 2794 1537 2939 
Q 1816 3084 2150 3084 
Q 2853 3084 3261 2657 
Q 3669 2231 3669 1497 
Q 3669 778 3244 343 
Q 2819 -91 2113 -91 
Q 1303 -91 875 529 
Q 447 1150 447 2328 
Q 447 3434 972 4092 
Q 1497 4750 2381 4750 
Q 2619 4750 2861 4703 
Q 3103 4656 3366 4563 
z
" transform="scale(0.015625)"/>
       </defs>
       <use xlink:href="#DejaVuSans-36"/>
       <use xlink:href="#DejaVuSans-30" x="63.623047"/>
      </g>
     </g>
    </g>
    <g id="xtick_5">
     <g id="line2d_5">
      <g>
       <use xlink:href="#mf056b0fe37" x="335.544045" y="307.584" style="stroke: #000000; stroke-width: 0.8"/>
      </g>
     </g>
     <g id="text_5">
      <!-- 80 -->
      <g transform="translate(329.181545 322.182437) scale(0.1 -0.1)">
       <defs>
        <path id="DejaVuSans-38" d="M 2034 2216 
Q 1584 2216 1326 1975 
Q 1069 1734 1069 1313 
Q 1069 891 1326 650 
Q 1584 409 2034 409 
Q 2484 409 2743 651 
Q 3003 894 3003 1313 
Q 3003 1734 2745 1975 
Q 2488 2216 2034 2216 
z
M 1403 2484 
Q 997 2584 770 2862 
Q 544 3141 544 3541 
Q 544 4100 942 4425 
Q 1341 4750 2034 4750 
Q 2731 4750 3128 4425 
Q 3525 4100 3525 3541 
Q 3525 3141 3298 2862 
Q 3072 2584 2669 2484 
Q 3125 2378 3379 2068 
Q 3634 1759 3634 1313 
Q 3634 634 3220 271 
Q 2806 -91 2034 -91 
Q 1263 -91 848 271 
Q 434 634 434 1313 
Q 434 1759 690 2068 
Q 947 2378 1403 2484 
z
M 1172 3481 
Q 1172 3119 1398 2916 
Q 1625 2713 2034 2713 
Q 2441 2713 2670 2916 
Q 2900 3119 2900 3481 
Q 2900 3844 2670 4047 
Q 2441 4250 2034 4250 
Q 1625 4250 1398 4047 
Q 1172 3844 1172 3481 
z
" transform="scale(0.015625)"/>
       </defs>
       <use xlink:href="#DejaVuSans-38"/>
       <use xlink:href="#DejaVuSans-30" x="63.623047"/>
      </g>
     </g>
    </g>
    <g id="xtick_6">
     <g id="line2d_6">
      <g>
       <use xlink:href="#mf056b0fe37" x="401.800074" y="307.584" style="stroke: #000000; stroke-width: 0.8"/>
      </g>
     </g>
     <g id="text_6">
      <!-- 100 -->
      <g transform="translate(392.256324 322.182437) scale(0.1 -0.1)">
       <defs>
        <path id="DejaVuSans-31" d="M 794 531 
L 1825 531 
L 1825 4091 
L 703 3866 
L 703 4441 
L 1819 4666 
L 2450 4666 
L 2450 531 
L 3481 531 
L 3481 0 
L 794 0 
L 794 531 
z
" transform="scale(0.015625)"/>
       </defs>
       <use xlink:href="#DejaVuSans-31"/>
       <use xlink:href="#DejaVuSans-30" x="63.623047"/>
       <use xlink:href="#DejaVuSans-30" x="127.246094"/>
      </g>
     </g>
    </g>
    <g id="text_7">
     <!-- t -->
     <g transform="translate(234.199844 335.860562) scale(0.1 -0.1)">
      <defs>
       <path id="DejaVuSans-74" d="M 1172 4494 
L 1172 3500 
L 2356 3500 
L 2356 3053 
L 1172 3053 
L 1172 1153 
Q 1172 725 1289 603 
Q 1406 481 1766 481 
L 2356 481 
L 2356 0 
L 1766 0 
Q 1100 0 847 248 
Q 594 497 594 1153 
L 594 3053 
L 172 3053 
L 172 3500 
L 594 3500 
L 594 4494 
L 1172 4494 
z
" transform="scale(0.015625)"/>
      </defs>
      <use xlink:href="#DejaVuSans-74"/>
     </g>
    </g>
   </g>
   <g id="matplotlib.axis_2">
    <g id="ytick_1">
     <g id="line2d_7">
      <defs>
       <path id="maf6809ca19" d="M 0 0 
L -3.5 0 
" style="stroke: #000000; stroke-width: 0.8"/>
      </defs>
      <g>
       <use xlink:href="#maf6809ca19" x="57.6" y="295.488" style="stroke: #000000; stroke-width: 0.8"/>
      </g>
     </g>
     <g id="text_8">
      <!-- 0.0 -->
      <g transform="translate(34.696875 299.287219) scale(0.1 -0.1)">
       <defs>
        <path id="DejaVuSans-2e" d="M 684 794 
L 1344 794 
L 1344 0 
L 684 0 
L 684 794 
z
" transform="scale(0.015625)"/>
       </defs>
       <use xlink:href="#DejaVuSans-30"/>
       <use xlink:href="#DejaVuSans-2e" x="63.623047"/>
       <use xlink:href="#DejaVuSans-30" x="95.410156"/>
      </g>
     </g>
    </g>
    <g id="ytick_2">
     <g id="line2d_8">
      <g>
       <use xlink:href="#maf6809ca19" x="57.6" y="239.923776" style="stroke: #000000; stroke-width: 0.8"/>
      </g>
     </g>
     <g id="text_9">
      <!-- 0.5 -->
      <g transform="translate(34.696875 243.722995) scale(0.1 -0.1)">
       <defs>
        <path id="DejaVuSans-35" d="M 691 4666 
L 3169 4666 
L 3169 4134 
L 1269 4134 
L 1269 2991 
Q 1406 3038 1543 3061 
Q 1681 3084 1819 3084 
Q 2600 3084 3056 2656 
Q 3513 2228 3513 1497 
Q 3513 744 3044 326 
Q 2575 -91 1722 -91 
Q 1428 -91 1123 -41 
Q 819 9 494 109 
L 494 744 
Q 775 591 1075 516 
Q 1375 441 1709 441 
Q 2250 441 2565 725 
Q 2881 1009 2881 1497 
Q 2881 1984 2565 2268 
Q 2250 2553 1709 2553 
Q 1456 2553 1204 2497 
Q 953 2441 691 2322 
L 691 4666 
z
" transform="scale(0.015625)"/>
       </defs>
       <use xlink:href="#DejaVuSans-30"/>
       <use xlink:href="#DejaVuSans-2e" x="63.623047"/>
       <use xlink:href="#DejaVuSans-35" x="95.410156"/>
      </g>
     </g>
    </g>
    <g id="ytick_3">
     <g id="line2d_9">
      <g>
       <use xlink:href="#maf6809ca19" x="57.6" y="184.359552" style="stroke: #000000; stroke-width: 0.8"/>
      </g>
     </g>
     <g id="text_10">
      <!-- 1.0 -->
      <g transform="translate(34.696875 188.158771) scale(0.1 -0.1)">
       <use xlink:href="#DejaVuSans-31"/>
       <use xlink:href="#DejaVuSans-2e" x="63.623047"/>
       <use xlink:href="#DejaVuSans-30" x="95.410156"/>
      </g>
     </g>
    </g>
    <g id="ytick_4">
     <g id="line2d_10">
      <g>
       <use xlink:href="#maf6809ca19" x="57.6" y="128.795328" style="stroke: #000000; stroke-width: 0.8"/>
      </g>
     </g>
     <g id="text_11">
      <!-- 1.5 -->
      <g transform="translate(34.696875 132.594547) scale(0.1 -0.1)">
       <use xlink:href="#DejaVuSans-31"/>
       <use xlink:href="#DejaVuSans-2e" x="63.623047"/>
       <use xlink:href="#DejaVuSans-35" x="95.410156"/>
      </g>
     </g>
    </g>
    <g id="ytick_5">
     <g id="line2d_11">
      <g>
       <use xlink:href="#maf6809ca19" x="57.6" y="73.231104" style="stroke: #000000; stroke-width: 0.8"/>
      </g>
     </g>
     <g id="text_12">
      <!-- 2.0 -->
      <g transform="translate(34.696875 77.030323) scale(0.1 -0.1)">
       <use xlink:href="#DejaVuSans-32"/>
       <use xlink:href="#DejaVuSans-2e" x="63.623047"/>
       <use xlink:href="#DejaVuSans-30" x="95.410156"/>
      </g>
     </g>
    </g>
    <g id="text_13">
     <!-- Disperssion index -->
     <g transform="translate(28.617187 218.774094) rotate(-90) scale(0.1 -0.1)">
      <defs>
       <path id="DejaVuSans-44" d="M 1259 4147 
L 1259 519 
L 2022 519 
Q 2988 519 3436 956 
Q 3884 1394 3884 2338 
Q 3884 3275 3436 3711 
Q 2988 4147 2022 4147 
L 1259 4147 
z
M 628 4666 
L 1925 4666 
Q 3281 4666 3915 4102 
Q 4550 3538 4550 2338 
Q 4550 1131 3912 565 
Q 3275 0 1925 0 
L 628 0 
L 628 4666 
z
" transform="scale(0.015625)"/>
       <path id="DejaVuSans-69" d="M 603 3500 
L 1178 3500 
L 1178 0 
L 603 0 
L 603 3500 
z
M 603 4863 
L 1178 4863 
L 1178 4134 
L 603 4134 
L 603 4863 
z
" transform="scale(0.015625)"/>
       <path id="DejaVuSans-73" d="M 2834 3397 
L 2834 2853 
Q 2591 2978 2328 3040 
Q 2066 3103 1784 3103 
Q 1356 3103 1142 2972 
Q 928 2841 928 2578 
Q 928 2378 1081 2264 
Q 1234 2150 1697 2047 
L 1894 2003 
Q 2506 1872 2764 1633 
Q 3022 1394 3022 966 
Q 3022 478 2636 193 
Q 2250 -91 1575 -91 
Q 1294 -91 989 -36 
Q 684 19 347 128 
L 347 722 
Q 666 556 975 473 
Q 1284 391 1588 391 
Q 1994 391 2212 530 
Q 2431 669 2431 922 
Q 2431 1156 2273 1281 
Q 2116 1406 1581 1522 
L 1381 1569 
Q 847 1681 609 1914 
Q 372 2147 372 2553 
Q 372 3047 722 3315 
Q 1072 3584 1716 3584 
Q 2034 3584 2315 3537 
Q 2597 3491 2834 3397 
z
" transform="scale(0.015625)"/>
       <path id="DejaVuSans-70" d="M 1159 525 
L 1159 -1331 
L 581 -1331 
L 581 3500 
L 1159 3500 
L 1159 2969 
Q 1341 3281 1617 3432 
Q 1894 3584 2278 3584 
Q 2916 3584 3314 3078 
Q 3713 2572 3713 1747 
Q 3713 922 3314 415 
Q 2916 -91 2278 -91 
Q 1894 -91 1617 61 
Q 1341 213 1159 525 
z
M 3116 1747 
Q 3116 2381 2855 2742 
Q 2594 3103 2138 3103 
Q 1681 3103 1420 2742 
Q 1159 2381 1159 1747 
Q 1159 1113 1420 752 
Q 1681 391 2138 391 
Q 2594 391 2855 752 
Q 3116 1113 3116 1747 
z
" transform="scale(0.015625)"/>
       <path id="DejaVuSans-65" d="M 3597 1894 
L 3597 1613 
L 953 1613 
Q 991 1019 1311 708 
Q 1631 397 2203 397 
Q 2534 397 2845 478 
Q 3156 559 3463 722 
L 3463 178 
Q 3153 47 2828 -22 
Q 2503 -91 2169 -91 
Q 1331 -91 842 396 
Q 353 884 353 1716 
Q 353 2575 817 3079 
Q 1281 3584 2069 3584 
Q 2775 3584 3186 3129 
Q 3597 2675 3597 1894 
z
M 3022 2063 
Q 3016 2534 2758 2815 
Q 2500 3097 2075 3097 
Q 1594 3097 1305 2825 
Q 1016 2553 972 2059 
L 3022 2063 
z
" transform="scale(0.015625)"/>
       <path id="DejaVuSans-72" d="M 2631 2963 
Q 2534 3019 2420 3045 
Q 2306 3072 2169 3072 
Q 1681 3072 1420 2755 
Q 1159 2438 1159 1844 
L 1159 0 
L 581 0 
L 581 3500 
L 1159 3500 
L 1159 2956 
Q 1341 3275 1631 3429 
Q 1922 3584 2338 3584 
Q 2397 3584 2469 3576 
Q 2541 3569 2628 3553 
L 2631 2963 
z
" transform="scale(0.015625)"/>
       <path id="DejaVuSans-6f" d="M 1959 3097 
Q 1497 3097 1228 2736 
Q 959 2375 959 1747 
Q 959 1119 1226 758 
Q 1494 397 1959 397 
Q 2419 397 2687 759 
Q 2956 1122 2956 1747 
Q 2956 2369 2687 2733 
Q 2419 3097 1959 3097 
z
M 1959 3584 
Q 2709 3584 3137 3096 
Q 3566 2609 3566 1747 
Q 3566 888 3137 398 
Q 2709 -91 1959 -91 
Q 1206 -91 779 398 
Q 353 888 353 1747 
Q 353 2609 779 3096 
Q 1206 3584 1959 3584 
z
" transform="scale(0.015625)"/>
       <path id="DejaVuSans-6e" d="M 3513 2113 
L 3513 0 
L 2938 0 
L 2938 2094 
Q 2938 2591 2744 2837 
Q 2550 3084 2163 3084 
Q 1697 3084 1428 2787 
Q 1159 2491 1159 1978 
L 1159 0 
L 581 0 
L 581 3500 
L 1159 3500 
L 1159 2956 
Q 1366 3272 1645 3428 
Q 1925 3584 2291 3584 
Q 2894 3584 3203 3211 
Q 3513 2838 3513 2113 
z
" transform="scale(0.015625)"/>
       <path id="DejaVuSans-20" transform="scale(0.015625)"/>
       <path id="DejaVuSans-64" d="M 2906 2969 
L 2906 4863 
L 3481 4863 
L 3481 0 
L 2906 0 
L 2906 525 
Q 2725 213 2448 61 
Q 2172 -91 1784 -91 
Q 1150 -91 751 415 
Q 353 922 353 1747 
Q 353 2572 751 3078 
Q 1150 3584 1784 3584 
Q 2172 3584 2448 3432 
Q 2725 3281 2906 2969 
z
M 947 1747 
Q 947 1113 1208 752 
Q 1469 391 1925 391 
Q 2381 391 2643 752 
Q 2906 1113 2906 1747 
Q 2906 2381 2643 2742 
Q 2381 3103 1925 3103 
Q 1469 3103 1208 2742 
Q 947 2381 947 1747 
z
" transform="scale(0.015625)"/>
       <path id="DejaVuSans-78" d="M 3513 3500 
L 2247 1797 
L 3578 0 
L 2900 0 
L 1881 1375 
L 863 0 
L 184 0 
L 1544 1831 
L 300 3500 
L 978 3500 
L 1906 2253 
L 2834 3500 
L 3513 3500 
z
" transform="scale(0.015625)"/>
      </defs>
      <use xlink:href="#DejaVuSans-44"/>
      <use xlink:href="#DejaVuSans-69" x="77.001953"/>
      <use xlink:href="#DejaVuSans-73" x="104.785156"/>
      <use xlink:href="#DejaVuSans-70" x="156.884766"/>
      <use xlink:href="#DejaVuSans-65" x="220.361328"/>
      <use xlink:href="#DejaVuSans-72" x="281.884766"/>
      <use xlink:href="#DejaVuSans-73" x="322.998047"/>
      <use xlink:href="#DejaVuSans-73" x="375.097656"/>
      <use xlink:href="#DejaVuSans-69" x="427.197266"/>
      <use xlink:href="#DejaVuSans-6f" x="454.980469"/>
      <use xlink:href="#DejaVuSans-6e" x="516.162109"/>
      <use xlink:href="#DejaVuSans-20" x="579.541016"/>
      <use xlink:href="#DejaVuSans-69" x="611.328125"/>
      <use xlink:href="#DejaVuSans-6e" x="639.111328"/>
      <use xlink:href="#DejaVuSans-64" x="702.490234"/>
      <use xlink:href="#DejaVuSans-65" x="765.966797"/>
      <use xlink:href="#DejaVuSans-78" x="825.740234"/>
     </g>
    </g>
   </g>
   <g id="line2d_12">
    <path d="M 73.832727 295.488 
L 77.145529 262.33033 
L 80.45833 259.248434 
L 83.771132 247.558767 
L 87.083933 241.347998 
L 90.396735 236.692392 
L 93.709536 231.07436 
L 97.022338 226.320899 
L 100.335139 221.808012 
L 103.647941 216.815018 
L 106.960742 215.313393 
L 110.273544 211.789952 
L 113.586345 205.937129 
L 116.899147 201.898664 
L 120.211948 196.501269 
L 123.52475 194.883384 
L 126.837551 189.540259 
L 130.150353 187.70659 
L 133.463154 182.403553 
L 136.775955 175.55757 
L 140.088757 168.508215 
L 143.401558 165.077991 
L 146.71436 161.165324 
L 150.027161 160.954359 
L 153.339963 159.088572 
L 156.652764 157.408881 
L 159.965566 154.722417 
L 163.278367 157.258193 
L 166.591169 151.465908 
L 169.90397 153.574985 
L 173.216772 149.258119 
L 176.529573 147.550231 
L 179.842375 147.391066 
L 183.155176 146.319747 
L 186.467978 146.5183 
L 189.780779 144.501816 
L 193.093581 142.045634 
L 196.406382 141.39123 
L 199.719184 140.173168 
L 203.031985 131.910984 
L 206.344787 128.617749 
L 209.657588 132.770243 
L 212.97039 125.162922 
L 216.283191 128.658381 
L 219.595993 127.382406 
L 222.908794 124.887403 
L 226.221596 125.883777 
L 229.534397 124.320754 
L 232.847199 120.955966 
L 236.16 119.818014 
L 239.472801 113.869951 
L 242.785603 115.853433 
L 246.098404 109.101228 
L 249.411206 108.310679 
L 252.724007 104.109754 
L 256.036809 108.683507 
L 259.34961 105.550068 
L 262.662412 106.698756 
L 265.975213 106.418875 
L 269.288015 101.313776 
L 272.600816 99.694937 
L 275.913618 99.144238 
L 279.226419 97.712162 
L 282.539221 95.972209 
L 285.852022 91.907302 
L 289.164824 91.73032 
L 292.477625 89.966738 
L 295.790427 93.151466 
L 299.103228 94.213636 
L 302.41603 94.735426 
L 305.728831 92.194986 
L 309.041633 89.880601 
L 312.354434 91.588846 
L 315.667236 90.602781 
L 318.980037 84.453654 
L 322.292839 82.21475 
L 325.60564 82.042404 
L 328.918442 81.836755 
L 332.231243 78.195503 
L 335.544045 75.666607 
L 338.856846 69.166011 
L 342.169647 70.961633 
L 345.482449 74.111728 
L 348.79525 72.300163 
L 352.108052 72.14697 
L 355.420853 68.962403 
L 358.733655 65.244483 
L 362.046456 63.266444 
L 365.359258 63.057102 
L 368.672059 62.143481 
L 371.984861 56.404992 
L 375.297662 54.931717 
L 378.610464 53.568 
L 381.923265 54.48971 
L 385.236067 54.184988 
L 388.548868 57.409564 
L 391.86167 55.888219 
L 395.174471 56.513663 
L 398.487273 54.614835 
" clip-path="url(#p7fc98498a2)" style="fill: none; stroke: #1f77b4; stroke-width: 1.5; stroke-linecap: square"/>
    <defs>
     <path id="ma2d7a1623b" d="M 0 3 
C 0.795609 3 1.55874 2.683901 2.12132 2.12132 
C 2.683901 1.55874 3 0.795609 3 0 
C 3 -0.795609 2.683901 -1.55874 2.12132 -2.12132 
C 1.55874 -2.683901 0.795609 -3 0 -3 
C -0.795609 -3 -1.55874 -2.683901 -2.12132 -2.12132 
C -2.683901 -1.55874 -3 -0.795609 -3 0 
C -3 0.795609 -2.683901 1.55874 -2.12132 2.12132 
C -1.55874 2.683901 -0.795609 3 0 3 
z
" style="stroke: #1f77b4"/>
    </defs>
    <g clip-path="url(#p7fc98498a2)">
     <use xlink:href="#ma2d7a1623b" x="73.832727" y="295.488" style="fill: #1f77b4; stroke: #1f77b4"/>
     <use xlink:href="#ma2d7a1623b" x="77.145529" y="262.33033" style="fill: #1f77b4; stroke: #1f77b4"/>
     <use xlink:href="#ma2d7a1623b" x="80.45833" y="259.248434" style="fill: #1f77b4; stroke: #1f77b4"/>
     <use xlink:href="#ma2d7a1623b" x="83.771132" y="247.558767" style="fill: #1f77b4; stroke: #1f77b4"/>
     <use xlink:href="#ma2d7a1623b" x="87.083933" y="241.347998" style="fill: #1f77b4; stroke: #1f77b4"/>
     <use xlink:href="#ma2d7a1623b" x="90.396735" y="236.692392" style="fill: #1f77b4; stroke: #1f77b4"/>
     <use xlink:href="#ma2d7a1623b" x="93.709536" y="231.07436" style="fill: #1f77b4; stroke: #1f77b4"/>
     <use xlink:href="#ma2d7a1623b" x="97.022338" y="226.320899" style="fill: #1f77b4; stroke: #1f77b4"/>
     <use xlink:href="#ma2d7a1623b" x="100.335139" y="221.808012" style="fill: #1f77b4; stroke: #1f77b4"/>
     <use xlink:href="#ma2d7a1623b" x="103.647941" y="216.815018" style="fill: #1f77b4; stroke: #1f77b4"/>
     <use xlink:href="#ma2d7a1623b" x="106.960742" y="215.313393" style="fill: #1f77b4; stroke: #1f77b4"/>
     <use xlink:href="#ma2d7a1623b" x="110.273544" y="211.789952" style="fill: #1f77b4; stroke: #1f77b4"/>
     <use xlink:href="#ma2d7a1623b" x="113.586345" y="205.937129" style="fill: #1f77b4; stroke: #1f77b4"/>
     <use xlink:href="#ma2d7a1623b" x="116.899147" y="201.898664" style="fill: #1f77b4; stroke: #1f77b4"/>
     <use xlink:href="#ma2d7a1623b" x="120.211948" y="196.501269" style="fill: #1f77b4; stroke: #1f77b4"/>
     <use xlink:href="#ma2d7a1623b" x="123.52475" y="194.883384" style="fill: #1f77b4; stroke: #1f77b4"/>
     <use xlink:href="#ma2d7a1623b" x="126.837551" y="189.540259" style="fill: #1f77b4; stroke: #1f77b4"/>
     <use xlink:href="#ma2d7a1623b" x="130.150353" y="187.70659" style="fill: #1f77b4; stroke: #1f77b4"/>
     <use xlink:href="#ma2d7a1623b" x="133.463154" y="182.403553" style="fill: #1f77b4; stroke: #1f77b4"/>
     <use xlink:href="#ma2d7a1623b" x="136.775955" y="175.55757" style="fill: #1f77b4; stroke: #1f77b4"/>
     <use xlink:href="#ma2d7a1623b" x="140.088757" y="168.508215" style="fill: #1f77b4; stroke: #1f77b4"/>
     <use xlink:href="#ma2d7a1623b" x="143.401558" y="165.077991" style="fill: #1f77b4; stroke: #1f77b4"/>
     <use xlink:href="#ma2d7a1623b" x="146.71436" y="161.165324" style="fill: #1f77b4; stroke: #1f77b4"/>
     <use xlink:href="#ma2d7a1623b" x="150.027161" y="160.954359" style="fill: #1f77b4; stroke: #1f77b4"/>
     <use xlink:href="#ma2d7a1623b" x="153.339963" y="159.088572" style="fill: #1f77b4; stroke: #1f77b4"/>
     <use xlink:href="#ma2d7a1623b" x="156.652764" y="157.408881" style="fill: #1f77b4; stroke: #1f77b4"/>
     <use xlink:href="#ma2d7a1623b" x="159.965566" y="154.722417" style="fill: #1f77b4; stroke: #1f77b4"/>
     <use xlink:href="#ma2d7a1623b" x="163.278367" y="157.258193" style="fill: #1f77b4; stroke: #1f77b4"/>
     <use xlink:href="#ma2d7a1623b" x="166.591169" y="151.465908" style="fill: #1f77b4; stroke: #1f77b4"/>
     <use xlink:href="#ma2d7a1623b" x="169.90397" y="153.574985" style="fill: #1f77b4; stroke: #1f77b4"/>
     <use xlink:href="#ma2d7a1623b" x="173.216772" y="149.258119" style="fill: #1f77b4; stroke: #1f77b4"/>
     <use xlink:href="#ma2d7a1623b" x="176.529573" y="147.550231" style="fill: #1f77b4; stroke: #1f77b4"/>
     <use xlink:href="#ma2d7a1623b" x="179.842375" y="147.391066" style="fill: #1f77b4; stroke: #1f77b4"/>
     <use xlink:href="#ma2d7a1623b" x="183.155176" y="146.319747" style="fill: #1f77b4; stroke: #1f77b4"/>
     <use xlink:href="#ma2d7a1623b" x="186.467978" y="146.5183" style="fill: #1f77b4; stroke: #1f77b4"/>
     <use xlink:href="#ma2d7a1623b" x="189.780779" y="144.501816" style="fill: #1f77b4; stroke: #1f77b4"/>
     <use xlink:href="#ma2d7a1623b" x="193.093581" y="142.045634" style="fill: #1f77b4; stroke: #1f77b4"/>
     <use xlink:href="#ma2d7a1623b" x="196.406382" y="141.39123" style="fill: #1f77b4; stroke: #1f77b4"/>
     <use xlink:href="#ma2d7a1623b" x="199.719184" y="140.173168" style="fill: #1f77b4; stroke: #1f77b4"/>
     <use xlink:href="#ma2d7a1623b" x="203.031985" y="131.910984" style="fill: #1f77b4; stroke: #1f77b4"/>
     <use xlink:href="#ma2d7a1623b" x="206.344787" y="128.617749" style="fill: #1f77b4; stroke: #1f77b4"/>
     <use xlink:href="#ma2d7a1623b" x="209.657588" y="132.770243" style="fill: #1f77b4; stroke: #1f77b4"/>
     <use xlink:href="#ma2d7a1623b" x="212.97039" y="125.162922" style="fill: #1f77b4; stroke: #1f77b4"/>
     <use xlink:href="#ma2d7a1623b" x="216.283191" y="128.658381" style="fill: #1f77b4; stroke: #1f77b4"/>
     <use xlink:href="#ma2d7a1623b" x="219.595993" y="127.382406" style="fill: #1f77b4; stroke: #1f77b4"/>
     <use xlink:href="#ma2d7a1623b" x="222.908794" y="124.887403" style="fill: #1f77b4; stroke: #1f77b4"/>
     <use xlink:href="#ma2d7a1623b" x="226.221596" y="125.883777" style="fill: #1f77b4; stroke: #1f77b4"/>
     <use xlink:href="#ma2d7a1623b" x="229.534397" y="124.320754" style="fill: #1f77b4; stroke: #1f77b4"/>
     <use xlink:href="#ma2d7a1623b" x="232.847199" y="120.955966" style="fill: #1f77b4; stroke: #1f77b4"/>
     <use xlink:href="#ma2d7a1623b" x="236.16" y="119.818014" style="fill: #1f77b4; stroke: #1f77b4"/>
     <use xlink:href="#ma2d7a1623b" x="239.472801" y="113.869951" style="fill: #1f77b4; stroke: #1f77b4"/>
     <use xlink:href="#ma2d7a1623b" x="242.785603" y="115.853433" style="fill: #1f77b4; stroke: #1f77b4"/>
     <use xlink:href="#ma2d7a1623b" x="246.098404" y="109.101228" style="fill: #1f77b4; stroke: #1f77b4"/>
     <use xlink:href="#ma2d7a1623b" x="249.411206" y="108.310679" style="fill: #1f77b4; stroke: #1f77b4"/>
     <use xlink:href="#ma2d7a1623b" x="252.724007" y="104.109754" style="fill: #1f77b4; stroke: #1f77b4"/>
     <use xlink:href="#ma2d7a1623b" x="256.036809" y="108.683507" style="fill: #1f77b4; stroke: #1f77b4"/>
     <use xlink:href="#ma2d7a1623b" x="259.34961" y="105.550068" style="fill: #1f77b4; stroke: #1f77b4"/>
     <use xlink:href="#ma2d7a1623b" x="262.662412" y="106.698756" style="fill: #1f77b4; stroke: #1f77b4"/>
     <use xlink:href="#ma2d7a1623b" x="265.975213" y="106.418875" style="fill: #1f77b4; stroke: #1f77b4"/>
     <use xlink:href="#ma2d7a1623b" x="269.288015" y="101.313776" style="fill: #1f77b4; stroke: #1f77b4"/>
     <use xlink:href="#ma2d7a1623b" x="272.600816" y="99.694937" style="fill: #1f77b4; stroke: #1f77b4"/>
     <use xlink:href="#ma2d7a1623b" x="275.913618" y="99.144238" style="fill: #1f77b4; stroke: #1f77b4"/>
     <use xlink:href="#ma2d7a1623b" x="279.226419" y="97.712162" style="fill: #1f77b4; stroke: #1f77b4"/>
     <use xlink:href="#ma2d7a1623b" x="282.539221" y="95.972209" style="fill: #1f77b4; stroke: #1f77b4"/>
     <use xlink:href="#ma2d7a1623b" x="285.852022" y="91.907302" style="fill: #1f77b4; stroke: #1f77b4"/>
     <use xlink:href="#ma2d7a1623b" x="289.164824" y="91.73032" style="fill: #1f77b4; stroke: #1f77b4"/>
     <use xlink:href="#ma2d7a1623b" x="292.477625" y="89.966738" style="fill: #1f77b4; stroke: #1f77b4"/>
     <use xlink:href="#ma2d7a1623b" x="295.790427" y="93.151466" style="fill: #1f77b4; stroke: #1f77b4"/>
     <use xlink:href="#ma2d7a1623b" x="299.103228" y="94.213636" style="fill: #1f77b4; stroke: #1f77b4"/>
     <use xlink:href="#ma2d7a1623b" x="302.41603" y="94.735426" style="fill: #1f77b4; stroke: #1f77b4"/>
     <use xlink:href="#ma2d7a1623b" x="305.728831" y="92.194986" style="fill: #1f77b4; stroke: #1f77b4"/>
     <use xlink:href="#ma2d7a1623b" x="309.041633" y="89.880601" style="fill: #1f77b4; stroke: #1f77b4"/>
     <use xlink:href="#ma2d7a1623b" x="312.354434" y="91.588846" style="fill: #1f77b4; stroke: #1f77b4"/>
     <use xlink:href="#ma2d7a1623b" x="315.667236" y="90.602781" style="fill: #1f77b4; stroke: #1f77b4"/>
     <use xlink:href="#ma2d7a1623b" x="318.980037" y="84.453654" style="fill: #1f77b4; stroke: #1f77b4"/>
     <use xlink:href="#ma2d7a1623b" x="322.292839" y="82.21475" style="fill: #1f77b4; stroke: #1f77b4"/>
     <use xlink:href="#ma2d7a1623b" x="325.60564" y="82.042404" style="fill: #1f77b4; stroke: #1f77b4"/>
     <use xlink:href="#ma2d7a1623b" x="328.918442" y="81.836755" style="fill: #1f77b4; stroke: #1f77b4"/>
     <use xlink:href="#ma2d7a1623b" x="332.231243" y="78.195503" style="fill: #1f77b4; stroke: #1f77b4"/>
     <use xlink:href="#ma2d7a1623b" x="335.544045" y="75.666607" style="fill: #1f77b4; stroke: #1f77b4"/>
     <use xlink:href="#ma2d7a1623b" x="338.856846" y="69.166011" style="fill: #1f77b4; stroke: #1f77b4"/>
     <use xlink:href="#ma2d7a1623b" x="342.169647" y="70.961633" style="fill: #1f77b4; stroke: #1f77b4"/>
     <use xlink:href="#ma2d7a1623b" x="345.482449" y="74.111728" style="fill: #1f77b4; stroke: #1f77b4"/>
     <use xlink:href="#ma2d7a1623b" x="348.79525" y="72.300163" style="fill: #1f77b4; stroke: #1f77b4"/>
     <use xlink:href="#ma2d7a1623b" x="352.108052" y="72.14697" style="fill: #1f77b4; stroke: #1f77b4"/>
     <use xlink:href="#ma2d7a1623b" x="355.420853" y="68.962403" style="fill: #1f77b4; stroke: #1f77b4"/>
     <use xlink:href="#ma2d7a1623b" x="358.733655" y="65.244483" style="fill: #1f77b4; stroke: #1f77b4"/>
     <use xlink:href="#ma2d7a1623b" x="362.046456" y="63.266444" style="fill: #1f77b4; stroke: #1f77b4"/>
     <use xlink:href="#ma2d7a1623b" x="365.359258" y="63.057102" style="fill: #1f77b4; stroke: #1f77b4"/>
     <use xlink:href="#ma2d7a1623b" x="368.672059" y="62.143481" style="fill: #1f77b4; stroke: #1f77b4"/>
     <use xlink:href="#ma2d7a1623b" x="371.984861" y="56.404992" style="fill: #1f77b4; stroke: #1f77b4"/>
     <use xlink:href="#ma2d7a1623b" x="375.297662" y="54.931717" style="fill: #1f77b4; stroke: #1f77b4"/>
     <use xlink:href="#ma2d7a1623b" x="378.610464" y="53.568" style="fill: #1f77b4; stroke: #1f77b4"/>
     <use xlink:href="#ma2d7a1623b" x="381.923265" y="54.48971" style="fill: #1f77b4; stroke: #1f77b4"/>
     <use xlink:href="#ma2d7a1623b" x="385.236067" y="54.184988" style="fill: #1f77b4; stroke: #1f77b4"/>
     <use xlink:href="#ma2d7a1623b" x="388.548868" y="57.409564" style="fill: #1f77b4; stroke: #1f77b4"/>
     <use xlink:href="#ma2d7a1623b" x="391.86167" y="55.888219" style="fill: #1f77b4; stroke: #1f77b4"/>
     <use xlink:href="#ma2d7a1623b" x="395.174471" y="56.513663" style="fill: #1f77b4; stroke: #1f77b4"/>
     <use xlink:href="#ma2d7a1623b" x="398.487273" y="54.614835" style="fill: #1f77b4; stroke: #1f77b4"/>
    </g>
   </g>
   <g id="patch_3">
    <path d="M 57.6 307.584 
L 57.6 41.472 
" style="fill: none; stroke: #000000; stroke-width: 0.8; stroke-linejoin: miter; stroke-linecap: square"/>
   </g>
   <g id="patch_4">
    <path d="M 414.72 307.584 
L 414.72 41.472 
" style="fill: none; stroke: #000000; stroke-width: 0.8; stroke-linejoin: miter; stroke-linecap: square"/>
   </g>
   <g id="patch_5">
    <path d="M 57.6 307.584 
L 414.72 307.584 
" style="fill: none; stroke: #000000; stroke-width: 0.8; stroke-linejoin: miter; stroke-linecap: square"/>
   </g>
   <g id="patch_6">
    <path d="M 57.6 41.472 
L 414.72 41.472 
" style="fill: none; stroke: #000000; stroke-width: 0.8; stroke-linejoin: miter; stroke-linecap: square"/>
   </g>
  </g>
 </g>
 <defs>
  <clipPath id="p7fc98498a2">
   <rect x="57.6" y="41.472" width="357.12" height="266.112"/>
  </clipPath>
 </defs>
</svg>
