<?xml version="1.0" encoding="utf-8" standalone="no"?>
<!DOCTYPE svg PUBLIC "-//W3C//DTD SVG 1.1//EN"
  "http://www.w3.org/Graphics/SVG/1.1/DTD/svg11.dtd">
<svg xmlns:xlink="http://www.w3.org/1999/xlink" width="460.8pt" height="345.6pt" viewBox="0 0 460.8 345.6" xmlns="http://www.w3.org/2000/svg" version="1.1">
 <metadata>
  <rdf:RDF xmlns:dc="http://purl.org/dc/elements/1.1/" xmlns:cc="http://creativecommons.org/ns#" xmlns:rdf="http://www.w3.org/1999/02/22-rdf-syntax-ns#">
   <cc:Work>
    <dc:type rdf:resource="http://purl.org/dc/dcmitype/StillImage"/>
    <dc:date>2023-09-06T15:30:55.105691</dc:date>
    <dc:format>image/svg+xml</dc:format>
    <dc:creator>
     <cc:Agent>
      <dc:title>Matplotlib v3.7.0, https://matplotlib.org/</dc:title>
     </cc:Agent>
    </dc:creator>
   </cc:Work>
  </rdf:RDF>
 </metadata>
 <defs>
  <style type="text/css">*{stroke-linejoin: round; stroke-linecap: butt}</style>
 </defs>
 <g id="figure_1">
  <g id="patch_1">
   <path d="M 0 345.6 
L 460.8 345.6 
L 460.8 0 
L 0 0 
z
" style="fill: #ffffff"/>
  </g>
  <g id="axes_1">
   <g id="patch_2">
    <path d="M 57.6 307.584 
L 414.72 307.584 
L 414.72 41.472 
L 57.6 41.472 
z
" style="fill: #ffffff"/>
   </g>
   <g id="matplotlib.axis_1">
    <g id="xtick_1">
     <g id="line2d_1">
      <defs>
       <path id="md39f9a6155" d="M 0 0 
L 0 3.5 
" style="stroke: #000000; stroke-width: 0.8"/>
      </defs>
      <g>
       <use xlink:href="#md39f9a6155" x="70.519926" y="307.584" style="stroke: #000000; stroke-width: 0.8"/>
      </g>
     </g>
     <g id="text_1">
      <!-- 0 -->
      <g transform="translate(67.338676 322.182437) scale(0.1 -0.1)">
       <defs>
        <path id="DejaVuSans-30" d="M 2034 4250 
Q 1547 4250 1301 3770 
Q 1056 3291 1056 2328 
Q 1056 1369 1301 889 
Q 1547 409 2034 409 
Q 2525 409 2770 889 
Q 3016 1369 3016 2328 
Q 3016 3291 2770 3770 
Q 2525 4250 2034 4250 
z
M 2034 4750 
Q 2819 4750 3233 4129 
Q 3647 3509 3647 2328 
Q 3647 1150 3233 529 
Q 2819 -91 2034 -91 
Q 1250 -91 836 529 
Q 422 1150 422 2328 
Q 422 3509 836 4129 
Q 1250 4750 2034 4750 
z
" transform="scale(0.015625)"/>
       </defs>
       <use xlink:href="#DejaVuSans-30"/>
      </g>
     </g>
    </g>
    <g id="xtick_2">
     <g id="line2d_2">
      <g>
       <use xlink:href="#md39f9a6155" x="136.775955" y="307.584" style="stroke: #000000; stroke-width: 0.8"/>
      </g>
     </g>
     <g id="text_2">
      <!-- 20 -->
      <g transform="translate(130.413455 322.182437) scale(0.1 -0.1)">
       <defs>
        <path id="DejaVuSans-32" d="M 1228 531 
L 3431 531 
L 3431 0 
L 469 0 
L 469 531 
Q 828 903 1448 1529 
Q 2069 2156 2228 2338 
Q 2531 2678 2651 2914 
Q 2772 3150 2772 3378 
Q 2772 3750 2511 3984 
Q 2250 4219 1831 4219 
Q 1534 4219 1204 4116 
Q 875 4013 500 3803 
L 500 4441 
Q 881 4594 1212 4672 
Q 1544 4750 1819 4750 
Q 2544 4750 2975 4387 
Q 3406 4025 3406 3419 
Q 3406 3131 3298 2873 
Q 3191 2616 2906 2266 
Q 2828 2175 2409 1742 
Q 1991 1309 1228 531 
z
" transform="scale(0.015625)"/>
       </defs>
       <use xlink:href="#DejaVuSans-32"/>
       <use xlink:href="#DejaVuSans-30" x="63.623047"/>
      </g>
     </g>
    </g>
    <g id="xtick_3">
     <g id="line2d_3">
      <g>
       <use xlink:href="#md39f9a6155" x="203.031985" y="307.584" style="stroke: #000000; stroke-width: 0.8"/>
      </g>
     </g>
     <g id="text_3">
      <!-- 40 -->
      <g transform="translate(196.669485 322.182437) scale(0.1 -0.1)">
       <defs>
        <path id="DejaVuSans-34" d="M 2419 4116 
L 825 1625 
L 2419 1625 
L 2419 4116 
z
M 2253 4666 
L 3047 4666 
L 3047 1625 
L 3713 1625 
L 3713 1100 
L 3047 1100 
L 3047 0 
L 2419 0 
L 2419 1100 
L 313 1100 
L 313 1709 
L 2253 4666 
z
" transform="scale(0.015625)"/>
       </defs>
       <use xlink:href="#DejaVuSans-34"/>
       <use xlink:href="#DejaVuSans-30" x="63.623047"/>
      </g>
     </g>
    </g>
    <g id="xtick_4">
     <g id="line2d_4">
      <g>
       <use xlink:href="#md39f9a6155" x="269.288015" y="307.584" style="stroke: #000000; stroke-width: 0.8"/>
      </g>
     </g>
     <g id="text_4">
      <!-- 60 -->
      <g transform="translate(262.925515 322.182437) scale(0.1 -0.1)">
       <defs>
        <path id="DejaVuSans-36" d="M 2113 2584 
Q 1688 2584 1439 2293 
Q 1191 2003 1191 1497 
Q 1191 994 1439 701 
Q 1688 409 2113 409 
Q 2538 409 2786 701 
Q 3034 994 3034 1497 
Q 3034 2003 2786 2293 
Q 2538 2584 2113 2584 
z
M 3366 4563 
L 3366 3988 
Q 3128 4100 2886 4159 
Q 2644 4219 2406 4219 
Q 1781 4219 1451 3797 
Q 1122 3375 1075 2522 
Q 1259 2794 1537 2939 
Q 1816 3084 2150 3084 
Q 2853 3084 3261 2657 
Q 3669 2231 3669 1497 
Q 3669 778 3244 343 
Q 2819 -91 2113 -91 
Q 1303 -91 875 529 
Q 447 1150 447 2328 
Q 447 3434 972 4092 
Q 1497 4750 2381 4750 
Q 2619 4750 2861 4703 
Q 3103 4656 3366 4563 
z
" transform="scale(0.015625)"/>
       </defs>
       <use xlink:href="#DejaVuSans-36"/>
       <use xlink:href="#DejaVuSans-30" x="63.623047"/>
      </g>
     </g>
    </g>
    <g id="xtick_5">
     <g id="line2d_5">
      <g>
       <use xlink:href="#md39f9a6155" x="335.544045" y="307.584" style="stroke: #000000; stroke-width: 0.8"/>
      </g>
     </g>
     <g id="text_5">
      <!-- 80 -->
      <g transform="translate(329.181545 322.182437) scale(0.1 -0.1)">
       <defs>
        <path id="DejaVuSans-38" d="M 2034 2216 
Q 1584 2216 1326 1975 
Q 1069 1734 1069 1313 
Q 1069 891 1326 650 
Q 1584 409 2034 409 
Q 2484 409 2743 651 
Q 3003 894 3003 1313 
Q 3003 1734 2745 1975 
Q 2488 2216 2034 2216 
z
M 1403 2484 
Q 997 2584 770 2862 
Q 544 3141 544 3541 
Q 544 4100 942 4425 
Q 1341 4750 2034 4750 
Q 2731 4750 3128 4425 
Q 3525 4100 3525 3541 
Q 3525 3141 3298 2862 
Q 3072 2584 2669 2484 
Q 3125 2378 3379 2068 
Q 3634 1759 3634 1313 
Q 3634 634 3220 271 
Q 2806 -91 2034 -91 
Q 1263 -91 848 271 
Q 434 634 434 1313 
Q 434 1759 690 2068 
Q 947 2378 1403 2484 
z
M 1172 3481 
Q 1172 3119 1398 2916 
Q 1625 2713 2034 2713 
Q 2441 2713 2670 2916 
Q 2900 3119 2900 3481 
Q 2900 3844 2670 4047 
Q 2441 4250 2034 4250 
Q 1625 4250 1398 4047 
Q 1172 3844 1172 3481 
z
" transform="scale(0.015625)"/>
       </defs>
       <use xlink:href="#DejaVuSans-38"/>
       <use xlink:href="#DejaVuSans-30" x="63.623047"/>
      </g>
     </g>
    </g>
    <g id="xtick_6">
     <g id="line2d_6">
      <g>
       <use xlink:href="#md39f9a6155" x="401.800074" y="307.584" style="stroke: #000000; stroke-width: 0.8"/>
      </g>
     </g>
     <g id="text_6">
      <!-- 100 -->
      <g transform="translate(392.256324 322.182437) scale(0.1 -0.1)">
       <defs>
        <path id="DejaVuSans-31" d="M 794 531 
L 1825 531 
L 1825 4091 
L 703 3866 
L 703 4441 
L 1819 4666 
L 2450 4666 
L 2450 531 
L 3481 531 
L 3481 0 
L 794 0 
L 794 531 
z
" transform="scale(0.015625)"/>
       </defs>
       <use xlink:href="#DejaVuSans-31"/>
       <use xlink:href="#DejaVuSans-30" x="63.623047"/>
       <use xlink:href="#DejaVuSans-30" x="127.246094"/>
      </g>
     </g>
    </g>
    <g id="text_7">
     <!-- t -->
     <g transform="translate(234.199844 335.860562) scale(0.1 -0.1)">
      <defs>
       <path id="DejaVuSans-74" d="M 1172 4494 
L 1172 3500 
L 2356 3500 
L 2356 3053 
L 1172 3053 
L 1172 1153 
Q 1172 725 1289 603 
Q 1406 481 1766 481 
L 2356 481 
L 2356 0 
L 1766 0 
Q 1100 0 847 248 
Q 594 497 594 1153 
L 594 3053 
L 172 3053 
L 172 3500 
L 594 3500 
L 594 4494 
L 1172 4494 
z
" transform="scale(0.015625)"/>
      </defs>
      <use xlink:href="#DejaVuSans-74"/>
     </g>
    </g>
   </g>
   <g id="matplotlib.axis_2">
    <g id="ytick_1">
     <g id="line2d_7">
      <defs>
       <path id="m2cec763e20" d="M 0 0 
L -3.5 0 
" style="stroke: #000000; stroke-width: 0.8"/>
      </defs>
      <g>
       <use xlink:href="#m2cec763e20" x="57.6" y="295.488" style="stroke: #000000; stroke-width: 0.8"/>
      </g>
     </g>
     <g id="text_8">
      <!-- 0.0 -->
      <g transform="translate(34.696875 299.287219) scale(0.1 -0.1)">
       <defs>
        <path id="DejaVuSans-2e" d="M 684 794 
L 1344 794 
L 1344 0 
L 684 0 
L 684 794 
z
" transform="scale(0.015625)"/>
       </defs>
       <use xlink:href="#DejaVuSans-30"/>
       <use xlink:href="#DejaVuSans-2e" x="63.623047"/>
       <use xlink:href="#DejaVuSans-30" x="95.410156"/>
      </g>
     </g>
    </g>
    <g id="ytick_2">
     <g id="line2d_8">
      <g>
       <use xlink:href="#m2cec763e20" x="57.6" y="249.210824" style="stroke: #000000; stroke-width: 0.8"/>
      </g>
     </g>
     <g id="text_9">
      <!-- 0.5 -->
      <g transform="translate(34.696875 253.010043) scale(0.1 -0.1)">
       <defs>
        <path id="DejaVuSans-35" d="M 691 4666 
L 3169 4666 
L 3169 4134 
L 1269 4134 
L 1269 2991 
Q 1406 3038 1543 3061 
Q 1681 3084 1819 3084 
Q 2600 3084 3056 2656 
Q 3513 2228 3513 1497 
Q 3513 744 3044 326 
Q 2575 -91 1722 -91 
Q 1428 -91 1123 -41 
Q 819 9 494 109 
L 494 744 
Q 775 591 1075 516 
Q 1375 441 1709 441 
Q 2250 441 2565 725 
Q 2881 1009 2881 1497 
Q 2881 1984 2565 2268 
Q 2250 2553 1709 2553 
Q 1456 2553 1204 2497 
Q 953 2441 691 2322 
L 691 4666 
z
" transform="scale(0.015625)"/>
       </defs>
       <use xlink:href="#DejaVuSans-30"/>
       <use xlink:href="#DejaVuSans-2e" x="63.623047"/>
       <use xlink:href="#DejaVuSans-35" x="95.410156"/>
      </g>
     </g>
    </g>
    <g id="ytick_3">
     <g id="line2d_9">
      <g>
       <use xlink:href="#m2cec763e20" x="57.6" y="202.933648" style="stroke: #000000; stroke-width: 0.8"/>
      </g>
     </g>
     <g id="text_10">
      <!-- 1.0 -->
      <g transform="translate(34.696875 206.732867) scale(0.1 -0.1)">
       <use xlink:href="#DejaVuSans-31"/>
       <use xlink:href="#DejaVuSans-2e" x="63.623047"/>
       <use xlink:href="#DejaVuSans-30" x="95.410156"/>
      </g>
     </g>
    </g>
    <g id="ytick_4">
     <g id="line2d_10">
      <g>
       <use xlink:href="#m2cec763e20" x="57.6" y="156.656472" style="stroke: #000000; stroke-width: 0.8"/>
      </g>
     </g>
     <g id="text_11">
      <!-- 1.5 -->
      <g transform="translate(34.696875 160.45569) scale(0.1 -0.1)">
       <use xlink:href="#DejaVuSans-31"/>
       <use xlink:href="#DejaVuSans-2e" x="63.623047"/>
       <use xlink:href="#DejaVuSans-35" x="95.410156"/>
      </g>
     </g>
    </g>
    <g id="ytick_5">
     <g id="line2d_11">
      <g>
       <use xlink:href="#m2cec763e20" x="57.6" y="110.379296" style="stroke: #000000; stroke-width: 0.8"/>
      </g>
     </g>
     <g id="text_12">
      <!-- 2.0 -->
      <g transform="translate(34.696875 114.178514) scale(0.1 -0.1)">
       <use xlink:href="#DejaVuSans-32"/>
       <use xlink:href="#DejaVuSans-2e" x="63.623047"/>
       <use xlink:href="#DejaVuSans-30" x="95.410156"/>
      </g>
     </g>
    </g>
    <g id="ytick_6">
     <g id="line2d_12">
      <g>
       <use xlink:href="#m2cec763e20" x="57.6" y="64.10212" style="stroke: #000000; stroke-width: 0.8"/>
      </g>
     </g>
     <g id="text_13">
      <!-- 2.5 -->
      <g transform="translate(34.696875 67.901338) scale(0.1 -0.1)">
       <use xlink:href="#DejaVuSans-32"/>
       <use xlink:href="#DejaVuSans-2e" x="63.623047"/>
       <use xlink:href="#DejaVuSans-35" x="95.410156"/>
      </g>
     </g>
    </g>
    <g id="text_14">
     <!-- Disperssion index -->
     <g transform="translate(28.617187 218.774094) rotate(-90) scale(0.1 -0.1)">
      <defs>
       <path id="DejaVuSans-44" d="M 1259 4147 
L 1259 519 
L 2022 519 
Q 2988 519 3436 956 
Q 3884 1394 3884 2338 
Q 3884 3275 3436 3711 
Q 2988 4147 2022 4147 
L 1259 4147 
z
M 628 4666 
L 1925 4666 
Q 3281 4666 3915 4102 
Q 4550 3538 4550 2338 
Q 4550 1131 3912 565 
Q 3275 0 1925 0 
L 628 0 
L 628 4666 
z
" transform="scale(0.015625)"/>
       <path id="DejaVuSans-69" d="M 603 3500 
L 1178 3500 
L 1178 0 
L 603 0 
L 603 3500 
z
M 603 4863 
L 1178 4863 
L 1178 4134 
L 603 4134 
L 603 4863 
z
" transform="scale(0.015625)"/>
       <path id="DejaVuSans-73" d="M 2834 3397 
L 2834 2853 
Q 2591 2978 2328 3040 
Q 2066 3103 1784 3103 
Q 1356 3103 1142 2972 
Q 928 2841 928 2578 
Q 928 2378 1081 2264 
Q 1234 2150 1697 2047 
L 1894 2003 
Q 2506 1872 2764 1633 
Q 3022 1394 3022 966 
Q 3022 478 2636 193 
Q 2250 -91 1575 -91 
Q 1294 -91 989 -36 
Q 684 19 347 128 
L 347 722 
Q 666 556 975 473 
Q 1284 391 1588 391 
Q 1994 391 2212 530 
Q 2431 669 2431 922 
Q 2431 1156 2273 1281 
Q 2116 1406 1581 1522 
L 1381 1569 
Q 847 1681 609 1914 
Q 372 2147 372 2553 
Q 372 3047 722 3315 
Q 1072 3584 1716 3584 
Q 2034 3584 2315 3537 
Q 2597 3491 2834 3397 
z
" transform="scale(0.015625)"/>
       <path id="DejaVuSans-70" d="M 1159 525 
L 1159 -1331 
L 581 -1331 
L 581 3500 
L 1159 3500 
L 1159 2969 
Q 1341 3281 1617 3432 
Q 1894 3584 2278 3584 
Q 2916 3584 3314 3078 
Q 3713 2572 3713 1747 
Q 3713 922 3314 415 
Q 2916 -91 2278 -91 
Q 1894 -91 1617 61 
Q 1341 213 1159 525 
z
M 3116 1747 
Q 3116 2381 2855 2742 
Q 2594 3103 2138 3103 
Q 1681 3103 1420 2742 
Q 1159 2381 1159 1747 
Q 1159 1113 1420 752 
Q 1681 391 2138 391 
Q 2594 391 2855 752 
Q 3116 1113 3116 1747 
z
" transform="scale(0.015625)"/>
       <path id="DejaVuSans-65" d="M 3597 1894 
L 3597 1613 
L 953 1613 
Q 991 1019 1311 708 
Q 1631 397 2203 397 
Q 2534 397 2845 478 
Q 3156 559 3463 722 
L 3463 178 
Q 3153 47 2828 -22 
Q 2503 -91 2169 -91 
Q 1331 -91 842 396 
Q 353 884 353 1716 
Q 353 2575 817 3079 
Q 1281 3584 2069 3584 
Q 2775 3584 3186 3129 
Q 3597 2675 3597 1894 
z
M 3022 2063 
Q 3016 2534 2758 2815 
Q 2500 3097 2075 3097 
Q 1594 3097 1305 2825 
Q 1016 2553 972 2059 
L 3022 2063 
z
" transform="scale(0.015625)"/>
       <path id="DejaVuSans-72" d="M 2631 2963 
Q 2534 3019 2420 3045 
Q 2306 3072 2169 3072 
Q 1681 3072 1420 2755 
Q 1159 2438 1159 1844 
L 1159 0 
L 581 0 
L 581 3500 
L 1159 3500 
L 1159 2956 
Q 1341 3275 1631 3429 
Q 1922 3584 2338 3584 
Q 2397 3584 2469 3576 
Q 2541 3569 2628 3553 
L 2631 2963 
z
" transform="scale(0.015625)"/>
       <path id="DejaVuSans-6f" d="M 1959 3097 
Q 1497 3097 1228 2736 
Q 959 2375 959 1747 
Q 959 1119 1226 758 
Q 1494 397 1959 397 
Q 2419 397 2687 759 
Q 2956 1122 2956 1747 
Q 2956 2369 2687 2733 
Q 2419 3097 1959 3097 
z
M 1959 3584 
Q 2709 3584 3137 3096 
Q 3566 2609 3566 1747 
Q 3566 888 3137 398 
Q 2709 -91 1959 -91 
Q 1206 -91 779 398 
Q 353 888 353 1747 
Q 353 2609 779 3096 
Q 1206 3584 1959 3584 
z
" transform="scale(0.015625)"/>
       <path id="DejaVuSans-6e" d="M 3513 2113 
L 3513 0 
L 2938 0 
L 2938 2094 
Q 2938 2591 2744 2837 
Q 2550 3084 2163 3084 
Q 1697 3084 1428 2787 
Q 1159 2491 1159 1978 
L 1159 0 
L 581 0 
L 581 3500 
L 1159 3500 
L 1159 2956 
Q 1366 3272 1645 3428 
Q 1925 3584 2291 3584 
Q 2894 3584 3203 3211 
Q 3513 2838 3513 2113 
z
" transform="scale(0.015625)"/>
       <path id="DejaVuSans-20" transform="scale(0.015625)"/>
       <path id="DejaVuSans-64" d="M 2906 2969 
L 2906 4863 
L 3481 4863 
L 3481 0 
L 2906 0 
L 2906 525 
Q 2725 213 2448 61 
Q 2172 -91 1784 -91 
Q 1150 -91 751 415 
Q 353 922 353 1747 
Q 353 2572 751 3078 
Q 1150 3584 1784 3584 
Q 2172 3584 2448 3432 
Q 2725 3281 2906 2969 
z
M 947 1747 
Q 947 1113 1208 752 
Q 1469 391 1925 391 
Q 2381 391 2643 752 
Q 2906 1113 2906 1747 
Q 2906 2381 2643 2742 
Q 2381 3103 1925 3103 
Q 1469 3103 1208 2742 
Q 947 2381 947 1747 
z
" transform="scale(0.015625)"/>
       <path id="DejaVuSans-78" d="M 3513 3500 
L 2247 1797 
L 3578 0 
L 2900 0 
L 1881 1375 
L 863 0 
L 184 0 
L 1544 1831 
L 300 3500 
L 978 3500 
L 1906 2253 
L 2834 3500 
L 3513 3500 
z
" transform="scale(0.015625)"/>
      </defs>
      <use xlink:href="#DejaVuSans-44"/>
      <use xlink:href="#DejaVuSans-69" x="77.001953"/>
      <use xlink:href="#DejaVuSans-73" x="104.785156"/>
      <use xlink:href="#DejaVuSans-70" x="156.884766"/>
      <use xlink:href="#DejaVuSans-65" x="220.361328"/>
      <use xlink:href="#DejaVuSans-72" x="281.884766"/>
      <use xlink:href="#DejaVuSans-73" x="322.998047"/>
      <use xlink:href="#DejaVuSans-73" x="375.097656"/>
      <use xlink:href="#DejaVuSans-69" x="427.197266"/>
      <use xlink:href="#DejaVuSans-6f" x="454.980469"/>
      <use xlink:href="#DejaVuSans-6e" x="516.162109"/>
      <use xlink:href="#DejaVuSans-20" x="579.541016"/>
      <use xlink:href="#DejaVuSans-69" x="611.328125"/>
      <use xlink:href="#DejaVuSans-6e" x="639.111328"/>
      <use xlink:href="#DejaVuSans-64" x="702.490234"/>
      <use xlink:href="#DejaVuSans-65" x="765.966797"/>
      <use xlink:href="#DejaVuSans-78" x="825.740234"/>
     </g>
    </g>
   </g>
   <g id="line2d_13">
    <path d="M 73.832727 295.488 
L 77.145529 268.121219 
L 80.45833 265.393184 
L 83.771132 256.144008 
L 87.083933 250.722067 
L 90.396735 245.332849 
L 93.709536 240.981067 
L 97.022338 236.352077 
L 100.335139 231.56428 
L 103.647941 226.85985 
L 106.960742 222.984703 
L 110.273544 220.979121 
L 113.586345 216.962667 
L 116.899147 214.966252 
L 120.211948 211.238392 
L 123.52475 206.750064 
L 126.837551 203.140333 
L 130.150353 203.091723 
L 133.463154 197.05291 
L 136.775955 194.131637 
L 140.088757 191.169653 
L 143.401558 189.6115 
L 146.71436 186.032197 
L 150.027161 184.36239 
L 153.339963 181.426672 
L 156.652764 179.195902 
L 159.965566 175.983681 
L 163.278367 174.651306 
L 166.591169 173.288342 
L 169.90397 170.088673 
L 173.216772 168.868536 
L 176.529573 168.448809 
L 179.842375 164.766088 
L 183.155176 162.415728 
L 186.467978 162.300916 
L 189.780779 160.062987 
L 193.093581 158.861932 
L 196.406382 154.945154 
L 199.719184 151.327677 
L 203.031985 151.115772 
L 206.344787 151.242599 
L 209.657588 148.137073 
L 212.97039 149.231116 
L 216.283191 149.1461 
L 219.595993 146.943026 
L 222.908794 148.357753 
L 226.221596 148.818679 
L 229.534397 145.275042 
L 232.847199 142.51279 
L 236.16 140.661283 
L 239.472801 140.27119 
L 242.785603 139.788753 
L 246.098404 139.003938 
L 249.411206 140.317143 
L 252.724007 137.957442 
L 256.036809 139.041978 
L 259.34961 141.584685 
L 262.662412 137.776707 
L 265.975213 138.565777 
L 269.288015 137.056767 
L 272.600816 135.472459 
L 275.913618 134.035499 
L 279.226419 128.531511 
L 282.539221 126.330778 
L 285.852022 125.573507 
L 289.164824 122.759465 
L 292.477625 120.121312 
L 295.790427 121.633031 
L 299.103228 118.114745 
L 302.41603 119.809313 
L 305.728831 116.490739 
L 309.041633 114.144123 
L 312.354434 112.356938 
L 315.667236 112.163132 
L 318.980037 109.370415 
L 322.292839 111.727834 
L 325.60564 108.204289 
L 328.918442 113.625645 
L 332.231243 111.242881 
L 335.544045 108.170603 
L 338.856846 107.911498 
L 342.169647 104.953759 
L 345.482449 101.224236 
L 348.79525 94.919296 
L 352.108052 90.862818 
L 355.420853 83.782858 
L 358.733655 84.969889 
L 362.046456 84.84322 
L 365.359258 85.491024 
L 368.672059 82.788453 
L 371.984861 81.401129 
L 375.297662 76.76511 
L 378.610464 72.476674 
L 381.923265 70.165589 
L 385.236067 70.689466 
L 388.548868 71.728839 
L 391.86167 64.414425 
L 395.174471 58.71556 
L 398.487273 53.568 
" clip-path="url(#ped3dbb7c7e)" style="fill: none; stroke: #1f77b4; stroke-width: 1.5; stroke-linecap: square"/>
    <defs>
     <path id="m82670595ec" d="M 0 3 
C 0.795609 3 1.55874 2.683901 2.12132 2.12132 
C 2.683901 1.55874 3 0.795609 3 0 
C 3 -0.795609 2.683901 -1.55874 2.12132 -2.12132 
C 1.55874 -2.683901 0.795609 -3 0 -3 
C -0.795609 -3 -1.55874 -2.683901 -2.12132 -2.12132 
C -2.683901 -1.55874 -3 -0.795609 -3 0 
C -3 0.795609 -2.683901 1.55874 -2.12132 2.12132 
C -1.55874 2.683901 -0.795609 3 0 3 
z
" style="stroke: #1f77b4"/>
    </defs>
    <g clip-path="url(#ped3dbb7c7e)">
     <use xlink:href="#m82670595ec" x="73.832727" y="295.488" style="fill: #1f77b4; stroke: #1f77b4"/>
     <use xlink:href="#m82670595ec" x="77.145529" y="268.121219" style="fill: #1f77b4; stroke: #1f77b4"/>
     <use xlink:href="#m82670595ec" x="80.45833" y="265.393184" style="fill: #1f77b4; stroke: #1f77b4"/>
     <use xlink:href="#m82670595ec" x="83.771132" y="256.144008" style="fill: #1f77b4; stroke: #1f77b4"/>
     <use xlink:href="#m82670595ec" x="87.083933" y="250.722067" style="fill: #1f77b4; stroke: #1f77b4"/>
     <use xlink:href="#m82670595ec" x="90.396735" y="245.332849" style="fill: #1f77b4; stroke: #1f77b4"/>
     <use xlink:href="#m82670595ec" x="93.709536" y="240.981067" style="fill: #1f77b4; stroke: #1f77b4"/>
     <use xlink:href="#m82670595ec" x="97.022338" y="236.352077" style="fill: #1f77b4; stroke: #1f77b4"/>
     <use xlink:href="#m82670595ec" x="100.335139" y="231.56428" style="fill: #1f77b4; stroke: #1f77b4"/>
     <use xlink:href="#m82670595ec" x="103.647941" y="226.85985" style="fill: #1f77b4; stroke: #1f77b4"/>
     <use xlink:href="#m82670595ec" x="106.960742" y="222.984703" style="fill: #1f77b4; stroke: #1f77b4"/>
     <use xlink:href="#m82670595ec" x="110.273544" y="220.979121" style="fill: #1f77b4; stroke: #1f77b4"/>
     <use xlink:href="#m82670595ec" x="113.586345" y="216.962667" style="fill: #1f77b4; stroke: #1f77b4"/>
     <use xlink:href="#m82670595ec" x="116.899147" y="214.966252" style="fill: #1f77b4; stroke: #1f77b4"/>
     <use xlink:href="#m82670595ec" x="120.211948" y="211.238392" style="fill: #1f77b4; stroke: #1f77b4"/>
     <use xlink:href="#m82670595ec" x="123.52475" y="206.750064" style="fill: #1f77b4; stroke: #1f77b4"/>
     <use xlink:href="#m82670595ec" x="126.837551" y="203.140333" style="fill: #1f77b4; stroke: #1f77b4"/>
     <use xlink:href="#m82670595ec" x="130.150353" y="203.091723" style="fill: #1f77b4; stroke: #1f77b4"/>
     <use xlink:href="#m82670595ec" x="133.463154" y="197.05291" style="fill: #1f77b4; stroke: #1f77b4"/>
     <use xlink:href="#m82670595ec" x="136.775955" y="194.131637" style="fill: #1f77b4; stroke: #1f77b4"/>
     <use xlink:href="#m82670595ec" x="140.088757" y="191.169653" style="fill: #1f77b4; stroke: #1f77b4"/>
     <use xlink:href="#m82670595ec" x="143.401558" y="189.6115" style="fill: #1f77b4; stroke: #1f77b4"/>
     <use xlink:href="#m82670595ec" x="146.71436" y="186.032197" style="fill: #1f77b4; stroke: #1f77b4"/>
     <use xlink:href="#m82670595ec" x="150.027161" y="184.36239" style="fill: #1f77b4; stroke: #1f77b4"/>
     <use xlink:href="#m82670595ec" x="153.339963" y="181.426672" style="fill: #1f77b4; stroke: #1f77b4"/>
     <use xlink:href="#m82670595ec" x="156.652764" y="179.195902" style="fill: #1f77b4; stroke: #1f77b4"/>
     <use xlink:href="#m82670595ec" x="159.965566" y="175.983681" style="fill: #1f77b4; stroke: #1f77b4"/>
     <use xlink:href="#m82670595ec" x="163.278367" y="174.651306" style="fill: #1f77b4; stroke: #1f77b4"/>
     <use xlink:href="#m82670595ec" x="166.591169" y="173.288342" style="fill: #1f77b4; stroke: #1f77b4"/>
     <use xlink:href="#m82670595ec" x="169.90397" y="170.088673" style="fill: #1f77b4; stroke: #1f77b4"/>
     <use xlink:href="#m82670595ec" x="173.216772" y="168.868536" style="fill: #1f77b4; stroke: #1f77b4"/>
     <use xlink:href="#m82670595ec" x="176.529573" y="168.448809" style="fill: #1f77b4; stroke: #1f77b4"/>
     <use xlink:href="#m82670595ec" x="179.842375" y="164.766088" style="fill: #1f77b4; stroke: #1f77b4"/>
     <use xlink:href="#m82670595ec" x="183.155176" y="162.415728" style="fill: #1f77b4; stroke: #1f77b4"/>
     <use xlink:href="#m82670595ec" x="186.467978" y="162.300916" style="fill: #1f77b4; stroke: #1f77b4"/>
     <use xlink:href="#m82670595ec" x="189.780779" y="160.062987" style="fill: #1f77b4; stroke: #1f77b4"/>
     <use xlink:href="#m82670595ec" x="193.093581" y="158.861932" style="fill: #1f77b4; stroke: #1f77b4"/>
     <use xlink:href="#m82670595ec" x="196.406382" y="154.945154" style="fill: #1f77b4; stroke: #1f77b4"/>
     <use xlink:href="#m82670595ec" x="199.719184" y="151.327677" style="fill: #1f77b4; stroke: #1f77b4"/>
     <use xlink:href="#m82670595ec" x="203.031985" y="151.115772" style="fill: #1f77b4; stroke: #1f77b4"/>
     <use xlink:href="#m82670595ec" x="206.344787" y="151.242599" style="fill: #1f77b4; stroke: #1f77b4"/>
     <use xlink:href="#m82670595ec" x="209.657588" y="148.137073" style="fill: #1f77b4; stroke: #1f77b4"/>
     <use xlink:href="#m82670595ec" x="212.97039" y="149.231116" style="fill: #1f77b4; stroke: #1f77b4"/>
     <use xlink:href="#m82670595ec" x="216.283191" y="149.1461" style="fill: #1f77b4; stroke: #1f77b4"/>
     <use xlink:href="#m82670595ec" x="219.595993" y="146.943026" style="fill: #1f77b4; stroke: #1f77b4"/>
     <use xlink:href="#m82670595ec" x="222.908794" y="148.357753" style="fill: #1f77b4; stroke: #1f77b4"/>
     <use xlink:href="#m82670595ec" x="226.221596" y="148.818679" style="fill: #1f77b4; stroke: #1f77b4"/>
     <use xlink:href="#m82670595ec" x="229.534397" y="145.275042" style="fill: #1f77b4; stroke: #1f77b4"/>
     <use xlink:href="#m82670595ec" x="232.847199" y="142.51279" style="fill: #1f77b4; stroke: #1f77b4"/>
     <use xlink:href="#m82670595ec" x="236.16" y="140.661283" style="fill: #1f77b4; stroke: #1f77b4"/>
     <use xlink:href="#m82670595ec" x="239.472801" y="140.27119" style="fill: #1f77b4; stroke: #1f77b4"/>
     <use xlink:href="#m82670595ec" x="242.785603" y="139.788753" style="fill: #1f77b4; stroke: #1f77b4"/>
     <use xlink:href="#m82670595ec" x="246.098404" y="139.003938" style="fill: #1f77b4; stroke: #1f77b4"/>
     <use xlink:href="#m82670595ec" x="249.411206" y="140.317143" style="fill: #1f77b4; stroke: #1f77b4"/>
     <use xlink:href="#m82670595ec" x="252.724007" y="137.957442" style="fill: #1f77b4; stroke: #1f77b4"/>
     <use xlink:href="#m82670595ec" x="256.036809" y="139.041978" style="fill: #1f77b4; stroke: #1f77b4"/>
     <use xlink:href="#m82670595ec" x="259.34961" y="141.584685" style="fill: #1f77b4; stroke: #1f77b4"/>
     <use xlink:href="#m82670595ec" x="262.662412" y="137.776707" style="fill: #1f77b4; stroke: #1f77b4"/>
     <use xlink:href="#m82670595ec" x="265.975213" y="138.565777" style="fill: #1f77b4; stroke: #1f77b4"/>
     <use xlink:href="#m82670595ec" x="269.288015" y="137.056767" style="fill: #1f77b4; stroke: #1f77b4"/>
     <use xlink:href="#m82670595ec" x="272.600816" y="135.472459" style="fill: #1f77b4; stroke: #1f77b4"/>
     <use xlink:href="#m82670595ec" x="275.913618" y="134.035499" style="fill: #1f77b4; stroke: #1f77b4"/>
     <use xlink:href="#m82670595ec" x="279.226419" y="128.531511" style="fill: #1f77b4; stroke: #1f77b4"/>
     <use xlink:href="#m82670595ec" x="282.539221" y="126.330778" style="fill: #1f77b4; stroke: #1f77b4"/>
     <use xlink:href="#m82670595ec" x="285.852022" y="125.573507" style="fill: #1f77b4; stroke: #1f77b4"/>
     <use xlink:href="#m82670595ec" x="289.164824" y="122.759465" style="fill: #1f77b4; stroke: #1f77b4"/>
     <use xlink:href="#m82670595ec" x="292.477625" y="120.121312" style="fill: #1f77b4; stroke: #1f77b4"/>
     <use xlink:href="#m82670595ec" x="295.790427" y="121.633031" style="fill: #1f77b4; stroke: #1f77b4"/>
     <use xlink:href="#m82670595ec" x="299.103228" y="118.114745" style="fill: #1f77b4; stroke: #1f77b4"/>
     <use xlink:href="#m82670595ec" x="302.41603" y="119.809313" style="fill: #1f77b4; stroke: #1f77b4"/>
     <use xlink:href="#m82670595ec" x="305.728831" y="116.490739" style="fill: #1f77b4; stroke: #1f77b4"/>
     <use xlink:href="#m82670595ec" x="309.041633" y="114.144123" style="fill: #1f77b4; stroke: #1f77b4"/>
     <use xlink:href="#m82670595ec" x="312.354434" y="112.356938" style="fill: #1f77b4; stroke: #1f77b4"/>
     <use xlink:href="#m82670595ec" x="315.667236" y="112.163132" style="fill: #1f77b4; stroke: #1f77b4"/>
     <use xlink:href="#m82670595ec" x="318.980037" y="109.370415" style="fill: #1f77b4; stroke: #1f77b4"/>
     <use xlink:href="#m82670595ec" x="322.292839" y="111.727834" style="fill: #1f77b4; stroke: #1f77b4"/>
     <use xlink:href="#m82670595ec" x="325.60564" y="108.204289" style="fill: #1f77b4; stroke: #1f77b4"/>
     <use xlink:href="#m82670595ec" x="328.918442" y="113.625645" style="fill: #1f77b4; stroke: #1f77b4"/>
     <use xlink:href="#m82670595ec" x="332.231243" y="111.242881" style="fill: #1f77b4; stroke: #1f77b4"/>
     <use xlink:href="#m82670595ec" x="335.544045" y="108.170603" style="fill: #1f77b4; stroke: #1f77b4"/>
     <use xlink:href="#m82670595ec" x="338.856846" y="107.911498" style="fill: #1f77b4; stroke: #1f77b4"/>
     <use xlink:href="#m82670595ec" x="342.169647" y="104.953759" style="fill: #1f77b4; stroke: #1f77b4"/>
     <use xlink:href="#m82670595ec" x="345.482449" y="101.224236" style="fill: #1f77b4; stroke: #1f77b4"/>
     <use xlink:href="#m82670595ec" x="348.79525" y="94.919296" style="fill: #1f77b4; stroke: #1f77b4"/>
     <use xlink:href="#m82670595ec" x="352.108052" y="90.862818" style="fill: #1f77b4; stroke: #1f77b4"/>
     <use xlink:href="#m82670595ec" x="355.420853" y="83.782858" style="fill: #1f77b4; stroke: #1f77b4"/>
     <use xlink:href="#m82670595ec" x="358.733655" y="84.969889" style="fill: #1f77b4; stroke: #1f77b4"/>
     <use xlink:href="#m82670595ec" x="362.046456" y="84.84322" style="fill: #1f77b4; stroke: #1f77b4"/>
     <use xlink:href="#m82670595ec" x="365.359258" y="85.491024" style="fill: #1f77b4; stroke: #1f77b4"/>
     <use xlink:href="#m82670595ec" x="368.672059" y="82.788453" style="fill: #1f77b4; stroke: #1f77b4"/>
     <use xlink:href="#m82670595ec" x="371.984861" y="81.401129" style="fill: #1f77b4; stroke: #1f77b4"/>
     <use xlink:href="#m82670595ec" x="375.297662" y="76.76511" style="fill: #1f77b4; stroke: #1f77b4"/>
     <use xlink:href="#m82670595ec" x="378.610464" y="72.476674" style="fill: #1f77b4; stroke: #1f77b4"/>
     <use xlink:href="#m82670595ec" x="381.923265" y="70.165589" style="fill: #1f77b4; stroke: #1f77b4"/>
     <use xlink:href="#m82670595ec" x="385.236067" y="70.689466" style="fill: #1f77b4; stroke: #1f77b4"/>
     <use xlink:href="#m82670595ec" x="388.548868" y="71.728839" style="fill: #1f77b4; stroke: #1f77b4"/>
     <use xlink:href="#m82670595ec" x="391.86167" y="64.414425" style="fill: #1f77b4; stroke: #1f77b4"/>
     <use xlink:href="#m82670595ec" x="395.174471" y="58.71556" style="fill: #1f77b4; stroke: #1f77b4"/>
     <use xlink:href="#m82670595ec" x="398.487273" y="53.568" style="fill: #1f77b4; stroke: #1f77b4"/>
    </g>
   </g>
   <g id="patch_3">
    <path d="M 57.6 307.584 
L 57.6 41.472 
" style="fill: none; stroke: #000000; stroke-width: 0.8; stroke-linejoin: miter; stroke-linecap: square"/>
   </g>
   <g id="patch_4">
    <path d="M 414.72 307.584 
L 414.72 41.472 
" style="fill: none; stroke: #000000; stroke-width: 0.8; stroke-linejoin: miter; stroke-linecap: square"/>
   </g>
   <g id="patch_5">
    <path d="M 57.6 307.584 
L 414.72 307.584 
" style="fill: none; stroke: #000000; stroke-width: 0.8; stroke-linejoin: miter; stroke-linecap: square"/>
   </g>
   <g id="patch_6">
    <path d="M 57.6 41.472 
L 414.72 41.472 
" style="fill: none; stroke: #000000; stroke-width: 0.8; stroke-linejoin: miter; stroke-linecap: square"/>
   </g>
  </g>
 </g>
 <defs>
  <clipPath id="ped3dbb7c7e">
   <rect x="57.6" y="41.472" width="357.12" height="266.112"/>
  </clipPath>
 </defs>
</svg>
