<?xml version="1.0" encoding="utf-8" standalone="no"?>
<!DOCTYPE svg PUBLIC "-//W3C//DTD SVG 1.1//EN"
  "http://www.w3.org/Graphics/SVG/1.1/DTD/svg11.dtd">
<svg xmlns:xlink="http://www.w3.org/1999/xlink" width="460.8pt" height="345.6pt" viewBox="0 0 460.8 345.6" xmlns="http://www.w3.org/2000/svg" version="1.1">
 <metadata>
  <rdf:RDF xmlns:dc="http://purl.org/dc/elements/1.1/" xmlns:cc="http://creativecommons.org/ns#" xmlns:rdf="http://www.w3.org/1999/02/22-rdf-syntax-ns#">
   <cc:Work>
    <dc:type rdf:resource="http://purl.org/dc/dcmitype/StillImage"/>
    <dc:date>2023-03-22T14:54:33.977755</dc:date>
    <dc:format>image/svg+xml</dc:format>
    <dc:creator>
     <cc:Agent>
      <dc:title>Matplotlib v3.5.1, https://matplotlib.org/</dc:title>
     </cc:Agent>
    </dc:creator>
   </cc:Work>
  </rdf:RDF>
 </metadata>
 <defs>
  <style type="text/css">*{stroke-linejoin: round; stroke-linecap: butt}</style>
 </defs>
 <g id="figure_1">
  <g id="patch_1">
   <path d="M 0 345.6 
L 460.8 345.6 
L 460.8 0 
L 0 0 
z
" style="fill: #ffffff"/>
  </g>
  <g id="axes_1">
   <g id="patch_2">
    <path d="M 57.6 307.584 
L 414.72 307.584 
L 414.72 41.472 
L 57.6 41.472 
z
" style="fill: #ffffff"/>
   </g>
   <g id="matplotlib.axis_1">
    <g id="xtick_1">
     <g id="line2d_1">
      <defs>
       <path id="m80e76fea1b" d="M 0 0 
L 0 3.5 
" style="stroke: #000000; stroke-width: 0.8"/>
      </defs>
      <g>
       <use xlink:href="#m80e76fea1b" x="62.637743" y="307.584" style="stroke: #000000; stroke-width: 0.8"/>
      </g>
     </g>
     <g id="text_1">
      <!-- 0 -->
      <g transform="translate(59.456493 322.182437)scale(0.1 -0.1)">
       <defs>
        <path id="DejaVuSans-30" d="M 2034 4250 
Q 1547 4250 1301 3770 
Q 1056 3291 1056 2328 
Q 1056 1369 1301 889 
Q 1547 409 2034 409 
Q 2525 409 2770 889 
Q 3016 1369 3016 2328 
Q 3016 3291 2770 3770 
Q 2525 4250 2034 4250 
z
M 2034 4750 
Q 2819 4750 3233 4129 
Q 3647 3509 3647 2328 
Q 3647 1150 3233 529 
Q 2819 -91 2034 -91 
Q 1250 -91 836 529 
Q 422 1150 422 2328 
Q 422 3509 836 4129 
Q 1250 4750 2034 4750 
z
" transform="scale(0.015625)"/>
       </defs>
       <use xlink:href="#DejaVuSans-30"/>
      </g>
     </g>
    </g>
    <g id="xtick_2">
     <g id="line2d_2">
      <g>
       <use xlink:href="#m80e76fea1b" x="118.612665" y="307.584" style="stroke: #000000; stroke-width: 0.8"/>
      </g>
     </g>
     <g id="text_2">
      <!-- 10 -->
      <g transform="translate(112.250165 322.182437)scale(0.1 -0.1)">
       <defs>
        <path id="DejaVuSans-31" d="M 794 531 
L 1825 531 
L 1825 4091 
L 703 3866 
L 703 4441 
L 1819 4666 
L 2450 4666 
L 2450 531 
L 3481 531 
L 3481 0 
L 794 0 
L 794 531 
z
" transform="scale(0.015625)"/>
       </defs>
       <use xlink:href="#DejaVuSans-31"/>
       <use xlink:href="#DejaVuSans-30" x="63.623047"/>
      </g>
     </g>
    </g>
    <g id="xtick_3">
     <g id="line2d_3">
      <g>
       <use xlink:href="#m80e76fea1b" x="174.587586" y="307.584" style="stroke: #000000; stroke-width: 0.8"/>
      </g>
     </g>
     <g id="text_3">
      <!-- 20 -->
      <g transform="translate(168.225086 322.182437)scale(0.1 -0.1)">
       <defs>
        <path id="DejaVuSans-32" d="M 1228 531 
L 3431 531 
L 3431 0 
L 469 0 
L 469 531 
Q 828 903 1448 1529 
Q 2069 2156 2228 2338 
Q 2531 2678 2651 2914 
Q 2772 3150 2772 3378 
Q 2772 3750 2511 3984 
Q 2250 4219 1831 4219 
Q 1534 4219 1204 4116 
Q 875 4013 500 3803 
L 500 4441 
Q 881 4594 1212 4672 
Q 1544 4750 1819 4750 
Q 2544 4750 2975 4387 
Q 3406 4025 3406 3419 
Q 3406 3131 3298 2873 
Q 3191 2616 2906 2266 
Q 2828 2175 2409 1742 
Q 1991 1309 1228 531 
z
" transform="scale(0.015625)"/>
       </defs>
       <use xlink:href="#DejaVuSans-32"/>
       <use xlink:href="#DejaVuSans-30" x="63.623047"/>
      </g>
     </g>
    </g>
    <g id="xtick_4">
     <g id="line2d_4">
      <g>
       <use xlink:href="#m80e76fea1b" x="230.562508" y="307.584" style="stroke: #000000; stroke-width: 0.8"/>
      </g>
     </g>
     <g id="text_4">
      <!-- 30 -->
      <g transform="translate(224.200008 322.182437)scale(0.1 -0.1)">
       <defs>
        <path id="DejaVuSans-33" d="M 2597 2516 
Q 3050 2419 3304 2112 
Q 3559 1806 3559 1356 
Q 3559 666 3084 287 
Q 2609 -91 1734 -91 
Q 1441 -91 1130 -33 
Q 819 25 488 141 
L 488 750 
Q 750 597 1062 519 
Q 1375 441 1716 441 
Q 2309 441 2620 675 
Q 2931 909 2931 1356 
Q 2931 1769 2642 2001 
Q 2353 2234 1838 2234 
L 1294 2234 
L 1294 2753 
L 1863 2753 
Q 2328 2753 2575 2939 
Q 2822 3125 2822 3475 
Q 2822 3834 2567 4026 
Q 2313 4219 1838 4219 
Q 1578 4219 1281 4162 
Q 984 4106 628 3988 
L 628 4550 
Q 988 4650 1302 4700 
Q 1616 4750 1894 4750 
Q 2613 4750 3031 4423 
Q 3450 4097 3450 3541 
Q 3450 3153 3228 2886 
Q 3006 2619 2597 2516 
z
" transform="scale(0.015625)"/>
       </defs>
       <use xlink:href="#DejaVuSans-33"/>
       <use xlink:href="#DejaVuSans-30" x="63.623047"/>
      </g>
     </g>
    </g>
    <g id="xtick_5">
     <g id="line2d_5">
      <g>
       <use xlink:href="#m80e76fea1b" x="286.537429" y="307.584" style="stroke: #000000; stroke-width: 0.8"/>
      </g>
     </g>
     <g id="text_5">
      <!-- 40 -->
      <g transform="translate(280.174929 322.182437)scale(0.1 -0.1)">
       <defs>
        <path id="DejaVuSans-34" d="M 2419 4116 
L 825 1625 
L 2419 1625 
L 2419 4116 
z
M 2253 4666 
L 3047 4666 
L 3047 1625 
L 3713 1625 
L 3713 1100 
L 3047 1100 
L 3047 0 
L 2419 0 
L 2419 1100 
L 313 1100 
L 313 1709 
L 2253 4666 
z
" transform="scale(0.015625)"/>
       </defs>
       <use xlink:href="#DejaVuSans-34"/>
       <use xlink:href="#DejaVuSans-30" x="63.623047"/>
      </g>
     </g>
    </g>
    <g id="xtick_6">
     <g id="line2d_6">
      <g>
       <use xlink:href="#m80e76fea1b" x="342.512351" y="307.584" style="stroke: #000000; stroke-width: 0.8"/>
      </g>
     </g>
     <g id="text_6">
      <!-- 50 -->
      <g transform="translate(336.149851 322.182437)scale(0.1 -0.1)">
       <defs>
        <path id="DejaVuSans-35" d="M 691 4666 
L 3169 4666 
L 3169 4134 
L 1269 4134 
L 1269 2991 
Q 1406 3038 1543 3061 
Q 1681 3084 1819 3084 
Q 2600 3084 3056 2656 
Q 3513 2228 3513 1497 
Q 3513 744 3044 326 
Q 2575 -91 1722 -91 
Q 1428 -91 1123 -41 
Q 819 9 494 109 
L 494 744 
Q 775 591 1075 516 
Q 1375 441 1709 441 
Q 2250 441 2565 725 
Q 2881 1009 2881 1497 
Q 2881 1984 2565 2268 
Q 2250 2553 1709 2553 
Q 1456 2553 1204 2497 
Q 953 2441 691 2322 
L 691 4666 
z
" transform="scale(0.015625)"/>
       </defs>
       <use xlink:href="#DejaVuSans-35"/>
       <use xlink:href="#DejaVuSans-30" x="63.623047"/>
      </g>
     </g>
    </g>
    <g id="xtick_7">
     <g id="line2d_7">
      <g>
       <use xlink:href="#m80e76fea1b" x="398.487273" y="307.584" style="stroke: #000000; stroke-width: 0.8"/>
      </g>
     </g>
     <g id="text_7">
      <!-- 60 -->
      <g transform="translate(392.124773 322.182437)scale(0.1 -0.1)">
       <defs>
        <path id="DejaVuSans-36" d="M 2113 2584 
Q 1688 2584 1439 2293 
Q 1191 2003 1191 1497 
Q 1191 994 1439 701 
Q 1688 409 2113 409 
Q 2538 409 2786 701 
Q 3034 994 3034 1497 
Q 3034 2003 2786 2293 
Q 2538 2584 2113 2584 
z
M 3366 4563 
L 3366 3988 
Q 3128 4100 2886 4159 
Q 2644 4219 2406 4219 
Q 1781 4219 1451 3797 
Q 1122 3375 1075 2522 
Q 1259 2794 1537 2939 
Q 1816 3084 2150 3084 
Q 2853 3084 3261 2657 
Q 3669 2231 3669 1497 
Q 3669 778 3244 343 
Q 2819 -91 2113 -91 
Q 1303 -91 875 529 
Q 447 1150 447 2328 
Q 447 3434 972 4092 
Q 1497 4750 2381 4750 
Q 2619 4750 2861 4703 
Q 3103 4656 3366 4563 
z
" transform="scale(0.015625)"/>
       </defs>
       <use xlink:href="#DejaVuSans-36"/>
       <use xlink:href="#DejaVuSans-30" x="63.623047"/>
      </g>
     </g>
    </g>
    <g id="text_8">
     <!-- step -->
     <g transform="translate(225.344375 335.860562)scale(0.1 -0.1)">
      <defs>
       <path id="DejaVuSans-73" d="M 2834 3397 
L 2834 2853 
Q 2591 2978 2328 3040 
Q 2066 3103 1784 3103 
Q 1356 3103 1142 2972 
Q 928 2841 928 2578 
Q 928 2378 1081 2264 
Q 1234 2150 1697 2047 
L 1894 2003 
Q 2506 1872 2764 1633 
Q 3022 1394 3022 966 
Q 3022 478 2636 193 
Q 2250 -91 1575 -91 
Q 1294 -91 989 -36 
Q 684 19 347 128 
L 347 722 
Q 666 556 975 473 
Q 1284 391 1588 391 
Q 1994 391 2212 530 
Q 2431 669 2431 922 
Q 2431 1156 2273 1281 
Q 2116 1406 1581 1522 
L 1381 1569 
Q 847 1681 609 1914 
Q 372 2147 372 2553 
Q 372 3047 722 3315 
Q 1072 3584 1716 3584 
Q 2034 3584 2315 3537 
Q 2597 3491 2834 3397 
z
" transform="scale(0.015625)"/>
       <path id="DejaVuSans-74" d="M 1172 4494 
L 1172 3500 
L 2356 3500 
L 2356 3053 
L 1172 3053 
L 1172 1153 
Q 1172 725 1289 603 
Q 1406 481 1766 481 
L 2356 481 
L 2356 0 
L 1766 0 
Q 1100 0 847 248 
Q 594 497 594 1153 
L 594 3053 
L 172 3053 
L 172 3500 
L 594 3500 
L 594 4494 
L 1172 4494 
z
" transform="scale(0.015625)"/>
       <path id="DejaVuSans-65" d="M 3597 1894 
L 3597 1613 
L 953 1613 
Q 991 1019 1311 708 
Q 1631 397 2203 397 
Q 2534 397 2845 478 
Q 3156 559 3463 722 
L 3463 178 
Q 3153 47 2828 -22 
Q 2503 -91 2169 -91 
Q 1331 -91 842 396 
Q 353 884 353 1716 
Q 353 2575 817 3079 
Q 1281 3584 2069 3584 
Q 2775 3584 3186 3129 
Q 3597 2675 3597 1894 
z
M 3022 2063 
Q 3016 2534 2758 2815 
Q 2500 3097 2075 3097 
Q 1594 3097 1305 2825 
Q 1016 2553 972 2059 
L 3022 2063 
z
" transform="scale(0.015625)"/>
       <path id="DejaVuSans-70" d="M 1159 525 
L 1159 -1331 
L 581 -1331 
L 581 3500 
L 1159 3500 
L 1159 2969 
Q 1341 3281 1617 3432 
Q 1894 3584 2278 3584 
Q 2916 3584 3314 3078 
Q 3713 2572 3713 1747 
Q 3713 922 3314 415 
Q 2916 -91 2278 -91 
Q 1894 -91 1617 61 
Q 1341 213 1159 525 
z
M 3116 1747 
Q 3116 2381 2855 2742 
Q 2594 3103 2138 3103 
Q 1681 3103 1420 2742 
Q 1159 2381 1159 1747 
Q 1159 1113 1420 752 
Q 1681 391 2138 391 
Q 2594 391 2855 752 
Q 3116 1113 3116 1747 
z
" transform="scale(0.015625)"/>
      </defs>
      <use xlink:href="#DejaVuSans-73"/>
      <use xlink:href="#DejaVuSans-74" x="52.099609"/>
      <use xlink:href="#DejaVuSans-65" x="91.308594"/>
      <use xlink:href="#DejaVuSans-70" x="152.832031"/>
     </g>
    </g>
   </g>
   <g id="matplotlib.axis_2">
    <g id="ytick_1">
     <g id="line2d_8">
      <defs>
       <path id="me62830401c" d="M 0 0 
L -3.5 0 
" style="stroke: #000000; stroke-width: 0.8"/>
      </defs>
      <g>
       <use xlink:href="#me62830401c" x="57.6" y="295.488" style="stroke: #000000; stroke-width: 0.8"/>
      </g>
     </g>
     <g id="text_9">
      <!-- 0 -->
      <g transform="translate(44.2375 299.287219)scale(0.1 -0.1)">
       <use xlink:href="#DejaVuSans-30"/>
      </g>
     </g>
    </g>
    <g id="ytick_2">
     <g id="line2d_9">
      <g>
       <use xlink:href="#me62830401c" x="57.6" y="239.916825" style="stroke: #000000; stroke-width: 0.8"/>
      </g>
     </g>
     <g id="text_10">
      <!-- 20 -->
      <g transform="translate(37.875 243.716044)scale(0.1 -0.1)">
       <use xlink:href="#DejaVuSans-32"/>
       <use xlink:href="#DejaVuSans-30" x="63.623047"/>
      </g>
     </g>
    </g>
    <g id="ytick_3">
     <g id="line2d_10">
      <g>
       <use xlink:href="#me62830401c" x="57.6" y="184.345651" style="stroke: #000000; stroke-width: 0.8"/>
      </g>
     </g>
     <g id="text_11">
      <!-- 40 -->
      <g transform="translate(37.875 188.14487)scale(0.1 -0.1)">
       <use xlink:href="#DejaVuSans-34"/>
       <use xlink:href="#DejaVuSans-30" x="63.623047"/>
      </g>
     </g>
    </g>
    <g id="ytick_4">
     <g id="line2d_11">
      <g>
       <use xlink:href="#me62830401c" x="57.6" y="128.774476" style="stroke: #000000; stroke-width: 0.8"/>
      </g>
     </g>
     <g id="text_12">
      <!-- 60 -->
      <g transform="translate(37.875 132.573695)scale(0.1 -0.1)">
       <use xlink:href="#DejaVuSans-36"/>
       <use xlink:href="#DejaVuSans-30" x="63.623047"/>
      </g>
     </g>
    </g>
    <g id="ytick_5">
     <g id="line2d_12">
      <g>
       <use xlink:href="#me62830401c" x="57.6" y="73.203302" style="stroke: #000000; stroke-width: 0.8"/>
      </g>
     </g>
     <g id="text_13">
      <!-- 80 -->
      <g transform="translate(37.875 77.002521)scale(0.1 -0.1)">
       <defs>
        <path id="DejaVuSans-38" d="M 2034 2216 
Q 1584 2216 1326 1975 
Q 1069 1734 1069 1313 
Q 1069 891 1326 650 
Q 1584 409 2034 409 
Q 2484 409 2743 651 
Q 3003 894 3003 1313 
Q 3003 1734 2745 1975 
Q 2488 2216 2034 2216 
z
M 1403 2484 
Q 997 2584 770 2862 
Q 544 3141 544 3541 
Q 544 4100 942 4425 
Q 1341 4750 2034 4750 
Q 2731 4750 3128 4425 
Q 3525 4100 3525 3541 
Q 3525 3141 3298 2862 
Q 3072 2584 2669 2484 
Q 3125 2378 3379 2068 
Q 3634 1759 3634 1313 
Q 3634 634 3220 271 
Q 2806 -91 2034 -91 
Q 1263 -91 848 271 
Q 434 634 434 1313 
Q 434 1759 690 2068 
Q 947 2378 1403 2484 
z
M 1172 3481 
Q 1172 3119 1398 2916 
Q 1625 2713 2034 2713 
Q 2441 2713 2670 2916 
Q 2900 3119 2900 3481 
Q 2900 3844 2670 4047 
Q 2441 4250 2034 4250 
Q 1625 4250 1398 4047 
Q 1172 3844 1172 3481 
z
" transform="scale(0.015625)"/>
       </defs>
       <use xlink:href="#DejaVuSans-38"/>
       <use xlink:href="#DejaVuSans-30" x="63.623047"/>
      </g>
     </g>
    </g>
    <g id="text_14">
     <!-- theta -->
     <g transform="translate(31.795313 187.757688)rotate(-90)scale(0.1 -0.1)">
      <defs>
       <path id="DejaVuSans-68" d="M 3513 2113 
L 3513 0 
L 2938 0 
L 2938 2094 
Q 2938 2591 2744 2837 
Q 2550 3084 2163 3084 
Q 1697 3084 1428 2787 
Q 1159 2491 1159 1978 
L 1159 0 
L 581 0 
L 581 4863 
L 1159 4863 
L 1159 2956 
Q 1366 3272 1645 3428 
Q 1925 3584 2291 3584 
Q 2894 3584 3203 3211 
Q 3513 2838 3513 2113 
z
" transform="scale(0.015625)"/>
       <path id="DejaVuSans-61" d="M 2194 1759 
Q 1497 1759 1228 1600 
Q 959 1441 959 1056 
Q 959 750 1161 570 
Q 1363 391 1709 391 
Q 2188 391 2477 730 
Q 2766 1069 2766 1631 
L 2766 1759 
L 2194 1759 
z
M 3341 1997 
L 3341 0 
L 2766 0 
L 2766 531 
Q 2569 213 2275 61 
Q 1981 -91 1556 -91 
Q 1019 -91 701 211 
Q 384 513 384 1019 
Q 384 1609 779 1909 
Q 1175 2209 1959 2209 
L 2766 2209 
L 2766 2266 
Q 2766 2663 2505 2880 
Q 2244 3097 1772 3097 
Q 1472 3097 1187 3025 
Q 903 2953 641 2809 
L 641 3341 
Q 956 3463 1253 3523 
Q 1550 3584 1831 3584 
Q 2591 3584 2966 3190 
Q 3341 2797 3341 1997 
z
" transform="scale(0.015625)"/>
      </defs>
      <use xlink:href="#DejaVuSans-74"/>
      <use xlink:href="#DejaVuSans-68" x="39.208984"/>
      <use xlink:href="#DejaVuSans-65" x="102.587891"/>
      <use xlink:href="#DejaVuSans-74" x="164.111328"/>
      <use xlink:href="#DejaVuSans-61" x="203.320312"/>
     </g>
    </g>
   </g>
   <g id="line2d_13">
    <path d="M 85.027712 295.488 
L 96.222696 288.03038 
L 107.41768 294.214399 
L 118.612665 294.431987 
L 129.807649 288.050807 
L 141.002633 293.604313 
L 152.197618 292.029229 
L 163.392602 293.631418 
L 174.587586 293.159089 
L 185.782571 293.715218 
L 191.380063 293.316789 
L 202.575047 294.081982 
L 208.172539 293.773359 
L 219.367524 292.433974 
L 230.562508 291.367103 
L 241.757492 290.112545 
L 252.952476 287.849 
L 264.147461 283.476386 
L 275.342445 279.426471 
L 286.537429 278.492496 
L 297.732414 258.785306 
L 308.927398 247.849189 
L 320.122382 237.173182 
L 331.317367 221.385425 
L 342.512351 206.496613 
L 353.707335 186.644215 
L 364.90232 166.933151 
L 376.097304 146.067509 
L 387.292288 123.554618 
L 398.487273 108.63373 
" clip-path="url(#p540693a76b)" style="fill: none; stroke: #0000ff; stroke-width: 1.5; stroke-linecap: square"/>
    <defs>
     <path id="m817cf6b8e2" d="M 0 3 
C 0.795609 3 1.55874 2.683901 2.12132 2.12132 
C 2.683901 1.55874 3 0.795609 3 0 
C 3 -0.795609 2.683901 -1.55874 2.12132 -2.12132 
C 1.55874 -2.683901 0.795609 -3 0 -3 
C -0.795609 -3 -1.55874 -2.683901 -2.12132 -2.12132 
C -2.683901 -1.55874 -3 -0.795609 -3 0 
C -3 0.795609 -2.683901 1.55874 -2.12132 2.12132 
C -1.55874 2.683901 -0.795609 3 0 3 
z
" style="stroke: #0000ff"/>
    </defs>
    <g clip-path="url(#p540693a76b)">
     <use xlink:href="#m817cf6b8e2" x="85.027712" y="295.488" style="fill: #0000ff; stroke: #0000ff"/>
     <use xlink:href="#m817cf6b8e2" x="96.222696" y="288.03038" style="fill: #0000ff; stroke: #0000ff"/>
     <use xlink:href="#m817cf6b8e2" x="107.41768" y="294.214399" style="fill: #0000ff; stroke: #0000ff"/>
     <use xlink:href="#m817cf6b8e2" x="118.612665" y="294.431987" style="fill: #0000ff; stroke: #0000ff"/>
     <use xlink:href="#m817cf6b8e2" x="129.807649" y="288.050807" style="fill: #0000ff; stroke: #0000ff"/>
     <use xlink:href="#m817cf6b8e2" x="141.002633" y="293.604313" style="fill: #0000ff; stroke: #0000ff"/>
     <use xlink:href="#m817cf6b8e2" x="152.197618" y="292.029229" style="fill: #0000ff; stroke: #0000ff"/>
     <use xlink:href="#m817cf6b8e2" x="163.392602" y="293.631418" style="fill: #0000ff; stroke: #0000ff"/>
     <use xlink:href="#m817cf6b8e2" x="174.587586" y="293.159089" style="fill: #0000ff; stroke: #0000ff"/>
     <use xlink:href="#m817cf6b8e2" x="185.782571" y="293.715218" style="fill: #0000ff; stroke: #0000ff"/>
     <use xlink:href="#m817cf6b8e2" x="191.380063" y="293.316789" style="fill: #0000ff; stroke: #0000ff"/>
     <use xlink:href="#m817cf6b8e2" x="202.575047" y="294.081982" style="fill: #0000ff; stroke: #0000ff"/>
     <use xlink:href="#m817cf6b8e2" x="208.172539" y="293.773359" style="fill: #0000ff; stroke: #0000ff"/>
     <use xlink:href="#m817cf6b8e2" x="219.367524" y="292.433974" style="fill: #0000ff; stroke: #0000ff"/>
     <use xlink:href="#m817cf6b8e2" x="230.562508" y="291.367103" style="fill: #0000ff; stroke: #0000ff"/>
     <use xlink:href="#m817cf6b8e2" x="241.757492" y="290.112545" style="fill: #0000ff; stroke: #0000ff"/>
     <use xlink:href="#m817cf6b8e2" x="252.952476" y="287.849" style="fill: #0000ff; stroke: #0000ff"/>
     <use xlink:href="#m817cf6b8e2" x="264.147461" y="283.476386" style="fill: #0000ff; stroke: #0000ff"/>
     <use xlink:href="#m817cf6b8e2" x="275.342445" y="279.426471" style="fill: #0000ff; stroke: #0000ff"/>
     <use xlink:href="#m817cf6b8e2" x="286.537429" y="278.492496" style="fill: #0000ff; stroke: #0000ff"/>
     <use xlink:href="#m817cf6b8e2" x="297.732414" y="258.785306" style="fill: #0000ff; stroke: #0000ff"/>
     <use xlink:href="#m817cf6b8e2" x="308.927398" y="247.849189" style="fill: #0000ff; stroke: #0000ff"/>
     <use xlink:href="#m817cf6b8e2" x="320.122382" y="237.173182" style="fill: #0000ff; stroke: #0000ff"/>
     <use xlink:href="#m817cf6b8e2" x="331.317367" y="221.385425" style="fill: #0000ff; stroke: #0000ff"/>
     <use xlink:href="#m817cf6b8e2" x="342.512351" y="206.496613" style="fill: #0000ff; stroke: #0000ff"/>
     <use xlink:href="#m817cf6b8e2" x="353.707335" y="186.644215" style="fill: #0000ff; stroke: #0000ff"/>
     <use xlink:href="#m817cf6b8e2" x="364.90232" y="166.933151" style="fill: #0000ff; stroke: #0000ff"/>
     <use xlink:href="#m817cf6b8e2" x="376.097304" y="146.067509" style="fill: #0000ff; stroke: #0000ff"/>
     <use xlink:href="#m817cf6b8e2" x="387.292288" y="123.554618" style="fill: #0000ff; stroke: #0000ff"/>
     <use xlink:href="#m817cf6b8e2" x="398.487273" y="108.63373" style="fill: #0000ff; stroke: #0000ff"/>
    </g>
   </g>
   <g id="line2d_14">
    <path d="M 73.832727 295.488 
L 85.027712 289.079904 
L 96.222696 288.908134 
L 107.41768 288.392749 
L 118.612665 241.810325 
L 129.807649 78.648176 
L 141.002633 62.31824 
L 152.197618 58.194944 
L 163.392602 55.958065 
L 174.587586 55.705512 
L 185.782571 57.769192 
L 191.380063 55.406246 
L 208.172539 59.93215 
L 219.367524 54.556656 
L 230.562508 56.543205 
L 241.757492 59.540048 
L 252.952476 54.624269 
L 264.147461 58.0338 
L 275.342445 59.780286 
L 286.537429 55.449634 
L 297.732414 55.725294 
L 308.927398 56.306227 
L 320.122382 60.157572 
L 331.317367 55.177355 
L 342.512351 55.355203 
L 353.707335 58.843331 
L 364.90232 57.154515 
L 376.097304 56.629544 
L 387.292288 54.23472 
L 398.487273 53.568 
" clip-path="url(#p540693a76b)" style="fill: none; stroke: #ff0000; stroke-width: 1.5; stroke-linecap: square"/>
    <defs>
     <path id="m9e2348bf9a" d="M 0 3 
C 0.795609 3 1.55874 2.683901 2.12132 2.12132 
C 2.683901 1.55874 3 0.795609 3 0 
C 3 -0.795609 2.683901 -1.55874 2.12132 -2.12132 
C 1.55874 -2.683901 0.795609 -3 0 -3 
C -0.795609 -3 -1.55874 -2.683901 -2.12132 -2.12132 
C -2.683901 -1.55874 -3 -0.795609 -3 0 
C -3 0.795609 -2.683901 1.55874 -2.12132 2.12132 
C -1.55874 2.683901 -0.795609 3 0 3 
z
" style="stroke: #ff0000"/>
    </defs>
    <g clip-path="url(#p540693a76b)">
     <use xlink:href="#m9e2348bf9a" x="73.832727" y="295.488" style="fill: #ff0000; stroke: #ff0000"/>
     <use xlink:href="#m9e2348bf9a" x="85.027712" y="289.079904" style="fill: #ff0000; stroke: #ff0000"/>
     <use xlink:href="#m9e2348bf9a" x="96.222696" y="288.908134" style="fill: #ff0000; stroke: #ff0000"/>
     <use xlink:href="#m9e2348bf9a" x="107.41768" y="288.392749" style="fill: #ff0000; stroke: #ff0000"/>
     <use xlink:href="#m9e2348bf9a" x="118.612665" y="241.810325" style="fill: #ff0000; stroke: #ff0000"/>
     <use xlink:href="#m9e2348bf9a" x="129.807649" y="78.648176" style="fill: #ff0000; stroke: #ff0000"/>
     <use xlink:href="#m9e2348bf9a" x="141.002633" y="62.31824" style="fill: #ff0000; stroke: #ff0000"/>
     <use xlink:href="#m9e2348bf9a" x="152.197618" y="58.194944" style="fill: #ff0000; stroke: #ff0000"/>
     <use xlink:href="#m9e2348bf9a" x="163.392602" y="55.958065" style="fill: #ff0000; stroke: #ff0000"/>
     <use xlink:href="#m9e2348bf9a" x="174.587586" y="55.705512" style="fill: #ff0000; stroke: #ff0000"/>
     <use xlink:href="#m9e2348bf9a" x="185.782571" y="57.769192" style="fill: #ff0000; stroke: #ff0000"/>
     <use xlink:href="#m9e2348bf9a" x="191.380063" y="55.406246" style="fill: #ff0000; stroke: #ff0000"/>
     <use xlink:href="#m9e2348bf9a" x="208.172539" y="59.93215" style="fill: #ff0000; stroke: #ff0000"/>
     <use xlink:href="#m9e2348bf9a" x="219.367524" y="54.556656" style="fill: #ff0000; stroke: #ff0000"/>
     <use xlink:href="#m9e2348bf9a" x="230.562508" y="56.543205" style="fill: #ff0000; stroke: #ff0000"/>
     <use xlink:href="#m9e2348bf9a" x="241.757492" y="59.540048" style="fill: #ff0000; stroke: #ff0000"/>
     <use xlink:href="#m9e2348bf9a" x="252.952476" y="54.624269" style="fill: #ff0000; stroke: #ff0000"/>
     <use xlink:href="#m9e2348bf9a" x="264.147461" y="58.0338" style="fill: #ff0000; stroke: #ff0000"/>
     <use xlink:href="#m9e2348bf9a" x="275.342445" y="59.780286" style="fill: #ff0000; stroke: #ff0000"/>
     <use xlink:href="#m9e2348bf9a" x="286.537429" y="55.449634" style="fill: #ff0000; stroke: #ff0000"/>
     <use xlink:href="#m9e2348bf9a" x="297.732414" y="55.725294" style="fill: #ff0000; stroke: #ff0000"/>
     <use xlink:href="#m9e2348bf9a" x="308.927398" y="56.306227" style="fill: #ff0000; stroke: #ff0000"/>
     <use xlink:href="#m9e2348bf9a" x="320.122382" y="60.157572" style="fill: #ff0000; stroke: #ff0000"/>
     <use xlink:href="#m9e2348bf9a" x="331.317367" y="55.177355" style="fill: #ff0000; stroke: #ff0000"/>
     <use xlink:href="#m9e2348bf9a" x="342.512351" y="55.355203" style="fill: #ff0000; stroke: #ff0000"/>
     <use xlink:href="#m9e2348bf9a" x="353.707335" y="58.843331" style="fill: #ff0000; stroke: #ff0000"/>
     <use xlink:href="#m9e2348bf9a" x="364.90232" y="57.154515" style="fill: #ff0000; stroke: #ff0000"/>
     <use xlink:href="#m9e2348bf9a" x="376.097304" y="56.629544" style="fill: #ff0000; stroke: #ff0000"/>
     <use xlink:href="#m9e2348bf9a" x="387.292288" y="54.23472" style="fill: #ff0000; stroke: #ff0000"/>
     <use xlink:href="#m9e2348bf9a" x="398.487273" y="53.568" style="fill: #ff0000; stroke: #ff0000"/>
    </g>
   </g>
   <g id="patch_3">
    <path d="M 57.6 307.584 
L 57.6 41.472 
" style="fill: none; stroke: #000000; stroke-width: 0.8; stroke-linejoin: miter; stroke-linecap: square"/>
   </g>
   <g id="patch_4">
    <path d="M 414.72 307.584 
L 414.72 41.472 
" style="fill: none; stroke: #000000; stroke-width: 0.8; stroke-linejoin: miter; stroke-linecap: square"/>
   </g>
   <g id="patch_5">
    <path d="M 57.6 307.584 
L 414.72 307.584 
" style="fill: none; stroke: #000000; stroke-width: 0.8; stroke-linejoin: miter; stroke-linecap: square"/>
   </g>
   <g id="patch_6">
    <path d="M 57.6 41.472 
L 414.72 41.472 
" style="fill: none; stroke: #000000; stroke-width: 0.8; stroke-linejoin: miter; stroke-linecap: square"/>
   </g>
   <g id="legend_1">
    <g id="patch_7">
     <path d="M 64.6 78.82825 
L 109.325 78.82825 
Q 111.325 78.82825 111.325 76.82825 
L 111.325 48.472 
Q 111.325 46.472 109.325 46.472 
L 64.6 46.472 
Q 62.6 46.472 62.6 48.472 
L 62.6 76.82825 
Q 62.6 78.82825 64.6 78.82825 
z
" style="fill: #ffffff; opacity: 0.8; stroke: #cccccc; stroke-linejoin: miter"/>
    </g>
    <g id="line2d_15">
     <path d="M 66.6 54.570437 
L 76.6 54.570437 
L 86.6 54.570437 
" style="fill: none; stroke: #0000ff; stroke-width: 1.5; stroke-linecap: square"/>
     <g>
      <use xlink:href="#m817cf6b8e2" x="76.6" y="54.570437" style="fill: #0000ff; stroke: #0000ff"/>
     </g>
    </g>
    <g id="text_15">
     <!-- 30 -->
     <g transform="translate(94.6 58.070437)scale(0.1 -0.1)">
      <use xlink:href="#DejaVuSans-33"/>
      <use xlink:href="#DejaVuSans-30" x="63.623047"/>
     </g>
    </g>
    <g id="line2d_16">
     <path d="M 66.6 69.248562 
L 76.6 69.248562 
L 86.6 69.248562 
" style="fill: none; stroke: #ff0000; stroke-width: 1.5; stroke-linecap: square"/>
     <g>
      <use xlink:href="#m9e2348bf9a" x="76.6" y="69.248562" style="fill: #ff0000; stroke: #ff0000"/>
     </g>
    </g>
    <g id="text_16">
     <!-- 43 -->
     <g transform="translate(94.6 72.748562)scale(0.1 -0.1)">
      <use xlink:href="#DejaVuSans-34"/>
      <use xlink:href="#DejaVuSans-33" x="63.623047"/>
     </g>
    </g>
   </g>
  </g>
 </g>
 <defs>
  <clipPath id="p540693a76b">
   <rect x="57.6" y="41.472" width="357.12" height="266.112"/>
  </clipPath>
 </defs>
</svg>
