<?xml version="1.0" encoding="utf-8" standalone="no"?>
<!DOCTYPE svg PUBLIC "-//W3C//DTD SVG 1.1//EN"
  "http://www.w3.org/Graphics/SVG/1.1/DTD/svg11.dtd">
<svg xmlns:xlink="http://www.w3.org/1999/xlink" width="460.8pt" height="345.6pt" viewBox="0 0 460.8 345.6" xmlns="http://www.w3.org/2000/svg" version="1.1">
 <metadata>
  <rdf:RDF xmlns:dc="http://purl.org/dc/elements/1.1/" xmlns:cc="http://creativecommons.org/ns#" xmlns:rdf="http://www.w3.org/1999/02/22-rdf-syntax-ns#">
   <cc:Work>
    <dc:type rdf:resource="http://purl.org/dc/dcmitype/StillImage"/>
    <dc:date>2023-07-27T12:30:56.387437</dc:date>
    <dc:format>image/svg+xml</dc:format>
    <dc:creator>
     <cc:Agent>
      <dc:title>Matplotlib v3.7.0, https://matplotlib.org/</dc:title>
     </cc:Agent>
    </dc:creator>
   </cc:Work>
  </rdf:RDF>
 </metadata>
 <defs>
  <style type="text/css">*{stroke-linejoin: round; stroke-linecap: butt}</style>
 </defs>
 <g id="figure_1">
  <g id="patch_1">
   <path d="M 0 345.6 
L 460.8 345.6 
L 460.8 0 
L 0 0 
z
" style="fill: #ffffff"/>
  </g>
  <g id="axes_1">
   <g id="patch_2">
    <path d="M 57.6 307.584 
L 414.72 307.584 
L 414.72 41.472 
L 57.6 41.472 
z
" style="fill: #ffffff"/>
   </g>
   <g id="matplotlib.axis_1">
    <g id="xtick_1">
     <g id="line2d_1">
      <defs>
       <path id="mb703bfd0a3" d="M 0 0 
L 0 3.5 
" style="stroke: #000000; stroke-width: 0.8"/>
      </defs>
      <g>
       <use xlink:href="#mb703bfd0a3" x="73.832727" y="307.584" style="stroke: #000000; stroke-width: 0.8"/>
      </g>
     </g>
     <g id="text_1">
      <!-- 0 -->
      <g transform="translate(70.651477 322.182437) scale(0.1 -0.1)">
       <defs>
        <path id="DejaVuSans-30" d="M 2034 4250 
Q 1547 4250 1301 3770 
Q 1056 3291 1056 2328 
Q 1056 1369 1301 889 
Q 1547 409 2034 409 
Q 2525 409 2770 889 
Q 3016 1369 3016 2328 
Q 3016 3291 2770 3770 
Q 2525 4250 2034 4250 
z
M 2034 4750 
Q 2819 4750 3233 4129 
Q 3647 3509 3647 2328 
Q 3647 1150 3233 529 
Q 2819 -91 2034 -91 
Q 1250 -91 836 529 
Q 422 1150 422 2328 
Q 422 3509 836 4129 
Q 1250 4750 2034 4750 
z
" transform="scale(0.015625)"/>
       </defs>
       <use xlink:href="#DejaVuSans-30"/>
      </g>
     </g>
    </g>
    <g id="xtick_2">
     <g id="line2d_2">
      <g>
       <use xlink:href="#mb703bfd0a3" x="127.941818" y="307.584" style="stroke: #000000; stroke-width: 0.8"/>
      </g>
     </g>
     <g id="text_2">
      <!-- 5 -->
      <g transform="translate(124.760568 322.182437) scale(0.1 -0.1)">
       <defs>
        <path id="DejaVuSans-35" d="M 691 4666 
L 3169 4666 
L 3169 4134 
L 1269 4134 
L 1269 2991 
Q 1406 3038 1543 3061 
Q 1681 3084 1819 3084 
Q 2600 3084 3056 2656 
Q 3513 2228 3513 1497 
Q 3513 744 3044 326 
Q 2575 -91 1722 -91 
Q 1428 -91 1123 -41 
Q 819 9 494 109 
L 494 744 
Q 775 591 1075 516 
Q 1375 441 1709 441 
Q 2250 441 2565 725 
Q 2881 1009 2881 1497 
Q 2881 1984 2565 2268 
Q 2250 2553 1709 2553 
Q 1456 2553 1204 2497 
Q 953 2441 691 2322 
L 691 4666 
z
" transform="scale(0.015625)"/>
       </defs>
       <use xlink:href="#DejaVuSans-35"/>
      </g>
     </g>
    </g>
    <g id="xtick_3">
     <g id="line2d_3">
      <g>
       <use xlink:href="#mb703bfd0a3" x="182.050909" y="307.584" style="stroke: #000000; stroke-width: 0.8"/>
      </g>
     </g>
     <g id="text_3">
      <!-- 10 -->
      <g transform="translate(175.688409 322.182437) scale(0.1 -0.1)">
       <defs>
        <path id="DejaVuSans-31" d="M 794 531 
L 1825 531 
L 1825 4091 
L 703 3866 
L 703 4441 
L 1819 4666 
L 2450 4666 
L 2450 531 
L 3481 531 
L 3481 0 
L 794 0 
L 794 531 
z
" transform="scale(0.015625)"/>
       </defs>
       <use xlink:href="#DejaVuSans-31"/>
       <use xlink:href="#DejaVuSans-30" x="63.623047"/>
      </g>
     </g>
    </g>
    <g id="xtick_4">
     <g id="line2d_4">
      <g>
       <use xlink:href="#mb703bfd0a3" x="236.16" y="307.584" style="stroke: #000000; stroke-width: 0.8"/>
      </g>
     </g>
     <g id="text_4">
      <!-- 15 -->
      <g transform="translate(229.7975 322.182437) scale(0.1 -0.1)">
       <use xlink:href="#DejaVuSans-31"/>
       <use xlink:href="#DejaVuSans-35" x="63.623047"/>
      </g>
     </g>
    </g>
    <g id="xtick_5">
     <g id="line2d_5">
      <g>
       <use xlink:href="#mb703bfd0a3" x="290.269091" y="307.584" style="stroke: #000000; stroke-width: 0.8"/>
      </g>
     </g>
     <g id="text_5">
      <!-- 20 -->
      <g transform="translate(283.906591 322.182437) scale(0.1 -0.1)">
       <defs>
        <path id="DejaVuSans-32" d="M 1228 531 
L 3431 531 
L 3431 0 
L 469 0 
L 469 531 
Q 828 903 1448 1529 
Q 2069 2156 2228 2338 
Q 2531 2678 2651 2914 
Q 2772 3150 2772 3378 
Q 2772 3750 2511 3984 
Q 2250 4219 1831 4219 
Q 1534 4219 1204 4116 
Q 875 4013 500 3803 
L 500 4441 
Q 881 4594 1212 4672 
Q 1544 4750 1819 4750 
Q 2544 4750 2975 4387 
Q 3406 4025 3406 3419 
Q 3406 3131 3298 2873 
Q 3191 2616 2906 2266 
Q 2828 2175 2409 1742 
Q 1991 1309 1228 531 
z
" transform="scale(0.015625)"/>
       </defs>
       <use xlink:href="#DejaVuSans-32"/>
       <use xlink:href="#DejaVuSans-30" x="63.623047"/>
      </g>
     </g>
    </g>
    <g id="xtick_6">
     <g id="line2d_6">
      <g>
       <use xlink:href="#mb703bfd0a3" x="344.378182" y="307.584" style="stroke: #000000; stroke-width: 0.8"/>
      </g>
     </g>
     <g id="text_6">
      <!-- 25 -->
      <g transform="translate(338.015682 322.182437) scale(0.1 -0.1)">
       <use xlink:href="#DejaVuSans-32"/>
       <use xlink:href="#DejaVuSans-35" x="63.623047"/>
      </g>
     </g>
    </g>
    <g id="xtick_7">
     <g id="line2d_7">
      <g>
       <use xlink:href="#mb703bfd0a3" x="398.487273" y="307.584" style="stroke: #000000; stroke-width: 0.8"/>
      </g>
     </g>
     <g id="text_7">
      <!-- 30 -->
      <g transform="translate(392.124773 322.182437) scale(0.1 -0.1)">
       <defs>
        <path id="DejaVuSans-33" d="M 2597 2516 
Q 3050 2419 3304 2112 
Q 3559 1806 3559 1356 
Q 3559 666 3084 287 
Q 2609 -91 1734 -91 
Q 1441 -91 1130 -33 
Q 819 25 488 141 
L 488 750 
Q 750 597 1062 519 
Q 1375 441 1716 441 
Q 2309 441 2620 675 
Q 2931 909 2931 1356 
Q 2931 1769 2642 2001 
Q 2353 2234 1838 2234 
L 1294 2234 
L 1294 2753 
L 1863 2753 
Q 2328 2753 2575 2939 
Q 2822 3125 2822 3475 
Q 2822 3834 2567 4026 
Q 2313 4219 1838 4219 
Q 1578 4219 1281 4162 
Q 984 4106 628 3988 
L 628 4550 
Q 988 4650 1302 4700 
Q 1616 4750 1894 4750 
Q 2613 4750 3031 4423 
Q 3450 4097 3450 3541 
Q 3450 3153 3228 2886 
Q 3006 2619 2597 2516 
z
" transform="scale(0.015625)"/>
       </defs>
       <use xlink:href="#DejaVuSans-33"/>
       <use xlink:href="#DejaVuSans-30" x="63.623047"/>
      </g>
     </g>
    </g>
    <g id="text_8">
     <!-- passages -->
     <g transform="translate(212.792812 335.860562) scale(0.1 -0.1)">
      <defs>
       <path id="DejaVuSans-70" d="M 1159 525 
L 1159 -1331 
L 581 -1331 
L 581 3500 
L 1159 3500 
L 1159 2969 
Q 1341 3281 1617 3432 
Q 1894 3584 2278 3584 
Q 2916 3584 3314 3078 
Q 3713 2572 3713 1747 
Q 3713 922 3314 415 
Q 2916 -91 2278 -91 
Q 1894 -91 1617 61 
Q 1341 213 1159 525 
z
M 3116 1747 
Q 3116 2381 2855 2742 
Q 2594 3103 2138 3103 
Q 1681 3103 1420 2742 
Q 1159 2381 1159 1747 
Q 1159 1113 1420 752 
Q 1681 391 2138 391 
Q 2594 391 2855 752 
Q 3116 1113 3116 1747 
z
" transform="scale(0.015625)"/>
       <path id="DejaVuSans-61" d="M 2194 1759 
Q 1497 1759 1228 1600 
Q 959 1441 959 1056 
Q 959 750 1161 570 
Q 1363 391 1709 391 
Q 2188 391 2477 730 
Q 2766 1069 2766 1631 
L 2766 1759 
L 2194 1759 
z
M 3341 1997 
L 3341 0 
L 2766 0 
L 2766 531 
Q 2569 213 2275 61 
Q 1981 -91 1556 -91 
Q 1019 -91 701 211 
Q 384 513 384 1019 
Q 384 1609 779 1909 
Q 1175 2209 1959 2209 
L 2766 2209 
L 2766 2266 
Q 2766 2663 2505 2880 
Q 2244 3097 1772 3097 
Q 1472 3097 1187 3025 
Q 903 2953 641 2809 
L 641 3341 
Q 956 3463 1253 3523 
Q 1550 3584 1831 3584 
Q 2591 3584 2966 3190 
Q 3341 2797 3341 1997 
z
" transform="scale(0.015625)"/>
       <path id="DejaVuSans-73" d="M 2834 3397 
L 2834 2853 
Q 2591 2978 2328 3040 
Q 2066 3103 1784 3103 
Q 1356 3103 1142 2972 
Q 928 2841 928 2578 
Q 928 2378 1081 2264 
Q 1234 2150 1697 2047 
L 1894 2003 
Q 2506 1872 2764 1633 
Q 3022 1394 3022 966 
Q 3022 478 2636 193 
Q 2250 -91 1575 -91 
Q 1294 -91 989 -36 
Q 684 19 347 128 
L 347 722 
Q 666 556 975 473 
Q 1284 391 1588 391 
Q 1994 391 2212 530 
Q 2431 669 2431 922 
Q 2431 1156 2273 1281 
Q 2116 1406 1581 1522 
L 1381 1569 
Q 847 1681 609 1914 
Q 372 2147 372 2553 
Q 372 3047 722 3315 
Q 1072 3584 1716 3584 
Q 2034 3584 2315 3537 
Q 2597 3491 2834 3397 
z
" transform="scale(0.015625)"/>
       <path id="DejaVuSans-67" d="M 2906 1791 
Q 2906 2416 2648 2759 
Q 2391 3103 1925 3103 
Q 1463 3103 1205 2759 
Q 947 2416 947 1791 
Q 947 1169 1205 825 
Q 1463 481 1925 481 
Q 2391 481 2648 825 
Q 2906 1169 2906 1791 
z
M 3481 434 
Q 3481 -459 3084 -895 
Q 2688 -1331 1869 -1331 
Q 1566 -1331 1297 -1286 
Q 1028 -1241 775 -1147 
L 775 -588 
Q 1028 -725 1275 -790 
Q 1522 -856 1778 -856 
Q 2344 -856 2625 -561 
Q 2906 -266 2906 331 
L 2906 616 
Q 2728 306 2450 153 
Q 2172 0 1784 0 
Q 1141 0 747 490 
Q 353 981 353 1791 
Q 353 2603 747 3093 
Q 1141 3584 1784 3584 
Q 2172 3584 2450 3431 
Q 2728 3278 2906 2969 
L 2906 3500 
L 3481 3500 
L 3481 434 
z
" transform="scale(0.015625)"/>
       <path id="DejaVuSans-65" d="M 3597 1894 
L 3597 1613 
L 953 1613 
Q 991 1019 1311 708 
Q 1631 397 2203 397 
Q 2534 397 2845 478 
Q 3156 559 3463 722 
L 3463 178 
Q 3153 47 2828 -22 
Q 2503 -91 2169 -91 
Q 1331 -91 842 396 
Q 353 884 353 1716 
Q 353 2575 817 3079 
Q 1281 3584 2069 3584 
Q 2775 3584 3186 3129 
Q 3597 2675 3597 1894 
z
M 3022 2063 
Q 3016 2534 2758 2815 
Q 2500 3097 2075 3097 
Q 1594 3097 1305 2825 
Q 1016 2553 972 2059 
L 3022 2063 
z
" transform="scale(0.015625)"/>
      </defs>
      <use xlink:href="#DejaVuSans-70"/>
      <use xlink:href="#DejaVuSans-61" x="63.476562"/>
      <use xlink:href="#DejaVuSans-73" x="124.755859"/>
      <use xlink:href="#DejaVuSans-73" x="176.855469"/>
      <use xlink:href="#DejaVuSans-61" x="228.955078"/>
      <use xlink:href="#DejaVuSans-67" x="290.234375"/>
      <use xlink:href="#DejaVuSans-65" x="353.710938"/>
      <use xlink:href="#DejaVuSans-73" x="415.234375"/>
     </g>
    </g>
   </g>
   <g id="matplotlib.axis_2">
    <g id="ytick_1">
     <g id="line2d_8">
      <defs>
       <path id="m3b1f4c5ed4" d="M 0 0 
L -3.5 0 
" style="stroke: #000000; stroke-width: 0.8"/>
      </defs>
      <g>
       <use xlink:href="#m3b1f4c5ed4" x="57.6" y="256.974302" style="stroke: #000000; stroke-width: 0.8"/>
      </g>
     </g>
     <g id="text_9">
      <!-- $\mathdefault{10^{1}}$ -->
      <g transform="translate(33 260.773521) scale(0.1 -0.1)">
       <use xlink:href="#DejaVuSans-31" transform="translate(0 0.684375)"/>
       <use xlink:href="#DejaVuSans-30" transform="translate(63.623047 0.684375)"/>
       <use xlink:href="#DejaVuSans-31" transform="translate(128.203125 38.965625) scale(0.7)"/>
      </g>
     </g>
    </g>
    <g id="ytick_2">
     <g id="line2d_9">
      <g>
       <use xlink:href="#m3b1f4c5ed4" x="57.6" y="201.873657" style="stroke: #000000; stroke-width: 0.8"/>
      </g>
     </g>
     <g id="text_10">
      <!-- $\mathdefault{10^{2}}$ -->
      <g transform="translate(33 205.672875) scale(0.1 -0.1)">
       <use xlink:href="#DejaVuSans-31" transform="translate(0 0.765625)"/>
       <use xlink:href="#DejaVuSans-30" transform="translate(63.623047 0.765625)"/>
       <use xlink:href="#DejaVuSans-32" transform="translate(128.203125 39.046875) scale(0.7)"/>
      </g>
     </g>
    </g>
    <g id="ytick_3">
     <g id="line2d_10">
      <g>
       <use xlink:href="#m3b1f4c5ed4" x="57.6" y="146.773011" style="stroke: #000000; stroke-width: 0.8"/>
      </g>
     </g>
     <g id="text_11">
      <!-- $\mathdefault{10^{3}}$ -->
      <g transform="translate(33 150.57223) scale(0.1 -0.1)">
       <use xlink:href="#DejaVuSans-31" transform="translate(0 0.765625)"/>
       <use xlink:href="#DejaVuSans-30" transform="translate(63.623047 0.765625)"/>
       <use xlink:href="#DejaVuSans-33" transform="translate(128.203125 39.046875) scale(0.7)"/>
      </g>
     </g>
    </g>
    <g id="ytick_4">
     <g id="line2d_11">
      <g>
       <use xlink:href="#m3b1f4c5ed4" x="57.6" y="91.672366" style="stroke: #000000; stroke-width: 0.8"/>
      </g>
     </g>
     <g id="text_12">
      <!-- $\mathdefault{10^{4}}$ -->
      <g transform="translate(33 95.471585) scale(0.1 -0.1)">
       <defs>
        <path id="DejaVuSans-34" d="M 2419 4116 
L 825 1625 
L 2419 1625 
L 2419 4116 
z
M 2253 4666 
L 3047 4666 
L 3047 1625 
L 3713 1625 
L 3713 1100 
L 3047 1100 
L 3047 0 
L 2419 0 
L 2419 1100 
L 313 1100 
L 313 1709 
L 2253 4666 
z
" transform="scale(0.015625)"/>
       </defs>
       <use xlink:href="#DejaVuSans-31" transform="translate(0 0.684375)"/>
       <use xlink:href="#DejaVuSans-30" transform="translate(63.623047 0.684375)"/>
       <use xlink:href="#DejaVuSans-34" transform="translate(128.203125 38.965625) scale(0.7)"/>
      </g>
     </g>
    </g>
    <g id="ytick_5">
     <g id="line2d_12">
      <defs>
       <path id="mc4842efd80" d="M 0 0 
L -2 0 
" style="stroke: #000000; stroke-width: 0.6"/>
      </defs>
      <g>
       <use xlink:href="#mc4842efd80" x="57.6" y="295.488" style="stroke: #000000; stroke-width: 0.6"/>
      </g>
     </g>
    </g>
    <g id="ytick_6">
     <g id="line2d_13">
      <g>
       <use xlink:href="#mc4842efd80" x="57.6" y="285.785258" style="stroke: #000000; stroke-width: 0.6"/>
      </g>
     </g>
    </g>
    <g id="ytick_7">
     <g id="line2d_14">
      <g>
       <use xlink:href="#mc4842efd80" x="57.6" y="278.901053" style="stroke: #000000; stroke-width: 0.6"/>
      </g>
     </g>
    </g>
    <g id="ytick_8">
     <g id="line2d_15">
      <g>
       <use xlink:href="#mc4842efd80" x="57.6" y="273.561249" style="stroke: #000000; stroke-width: 0.6"/>
      </g>
     </g>
    </g>
    <g id="ytick_9">
     <g id="line2d_16">
      <g>
       <use xlink:href="#mc4842efd80" x="57.6" y="269.198311" style="stroke: #000000; stroke-width: 0.6"/>
      </g>
     </g>
    </g>
    <g id="ytick_10">
     <g id="line2d_17">
      <g>
       <use xlink:href="#mc4842efd80" x="57.6" y="265.5095" style="stroke: #000000; stroke-width: 0.6"/>
      </g>
     </g>
    </g>
    <g id="ytick_11">
     <g id="line2d_18">
      <g>
       <use xlink:href="#mc4842efd80" x="57.6" y="262.314106" style="stroke: #000000; stroke-width: 0.6"/>
      </g>
     </g>
    </g>
    <g id="ytick_12">
     <g id="line2d_19">
      <g>
       <use xlink:href="#mc4842efd80" x="57.6" y="259.495569" style="stroke: #000000; stroke-width: 0.6"/>
      </g>
     </g>
    </g>
    <g id="ytick_13">
     <g id="line2d_20">
      <g>
       <use xlink:href="#mc4842efd80" x="57.6" y="240.387355" style="stroke: #000000; stroke-width: 0.6"/>
      </g>
     </g>
    </g>
    <g id="ytick_14">
     <g id="line2d_21">
      <g>
       <use xlink:href="#mc4842efd80" x="57.6" y="230.684613" style="stroke: #000000; stroke-width: 0.6"/>
      </g>
     </g>
    </g>
    <g id="ytick_15">
     <g id="line2d_22">
      <g>
       <use xlink:href="#mc4842efd80" x="57.6" y="223.800408" style="stroke: #000000; stroke-width: 0.6"/>
      </g>
     </g>
    </g>
    <g id="ytick_16">
     <g id="line2d_23">
      <g>
       <use xlink:href="#mc4842efd80" x="57.6" y="218.460604" style="stroke: #000000; stroke-width: 0.6"/>
      </g>
     </g>
    </g>
    <g id="ytick_17">
     <g id="line2d_24">
      <g>
       <use xlink:href="#mc4842efd80" x="57.6" y="214.097666" style="stroke: #000000; stroke-width: 0.6"/>
      </g>
     </g>
    </g>
    <g id="ytick_18">
     <g id="line2d_25">
      <g>
       <use xlink:href="#mc4842efd80" x="57.6" y="210.408854" style="stroke: #000000; stroke-width: 0.6"/>
      </g>
     </g>
    </g>
    <g id="ytick_19">
     <g id="line2d_26">
      <g>
       <use xlink:href="#mc4842efd80" x="57.6" y="207.213461" style="stroke: #000000; stroke-width: 0.6"/>
      </g>
     </g>
    </g>
    <g id="ytick_20">
     <g id="line2d_27">
      <g>
       <use xlink:href="#mc4842efd80" x="57.6" y="204.394924" style="stroke: #000000; stroke-width: 0.6"/>
      </g>
     </g>
    </g>
    <g id="ytick_21">
     <g id="line2d_28">
      <g>
       <use xlink:href="#mc4842efd80" x="57.6" y="185.28671" style="stroke: #000000; stroke-width: 0.6"/>
      </g>
     </g>
    </g>
    <g id="ytick_22">
     <g id="line2d_29">
      <g>
       <use xlink:href="#mc4842efd80" x="57.6" y="175.583968" style="stroke: #000000; stroke-width: 0.6"/>
      </g>
     </g>
    </g>
    <g id="ytick_23">
     <g id="line2d_30">
      <g>
       <use xlink:href="#mc4842efd80" x="57.6" y="168.699763" style="stroke: #000000; stroke-width: 0.6"/>
      </g>
     </g>
    </g>
    <g id="ytick_24">
     <g id="line2d_31">
      <g>
       <use xlink:href="#mc4842efd80" x="57.6" y="163.359958" style="stroke: #000000; stroke-width: 0.6"/>
      </g>
     </g>
    </g>
    <g id="ytick_25">
     <g id="line2d_32">
      <g>
       <use xlink:href="#mc4842efd80" x="57.6" y="158.997021" style="stroke: #000000; stroke-width: 0.6"/>
      </g>
     </g>
    </g>
    <g id="ytick_26">
     <g id="line2d_33">
      <g>
       <use xlink:href="#mc4842efd80" x="57.6" y="155.308209" style="stroke: #000000; stroke-width: 0.6"/>
      </g>
     </g>
    </g>
    <g id="ytick_27">
     <g id="line2d_34">
      <g>
       <use xlink:href="#mc4842efd80" x="57.6" y="152.112816" style="stroke: #000000; stroke-width: 0.6"/>
      </g>
     </g>
    </g>
    <g id="ytick_28">
     <g id="line2d_35">
      <g>
       <use xlink:href="#mc4842efd80" x="57.6" y="149.294279" style="stroke: #000000; stroke-width: 0.6"/>
      </g>
     </g>
    </g>
    <g id="ytick_29">
     <g id="line2d_36">
      <g>
       <use xlink:href="#mc4842efd80" x="57.6" y="130.186064" style="stroke: #000000; stroke-width: 0.6"/>
      </g>
     </g>
    </g>
    <g id="ytick_30">
     <g id="line2d_37">
      <g>
       <use xlink:href="#mc4842efd80" x="57.6" y="120.483322" style="stroke: #000000; stroke-width: 0.6"/>
      </g>
     </g>
    </g>
    <g id="ytick_31">
     <g id="line2d_38">
      <g>
       <use xlink:href="#mc4842efd80" x="57.6" y="113.599117" style="stroke: #000000; stroke-width: 0.6"/>
      </g>
     </g>
    </g>
    <g id="ytick_32">
     <g id="line2d_39">
      <g>
       <use xlink:href="#mc4842efd80" x="57.6" y="108.259313" style="stroke: #000000; stroke-width: 0.6"/>
      </g>
     </g>
    </g>
    <g id="ytick_33">
     <g id="line2d_40">
      <g>
       <use xlink:href="#mc4842efd80" x="57.6" y="103.896375" style="stroke: #000000; stroke-width: 0.6"/>
      </g>
     </g>
    </g>
    <g id="ytick_34">
     <g id="line2d_41">
      <g>
       <use xlink:href="#mc4842efd80" x="57.6" y="100.207564" style="stroke: #000000; stroke-width: 0.6"/>
      </g>
     </g>
    </g>
    <g id="ytick_35">
     <g id="line2d_42">
      <g>
       <use xlink:href="#mc4842efd80" x="57.6" y="97.01217" style="stroke: #000000; stroke-width: 0.6"/>
      </g>
     </g>
    </g>
    <g id="ytick_36">
     <g id="line2d_43">
      <g>
       <use xlink:href="#mc4842efd80" x="57.6" y="94.193633" style="stroke: #000000; stroke-width: 0.6"/>
      </g>
     </g>
    </g>
    <g id="ytick_37">
     <g id="line2d_44">
      <g>
       <use xlink:href="#mc4842efd80" x="57.6" y="75.085419" style="stroke: #000000; stroke-width: 0.6"/>
      </g>
     </g>
    </g>
    <g id="ytick_38">
     <g id="line2d_45">
      <g>
       <use xlink:href="#mc4842efd80" x="57.6" y="65.382677" style="stroke: #000000; stroke-width: 0.6"/>
      </g>
     </g>
    </g>
    <g id="ytick_39">
     <g id="line2d_46">
      <g>
       <use xlink:href="#mc4842efd80" x="57.6" y="58.498472" style="stroke: #000000; stroke-width: 0.6"/>
      </g>
     </g>
    </g>
    <g id="ytick_40">
     <g id="line2d_47">
      <g>
       <use xlink:href="#mc4842efd80" x="57.6" y="53.158668" style="stroke: #000000; stroke-width: 0.6"/>
      </g>
     </g>
    </g>
    <g id="ytick_41">
     <g id="line2d_48">
      <g>
       <use xlink:href="#mc4842efd80" x="57.6" y="48.79573" style="stroke: #000000; stroke-width: 0.6"/>
      </g>
     </g>
    </g>
    <g id="ytick_42">
     <g id="line2d_49">
      <g>
       <use xlink:href="#mc4842efd80" x="57.6" y="45.106919" style="stroke: #000000; stroke-width: 0.6"/>
      </g>
     </g>
    </g>
    <g id="ytick_43">
     <g id="line2d_50">
      <g>
       <use xlink:href="#mc4842efd80" x="57.6" y="41.911525" style="stroke: #000000; stroke-width: 0.6"/>
      </g>
     </g>
    </g>
    <g id="text_13">
     <!-- size of population -->
     <g transform="translate(26.920312 218.827219) rotate(-90) scale(0.1 -0.1)">
      <defs>
       <path id="DejaVuSans-69" d="M 603 3500 
L 1178 3500 
L 1178 0 
L 603 0 
L 603 3500 
z
M 603 4863 
L 1178 4863 
L 1178 4134 
L 603 4134 
L 603 4863 
z
" transform="scale(0.015625)"/>
       <path id="DejaVuSans-7a" d="M 353 3500 
L 3084 3500 
L 3084 2975 
L 922 459 
L 3084 459 
L 3084 0 
L 275 0 
L 275 525 
L 2438 3041 
L 353 3041 
L 353 3500 
z
" transform="scale(0.015625)"/>
       <path id="DejaVuSans-20" transform="scale(0.015625)"/>
       <path id="DejaVuSans-6f" d="M 1959 3097 
Q 1497 3097 1228 2736 
Q 959 2375 959 1747 
Q 959 1119 1226 758 
Q 1494 397 1959 397 
Q 2419 397 2687 759 
Q 2956 1122 2956 1747 
Q 2956 2369 2687 2733 
Q 2419 3097 1959 3097 
z
M 1959 3584 
Q 2709 3584 3137 3096 
Q 3566 2609 3566 1747 
Q 3566 888 3137 398 
Q 2709 -91 1959 -91 
Q 1206 -91 779 398 
Q 353 888 353 1747 
Q 353 2609 779 3096 
Q 1206 3584 1959 3584 
z
" transform="scale(0.015625)"/>
       <path id="DejaVuSans-66" d="M 2375 4863 
L 2375 4384 
L 1825 4384 
Q 1516 4384 1395 4259 
Q 1275 4134 1275 3809 
L 1275 3500 
L 2222 3500 
L 2222 3053 
L 1275 3053 
L 1275 0 
L 697 0 
L 697 3053 
L 147 3053 
L 147 3500 
L 697 3500 
L 697 3744 
Q 697 4328 969 4595 
Q 1241 4863 1831 4863 
L 2375 4863 
z
" transform="scale(0.015625)"/>
       <path id="DejaVuSans-75" d="M 544 1381 
L 544 3500 
L 1119 3500 
L 1119 1403 
Q 1119 906 1312 657 
Q 1506 409 1894 409 
Q 2359 409 2629 706 
Q 2900 1003 2900 1516 
L 2900 3500 
L 3475 3500 
L 3475 0 
L 2900 0 
L 2900 538 
Q 2691 219 2414 64 
Q 2138 -91 1772 -91 
Q 1169 -91 856 284 
Q 544 659 544 1381 
z
M 1991 3584 
L 1991 3584 
z
" transform="scale(0.015625)"/>
       <path id="DejaVuSans-6c" d="M 603 4863 
L 1178 4863 
L 1178 0 
L 603 0 
L 603 4863 
z
" transform="scale(0.015625)"/>
       <path id="DejaVuSans-74" d="M 1172 4494 
L 1172 3500 
L 2356 3500 
L 2356 3053 
L 1172 3053 
L 1172 1153 
Q 1172 725 1289 603 
Q 1406 481 1766 481 
L 2356 481 
L 2356 0 
L 1766 0 
Q 1100 0 847 248 
Q 594 497 594 1153 
L 594 3053 
L 172 3053 
L 172 3500 
L 594 3500 
L 594 4494 
L 1172 4494 
z
" transform="scale(0.015625)"/>
       <path id="DejaVuSans-6e" d="M 3513 2113 
L 3513 0 
L 2938 0 
L 2938 2094 
Q 2938 2591 2744 2837 
Q 2550 3084 2163 3084 
Q 1697 3084 1428 2787 
Q 1159 2491 1159 1978 
L 1159 0 
L 581 0 
L 581 3500 
L 1159 3500 
L 1159 2956 
Q 1366 3272 1645 3428 
Q 1925 3584 2291 3584 
Q 2894 3584 3203 3211 
Q 3513 2838 3513 2113 
z
" transform="scale(0.015625)"/>
      </defs>
      <use xlink:href="#DejaVuSans-73"/>
      <use xlink:href="#DejaVuSans-69" x="52.099609"/>
      <use xlink:href="#DejaVuSans-7a" x="79.882812"/>
      <use xlink:href="#DejaVuSans-65" x="132.373047"/>
      <use xlink:href="#DejaVuSans-20" x="193.896484"/>
      <use xlink:href="#DejaVuSans-6f" x="225.683594"/>
      <use xlink:href="#DejaVuSans-66" x="286.865234"/>
      <use xlink:href="#DejaVuSans-20" x="322.070312"/>
      <use xlink:href="#DejaVuSans-70" x="353.857422"/>
      <use xlink:href="#DejaVuSans-6f" x="417.333984"/>
      <use xlink:href="#DejaVuSans-70" x="478.515625"/>
      <use xlink:href="#DejaVuSans-75" x="541.992188"/>
      <use xlink:href="#DejaVuSans-6c" x="605.371094"/>
      <use xlink:href="#DejaVuSans-61" x="633.154297"/>
      <use xlink:href="#DejaVuSans-74" x="694.433594"/>
      <use xlink:href="#DejaVuSans-69" x="733.642578"/>
      <use xlink:href="#DejaVuSans-6f" x="761.425781"/>
      <use xlink:href="#DejaVuSans-6e" x="822.607422"/>
     </g>
    </g>
   </g>
   <g id="line2d_51">
    <path d="M 84.654545 269.198311 
L 95.476364 262.314106 
L 106.298182 248.922553 
L 117.12 234.109003 
L 127.941818 222.632864 
L 138.763636 208.440904 
L 149.585455 195.229955 
L 160.407273 183.005946 
L 171.229091 170.695077 
L 182.050909 158.135294 
L 192.872727 145.926679 
L 203.694545 133.163664 
L 214.516364 120.836893 
L 225.338182 108.752531 
L 236.16 96.620549 
L 246.981818 91.672366 
L 257.803636 91.672366 
L 268.625455 91.672366 
L 279.447273 91.672366 
L 290.269091 91.672366 
L 301.090909 91.672366 
L 311.912727 91.672366 
L 322.734545 91.672366 
L 333.556364 91.672366 
L 344.378182 91.672366 
L 355.2 91.672366 
L 366.021818 91.672366 
L 376.843636 91.672366 
L 387.665455 91.672366 
L 398.487273 91.672366 
" clip-path="url(#p5fc39610a6)" style="fill: none; stroke: #1f77b4; stroke-width: 1.5; stroke-linecap: square"/>
    <defs>
     <path id="mc7772362cd" d="M 0 3 
C 0.795609 3 1.55874 2.683901 2.12132 2.12132 
C 2.683901 1.55874 3 0.795609 3 0 
C 3 -0.795609 2.683901 -1.55874 2.12132 -2.12132 
C 1.55874 -2.683901 0.795609 -3 0 -3 
C -0.795609 -3 -1.55874 -2.683901 -2.12132 -2.12132 
C -2.683901 -1.55874 -3 -0.795609 -3 0 
C -3 0.795609 -2.683901 1.55874 -2.12132 2.12132 
C -1.55874 2.683901 -0.795609 3 0 3 
z
" style="stroke: #1f77b4"/>
    </defs>
    <g clip-path="url(#p5fc39610a6)">
     <use xlink:href="#mc7772362cd" x="84.654545" y="269.198311" style="fill: #1f77b4; stroke: #1f77b4"/>
     <use xlink:href="#mc7772362cd" x="95.476364" y="262.314106" style="fill: #1f77b4; stroke: #1f77b4"/>
     <use xlink:href="#mc7772362cd" x="106.298182" y="248.922553" style="fill: #1f77b4; stroke: #1f77b4"/>
     <use xlink:href="#mc7772362cd" x="117.12" y="234.109003" style="fill: #1f77b4; stroke: #1f77b4"/>
     <use xlink:href="#mc7772362cd" x="127.941818" y="222.632864" style="fill: #1f77b4; stroke: #1f77b4"/>
     <use xlink:href="#mc7772362cd" x="138.763636" y="208.440904" style="fill: #1f77b4; stroke: #1f77b4"/>
     <use xlink:href="#mc7772362cd" x="149.585455" y="195.229955" style="fill: #1f77b4; stroke: #1f77b4"/>
     <use xlink:href="#mc7772362cd" x="160.407273" y="183.005946" style="fill: #1f77b4; stroke: #1f77b4"/>
     <use xlink:href="#mc7772362cd" x="171.229091" y="170.695077" style="fill: #1f77b4; stroke: #1f77b4"/>
     <use xlink:href="#mc7772362cd" x="182.050909" y="158.135294" style="fill: #1f77b4; stroke: #1f77b4"/>
     <use xlink:href="#mc7772362cd" x="192.872727" y="145.926679" style="fill: #1f77b4; stroke: #1f77b4"/>
     <use xlink:href="#mc7772362cd" x="203.694545" y="133.163664" style="fill: #1f77b4; stroke: #1f77b4"/>
     <use xlink:href="#mc7772362cd" x="214.516364" y="120.836893" style="fill: #1f77b4; stroke: #1f77b4"/>
     <use xlink:href="#mc7772362cd" x="225.338182" y="108.752531" style="fill: #1f77b4; stroke: #1f77b4"/>
     <use xlink:href="#mc7772362cd" x="236.16" y="96.620549" style="fill: #1f77b4; stroke: #1f77b4"/>
     <use xlink:href="#mc7772362cd" x="246.981818" y="91.672366" style="fill: #1f77b4; stroke: #1f77b4"/>
     <use xlink:href="#mc7772362cd" x="257.803636" y="91.672366" style="fill: #1f77b4; stroke: #1f77b4"/>
     <use xlink:href="#mc7772362cd" x="268.625455" y="91.672366" style="fill: #1f77b4; stroke: #1f77b4"/>
     <use xlink:href="#mc7772362cd" x="279.447273" y="91.672366" style="fill: #1f77b4; stroke: #1f77b4"/>
     <use xlink:href="#mc7772362cd" x="290.269091" y="91.672366" style="fill: #1f77b4; stroke: #1f77b4"/>
     <use xlink:href="#mc7772362cd" x="301.090909" y="91.672366" style="fill: #1f77b4; stroke: #1f77b4"/>
     <use xlink:href="#mc7772362cd" x="311.912727" y="91.672366" style="fill: #1f77b4; stroke: #1f77b4"/>
     <use xlink:href="#mc7772362cd" x="322.734545" y="91.672366" style="fill: #1f77b4; stroke: #1f77b4"/>
     <use xlink:href="#mc7772362cd" x="333.556364" y="91.672366" style="fill: #1f77b4; stroke: #1f77b4"/>
     <use xlink:href="#mc7772362cd" x="344.378182" y="91.672366" style="fill: #1f77b4; stroke: #1f77b4"/>
     <use xlink:href="#mc7772362cd" x="355.2" y="91.672366" style="fill: #1f77b4; stroke: #1f77b4"/>
     <use xlink:href="#mc7772362cd" x="366.021818" y="91.672366" style="fill: #1f77b4; stroke: #1f77b4"/>
     <use xlink:href="#mc7772362cd" x="376.843636" y="91.672366" style="fill: #1f77b4; stroke: #1f77b4"/>
     <use xlink:href="#mc7772362cd" x="387.665455" y="91.672366" style="fill: #1f77b4; stroke: #1f77b4"/>
     <use xlink:href="#mc7772362cd" x="398.487273" y="91.672366" style="fill: #1f77b4; stroke: #1f77b4"/>
    </g>
   </g>
   <g id="line2d_52">
    <path d="M 84.654545 269.198311 
L 95.476364 252.611364 
L 106.298182 238.106591 
L 117.12 230.684613 
L 127.941818 220.455918 
L 138.763636 211.816902 
L 149.585455 204.394924 
L 160.407273 196.343175 
L 171.229091 188.619238 
L 182.050909 180.528227 
L 192.872727 174.64542 
L 203.694545 166.094887 
L 214.516364 158.135294 
L 225.338182 149.294279 
L 236.16 141.356754 
L 246.981818 133.00161 
L 257.803636 123.870925 
L 268.625455 115.698701 
L 279.447273 107.394509 
L 290.269091 99.098696 
L 301.090909 91.672366 
L 311.912727 91.672366 
L 322.734545 91.672366 
L 333.556364 91.672366 
L 344.378182 91.672366 
L 355.2 91.672366 
L 366.021818 91.672366 
L 376.843636 91.672366 
L 387.665455 91.672366 
L 398.487273 91.672366 
" clip-path="url(#p5fc39610a6)" style="fill: none; stroke: #ff7f0e; stroke-width: 1.5; stroke-linecap: square"/>
    <defs>
     <path id="mb09599214b" d="M 0 3 
C 0.795609 3 1.55874 2.683901 2.12132 2.12132 
C 2.683901 1.55874 3 0.795609 3 0 
C 3 -0.795609 2.683901 -1.55874 2.12132 -2.12132 
C 1.55874 -2.683901 0.795609 -3 0 -3 
C -0.795609 -3 -1.55874 -2.683901 -2.12132 -2.12132 
C -2.683901 -1.55874 -3 -0.795609 -3 0 
C -3 0.795609 -2.683901 1.55874 -2.12132 2.12132 
C -1.55874 2.683901 -0.795609 3 0 3 
z
" style="stroke: #ff7f0e"/>
    </defs>
    <g clip-path="url(#p5fc39610a6)">
     <use xlink:href="#mb09599214b" x="84.654545" y="269.198311" style="fill: #ff7f0e; stroke: #ff7f0e"/>
     <use xlink:href="#mb09599214b" x="95.476364" y="252.611364" style="fill: #ff7f0e; stroke: #ff7f0e"/>
     <use xlink:href="#mb09599214b" x="106.298182" y="238.106591" style="fill: #ff7f0e; stroke: #ff7f0e"/>
     <use xlink:href="#mb09599214b" x="117.12" y="230.684613" style="fill: #ff7f0e; stroke: #ff7f0e"/>
     <use xlink:href="#mb09599214b" x="127.941818" y="220.455918" style="fill: #ff7f0e; stroke: #ff7f0e"/>
     <use xlink:href="#mb09599214b" x="138.763636" y="211.816902" style="fill: #ff7f0e; stroke: #ff7f0e"/>
     <use xlink:href="#mb09599214b" x="149.585455" y="204.394924" style="fill: #ff7f0e; stroke: #ff7f0e"/>
     <use xlink:href="#mb09599214b" x="160.407273" y="196.343175" style="fill: #ff7f0e; stroke: #ff7f0e"/>
     <use xlink:href="#mb09599214b" x="171.229091" y="188.619238" style="fill: #ff7f0e; stroke: #ff7f0e"/>
     <use xlink:href="#mb09599214b" x="182.050909" y="180.528227" style="fill: #ff7f0e; stroke: #ff7f0e"/>
     <use xlink:href="#mb09599214b" x="192.872727" y="174.64542" style="fill: #ff7f0e; stroke: #ff7f0e"/>
     <use xlink:href="#mb09599214b" x="203.694545" y="166.094887" style="fill: #ff7f0e; stroke: #ff7f0e"/>
     <use xlink:href="#mb09599214b" x="214.516364" y="158.135294" style="fill: #ff7f0e; stroke: #ff7f0e"/>
     <use xlink:href="#mb09599214b" x="225.338182" y="149.294279" style="fill: #ff7f0e; stroke: #ff7f0e"/>
     <use xlink:href="#mb09599214b" x="236.16" y="141.356754" style="fill: #ff7f0e; stroke: #ff7f0e"/>
     <use xlink:href="#mb09599214b" x="246.981818" y="133.00161" style="fill: #ff7f0e; stroke: #ff7f0e"/>
     <use xlink:href="#mb09599214b" x="257.803636" y="123.870925" style="fill: #ff7f0e; stroke: #ff7f0e"/>
     <use xlink:href="#mb09599214b" x="268.625455" y="115.698701" style="fill: #ff7f0e; stroke: #ff7f0e"/>
     <use xlink:href="#mb09599214b" x="279.447273" y="107.394509" style="fill: #ff7f0e; stroke: #ff7f0e"/>
     <use xlink:href="#mb09599214b" x="290.269091" y="99.098696" style="fill: #ff7f0e; stroke: #ff7f0e"/>
     <use xlink:href="#mb09599214b" x="301.090909" y="91.672366" style="fill: #ff7f0e; stroke: #ff7f0e"/>
     <use xlink:href="#mb09599214b" x="311.912727" y="91.672366" style="fill: #ff7f0e; stroke: #ff7f0e"/>
     <use xlink:href="#mb09599214b" x="322.734545" y="91.672366" style="fill: #ff7f0e; stroke: #ff7f0e"/>
     <use xlink:href="#mb09599214b" x="333.556364" y="91.672366" style="fill: #ff7f0e; stroke: #ff7f0e"/>
     <use xlink:href="#mb09599214b" x="344.378182" y="91.672366" style="fill: #ff7f0e; stroke: #ff7f0e"/>
     <use xlink:href="#mb09599214b" x="355.2" y="91.672366" style="fill: #ff7f0e; stroke: #ff7f0e"/>
     <use xlink:href="#mb09599214b" x="366.021818" y="91.672366" style="fill: #ff7f0e; stroke: #ff7f0e"/>
     <use xlink:href="#mb09599214b" x="376.843636" y="91.672366" style="fill: #ff7f0e; stroke: #ff7f0e"/>
     <use xlink:href="#mb09599214b" x="387.665455" y="91.672366" style="fill: #ff7f0e; stroke: #ff7f0e"/>
     <use xlink:href="#mb09599214b" x="398.487273" y="91.672366" style="fill: #ff7f0e; stroke: #ff7f0e"/>
    </g>
   </g>
   <g id="line2d_53">
    <path d="M 84.654545 269.198311 
L 95.476364 278.901053 
L 106.298182 278.901053 
L 117.12 278.901053 
L 127.941818 269.198311 
L 138.763636 262.314106 
L 149.585455 262.314106 
L 160.407273 262.314106 
L 171.229091 262.314106 
L 182.050909 245.727159 
L 192.872727 252.611364 
L 203.694545 252.611364 
L 214.516364 252.611364 
L 225.338182 269.198311 
L 236.16 256.974302 
L 246.981818 242.908622 
L 257.803636 240.387355 
L 268.625455 236.024417 
L 279.447273 227.68947 
L 290.269091 223.800408 
L 301.090909 227.68947 
L 311.912727 220.455918 
L 322.734545 211.816902 
L 333.556364 209.734728 
L 344.378182 205.482834 
L 355.2 201.873657 
L 366.021818 199.592893 
L 376.843636 195.966318 
L 387.665455 190.927523 
L 398.487273 189.175772 
" clip-path="url(#p5fc39610a6)" style="fill: none; stroke: #2ca02c; stroke-width: 1.5; stroke-linecap: square"/>
    <defs>
     <path id="mf23600df69" d="M 0 3 
C 0.795609 3 1.55874 2.683901 2.12132 2.12132 
C 2.683901 1.55874 3 0.795609 3 0 
C 3 -0.795609 2.683901 -1.55874 2.12132 -2.12132 
C 1.55874 -2.683901 0.795609 -3 0 -3 
C -0.795609 -3 -1.55874 -2.683901 -2.12132 -2.12132 
C -2.683901 -1.55874 -3 -0.795609 -3 0 
C -3 0.795609 -2.683901 1.55874 -2.12132 2.12132 
C -1.55874 2.683901 -0.795609 3 0 3 
z
" style="stroke: #2ca02c"/>
    </defs>
    <g clip-path="url(#p5fc39610a6)">
     <use xlink:href="#mf23600df69" x="84.654545" y="269.198311" style="fill: #2ca02c; stroke: #2ca02c"/>
     <use xlink:href="#mf23600df69" x="95.476364" y="278.901053" style="fill: #2ca02c; stroke: #2ca02c"/>
     <use xlink:href="#mf23600df69" x="106.298182" y="278.901053" style="fill: #2ca02c; stroke: #2ca02c"/>
     <use xlink:href="#mf23600df69" x="117.12" y="278.901053" style="fill: #2ca02c; stroke: #2ca02c"/>
     <use xlink:href="#mf23600df69" x="127.941818" y="269.198311" style="fill: #2ca02c; stroke: #2ca02c"/>
     <use xlink:href="#mf23600df69" x="138.763636" y="262.314106" style="fill: #2ca02c; stroke: #2ca02c"/>
     <use xlink:href="#mf23600df69" x="149.585455" y="262.314106" style="fill: #2ca02c; stroke: #2ca02c"/>
     <use xlink:href="#mf23600df69" x="160.407273" y="262.314106" style="fill: #2ca02c; stroke: #2ca02c"/>
     <use xlink:href="#mf23600df69" x="171.229091" y="262.314106" style="fill: #2ca02c; stroke: #2ca02c"/>
     <use xlink:href="#mf23600df69" x="182.050909" y="245.727159" style="fill: #2ca02c; stroke: #2ca02c"/>
     <use xlink:href="#mf23600df69" x="192.872727" y="252.611364" style="fill: #2ca02c; stroke: #2ca02c"/>
     <use xlink:href="#mf23600df69" x="203.694545" y="252.611364" style="fill: #2ca02c; stroke: #2ca02c"/>
     <use xlink:href="#mf23600df69" x="214.516364" y="252.611364" style="fill: #2ca02c; stroke: #2ca02c"/>
     <use xlink:href="#mf23600df69" x="225.338182" y="269.198311" style="fill: #2ca02c; stroke: #2ca02c"/>
     <use xlink:href="#mf23600df69" x="236.16" y="256.974302" style="fill: #2ca02c; stroke: #2ca02c"/>
     <use xlink:href="#mf23600df69" x="246.981818" y="242.908622" style="fill: #2ca02c; stroke: #2ca02c"/>
     <use xlink:href="#mf23600df69" x="257.803636" y="240.387355" style="fill: #2ca02c; stroke: #2ca02c"/>
     <use xlink:href="#mf23600df69" x="268.625455" y="236.024417" style="fill: #2ca02c; stroke: #2ca02c"/>
     <use xlink:href="#mf23600df69" x="279.447273" y="227.68947" style="fill: #2ca02c; stroke: #2ca02c"/>
     <use xlink:href="#mf23600df69" x="290.269091" y="223.800408" style="fill: #2ca02c; stroke: #2ca02c"/>
     <use xlink:href="#mf23600df69" x="301.090909" y="227.68947" style="fill: #2ca02c; stroke: #2ca02c"/>
     <use xlink:href="#mf23600df69" x="311.912727" y="220.455918" style="fill: #2ca02c; stroke: #2ca02c"/>
     <use xlink:href="#mf23600df69" x="322.734545" y="211.816902" style="fill: #2ca02c; stroke: #2ca02c"/>
     <use xlink:href="#mf23600df69" x="333.556364" y="209.734728" style="fill: #2ca02c; stroke: #2ca02c"/>
     <use xlink:href="#mf23600df69" x="344.378182" y="205.482834" style="fill: #2ca02c; stroke: #2ca02c"/>
     <use xlink:href="#mf23600df69" x="355.2" y="201.873657" style="fill: #2ca02c; stroke: #2ca02c"/>
     <use xlink:href="#mf23600df69" x="366.021818" y="199.592893" style="fill: #2ca02c; stroke: #2ca02c"/>
     <use xlink:href="#mf23600df69" x="376.843636" y="195.966318" style="fill: #2ca02c; stroke: #2ca02c"/>
     <use xlink:href="#mf23600df69" x="387.665455" y="190.927523" style="fill: #2ca02c; stroke: #2ca02c"/>
     <use xlink:href="#mf23600df69" x="398.487273" y="189.175772" style="fill: #2ca02c; stroke: #2ca02c"/>
    </g>
   </g>
   <g id="line2d_54">
    <path d="M 84.654545 269.198311 
L 95.476364 278.901053 
L 106.298182 269.198311 
L 117.12 278.901053 
L 127.941818 278.901053 
L 138.763636 269.198311 
L 149.585455 256.974302 
L 160.407273 269.198311 
L 171.229091 269.198311 
L 182.050909 295.488 
L 182.060945 346.6 
" clip-path="url(#p5fc39610a6)" style="fill: none; stroke: #d62728; stroke-width: 1.5; stroke-linecap: square"/>
    <defs>
     <path id="m5955721d1c" d="M 0 3 
C 0.795609 3 1.55874 2.683901 2.12132 2.12132 
C 2.683901 1.55874 3 0.795609 3 0 
C 3 -0.795609 2.683901 -1.55874 2.12132 -2.12132 
C 1.55874 -2.683901 0.795609 -3 0 -3 
C -0.795609 -3 -1.55874 -2.683901 -2.12132 -2.12132 
C -2.683901 -1.55874 -3 -0.795609 -3 0 
C -3 0.795609 -2.683901 1.55874 -2.12132 2.12132 
C -1.55874 2.683901 -0.795609 3 0 3 
z
" style="stroke: #d62728"/>
    </defs>
    <g clip-path="url(#p5fc39610a6)">
     <use xlink:href="#m5955721d1c" x="84.654545" y="269.198311" style="fill: #d62728; stroke: #d62728"/>
     <use xlink:href="#m5955721d1c" x="95.476364" y="278.901053" style="fill: #d62728; stroke: #d62728"/>
     <use xlink:href="#m5955721d1c" x="106.298182" y="269.198311" style="fill: #d62728; stroke: #d62728"/>
     <use xlink:href="#m5955721d1c" x="117.12" y="278.901053" style="fill: #d62728; stroke: #d62728"/>
     <use xlink:href="#m5955721d1c" x="127.941818" y="278.901053" style="fill: #d62728; stroke: #d62728"/>
     <use xlink:href="#m5955721d1c" x="138.763636" y="269.198311" style="fill: #d62728; stroke: #d62728"/>
     <use xlink:href="#m5955721d1c" x="149.585455" y="256.974302" style="fill: #d62728; stroke: #d62728"/>
     <use xlink:href="#m5955721d1c" x="160.407273" y="269.198311" style="fill: #d62728; stroke: #d62728"/>
     <use xlink:href="#m5955721d1c" x="171.229091" y="269.198311" style="fill: #d62728; stroke: #d62728"/>
     <use xlink:href="#m5955721d1c" x="182.050909" y="295.488" style="fill: #d62728; stroke: #d62728"/>
     <use xlink:href="#m5955721d1c" x="186.878702" y="24884.2" style="fill: #d62728; stroke: #d62728"/>
    </g>
   </g>
   <g id="line2d_55">
    <path d="M 84.654545 269.198311 
L 95.476364 269.198311 
L 106.298182 262.314106 
L 117.12 256.974302 
L 127.941818 262.314106 
L 138.763636 252.611364 
L 149.585455 295.488 
L 149.59549 346.6 
" clip-path="url(#p5fc39610a6)" style="fill: none; stroke: #9467bd; stroke-width: 1.5; stroke-linecap: square"/>
    <defs>
     <path id="m9a26adaa7d" d="M 0 3 
C 0.795609 3 1.55874 2.683901 2.12132 2.12132 
C 2.683901 1.55874 3 0.795609 3 0 
C 3 -0.795609 2.683901 -1.55874 2.12132 -2.12132 
C 1.55874 -2.683901 0.795609 -3 0 -3 
C -0.795609 -3 -1.55874 -2.683901 -2.12132 -2.12132 
C -2.683901 -1.55874 -3 -0.795609 -3 0 
C -3 0.795609 -2.683901 1.55874 -2.12132 2.12132 
C -1.55874 2.683901 -0.795609 3 0 3 
z
" style="stroke: #9467bd"/>
    </defs>
    <g clip-path="url(#p5fc39610a6)">
     <use xlink:href="#m9a26adaa7d" x="84.654545" y="269.198311" style="fill: #9467bd; stroke: #9467bd"/>
     <use xlink:href="#m9a26adaa7d" x="95.476364" y="269.198311" style="fill: #9467bd; stroke: #9467bd"/>
     <use xlink:href="#m9a26adaa7d" x="106.298182" y="262.314106" style="fill: #9467bd; stroke: #9467bd"/>
     <use xlink:href="#m9a26adaa7d" x="117.12" y="256.974302" style="fill: #9467bd; stroke: #9467bd"/>
     <use xlink:href="#m9a26adaa7d" x="127.941818" y="262.314106" style="fill: #9467bd; stroke: #9467bd"/>
     <use xlink:href="#m9a26adaa7d" x="138.763636" y="252.611364" style="fill: #9467bd; stroke: #9467bd"/>
     <use xlink:href="#m9a26adaa7d" x="149.585455" y="295.488" style="fill: #9467bd; stroke: #9467bd"/>
     <use xlink:href="#m9a26adaa7d" x="154.413247" y="24884.2" style="fill: #9467bd; stroke: #9467bd"/>
    </g>
   </g>
   <g id="line2d_56">
    <path d="M 84.654545 269.198311 
L 95.476364 295.488 
L 95.486399 346.6 
" clip-path="url(#p5fc39610a6)" style="fill: none; stroke: #8c564b; stroke-width: 1.5; stroke-linecap: square"/>
    <defs>
     <path id="mc9557bcc5c" d="M 0 3 
C 0.795609 3 1.55874 2.683901 2.12132 2.12132 
C 2.683901 1.55874 3 0.795609 3 0 
C 3 -0.795609 2.683901 -1.55874 2.12132 -2.12132 
C 1.55874 -2.683901 0.795609 -3 0 -3 
C -0.795609 -3 -1.55874 -2.683901 -2.12132 -2.12132 
C -2.683901 -1.55874 -3 -0.795609 -3 0 
C -3 0.795609 -2.683901 1.55874 -2.12132 2.12132 
C -1.55874 2.683901 -0.795609 3 0 3 
z
" style="stroke: #8c564b"/>
    </defs>
    <g clip-path="url(#p5fc39610a6)">
     <use xlink:href="#mc9557bcc5c" x="84.654545" y="269.198311" style="fill: #8c564b; stroke: #8c564b"/>
     <use xlink:href="#mc9557bcc5c" x="95.476364" y="295.488" style="fill: #8c564b; stroke: #8c564b"/>
     <use xlink:href="#mc9557bcc5c" x="100.304156" y="24884.2" style="fill: #8c564b; stroke: #8c564b"/>
    </g>
   </g>
   <g id="line2d_57">
    <path d="M 84.654545 269.198311 
L 84.669735 346.6 
" clip-path="url(#p5fc39610a6)" style="fill: none; stroke: #e377c2; stroke-width: 1.5; stroke-linecap: square"/>
    <defs>
     <path id="m157018dce0" d="M 0 3 
C 0.795609 3 1.55874 2.683901 2.12132 2.12132 
C 2.683901 1.55874 3 0.795609 3 0 
C 3 -0.795609 2.683901 -1.55874 2.12132 -2.12132 
C 1.55874 -2.683901 0.795609 -3 0 -3 
C -0.795609 -3 -1.55874 -2.683901 -2.12132 -2.12132 
C -2.683901 -1.55874 -3 -0.795609 -3 0 
C -3 0.795609 -2.683901 1.55874 -2.12132 2.12132 
C -1.55874 2.683901 -0.795609 3 0 3 
z
" style="stroke: #e377c2"/>
    </defs>
    <g clip-path="url(#p5fc39610a6)">
     <use xlink:href="#m157018dce0" x="84.654545" y="269.198311" style="fill: #e377c2; stroke: #e377c2"/>
     <use xlink:href="#m157018dce0" x="89.485196" y="24884.2" style="fill: #e377c2; stroke: #e377c2"/>
    </g>
   </g>
   <g id="line2d_58">
    <path d="M 84.654545 269.198311 
L 95.476364 278.901053 
L 106.298182 278.901053 
L 117.12 295.488 
L 117.130035 346.6 
" clip-path="url(#p5fc39610a6)" style="fill: none; stroke: #7f7f7f; stroke-width: 1.5; stroke-linecap: square"/>
    <defs>
     <path id="m9012da1e21" d="M 0 3 
C 0.795609 3 1.55874 2.683901 2.12132 2.12132 
C 2.683901 1.55874 3 0.795609 3 0 
C 3 -0.795609 2.683901 -1.55874 2.12132 -2.12132 
C 1.55874 -2.683901 0.795609 -3 0 -3 
C -0.795609 -3 -1.55874 -2.683901 -2.12132 -2.12132 
C -2.683901 -1.55874 -3 -0.795609 -3 0 
C -3 0.795609 -2.683901 1.55874 -2.12132 2.12132 
C -1.55874 2.683901 -0.795609 3 0 3 
z
" style="stroke: #7f7f7f"/>
    </defs>
    <g clip-path="url(#p5fc39610a6)">
     <use xlink:href="#m9012da1e21" x="84.654545" y="269.198311" style="fill: #7f7f7f; stroke: #7f7f7f"/>
     <use xlink:href="#m9012da1e21" x="95.476364" y="278.901053" style="fill: #7f7f7f; stroke: #7f7f7f"/>
     <use xlink:href="#m9012da1e21" x="106.298182" y="278.901053" style="fill: #7f7f7f; stroke: #7f7f7f"/>
     <use xlink:href="#m9012da1e21" x="117.12" y="295.488" style="fill: #7f7f7f; stroke: #7f7f7f"/>
     <use xlink:href="#m9012da1e21" x="121.947793" y="24884.2" style="fill: #7f7f7f; stroke: #7f7f7f"/>
    </g>
   </g>
   <g id="line2d_59">
    <path d="M 84.654545 269.198311 
L 84.669735 346.6 
" clip-path="url(#p5fc39610a6)" style="fill: none; stroke: #bcbd22; stroke-width: 1.5; stroke-linecap: square"/>
    <defs>
     <path id="m4fb10fbb99" d="M 0 3 
C 0.795609 3 1.55874 2.683901 2.12132 2.12132 
C 2.683901 1.55874 3 0.795609 3 0 
C 3 -0.795609 2.683901 -1.55874 2.12132 -2.12132 
C 1.55874 -2.683901 0.795609 -3 0 -3 
C -0.795609 -3 -1.55874 -2.683901 -2.12132 -2.12132 
C -2.683901 -1.55874 -3 -0.795609 -3 0 
C -3 0.795609 -2.683901 1.55874 -2.12132 2.12132 
C -1.55874 2.683901 -0.795609 3 0 3 
z
" style="stroke: #bcbd22"/>
    </defs>
    <g clip-path="url(#p5fc39610a6)">
     <use xlink:href="#m4fb10fbb99" x="84.654545" y="269.198311" style="fill: #bcbd22; stroke: #bcbd22"/>
     <use xlink:href="#m4fb10fbb99" x="89.485196" y="24884.2" style="fill: #bcbd22; stroke: #bcbd22"/>
    </g>
   </g>
   <g id="line2d_60">
    <path d="M 84.654545 269.198311 
L 84.669735 346.6 
" clip-path="url(#p5fc39610a6)" style="fill: none; stroke: #17becf; stroke-width: 1.5; stroke-linecap: square"/>
    <defs>
     <path id="m45fe028bcd" d="M 0 3 
C 0.795609 3 1.55874 2.683901 2.12132 2.12132 
C 2.683901 1.55874 3 0.795609 3 0 
C 3 -0.795609 2.683901 -1.55874 2.12132 -2.12132 
C 1.55874 -2.683901 0.795609 -3 0 -3 
C -0.795609 -3 -1.55874 -2.683901 -2.12132 -2.12132 
C -2.683901 -1.55874 -3 -0.795609 -3 0 
C -3 0.795609 -2.683901 1.55874 -2.12132 2.12132 
C -1.55874 2.683901 -0.795609 3 0 3 
z
" style="stroke: #17becf"/>
    </defs>
    <g clip-path="url(#p5fc39610a6)">
     <use xlink:href="#m45fe028bcd" x="84.654545" y="269.198311" style="fill: #17becf; stroke: #17becf"/>
     <use xlink:href="#m45fe028bcd" x="89.485196" y="24884.2" style="fill: #17becf; stroke: #17becf"/>
    </g>
   </g>
   <g id="line2d_61">
    <path d="M 73.832727 285.785258 
L 84.654545 269.198311 
L 95.476364 252.611364 
L 106.298182 236.024417 
L 117.12 219.43747 
L 127.941818 202.850523 
L 138.763636 186.263576 
L 149.585455 169.676629 
L 160.407273 153.089682 
L 171.229091 136.502735 
L 182.050909 119.915788 
L 192.872727 103.328841 
L 203.694545 86.741894 
L 214.516364 70.154947 
L 225.338182 53.568 
" clip-path="url(#p5fc39610a6)" style="fill: none; stroke-dasharray: 5.55,2.4; stroke-dashoffset: 0; stroke: #1f77b4; stroke-width: 1.5"/>
   </g>
   <g id="patch_3">
    <path d="M 57.6 307.584 
L 57.6 41.472 
" style="fill: none; stroke: #000000; stroke-width: 0.8; stroke-linejoin: miter; stroke-linecap: square"/>
   </g>
   <g id="patch_4">
    <path d="M 414.72 307.584 
L 414.72 41.472 
" style="fill: none; stroke: #000000; stroke-width: 0.8; stroke-linejoin: miter; stroke-linecap: square"/>
   </g>
   <g id="patch_5">
    <path d="M 57.6 307.584 
L 414.72 307.584 
" style="fill: none; stroke: #000000; stroke-width: 0.8; stroke-linejoin: miter; stroke-linecap: square"/>
   </g>
   <g id="patch_6">
    <path d="M 57.6 41.472 
L 414.72 41.472 
" style="fill: none; stroke: #000000; stroke-width: 0.8; stroke-linejoin: miter; stroke-linecap: square"/>
   </g>
   <g id="legend_1">
    <g id="patch_7">
     <path d="M 64.6 210.931375 
L 145.70625 210.931375 
Q 147.70625 210.931375 147.70625 208.931375 
L 147.70625 48.472 
Q 147.70625 46.472 145.70625 46.472 
L 64.6 46.472 
Q 62.6 46.472 62.6 48.472 
L 62.6 208.931375 
Q 62.6 210.931375 64.6 210.931375 
z
" style="fill: #ffffff; opacity: 0.8; stroke: #cccccc; stroke-linejoin: miter"/>
    </g>
    <g id="line2d_62">
     <path d="M 66.6 54.570437 
L 76.6 54.570437 
L 86.6 54.570437 
" style="fill: none; stroke: #1f77b4; stroke-width: 1.5; stroke-linecap: square"/>
     <g>
      <use xlink:href="#mc7772362cd" x="76.6" y="54.570437" style="fill: #1f77b4; stroke: #1f77b4"/>
     </g>
    </g>
    <g id="text_14">
     <!-- mu=0.01 -->
     <g transform="translate(94.6 58.070437) scale(0.1 -0.1)">
      <defs>
       <path id="DejaVuSans-6d" d="M 3328 2828 
Q 3544 3216 3844 3400 
Q 4144 3584 4550 3584 
Q 5097 3584 5394 3201 
Q 5691 2819 5691 2113 
L 5691 0 
L 5113 0 
L 5113 2094 
Q 5113 2597 4934 2840 
Q 4756 3084 4391 3084 
Q 3944 3084 3684 2787 
Q 3425 2491 3425 1978 
L 3425 0 
L 2847 0 
L 2847 2094 
Q 2847 2600 2669 2842 
Q 2491 3084 2119 3084 
Q 1678 3084 1418 2786 
Q 1159 2488 1159 1978 
L 1159 0 
L 581 0 
L 581 3500 
L 1159 3500 
L 1159 2956 
Q 1356 3278 1631 3431 
Q 1906 3584 2284 3584 
Q 2666 3584 2933 3390 
Q 3200 3197 3328 2828 
z
" transform="scale(0.015625)"/>
       <path id="DejaVuSans-3d" d="M 678 2906 
L 4684 2906 
L 4684 2381 
L 678 2381 
L 678 2906 
z
M 678 1631 
L 4684 1631 
L 4684 1100 
L 678 1100 
L 678 1631 
z
" transform="scale(0.015625)"/>
       <path id="DejaVuSans-2e" d="M 684 794 
L 1344 794 
L 1344 0 
L 684 0 
L 684 794 
z
" transform="scale(0.015625)"/>
      </defs>
      <use xlink:href="#DejaVuSans-6d"/>
      <use xlink:href="#DejaVuSans-75" x="97.412109"/>
      <use xlink:href="#DejaVuSans-3d" x="160.791016"/>
      <use xlink:href="#DejaVuSans-30" x="244.580078"/>
      <use xlink:href="#DejaVuSans-2e" x="308.203125"/>
      <use xlink:href="#DejaVuSans-30" x="339.990234"/>
      <use xlink:href="#DejaVuSans-31" x="403.613281"/>
     </g>
    </g>
    <g id="line2d_63">
     <path d="M 66.6 69.248562 
L 76.6 69.248562 
L 86.6 69.248562 
" style="fill: none; stroke: #ff7f0e; stroke-width: 1.5; stroke-linecap: square"/>
     <g>
      <use xlink:href="#mb09599214b" x="76.6" y="69.248562" style="fill: #ff7f0e; stroke: #ff7f0e"/>
     </g>
    </g>
    <g id="text_15">
     <!-- mu=0.02 -->
     <g transform="translate(94.6 72.748562) scale(0.1 -0.1)">
      <use xlink:href="#DejaVuSans-6d"/>
      <use xlink:href="#DejaVuSans-75" x="97.412109"/>
      <use xlink:href="#DejaVuSans-3d" x="160.791016"/>
      <use xlink:href="#DejaVuSans-30" x="244.580078"/>
      <use xlink:href="#DejaVuSans-2e" x="308.203125"/>
      <use xlink:href="#DejaVuSans-30" x="339.990234"/>
      <use xlink:href="#DejaVuSans-32" x="403.613281"/>
     </g>
    </g>
    <g id="line2d_64">
     <path d="M 66.6 83.926688 
L 76.6 83.926688 
L 86.6 83.926688 
" style="fill: none; stroke: #2ca02c; stroke-width: 1.5; stroke-linecap: square"/>
     <g>
      <use xlink:href="#mf23600df69" x="76.6" y="83.926688" style="fill: #2ca02c; stroke: #2ca02c"/>
     </g>
    </g>
    <g id="text_16">
     <!-- mu=0.03 -->
     <g transform="translate(94.6 87.426688) scale(0.1 -0.1)">
      <use xlink:href="#DejaVuSans-6d"/>
      <use xlink:href="#DejaVuSans-75" x="97.412109"/>
      <use xlink:href="#DejaVuSans-3d" x="160.791016"/>
      <use xlink:href="#DejaVuSans-30" x="244.580078"/>
      <use xlink:href="#DejaVuSans-2e" x="308.203125"/>
      <use xlink:href="#DejaVuSans-30" x="339.990234"/>
      <use xlink:href="#DejaVuSans-33" x="403.613281"/>
     </g>
    </g>
    <g id="line2d_65">
     <path d="M 66.6 98.604812 
L 76.6 98.604812 
L 86.6 98.604812 
" style="fill: none; stroke: #d62728; stroke-width: 1.5; stroke-linecap: square"/>
     <g>
      <use xlink:href="#m5955721d1c" x="76.6" y="98.604812" style="fill: #d62728; stroke: #d62728"/>
     </g>
    </g>
    <g id="text_17">
     <!-- mu=0.04 -->
     <g transform="translate(94.6 102.104812) scale(0.1 -0.1)">
      <use xlink:href="#DejaVuSans-6d"/>
      <use xlink:href="#DejaVuSans-75" x="97.412109"/>
      <use xlink:href="#DejaVuSans-3d" x="160.791016"/>
      <use xlink:href="#DejaVuSans-30" x="244.580078"/>
      <use xlink:href="#DejaVuSans-2e" x="308.203125"/>
      <use xlink:href="#DejaVuSans-30" x="339.990234"/>
      <use xlink:href="#DejaVuSans-34" x="403.613281"/>
     </g>
    </g>
    <g id="line2d_66">
     <path d="M 66.6 113.282938 
L 76.6 113.282938 
L 86.6 113.282938 
" style="fill: none; stroke: #9467bd; stroke-width: 1.5; stroke-linecap: square"/>
     <g>
      <use xlink:href="#m9a26adaa7d" x="76.6" y="113.282938" style="fill: #9467bd; stroke: #9467bd"/>
     </g>
    </g>
    <g id="text_18">
     <!-- mu=0.05 -->
     <g transform="translate(94.6 116.782938) scale(0.1 -0.1)">
      <use xlink:href="#DejaVuSans-6d"/>
      <use xlink:href="#DejaVuSans-75" x="97.412109"/>
      <use xlink:href="#DejaVuSans-3d" x="160.791016"/>
      <use xlink:href="#DejaVuSans-30" x="244.580078"/>
      <use xlink:href="#DejaVuSans-2e" x="308.203125"/>
      <use xlink:href="#DejaVuSans-30" x="339.990234"/>
      <use xlink:href="#DejaVuSans-35" x="403.613281"/>
     </g>
    </g>
    <g id="line2d_67">
     <path d="M 66.6 127.961062 
L 76.6 127.961062 
L 86.6 127.961062 
" style="fill: none; stroke: #8c564b; stroke-width: 1.5; stroke-linecap: square"/>
     <g>
      <use xlink:href="#mc9557bcc5c" x="76.6" y="127.961062" style="fill: #8c564b; stroke: #8c564b"/>
     </g>
    </g>
    <g id="text_19">
     <!-- mu=0.06 -->
     <g transform="translate(94.6 131.461062) scale(0.1 -0.1)">
      <defs>
       <path id="DejaVuSans-36" d="M 2113 2584 
Q 1688 2584 1439 2293 
Q 1191 2003 1191 1497 
Q 1191 994 1439 701 
Q 1688 409 2113 409 
Q 2538 409 2786 701 
Q 3034 994 3034 1497 
Q 3034 2003 2786 2293 
Q 2538 2584 2113 2584 
z
M 3366 4563 
L 3366 3988 
Q 3128 4100 2886 4159 
Q 2644 4219 2406 4219 
Q 1781 4219 1451 3797 
Q 1122 3375 1075 2522 
Q 1259 2794 1537 2939 
Q 1816 3084 2150 3084 
Q 2853 3084 3261 2657 
Q 3669 2231 3669 1497 
Q 3669 778 3244 343 
Q 2819 -91 2113 -91 
Q 1303 -91 875 529 
Q 447 1150 447 2328 
Q 447 3434 972 4092 
Q 1497 4750 2381 4750 
Q 2619 4750 2861 4703 
Q 3103 4656 3366 4563 
z
" transform="scale(0.015625)"/>
      </defs>
      <use xlink:href="#DejaVuSans-6d"/>
      <use xlink:href="#DejaVuSans-75" x="97.412109"/>
      <use xlink:href="#DejaVuSans-3d" x="160.791016"/>
      <use xlink:href="#DejaVuSans-30" x="244.580078"/>
      <use xlink:href="#DejaVuSans-2e" x="308.203125"/>
      <use xlink:href="#DejaVuSans-30" x="339.990234"/>
      <use xlink:href="#DejaVuSans-36" x="403.613281"/>
     </g>
    </g>
    <g id="line2d_68">
     <path d="M 66.6 142.639187 
L 76.6 142.639187 
L 86.6 142.639187 
" style="fill: none; stroke: #e377c2; stroke-width: 1.5; stroke-linecap: square"/>
     <g>
      <use xlink:href="#m157018dce0" x="76.6" y="142.639187" style="fill: #e377c2; stroke: #e377c2"/>
     </g>
    </g>
    <g id="text_20">
     <!-- mu=0.07 -->
     <g transform="translate(94.6 146.139187) scale(0.1 -0.1)">
      <defs>
       <path id="DejaVuSans-37" d="M 525 4666 
L 3525 4666 
L 3525 4397 
L 1831 0 
L 1172 0 
L 2766 4134 
L 525 4134 
L 525 4666 
z
" transform="scale(0.015625)"/>
      </defs>
      <use xlink:href="#DejaVuSans-6d"/>
      <use xlink:href="#DejaVuSans-75" x="97.412109"/>
      <use xlink:href="#DejaVuSans-3d" x="160.791016"/>
      <use xlink:href="#DejaVuSans-30" x="244.580078"/>
      <use xlink:href="#DejaVuSans-2e" x="308.203125"/>
      <use xlink:href="#DejaVuSans-30" x="339.990234"/>
      <use xlink:href="#DejaVuSans-37" x="403.613281"/>
     </g>
    </g>
    <g id="line2d_69">
     <path d="M 66.6 157.317312 
L 76.6 157.317312 
L 86.6 157.317312 
" style="fill: none; stroke: #7f7f7f; stroke-width: 1.5; stroke-linecap: square"/>
     <g>
      <use xlink:href="#m9012da1e21" x="76.6" y="157.317312" style="fill: #7f7f7f; stroke: #7f7f7f"/>
     </g>
    </g>
    <g id="text_21">
     <!-- mu=0.08 -->
     <g transform="translate(94.6 160.817312) scale(0.1 -0.1)">
      <defs>
       <path id="DejaVuSans-38" d="M 2034 2216 
Q 1584 2216 1326 1975 
Q 1069 1734 1069 1313 
Q 1069 891 1326 650 
Q 1584 409 2034 409 
Q 2484 409 2743 651 
Q 3003 894 3003 1313 
Q 3003 1734 2745 1975 
Q 2488 2216 2034 2216 
z
M 1403 2484 
Q 997 2584 770 2862 
Q 544 3141 544 3541 
Q 544 4100 942 4425 
Q 1341 4750 2034 4750 
Q 2731 4750 3128 4425 
Q 3525 4100 3525 3541 
Q 3525 3141 3298 2862 
Q 3072 2584 2669 2484 
Q 3125 2378 3379 2068 
Q 3634 1759 3634 1313 
Q 3634 634 3220 271 
Q 2806 -91 2034 -91 
Q 1263 -91 848 271 
Q 434 634 434 1313 
Q 434 1759 690 2068 
Q 947 2378 1403 2484 
z
M 1172 3481 
Q 1172 3119 1398 2916 
Q 1625 2713 2034 2713 
Q 2441 2713 2670 2916 
Q 2900 3119 2900 3481 
Q 2900 3844 2670 4047 
Q 2441 4250 2034 4250 
Q 1625 4250 1398 4047 
Q 1172 3844 1172 3481 
z
" transform="scale(0.015625)"/>
      </defs>
      <use xlink:href="#DejaVuSans-6d"/>
      <use xlink:href="#DejaVuSans-75" x="97.412109"/>
      <use xlink:href="#DejaVuSans-3d" x="160.791016"/>
      <use xlink:href="#DejaVuSans-30" x="244.580078"/>
      <use xlink:href="#DejaVuSans-2e" x="308.203125"/>
      <use xlink:href="#DejaVuSans-30" x="339.990234"/>
      <use xlink:href="#DejaVuSans-38" x="403.613281"/>
     </g>
    </g>
    <g id="line2d_70">
     <path d="M 66.6 171.995437 
L 76.6 171.995437 
L 86.6 171.995437 
" style="fill: none; stroke: #bcbd22; stroke-width: 1.5; stroke-linecap: square"/>
     <g>
      <use xlink:href="#m4fb10fbb99" x="76.6" y="171.995437" style="fill: #bcbd22; stroke: #bcbd22"/>
     </g>
    </g>
    <g id="text_22">
     <!-- mu=0.09 -->
     <g transform="translate(94.6 175.495437) scale(0.1 -0.1)">
      <defs>
       <path id="DejaVuSans-39" d="M 703 97 
L 703 672 
Q 941 559 1184 500 
Q 1428 441 1663 441 
Q 2288 441 2617 861 
Q 2947 1281 2994 2138 
Q 2813 1869 2534 1725 
Q 2256 1581 1919 1581 
Q 1219 1581 811 2004 
Q 403 2428 403 3163 
Q 403 3881 828 4315 
Q 1253 4750 1959 4750 
Q 2769 4750 3195 4129 
Q 3622 3509 3622 2328 
Q 3622 1225 3098 567 
Q 2575 -91 1691 -91 
Q 1453 -91 1209 -44 
Q 966 3 703 97 
z
M 1959 2075 
Q 2384 2075 2632 2365 
Q 2881 2656 2881 3163 
Q 2881 3666 2632 3958 
Q 2384 4250 1959 4250 
Q 1534 4250 1286 3958 
Q 1038 3666 1038 3163 
Q 1038 2656 1286 2365 
Q 1534 2075 1959 2075 
z
" transform="scale(0.015625)"/>
      </defs>
      <use xlink:href="#DejaVuSans-6d"/>
      <use xlink:href="#DejaVuSans-75" x="97.412109"/>
      <use xlink:href="#DejaVuSans-3d" x="160.791016"/>
      <use xlink:href="#DejaVuSans-30" x="244.580078"/>
      <use xlink:href="#DejaVuSans-2e" x="308.203125"/>
      <use xlink:href="#DejaVuSans-30" x="339.990234"/>
      <use xlink:href="#DejaVuSans-39" x="403.613281"/>
     </g>
    </g>
    <g id="line2d_71">
     <path d="M 66.6 186.673562 
L 76.6 186.673562 
L 86.6 186.673562 
" style="fill: none; stroke: #17becf; stroke-width: 1.5; stroke-linecap: square"/>
     <g>
      <use xlink:href="#m45fe028bcd" x="76.6" y="186.673562" style="fill: #17becf; stroke: #17becf"/>
     </g>
    </g>
    <g id="text_23">
     <!-- mu=0.1 -->
     <g transform="translate(94.6 190.173562) scale(0.1 -0.1)">
      <use xlink:href="#DejaVuSans-6d"/>
      <use xlink:href="#DejaVuSans-75" x="97.412109"/>
      <use xlink:href="#DejaVuSans-3d" x="160.791016"/>
      <use xlink:href="#DejaVuSans-30" x="244.580078"/>
      <use xlink:href="#DejaVuSans-2e" x="308.203125"/>
      <use xlink:href="#DejaVuSans-31" x="339.990234"/>
     </g>
    </g>
    <g id="line2d_72">
     <path d="M 66.6 201.351687 
L 76.6 201.351687 
L 86.6 201.351687 
" style="fill: none; stroke-dasharray: 5.55,2.4; stroke-dashoffset: 0; stroke: #1f77b4; stroke-width: 1.5"/>
    </g>
    <g id="text_24">
     <!-- Analytical -->
     <g transform="translate(94.6 204.851687) scale(0.1 -0.1)">
      <defs>
       <path id="DejaVuSans-41" d="M 2188 4044 
L 1331 1722 
L 3047 1722 
L 2188 4044 
z
M 1831 4666 
L 2547 4666 
L 4325 0 
L 3669 0 
L 3244 1197 
L 1141 1197 
L 716 0 
L 50 0 
L 1831 4666 
z
" transform="scale(0.015625)"/>
       <path id="DejaVuSans-79" d="M 2059 -325 
Q 1816 -950 1584 -1140 
Q 1353 -1331 966 -1331 
L 506 -1331 
L 506 -850 
L 844 -850 
Q 1081 -850 1212 -737 
Q 1344 -625 1503 -206 
L 1606 56 
L 191 3500 
L 800 3500 
L 1894 763 
L 2988 3500 
L 3597 3500 
L 2059 -325 
z
" transform="scale(0.015625)"/>
       <path id="DejaVuSans-63" d="M 3122 3366 
L 3122 2828 
Q 2878 2963 2633 3030 
Q 2388 3097 2138 3097 
Q 1578 3097 1268 2742 
Q 959 2388 959 1747 
Q 959 1106 1268 751 
Q 1578 397 2138 397 
Q 2388 397 2633 464 
Q 2878 531 3122 666 
L 3122 134 
Q 2881 22 2623 -34 
Q 2366 -91 2075 -91 
Q 1284 -91 818 406 
Q 353 903 353 1747 
Q 353 2603 823 3093 
Q 1294 3584 2113 3584 
Q 2378 3584 2631 3529 
Q 2884 3475 3122 3366 
z
" transform="scale(0.015625)"/>
      </defs>
      <use xlink:href="#DejaVuSans-41"/>
      <use xlink:href="#DejaVuSans-6e" x="68.408203"/>
      <use xlink:href="#DejaVuSans-61" x="131.787109"/>
      <use xlink:href="#DejaVuSans-6c" x="193.066406"/>
      <use xlink:href="#DejaVuSans-79" x="220.849609"/>
      <use xlink:href="#DejaVuSans-74" x="280.029297"/>
      <use xlink:href="#DejaVuSans-69" x="319.238281"/>
      <use xlink:href="#DejaVuSans-63" x="347.021484"/>
      <use xlink:href="#DejaVuSans-61" x="402.001953"/>
      <use xlink:href="#DejaVuSans-6c" x="463.28125"/>
     </g>
    </g>
   </g>
  </g>
 </g>
 <defs>
  <clipPath id="p5fc39610a6">
   <rect x="57.6" y="41.472" width="357.12" height="266.112"/>
  </clipPath>
 </defs>
</svg>
