<?xml version="1.0" encoding="utf-8" standalone="no"?>
<!DOCTYPE svg PUBLIC "-//W3C//DTD SVG 1.1//EN"
  "http://www.w3.org/Graphics/SVG/1.1/DTD/svg11.dtd">
<svg xmlns:xlink="http://www.w3.org/1999/xlink" width="576pt" height="432pt" viewBox="0 0 576 432" xmlns="http://www.w3.org/2000/svg" version="1.1">
 <metadata>
  <rdf:RDF xmlns:dc="http://purl.org/dc/elements/1.1/" xmlns:cc="http://creativecommons.org/ns#" xmlns:rdf="http://www.w3.org/1999/02/22-rdf-syntax-ns#">
   <cc:Work>
    <dc:type rdf:resource="http://purl.org/dc/dcmitype/StillImage"/>
    <dc:date>2023-10-31T17:39:12.975240</dc:date>
    <dc:format>image/svg+xml</dc:format>
    <dc:creator>
     <cc:Agent>
      <dc:title>Matplotlib v3.5.1, https://matplotlib.org/</dc:title>
     </cc:Agent>
    </dc:creator>
   </cc:Work>
  </rdf:RDF>
 </metadata>
 <defs>
  <style type="text/css">*{stroke-linejoin: round; stroke-linecap: butt}</style>
 </defs>
 <g id="figure_1">
  <g id="patch_1">
   <path d="M 0 432 
L 576 432 
L 576 0 
L 0 0 
z
" style="fill: #ffffff"/>
  </g>
  <g id="axes_1">
   <g id="patch_2">
    <path d="M 69.23 381.4 
L 556.56 381.4 
L 556.56 23.4 
L 69.23 23.4 
z
" style="fill: #ffffff"/>
   </g>
   <g id="matplotlib.axis_1">
    <g id="xtick_1">
     <g id="line2d_1">
      <defs>
       <path id="m18cea5ac12" d="M 0 0 
L 0 3.5 
" style="stroke: #000000; stroke-width: 0.8"/>
      </defs>
      <g>
       <use xlink:href="#m18cea5ac12" x="91.381364" y="381.4" style="stroke: #000000; stroke-width: 0.8"/>
      </g>
     </g>
     <g id="text_1">
      <!-- 2 -->
      <g transform="translate(88.200114 395.998437)scale(0.1 -0.1)">
       <defs>
        <path id="DejaVuSans-32" d="M 1228 531 
L 3431 531 
L 3431 0 
L 469 0 
L 469 531 
Q 828 903 1448 1529 
Q 2069 2156 2228 2338 
Q 2531 2678 2651 2914 
Q 2772 3150 2772 3378 
Q 2772 3750 2511 3984 
Q 2250 4219 1831 4219 
Q 1534 4219 1204 4116 
Q 875 4013 500 3803 
L 500 4441 
Q 881 4594 1212 4672 
Q 1544 4750 1819 4750 
Q 2544 4750 2975 4387 
Q 3406 4025 3406 3419 
Q 3406 3131 3298 2873 
Q 3191 2616 2906 2266 
Q 2828 2175 2409 1742 
Q 1991 1309 1228 531 
z
" transform="scale(0.015625)"/>
       </defs>
       <use xlink:href="#DejaVuSans-32"/>
      </g>
     </g>
    </g>
    <g id="xtick_2">
     <g id="line2d_2">
      <g>
       <use xlink:href="#m18cea5ac12" x="202.138182" y="381.4" style="stroke: #000000; stroke-width: 0.8"/>
      </g>
     </g>
     <g id="text_2">
      <!-- 16 -->
      <g transform="translate(195.775682 395.998437)scale(0.1 -0.1)">
       <defs>
        <path id="DejaVuSans-31" d="M 794 531 
L 1825 531 
L 1825 4091 
L 703 3866 
L 703 4441 
L 1819 4666 
L 2450 4666 
L 2450 531 
L 3481 531 
L 3481 0 
L 794 0 
L 794 531 
z
" transform="scale(0.015625)"/>
        <path id="DejaVuSans-36" d="M 2113 2584 
Q 1688 2584 1439 2293 
Q 1191 2003 1191 1497 
Q 1191 994 1439 701 
Q 1688 409 2113 409 
Q 2538 409 2786 701 
Q 3034 994 3034 1497 
Q 3034 2003 2786 2293 
Q 2538 2584 2113 2584 
z
M 3366 4563 
L 3366 3988 
Q 3128 4100 2886 4159 
Q 2644 4219 2406 4219 
Q 1781 4219 1451 3797 
Q 1122 3375 1075 2522 
Q 1259 2794 1537 2939 
Q 1816 3084 2150 3084 
Q 2853 3084 3261 2657 
Q 3669 2231 3669 1497 
Q 3669 778 3244 343 
Q 2819 -91 2113 -91 
Q 1303 -91 875 529 
Q 447 1150 447 2328 
Q 447 3434 972 4092 
Q 1497 4750 2381 4750 
Q 2619 4750 2861 4703 
Q 3103 4656 3366 4563 
z
" transform="scale(0.015625)"/>
       </defs>
       <use xlink:href="#DejaVuSans-31"/>
       <use xlink:href="#DejaVuSans-36" x="63.623047"/>
      </g>
     </g>
    </g>
    <g id="xtick_3">
     <g id="line2d_3">
      <g>
       <use xlink:href="#m18cea5ac12" x="312.895" y="381.4" style="stroke: #000000; stroke-width: 0.8"/>
      </g>
     </g>
     <g id="text_3">
      <!-- 30 -->
      <g transform="translate(306.5325 395.998437)scale(0.1 -0.1)">
       <defs>
        <path id="DejaVuSans-33" d="M 2597 2516 
Q 3050 2419 3304 2112 
Q 3559 1806 3559 1356 
Q 3559 666 3084 287 
Q 2609 -91 1734 -91 
Q 1441 -91 1130 -33 
Q 819 25 488 141 
L 488 750 
Q 750 597 1062 519 
Q 1375 441 1716 441 
Q 2309 441 2620 675 
Q 2931 909 2931 1356 
Q 2931 1769 2642 2001 
Q 2353 2234 1838 2234 
L 1294 2234 
L 1294 2753 
L 1863 2753 
Q 2328 2753 2575 2939 
Q 2822 3125 2822 3475 
Q 2822 3834 2567 4026 
Q 2313 4219 1838 4219 
Q 1578 4219 1281 4162 
Q 984 4106 628 3988 
L 628 4550 
Q 988 4650 1302 4700 
Q 1616 4750 1894 4750 
Q 2613 4750 3031 4423 
Q 3450 4097 3450 3541 
Q 3450 3153 3228 2886 
Q 3006 2619 2597 2516 
z
" transform="scale(0.015625)"/>
        <path id="DejaVuSans-30" d="M 2034 4250 
Q 1547 4250 1301 3770 
Q 1056 3291 1056 2328 
Q 1056 1369 1301 889 
Q 1547 409 2034 409 
Q 2525 409 2770 889 
Q 3016 1369 3016 2328 
Q 3016 3291 2770 3770 
Q 2525 4250 2034 4250 
z
M 2034 4750 
Q 2819 4750 3233 4129 
Q 3647 3509 3647 2328 
Q 3647 1150 3233 529 
Q 2819 -91 2034 -91 
Q 1250 -91 836 529 
Q 422 1150 422 2328 
Q 422 3509 836 4129 
Q 1250 4750 2034 4750 
z
" transform="scale(0.015625)"/>
       </defs>
       <use xlink:href="#DejaVuSans-33"/>
       <use xlink:href="#DejaVuSans-30" x="63.623047"/>
      </g>
     </g>
    </g>
    <g id="xtick_4">
     <g id="line2d_4">
      <g>
       <use xlink:href="#m18cea5ac12" x="423.651818" y="381.4" style="stroke: #000000; stroke-width: 0.8"/>
      </g>
     </g>
     <g id="text_4">
      <!-- 44 -->
      <g transform="translate(417.289318 395.998437)scale(0.1 -0.1)">
       <defs>
        <path id="DejaVuSans-34" d="M 2419 4116 
L 825 1625 
L 2419 1625 
L 2419 4116 
z
M 2253 4666 
L 3047 4666 
L 3047 1625 
L 3713 1625 
L 3713 1100 
L 3047 1100 
L 3047 0 
L 2419 0 
L 2419 1100 
L 313 1100 
L 313 1709 
L 2253 4666 
z
" transform="scale(0.015625)"/>
       </defs>
       <use xlink:href="#DejaVuSans-34"/>
       <use xlink:href="#DejaVuSans-34" x="63.623047"/>
      </g>
     </g>
    </g>
    <g id="xtick_5">
     <g id="line2d_5">
      <g>
       <use xlink:href="#m18cea5ac12" x="534.408636" y="381.4" style="stroke: #000000; stroke-width: 0.8"/>
      </g>
     </g>
     <g id="text_5">
      <!-- 58 -->
      <g transform="translate(528.046136 395.998437)scale(0.1 -0.1)">
       <defs>
        <path id="DejaVuSans-35" d="M 691 4666 
L 3169 4666 
L 3169 4134 
L 1269 4134 
L 1269 2991 
Q 1406 3038 1543 3061 
Q 1681 3084 1819 3084 
Q 2600 3084 3056 2656 
Q 3513 2228 3513 1497 
Q 3513 744 3044 326 
Q 2575 -91 1722 -91 
Q 1428 -91 1123 -41 
Q 819 9 494 109 
L 494 744 
Q 775 591 1075 516 
Q 1375 441 1709 441 
Q 2250 441 2565 725 
Q 2881 1009 2881 1497 
Q 2881 1984 2565 2268 
Q 2250 2553 1709 2553 
Q 1456 2553 1204 2497 
Q 953 2441 691 2322 
L 691 4666 
z
" transform="scale(0.015625)"/>
        <path id="DejaVuSans-38" d="M 2034 2216 
Q 1584 2216 1326 1975 
Q 1069 1734 1069 1313 
Q 1069 891 1326 650 
Q 1584 409 2034 409 
Q 2484 409 2743 651 
Q 3003 894 3003 1313 
Q 3003 1734 2745 1975 
Q 2488 2216 2034 2216 
z
M 1403 2484 
Q 997 2584 770 2862 
Q 544 3141 544 3541 
Q 544 4100 942 4425 
Q 1341 4750 2034 4750 
Q 2731 4750 3128 4425 
Q 3525 4100 3525 3541 
Q 3525 3141 3298 2862 
Q 3072 2584 2669 2484 
Q 3125 2378 3379 2068 
Q 3634 1759 3634 1313 
Q 3634 634 3220 271 
Q 2806 -91 2034 -91 
Q 1263 -91 848 271 
Q 434 634 434 1313 
Q 434 1759 690 2068 
Q 947 2378 1403 2484 
z
M 1172 3481 
Q 1172 3119 1398 2916 
Q 1625 2713 2034 2713 
Q 2441 2713 2670 2916 
Q 2900 3119 2900 3481 
Q 2900 3844 2670 4047 
Q 2441 4250 2034 4250 
Q 1625 4250 1398 4047 
Q 1172 3844 1172 3481 
z
" transform="scale(0.015625)"/>
       </defs>
       <use xlink:href="#DejaVuSans-35"/>
       <use xlink:href="#DejaVuSans-38" x="63.623047"/>
      </g>
     </g>
    </g>
    <g id="text_6">
     <!-- step -->
     <g transform="translate(302.079375 409.676562)scale(0.1 -0.1)">
      <defs>
       <path id="DejaVuSans-73" d="M 2834 3397 
L 2834 2853 
Q 2591 2978 2328 3040 
Q 2066 3103 1784 3103 
Q 1356 3103 1142 2972 
Q 928 2841 928 2578 
Q 928 2378 1081 2264 
Q 1234 2150 1697 2047 
L 1894 2003 
Q 2506 1872 2764 1633 
Q 3022 1394 3022 966 
Q 3022 478 2636 193 
Q 2250 -91 1575 -91 
Q 1294 -91 989 -36 
Q 684 19 347 128 
L 347 722 
Q 666 556 975 473 
Q 1284 391 1588 391 
Q 1994 391 2212 530 
Q 2431 669 2431 922 
Q 2431 1156 2273 1281 
Q 2116 1406 1581 1522 
L 1381 1569 
Q 847 1681 609 1914 
Q 372 2147 372 2553 
Q 372 3047 722 3315 
Q 1072 3584 1716 3584 
Q 2034 3584 2315 3537 
Q 2597 3491 2834 3397 
z
" transform="scale(0.015625)"/>
       <path id="DejaVuSans-74" d="M 1172 4494 
L 1172 3500 
L 2356 3500 
L 2356 3053 
L 1172 3053 
L 1172 1153 
Q 1172 725 1289 603 
Q 1406 481 1766 481 
L 2356 481 
L 2356 0 
L 1766 0 
Q 1100 0 847 248 
Q 594 497 594 1153 
L 594 3053 
L 172 3053 
L 172 3500 
L 594 3500 
L 594 4494 
L 1172 4494 
z
" transform="scale(0.015625)"/>
       <path id="DejaVuSans-65" d="M 3597 1894 
L 3597 1613 
L 953 1613 
Q 991 1019 1311 708 
Q 1631 397 2203 397 
Q 2534 397 2845 478 
Q 3156 559 3463 722 
L 3463 178 
Q 3153 47 2828 -22 
Q 2503 -91 2169 -91 
Q 1331 -91 842 396 
Q 353 884 353 1716 
Q 353 2575 817 3079 
Q 1281 3584 2069 3584 
Q 2775 3584 3186 3129 
Q 3597 2675 3597 1894 
z
M 3022 2063 
Q 3016 2534 2758 2815 
Q 2500 3097 2075 3097 
Q 1594 3097 1305 2825 
Q 1016 2553 972 2059 
L 3022 2063 
z
" transform="scale(0.015625)"/>
       <path id="DejaVuSans-70" d="M 1159 525 
L 1159 -1331 
L 581 -1331 
L 581 3500 
L 1159 3500 
L 1159 2969 
Q 1341 3281 1617 3432 
Q 1894 3584 2278 3584 
Q 2916 3584 3314 3078 
Q 3713 2572 3713 1747 
Q 3713 922 3314 415 
Q 2916 -91 2278 -91 
Q 1894 -91 1617 61 
Q 1341 213 1159 525 
z
M 3116 1747 
Q 3116 2381 2855 2742 
Q 2594 3103 2138 3103 
Q 1681 3103 1420 2742 
Q 1159 2381 1159 1747 
Q 1159 1113 1420 752 
Q 1681 391 2138 391 
Q 2594 391 2855 752 
Q 3116 1113 3116 1747 
z
" transform="scale(0.015625)"/>
      </defs>
      <use xlink:href="#DejaVuSans-73"/>
      <use xlink:href="#DejaVuSans-74" x="52.099609"/>
      <use xlink:href="#DejaVuSans-65" x="91.308594"/>
      <use xlink:href="#DejaVuSans-70" x="152.832031"/>
     </g>
    </g>
   </g>
   <g id="matplotlib.axis_2">
    <g id="ytick_1">
     <g id="line2d_6">
      <defs>
       <path id="m580dfd4da8" d="M 0 0 
L -3.5 0 
" style="stroke: #000000; stroke-width: 0.8"/>
      </defs>
      <g>
       <use xlink:href="#m580dfd4da8" x="69.23" y="322.617035" style="stroke: #000000; stroke-width: 0.8"/>
      </g>
     </g>
     <g id="text_7">
      <!-- 4.24 -->
      <g transform="translate(39.964375 326.416254)scale(0.1 -0.1)">
       <defs>
        <path id="DejaVuSans-2e" d="M 684 794 
L 1344 794 
L 1344 0 
L 684 0 
L 684 794 
z
" transform="scale(0.015625)"/>
       </defs>
       <use xlink:href="#DejaVuSans-34"/>
       <use xlink:href="#DejaVuSans-2e" x="63.623047"/>
       <use xlink:href="#DejaVuSans-32" x="95.410156"/>
       <use xlink:href="#DejaVuSans-34" x="159.033203"/>
      </g>
     </g>
    </g>
    <g id="ytick_2">
     <g id="line2d_7">
      <g>
       <use xlink:href="#m580dfd4da8" x="69.23" y="247.812776" style="stroke: #000000; stroke-width: 0.8"/>
      </g>
     </g>
     <g id="text_8">
      <!-- 6.45 -->
      <g transform="translate(39.964375 251.611995)scale(0.1 -0.1)">
       <use xlink:href="#DejaVuSans-36"/>
       <use xlink:href="#DejaVuSans-2e" x="63.623047"/>
       <use xlink:href="#DejaVuSans-34" x="95.410156"/>
       <use xlink:href="#DejaVuSans-35" x="159.033203"/>
      </g>
     </g>
    </g>
    <g id="ytick_3">
     <g id="line2d_8">
      <g>
       <use xlink:href="#m580dfd4da8" x="69.23" y="173.008517" style="stroke: #000000; stroke-width: 0.8"/>
      </g>
     </g>
     <g id="text_9">
      <!-- 8.66 -->
      <g transform="translate(39.964375 176.807736)scale(0.1 -0.1)">
       <use xlink:href="#DejaVuSans-38"/>
       <use xlink:href="#DejaVuSans-2e" x="63.623047"/>
       <use xlink:href="#DejaVuSans-36" x="95.410156"/>
       <use xlink:href="#DejaVuSans-36" x="159.033203"/>
      </g>
     </g>
    </g>
    <g id="ytick_4">
     <g id="line2d_9">
      <g>
       <use xlink:href="#m580dfd4da8" x="69.23" y="98.204259" style="stroke: #000000; stroke-width: 0.8"/>
      </g>
     </g>
     <g id="text_10">
      <!-- 10.87 -->
      <g transform="translate(33.601875 102.003477)scale(0.1 -0.1)">
       <defs>
        <path id="DejaVuSans-37" d="M 525 4666 
L 3525 4666 
L 3525 4397 
L 1831 0 
L 1172 0 
L 2766 4134 
L 525 4134 
L 525 4666 
z
" transform="scale(0.015625)"/>
       </defs>
       <use xlink:href="#DejaVuSans-31"/>
       <use xlink:href="#DejaVuSans-30" x="63.623047"/>
       <use xlink:href="#DejaVuSans-2e" x="127.246094"/>
       <use xlink:href="#DejaVuSans-38" x="159.033203"/>
       <use xlink:href="#DejaVuSans-37" x="222.65625"/>
      </g>
     </g>
    </g>
    <g id="ytick_5">
     <g id="line2d_10">
      <g>
       <use xlink:href="#m580dfd4da8" x="69.23" y="23.4" style="stroke: #000000; stroke-width: 0.8"/>
      </g>
     </g>
     <g id="text_11">
      <!-- 13.08 -->
      <g transform="translate(33.601875 27.199219)scale(0.1 -0.1)">
       <use xlink:href="#DejaVuSans-31"/>
       <use xlink:href="#DejaVuSans-33" x="63.623047"/>
       <use xlink:href="#DejaVuSans-2e" x="127.246094"/>
       <use xlink:href="#DejaVuSans-30" x="159.033203"/>
       <use xlink:href="#DejaVuSans-38" x="222.65625"/>
      </g>
     </g>
    </g>
    <g id="text_12">
     <!-- Average number of mutations, m -->
     <g transform="translate(27.522188 285.327344)rotate(-90)scale(0.1 -0.1)">
      <defs>
       <path id="DejaVuSans-41" d="M 2188 4044 
L 1331 1722 
L 3047 1722 
L 2188 4044 
z
M 1831 4666 
L 2547 4666 
L 4325 0 
L 3669 0 
L 3244 1197 
L 1141 1197 
L 716 0 
L 50 0 
L 1831 4666 
z
" transform="scale(0.015625)"/>
       <path id="DejaVuSans-76" d="M 191 3500 
L 800 3500 
L 1894 563 
L 2988 3500 
L 3597 3500 
L 2284 0 
L 1503 0 
L 191 3500 
z
" transform="scale(0.015625)"/>
       <path id="DejaVuSans-72" d="M 2631 2963 
Q 2534 3019 2420 3045 
Q 2306 3072 2169 3072 
Q 1681 3072 1420 2755 
Q 1159 2438 1159 1844 
L 1159 0 
L 581 0 
L 581 3500 
L 1159 3500 
L 1159 2956 
Q 1341 3275 1631 3429 
Q 1922 3584 2338 3584 
Q 2397 3584 2469 3576 
Q 2541 3569 2628 3553 
L 2631 2963 
z
" transform="scale(0.015625)"/>
       <path id="DejaVuSans-61" d="M 2194 1759 
Q 1497 1759 1228 1600 
Q 959 1441 959 1056 
Q 959 750 1161 570 
Q 1363 391 1709 391 
Q 2188 391 2477 730 
Q 2766 1069 2766 1631 
L 2766 1759 
L 2194 1759 
z
M 3341 1997 
L 3341 0 
L 2766 0 
L 2766 531 
Q 2569 213 2275 61 
Q 1981 -91 1556 -91 
Q 1019 -91 701 211 
Q 384 513 384 1019 
Q 384 1609 779 1909 
Q 1175 2209 1959 2209 
L 2766 2209 
L 2766 2266 
Q 2766 2663 2505 2880 
Q 2244 3097 1772 3097 
Q 1472 3097 1187 3025 
Q 903 2953 641 2809 
L 641 3341 
Q 956 3463 1253 3523 
Q 1550 3584 1831 3584 
Q 2591 3584 2966 3190 
Q 3341 2797 3341 1997 
z
" transform="scale(0.015625)"/>
       <path id="DejaVuSans-67" d="M 2906 1791 
Q 2906 2416 2648 2759 
Q 2391 3103 1925 3103 
Q 1463 3103 1205 2759 
Q 947 2416 947 1791 
Q 947 1169 1205 825 
Q 1463 481 1925 481 
Q 2391 481 2648 825 
Q 2906 1169 2906 1791 
z
M 3481 434 
Q 3481 -459 3084 -895 
Q 2688 -1331 1869 -1331 
Q 1566 -1331 1297 -1286 
Q 1028 -1241 775 -1147 
L 775 -588 
Q 1028 -725 1275 -790 
Q 1522 -856 1778 -856 
Q 2344 -856 2625 -561 
Q 2906 -266 2906 331 
L 2906 616 
Q 2728 306 2450 153 
Q 2172 0 1784 0 
Q 1141 0 747 490 
Q 353 981 353 1791 
Q 353 2603 747 3093 
Q 1141 3584 1784 3584 
Q 2172 3584 2450 3431 
Q 2728 3278 2906 2969 
L 2906 3500 
L 3481 3500 
L 3481 434 
z
" transform="scale(0.015625)"/>
       <path id="DejaVuSans-20" transform="scale(0.015625)"/>
       <path id="DejaVuSans-6e" d="M 3513 2113 
L 3513 0 
L 2938 0 
L 2938 2094 
Q 2938 2591 2744 2837 
Q 2550 3084 2163 3084 
Q 1697 3084 1428 2787 
Q 1159 2491 1159 1978 
L 1159 0 
L 581 0 
L 581 3500 
L 1159 3500 
L 1159 2956 
Q 1366 3272 1645 3428 
Q 1925 3584 2291 3584 
Q 2894 3584 3203 3211 
Q 3513 2838 3513 2113 
z
" transform="scale(0.015625)"/>
       <path id="DejaVuSans-75" d="M 544 1381 
L 544 3500 
L 1119 3500 
L 1119 1403 
Q 1119 906 1312 657 
Q 1506 409 1894 409 
Q 2359 409 2629 706 
Q 2900 1003 2900 1516 
L 2900 3500 
L 3475 3500 
L 3475 0 
L 2900 0 
L 2900 538 
Q 2691 219 2414 64 
Q 2138 -91 1772 -91 
Q 1169 -91 856 284 
Q 544 659 544 1381 
z
M 1991 3584 
L 1991 3584 
z
" transform="scale(0.015625)"/>
       <path id="DejaVuSans-6d" d="M 3328 2828 
Q 3544 3216 3844 3400 
Q 4144 3584 4550 3584 
Q 5097 3584 5394 3201 
Q 5691 2819 5691 2113 
L 5691 0 
L 5113 0 
L 5113 2094 
Q 5113 2597 4934 2840 
Q 4756 3084 4391 3084 
Q 3944 3084 3684 2787 
Q 3425 2491 3425 1978 
L 3425 0 
L 2847 0 
L 2847 2094 
Q 2847 2600 2669 2842 
Q 2491 3084 2119 3084 
Q 1678 3084 1418 2786 
Q 1159 2488 1159 1978 
L 1159 0 
L 581 0 
L 581 3500 
L 1159 3500 
L 1159 2956 
Q 1356 3278 1631 3431 
Q 1906 3584 2284 3584 
Q 2666 3584 2933 3390 
Q 3200 3197 3328 2828 
z
" transform="scale(0.015625)"/>
       <path id="DejaVuSans-62" d="M 3116 1747 
Q 3116 2381 2855 2742 
Q 2594 3103 2138 3103 
Q 1681 3103 1420 2742 
Q 1159 2381 1159 1747 
Q 1159 1113 1420 752 
Q 1681 391 2138 391 
Q 2594 391 2855 752 
Q 3116 1113 3116 1747 
z
M 1159 2969 
Q 1341 3281 1617 3432 
Q 1894 3584 2278 3584 
Q 2916 3584 3314 3078 
Q 3713 2572 3713 1747 
Q 3713 922 3314 415 
Q 2916 -91 2278 -91 
Q 1894 -91 1617 61 
Q 1341 213 1159 525 
L 1159 0 
L 581 0 
L 581 4863 
L 1159 4863 
L 1159 2969 
z
" transform="scale(0.015625)"/>
       <path id="DejaVuSans-6f" d="M 1959 3097 
Q 1497 3097 1228 2736 
Q 959 2375 959 1747 
Q 959 1119 1226 758 
Q 1494 397 1959 397 
Q 2419 397 2687 759 
Q 2956 1122 2956 1747 
Q 2956 2369 2687 2733 
Q 2419 3097 1959 3097 
z
M 1959 3584 
Q 2709 3584 3137 3096 
Q 3566 2609 3566 1747 
Q 3566 888 3137 398 
Q 2709 -91 1959 -91 
Q 1206 -91 779 398 
Q 353 888 353 1747 
Q 353 2609 779 3096 
Q 1206 3584 1959 3584 
z
" transform="scale(0.015625)"/>
       <path id="DejaVuSans-66" d="M 2375 4863 
L 2375 4384 
L 1825 4384 
Q 1516 4384 1395 4259 
Q 1275 4134 1275 3809 
L 1275 3500 
L 2222 3500 
L 2222 3053 
L 1275 3053 
L 1275 0 
L 697 0 
L 697 3053 
L 147 3053 
L 147 3500 
L 697 3500 
L 697 3744 
Q 697 4328 969 4595 
Q 1241 4863 1831 4863 
L 2375 4863 
z
" transform="scale(0.015625)"/>
       <path id="DejaVuSans-69" d="M 603 3500 
L 1178 3500 
L 1178 0 
L 603 0 
L 603 3500 
z
M 603 4863 
L 1178 4863 
L 1178 4134 
L 603 4134 
L 603 4863 
z
" transform="scale(0.015625)"/>
       <path id="DejaVuSans-2c" d="M 750 794 
L 1409 794 
L 1409 256 
L 897 -744 
L 494 -744 
L 750 256 
L 750 794 
z
" transform="scale(0.015625)"/>
      </defs>
      <use xlink:href="#DejaVuSans-41"/>
      <use xlink:href="#DejaVuSans-76" x="62.533203"/>
      <use xlink:href="#DejaVuSans-65" x="121.712891"/>
      <use xlink:href="#DejaVuSans-72" x="183.236328"/>
      <use xlink:href="#DejaVuSans-61" x="224.349609"/>
      <use xlink:href="#DejaVuSans-67" x="285.628906"/>
      <use xlink:href="#DejaVuSans-65" x="349.105469"/>
      <use xlink:href="#DejaVuSans-20" x="410.628906"/>
      <use xlink:href="#DejaVuSans-6e" x="442.416016"/>
      <use xlink:href="#DejaVuSans-75" x="505.794922"/>
      <use xlink:href="#DejaVuSans-6d" x="569.173828"/>
      <use xlink:href="#DejaVuSans-62" x="666.585938"/>
      <use xlink:href="#DejaVuSans-65" x="730.0625"/>
      <use xlink:href="#DejaVuSans-72" x="791.585938"/>
      <use xlink:href="#DejaVuSans-20" x="832.699219"/>
      <use xlink:href="#DejaVuSans-6f" x="864.486328"/>
      <use xlink:href="#DejaVuSans-66" x="925.667969"/>
      <use xlink:href="#DejaVuSans-20" x="960.873047"/>
      <use xlink:href="#DejaVuSans-6d" x="992.660156"/>
      <use xlink:href="#DejaVuSans-75" x="1090.072266"/>
      <use xlink:href="#DejaVuSans-74" x="1153.451172"/>
      <use xlink:href="#DejaVuSans-61" x="1192.660156"/>
      <use xlink:href="#DejaVuSans-74" x="1253.939453"/>
      <use xlink:href="#DejaVuSans-69" x="1293.148438"/>
      <use xlink:href="#DejaVuSans-6f" x="1320.931641"/>
      <use xlink:href="#DejaVuSans-6e" x="1382.113281"/>
      <use xlink:href="#DejaVuSans-73" x="1445.492188"/>
      <use xlink:href="#DejaVuSans-2c" x="1497.591797"/>
      <use xlink:href="#DejaVuSans-20" x="1529.378906"/>
      <use xlink:href="#DejaVuSans-6d" x="1561.166016"/>
     </g>
    </g>
   </g>
   <g id="line2d_11">
    <path d="M 328.717403 296.347338 
L 344.539805 304.257872 
L 360.362208 311.378561 
L 376.18461 317.825912 
L 392.007013 323.694252 
L 407.829416 329.060811 
L 423.651818 333.989457 
L 439.474221 338.533497 
L 455.296623 342.737786 
L 471.119026 346.640357 
L 486.941429 350.273682 
L 502.763831 353.665657 
L 518.586234 356.840394 
L 534.408636 359.818845 
" clip-path="url(#pdab84f76b4)" style="fill: none; stroke-dasharray: 5.55,2.4; stroke-dashoffset: 0; stroke: #0000ff; stroke-width: 1.5"/>
   </g>
   <g id="line2d_12">
    <defs>
     <path id="mfcbdbdf305" d="M 0 3 
C 0.795609 3 1.55874 2.683901 2.12132 2.12132 
C 2.683901 1.55874 3 0.795609 3 0 
C 3 -0.795609 2.683901 -1.55874 2.12132 -2.12132 
C 1.55874 -2.683901 0.795609 -3 0 -3 
C -0.795609 -3 -1.55874 -2.683901 -2.12132 -2.12132 
C -2.683901 -1.55874 -3 -0.795609 -3 0 
C -3 0.795609 -2.683901 1.55874 -2.12132 2.12132 
C -1.55874 2.683901 -0.795609 3 0 3 
z
" style="stroke: #42c1eb"/>
    </defs>
    <g clip-path="url(#pdab84f76b4)">
     <use xlink:href="#mfcbdbdf305" x="91.381364" y="302.466671" style="fill: #42c1eb; stroke: #42c1eb"/>
     <use xlink:href="#mfcbdbdf305" x="123.026169" y="318.843385" style="fill: #42c1eb; stroke: #42c1eb"/>
     <use xlink:href="#mfcbdbdf305" x="138.848571" y="309.220626" style="fill: #42c1eb; stroke: #42c1eb"/>
     <use xlink:href="#mfcbdbdf305" x="170.493377" y="318.048261" style="fill: #42c1eb; stroke: #42c1eb"/>
     <use xlink:href="#mfcbdbdf305" x="186.315779" y="281.397181" style="fill: #42c1eb; stroke: #42c1eb"/>
     <use xlink:href="#mfcbdbdf305" x="202.138182" y="311.182254" style="fill: #42c1eb; stroke: #42c1eb"/>
     <use xlink:href="#mfcbdbdf305" x="217.960584" y="330.80688" style="fill: #42c1eb; stroke: #42c1eb"/>
     <use xlink:href="#mfcbdbdf305" x="233.782987" y="305.030384" style="fill: #42c1eb; stroke: #42c1eb"/>
     <use xlink:href="#mfcbdbdf305" x="249.60539" y="322.518546" style="fill: #42c1eb; stroke: #42c1eb"/>
     <use xlink:href="#mfcbdbdf305" x="257.516591" y="310.413168" style="fill: #42c1eb; stroke: #42c1eb"/>
     <use xlink:href="#mfcbdbdf305" x="273.338994" y="310.61519" style="fill: #42c1eb; stroke: #42c1eb"/>
     <use xlink:href="#mfcbdbdf305" x="281.250195" y="330.503696" style="fill: #42c1eb; stroke: #42c1eb"/>
     <use xlink:href="#mfcbdbdf305" x="297.072597" y="323.391987" style="fill: #42c1eb; stroke: #42c1eb"/>
     <use xlink:href="#mfcbdbdf305" x="312.895" y="310.190573" style="fill: #42c1eb; stroke: #42c1eb"/>
     <use xlink:href="#mfcbdbdf305" x="328.717403" y="308.355272" style="fill: #42c1eb; stroke: #42c1eb"/>
     <use xlink:href="#mfcbdbdf305" x="344.539805" y="315.443689" style="fill: #42c1eb; stroke: #42c1eb"/>
     <use xlink:href="#mfcbdbdf305" x="360.362208" y="306.841162" style="fill: #42c1eb; stroke: #42c1eb"/>
     <use xlink:href="#mfcbdbdf305" x="376.18461" y="298.137981" style="fill: #42c1eb; stroke: #42c1eb"/>
     <use xlink:href="#mfcbdbdf305" x="392.007013" y="330.56486" style="fill: #42c1eb; stroke: #42c1eb"/>
     <use xlink:href="#mfcbdbdf305" x="407.829416" y="322.742536" style="fill: #42c1eb; stroke: #42c1eb"/>
     <use xlink:href="#mfcbdbdf305" x="423.651818" y="329.877898" style="fill: #42c1eb; stroke: #42c1eb"/>
     <use xlink:href="#mfcbdbdf305" x="439.474221" y="336.961178" style="fill: #42c1eb; stroke: #42c1eb"/>
     <use xlink:href="#mfcbdbdf305" x="455.296623" y="335.301926" style="fill: #42c1eb; stroke: #42c1eb"/>
     <use xlink:href="#mfcbdbdf305" x="471.119026" y="344.860376" style="fill: #42c1eb; stroke: #42c1eb"/>
     <use xlink:href="#mfcbdbdf305" x="486.941429" y="353.197265" style="fill: #42c1eb; stroke: #42c1eb"/>
     <use xlink:href="#mfcbdbdf305" x="502.763831" y="358.051714" style="fill: #42c1eb; stroke: #42c1eb"/>
     <use xlink:href="#mfcbdbdf305" x="518.586234" y="356.017845" style="fill: #42c1eb; stroke: #42c1eb"/>
     <use xlink:href="#mfcbdbdf305" x="534.408636" y="366.269623" style="fill: #42c1eb; stroke: #42c1eb"/>
    </g>
   </g>
   <g id="line2d_13">
    <path d="M 328.717403 185.218952 
L 344.539805 175.742505 
L 360.362208 166.515427 
L 376.18461 157.51782 
L 392.007013 148.732326 
L 407.829416 140.143696 
L 423.651818 131.738442 
L 439.474221 123.504571 
L 455.296623 115.431353 
L 471.119026 107.509147 
L 486.941429 99.729252 
L 502.763831 92.083779 
L 518.586234 84.565551 
L 534.408636 77.168016 
" clip-path="url(#pdab84f76b4)" style="fill: none; stroke: #ff0000; stroke-width: 1.5; stroke-linecap: square"/>
   </g>
   <g id="line2d_14">
    <defs>
     <path id="m6970a0ac89" d="M 0 -3 
L -3 3 
L 3 3 
z
" style="stroke: #ed4242; stroke-linejoin: miter"/>
    </defs>
    <g clip-path="url(#pdab84f76b4)">
     <use xlink:href="#m6970a0ac89" x="91.381364" y="322.617035" style="fill: #ed4242; stroke: #ed4242; stroke-linejoin: miter"/>
     <use xlink:href="#m6970a0ac89" x="123.026169" y="316.937795" style="fill: #ed4242; stroke: #ed4242; stroke-linejoin: miter"/>
     <use xlink:href="#m6970a0ac89" x="138.848571" y="263.093344" style="fill: #ed4242; stroke: #ed4242; stroke-linejoin: miter"/>
     <use xlink:href="#m6970a0ac89" x="170.493377" y="142.808769" style="fill: #ed4242; stroke: #ed4242; stroke-linejoin: miter"/>
     <use xlink:href="#m6970a0ac89" x="186.315779" y="160.617264" style="fill: #ed4242; stroke: #ed4242; stroke-linejoin: miter"/>
     <use xlink:href="#m6970a0ac89" x="202.138182" y="178.457196" style="fill: #ed4242; stroke: #ed4242; stroke-linejoin: miter"/>
     <use xlink:href="#m6970a0ac89" x="217.960584" y="181.248038" style="fill: #ed4242; stroke: #ed4242; stroke-linejoin: miter"/>
     <use xlink:href="#m6970a0ac89" x="233.782987" y="135.564911" style="fill: #ed4242; stroke: #ed4242; stroke-linejoin: miter"/>
     <use xlink:href="#m6970a0ac89" x="249.60539" y="153.830782" style="fill: #ed4242; stroke: #ed4242; stroke-linejoin: miter"/>
     <use xlink:href="#m6970a0ac89" x="257.516591" y="133.086699" style="fill: #ed4242; stroke: #ed4242; stroke-linejoin: miter"/>
     <use xlink:href="#m6970a0ac89" x="281.250195" y="149.194619" style="fill: #ed4242; stroke: #ed4242; stroke-linejoin: miter"/>
     <use xlink:href="#m6970a0ac89" x="297.072597" y="160.584086" style="fill: #ed4242; stroke: #ed4242; stroke-linejoin: miter"/>
     <use xlink:href="#m6970a0ac89" x="312.895" y="160.301842" style="fill: #ed4242; stroke: #ed4242; stroke-linejoin: miter"/>
     <use xlink:href="#m6970a0ac89" x="328.717403" y="180.484965" style="fill: #ed4242; stroke: #ed4242; stroke-linejoin: miter"/>
     <use xlink:href="#m6970a0ac89" x="344.539805" y="174.530585" style="fill: #ed4242; stroke: #ed4242; stroke-linejoin: miter"/>
     <use xlink:href="#m6970a0ac89" x="360.362208" y="157.213389" style="fill: #ed4242; stroke: #ed4242; stroke-linejoin: miter"/>
     <use xlink:href="#m6970a0ac89" x="376.18461" y="161.903528" style="fill: #ed4242; stroke: #ed4242; stroke-linejoin: miter"/>
     <use xlink:href="#m6970a0ac89" x="392.007013" y="155.375025" style="fill: #ed4242; stroke: #ed4242; stroke-linejoin: miter"/>
     <use xlink:href="#m6970a0ac89" x="407.829416" y="145.017828" style="fill: #ed4242; stroke: #ed4242; stroke-linejoin: miter"/>
     <use xlink:href="#m6970a0ac89" x="423.651818" y="136.923768" style="fill: #ed4242; stroke: #ed4242; stroke-linejoin: miter"/>
     <use xlink:href="#m6970a0ac89" x="439.474221" y="122.917551" style="fill: #ed4242; stroke: #ed4242; stroke-linejoin: miter"/>
     <use xlink:href="#m6970a0ac89" x="455.296623" y="125.291744" style="fill: #ed4242; stroke: #ed4242; stroke-linejoin: miter"/>
     <use xlink:href="#m6970a0ac89" x="471.119026" y="101.687097" style="fill: #ed4242; stroke: #ed4242; stroke-linejoin: miter"/>
     <use xlink:href="#m6970a0ac89" x="486.941429" y="103.474147" style="fill: #ed4242; stroke: #ed4242; stroke-linejoin: miter"/>
     <use xlink:href="#m6970a0ac89" x="502.763831" y="91.825871" style="fill: #ed4242; stroke: #ed4242; stroke-linejoin: miter"/>
     <use xlink:href="#m6970a0ac89" x="518.586234" y="84.237813" style="fill: #ed4242; stroke: #ed4242; stroke-linejoin: miter"/>
     <use xlink:href="#m6970a0ac89" x="534.408636" y="63.662075" style="fill: #ed4242; stroke: #ed4242; stroke-linejoin: miter"/>
    </g>
   </g>
   <g id="patch_3">
    <path d="M 69.23 381.4 
L 69.23 23.4 
" style="fill: none; stroke: #000000; stroke-width: 0.8; stroke-linejoin: miter; stroke-linecap: square"/>
   </g>
   <g id="patch_4">
    <path d="M 556.56 381.4 
L 556.56 23.4 
" style="fill: none; stroke: #000000; stroke-width: 0.8; stroke-linejoin: miter; stroke-linecap: square"/>
   </g>
   <g id="patch_5">
    <path d="M 69.23 381.4 
L 556.56 381.4 
" style="fill: none; stroke: #000000; stroke-width: 0.8; stroke-linejoin: miter; stroke-linecap: square"/>
   </g>
   <g id="patch_6">
    <path d="M 69.23 23.4 
L 556.56 23.4 
" style="fill: none; stroke: #000000; stroke-width: 0.8; stroke-linejoin: miter; stroke-linecap: square"/>
   </g>
  </g>
 </g>
 <defs>
  <clipPath id="pdab84f76b4">
   <rect x="69.23" y="23.4" width="487.33" height="358"/>
  </clipPath>
 </defs>
</svg>
