<?xml version="1.0" encoding="utf-8" standalone="no"?>
<!DOCTYPE svg PUBLIC "-//W3C//DTD SVG 1.1//EN"
  "http://www.w3.org/Graphics/SVG/1.1/DTD/svg11.dtd">
<svg xmlns:xlink="http://www.w3.org/1999/xlink" width="460.8pt" height="345.6pt" viewBox="0 0 460.8 345.6" xmlns="http://www.w3.org/2000/svg" version="1.1">
 <metadata>
  <rdf:RDF xmlns:dc="http://purl.org/dc/elements/1.1/" xmlns:cc="http://creativecommons.org/ns#" xmlns:rdf="http://www.w3.org/1999/02/22-rdf-syntax-ns#">
   <cc:Work>
    <dc:type rdf:resource="http://purl.org/dc/dcmitype/StillImage"/>
    <dc:date>2023-04-24T19:34:07.752529</dc:date>
    <dc:format>image/svg+xml</dc:format>
    <dc:creator>
     <cc:Agent>
      <dc:title>Matplotlib v3.7.0, https://matplotlib.org/</dc:title>
     </cc:Agent>
    </dc:creator>
   </cc:Work>
  </rdf:RDF>
 </metadata>
 <defs>
  <style type="text/css">*{stroke-linejoin: round; stroke-linecap: butt}</style>
 </defs>
 <g id="figure_1">
  <g id="patch_1">
   <path d="M 0 345.6 
L 460.8 345.6 
L 460.8 0 
L 0 0 
z
" style="fill: #ffffff"/>
  </g>
  <g id="axes_1">
   <g id="PathCollection_1">
    <path d="M 236.16 132.10671 
C 236.292602 132.10671 236.41979 132.054027 236.513553 131.960263 
C 236.607317 131.8665 236.66 131.739311 236.66 131.60671 
C 236.66 131.474108 236.607317 131.34692 236.513553 131.253156 
C 236.41979 131.159393 236.292602 131.10671 236.16 131.10671 
C 236.027398 131.10671 235.90021 131.159393 235.806447 131.253156 
C 235.712683 131.34692 235.66 131.474108 235.66 131.60671 
C 235.66 131.739311 235.712683 131.8665 235.806447 131.960263 
C 235.90021 132.054027 236.027398 132.10671 236.16 132.10671 
z
" clip-path="url(#pc8753fc844)" style="fill: #1f77b4; stroke: #1f77b4"/>
    <path d="M 351.36 132.10671 
C 351.492602 132.10671 351.61979 132.054027 351.713553 131.960263 
C 351.807317 131.8665 351.86 131.739311 351.86 131.60671 
C 351.86 131.474108 351.807317 131.34692 351.713553 131.253156 
C 351.61979 131.159393 351.492602 131.10671 351.36 131.10671 
C 351.227398 131.10671 351.10021 131.159393 351.006447 131.253156 
C 350.912683 131.34692 350.86 131.474108 350.86 131.60671 
C 350.86 131.739311 350.912683 131.8665 351.006447 131.960263 
C 351.10021 132.054027 351.227398 132.10671 351.36 132.10671 
z
" clip-path="url(#pc8753fc844)" style="fill: #1f77b4; stroke: #1f77b4"/>
    <path d="M 351.36 217.94929 
C 351.492602 217.94929 351.61979 217.896607 351.713553 217.802844 
C 351.807317 217.70908 351.86 217.581892 351.86 217.44929 
C 351.86 217.316689 351.807317 217.1895 351.713553 217.095737 
C 351.61979 217.001973 351.492602 216.94929 351.36 216.94929 
C 351.227398 216.94929 351.10021 217.001973 351.006447 217.095737 
C 350.912683 217.1895 350.86 217.316689 350.86 217.44929 
C 350.86 217.581892 350.912683 217.70908 351.006447 217.802844 
C 351.10021 217.896607 351.227398 217.94929 351.36 217.94929 
z
" clip-path="url(#pc8753fc844)" style="fill: #1f77b4; stroke: #1f77b4"/>
    <path d="M 236.16 217.94929 
C 236.292602 217.94929 236.41979 217.896607 236.513553 217.802844 
C 236.607317 217.70908 236.66 217.581892 236.66 217.44929 
C 236.66 217.316689 236.607317 217.1895 236.513553 217.095737 
C 236.41979 217.001973 236.292602 216.94929 236.16 216.94929 
C 236.027398 216.94929 235.90021 217.001973 235.806447 217.095737 
C 235.712683 217.1895 235.66 217.316689 235.66 217.44929 
C 235.66 217.581892 235.712683 217.70908 235.806447 217.802844 
C 235.90021 217.896607 236.027398 217.94929 236.16 217.94929 
z
" clip-path="url(#pc8753fc844)" style="fill: #1f77b4; stroke: #1f77b4"/>
    <path d="M 236.16 132.10671 
C 236.292602 132.10671 236.41979 132.054027 236.513553 131.960263 
C 236.607317 131.8665 236.66 131.739311 236.66 131.60671 
C 236.66 131.474108 236.607317 131.34692 236.513553 131.253156 
C 236.41979 131.159393 236.292602 131.10671 236.16 131.10671 
C 236.027398 131.10671 235.90021 131.159393 235.806447 131.253156 
C 235.712683 131.34692 235.66 131.474108 235.66 131.60671 
C 235.66 131.739311 235.712683 131.8665 235.806447 131.960263 
C 235.90021 132.054027 236.027398 132.10671 236.16 132.10671 
z
" clip-path="url(#pc8753fc844)" style="fill: #1f77b4; stroke: #1f77b4"/>
    <path d="M 236.16 175.028 
C 236.292602 175.028 236.41979 174.975317 236.513553 174.881553 
C 236.607317 174.78779 236.66 174.660602 236.66 174.528 
C 236.66 174.395398 236.607317 174.26821 236.513553 174.174447 
C 236.41979 174.080683 236.292602 174.028 236.16 174.028 
C 236.027398 174.028 235.90021 174.080683 235.806447 174.174447 
C 235.712683 174.26821 235.66 174.395398 235.66 174.528 
C 235.66 174.660602 235.712683 174.78779 235.806447 174.881553 
C 235.90021 174.975317 236.027398 175.028 236.16 175.028 
z
" clip-path="url(#pc8753fc844)" style="fill: #1f77b4; stroke: #1f77b4"/>
    <path d="M 195.430649 153.567355 
C 195.563251 153.567355 195.690439 153.514672 195.784203 153.420908 
C 195.877966 153.327145 195.930649 153.199956 195.930649 153.067355 
C 195.930649 152.934753 195.877966 152.807565 195.784203 152.713801 
C 195.690439 152.620038 195.563251 152.567355 195.430649 152.567355 
C 195.298048 152.567355 195.170859 152.620038 195.077096 152.713801 
C 194.983333 152.807565 194.930649 152.934753 194.930649 153.067355 
C 194.930649 153.199956 194.983333 153.327145 195.077096 153.420908 
C 195.170859 153.514672 195.298048 153.567355 195.430649 153.567355 
z
" clip-path="url(#pc8753fc844)" style="fill: #1f77b4; stroke: #1f77b4"/>
    <path d="M 154.701299 175.028 
C 154.8339 175.028 154.961089 174.975317 155.054852 174.881553 
C 155.148616 174.78779 155.201299 174.660602 155.201299 174.528 
C 155.201299 174.395398 155.148616 174.26821 155.054852 174.174447 
C 154.961089 174.080683 154.8339 174.028 154.701299 174.028 
C 154.568697 174.028 154.441509 174.080683 154.347745 174.174447 
C 154.253982 174.26821 154.201299 174.395398 154.201299 174.528 
C 154.201299 174.660602 154.253982 174.78779 154.347745 174.881553 
C 154.441509 174.975317 154.568697 175.028 154.701299 175.028 
z
" clip-path="url(#pc8753fc844)" style="fill: #1f77b4; stroke: #1f77b4"/>
   </g>
   <g id="PathCollection_2">
    <path d="M 236.16 174.881553 
C 236.253763 174.881553 236.343699 174.844301 236.41 174.778 
C 236.476301 174.711699 236.513553 174.621763 236.513553 174.528 
C 236.513553 174.434237 236.476301 174.344301 236.41 174.278 
C 236.343699 174.211699 236.253763 174.174447 236.16 174.174447 
C 236.066237 174.174447 235.976301 174.211699 235.91 174.278 
C 235.843699 174.344301 235.806447 174.434237 235.806447 174.528 
C 235.806447 174.621763 235.843699 174.711699 235.91 174.778 
C 235.976301 174.844301 236.066237 174.881553 236.16 174.881553 
z
" clip-path="url(#pc8753fc844)" style="fill: #ff7f0e; stroke: #ff7f0e"/>
    <path d="M 293.76 174.881553 
C 293.853763 174.881553 293.943699 174.844301 294.01 174.778 
C 294.076301 174.711699 294.113553 174.621763 294.113553 174.528 
C 294.113553 174.434237 294.076301 174.344301 294.01 174.278 
C 293.943699 174.211699 293.853763 174.174447 293.76 174.174447 
C 293.666237 174.174447 293.576301 174.211699 293.51 174.278 
C 293.443699 174.344301 293.406447 174.434237 293.406447 174.528 
C 293.406447 174.621763 293.443699 174.711699 293.51 174.778 
C 293.576301 174.844301 293.666237 174.881553 293.76 174.881553 
z
" clip-path="url(#pc8753fc844)" style="fill: #ff7f0e; stroke: #ff7f0e"/>
   </g>
   <g id="PathCollection_3">
    <path d="M 293.76 131.960263 
C 293.853763 131.960263 293.943699 131.92301 294.01 131.85671 
C 294.076301 131.790409 294.113553 131.700473 294.113553 131.60671 
C 294.113553 131.512946 294.076301 131.42301 294.01 131.35671 
C 293.943699 131.290409 293.853763 131.253156 293.76 131.253156 
C 293.666237 131.253156 293.576301 131.290409 293.51 131.35671 
C 293.443699 131.42301 293.406447 131.512946 293.406447 131.60671 
C 293.406447 131.700473 293.443699 131.790409 293.51 131.85671 
C 293.576301 131.92301 293.666237 131.960263 293.76 131.960263 
z
" clip-path="url(#pc8753fc844)" style="fill: #2ca02c; stroke: #2ca02c"/>
    <path d="M 293.76 89.038973 
C 293.853763 89.038973 293.943699 89.00172 294.01 88.935419 
C 294.076301 88.869119 294.113553 88.779183 294.113553 88.685419 
C 294.113553 88.591656 294.076301 88.50172 294.01 88.435419 
C 293.943699 88.369119 293.853763 88.331866 293.76 88.331866 
C 293.666237 88.331866 293.576301 88.369119 293.51 88.435419 
C 293.443699 88.50172 293.406447 88.591656 293.406447 88.685419 
C 293.406447 88.779183 293.443699 88.869119 293.51 88.935419 
C 293.576301 89.00172 293.666237 89.038973 293.76 89.038973 
z
" clip-path="url(#pc8753fc844)" style="fill: #2ca02c; stroke: #2ca02c"/>
   </g>
   <g id="PathCollection_4">
    <path d="M 351.36 174.881553 
C 351.453763 174.881553 351.543699 174.844301 351.61 174.778 
C 351.676301 174.711699 351.713553 174.621763 351.713553 174.528 
C 351.713553 174.434237 351.676301 174.344301 351.61 174.278 
C 351.543699 174.211699 351.453763 174.174447 351.36 174.174447 
C 351.266237 174.174447 351.176301 174.211699 351.11 174.278 
C 351.043699 174.344301 351.006447 174.434237 351.006447 174.528 
C 351.006447 174.621763 351.043699 174.711699 351.11 174.778 
C 351.176301 174.844301 351.266237 174.881553 351.36 174.881553 
z
" clip-path="url(#pc8753fc844)" style="fill: #d62728; stroke: #d62728"/>
    <path d="M 408.96 174.881553 
C 409.053763 174.881553 409.143699 174.844301 409.21 174.778 
C 409.276301 174.711699 409.313553 174.621763 409.313553 174.528 
C 409.313553 174.434237 409.276301 174.344301 409.21 174.278 
C 409.143699 174.211699 409.053763 174.174447 408.96 174.174447 
C 408.866237 174.174447 408.776301 174.211699 408.71 174.278 
C 408.643699 174.344301 408.606447 174.434237 408.606447 174.528 
C 408.606447 174.621763 408.643699 174.711699 408.71 174.778 
C 408.776301 174.844301 408.866237 174.881553 408.96 174.881553 
z
" clip-path="url(#pc8753fc844)" style="fill: #d62728; stroke: #d62728"/>
   </g>
   <g id="PathCollection_5">
    <path d="M 154.701299 174.881553 
C 154.795062 174.881553 154.884998 174.844301 154.951299 174.778 
C 155.0176 174.711699 155.054852 174.621763 155.054852 174.528 
C 155.054852 174.434237 155.0176 174.344301 154.951299 174.278 
C 154.884998 174.211699 154.795062 174.174447 154.701299 174.174447 
C 154.607535 174.174447 154.5176 174.211699 154.451299 174.278 
C 154.384998 174.344301 154.347745 174.434237 154.347745 174.528 
C 154.347745 174.621763 154.384998 174.711699 154.451299 174.778 
C 154.5176 174.844301 154.607535 174.881553 154.701299 174.881553 
z
" clip-path="url(#pc8753fc844)" style="fill: #9467bd; stroke: #9467bd"/>
    <path d="M 97.101299 174.881553 
C 97.195062 174.881553 97.284998 174.844301 97.351299 174.778 
C 97.4176 174.711699 97.454852 174.621763 97.454852 174.528 
C 97.454852 174.434237 97.4176 174.344301 97.351299 174.278 
C 97.284998 174.211699 97.195062 174.174447 97.101299 174.174447 
C 97.007535 174.174447 96.9176 174.211699 96.851299 174.278 
C 96.784998 174.344301 96.747745 174.434237 96.747745 174.528 
C 96.747745 174.621763 96.784998 174.711699 96.851299 174.778 
C 96.9176 174.844301 97.007535 174.881553 97.101299 174.881553 
z
" clip-path="url(#pc8753fc844)" style="fill: #9467bd; stroke: #9467bd"/>
   </g>
   <g id="PathCollection_6">
    <path d="M 293.76 217.802844 
C 293.853763 217.802844 293.943699 217.765591 294.01 217.69929 
C 294.076301 217.63299 294.113553 217.543054 294.113553 217.44929 
C 294.113553 217.355527 294.076301 217.265591 294.01 217.19929 
C 293.943699 217.13299 293.853763 217.095737 293.76 217.095737 
C 293.666237 217.095737 293.576301 217.13299 293.51 217.19929 
C 293.443699 217.265591 293.406447 217.355527 293.406447 217.44929 
C 293.406447 217.543054 293.443699 217.63299 293.51 217.69929 
C 293.576301 217.765591 293.666237 217.802844 293.76 217.802844 
z
" clip-path="url(#pc8753fc844)" style="fill: #8c564b; stroke: #8c564b"/>
    <path d="M 293.76 260.724134 
C 293.853763 260.724134 293.943699 260.686881 294.01 260.620581 
C 294.076301 260.55428 294.113553 260.464344 294.113553 260.370581 
C 294.113553 260.276817 294.076301 260.186881 294.01 260.120581 
C 293.943699 260.05428 293.853763 260.017027 293.76 260.017027 
C 293.666237 260.017027 293.576301 260.05428 293.51 260.120581 
C 293.443699 260.186881 293.406447 260.276817 293.406447 260.370581 
C 293.406447 260.464344 293.443699 260.55428 293.51 260.620581 
C 293.576301 260.686881 293.666237 260.724134 293.76 260.724134 
z
" clip-path="url(#pc8753fc844)" style="fill: #8c564b; stroke: #8c564b"/>
   </g>
   <g id="PathCollection_7">
    <defs>
     <path id="C0_0_01e2101f44" d="M 0 3 
C 0.795609 3 1.55874 2.683901 2.12132 2.12132 
C 2.683901 1.55874 3 0.795609 3 -0 
C 3 -0.795609 2.683901 -1.55874 2.12132 -2.12132 
C 1.55874 -2.683901 0.795609 -3 0 -3 
C -0.795609 -3 -1.55874 -2.683901 -2.12132 -2.12132 
C -2.683901 -1.55874 -3 -0.795609 -3 0 
C -3 0.795609 -2.683901 1.55874 -2.12132 2.12132 
C -1.55874 2.683901 -0.795609 3 0 3 
z
"/>
    </defs>
    <g clip-path="url(#pc8753fc844)">
     <use xlink:href="#C0_0_01e2101f44" x="236.16" y="174.528" style="fill: #0000ff; stroke: #0000ff"/>
    </g>
    <g clip-path="url(#pc8753fc844)">
     <use xlink:href="#C0_0_01e2101f44" x="293.76" y="131.60671" style="fill: #008000; stroke: #008000"/>
    </g>
    <g clip-path="url(#pc8753fc844)">
     <use xlink:href="#C0_0_01e2101f44" x="351.36" y="174.528" style="fill: #ffff00; stroke: #ffff00"/>
    </g>
    <g clip-path="url(#pc8753fc844)">
     <use xlink:href="#C0_0_01e2101f44" x="293.76" y="217.44929" style="stroke: #000000"/>
    </g>
    <g clip-path="url(#pc8753fc844)">
     <use xlink:href="#C0_0_01e2101f44" x="236.16" y="174.528" style="fill: #0000ff; stroke: #0000ff"/>
    </g>
    <g clip-path="url(#pc8753fc844)">
     <use xlink:href="#C0_0_01e2101f44" x="154.701299" y="174.528" style="fill: #a52a2a; stroke: #a52a2a"/>
    </g>
   </g>
   <g id="line2d_1">
    <path d="M 236.16 131.60671 
L 351.36 131.60671 
L 351.36 217.44929 
L 236.16 217.44929 
L 236.16 131.60671 
L 236.16 174.528 
L 195.430649 153.067355 
L 154.701299 174.528 
" clip-path="url(#pc8753fc844)" style="fill: none; stroke: #0000ff; stroke-width: 0.1; stroke-linecap: square"/>
   </g>
   <g id="line2d_2">
    <path d="M 236.16 174.528 
L 293.76 174.528 
" clip-path="url(#pc8753fc844)" style="fill: none; stroke: #0000ff; stroke-width: 0.1; stroke-linecap: square"/>
   </g>
   <g id="line2d_3">
    <path d="M 293.76 131.60671 
L 293.76 88.685419 
" clip-path="url(#pc8753fc844)" style="fill: none; stroke: #0000ff; stroke-width: 0.1; stroke-linecap: square"/>
   </g>
   <g id="line2d_4">
    <path d="M 351.36 174.528 
L 408.96 174.528 
" clip-path="url(#pc8753fc844)" style="fill: none; stroke: #0000ff; stroke-width: 0.1; stroke-linecap: square"/>
   </g>
   <g id="line2d_5">
    <path d="M 154.701299 174.528 
L 97.101299 174.528 
" clip-path="url(#pc8753fc844)" style="fill: none; stroke: #0000ff; stroke-width: 0.1; stroke-linecap: square"/>
   </g>
   <g id="line2d_6">
    <path d="M 293.76 217.44929 
L 293.76 260.370581 
" clip-path="url(#pc8753fc844)" style="fill: none; stroke: #0000ff; stroke-width: 0.1; stroke-linecap: square"/>
   </g>
   <g id="line2d_7">
    <path d="M 236.16 174.528 
L 293.76 131.60671 
L 351.36 174.528 
L 293.76 217.44929 
L 236.16 174.528 
L 154.701299 174.528 
" clip-path="url(#pc8753fc844)" style="fill: none; stroke: #0000ff; stroke-width: 0.5; stroke-linecap: square"/>
   </g>
   <g id="text_1">
    <!-- A -->
    <g transform="translate(227.52 161.651613) scale(0.1 -0.1)">
     <defs>
      <path id="DejaVuSans-41" d="M 2188 4044 
L 1331 1722 
L 3047 1722 
L 2188 4044 
z
M 1831 4666 
L 2547 4666 
L 4325 0 
L 3669 0 
L 3244 1197 
L 1141 1197 
L 716 0 
L 50 0 
L 1831 4666 
z
" transform="scale(0.015625)"/>
     </defs>
     <use xlink:href="#DejaVuSans-41"/>
    </g>
   </g>
   <g id="text_2">
    <!-- (%) -->
    <g transform="translate(236.16 161.651613) scale(0.1 -0.1)">
     <defs>
      <path id="DejaVuSans-28" d="M 1984 4856 
Q 1566 4138 1362 3434 
Q 1159 2731 1159 2009 
Q 1159 1288 1364 580 
Q 1569 -128 1984 -844 
L 1484 -844 
Q 1016 -109 783 600 
Q 550 1309 550 2009 
Q 550 2706 781 3412 
Q 1013 4119 1484 4856 
L 1984 4856 
z
" transform="scale(0.015625)"/>
      <path id="DejaVuSans-25" d="M 4653 2053 
Q 4381 2053 4226 1822 
Q 4072 1591 4072 1178 
Q 4072 772 4226 539 
Q 4381 306 4653 306 
Q 4919 306 5073 539 
Q 5228 772 5228 1178 
Q 5228 1588 5073 1820 
Q 4919 2053 4653 2053 
z
M 4653 2450 
Q 5147 2450 5437 2106 
Q 5728 1763 5728 1178 
Q 5728 594 5436 251 
Q 5144 -91 4653 -91 
Q 4153 -91 3862 251 
Q 3572 594 3572 1178 
Q 3572 1766 3864 2108 
Q 4156 2450 4653 2450 
z
M 1428 4353 
Q 1159 4353 1004 4120 
Q 850 3888 850 3481 
Q 850 3069 1003 2837 
Q 1156 2606 1428 2606 
Q 1700 2606 1854 2837 
Q 2009 3069 2009 3481 
Q 2009 3884 1853 4118 
Q 1697 4353 1428 4353 
z
M 4250 4750 
L 4750 4750 
L 1831 -91 
L 1331 -91 
L 4250 4750 
z
M 1428 4750 
Q 1922 4750 2215 4408 
Q 2509 4066 2509 3481 
Q 2509 2891 2217 2550 
Q 1925 2209 1428 2209 
Q 931 2209 642 2551 
Q 353 2894 353 3481 
Q 353 4063 643 4406 
Q 934 4750 1428 4750 
z
" transform="scale(0.015625)"/>
      <path id="DejaVuSans-29" d="M 513 4856 
L 1013 4856 
Q 1481 4119 1714 3412 
Q 1947 2706 1947 2009 
Q 1947 1309 1714 600 
Q 1481 -109 1013 -844 
L 513 -844 
Q 928 -128 1133 580 
Q 1338 1288 1338 2009 
Q 1338 2731 1133 3434 
Q 928 4138 513 4856 
z
" transform="scale(0.015625)"/>
     </defs>
     <use xlink:href="#DejaVuSans-28"/>
     <use xlink:href="#DejaVuSans-25" x="39.013672"/>
     <use xlink:href="#DejaVuSans-29" x="134.033203"/>
    </g>
   </g>
   <g id="text_3">
    <!-- B -->
    <g transform="translate(285.12 118.730323) scale(0.1 -0.1)">
     <defs>
      <path id="DejaVuSans-42" d="M 1259 2228 
L 1259 519 
L 2272 519 
Q 2781 519 3026 730 
Q 3272 941 3272 1375 
Q 3272 1813 3026 2020 
Q 2781 2228 2272 2228 
L 1259 2228 
z
M 1259 4147 
L 1259 2741 
L 2194 2741 
Q 2656 2741 2882 2914 
Q 3109 3088 3109 3444 
Q 3109 3797 2882 3972 
Q 2656 4147 2194 4147 
L 1259 4147 
z
M 628 4666 
L 2241 4666 
Q 2963 4666 3353 4366 
Q 3744 4066 3744 3513 
Q 3744 3084 3544 2831 
Q 3344 2578 2956 2516 
Q 3422 2416 3680 2098 
Q 3938 1781 3938 1306 
Q 3938 681 3513 340 
Q 3088 0 2303 0 
L 628 0 
L 628 4666 
z
" transform="scale(0.015625)"/>
     </defs>
     <use xlink:href="#DejaVuSans-42"/>
    </g>
   </g>
   <g id="text_4">
    <!-- (%) -->
    <g transform="translate(293.76 118.730323) scale(0.1 -0.1)">
     <use xlink:href="#DejaVuSans-28"/>
     <use xlink:href="#DejaVuSans-25" x="39.013672"/>
     <use xlink:href="#DejaVuSans-29" x="134.033203"/>
    </g>
   </g>
   <g id="text_5">
    <!-- C -->
    <g transform="translate(342.72 161.651613) scale(0.1 -0.1)">
     <defs>
      <path id="DejaVuSans-43" d="M 4122 4306 
L 4122 3641 
Q 3803 3938 3442 4084 
Q 3081 4231 2675 4231 
Q 1875 4231 1450 3742 
Q 1025 3253 1025 2328 
Q 1025 1406 1450 917 
Q 1875 428 2675 428 
Q 3081 428 3442 575 
Q 3803 722 4122 1019 
L 4122 359 
Q 3791 134 3420 21 
Q 3050 -91 2638 -91 
Q 1578 -91 968 557 
Q 359 1206 359 2328 
Q 359 3453 968 4101 
Q 1578 4750 2638 4750 
Q 3056 4750 3426 4639 
Q 3797 4528 4122 4306 
z
" transform="scale(0.015625)"/>
     </defs>
     <use xlink:href="#DejaVuSans-43"/>
    </g>
   </g>
   <g id="text_6">
    <!-- (%) -->
    <g transform="translate(351.36 161.651613) scale(0.1 -0.1)">
     <use xlink:href="#DejaVuSans-28"/>
     <use xlink:href="#DejaVuSans-25" x="39.013672"/>
     <use xlink:href="#DejaVuSans-29" x="134.033203"/>
    </g>
   </g>
   <g id="text_7">
    <!-- X -->
    <g transform="translate(285.12 204.572903) scale(0.1 -0.1)">
     <defs>
      <path id="DejaVuSans-58" d="M 403 4666 
L 1081 4666 
L 2241 2931 
L 3406 4666 
L 4084 4666 
L 2584 2425 
L 4184 0 
L 3506 0 
L 2194 1984 
L 872 0 
L 191 0 
L 1856 2491 
L 403 4666 
z
" transform="scale(0.015625)"/>
     </defs>
     <use xlink:href="#DejaVuSans-58"/>
    </g>
   </g>
   <g id="text_8">
    <!-- (%) -->
    <g transform="translate(293.76 204.572903) scale(0.1 -0.1)">
     <use xlink:href="#DejaVuSans-28"/>
     <use xlink:href="#DejaVuSans-25" x="39.013672"/>
     <use xlink:href="#DejaVuSans-29" x="134.033203"/>
    </g>
   </g>
   <g id="text_9">
    <!-- D -->
    <g transform="translate(146.061299 161.651613) scale(0.1 -0.1)">
     <defs>
      <path id="DejaVuSans-44" d="M 1259 4147 
L 1259 519 
L 2022 519 
Q 2988 519 3436 956 
Q 3884 1394 3884 2338 
Q 3884 3275 3436 3711 
Q 2988 4147 2022 4147 
L 1259 4147 
z
M 628 4666 
L 1925 4666 
Q 3281 4666 3915 4102 
Q 4550 3538 4550 2338 
Q 4550 1131 3912 565 
Q 3275 0 1925 0 
L 628 0 
L 628 4666 
z
" transform="scale(0.015625)"/>
     </defs>
     <use xlink:href="#DejaVuSans-44"/>
    </g>
   </g>
   <g id="text_10">
    <!-- (%) -->
    <g transform="translate(154.701299 161.651613) scale(0.1 -0.1)">
     <use xlink:href="#DejaVuSans-28"/>
     <use xlink:href="#DejaVuSans-25" x="39.013672"/>
     <use xlink:href="#DejaVuSans-29" x="134.033203"/>
    </g>
   </g>
  </g>
 </g>
 <defs>
  <clipPath id="pc8753fc844">
   <rect x="57.6" y="41.472" width="357.12" height="266.112"/>
  </clipPath>
 </defs>
</svg>
