<?xml version="1.0" encoding="utf-8" standalone="no"?>
<!DOCTYPE svg PUBLIC "-//W3C//DTD SVG 1.1//EN"
  "http://www.w3.org/Graphics/SVG/1.1/DTD/svg11.dtd">
<svg xmlns:xlink="http://www.w3.org/1999/xlink" width="460.8pt" height="345.6pt" viewBox="0 0 460.8 345.6" xmlns="http://www.w3.org/2000/svg" version="1.1">
 <metadata>
  <rdf:RDF xmlns:dc="http://purl.org/dc/elements/1.1/" xmlns:cc="http://creativecommons.org/ns#" xmlns:rdf="http://www.w3.org/1999/02/22-rdf-syntax-ns#">
   <cc:Work>
    <dc:type rdf:resource="http://purl.org/dc/dcmitype/StillImage"/>
    <dc:date>2023-05-17T15:00:33.186962</dc:date>
    <dc:format>image/svg+xml</dc:format>
    <dc:creator>
     <cc:Agent>
      <dc:title>Matplotlib v3.5.1, https://matplotlib.org/</dc:title>
     </cc:Agent>
    </dc:creator>
   </cc:Work>
  </rdf:RDF>
 </metadata>
 <defs>
  <style type="text/css">*{stroke-linejoin: round; stroke-linecap: butt}</style>
 </defs>
 <g id="figure_1">
  <g id="patch_1">
   <path d="M 0 345.6 
L 460.8 345.6 
L 460.8 0 
L 0 0 
z
" style="fill: #ffffff"/>
  </g>
  <g id="axes_1">
   <g id="patch_2">
    <path d="M 63.83 303.64 
L 450 303.64 
L 450 10.8 
L 63.83 10.8 
z
" style="fill: #ffffff"/>
   </g>
   <g id="matplotlib.axis_1">
    <g id="xtick_1">
     <g id="line2d_1">
      <defs>
       <path id="m2dad083a8b" d="M 0 0 
L 0 3.5 
" style="stroke: #000000; stroke-width: 0.8"/>
      </defs>
      <g>
       <use xlink:href="#m2dad083a8b" x="75.432951" y="303.64" style="stroke: #000000; stroke-width: 0.8"/>
      </g>
     </g>
     <g id="text_1">
      <!-- 0 -->
      <g transform="translate(72.251701 318.238437)scale(0.1 -0.1)">
       <defs>
        <path id="DejaVuSans-30" d="M 2034 4250 
Q 1547 4250 1301 3770 
Q 1056 3291 1056 2328 
Q 1056 1369 1301 889 
Q 1547 409 2034 409 
Q 2525 409 2770 889 
Q 3016 1369 3016 2328 
Q 3016 3291 2770 3770 
Q 2525 4250 2034 4250 
z
M 2034 4750 
Q 2819 4750 3233 4129 
Q 3647 3509 3647 2328 
Q 3647 1150 3233 529 
Q 2819 -91 2034 -91 
Q 1250 -91 836 529 
Q 422 1150 422 2328 
Q 422 3509 836 4129 
Q 1250 4750 2034 4750 
z
" transform="scale(0.015625)"/>
       </defs>
       <use xlink:href="#DejaVuSans-30"/>
      </g>
     </g>
    </g>
    <g id="xtick_2">
     <g id="line2d_2">
      <g>
       <use xlink:href="#m2dad083a8b" x="134.935262" y="303.64" style="stroke: #000000; stroke-width: 0.8"/>
      </g>
     </g>
     <g id="text_2">
      <!-- 10 -->
      <g transform="translate(128.572762 318.238437)scale(0.1 -0.1)">
       <defs>
        <path id="DejaVuSans-31" d="M 794 531 
L 1825 531 
L 1825 4091 
L 703 3866 
L 703 4441 
L 1819 4666 
L 2450 4666 
L 2450 531 
L 3481 531 
L 3481 0 
L 794 0 
L 794 531 
z
" transform="scale(0.015625)"/>
       </defs>
       <use xlink:href="#DejaVuSans-31"/>
       <use xlink:href="#DejaVuSans-30" x="63.623047"/>
      </g>
     </g>
    </g>
    <g id="xtick_3">
     <g id="line2d_3">
      <g>
       <use xlink:href="#m2dad083a8b" x="194.437573" y="303.64" style="stroke: #000000; stroke-width: 0.8"/>
      </g>
     </g>
     <g id="text_3">
      <!-- 20 -->
      <g transform="translate(188.075073 318.238437)scale(0.1 -0.1)">
       <defs>
        <path id="DejaVuSans-32" d="M 1228 531 
L 3431 531 
L 3431 0 
L 469 0 
L 469 531 
Q 828 903 1448 1529 
Q 2069 2156 2228 2338 
Q 2531 2678 2651 2914 
Q 2772 3150 2772 3378 
Q 2772 3750 2511 3984 
Q 2250 4219 1831 4219 
Q 1534 4219 1204 4116 
Q 875 4013 500 3803 
L 500 4441 
Q 881 4594 1212 4672 
Q 1544 4750 1819 4750 
Q 2544 4750 2975 4387 
Q 3406 4025 3406 3419 
Q 3406 3131 3298 2873 
Q 3191 2616 2906 2266 
Q 2828 2175 2409 1742 
Q 1991 1309 1228 531 
z
" transform="scale(0.015625)"/>
       </defs>
       <use xlink:href="#DejaVuSans-32"/>
       <use xlink:href="#DejaVuSans-30" x="63.623047"/>
      </g>
     </g>
    </g>
    <g id="xtick_4">
     <g id="line2d_4">
      <g>
       <use xlink:href="#m2dad083a8b" x="253.939884" y="303.64" style="stroke: #000000; stroke-width: 0.8"/>
      </g>
     </g>
     <g id="text_4">
      <!-- 30 -->
      <g transform="translate(247.577384 318.238437)scale(0.1 -0.1)">
       <defs>
        <path id="DejaVuSans-33" d="M 2597 2516 
Q 3050 2419 3304 2112 
Q 3559 1806 3559 1356 
Q 3559 666 3084 287 
Q 2609 -91 1734 -91 
Q 1441 -91 1130 -33 
Q 819 25 488 141 
L 488 750 
Q 750 597 1062 519 
Q 1375 441 1716 441 
Q 2309 441 2620 675 
Q 2931 909 2931 1356 
Q 2931 1769 2642 2001 
Q 2353 2234 1838 2234 
L 1294 2234 
L 1294 2753 
L 1863 2753 
Q 2328 2753 2575 2939 
Q 2822 3125 2822 3475 
Q 2822 3834 2567 4026 
Q 2313 4219 1838 4219 
Q 1578 4219 1281 4162 
Q 984 4106 628 3988 
L 628 4550 
Q 988 4650 1302 4700 
Q 1616 4750 1894 4750 
Q 2613 4750 3031 4423 
Q 3450 4097 3450 3541 
Q 3450 3153 3228 2886 
Q 3006 2619 2597 2516 
z
" transform="scale(0.015625)"/>
       </defs>
       <use xlink:href="#DejaVuSans-33"/>
       <use xlink:href="#DejaVuSans-30" x="63.623047"/>
      </g>
     </g>
    </g>
    <g id="xtick_5">
     <g id="line2d_5">
      <g>
       <use xlink:href="#m2dad083a8b" x="313.442196" y="303.64" style="stroke: #000000; stroke-width: 0.8"/>
      </g>
     </g>
     <g id="text_5">
      <!-- 40 -->
      <g transform="translate(307.079696 318.238437)scale(0.1 -0.1)">
       <defs>
        <path id="DejaVuSans-34" d="M 2419 4116 
L 825 1625 
L 2419 1625 
L 2419 4116 
z
M 2253 4666 
L 3047 4666 
L 3047 1625 
L 3713 1625 
L 3713 1100 
L 3047 1100 
L 3047 0 
L 2419 0 
L 2419 1100 
L 313 1100 
L 313 1709 
L 2253 4666 
z
" transform="scale(0.015625)"/>
       </defs>
       <use xlink:href="#DejaVuSans-34"/>
       <use xlink:href="#DejaVuSans-30" x="63.623047"/>
      </g>
     </g>
    </g>
    <g id="xtick_6">
     <g id="line2d_6">
      <g>
       <use xlink:href="#m2dad083a8b" x="372.944507" y="303.64" style="stroke: #000000; stroke-width: 0.8"/>
      </g>
     </g>
     <g id="text_6">
      <!-- 50 -->
      <g transform="translate(366.582007 318.238437)scale(0.1 -0.1)">
       <defs>
        <path id="DejaVuSans-35" d="M 691 4666 
L 3169 4666 
L 3169 4134 
L 1269 4134 
L 1269 2991 
Q 1406 3038 1543 3061 
Q 1681 3084 1819 3084 
Q 2600 3084 3056 2656 
Q 3513 2228 3513 1497 
Q 3513 744 3044 326 
Q 2575 -91 1722 -91 
Q 1428 -91 1123 -41 
Q 819 9 494 109 
L 494 744 
Q 775 591 1075 516 
Q 1375 441 1709 441 
Q 2250 441 2565 725 
Q 2881 1009 2881 1497 
Q 2881 1984 2565 2268 
Q 2250 2553 1709 2553 
Q 1456 2553 1204 2497 
Q 953 2441 691 2322 
L 691 4666 
z
" transform="scale(0.015625)"/>
       </defs>
       <use xlink:href="#DejaVuSans-35"/>
       <use xlink:href="#DejaVuSans-30" x="63.623047"/>
      </g>
     </g>
    </g>
    <g id="xtick_7">
     <g id="line2d_7">
      <g>
       <use xlink:href="#m2dad083a8b" x="432.446818" y="303.64" style="stroke: #000000; stroke-width: 0.8"/>
      </g>
     </g>
     <g id="text_7">
      <!-- 60 -->
      <g transform="translate(426.084318 318.238437)scale(0.1 -0.1)">
       <defs>
        <path id="DejaVuSans-36" d="M 2113 2584 
Q 1688 2584 1439 2293 
Q 1191 2003 1191 1497 
Q 1191 994 1439 701 
Q 1688 409 2113 409 
Q 2538 409 2786 701 
Q 3034 994 3034 1497 
Q 3034 2003 2786 2293 
Q 2538 2584 2113 2584 
z
M 3366 4563 
L 3366 3988 
Q 3128 4100 2886 4159 
Q 2644 4219 2406 4219 
Q 1781 4219 1451 3797 
Q 1122 3375 1075 2522 
Q 1259 2794 1537 2939 
Q 1816 3084 2150 3084 
Q 2853 3084 3261 2657 
Q 3669 2231 3669 1497 
Q 3669 778 3244 343 
Q 2819 -91 2113 -91 
Q 1303 -91 875 529 
Q 447 1150 447 2328 
Q 447 3434 972 4092 
Q 1497 4750 2381 4750 
Q 2619 4750 2861 4703 
Q 3103 4656 3366 4563 
z
" transform="scale(0.015625)"/>
       </defs>
       <use xlink:href="#DejaVuSans-36"/>
       <use xlink:href="#DejaVuSans-30" x="63.623047"/>
      </g>
     </g>
    </g>
    <g id="text_8">
     <!-- step -->
     <g transform="translate(246.099375 331.916562)scale(0.1 -0.1)">
      <defs>
       <path id="DejaVuSans-73" d="M 2834 3397 
L 2834 2853 
Q 2591 2978 2328 3040 
Q 2066 3103 1784 3103 
Q 1356 3103 1142 2972 
Q 928 2841 928 2578 
Q 928 2378 1081 2264 
Q 1234 2150 1697 2047 
L 1894 2003 
Q 2506 1872 2764 1633 
Q 3022 1394 3022 966 
Q 3022 478 2636 193 
Q 2250 -91 1575 -91 
Q 1294 -91 989 -36 
Q 684 19 347 128 
L 347 722 
Q 666 556 975 473 
Q 1284 391 1588 391 
Q 1994 391 2212 530 
Q 2431 669 2431 922 
Q 2431 1156 2273 1281 
Q 2116 1406 1581 1522 
L 1381 1569 
Q 847 1681 609 1914 
Q 372 2147 372 2553 
Q 372 3047 722 3315 
Q 1072 3584 1716 3584 
Q 2034 3584 2315 3537 
Q 2597 3491 2834 3397 
z
" transform="scale(0.015625)"/>
       <path id="DejaVuSans-74" d="M 1172 4494 
L 1172 3500 
L 2356 3500 
L 2356 3053 
L 1172 3053 
L 1172 1153 
Q 1172 725 1289 603 
Q 1406 481 1766 481 
L 2356 481 
L 2356 0 
L 1766 0 
Q 1100 0 847 248 
Q 594 497 594 1153 
L 594 3053 
L 172 3053 
L 172 3500 
L 594 3500 
L 594 4494 
L 1172 4494 
z
" transform="scale(0.015625)"/>
       <path id="DejaVuSans-65" d="M 3597 1894 
L 3597 1613 
L 953 1613 
Q 991 1019 1311 708 
Q 1631 397 2203 397 
Q 2534 397 2845 478 
Q 3156 559 3463 722 
L 3463 178 
Q 3153 47 2828 -22 
Q 2503 -91 2169 -91 
Q 1331 -91 842 396 
Q 353 884 353 1716 
Q 353 2575 817 3079 
Q 1281 3584 2069 3584 
Q 2775 3584 3186 3129 
Q 3597 2675 3597 1894 
z
M 3022 2063 
Q 3016 2534 2758 2815 
Q 2500 3097 2075 3097 
Q 1594 3097 1305 2825 
Q 1016 2553 972 2059 
L 3022 2063 
z
" transform="scale(0.015625)"/>
       <path id="DejaVuSans-70" d="M 1159 525 
L 1159 -1331 
L 581 -1331 
L 581 3500 
L 1159 3500 
L 1159 2969 
Q 1341 3281 1617 3432 
Q 1894 3584 2278 3584 
Q 2916 3584 3314 3078 
Q 3713 2572 3713 1747 
Q 3713 922 3314 415 
Q 2916 -91 2278 -91 
Q 1894 -91 1617 61 
Q 1341 213 1159 525 
z
M 3116 1747 
Q 3116 2381 2855 2742 
Q 2594 3103 2138 3103 
Q 1681 3103 1420 2742 
Q 1159 2381 1159 1747 
Q 1159 1113 1420 752 
Q 1681 391 2138 391 
Q 2594 391 2855 752 
Q 3116 1113 3116 1747 
z
" transform="scale(0.015625)"/>
      </defs>
      <use xlink:href="#DejaVuSans-73"/>
      <use xlink:href="#DejaVuSans-74" x="52.099609"/>
      <use xlink:href="#DejaVuSans-65" x="91.308594"/>
      <use xlink:href="#DejaVuSans-70" x="152.832031"/>
     </g>
    </g>
   </g>
   <g id="matplotlib.axis_2">
    <g id="ytick_1">
     <g id="line2d_8">
      <defs>
       <path id="m46d7e72d65" d="M 0 0 
L -3.5 0 
" style="stroke: #000000; stroke-width: 0.8"/>
      </defs>
      <g>
       <use xlink:href="#m46d7e72d65" x="63.83" y="282.135935" style="stroke: #000000; stroke-width: 0.8"/>
      </g>
     </g>
     <g id="text_9">
      <!-- 10000 -->
      <g transform="translate(25.0175 285.935154)scale(0.1 -0.1)">
       <use xlink:href="#DejaVuSans-31"/>
       <use xlink:href="#DejaVuSans-30" x="63.623047"/>
       <use xlink:href="#DejaVuSans-30" x="127.246094"/>
       <use xlink:href="#DejaVuSans-30" x="190.869141"/>
       <use xlink:href="#DejaVuSans-30" x="254.492188"/>
      </g>
     </g>
    </g>
    <g id="ytick_2">
     <g id="line2d_9">
      <g>
       <use xlink:href="#m46d7e72d65" x="63.83" y="232.660359" style="stroke: #000000; stroke-width: 0.8"/>
      </g>
     </g>
     <g id="text_10">
      <!-- 20000 -->
      <g transform="translate(25.0175 236.459578)scale(0.1 -0.1)">
       <use xlink:href="#DejaVuSans-32"/>
       <use xlink:href="#DejaVuSans-30" x="63.623047"/>
       <use xlink:href="#DejaVuSans-30" x="127.246094"/>
       <use xlink:href="#DejaVuSans-30" x="190.869141"/>
       <use xlink:href="#DejaVuSans-30" x="254.492188"/>
      </g>
     </g>
    </g>
    <g id="ytick_3">
     <g id="line2d_10">
      <g>
       <use xlink:href="#m46d7e72d65" x="63.83" y="183.184783" style="stroke: #000000; stroke-width: 0.8"/>
      </g>
     </g>
     <g id="text_11">
      <!-- 30000 -->
      <g transform="translate(25.0175 186.984001)scale(0.1 -0.1)">
       <use xlink:href="#DejaVuSans-33"/>
       <use xlink:href="#DejaVuSans-30" x="63.623047"/>
       <use xlink:href="#DejaVuSans-30" x="127.246094"/>
       <use xlink:href="#DejaVuSans-30" x="190.869141"/>
       <use xlink:href="#DejaVuSans-30" x="254.492188"/>
      </g>
     </g>
    </g>
    <g id="ytick_4">
     <g id="line2d_11">
      <g>
       <use xlink:href="#m46d7e72d65" x="63.83" y="133.709206" style="stroke: #000000; stroke-width: 0.8"/>
      </g>
     </g>
     <g id="text_12">
      <!-- 40000 -->
      <g transform="translate(25.0175 137.508425)scale(0.1 -0.1)">
       <use xlink:href="#DejaVuSans-34"/>
       <use xlink:href="#DejaVuSans-30" x="63.623047"/>
       <use xlink:href="#DejaVuSans-30" x="127.246094"/>
       <use xlink:href="#DejaVuSans-30" x="190.869141"/>
       <use xlink:href="#DejaVuSans-30" x="254.492188"/>
      </g>
     </g>
    </g>
    <g id="ytick_5">
     <g id="line2d_12">
      <g>
       <use xlink:href="#m46d7e72d65" x="63.83" y="84.23363" style="stroke: #000000; stroke-width: 0.8"/>
      </g>
     </g>
     <g id="text_13">
      <!-- 50000 -->
      <g transform="translate(25.0175 88.032848)scale(0.1 -0.1)">
       <use xlink:href="#DejaVuSans-35"/>
       <use xlink:href="#DejaVuSans-30" x="63.623047"/>
       <use xlink:href="#DejaVuSans-30" x="127.246094"/>
       <use xlink:href="#DejaVuSans-30" x="190.869141"/>
       <use xlink:href="#DejaVuSans-30" x="254.492188"/>
      </g>
     </g>
    </g>
    <g id="ytick_6">
     <g id="line2d_13">
      <g>
       <use xlink:href="#m46d7e72d65" x="63.83" y="34.758053" style="stroke: #000000; stroke-width: 0.8"/>
      </g>
     </g>
     <g id="text_14">
      <!-- 60000 -->
      <g transform="translate(25.0175 38.557272)scale(0.1 -0.1)">
       <use xlink:href="#DejaVuSans-36"/>
       <use xlink:href="#DejaVuSans-30" x="63.623047"/>
       <use xlink:href="#DejaVuSans-30" x="127.246094"/>
       <use xlink:href="#DejaVuSans-30" x="190.869141"/>
       <use xlink:href="#DejaVuSans-30" x="254.492188"/>
      </g>
     </g>
    </g>
    <g id="text_15">
     <!-- total of haplotypes -->
     <g transform="translate(18.937813 204.280937)rotate(-90)scale(0.1 -0.1)">
      <defs>
       <path id="DejaVuSans-6f" d="M 1959 3097 
Q 1497 3097 1228 2736 
Q 959 2375 959 1747 
Q 959 1119 1226 758 
Q 1494 397 1959 397 
Q 2419 397 2687 759 
Q 2956 1122 2956 1747 
Q 2956 2369 2687 2733 
Q 2419 3097 1959 3097 
z
M 1959 3584 
Q 2709 3584 3137 3096 
Q 3566 2609 3566 1747 
Q 3566 888 3137 398 
Q 2709 -91 1959 -91 
Q 1206 -91 779 398 
Q 353 888 353 1747 
Q 353 2609 779 3096 
Q 1206 3584 1959 3584 
z
" transform="scale(0.015625)"/>
       <path id="DejaVuSans-61" d="M 2194 1759 
Q 1497 1759 1228 1600 
Q 959 1441 959 1056 
Q 959 750 1161 570 
Q 1363 391 1709 391 
Q 2188 391 2477 730 
Q 2766 1069 2766 1631 
L 2766 1759 
L 2194 1759 
z
M 3341 1997 
L 3341 0 
L 2766 0 
L 2766 531 
Q 2569 213 2275 61 
Q 1981 -91 1556 -91 
Q 1019 -91 701 211 
Q 384 513 384 1019 
Q 384 1609 779 1909 
Q 1175 2209 1959 2209 
L 2766 2209 
L 2766 2266 
Q 2766 2663 2505 2880 
Q 2244 3097 1772 3097 
Q 1472 3097 1187 3025 
Q 903 2953 641 2809 
L 641 3341 
Q 956 3463 1253 3523 
Q 1550 3584 1831 3584 
Q 2591 3584 2966 3190 
Q 3341 2797 3341 1997 
z
" transform="scale(0.015625)"/>
       <path id="DejaVuSans-6c" d="M 603 4863 
L 1178 4863 
L 1178 0 
L 603 0 
L 603 4863 
z
" transform="scale(0.015625)"/>
       <path id="DejaVuSans-20" transform="scale(0.015625)"/>
       <path id="DejaVuSans-66" d="M 2375 4863 
L 2375 4384 
L 1825 4384 
Q 1516 4384 1395 4259 
Q 1275 4134 1275 3809 
L 1275 3500 
L 2222 3500 
L 2222 3053 
L 1275 3053 
L 1275 0 
L 697 0 
L 697 3053 
L 147 3053 
L 147 3500 
L 697 3500 
L 697 3744 
Q 697 4328 969 4595 
Q 1241 4863 1831 4863 
L 2375 4863 
z
" transform="scale(0.015625)"/>
       <path id="DejaVuSans-68" d="M 3513 2113 
L 3513 0 
L 2938 0 
L 2938 2094 
Q 2938 2591 2744 2837 
Q 2550 3084 2163 3084 
Q 1697 3084 1428 2787 
Q 1159 2491 1159 1978 
L 1159 0 
L 581 0 
L 581 4863 
L 1159 4863 
L 1159 2956 
Q 1366 3272 1645 3428 
Q 1925 3584 2291 3584 
Q 2894 3584 3203 3211 
Q 3513 2838 3513 2113 
z
" transform="scale(0.015625)"/>
       <path id="DejaVuSans-79" d="M 2059 -325 
Q 1816 -950 1584 -1140 
Q 1353 -1331 966 -1331 
L 506 -1331 
L 506 -850 
L 844 -850 
Q 1081 -850 1212 -737 
Q 1344 -625 1503 -206 
L 1606 56 
L 191 3500 
L 800 3500 
L 1894 763 
L 2988 3500 
L 3597 3500 
L 2059 -325 
z
" transform="scale(0.015625)"/>
      </defs>
      <use xlink:href="#DejaVuSans-74"/>
      <use xlink:href="#DejaVuSans-6f" x="39.208984"/>
      <use xlink:href="#DejaVuSans-74" x="100.390625"/>
      <use xlink:href="#DejaVuSans-61" x="139.599609"/>
      <use xlink:href="#DejaVuSans-6c" x="200.878906"/>
      <use xlink:href="#DejaVuSans-20" x="228.662109"/>
      <use xlink:href="#DejaVuSans-6f" x="260.449219"/>
      <use xlink:href="#DejaVuSans-66" x="321.630859"/>
      <use xlink:href="#DejaVuSans-20" x="356.835938"/>
      <use xlink:href="#DejaVuSans-68" x="388.623047"/>
      <use xlink:href="#DejaVuSans-61" x="452.001953"/>
      <use xlink:href="#DejaVuSans-70" x="513.28125"/>
      <use xlink:href="#DejaVuSans-6c" x="576.757812"/>
      <use xlink:href="#DejaVuSans-6f" x="604.541016"/>
      <use xlink:href="#DejaVuSans-74" x="665.722656"/>
      <use xlink:href="#DejaVuSans-79" x="704.931641"/>
      <use xlink:href="#DejaVuSans-70" x="764.111328"/>
      <use xlink:href="#DejaVuSans-65" x="827.587891"/>
      <use xlink:href="#DejaVuSans-73" x="889.111328"/>
     </g>
    </g>
   </g>
   <g id="line2d_14">
    <path d="M 87.333413 118.159032 
L 99.233875 290.329091 
L 111.134337 152.826569 
L 123.0348 109.634391 
L 134.935262 280.013433 
L 146.835724 135.040099 
L 158.736186 74.442413 
L 170.636649 135.297372 
L 182.537111 120.039104 
L 194.437573 75.412134 
L 206.338035 74.516626 
L 212.288267 69.64823 
L 224.188729 56.487726 
L 230.13896 154.800644 
L 242.039422 148.012595 
L 253.939884 103.840801 
L 265.840347 105.656554 
L 277.740809 116.135481 
L 289.641271 117.283315 
L 301.541733 141.798463 
L 313.442196 125.694163 
L 325.342658 48.096669 
L 337.24312 112.97894 
L 349.143582 134.080273 
L 361.044045 106.858811 
L 372.944507 70.78122 
L 384.844969 63.636947 
L 396.745431 54.869875 
L 408.645894 107.42778 
L 420.546356 121.048406 
L 432.446818 269.663143 
" clip-path="url(#p3ce265b895)" style="fill: none; stroke: #0000ff; stroke-width: 1.5; stroke-linecap: square"/>
    <defs>
     <path id="m4c2459180c" d="M 0 3 
C 0.795609 3 1.55874 2.683901 2.12132 2.12132 
C 2.683901 1.55874 3 0.795609 3 0 
C 3 -0.795609 2.683901 -1.55874 2.12132 -2.12132 
C 1.55874 -2.683901 0.795609 -3 0 -3 
C -0.795609 -3 -1.55874 -2.683901 -2.12132 -2.12132 
C -2.683901 -1.55874 -3 -0.795609 -3 0 
C -3 0.795609 -2.683901 1.55874 -2.12132 2.12132 
C -1.55874 2.683901 -0.795609 3 0 3 
z
" style="stroke: #0000ff"/>
    </defs>
    <g clip-path="url(#p3ce265b895)">
     <use xlink:href="#m4c2459180c" x="87.333413" y="118.159032" style="fill: #0000ff; stroke: #0000ff"/>
     <use xlink:href="#m4c2459180c" x="99.233875" y="290.329091" style="fill: #0000ff; stroke: #0000ff"/>
     <use xlink:href="#m4c2459180c" x="111.134337" y="152.826569" style="fill: #0000ff; stroke: #0000ff"/>
     <use xlink:href="#m4c2459180c" x="123.0348" y="109.634391" style="fill: #0000ff; stroke: #0000ff"/>
     <use xlink:href="#m4c2459180c" x="134.935262" y="280.013433" style="fill: #0000ff; stroke: #0000ff"/>
     <use xlink:href="#m4c2459180c" x="146.835724" y="135.040099" style="fill: #0000ff; stroke: #0000ff"/>
     <use xlink:href="#m4c2459180c" x="158.736186" y="74.442413" style="fill: #0000ff; stroke: #0000ff"/>
     <use xlink:href="#m4c2459180c" x="170.636649" y="135.297372" style="fill: #0000ff; stroke: #0000ff"/>
     <use xlink:href="#m4c2459180c" x="182.537111" y="120.039104" style="fill: #0000ff; stroke: #0000ff"/>
     <use xlink:href="#m4c2459180c" x="194.437573" y="75.412134" style="fill: #0000ff; stroke: #0000ff"/>
     <use xlink:href="#m4c2459180c" x="206.338035" y="74.516626" style="fill: #0000ff; stroke: #0000ff"/>
     <use xlink:href="#m4c2459180c" x="212.288267" y="69.64823" style="fill: #0000ff; stroke: #0000ff"/>
     <use xlink:href="#m4c2459180c" x="224.188729" y="56.487726" style="fill: #0000ff; stroke: #0000ff"/>
     <use xlink:href="#m4c2459180c" x="230.13896" y="154.800644" style="fill: #0000ff; stroke: #0000ff"/>
     <use xlink:href="#m4c2459180c" x="242.039422" y="148.012595" style="fill: #0000ff; stroke: #0000ff"/>
     <use xlink:href="#m4c2459180c" x="253.939884" y="103.840801" style="fill: #0000ff; stroke: #0000ff"/>
     <use xlink:href="#m4c2459180c" x="265.840347" y="105.656554" style="fill: #0000ff; stroke: #0000ff"/>
     <use xlink:href="#m4c2459180c" x="277.740809" y="116.135481" style="fill: #0000ff; stroke: #0000ff"/>
     <use xlink:href="#m4c2459180c" x="289.641271" y="117.283315" style="fill: #0000ff; stroke: #0000ff"/>
     <use xlink:href="#m4c2459180c" x="301.541733" y="141.798463" style="fill: #0000ff; stroke: #0000ff"/>
     <use xlink:href="#m4c2459180c" x="313.442196" y="125.694163" style="fill: #0000ff; stroke: #0000ff"/>
     <use xlink:href="#m4c2459180c" x="325.342658" y="48.096669" style="fill: #0000ff; stroke: #0000ff"/>
     <use xlink:href="#m4c2459180c" x="337.24312" y="112.97894" style="fill: #0000ff; stroke: #0000ff"/>
     <use xlink:href="#m4c2459180c" x="349.143582" y="134.080273" style="fill: #0000ff; stroke: #0000ff"/>
     <use xlink:href="#m4c2459180c" x="361.044045" y="106.858811" style="fill: #0000ff; stroke: #0000ff"/>
     <use xlink:href="#m4c2459180c" x="372.944507" y="70.78122" style="fill: #0000ff; stroke: #0000ff"/>
     <use xlink:href="#m4c2459180c" x="384.844969" y="63.636947" style="fill: #0000ff; stroke: #0000ff"/>
     <use xlink:href="#m4c2459180c" x="396.745431" y="54.869875" style="fill: #0000ff; stroke: #0000ff"/>
     <use xlink:href="#m4c2459180c" x="408.645894" y="107.42778" style="fill: #0000ff; stroke: #0000ff"/>
     <use xlink:href="#m4c2459180c" x="420.546356" y="121.048406" style="fill: #0000ff; stroke: #0000ff"/>
     <use xlink:href="#m4c2459180c" x="432.446818" y="269.663143" style="fill: #0000ff; stroke: #0000ff"/>
    </g>
   </g>
   <g id="line2d_15">
    <path d="M 81.383182 284.312861 
L 87.333413 152.737513 
L 99.233875 168.698334 
L 111.134337 152.638562 
L 123.0348 24.110909 
L 134.935262 271.464054 
L 146.835724 64.972788 
L 158.736186 177.089392 
L 170.636649 143.683482 
L 182.537111 138.513285 
L 194.437573 93.04523 
L 206.338035 128.405424 
L 212.288267 100.347825 
L 230.13896 143.742853 
L 242.039422 140.457675 
L 253.939884 77.094304 
L 265.840347 123.250069 
L 277.740809 75.229075 
L 289.641271 57.976941 
L 301.541733 72.26054 
L 313.442196 43.441017 
L 325.342658 72.611817 
L 337.24312 55.26568 
L 349.143582 72.329806 
L 361.044045 105.587288 
L 372.944507 88.834858 
L 384.844969 28.05906 
L 396.745431 68.445973 
L 408.645894 76.584705 
L 420.546356 151.327459 
L 432.446818 249.462265 
" clip-path="url(#p3ce265b895)" style="fill: none; stroke: #ff0000; stroke-width: 1.5; stroke-linecap: square"/>
    <defs>
     <path id="m8320575b43" d="M 0 3 
C 0.795609 3 1.55874 2.683901 2.12132 2.12132 
C 2.683901 1.55874 3 0.795609 3 0 
C 3 -0.795609 2.683901 -1.55874 2.12132 -2.12132 
C 1.55874 -2.683901 0.795609 -3 0 -3 
C -0.795609 -3 -1.55874 -2.683901 -2.12132 -2.12132 
C -2.683901 -1.55874 -3 -0.795609 -3 0 
C -3 0.795609 -2.683901 1.55874 -2.12132 2.12132 
C -1.55874 2.683901 -0.795609 3 0 3 
z
" style="stroke: #ff0000"/>
    </defs>
    <g clip-path="url(#p3ce265b895)">
     <use xlink:href="#m8320575b43" x="81.383182" y="284.312861" style="fill: #ff0000; stroke: #ff0000"/>
     <use xlink:href="#m8320575b43" x="87.333413" y="152.737513" style="fill: #ff0000; stroke: #ff0000"/>
     <use xlink:href="#m8320575b43" x="99.233875" y="168.698334" style="fill: #ff0000; stroke: #ff0000"/>
     <use xlink:href="#m8320575b43" x="111.134337" y="152.638562" style="fill: #ff0000; stroke: #ff0000"/>
     <use xlink:href="#m8320575b43" x="123.0348" y="24.110909" style="fill: #ff0000; stroke: #ff0000"/>
     <use xlink:href="#m8320575b43" x="134.935262" y="271.464054" style="fill: #ff0000; stroke: #ff0000"/>
     <use xlink:href="#m8320575b43" x="146.835724" y="64.972788" style="fill: #ff0000; stroke: #ff0000"/>
     <use xlink:href="#m8320575b43" x="158.736186" y="177.089392" style="fill: #ff0000; stroke: #ff0000"/>
     <use xlink:href="#m8320575b43" x="170.636649" y="143.683482" style="fill: #ff0000; stroke: #ff0000"/>
     <use xlink:href="#m8320575b43" x="182.537111" y="138.513285" style="fill: #ff0000; stroke: #ff0000"/>
     <use xlink:href="#m8320575b43" x="194.437573" y="93.04523" style="fill: #ff0000; stroke: #ff0000"/>
     <use xlink:href="#m8320575b43" x="206.338035" y="128.405424" style="fill: #ff0000; stroke: #ff0000"/>
     <use xlink:href="#m8320575b43" x="212.288267" y="100.347825" style="fill: #ff0000; stroke: #ff0000"/>
     <use xlink:href="#m8320575b43" x="230.13896" y="143.742853" style="fill: #ff0000; stroke: #ff0000"/>
     <use xlink:href="#m8320575b43" x="242.039422" y="140.457675" style="fill: #ff0000; stroke: #ff0000"/>
     <use xlink:href="#m8320575b43" x="253.939884" y="77.094304" style="fill: #ff0000; stroke: #ff0000"/>
     <use xlink:href="#m8320575b43" x="265.840347" y="123.250069" style="fill: #ff0000; stroke: #ff0000"/>
     <use xlink:href="#m8320575b43" x="277.740809" y="75.229075" style="fill: #ff0000; stroke: #ff0000"/>
     <use xlink:href="#m8320575b43" x="289.641271" y="57.976941" style="fill: #ff0000; stroke: #ff0000"/>
     <use xlink:href="#m8320575b43" x="301.541733" y="72.26054" style="fill: #ff0000; stroke: #ff0000"/>
     <use xlink:href="#m8320575b43" x="313.442196" y="43.441017" style="fill: #ff0000; stroke: #ff0000"/>
     <use xlink:href="#m8320575b43" x="325.342658" y="72.611817" style="fill: #ff0000; stroke: #ff0000"/>
     <use xlink:href="#m8320575b43" x="337.24312" y="55.26568" style="fill: #ff0000; stroke: #ff0000"/>
     <use xlink:href="#m8320575b43" x="349.143582" y="72.329806" style="fill: #ff0000; stroke: #ff0000"/>
     <use xlink:href="#m8320575b43" x="361.044045" y="105.587288" style="fill: #ff0000; stroke: #ff0000"/>
     <use xlink:href="#m8320575b43" x="372.944507" y="88.834858" style="fill: #ff0000; stroke: #ff0000"/>
     <use xlink:href="#m8320575b43" x="384.844969" y="28.05906" style="fill: #ff0000; stroke: #ff0000"/>
     <use xlink:href="#m8320575b43" x="396.745431" y="68.445973" style="fill: #ff0000; stroke: #ff0000"/>
     <use xlink:href="#m8320575b43" x="408.645894" y="76.584705" style="fill: #ff0000; stroke: #ff0000"/>
     <use xlink:href="#m8320575b43" x="420.546356" y="151.327459" style="fill: #ff0000; stroke: #ff0000"/>
     <use xlink:href="#m8320575b43" x="432.446818" y="249.462265" style="fill: #ff0000; stroke: #ff0000"/>
    </g>
   </g>
   <g id="patch_3">
    <path d="M 63.83 303.64 
L 63.83 10.8 
" style="fill: none; stroke: #000000; stroke-width: 0.8; stroke-linejoin: miter; stroke-linecap: square"/>
   </g>
   <g id="patch_4">
    <path d="M 450 303.64 
L 450 10.8 
" style="fill: none; stroke: #000000; stroke-width: 0.8; stroke-linejoin: miter; stroke-linecap: square"/>
   </g>
   <g id="patch_5">
    <path d="M 63.83 303.64 
L 450 303.64 
" style="fill: none; stroke: #000000; stroke-width: 0.8; stroke-linejoin: miter; stroke-linecap: square"/>
   </g>
   <g id="patch_6">
    <path d="M 63.83 10.8 
L 450 10.8 
" style="fill: none; stroke: #000000; stroke-width: 0.8; stroke-linejoin: miter; stroke-linecap: square"/>
   </g>
   <g id="legend_1">
    <g id="patch_7">
     <path d="M 228.4025 298.64 
L 285.4275 298.64 
Q 287.4275 298.64 287.4275 296.64 
L 287.4275 268.28375 
Q 287.4275 266.28375 285.4275 266.28375 
L 228.4025 266.28375 
Q 226.4025 266.28375 226.4025 268.28375 
L 226.4025 296.64 
Q 226.4025 298.64 228.4025 298.64 
z
" style="fill: #ffffff; opacity: 0.8; stroke: #cccccc; stroke-linejoin: miter"/>
    </g>
    <g id="line2d_16">
     <path d="M 230.4025 274.382187 
L 240.4025 274.382187 
L 250.4025 274.382187 
" style="fill: none; stroke: #0000ff; stroke-width: 1.5; stroke-linecap: square"/>
     <g>
      <use xlink:href="#m4c2459180c" x="240.4025" y="274.382187" style="fill: #0000ff; stroke: #0000ff"/>
     </g>
    </g>
    <g id="text_16">
     <!-- t=30 -->
     <g transform="translate(258.4025 277.882187)scale(0.1 -0.1)">
      <defs>
       <path id="DejaVuSans-3d" d="M 678 2906 
L 4684 2906 
L 4684 2381 
L 678 2381 
L 678 2906 
z
M 678 1631 
L 4684 1631 
L 4684 1100 
L 678 1100 
L 678 1631 
z
" transform="scale(0.015625)"/>
      </defs>
      <use xlink:href="#DejaVuSans-74"/>
      <use xlink:href="#DejaVuSans-3d" x="39.208984"/>
      <use xlink:href="#DejaVuSans-33" x="122.998047"/>
      <use xlink:href="#DejaVuSans-30" x="186.621094"/>
     </g>
    </g>
    <g id="line2d_17">
     <path d="M 230.4025 289.060312 
L 240.4025 289.060312 
L 250.4025 289.060312 
" style="fill: none; stroke: #ff0000; stroke-width: 1.5; stroke-linecap: square"/>
     <g>
      <use xlink:href="#m8320575b43" x="240.4025" y="289.060312" style="fill: #ff0000; stroke: #ff0000"/>
     </g>
    </g>
    <g id="text_17">
     <!-- t=43 -->
     <g transform="translate(258.4025 292.560312)scale(0.1 -0.1)">
      <use xlink:href="#DejaVuSans-74"/>
      <use xlink:href="#DejaVuSans-3d" x="39.208984"/>
      <use xlink:href="#DejaVuSans-34" x="122.998047"/>
      <use xlink:href="#DejaVuSans-33" x="186.621094"/>
     </g>
    </g>
   </g>
  </g>
 </g>
 <defs>
  <clipPath id="p3ce265b895">
   <rect x="63.83" y="10.8" width="386.17" height="292.84"/>
  </clipPath>
 </defs>
</svg>
