<?xml version="1.0" encoding="utf-8" standalone="no"?>
<!DOCTYPE svg PUBLIC "-//W3C//DTD SVG 1.1//EN"
  "http://www.w3.org/Graphics/SVG/1.1/DTD/svg11.dtd">
<svg xmlns:xlink="http://www.w3.org/1999/xlink" width="460.8pt" height="345.6pt" viewBox="0 0 460.8 345.6" xmlns="http://www.w3.org/2000/svg" version="1.1">
 <metadata>
  <rdf:RDF xmlns:dc="http://purl.org/dc/elements/1.1/" xmlns:cc="http://creativecommons.org/ns#" xmlns:rdf="http://www.w3.org/1999/02/22-rdf-syntax-ns#">
   <cc:Work>
    <dc:type rdf:resource="http://purl.org/dc/dcmitype/StillImage"/>
    <dc:date>2023-05-17T15:00:32.720926</dc:date>
    <dc:format>image/svg+xml</dc:format>
    <dc:creator>
     <cc:Agent>
      <dc:title>Matplotlib v3.5.1, https://matplotlib.org/</dc:title>
     </cc:Agent>
    </dc:creator>
   </cc:Work>
  </rdf:RDF>
 </metadata>
 <defs>
  <style type="text/css">*{stroke-linejoin: round; stroke-linecap: butt}</style>
 </defs>
 <g id="figure_1">
  <g id="patch_1">
   <path d="M 0 345.6 
L 460.8 345.6 
L 460.8 0 
L 0 0 
z
" style="fill: #ffffff"/>
  </g>
  <g id="axes_1">
   <g id="patch_2">
    <path d="M 70.22 303.64 
L 450 303.64 
L 450 10.8 
L 70.22 10.8 
z
" style="fill: #ffffff"/>
   </g>
   <g id="matplotlib.axis_1">
    <g id="xtick_1">
     <g id="line2d_1">
      <defs>
       <path id="m13a2d60e19" d="M 0 0 
L 0 3.5 
" style="stroke: #000000; stroke-width: 0.8"/>
      </defs>
      <g>
       <use xlink:href="#m13a2d60e19" x="81.630955" y="303.64" style="stroke: #000000; stroke-width: 0.8"/>
      </g>
     </g>
     <g id="text_1">
      <!-- 0 -->
      <g transform="translate(78.449705 318.238437)scale(0.1 -0.1)">
       <defs>
        <path id="DejaVuSans-30" d="M 2034 4250 
Q 1547 4250 1301 3770 
Q 1056 3291 1056 2328 
Q 1056 1369 1301 889 
Q 1547 409 2034 409 
Q 2525 409 2770 889 
Q 3016 1369 3016 2328 
Q 3016 3291 2770 3770 
Q 2525 4250 2034 4250 
z
M 2034 4750 
Q 2819 4750 3233 4129 
Q 3647 3509 3647 2328 
Q 3647 1150 3233 529 
Q 2819 -91 2034 -91 
Q 1250 -91 836 529 
Q 422 1150 422 2328 
Q 422 3509 836 4129 
Q 1250 4750 2034 4750 
z
" transform="scale(0.015625)"/>
       </defs>
       <use xlink:href="#DejaVuSans-30"/>
      </g>
     </g>
    </g>
    <g id="xtick_2">
     <g id="line2d_2">
      <g>
       <use xlink:href="#m13a2d60e19" x="140.148675" y="303.64" style="stroke: #000000; stroke-width: 0.8"/>
      </g>
     </g>
     <g id="text_2">
      <!-- 10 -->
      <g transform="translate(133.786175 318.238437)scale(0.1 -0.1)">
       <defs>
        <path id="DejaVuSans-31" d="M 794 531 
L 1825 531 
L 1825 4091 
L 703 3866 
L 703 4441 
L 1819 4666 
L 2450 4666 
L 2450 531 
L 3481 531 
L 3481 0 
L 794 0 
L 794 531 
z
" transform="scale(0.015625)"/>
       </defs>
       <use xlink:href="#DejaVuSans-31"/>
       <use xlink:href="#DejaVuSans-30" x="63.623047"/>
      </g>
     </g>
    </g>
    <g id="xtick_3">
     <g id="line2d_3">
      <g>
       <use xlink:href="#m13a2d60e19" x="198.666394" y="303.64" style="stroke: #000000; stroke-width: 0.8"/>
      </g>
     </g>
     <g id="text_3">
      <!-- 20 -->
      <g transform="translate(192.303894 318.238437)scale(0.1 -0.1)">
       <defs>
        <path id="DejaVuSans-32" d="M 1228 531 
L 3431 531 
L 3431 0 
L 469 0 
L 469 531 
Q 828 903 1448 1529 
Q 2069 2156 2228 2338 
Q 2531 2678 2651 2914 
Q 2772 3150 2772 3378 
Q 2772 3750 2511 3984 
Q 2250 4219 1831 4219 
Q 1534 4219 1204 4116 
Q 875 4013 500 3803 
L 500 4441 
Q 881 4594 1212 4672 
Q 1544 4750 1819 4750 
Q 2544 4750 2975 4387 
Q 3406 4025 3406 3419 
Q 3406 3131 3298 2873 
Q 3191 2616 2906 2266 
Q 2828 2175 2409 1742 
Q 1991 1309 1228 531 
z
" transform="scale(0.015625)"/>
       </defs>
       <use xlink:href="#DejaVuSans-32"/>
       <use xlink:href="#DejaVuSans-30" x="63.623047"/>
      </g>
     </g>
    </g>
    <g id="xtick_4">
     <g id="line2d_4">
      <g>
       <use xlink:href="#m13a2d60e19" x="257.184114" y="303.64" style="stroke: #000000; stroke-width: 0.8"/>
      </g>
     </g>
     <g id="text_4">
      <!-- 30 -->
      <g transform="translate(250.821614 318.238437)scale(0.1 -0.1)">
       <defs>
        <path id="DejaVuSans-33" d="M 2597 2516 
Q 3050 2419 3304 2112 
Q 3559 1806 3559 1356 
Q 3559 666 3084 287 
Q 2609 -91 1734 -91 
Q 1441 -91 1130 -33 
Q 819 25 488 141 
L 488 750 
Q 750 597 1062 519 
Q 1375 441 1716 441 
Q 2309 441 2620 675 
Q 2931 909 2931 1356 
Q 2931 1769 2642 2001 
Q 2353 2234 1838 2234 
L 1294 2234 
L 1294 2753 
L 1863 2753 
Q 2328 2753 2575 2939 
Q 2822 3125 2822 3475 
Q 2822 3834 2567 4026 
Q 2313 4219 1838 4219 
Q 1578 4219 1281 4162 
Q 984 4106 628 3988 
L 628 4550 
Q 988 4650 1302 4700 
Q 1616 4750 1894 4750 
Q 2613 4750 3031 4423 
Q 3450 4097 3450 3541 
Q 3450 3153 3228 2886 
Q 3006 2619 2597 2516 
z
" transform="scale(0.015625)"/>
       </defs>
       <use xlink:href="#DejaVuSans-33"/>
       <use xlink:href="#DejaVuSans-30" x="63.623047"/>
      </g>
     </g>
    </g>
    <g id="xtick_5">
     <g id="line2d_5">
      <g>
       <use xlink:href="#m13a2d60e19" x="315.701834" y="303.64" style="stroke: #000000; stroke-width: 0.8"/>
      </g>
     </g>
     <g id="text_5">
      <!-- 40 -->
      <g transform="translate(309.339334 318.238437)scale(0.1 -0.1)">
       <defs>
        <path id="DejaVuSans-34" d="M 2419 4116 
L 825 1625 
L 2419 1625 
L 2419 4116 
z
M 2253 4666 
L 3047 4666 
L 3047 1625 
L 3713 1625 
L 3713 1100 
L 3047 1100 
L 3047 0 
L 2419 0 
L 2419 1100 
L 313 1100 
L 313 1709 
L 2253 4666 
z
" transform="scale(0.015625)"/>
       </defs>
       <use xlink:href="#DejaVuSans-34"/>
       <use xlink:href="#DejaVuSans-30" x="63.623047"/>
      </g>
     </g>
    </g>
    <g id="xtick_6">
     <g id="line2d_6">
      <g>
       <use xlink:href="#m13a2d60e19" x="374.219553" y="303.64" style="stroke: #000000; stroke-width: 0.8"/>
      </g>
     </g>
     <g id="text_6">
      <!-- 50 -->
      <g transform="translate(367.857053 318.238437)scale(0.1 -0.1)">
       <defs>
        <path id="DejaVuSans-35" d="M 691 4666 
L 3169 4666 
L 3169 4134 
L 1269 4134 
L 1269 2991 
Q 1406 3038 1543 3061 
Q 1681 3084 1819 3084 
Q 2600 3084 3056 2656 
Q 3513 2228 3513 1497 
Q 3513 744 3044 326 
Q 2575 -91 1722 -91 
Q 1428 -91 1123 -41 
Q 819 9 494 109 
L 494 744 
Q 775 591 1075 516 
Q 1375 441 1709 441 
Q 2250 441 2565 725 
Q 2881 1009 2881 1497 
Q 2881 1984 2565 2268 
Q 2250 2553 1709 2553 
Q 1456 2553 1204 2497 
Q 953 2441 691 2322 
L 691 4666 
z
" transform="scale(0.015625)"/>
       </defs>
       <use xlink:href="#DejaVuSans-35"/>
       <use xlink:href="#DejaVuSans-30" x="63.623047"/>
      </g>
     </g>
    </g>
    <g id="xtick_7">
     <g id="line2d_7">
      <g>
       <use xlink:href="#m13a2d60e19" x="432.737273" y="303.64" style="stroke: #000000; stroke-width: 0.8"/>
      </g>
     </g>
     <g id="text_7">
      <!-- 60 -->
      <g transform="translate(426.374773 318.238437)scale(0.1 -0.1)">
       <defs>
        <path id="DejaVuSans-36" d="M 2113 2584 
Q 1688 2584 1439 2293 
Q 1191 2003 1191 1497 
Q 1191 994 1439 701 
Q 1688 409 2113 409 
Q 2538 409 2786 701 
Q 3034 994 3034 1497 
Q 3034 2003 2786 2293 
Q 2538 2584 2113 2584 
z
M 3366 4563 
L 3366 3988 
Q 3128 4100 2886 4159 
Q 2644 4219 2406 4219 
Q 1781 4219 1451 3797 
Q 1122 3375 1075 2522 
Q 1259 2794 1537 2939 
Q 1816 3084 2150 3084 
Q 2853 3084 3261 2657 
Q 3669 2231 3669 1497 
Q 3669 778 3244 343 
Q 2819 -91 2113 -91 
Q 1303 -91 875 529 
Q 447 1150 447 2328 
Q 447 3434 972 4092 
Q 1497 4750 2381 4750 
Q 2619 4750 2861 4703 
Q 3103 4656 3366 4563 
z
" transform="scale(0.015625)"/>
       </defs>
       <use xlink:href="#DejaVuSans-36"/>
       <use xlink:href="#DejaVuSans-30" x="63.623047"/>
      </g>
     </g>
    </g>
    <g id="text_8">
     <!-- step -->
     <g transform="translate(249.294375 331.916562)scale(0.1 -0.1)">
      <defs>
       <path id="DejaVuSans-73" d="M 2834 3397 
L 2834 2853 
Q 2591 2978 2328 3040 
Q 2066 3103 1784 3103 
Q 1356 3103 1142 2972 
Q 928 2841 928 2578 
Q 928 2378 1081 2264 
Q 1234 2150 1697 2047 
L 1894 2003 
Q 2506 1872 2764 1633 
Q 3022 1394 3022 966 
Q 3022 478 2636 193 
Q 2250 -91 1575 -91 
Q 1294 -91 989 -36 
Q 684 19 347 128 
L 347 722 
Q 666 556 975 473 
Q 1284 391 1588 391 
Q 1994 391 2212 530 
Q 2431 669 2431 922 
Q 2431 1156 2273 1281 
Q 2116 1406 1581 1522 
L 1381 1569 
Q 847 1681 609 1914 
Q 372 2147 372 2553 
Q 372 3047 722 3315 
Q 1072 3584 1716 3584 
Q 2034 3584 2315 3537 
Q 2597 3491 2834 3397 
z
" transform="scale(0.015625)"/>
       <path id="DejaVuSans-74" d="M 1172 4494 
L 1172 3500 
L 2356 3500 
L 2356 3053 
L 1172 3053 
L 1172 1153 
Q 1172 725 1289 603 
Q 1406 481 1766 481 
L 2356 481 
L 2356 0 
L 1766 0 
Q 1100 0 847 248 
Q 594 497 594 1153 
L 594 3053 
L 172 3053 
L 172 3500 
L 594 3500 
L 594 4494 
L 1172 4494 
z
" transform="scale(0.015625)"/>
       <path id="DejaVuSans-65" d="M 3597 1894 
L 3597 1613 
L 953 1613 
Q 991 1019 1311 708 
Q 1631 397 2203 397 
Q 2534 397 2845 478 
Q 3156 559 3463 722 
L 3463 178 
Q 3153 47 2828 -22 
Q 2503 -91 2169 -91 
Q 1331 -91 842 396 
Q 353 884 353 1716 
Q 353 2575 817 3079 
Q 1281 3584 2069 3584 
Q 2775 3584 3186 3129 
Q 3597 2675 3597 1894 
z
M 3022 2063 
Q 3016 2534 2758 2815 
Q 2500 3097 2075 3097 
Q 1594 3097 1305 2825 
Q 1016 2553 972 2059 
L 3022 2063 
z
" transform="scale(0.015625)"/>
       <path id="DejaVuSans-70" d="M 1159 525 
L 1159 -1331 
L 581 -1331 
L 581 3500 
L 1159 3500 
L 1159 2969 
Q 1341 3281 1617 3432 
Q 1894 3584 2278 3584 
Q 2916 3584 3314 3078 
Q 3713 2572 3713 1747 
Q 3713 922 3314 415 
Q 2916 -91 2278 -91 
Q 1894 -91 1617 61 
Q 1341 213 1159 525 
z
M 3116 1747 
Q 3116 2381 2855 2742 
Q 2594 3103 2138 3103 
Q 1681 3103 1420 2742 
Q 1159 2381 1159 1747 
Q 1159 1113 1420 752 
Q 1681 391 2138 391 
Q 2594 391 2855 752 
Q 3116 1113 3116 1747 
z
" transform="scale(0.015625)"/>
      </defs>
      <use xlink:href="#DejaVuSans-73"/>
      <use xlink:href="#DejaVuSans-74" x="52.099609"/>
      <use xlink:href="#DejaVuSans-65" x="91.308594"/>
      <use xlink:href="#DejaVuSans-70" x="152.832031"/>
     </g>
    </g>
   </g>
   <g id="matplotlib.axis_2">
    <g id="ytick_1">
     <g id="line2d_8">
      <defs>
       <path id="m0ee42398f5" d="M 0 0 
L -3.5 0 
" style="stroke: #000000; stroke-width: 0.8"/>
      </defs>
      <g>
       <use xlink:href="#m0ee42398f5" x="70.22" y="300.889612" style="stroke: #000000; stroke-width: 0.8"/>
      </g>
     </g>
     <g id="text_9">
      <!-- 200000 -->
      <g transform="translate(25.045 304.688831)scale(0.1 -0.1)">
       <use xlink:href="#DejaVuSans-32"/>
       <use xlink:href="#DejaVuSans-30" x="63.623047"/>
       <use xlink:href="#DejaVuSans-30" x="127.246094"/>
       <use xlink:href="#DejaVuSans-30" x="190.869141"/>
       <use xlink:href="#DejaVuSans-30" x="254.492188"/>
       <use xlink:href="#DejaVuSans-30" x="318.115234"/>
      </g>
     </g>
    </g>
    <g id="ytick_2">
     <g id="line2d_9">
      <g>
       <use xlink:href="#m0ee42398f5" x="70.22" y="244.361824" style="stroke: #000000; stroke-width: 0.8"/>
      </g>
     </g>
     <g id="text_10">
      <!-- 300000 -->
      <g transform="translate(25.045 248.161043)scale(0.1 -0.1)">
       <use xlink:href="#DejaVuSans-33"/>
       <use xlink:href="#DejaVuSans-30" x="63.623047"/>
       <use xlink:href="#DejaVuSans-30" x="127.246094"/>
       <use xlink:href="#DejaVuSans-30" x="190.869141"/>
       <use xlink:href="#DejaVuSans-30" x="254.492188"/>
       <use xlink:href="#DejaVuSans-30" x="318.115234"/>
      </g>
     </g>
    </g>
    <g id="ytick_3">
     <g id="line2d_10">
      <g>
       <use xlink:href="#m0ee42398f5" x="70.22" y="187.834037" style="stroke: #000000; stroke-width: 0.8"/>
      </g>
     </g>
     <g id="text_11">
      <!-- 400000 -->
      <g transform="translate(25.045 191.633255)scale(0.1 -0.1)">
       <use xlink:href="#DejaVuSans-34"/>
       <use xlink:href="#DejaVuSans-30" x="63.623047"/>
       <use xlink:href="#DejaVuSans-30" x="127.246094"/>
       <use xlink:href="#DejaVuSans-30" x="190.869141"/>
       <use xlink:href="#DejaVuSans-30" x="254.492188"/>
       <use xlink:href="#DejaVuSans-30" x="318.115234"/>
      </g>
     </g>
    </g>
    <g id="ytick_4">
     <g id="line2d_11">
      <g>
       <use xlink:href="#m0ee42398f5" x="70.22" y="131.306249" style="stroke: #000000; stroke-width: 0.8"/>
      </g>
     </g>
     <g id="text_12">
      <!-- 500000 -->
      <g transform="translate(25.045 135.105468)scale(0.1 -0.1)">
       <use xlink:href="#DejaVuSans-35"/>
       <use xlink:href="#DejaVuSans-30" x="63.623047"/>
       <use xlink:href="#DejaVuSans-30" x="127.246094"/>
       <use xlink:href="#DejaVuSans-30" x="190.869141"/>
       <use xlink:href="#DejaVuSans-30" x="254.492188"/>
       <use xlink:href="#DejaVuSans-30" x="318.115234"/>
      </g>
     </g>
    </g>
    <g id="ytick_5">
     <g id="line2d_12">
      <g>
       <use xlink:href="#m0ee42398f5" x="70.22" y="74.778461" style="stroke: #000000; stroke-width: 0.8"/>
      </g>
     </g>
     <g id="text_13">
      <!-- 600000 -->
      <g transform="translate(25.045 78.57768)scale(0.1 -0.1)">
       <use xlink:href="#DejaVuSans-36"/>
       <use xlink:href="#DejaVuSans-30" x="63.623047"/>
       <use xlink:href="#DejaVuSans-30" x="127.246094"/>
       <use xlink:href="#DejaVuSans-30" x="190.869141"/>
       <use xlink:href="#DejaVuSans-30" x="254.492188"/>
       <use xlink:href="#DejaVuSans-30" x="318.115234"/>
      </g>
     </g>
    </g>
    <g id="ytick_6">
     <g id="line2d_13">
      <g>
       <use xlink:href="#m0ee42398f5" x="70.22" y="18.250673" style="stroke: #000000; stroke-width: 0.8"/>
      </g>
     </g>
     <g id="text_14">
      <!-- 700000 -->
      <g transform="translate(25.045 22.049892)scale(0.1 -0.1)">
       <defs>
        <path id="DejaVuSans-37" d="M 525 4666 
L 3525 4666 
L 3525 4397 
L 1831 0 
L 1172 0 
L 2766 4134 
L 525 4134 
L 525 4666 
z
" transform="scale(0.015625)"/>
       </defs>
       <use xlink:href="#DejaVuSans-37"/>
       <use xlink:href="#DejaVuSans-30" x="63.623047"/>
       <use xlink:href="#DejaVuSans-30" x="127.246094"/>
       <use xlink:href="#DejaVuSans-30" x="190.869141"/>
       <use xlink:href="#DejaVuSans-30" x="254.492188"/>
       <use xlink:href="#DejaVuSans-30" x="318.115234"/>
      </g>
     </g>
    </g>
    <g id="text_15">
     <!-- total of sequences -->
     <g transform="translate(18.965312 203.350469)rotate(-90)scale(0.1 -0.1)">
      <defs>
       <path id="DejaVuSans-6f" d="M 1959 3097 
Q 1497 3097 1228 2736 
Q 959 2375 959 1747 
Q 959 1119 1226 758 
Q 1494 397 1959 397 
Q 2419 397 2687 759 
Q 2956 1122 2956 1747 
Q 2956 2369 2687 2733 
Q 2419 3097 1959 3097 
z
M 1959 3584 
Q 2709 3584 3137 3096 
Q 3566 2609 3566 1747 
Q 3566 888 3137 398 
Q 2709 -91 1959 -91 
Q 1206 -91 779 398 
Q 353 888 353 1747 
Q 353 2609 779 3096 
Q 1206 3584 1959 3584 
z
" transform="scale(0.015625)"/>
       <path id="DejaVuSans-61" d="M 2194 1759 
Q 1497 1759 1228 1600 
Q 959 1441 959 1056 
Q 959 750 1161 570 
Q 1363 391 1709 391 
Q 2188 391 2477 730 
Q 2766 1069 2766 1631 
L 2766 1759 
L 2194 1759 
z
M 3341 1997 
L 3341 0 
L 2766 0 
L 2766 531 
Q 2569 213 2275 61 
Q 1981 -91 1556 -91 
Q 1019 -91 701 211 
Q 384 513 384 1019 
Q 384 1609 779 1909 
Q 1175 2209 1959 2209 
L 2766 2209 
L 2766 2266 
Q 2766 2663 2505 2880 
Q 2244 3097 1772 3097 
Q 1472 3097 1187 3025 
Q 903 2953 641 2809 
L 641 3341 
Q 956 3463 1253 3523 
Q 1550 3584 1831 3584 
Q 2591 3584 2966 3190 
Q 3341 2797 3341 1997 
z
" transform="scale(0.015625)"/>
       <path id="DejaVuSans-6c" d="M 603 4863 
L 1178 4863 
L 1178 0 
L 603 0 
L 603 4863 
z
" transform="scale(0.015625)"/>
       <path id="DejaVuSans-20" transform="scale(0.015625)"/>
       <path id="DejaVuSans-66" d="M 2375 4863 
L 2375 4384 
L 1825 4384 
Q 1516 4384 1395 4259 
Q 1275 4134 1275 3809 
L 1275 3500 
L 2222 3500 
L 2222 3053 
L 1275 3053 
L 1275 0 
L 697 0 
L 697 3053 
L 147 3053 
L 147 3500 
L 697 3500 
L 697 3744 
Q 697 4328 969 4595 
Q 1241 4863 1831 4863 
L 2375 4863 
z
" transform="scale(0.015625)"/>
       <path id="DejaVuSans-71" d="M 947 1747 
Q 947 1113 1208 752 
Q 1469 391 1925 391 
Q 2381 391 2643 752 
Q 2906 1113 2906 1747 
Q 2906 2381 2643 2742 
Q 2381 3103 1925 3103 
Q 1469 3103 1208 2742 
Q 947 2381 947 1747 
z
M 2906 525 
Q 2725 213 2448 61 
Q 2172 -91 1784 -91 
Q 1150 -91 751 415 
Q 353 922 353 1747 
Q 353 2572 751 3078 
Q 1150 3584 1784 3584 
Q 2172 3584 2448 3432 
Q 2725 3281 2906 2969 
L 2906 3500 
L 3481 3500 
L 3481 -1331 
L 2906 -1331 
L 2906 525 
z
" transform="scale(0.015625)"/>
       <path id="DejaVuSans-75" d="M 544 1381 
L 544 3500 
L 1119 3500 
L 1119 1403 
Q 1119 906 1312 657 
Q 1506 409 1894 409 
Q 2359 409 2629 706 
Q 2900 1003 2900 1516 
L 2900 3500 
L 3475 3500 
L 3475 0 
L 2900 0 
L 2900 538 
Q 2691 219 2414 64 
Q 2138 -91 1772 -91 
Q 1169 -91 856 284 
Q 544 659 544 1381 
z
M 1991 3584 
L 1991 3584 
z
" transform="scale(0.015625)"/>
       <path id="DejaVuSans-6e" d="M 3513 2113 
L 3513 0 
L 2938 0 
L 2938 2094 
Q 2938 2591 2744 2837 
Q 2550 3084 2163 3084 
Q 1697 3084 1428 2787 
Q 1159 2491 1159 1978 
L 1159 0 
L 581 0 
L 581 3500 
L 1159 3500 
L 1159 2956 
Q 1366 3272 1645 3428 
Q 1925 3584 2291 3584 
Q 2894 3584 3203 3211 
Q 3513 2838 3513 2113 
z
" transform="scale(0.015625)"/>
       <path id="DejaVuSans-63" d="M 3122 3366 
L 3122 2828 
Q 2878 2963 2633 3030 
Q 2388 3097 2138 3097 
Q 1578 3097 1268 2742 
Q 959 2388 959 1747 
Q 959 1106 1268 751 
Q 1578 397 2138 397 
Q 2388 397 2633 464 
Q 2878 531 3122 666 
L 3122 134 
Q 2881 22 2623 -34 
Q 2366 -91 2075 -91 
Q 1284 -91 818 406 
Q 353 903 353 1747 
Q 353 2603 823 3093 
Q 1294 3584 2113 3584 
Q 2378 3584 2631 3529 
Q 2884 3475 3122 3366 
z
" transform="scale(0.015625)"/>
      </defs>
      <use xlink:href="#DejaVuSans-74"/>
      <use xlink:href="#DejaVuSans-6f" x="39.208984"/>
      <use xlink:href="#DejaVuSans-74" x="100.390625"/>
      <use xlink:href="#DejaVuSans-61" x="139.599609"/>
      <use xlink:href="#DejaVuSans-6c" x="200.878906"/>
      <use xlink:href="#DejaVuSans-20" x="228.662109"/>
      <use xlink:href="#DejaVuSans-6f" x="260.449219"/>
      <use xlink:href="#DejaVuSans-66" x="321.630859"/>
      <use xlink:href="#DejaVuSans-20" x="356.835938"/>
      <use xlink:href="#DejaVuSans-73" x="388.623047"/>
      <use xlink:href="#DejaVuSans-65" x="440.722656"/>
      <use xlink:href="#DejaVuSans-71" x="502.246094"/>
      <use xlink:href="#DejaVuSans-75" x="565.722656"/>
      <use xlink:href="#DejaVuSans-65" x="629.101562"/>
      <use xlink:href="#DejaVuSans-6e" x="690.625"/>
      <use xlink:href="#DejaVuSans-63" x="754.003906"/>
      <use xlink:href="#DejaVuSans-65" x="808.984375"/>
      <use xlink:href="#DejaVuSans-73" x="870.507812"/>
     </g>
    </g>
   </g>
   <g id="line2d_14">
    <path d="M 93.334499 154.600785 
L 105.038043 290.329091 
L 116.741587 176.504737 
L 128.445131 131.630718 
L 140.148675 252.126481 
L 151.852219 156.133819 
L 163.555763 138.098063 
L 175.259307 157.818347 
L 186.962851 85.746548 
L 198.666394 89.268229 
L 210.369938 24.110909 
L 216.22171 56.859718 
L 227.925254 36.917845 
L 233.777026 148.119309 
L 245.48057 146.816909 
L 257.184114 112.325348 
L 268.887658 111.348548 
L 280.591202 103.462922 
L 292.294746 117.61748 
L 303.99829 172.577752 
L 315.701834 134.203863 
L 327.405378 59.101044 
L 339.108921 140.758826 
L 350.812465 166.804004 
L 362.516009 151.228337 
L 374.219553 86.169376 
L 385.923097 59.940482 
L 397.626641 51.128365 
L 409.330185 155.747168 
L 421.033729 159.122443 
L 432.737273 285.938012 
" clip-path="url(#p4a9f652e90)" style="fill: none; stroke: #0000ff; stroke-width: 1.5; stroke-linecap: square"/>
    <defs>
     <path id="m3730f79eac" d="M 0 3 
C 0.795609 3 1.55874 2.683901 2.12132 2.12132 
C 2.683901 1.55874 3 0.795609 3 0 
C 3 -0.795609 2.683901 -1.55874 2.12132 -2.12132 
C 1.55874 -2.683901 0.795609 -3 0 -3 
C -0.795609 -3 -1.55874 -2.683901 -2.12132 -2.12132 
C -2.683901 -1.55874 -3 -0.795609 -3 0 
C -3 0.795609 -2.683901 1.55874 -2.12132 2.12132 
C -1.55874 2.683901 -0.795609 3 0 3 
z
" style="stroke: #0000ff"/>
    </defs>
    <g clip-path="url(#p4a9f652e90)">
     <use xlink:href="#m3730f79eac" x="93.334499" y="154.600785" style="fill: #0000ff; stroke: #0000ff"/>
     <use xlink:href="#m3730f79eac" x="105.038043" y="290.329091" style="fill: #0000ff; stroke: #0000ff"/>
     <use xlink:href="#m3730f79eac" x="116.741587" y="176.504737" style="fill: #0000ff; stroke: #0000ff"/>
     <use xlink:href="#m3730f79eac" x="128.445131" y="131.630718" style="fill: #0000ff; stroke: #0000ff"/>
     <use xlink:href="#m3730f79eac" x="140.148675" y="252.126481" style="fill: #0000ff; stroke: #0000ff"/>
     <use xlink:href="#m3730f79eac" x="151.852219" y="156.133819" style="fill: #0000ff; stroke: #0000ff"/>
     <use xlink:href="#m3730f79eac" x="163.555763" y="138.098063" style="fill: #0000ff; stroke: #0000ff"/>
     <use xlink:href="#m3730f79eac" x="175.259307" y="157.818347" style="fill: #0000ff; stroke: #0000ff"/>
     <use xlink:href="#m3730f79eac" x="186.962851" y="85.746548" style="fill: #0000ff; stroke: #0000ff"/>
     <use xlink:href="#m3730f79eac" x="198.666394" y="89.268229" style="fill: #0000ff; stroke: #0000ff"/>
     <use xlink:href="#m3730f79eac" x="210.369938" y="24.110909" style="fill: #0000ff; stroke: #0000ff"/>
     <use xlink:href="#m3730f79eac" x="216.22171" y="56.859718" style="fill: #0000ff; stroke: #0000ff"/>
     <use xlink:href="#m3730f79eac" x="227.925254" y="36.917845" style="fill: #0000ff; stroke: #0000ff"/>
     <use xlink:href="#m3730f79eac" x="233.777026" y="148.119309" style="fill: #0000ff; stroke: #0000ff"/>
     <use xlink:href="#m3730f79eac" x="245.48057" y="146.816909" style="fill: #0000ff; stroke: #0000ff"/>
     <use xlink:href="#m3730f79eac" x="257.184114" y="112.325348" style="fill: #0000ff; stroke: #0000ff"/>
     <use xlink:href="#m3730f79eac" x="268.887658" y="111.348548" style="fill: #0000ff; stroke: #0000ff"/>
     <use xlink:href="#m3730f79eac" x="280.591202" y="103.462922" style="fill: #0000ff; stroke: #0000ff"/>
     <use xlink:href="#m3730f79eac" x="292.294746" y="117.61748" style="fill: #0000ff; stroke: #0000ff"/>
     <use xlink:href="#m3730f79eac" x="303.99829" y="172.577752" style="fill: #0000ff; stroke: #0000ff"/>
     <use xlink:href="#m3730f79eac" x="315.701834" y="134.203863" style="fill: #0000ff; stroke: #0000ff"/>
     <use xlink:href="#m3730f79eac" x="327.405378" y="59.101044" style="fill: #0000ff; stroke: #0000ff"/>
     <use xlink:href="#m3730f79eac" x="339.108921" y="140.758826" style="fill: #0000ff; stroke: #0000ff"/>
     <use xlink:href="#m3730f79eac" x="350.812465" y="166.804004" style="fill: #0000ff; stroke: #0000ff"/>
     <use xlink:href="#m3730f79eac" x="362.516009" y="151.228337" style="fill: #0000ff; stroke: #0000ff"/>
     <use xlink:href="#m3730f79eac" x="374.219553" y="86.169376" style="fill: #0000ff; stroke: #0000ff"/>
     <use xlink:href="#m3730f79eac" x="385.923097" y="59.940482" style="fill: #0000ff; stroke: #0000ff"/>
     <use xlink:href="#m3730f79eac" x="397.626641" y="51.128365" style="fill: #0000ff; stroke: #0000ff"/>
     <use xlink:href="#m3730f79eac" x="409.330185" y="155.747168" style="fill: #0000ff; stroke: #0000ff"/>
     <use xlink:href="#m3730f79eac" x="421.033729" y="159.122443" style="fill: #0000ff; stroke: #0000ff"/>
     <use xlink:href="#m3730f79eac" x="432.737273" y="285.938012" style="fill: #0000ff; stroke: #0000ff"/>
    </g>
   </g>
   <g id="line2d_15">
    <path d="M 87.482727 240.056103 
L 93.334499 155.352605 
L 105.038043 197.273612 
L 116.741587 184.089636 
L 128.445131 62.282994 
L 140.148675 255.209507 
L 151.852219 149.321655 
L 163.555763 250.488871 
L 175.259307 182.088552 
L 186.962851 161.565574 
L 198.666394 178.907734 
L 210.369938 159.821126 
L 216.22171 151.028794 
L 233.777026 189.045427 
L 245.48057 179.821788 
L 257.184114 128.772108 
L 268.887658 120.742336 
L 280.591202 85.71037 
L 292.294746 110.706392 
L 303.99829 105.642633 
L 315.701834 78.759713 
L 327.405378 132.817237 
L 339.108921 131.697986 
L 350.812465 143.231916 
L 362.516009 165.698886 
L 374.219553 179.275164 
L 385.923097 96.27937 
L 397.626641 148.713416 
L 409.330185 150.371376 
L 421.033729 235.562709 
L 432.737273 232.874247 
" clip-path="url(#p4a9f652e90)" style="fill: none; stroke: #ff0000; stroke-width: 1.5; stroke-linecap: square"/>
    <defs>
     <path id="mc9558d54f7" d="M 0 3 
C 0.795609 3 1.55874 2.683901 2.12132 2.12132 
C 2.683901 1.55874 3 0.795609 3 0 
C 3 -0.795609 2.683901 -1.55874 2.12132 -2.12132 
C 1.55874 -2.683901 0.795609 -3 0 -3 
C -0.795609 -3 -1.55874 -2.683901 -2.12132 -2.12132 
C -2.683901 -1.55874 -3 -0.795609 -3 0 
C -3 0.795609 -2.683901 1.55874 -2.12132 2.12132 
C -1.55874 2.683901 -0.795609 3 0 3 
z
" style="stroke: #ff0000"/>
    </defs>
    <g clip-path="url(#p4a9f652e90)">
     <use xlink:href="#mc9558d54f7" x="87.482727" y="240.056103" style="fill: #ff0000; stroke: #ff0000"/>
     <use xlink:href="#mc9558d54f7" x="93.334499" y="155.352605" style="fill: #ff0000; stroke: #ff0000"/>
     <use xlink:href="#mc9558d54f7" x="105.038043" y="197.273612" style="fill: #ff0000; stroke: #ff0000"/>
     <use xlink:href="#mc9558d54f7" x="116.741587" y="184.089636" style="fill: #ff0000; stroke: #ff0000"/>
     <use xlink:href="#mc9558d54f7" x="128.445131" y="62.282994" style="fill: #ff0000; stroke: #ff0000"/>
     <use xlink:href="#mc9558d54f7" x="140.148675" y="255.209507" style="fill: #ff0000; stroke: #ff0000"/>
     <use xlink:href="#mc9558d54f7" x="151.852219" y="149.321655" style="fill: #ff0000; stroke: #ff0000"/>
     <use xlink:href="#mc9558d54f7" x="163.555763" y="250.488871" style="fill: #ff0000; stroke: #ff0000"/>
     <use xlink:href="#mc9558d54f7" x="175.259307" y="182.088552" style="fill: #ff0000; stroke: #ff0000"/>
     <use xlink:href="#mc9558d54f7" x="186.962851" y="161.565574" style="fill: #ff0000; stroke: #ff0000"/>
     <use xlink:href="#mc9558d54f7" x="198.666394" y="178.907734" style="fill: #ff0000; stroke: #ff0000"/>
     <use xlink:href="#mc9558d54f7" x="210.369938" y="159.821126" style="fill: #ff0000; stroke: #ff0000"/>
     <use xlink:href="#mc9558d54f7" x="216.22171" y="151.028794" style="fill: #ff0000; stroke: #ff0000"/>
     <use xlink:href="#mc9558d54f7" x="233.777026" y="189.045427" style="fill: #ff0000; stroke: #ff0000"/>
     <use xlink:href="#mc9558d54f7" x="245.48057" y="179.821788" style="fill: #ff0000; stroke: #ff0000"/>
     <use xlink:href="#mc9558d54f7" x="257.184114" y="128.772108" style="fill: #ff0000; stroke: #ff0000"/>
     <use xlink:href="#mc9558d54f7" x="268.887658" y="120.742336" style="fill: #ff0000; stroke: #ff0000"/>
     <use xlink:href="#mc9558d54f7" x="280.591202" y="85.71037" style="fill: #ff0000; stroke: #ff0000"/>
     <use xlink:href="#mc9558d54f7" x="292.294746" y="110.706392" style="fill: #ff0000; stroke: #ff0000"/>
     <use xlink:href="#mc9558d54f7" x="303.99829" y="105.642633" style="fill: #ff0000; stroke: #ff0000"/>
     <use xlink:href="#mc9558d54f7" x="315.701834" y="78.759713" style="fill: #ff0000; stroke: #ff0000"/>
     <use xlink:href="#mc9558d54f7" x="327.405378" y="132.817237" style="fill: #ff0000; stroke: #ff0000"/>
     <use xlink:href="#mc9558d54f7" x="339.108921" y="131.697986" style="fill: #ff0000; stroke: #ff0000"/>
     <use xlink:href="#mc9558d54f7" x="350.812465" y="143.231916" style="fill: #ff0000; stroke: #ff0000"/>
     <use xlink:href="#mc9558d54f7" x="362.516009" y="165.698886" style="fill: #ff0000; stroke: #ff0000"/>
     <use xlink:href="#mc9558d54f7" x="374.219553" y="179.275164" style="fill: #ff0000; stroke: #ff0000"/>
     <use xlink:href="#mc9558d54f7" x="385.923097" y="96.27937" style="fill: #ff0000; stroke: #ff0000"/>
     <use xlink:href="#mc9558d54f7" x="397.626641" y="148.713416" style="fill: #ff0000; stroke: #ff0000"/>
     <use xlink:href="#mc9558d54f7" x="409.330185" y="150.371376" style="fill: #ff0000; stroke: #ff0000"/>
     <use xlink:href="#mc9558d54f7" x="421.033729" y="235.562709" style="fill: #ff0000; stroke: #ff0000"/>
     <use xlink:href="#mc9558d54f7" x="432.737273" y="232.874247" style="fill: #ff0000; stroke: #ff0000"/>
    </g>
   </g>
   <g id="patch_3">
    <path d="M 70.22 303.64 
L 70.22 10.8 
" style="fill: none; stroke: #000000; stroke-width: 0.8; stroke-linejoin: miter; stroke-linecap: square"/>
   </g>
   <g id="patch_4">
    <path d="M 450 303.64 
L 450 10.8 
" style="fill: none; stroke: #000000; stroke-width: 0.8; stroke-linejoin: miter; stroke-linecap: square"/>
   </g>
   <g id="patch_5">
    <path d="M 70.22 303.64 
L 450 303.64 
" style="fill: none; stroke: #000000; stroke-width: 0.8; stroke-linejoin: miter; stroke-linecap: square"/>
   </g>
   <g id="patch_6">
    <path d="M 70.22 10.8 
L 450 10.8 
" style="fill: none; stroke: #000000; stroke-width: 0.8; stroke-linejoin: miter; stroke-linecap: square"/>
   </g>
   <g id="legend_1">
    <g id="patch_7">
     <path d="M 385.975 48.15625 
L 443 48.15625 
Q 445 48.15625 445 46.15625 
L 445 17.8 
Q 445 15.8 443 15.8 
L 385.975 15.8 
Q 383.975 15.8 383.975 17.8 
L 383.975 46.15625 
Q 383.975 48.15625 385.975 48.15625 
z
" style="fill: #ffffff; opacity: 0.8; stroke: #cccccc; stroke-linejoin: miter"/>
    </g>
    <g id="line2d_16">
     <path d="M 387.975 23.898438 
L 397.975 23.898438 
L 407.975 23.898438 
" style="fill: none; stroke: #0000ff; stroke-width: 1.5; stroke-linecap: square"/>
     <g>
      <use xlink:href="#m3730f79eac" x="397.975" y="23.898438" style="fill: #0000ff; stroke: #0000ff"/>
     </g>
    </g>
    <g id="text_16">
     <!-- t=30 -->
     <g transform="translate(415.975 27.398438)scale(0.1 -0.1)">
      <defs>
       <path id="DejaVuSans-3d" d="M 678 2906 
L 4684 2906 
L 4684 2381 
L 678 2381 
L 678 2906 
z
M 678 1631 
L 4684 1631 
L 4684 1100 
L 678 1100 
L 678 1631 
z
" transform="scale(0.015625)"/>
      </defs>
      <use xlink:href="#DejaVuSans-74"/>
      <use xlink:href="#DejaVuSans-3d" x="39.208984"/>
      <use xlink:href="#DejaVuSans-33" x="122.998047"/>
      <use xlink:href="#DejaVuSans-30" x="186.621094"/>
     </g>
    </g>
    <g id="line2d_17">
     <path d="M 387.975 38.576563 
L 397.975 38.576563 
L 407.975 38.576563 
" style="fill: none; stroke: #ff0000; stroke-width: 1.5; stroke-linecap: square"/>
     <g>
      <use xlink:href="#mc9558d54f7" x="397.975" y="38.576563" style="fill: #ff0000; stroke: #ff0000"/>
     </g>
    </g>
    <g id="text_17">
     <!-- t=43 -->
     <g transform="translate(415.975 42.076563)scale(0.1 -0.1)">
      <use xlink:href="#DejaVuSans-74"/>
      <use xlink:href="#DejaVuSans-3d" x="39.208984"/>
      <use xlink:href="#DejaVuSans-34" x="122.998047"/>
      <use xlink:href="#DejaVuSans-33" x="186.621094"/>
     </g>
    </g>
   </g>
  </g>
 </g>
 <defs>
  <clipPath id="p4a9f652e90">
   <rect x="70.22" y="10.8" width="379.78" height="292.84"/>
  </clipPath>
 </defs>
</svg>
