<?xml version="1.0" encoding="utf-8" standalone="no"?>
<!DOCTYPE svg PUBLIC "-//W3C//DTD SVG 1.1//EN"
  "http://www.w3.org/Graphics/SVG/1.1/DTD/svg11.dtd">
<svg xmlns:xlink="http://www.w3.org/1999/xlink" width="460.8pt" height="345.6pt" viewBox="0 0 460.8 345.6" xmlns="http://www.w3.org/2000/svg" version="1.1">
 <metadata>
  <rdf:RDF xmlns:dc="http://purl.org/dc/elements/1.1/" xmlns:cc="http://creativecommons.org/ns#" xmlns:rdf="http://www.w3.org/1999/02/22-rdf-syntax-ns#">
   <cc:Work>
    <dc:type rdf:resource="http://purl.org/dc/dcmitype/StillImage"/>
    <dc:date>2023-04-25T17:47:05.318539</dc:date>
    <dc:format>image/svg+xml</dc:format>
    <dc:creator>
     <cc:Agent>
      <dc:title>Matplotlib v3.7.0, https://matplotlib.org/</dc:title>
     </cc:Agent>
    </dc:creator>
   </cc:Work>
  </rdf:RDF>
 </metadata>
 <defs>
  <style type="text/css">*{stroke-linejoin: round; stroke-linecap: butt}</style>
 </defs>
 <g id="figure_1">
  <g id="patch_1">
   <path d="M 0 345.6 
L 460.8 345.6 
L 460.8 0 
L 0 0 
z
" style="fill: #ffffff"/>
  </g>
  <g id="axes_1">
   <g id="patch_2">
    <path d="M 57.6 307.584 
L 414.72 307.584 
L 414.72 41.472 
L 57.6 41.472 
z
" style="fill: #ffffff"/>
   </g>
   <g id="matplotlib.axis_1">
    <g id="xtick_1">
     <g id="line2d_1">
      <defs>
       <path id="md444437644" d="M 0 0 
L 0 3.5 
" style="stroke: #000000; stroke-width: 0.8"/>
      </defs>
      <g>
       <use xlink:href="#md444437644" x="68.330108" y="307.584" style="stroke: #000000; stroke-width: 0.8"/>
      </g>
     </g>
     <g id="text_1">
      <!-- 0 -->
      <g transform="translate(65.148858 322.182437) scale(0.1 -0.1)">
       <defs>
        <path id="DejaVuSans-30" d="M 2034 4250 
Q 1547 4250 1301 3770 
Q 1056 3291 1056 2328 
Q 1056 1369 1301 889 
Q 1547 409 2034 409 
Q 2525 409 2770 889 
Q 3016 1369 3016 2328 
Q 3016 3291 2770 3770 
Q 2525 4250 2034 4250 
z
M 2034 4750 
Q 2819 4750 3233 4129 
Q 3647 3509 3647 2328 
Q 3647 1150 3233 529 
Q 2819 -91 2034 -91 
Q 1250 -91 836 529 
Q 422 1150 422 2328 
Q 422 3509 836 4129 
Q 1250 4750 2034 4750 
z
" transform="scale(0.015625)"/>
       </defs>
       <use xlink:href="#DejaVuSans-30"/>
      </g>
     </g>
    </g>
    <g id="xtick_2">
     <g id="line2d_2">
      <g>
       <use xlink:href="#md444437644" x="123.356302" y="307.584" style="stroke: #000000; stroke-width: 0.8"/>
      </g>
     </g>
     <g id="text_2">
      <!-- 10 -->
      <g transform="translate(116.993802 322.182437) scale(0.1 -0.1)">
       <defs>
        <path id="DejaVuSans-31" d="M 794 531 
L 1825 531 
L 1825 4091 
L 703 3866 
L 703 4441 
L 1819 4666 
L 2450 4666 
L 2450 531 
L 3481 531 
L 3481 0 
L 794 0 
L 794 531 
z
" transform="scale(0.015625)"/>
       </defs>
       <use xlink:href="#DejaVuSans-31"/>
       <use xlink:href="#DejaVuSans-30" x="63.623047"/>
      </g>
     </g>
    </g>
    <g id="xtick_3">
     <g id="line2d_3">
      <g>
       <use xlink:href="#md444437644" x="178.382496" y="307.584" style="stroke: #000000; stroke-width: 0.8"/>
      </g>
     </g>
     <g id="text_3">
      <!-- 20 -->
      <g transform="translate(172.019996 322.182437) scale(0.1 -0.1)">
       <defs>
        <path id="DejaVuSans-32" d="M 1228 531 
L 3431 531 
L 3431 0 
L 469 0 
L 469 531 
Q 828 903 1448 1529 
Q 2069 2156 2228 2338 
Q 2531 2678 2651 2914 
Q 2772 3150 2772 3378 
Q 2772 3750 2511 3984 
Q 2250 4219 1831 4219 
Q 1534 4219 1204 4116 
Q 875 4013 500 3803 
L 500 4441 
Q 881 4594 1212 4672 
Q 1544 4750 1819 4750 
Q 2544 4750 2975 4387 
Q 3406 4025 3406 3419 
Q 3406 3131 3298 2873 
Q 3191 2616 2906 2266 
Q 2828 2175 2409 1742 
Q 1991 1309 1228 531 
z
" transform="scale(0.015625)"/>
       </defs>
       <use xlink:href="#DejaVuSans-32"/>
       <use xlink:href="#DejaVuSans-30" x="63.623047"/>
      </g>
     </g>
    </g>
    <g id="xtick_4">
     <g id="line2d_4">
      <g>
       <use xlink:href="#md444437644" x="233.40869" y="307.584" style="stroke: #000000; stroke-width: 0.8"/>
      </g>
     </g>
     <g id="text_4">
      <!-- 30 -->
      <g transform="translate(227.04619 322.182437) scale(0.1 -0.1)">
       <defs>
        <path id="DejaVuSans-33" d="M 2597 2516 
Q 3050 2419 3304 2112 
Q 3559 1806 3559 1356 
Q 3559 666 3084 287 
Q 2609 -91 1734 -91 
Q 1441 -91 1130 -33 
Q 819 25 488 141 
L 488 750 
Q 750 597 1062 519 
Q 1375 441 1716 441 
Q 2309 441 2620 675 
Q 2931 909 2931 1356 
Q 2931 1769 2642 2001 
Q 2353 2234 1838 2234 
L 1294 2234 
L 1294 2753 
L 1863 2753 
Q 2328 2753 2575 2939 
Q 2822 3125 2822 3475 
Q 2822 3834 2567 4026 
Q 2313 4219 1838 4219 
Q 1578 4219 1281 4162 
Q 984 4106 628 3988 
L 628 4550 
Q 988 4650 1302 4700 
Q 1616 4750 1894 4750 
Q 2613 4750 3031 4423 
Q 3450 4097 3450 3541 
Q 3450 3153 3228 2886 
Q 3006 2619 2597 2516 
z
" transform="scale(0.015625)"/>
       </defs>
       <use xlink:href="#DejaVuSans-33"/>
       <use xlink:href="#DejaVuSans-30" x="63.623047"/>
      </g>
     </g>
    </g>
    <g id="xtick_5">
     <g id="line2d_5">
      <g>
       <use xlink:href="#md444437644" x="288.434884" y="307.584" style="stroke: #000000; stroke-width: 0.8"/>
      </g>
     </g>
     <g id="text_5">
      <!-- 40 -->
      <g transform="translate(282.072384 322.182437) scale(0.1 -0.1)">
       <defs>
        <path id="DejaVuSans-34" d="M 2419 4116 
L 825 1625 
L 2419 1625 
L 2419 4116 
z
M 2253 4666 
L 3047 4666 
L 3047 1625 
L 3713 1625 
L 3713 1100 
L 3047 1100 
L 3047 0 
L 2419 0 
L 2419 1100 
L 313 1100 
L 313 1709 
L 2253 4666 
z
" transform="scale(0.015625)"/>
       </defs>
       <use xlink:href="#DejaVuSans-34"/>
       <use xlink:href="#DejaVuSans-30" x="63.623047"/>
      </g>
     </g>
    </g>
    <g id="xtick_6">
     <g id="line2d_6">
      <g>
       <use xlink:href="#md444437644" x="343.461079" y="307.584" style="stroke: #000000; stroke-width: 0.8"/>
      </g>
     </g>
     <g id="text_6">
      <!-- 50 -->
      <g transform="translate(337.098579 322.182437) scale(0.1 -0.1)">
       <defs>
        <path id="DejaVuSans-35" d="M 691 4666 
L 3169 4666 
L 3169 4134 
L 1269 4134 
L 1269 2991 
Q 1406 3038 1543 3061 
Q 1681 3084 1819 3084 
Q 2600 3084 3056 2656 
Q 3513 2228 3513 1497 
Q 3513 744 3044 326 
Q 2575 -91 1722 -91 
Q 1428 -91 1123 -41 
Q 819 9 494 109 
L 494 744 
Q 775 591 1075 516 
Q 1375 441 1709 441 
Q 2250 441 2565 725 
Q 2881 1009 2881 1497 
Q 2881 1984 2565 2268 
Q 2250 2553 1709 2553 
Q 1456 2553 1204 2497 
Q 953 2441 691 2322 
L 691 4666 
z
" transform="scale(0.015625)"/>
       </defs>
       <use xlink:href="#DejaVuSans-35"/>
       <use xlink:href="#DejaVuSans-30" x="63.623047"/>
      </g>
     </g>
    </g>
    <g id="xtick_7">
     <g id="line2d_7">
      <g>
       <use xlink:href="#md444437644" x="398.487273" y="307.584" style="stroke: #000000; stroke-width: 0.8"/>
      </g>
     </g>
     <g id="text_7">
      <!-- 60 -->
      <g transform="translate(392.124773 322.182437) scale(0.1 -0.1)">
       <defs>
        <path id="DejaVuSans-36" d="M 2113 2584 
Q 1688 2584 1439 2293 
Q 1191 2003 1191 1497 
Q 1191 994 1439 701 
Q 1688 409 2113 409 
Q 2538 409 2786 701 
Q 3034 994 3034 1497 
Q 3034 2003 2786 2293 
Q 2538 2584 2113 2584 
z
M 3366 4563 
L 3366 3988 
Q 3128 4100 2886 4159 
Q 2644 4219 2406 4219 
Q 1781 4219 1451 3797 
Q 1122 3375 1075 2522 
Q 1259 2794 1537 2939 
Q 1816 3084 2150 3084 
Q 2853 3084 3261 2657 
Q 3669 2231 3669 1497 
Q 3669 778 3244 343 
Q 2819 -91 2113 -91 
Q 1303 -91 875 529 
Q 447 1150 447 2328 
Q 447 3434 972 4092 
Q 1497 4750 2381 4750 
Q 2619 4750 2861 4703 
Q 3103 4656 3366 4563 
z
" transform="scale(0.015625)"/>
       </defs>
       <use xlink:href="#DejaVuSans-36"/>
       <use xlink:href="#DejaVuSans-30" x="63.623047"/>
      </g>
     </g>
    </g>
    <g id="text_8">
     <!-- passage -->
     <g transform="translate(215.3975 335.860562) scale(0.1 -0.1)">
      <defs>
       <path id="DejaVuSans-70" d="M 1159 525 
L 1159 -1331 
L 581 -1331 
L 581 3500 
L 1159 3500 
L 1159 2969 
Q 1341 3281 1617 3432 
Q 1894 3584 2278 3584 
Q 2916 3584 3314 3078 
Q 3713 2572 3713 1747 
Q 3713 922 3314 415 
Q 2916 -91 2278 -91 
Q 1894 -91 1617 61 
Q 1341 213 1159 525 
z
M 3116 1747 
Q 3116 2381 2855 2742 
Q 2594 3103 2138 3103 
Q 1681 3103 1420 2742 
Q 1159 2381 1159 1747 
Q 1159 1113 1420 752 
Q 1681 391 2138 391 
Q 2594 391 2855 752 
Q 3116 1113 3116 1747 
z
" transform="scale(0.015625)"/>
       <path id="DejaVuSans-61" d="M 2194 1759 
Q 1497 1759 1228 1600 
Q 959 1441 959 1056 
Q 959 750 1161 570 
Q 1363 391 1709 391 
Q 2188 391 2477 730 
Q 2766 1069 2766 1631 
L 2766 1759 
L 2194 1759 
z
M 3341 1997 
L 3341 0 
L 2766 0 
L 2766 531 
Q 2569 213 2275 61 
Q 1981 -91 1556 -91 
Q 1019 -91 701 211 
Q 384 513 384 1019 
Q 384 1609 779 1909 
Q 1175 2209 1959 2209 
L 2766 2209 
L 2766 2266 
Q 2766 2663 2505 2880 
Q 2244 3097 1772 3097 
Q 1472 3097 1187 3025 
Q 903 2953 641 2809 
L 641 3341 
Q 956 3463 1253 3523 
Q 1550 3584 1831 3584 
Q 2591 3584 2966 3190 
Q 3341 2797 3341 1997 
z
" transform="scale(0.015625)"/>
       <path id="DejaVuSans-73" d="M 2834 3397 
L 2834 2853 
Q 2591 2978 2328 3040 
Q 2066 3103 1784 3103 
Q 1356 3103 1142 2972 
Q 928 2841 928 2578 
Q 928 2378 1081 2264 
Q 1234 2150 1697 2047 
L 1894 2003 
Q 2506 1872 2764 1633 
Q 3022 1394 3022 966 
Q 3022 478 2636 193 
Q 2250 -91 1575 -91 
Q 1294 -91 989 -36 
Q 684 19 347 128 
L 347 722 
Q 666 556 975 473 
Q 1284 391 1588 391 
Q 1994 391 2212 530 
Q 2431 669 2431 922 
Q 2431 1156 2273 1281 
Q 2116 1406 1581 1522 
L 1381 1569 
Q 847 1681 609 1914 
Q 372 2147 372 2553 
Q 372 3047 722 3315 
Q 1072 3584 1716 3584 
Q 2034 3584 2315 3537 
Q 2597 3491 2834 3397 
z
" transform="scale(0.015625)"/>
       <path id="DejaVuSans-67" d="M 2906 1791 
Q 2906 2416 2648 2759 
Q 2391 3103 1925 3103 
Q 1463 3103 1205 2759 
Q 947 2416 947 1791 
Q 947 1169 1205 825 
Q 1463 481 1925 481 
Q 2391 481 2648 825 
Q 2906 1169 2906 1791 
z
M 3481 434 
Q 3481 -459 3084 -895 
Q 2688 -1331 1869 -1331 
Q 1566 -1331 1297 -1286 
Q 1028 -1241 775 -1147 
L 775 -588 
Q 1028 -725 1275 -790 
Q 1522 -856 1778 -856 
Q 2344 -856 2625 -561 
Q 2906 -266 2906 331 
L 2906 616 
Q 2728 306 2450 153 
Q 2172 0 1784 0 
Q 1141 0 747 490 
Q 353 981 353 1791 
Q 353 2603 747 3093 
Q 1141 3584 1784 3584 
Q 2172 3584 2450 3431 
Q 2728 3278 2906 2969 
L 2906 3500 
L 3481 3500 
L 3481 434 
z
" transform="scale(0.015625)"/>
       <path id="DejaVuSans-65" d="M 3597 1894 
L 3597 1613 
L 953 1613 
Q 991 1019 1311 708 
Q 1631 397 2203 397 
Q 2534 397 2845 478 
Q 3156 559 3463 722 
L 3463 178 
Q 3153 47 2828 -22 
Q 2503 -91 2169 -91 
Q 1331 -91 842 396 
Q 353 884 353 1716 
Q 353 2575 817 3079 
Q 1281 3584 2069 3584 
Q 2775 3584 3186 3129 
Q 3597 2675 3597 1894 
z
M 3022 2063 
Q 3016 2534 2758 2815 
Q 2500 3097 2075 3097 
Q 1594 3097 1305 2825 
Q 1016 2553 972 2059 
L 3022 2063 
z
" transform="scale(0.015625)"/>
      </defs>
      <use xlink:href="#DejaVuSans-70"/>
      <use xlink:href="#DejaVuSans-61" x="63.476562"/>
      <use xlink:href="#DejaVuSans-73" x="124.755859"/>
      <use xlink:href="#DejaVuSans-73" x="176.855469"/>
      <use xlink:href="#DejaVuSans-61" x="228.955078"/>
      <use xlink:href="#DejaVuSans-67" x="290.234375"/>
      <use xlink:href="#DejaVuSans-65" x="353.710938"/>
     </g>
    </g>
   </g>
   <g id="matplotlib.axis_2">
    <g id="ytick_1">
     <g id="line2d_8">
      <defs>
       <path id="mc7f488d6a3" d="M 0 0 
L -3.5 0 
" style="stroke: #000000; stroke-width: 0.8"/>
      </defs>
      <g>
       <use xlink:href="#mc7f488d6a3" x="57.6" y="276.471136" style="stroke: #000000; stroke-width: 0.8"/>
      </g>
     </g>
     <g id="text_9">
      <!-- $\mathdefault{10^{-4}}$ -->
      <g transform="translate(27.1 280.270355) scale(0.1 -0.1)">
       <defs>
        <path id="DejaVuSans-2212" d="M 678 2272 
L 4684 2272 
L 4684 1741 
L 678 1741 
L 678 2272 
z
" transform="scale(0.015625)"/>
       </defs>
       <use xlink:href="#DejaVuSans-31" transform="translate(0 0.684375)"/>
       <use xlink:href="#DejaVuSans-30" transform="translate(63.623047 0.684375)"/>
       <use xlink:href="#DejaVuSans-2212" transform="translate(128.203125 38.965625) scale(0.7)"/>
       <use xlink:href="#DejaVuSans-34" transform="translate(186.855469 38.965625) scale(0.7)"/>
      </g>
     </g>
    </g>
    <g id="ytick_2">
     <g id="line2d_9">
      <g>
       <use xlink:href="#mc7f488d6a3" x="57.6" y="216.968118" style="stroke: #000000; stroke-width: 0.8"/>
      </g>
     </g>
     <g id="text_10">
      <!-- $\mathdefault{10^{-3}}$ -->
      <g transform="translate(27.1 220.767337) scale(0.1 -0.1)">
       <use xlink:href="#DejaVuSans-31" transform="translate(0 0.765625)"/>
       <use xlink:href="#DejaVuSans-30" transform="translate(63.623047 0.765625)"/>
       <use xlink:href="#DejaVuSans-2212" transform="translate(128.203125 39.046875) scale(0.7)"/>
       <use xlink:href="#DejaVuSans-33" transform="translate(186.855469 39.046875) scale(0.7)"/>
      </g>
     </g>
    </g>
    <g id="ytick_3">
     <g id="line2d_10">
      <g>
       <use xlink:href="#mc7f488d6a3" x="57.6" y="157.4651" style="stroke: #000000; stroke-width: 0.8"/>
      </g>
     </g>
     <g id="text_11">
      <!-- $\mathdefault{10^{-2}}$ -->
      <g transform="translate(27.1 161.264319) scale(0.1 -0.1)">
       <use xlink:href="#DejaVuSans-31" transform="translate(0 0.765625)"/>
       <use xlink:href="#DejaVuSans-30" transform="translate(63.623047 0.765625)"/>
       <use xlink:href="#DejaVuSans-2212" transform="translate(128.203125 39.046875) scale(0.7)"/>
       <use xlink:href="#DejaVuSans-32" transform="translate(186.855469 39.046875) scale(0.7)"/>
      </g>
     </g>
    </g>
    <g id="ytick_4">
     <g id="line2d_11">
      <g>
       <use xlink:href="#mc7f488d6a3" x="57.6" y="97.962081" style="stroke: #000000; stroke-width: 0.8"/>
      </g>
     </g>
     <g id="text_12">
      <!-- $\mathdefault{10^{-1}}$ -->
      <g transform="translate(27.1 101.7613) scale(0.1 -0.1)">
       <use xlink:href="#DejaVuSans-31" transform="translate(0 0.684375)"/>
       <use xlink:href="#DejaVuSans-30" transform="translate(63.623047 0.684375)"/>
       <use xlink:href="#DejaVuSans-2212" transform="translate(128.203125 38.965625) scale(0.7)"/>
       <use xlink:href="#DejaVuSans-31" transform="translate(186.855469 38.965625) scale(0.7)"/>
      </g>
     </g>
    </g>
    <g id="ytick_5">
     <g id="line2d_12">
      <defs>
       <path id="m06ec9e2782" d="M 0 0 
L -2 0 
" style="stroke: #000000; stroke-width: 0.6"/>
      </defs>
      <g>
       <use xlink:href="#m06ec9e2782" x="57.6" y="307.584" style="stroke: #000000; stroke-width: 0.6"/>
      </g>
     </g>
    </g>
    <g id="ytick_6">
     <g id="line2d_13">
      <g>
       <use xlink:href="#m06ec9e2782" x="57.6" y="300.149768" style="stroke: #000000; stroke-width: 0.6"/>
      </g>
     </g>
    </g>
    <g id="ytick_7">
     <g id="line2d_14">
      <g>
       <use xlink:href="#m06ec9e2782" x="57.6" y="294.38333" style="stroke: #000000; stroke-width: 0.6"/>
      </g>
     </g>
    </g>
    <g id="ytick_8">
     <g id="line2d_15">
      <g>
       <use xlink:href="#m06ec9e2782" x="57.6" y="289.671807" style="stroke: #000000; stroke-width: 0.6"/>
      </g>
     </g>
    </g>
    <g id="ytick_9">
     <g id="line2d_16">
      <g>
       <use xlink:href="#m06ec9e2782" x="57.6" y="285.688271" style="stroke: #000000; stroke-width: 0.6"/>
      </g>
     </g>
    </g>
    <g id="ytick_10">
     <g id="line2d_17">
      <g>
       <use xlink:href="#m06ec9e2782" x="57.6" y="282.237575" style="stroke: #000000; stroke-width: 0.6"/>
      </g>
     </g>
    </g>
    <g id="ytick_11">
     <g id="line2d_18">
      <g>
       <use xlink:href="#m06ec9e2782" x="57.6" y="279.193845" style="stroke: #000000; stroke-width: 0.6"/>
      </g>
     </g>
    </g>
    <g id="ytick_12">
     <g id="line2d_19">
      <g>
       <use xlink:href="#m06ec9e2782" x="57.6" y="258.558943" style="stroke: #000000; stroke-width: 0.6"/>
      </g>
     </g>
    </g>
    <g id="ytick_13">
     <g id="line2d_20">
      <g>
       <use xlink:href="#m06ec9e2782" x="57.6" y="248.080982" style="stroke: #000000; stroke-width: 0.6"/>
      </g>
     </g>
    </g>
    <g id="ytick_14">
     <g id="line2d_21">
      <g>
       <use xlink:href="#m06ec9e2782" x="57.6" y="240.64675" style="stroke: #000000; stroke-width: 0.6"/>
      </g>
     </g>
    </g>
    <g id="ytick_15">
     <g id="line2d_22">
      <g>
       <use xlink:href="#m06ec9e2782" x="57.6" y="234.880311" style="stroke: #000000; stroke-width: 0.6"/>
      </g>
     </g>
    </g>
    <g id="ytick_16">
     <g id="line2d_23">
      <g>
       <use xlink:href="#m06ec9e2782" x="57.6" y="230.168788" style="stroke: #000000; stroke-width: 0.6"/>
      </g>
     </g>
    </g>
    <g id="ytick_17">
     <g id="line2d_24">
      <g>
       <use xlink:href="#m06ec9e2782" x="57.6" y="226.185252" style="stroke: #000000; stroke-width: 0.6"/>
      </g>
     </g>
    </g>
    <g id="ytick_18">
     <g id="line2d_25">
      <g>
       <use xlink:href="#m06ec9e2782" x="57.6" y="222.734556" style="stroke: #000000; stroke-width: 0.6"/>
      </g>
     </g>
    </g>
    <g id="ytick_19">
     <g id="line2d_26">
      <g>
       <use xlink:href="#m06ec9e2782" x="57.6" y="219.690827" style="stroke: #000000; stroke-width: 0.6"/>
      </g>
     </g>
    </g>
    <g id="ytick_20">
     <g id="line2d_27">
      <g>
       <use xlink:href="#m06ec9e2782" x="57.6" y="199.055925" style="stroke: #000000; stroke-width: 0.6"/>
      </g>
     </g>
    </g>
    <g id="ytick_21">
     <g id="line2d_28">
      <g>
       <use xlink:href="#m06ec9e2782" x="57.6" y="188.577963" style="stroke: #000000; stroke-width: 0.6"/>
      </g>
     </g>
    </g>
    <g id="ytick_22">
     <g id="line2d_29">
      <g>
       <use xlink:href="#m06ec9e2782" x="57.6" y="181.143731" style="stroke: #000000; stroke-width: 0.6"/>
      </g>
     </g>
    </g>
    <g id="ytick_23">
     <g id="line2d_30">
      <g>
       <use xlink:href="#m06ec9e2782" x="57.6" y="175.377293" style="stroke: #000000; stroke-width: 0.6"/>
      </g>
     </g>
    </g>
    <g id="ytick_24">
     <g id="line2d_31">
      <g>
       <use xlink:href="#m06ec9e2782" x="57.6" y="170.66577" style="stroke: #000000; stroke-width: 0.6"/>
      </g>
     </g>
    </g>
    <g id="ytick_25">
     <g id="line2d_32">
      <g>
       <use xlink:href="#m06ec9e2782" x="57.6" y="166.682234" style="stroke: #000000; stroke-width: 0.6"/>
      </g>
     </g>
    </g>
    <g id="ytick_26">
     <g id="line2d_33">
      <g>
       <use xlink:href="#m06ec9e2782" x="57.6" y="163.231538" style="stroke: #000000; stroke-width: 0.6"/>
      </g>
     </g>
    </g>
    <g id="ytick_27">
     <g id="line2d_34">
      <g>
       <use xlink:href="#m06ec9e2782" x="57.6" y="160.187809" style="stroke: #000000; stroke-width: 0.6"/>
      </g>
     </g>
    </g>
    <g id="ytick_28">
     <g id="line2d_35">
      <g>
       <use xlink:href="#m06ec9e2782" x="57.6" y="139.552906" style="stroke: #000000; stroke-width: 0.6"/>
      </g>
     </g>
    </g>
    <g id="ytick_29">
     <g id="line2d_36">
      <g>
       <use xlink:href="#m06ec9e2782" x="57.6" y="129.074945" style="stroke: #000000; stroke-width: 0.6"/>
      </g>
     </g>
    </g>
    <g id="ytick_30">
     <g id="line2d_37">
      <g>
       <use xlink:href="#m06ec9e2782" x="57.6" y="121.640713" style="stroke: #000000; stroke-width: 0.6"/>
      </g>
     </g>
    </g>
    <g id="ytick_31">
     <g id="line2d_38">
      <g>
       <use xlink:href="#m06ec9e2782" x="57.6" y="115.874275" style="stroke: #000000; stroke-width: 0.6"/>
      </g>
     </g>
    </g>
    <g id="ytick_32">
     <g id="line2d_39">
      <g>
       <use xlink:href="#m06ec9e2782" x="57.6" y="111.162752" style="stroke: #000000; stroke-width: 0.6"/>
      </g>
     </g>
    </g>
    <g id="ytick_33">
     <g id="line2d_40">
      <g>
       <use xlink:href="#m06ec9e2782" x="57.6" y="107.179216" style="stroke: #000000; stroke-width: 0.6"/>
      </g>
     </g>
    </g>
    <g id="ytick_34">
     <g id="line2d_41">
      <g>
       <use xlink:href="#m06ec9e2782" x="57.6" y="103.72852" style="stroke: #000000; stroke-width: 0.6"/>
      </g>
     </g>
    </g>
    <g id="ytick_35">
     <g id="line2d_42">
      <g>
       <use xlink:href="#m06ec9e2782" x="57.6" y="100.68479" style="stroke: #000000; stroke-width: 0.6"/>
      </g>
     </g>
    </g>
    <g id="ytick_36">
     <g id="line2d_43">
      <g>
       <use xlink:href="#m06ec9e2782" x="57.6" y="80.049888" style="stroke: #000000; stroke-width: 0.6"/>
      </g>
     </g>
    </g>
    <g id="ytick_37">
     <g id="line2d_44">
      <g>
       <use xlink:href="#m06ec9e2782" x="57.6" y="69.571927" style="stroke: #000000; stroke-width: 0.6"/>
      </g>
     </g>
    </g>
    <g id="ytick_38">
     <g id="line2d_45">
      <g>
       <use xlink:href="#m06ec9e2782" x="57.6" y="62.137695" style="stroke: #000000; stroke-width: 0.6"/>
      </g>
     </g>
    </g>
    <g id="ytick_39">
     <g id="line2d_46">
      <g>
       <use xlink:href="#m06ec9e2782" x="57.6" y="56.371256" style="stroke: #000000; stroke-width: 0.6"/>
      </g>
     </g>
    </g>
    <g id="ytick_40">
     <g id="line2d_47">
      <g>
       <use xlink:href="#m06ec9e2782" x="57.6" y="51.659733" style="stroke: #000000; stroke-width: 0.6"/>
      </g>
     </g>
    </g>
    <g id="ytick_41">
     <g id="line2d_48">
      <g>
       <use xlink:href="#m06ec9e2782" x="57.6" y="47.676197" style="stroke: #000000; stroke-width: 0.6"/>
      </g>
     </g>
    </g>
    <g id="ytick_42">
     <g id="line2d_49">
      <g>
       <use xlink:href="#m06ec9e2782" x="57.6" y="44.225501" style="stroke: #000000; stroke-width: 0.6"/>
      </g>
     </g>
    </g>
    <g id="text_13">
     <!-- relative abundance -->
     <g transform="translate(21.020312 222.783469) rotate(-90) scale(0.1 -0.1)">
      <defs>
       <path id="DejaVuSans-72" d="M 2631 2963 
Q 2534 3019 2420 3045 
Q 2306 3072 2169 3072 
Q 1681 3072 1420 2755 
Q 1159 2438 1159 1844 
L 1159 0 
L 581 0 
L 581 3500 
L 1159 3500 
L 1159 2956 
Q 1341 3275 1631 3429 
Q 1922 3584 2338 3584 
Q 2397 3584 2469 3576 
Q 2541 3569 2628 3553 
L 2631 2963 
z
" transform="scale(0.015625)"/>
       <path id="DejaVuSans-6c" d="M 603 4863 
L 1178 4863 
L 1178 0 
L 603 0 
L 603 4863 
z
" transform="scale(0.015625)"/>
       <path id="DejaVuSans-74" d="M 1172 4494 
L 1172 3500 
L 2356 3500 
L 2356 3053 
L 1172 3053 
L 1172 1153 
Q 1172 725 1289 603 
Q 1406 481 1766 481 
L 2356 481 
L 2356 0 
L 1766 0 
Q 1100 0 847 248 
Q 594 497 594 1153 
L 594 3053 
L 172 3053 
L 172 3500 
L 594 3500 
L 594 4494 
L 1172 4494 
z
" transform="scale(0.015625)"/>
       <path id="DejaVuSans-69" d="M 603 3500 
L 1178 3500 
L 1178 0 
L 603 0 
L 603 3500 
z
M 603 4863 
L 1178 4863 
L 1178 4134 
L 603 4134 
L 603 4863 
z
" transform="scale(0.015625)"/>
       <path id="DejaVuSans-76" d="M 191 3500 
L 800 3500 
L 1894 563 
L 2988 3500 
L 3597 3500 
L 2284 0 
L 1503 0 
L 191 3500 
z
" transform="scale(0.015625)"/>
       <path id="DejaVuSans-20" transform="scale(0.015625)"/>
       <path id="DejaVuSans-62" d="M 3116 1747 
Q 3116 2381 2855 2742 
Q 2594 3103 2138 3103 
Q 1681 3103 1420 2742 
Q 1159 2381 1159 1747 
Q 1159 1113 1420 752 
Q 1681 391 2138 391 
Q 2594 391 2855 752 
Q 3116 1113 3116 1747 
z
M 1159 2969 
Q 1341 3281 1617 3432 
Q 1894 3584 2278 3584 
Q 2916 3584 3314 3078 
Q 3713 2572 3713 1747 
Q 3713 922 3314 415 
Q 2916 -91 2278 -91 
Q 1894 -91 1617 61 
Q 1341 213 1159 525 
L 1159 0 
L 581 0 
L 581 4863 
L 1159 4863 
L 1159 2969 
z
" transform="scale(0.015625)"/>
       <path id="DejaVuSans-75" d="M 544 1381 
L 544 3500 
L 1119 3500 
L 1119 1403 
Q 1119 906 1312 657 
Q 1506 409 1894 409 
Q 2359 409 2629 706 
Q 2900 1003 2900 1516 
L 2900 3500 
L 3475 3500 
L 3475 0 
L 2900 0 
L 2900 538 
Q 2691 219 2414 64 
Q 2138 -91 1772 -91 
Q 1169 -91 856 284 
Q 544 659 544 1381 
z
M 1991 3584 
L 1991 3584 
z
" transform="scale(0.015625)"/>
       <path id="DejaVuSans-6e" d="M 3513 2113 
L 3513 0 
L 2938 0 
L 2938 2094 
Q 2938 2591 2744 2837 
Q 2550 3084 2163 3084 
Q 1697 3084 1428 2787 
Q 1159 2491 1159 1978 
L 1159 0 
L 581 0 
L 581 3500 
L 1159 3500 
L 1159 2956 
Q 1366 3272 1645 3428 
Q 1925 3584 2291 3584 
Q 2894 3584 3203 3211 
Q 3513 2838 3513 2113 
z
" transform="scale(0.015625)"/>
       <path id="DejaVuSans-64" d="M 2906 2969 
L 2906 4863 
L 3481 4863 
L 3481 0 
L 2906 0 
L 2906 525 
Q 2725 213 2448 61 
Q 2172 -91 1784 -91 
Q 1150 -91 751 415 
Q 353 922 353 1747 
Q 353 2572 751 3078 
Q 1150 3584 1784 3584 
Q 2172 3584 2448 3432 
Q 2725 3281 2906 2969 
z
M 947 1747 
Q 947 1113 1208 752 
Q 1469 391 1925 391 
Q 2381 391 2643 752 
Q 2906 1113 2906 1747 
Q 2906 2381 2643 2742 
Q 2381 3103 1925 3103 
Q 1469 3103 1208 2742 
Q 947 2381 947 1747 
z
" transform="scale(0.015625)"/>
       <path id="DejaVuSans-63" d="M 3122 3366 
L 3122 2828 
Q 2878 2963 2633 3030 
Q 2388 3097 2138 3097 
Q 1578 3097 1268 2742 
Q 959 2388 959 1747 
Q 959 1106 1268 751 
Q 1578 397 2138 397 
Q 2388 397 2633 464 
Q 2878 531 3122 666 
L 3122 134 
Q 2881 22 2623 -34 
Q 2366 -91 2075 -91 
Q 1284 -91 818 406 
Q 353 903 353 1747 
Q 353 2603 823 3093 
Q 1294 3584 2113 3584 
Q 2378 3584 2631 3529 
Q 2884 3475 3122 3366 
z
" transform="scale(0.015625)"/>
      </defs>
      <use xlink:href="#DejaVuSans-72"/>
      <use xlink:href="#DejaVuSans-65" x="38.863281"/>
      <use xlink:href="#DejaVuSans-6c" x="100.386719"/>
      <use xlink:href="#DejaVuSans-61" x="128.169922"/>
      <use xlink:href="#DejaVuSans-74" x="189.449219"/>
      <use xlink:href="#DejaVuSans-69" x="228.658203"/>
      <use xlink:href="#DejaVuSans-76" x="256.441406"/>
      <use xlink:href="#DejaVuSans-65" x="315.621094"/>
      <use xlink:href="#DejaVuSans-20" x="377.144531"/>
      <use xlink:href="#DejaVuSans-61" x="408.931641"/>
      <use xlink:href="#DejaVuSans-62" x="470.210938"/>
      <use xlink:href="#DejaVuSans-75" x="533.6875"/>
      <use xlink:href="#DejaVuSans-6e" x="597.066406"/>
      <use xlink:href="#DejaVuSans-64" x="660.445312"/>
      <use xlink:href="#DejaVuSans-61" x="723.921875"/>
      <use xlink:href="#DejaVuSans-6e" x="785.201172"/>
      <use xlink:href="#DejaVuSans-63" x="848.580078"/>
      <use xlink:href="#DejaVuSans-65" x="903.560547"/>
     </g>
    </g>
   </g>
   <g id="line2d_50">
    <path d="M 73.832727 42.732827 
L 79.335347 49.108354 
L 90.340586 50.066536 
L 101.345824 50.925031 
L 112.351063 59.776017 
L 123.356302 89.815358 
L 134.361541 115.33236 
L 145.36678 120.908333 
L 156.372018 124.834114 
L 167.377257 125.935605 
L 178.382496 125.726791 
L 189.387735 129.992396 
L 194.890354 121.941782 
L 211.398213 132.751182 
L 222.403451 126.109031 
L 233.40869 120.188086 
L 244.413929 129.009089 
L 255.419168 121.51191 
L 266.424407 119.893854 
L 277.429646 128.742424 
L 288.434884 128.997033 
L 299.440123 128.419363 
L 310.445362 122.039048 
L 321.450601 133.514254 
L 332.45584 133.456713 
L 343.461079 128.268147 
L 354.466317 131.800371 
L 365.471556 133.796391 
L 376.476795 140.683531 
L 387.482034 143.841979 
L 398.487273 201.140273 
" clip-path="url(#p8f8d326d49)" style="fill: none; stroke: #0000ff; stroke-width: 1.5; stroke-linecap: square"/>
    <defs>
     <path id="m004efc31e1" d="M 0 3 
C 0.795609 3 1.55874 2.683901 2.12132 2.12132 
C 2.683901 1.55874 3 0.795609 3 0 
C 3 -0.795609 2.683901 -1.55874 2.12132 -2.12132 
C 1.55874 -2.683901 0.795609 -3 0 -3 
C -0.795609 -3 -1.55874 -2.683901 -2.12132 -2.12132 
C -2.683901 -1.55874 -3 -0.795609 -3 0 
C -3 0.795609 -2.683901 1.55874 -2.12132 2.12132 
C -1.55874 2.683901 -0.795609 3 0 3 
z
" style="stroke: #0000ff"/>
    </defs>
    <g clip-path="url(#p8f8d326d49)">
     <use xlink:href="#m004efc31e1" x="73.832727" y="42.732827" style="fill: #0000ff; stroke: #0000ff"/>
     <use xlink:href="#m004efc31e1" x="79.335347" y="49.108354" style="fill: #0000ff; stroke: #0000ff"/>
     <use xlink:href="#m004efc31e1" x="90.340586" y="50.066536" style="fill: #0000ff; stroke: #0000ff"/>
     <use xlink:href="#m004efc31e1" x="101.345824" y="50.925031" style="fill: #0000ff; stroke: #0000ff"/>
     <use xlink:href="#m004efc31e1" x="112.351063" y="59.776017" style="fill: #0000ff; stroke: #0000ff"/>
     <use xlink:href="#m004efc31e1" x="123.356302" y="89.815358" style="fill: #0000ff; stroke: #0000ff"/>
     <use xlink:href="#m004efc31e1" x="134.361541" y="115.33236" style="fill: #0000ff; stroke: #0000ff"/>
     <use xlink:href="#m004efc31e1" x="145.36678" y="120.908333" style="fill: #0000ff; stroke: #0000ff"/>
     <use xlink:href="#m004efc31e1" x="156.372018" y="124.834114" style="fill: #0000ff; stroke: #0000ff"/>
     <use xlink:href="#m004efc31e1" x="167.377257" y="125.935605" style="fill: #0000ff; stroke: #0000ff"/>
     <use xlink:href="#m004efc31e1" x="178.382496" y="125.726791" style="fill: #0000ff; stroke: #0000ff"/>
     <use xlink:href="#m004efc31e1" x="189.387735" y="129.992396" style="fill: #0000ff; stroke: #0000ff"/>
     <use xlink:href="#m004efc31e1" x="194.890354" y="121.941782" style="fill: #0000ff; stroke: #0000ff"/>
     <use xlink:href="#m004efc31e1" x="211.398213" y="132.751182" style="fill: #0000ff; stroke: #0000ff"/>
     <use xlink:href="#m004efc31e1" x="222.403451" y="126.109031" style="fill: #0000ff; stroke: #0000ff"/>
     <use xlink:href="#m004efc31e1" x="233.40869" y="120.188086" style="fill: #0000ff; stroke: #0000ff"/>
     <use xlink:href="#m004efc31e1" x="244.413929" y="129.009089" style="fill: #0000ff; stroke: #0000ff"/>
     <use xlink:href="#m004efc31e1" x="255.419168" y="121.51191" style="fill: #0000ff; stroke: #0000ff"/>
     <use xlink:href="#m004efc31e1" x="266.424407" y="119.893854" style="fill: #0000ff; stroke: #0000ff"/>
     <use xlink:href="#m004efc31e1" x="277.429646" y="128.742424" style="fill: #0000ff; stroke: #0000ff"/>
     <use xlink:href="#m004efc31e1" x="288.434884" y="128.997033" style="fill: #0000ff; stroke: #0000ff"/>
     <use xlink:href="#m004efc31e1" x="299.440123" y="128.419363" style="fill: #0000ff; stroke: #0000ff"/>
     <use xlink:href="#m004efc31e1" x="310.445362" y="122.039048" style="fill: #0000ff; stroke: #0000ff"/>
     <use xlink:href="#m004efc31e1" x="321.450601" y="133.514254" style="fill: #0000ff; stroke: #0000ff"/>
     <use xlink:href="#m004efc31e1" x="332.45584" y="133.456713" style="fill: #0000ff; stroke: #0000ff"/>
     <use xlink:href="#m004efc31e1" x="343.461079" y="128.268147" style="fill: #0000ff; stroke: #0000ff"/>
     <use xlink:href="#m004efc31e1" x="354.466317" y="131.800371" style="fill: #0000ff; stroke: #0000ff"/>
     <use xlink:href="#m004efc31e1" x="365.471556" y="133.796391" style="fill: #0000ff; stroke: #0000ff"/>
     <use xlink:href="#m004efc31e1" x="376.476795" y="140.683531" style="fill: #0000ff; stroke: #0000ff"/>
     <use xlink:href="#m004efc31e1" x="387.482034" y="143.841979" style="fill: #0000ff; stroke: #0000ff"/>
     <use xlink:href="#m004efc31e1" x="398.487273" y="201.140273" style="fill: #0000ff; stroke: #0000ff"/>
    </g>
   </g>
   <g id="line2d_51">
    <path d="M 73.832727 178.978667 
L 79.335347 203.135709 
L 90.340586 190.096157 
L 101.345824 151.696235 
L 112.351063 86.80664 
L 123.356302 49.045151 
L 134.361541 56.221862 
L 145.36678 54.09352 
L 156.372018 52.65503 
L 167.377257 53.134424 
L 178.382496 58.262323 
L 189.387735 57.051532 
L 194.890354 59.968269 
L 211.398213 57.344891 
L 222.403451 55.862171 
L 233.40869 56.299643 
L 244.413929 53.123629 
L 255.419168 54.451843 
L 266.424407 56.419362 
L 277.429646 55.290305 
L 288.434884 56.391366 
L 299.440123 57.420566 
L 310.445362 59.629305 
L 321.450601 59.982205 
L 332.45584 61.049528 
L 343.461079 65.043315 
L 354.466317 65.603381 
L 365.471556 67.808683 
L 376.476795 69.746667 
L 387.482034 72.194094 
L 398.487273 68.089348 
" clip-path="url(#p8f8d326d49)" style="fill: none; stroke: #008000; stroke-width: 1.5; stroke-linecap: square"/>
    <defs>
     <path id="m2bf69d99cf" d="M 0 3 
C 0.795609 3 1.55874 2.683901 2.12132 2.12132 
C 2.683901 1.55874 3 0.795609 3 0 
C 3 -0.795609 2.683901 -1.55874 2.12132 -2.12132 
C 1.55874 -2.683901 0.795609 -3 0 -3 
C -0.795609 -3 -1.55874 -2.683901 -2.12132 -2.12132 
C -2.683901 -1.55874 -3 -0.795609 -3 0 
C -3 0.795609 -2.683901 1.55874 -2.12132 2.12132 
C -1.55874 2.683901 -0.795609 3 0 3 
z
" style="stroke: #008000"/>
    </defs>
    <g clip-path="url(#p8f8d326d49)">
     <use xlink:href="#m2bf69d99cf" x="73.832727" y="178.978667" style="fill: #008000; stroke: #008000"/>
     <use xlink:href="#m2bf69d99cf" x="79.335347" y="203.135709" style="fill: #008000; stroke: #008000"/>
     <use xlink:href="#m2bf69d99cf" x="90.340586" y="190.096157" style="fill: #008000; stroke: #008000"/>
     <use xlink:href="#m2bf69d99cf" x="101.345824" y="151.696235" style="fill: #008000; stroke: #008000"/>
     <use xlink:href="#m2bf69d99cf" x="112.351063" y="86.80664" style="fill: #008000; stroke: #008000"/>
     <use xlink:href="#m2bf69d99cf" x="123.356302" y="49.045151" style="fill: #008000; stroke: #008000"/>
     <use xlink:href="#m2bf69d99cf" x="134.361541" y="56.221862" style="fill: #008000; stroke: #008000"/>
     <use xlink:href="#m2bf69d99cf" x="145.36678" y="54.09352" style="fill: #008000; stroke: #008000"/>
     <use xlink:href="#m2bf69d99cf" x="156.372018" y="52.65503" style="fill: #008000; stroke: #008000"/>
     <use xlink:href="#m2bf69d99cf" x="167.377257" y="53.134424" style="fill: #008000; stroke: #008000"/>
     <use xlink:href="#m2bf69d99cf" x="178.382496" y="58.262323" style="fill: #008000; stroke: #008000"/>
     <use xlink:href="#m2bf69d99cf" x="189.387735" y="57.051532" style="fill: #008000; stroke: #008000"/>
     <use xlink:href="#m2bf69d99cf" x="194.890354" y="59.968269" style="fill: #008000; stroke: #008000"/>
     <use xlink:href="#m2bf69d99cf" x="211.398213" y="57.344891" style="fill: #008000; stroke: #008000"/>
     <use xlink:href="#m2bf69d99cf" x="222.403451" y="55.862171" style="fill: #008000; stroke: #008000"/>
     <use xlink:href="#m2bf69d99cf" x="233.40869" y="56.299643" style="fill: #008000; stroke: #008000"/>
     <use xlink:href="#m2bf69d99cf" x="244.413929" y="53.123629" style="fill: #008000; stroke: #008000"/>
     <use xlink:href="#m2bf69d99cf" x="255.419168" y="54.451843" style="fill: #008000; stroke: #008000"/>
     <use xlink:href="#m2bf69d99cf" x="266.424407" y="56.419362" style="fill: #008000; stroke: #008000"/>
     <use xlink:href="#m2bf69d99cf" x="277.429646" y="55.290305" style="fill: #008000; stroke: #008000"/>
     <use xlink:href="#m2bf69d99cf" x="288.434884" y="56.391366" style="fill: #008000; stroke: #008000"/>
     <use xlink:href="#m2bf69d99cf" x="299.440123" y="57.420566" style="fill: #008000; stroke: #008000"/>
     <use xlink:href="#m2bf69d99cf" x="310.445362" y="59.629305" style="fill: #008000; stroke: #008000"/>
     <use xlink:href="#m2bf69d99cf" x="321.450601" y="59.982205" style="fill: #008000; stroke: #008000"/>
     <use xlink:href="#m2bf69d99cf" x="332.45584" y="61.049528" style="fill: #008000; stroke: #008000"/>
     <use xlink:href="#m2bf69d99cf" x="343.461079" y="65.043315" style="fill: #008000; stroke: #008000"/>
     <use xlink:href="#m2bf69d99cf" x="354.466317" y="65.603381" style="fill: #008000; stroke: #008000"/>
     <use xlink:href="#m2bf69d99cf" x="365.471556" y="67.808683" style="fill: #008000; stroke: #008000"/>
     <use xlink:href="#m2bf69d99cf" x="376.476795" y="69.746667" style="fill: #008000; stroke: #008000"/>
     <use xlink:href="#m2bf69d99cf" x="387.482034" y="72.194094" style="fill: #008000; stroke: #008000"/>
     <use xlink:href="#m2bf69d99cf" x="398.487273" y="68.089348" style="fill: #008000; stroke: #008000"/>
    </g>
   </g>
   <g id="line2d_52">
    <path d="M 73.832727 257.946049 
L 79.335347 283.936931 
L 90.340586 277.919392 
L 101.345824 287.599398 
L 112.351063 212.880136 
L 123.356302 171.065478 
L 134.361541 170.581661 
L 145.36678 153.439909 
L 156.372018 133.740907 
L 167.377257 117.807405 
L 178.382496 106.862162 
L 189.387735 93.630486 
L 194.890354 89.081769 
L 211.398213 93.136793 
L 222.403451 99.628979 
L 233.40869 111.51386 
L 244.413929 111.697476 
L 255.419168 114.353504 
L 266.424407 116.341968 
L 277.429646 114.245608 
L 288.434884 109.299195 
L 299.440123 107.149667 
L 310.445362 102.68313 
L 321.450601 95.946196 
L 332.45584 89.570402 
L 343.461079 87.481601 
L 354.466317 83.924405 
L 365.471556 80.151132 
L 376.476795 76.977776 
L 387.482034 76.060244 
L 398.487273 67.79973 
" clip-path="url(#p8f8d326d49)" style="fill: none; stroke: #ffff00; stroke-width: 1.5; stroke-linecap: square"/>
    <defs>
     <path id="m6ad7e054ef" d="M 0 3 
C 0.795609 3 1.55874 2.683901 2.12132 2.12132 
C 2.683901 1.55874 3 0.795609 3 0 
C 3 -0.795609 2.683901 -1.55874 2.12132 -2.12132 
C 1.55874 -2.683901 0.795609 -3 0 -3 
C -0.795609 -3 -1.55874 -2.683901 -2.12132 -2.12132 
C -2.683901 -1.55874 -3 -0.795609 -3 0 
C -3 0.795609 -2.683901 1.55874 -2.12132 2.12132 
C -1.55874 2.683901 -0.795609 3 0 3 
z
" style="stroke: #ffff00"/>
    </defs>
    <g clip-path="url(#p8f8d326d49)">
     <use xlink:href="#m6ad7e054ef" x="73.832727" y="257.946049" style="fill: #ffff00; stroke: #ffff00"/>
     <use xlink:href="#m6ad7e054ef" x="79.335347" y="283.936931" style="fill: #ffff00; stroke: #ffff00"/>
     <use xlink:href="#m6ad7e054ef" x="90.340586" y="277.919392" style="fill: #ffff00; stroke: #ffff00"/>
     <use xlink:href="#m6ad7e054ef" x="101.345824" y="287.599398" style="fill: #ffff00; stroke: #ffff00"/>
     <use xlink:href="#m6ad7e054ef" x="112.351063" y="212.880136" style="fill: #ffff00; stroke: #ffff00"/>
     <use xlink:href="#m6ad7e054ef" x="123.356302" y="171.065478" style="fill: #ffff00; stroke: #ffff00"/>
     <use xlink:href="#m6ad7e054ef" x="134.361541" y="170.581661" style="fill: #ffff00; stroke: #ffff00"/>
     <use xlink:href="#m6ad7e054ef" x="145.36678" y="153.439909" style="fill: #ffff00; stroke: #ffff00"/>
     <use xlink:href="#m6ad7e054ef" x="156.372018" y="133.740907" style="fill: #ffff00; stroke: #ffff00"/>
     <use xlink:href="#m6ad7e054ef" x="167.377257" y="117.807405" style="fill: #ffff00; stroke: #ffff00"/>
     <use xlink:href="#m6ad7e054ef" x="178.382496" y="106.862162" style="fill: #ffff00; stroke: #ffff00"/>
     <use xlink:href="#m6ad7e054ef" x="189.387735" y="93.630486" style="fill: #ffff00; stroke: #ffff00"/>
     <use xlink:href="#m6ad7e054ef" x="194.890354" y="89.081769" style="fill: #ffff00; stroke: #ffff00"/>
     <use xlink:href="#m6ad7e054ef" x="211.398213" y="93.136793" style="fill: #ffff00; stroke: #ffff00"/>
     <use xlink:href="#m6ad7e054ef" x="222.403451" y="99.628979" style="fill: #ffff00; stroke: #ffff00"/>
     <use xlink:href="#m6ad7e054ef" x="233.40869" y="111.51386" style="fill: #ffff00; stroke: #ffff00"/>
     <use xlink:href="#m6ad7e054ef" x="244.413929" y="111.697476" style="fill: #ffff00; stroke: #ffff00"/>
     <use xlink:href="#m6ad7e054ef" x="255.419168" y="114.353504" style="fill: #ffff00; stroke: #ffff00"/>
     <use xlink:href="#m6ad7e054ef" x="266.424407" y="116.341968" style="fill: #ffff00; stroke: #ffff00"/>
     <use xlink:href="#m6ad7e054ef" x="277.429646" y="114.245608" style="fill: #ffff00; stroke: #ffff00"/>
     <use xlink:href="#m6ad7e054ef" x="288.434884" y="109.299195" style="fill: #ffff00; stroke: #ffff00"/>
     <use xlink:href="#m6ad7e054ef" x="299.440123" y="107.149667" style="fill: #ffff00; stroke: #ffff00"/>
     <use xlink:href="#m6ad7e054ef" x="310.445362" y="102.68313" style="fill: #ffff00; stroke: #ffff00"/>
     <use xlink:href="#m6ad7e054ef" x="321.450601" y="95.946196" style="fill: #ffff00; stroke: #ffff00"/>
     <use xlink:href="#m6ad7e054ef" x="332.45584" y="89.570402" style="fill: #ffff00; stroke: #ffff00"/>
     <use xlink:href="#m6ad7e054ef" x="343.461079" y="87.481601" style="fill: #ffff00; stroke: #ffff00"/>
     <use xlink:href="#m6ad7e054ef" x="354.466317" y="83.924405" style="fill: #ffff00; stroke: #ffff00"/>
     <use xlink:href="#m6ad7e054ef" x="365.471556" y="80.151132" style="fill: #ffff00; stroke: #ffff00"/>
     <use xlink:href="#m6ad7e054ef" x="376.476795" y="76.977776" style="fill: #ffff00; stroke: #ffff00"/>
     <use xlink:href="#m6ad7e054ef" x="387.482034" y="76.060244" style="fill: #ffff00; stroke: #ffff00"/>
     <use xlink:href="#m6ad7e054ef" x="398.487273" y="67.79973" style="fill: #ffff00; stroke: #ffff00"/>
    </g>
   </g>
   <g id="line2d_53">
    <path d="M 73.832727 197.875055 
L 79.335347 208.238783 
L 90.340586 205.369816 
L 101.345824 182.034423 
L 112.351063 158.897256 
L 123.356302 152.018118 
L 134.361541 180.522018 
L 145.36678 184.23021 
L 156.372018 186.700814 
L 167.377257 181.018848 
L 178.382496 175.961053 
L 189.387735 169.137212 
L 194.890354 157.888946 
L 211.398213 170.109233 
L 222.403451 174.277189 
L 233.40869 181.704107 
L 244.413929 190.486652 
L 255.419168 188.065248 
L 266.424407 188.969568 
L 277.429646 193.292039 
L 288.434884 189.883855 
L 299.440123 183.939318 
L 310.445362 175.282636 
L 321.450601 174.656979 
L 332.45584 169.360876 
L 343.461079 159.88133 
L 354.466317 159.931558 
L 365.471556 156.692972 
L 376.476795 155.127311 
L 387.482034 152.160945 
L 398.487273 195.540528 
" clip-path="url(#p8f8d326d49)" style="fill: none; stroke: #000000; stroke-width: 1.5; stroke-linecap: square"/>
    <defs>
     <path id="m54a3527b90" d="M 0 3 
C 0.795609 3 1.55874 2.683901 2.12132 2.12132 
C 2.683901 1.55874 3 0.795609 3 0 
C 3 -0.795609 2.683901 -1.55874 2.12132 -2.12132 
C 1.55874 -2.683901 0.795609 -3 0 -3 
C -0.795609 -3 -1.55874 -2.683901 -2.12132 -2.12132 
C -2.683901 -1.55874 -3 -0.795609 -3 0 
C -3 0.795609 -2.683901 1.55874 -2.12132 2.12132 
C -1.55874 2.683901 -0.795609 3 0 3 
z
" style="stroke: #000000"/>
    </defs>
    <g clip-path="url(#p8f8d326d49)">
     <use xlink:href="#m54a3527b90" x="73.832727" y="197.875055" style="stroke: #000000"/>
     <use xlink:href="#m54a3527b90" x="79.335347" y="208.238783" style="stroke: #000000"/>
     <use xlink:href="#m54a3527b90" x="90.340586" y="205.369816" style="stroke: #000000"/>
     <use xlink:href="#m54a3527b90" x="101.345824" y="182.034423" style="stroke: #000000"/>
     <use xlink:href="#m54a3527b90" x="112.351063" y="158.897256" style="stroke: #000000"/>
     <use xlink:href="#m54a3527b90" x="123.356302" y="152.018118" style="stroke: #000000"/>
     <use xlink:href="#m54a3527b90" x="134.361541" y="180.522018" style="stroke: #000000"/>
     <use xlink:href="#m54a3527b90" x="145.36678" y="184.23021" style="stroke: #000000"/>
     <use xlink:href="#m54a3527b90" x="156.372018" y="186.700814" style="stroke: #000000"/>
     <use xlink:href="#m54a3527b90" x="167.377257" y="181.018848" style="stroke: #000000"/>
     <use xlink:href="#m54a3527b90" x="178.382496" y="175.961053" style="stroke: #000000"/>
     <use xlink:href="#m54a3527b90" x="189.387735" y="169.137212" style="stroke: #000000"/>
     <use xlink:href="#m54a3527b90" x="194.890354" y="157.888946" style="stroke: #000000"/>
     <use xlink:href="#m54a3527b90" x="211.398213" y="170.109233" style="stroke: #000000"/>
     <use xlink:href="#m54a3527b90" x="222.403451" y="174.277189" style="stroke: #000000"/>
     <use xlink:href="#m54a3527b90" x="233.40869" y="181.704107" style="stroke: #000000"/>
     <use xlink:href="#m54a3527b90" x="244.413929" y="190.486652" style="stroke: #000000"/>
     <use xlink:href="#m54a3527b90" x="255.419168" y="188.065248" style="stroke: #000000"/>
     <use xlink:href="#m54a3527b90" x="266.424407" y="188.969568" style="stroke: #000000"/>
     <use xlink:href="#m54a3527b90" x="277.429646" y="193.292039" style="stroke: #000000"/>
     <use xlink:href="#m54a3527b90" x="288.434884" y="189.883855" style="stroke: #000000"/>
     <use xlink:href="#m54a3527b90" x="299.440123" y="183.939318" style="stroke: #000000"/>
     <use xlink:href="#m54a3527b90" x="310.445362" y="175.282636" style="stroke: #000000"/>
     <use xlink:href="#m54a3527b90" x="321.450601" y="174.656979" style="stroke: #000000"/>
     <use xlink:href="#m54a3527b90" x="332.45584" y="169.360876" style="stroke: #000000"/>
     <use xlink:href="#m54a3527b90" x="343.461079" y="159.88133" style="stroke: #000000"/>
     <use xlink:href="#m54a3527b90" x="354.466317" y="159.931558" style="stroke: #000000"/>
     <use xlink:href="#m54a3527b90" x="365.471556" y="156.692972" style="stroke: #000000"/>
     <use xlink:href="#m54a3527b90" x="376.476795" y="155.127311" style="stroke: #000000"/>
     <use xlink:href="#m54a3527b90" x="387.482034" y="152.160945" style="stroke: #000000"/>
     <use xlink:href="#m54a3527b90" x="398.487273" y="195.540528" style="stroke: #000000"/>
    </g>
   </g>
   <g id="line2d_54">
    <path d="M 73.832727 238.831693 
L 79.335347 188.831983 
L 90.340586 198.65153 
L 101.345824 194.442337 
L 112.351063 203.130161 
L 123.356302 277.485592 
L 134.361541 215.047288 
L 145.36678 218.153605 
L 156.372018 216.224908 
L 167.377257 212.443917 
L 178.382496 199.683289 
L 189.387735 218.053387 
L 194.890354 194.363054 
L 211.398213 223.291378 
L 222.403451 214.399398 
L 233.40869 195.404986 
L 244.413929 220.004043 
L 255.419168 201.133299 
L 266.424407 196.537157 
L 277.429646 216.184477 
L 288.434884 214.585002 
L 299.440123 217.89118 
L 310.445362 199.703679 
L 321.450601 225.970799 
L 332.45584 224.893407 
L 343.461079 209.689876 
L 354.466317 210.743057 
L 365.471556 216.66067 
L 376.476795 229.775221 
L 387.482034 226.820799 
L 387.504258 346.6 
" clip-path="url(#p8f8d326d49)" style="fill: none; stroke: #a52a2a; stroke-width: 1.5; stroke-linecap: square"/>
    <defs>
     <path id="mf6c03112ea" d="M 0 3 
C 0.795609 3 1.55874 2.683901 2.12132 2.12132 
C 2.683901 1.55874 3 0.795609 3 0 
C 3 -0.795609 2.683901 -1.55874 2.12132 -2.12132 
C 1.55874 -2.683901 0.795609 -3 0 -3 
C -0.795609 -3 -1.55874 -2.683901 -2.12132 -2.12132 
C -2.683901 -1.55874 -3 -0.795609 -3 0 
C -3 0.795609 -2.683901 1.55874 -2.12132 2.12132 
C -1.55874 2.683901 -0.795609 3 0 3 
z
" style="stroke: #a52a2a"/>
    </defs>
    <g clip-path="url(#p8f8d326d49)">
     <use xlink:href="#mf6c03112ea" x="73.832727" y="238.831693" style="fill: #a52a2a; stroke: #a52a2a"/>
     <use xlink:href="#mf6c03112ea" x="79.335347" y="188.831983" style="fill: #a52a2a; stroke: #a52a2a"/>
     <use xlink:href="#mf6c03112ea" x="90.340586" y="198.65153" style="fill: #a52a2a; stroke: #a52a2a"/>
     <use xlink:href="#mf6c03112ea" x="101.345824" y="194.442337" style="fill: #a52a2a; stroke: #a52a2a"/>
     <use xlink:href="#mf6c03112ea" x="112.351063" y="203.130161" style="fill: #a52a2a; stroke: #a52a2a"/>
     <use xlink:href="#mf6c03112ea" x="123.356302" y="277.485592" style="fill: #a52a2a; stroke: #a52a2a"/>
     <use xlink:href="#mf6c03112ea" x="134.361541" y="215.047288" style="fill: #a52a2a; stroke: #a52a2a"/>
     <use xlink:href="#mf6c03112ea" x="145.36678" y="218.153605" style="fill: #a52a2a; stroke: #a52a2a"/>
     <use xlink:href="#mf6c03112ea" x="156.372018" y="216.224908" style="fill: #a52a2a; stroke: #a52a2a"/>
     <use xlink:href="#mf6c03112ea" x="167.377257" y="212.443917" style="fill: #a52a2a; stroke: #a52a2a"/>
     <use xlink:href="#mf6c03112ea" x="178.382496" y="199.683289" style="fill: #a52a2a; stroke: #a52a2a"/>
     <use xlink:href="#mf6c03112ea" x="189.387735" y="218.053387" style="fill: #a52a2a; stroke: #a52a2a"/>
     <use xlink:href="#mf6c03112ea" x="194.890354" y="194.363054" style="fill: #a52a2a; stroke: #a52a2a"/>
     <use xlink:href="#mf6c03112ea" x="211.398213" y="223.291378" style="fill: #a52a2a; stroke: #a52a2a"/>
     <use xlink:href="#mf6c03112ea" x="222.403451" y="214.399398" style="fill: #a52a2a; stroke: #a52a2a"/>
     <use xlink:href="#mf6c03112ea" x="233.40869" y="195.404986" style="fill: #a52a2a; stroke: #a52a2a"/>
     <use xlink:href="#mf6c03112ea" x="244.413929" y="220.004043" style="fill: #a52a2a; stroke: #a52a2a"/>
     <use xlink:href="#mf6c03112ea" x="255.419168" y="201.133299" style="fill: #a52a2a; stroke: #a52a2a"/>
     <use xlink:href="#mf6c03112ea" x="266.424407" y="196.537157" style="fill: #a52a2a; stroke: #a52a2a"/>
     <use xlink:href="#mf6c03112ea" x="277.429646" y="216.184477" style="fill: #a52a2a; stroke: #a52a2a"/>
     <use xlink:href="#mf6c03112ea" x="288.434884" y="214.585002" style="fill: #a52a2a; stroke: #a52a2a"/>
     <use xlink:href="#mf6c03112ea" x="299.440123" y="217.89118" style="fill: #a52a2a; stroke: #a52a2a"/>
     <use xlink:href="#mf6c03112ea" x="310.445362" y="199.703679" style="fill: #a52a2a; stroke: #a52a2a"/>
     <use xlink:href="#mf6c03112ea" x="321.450601" y="225.970799" style="fill: #a52a2a; stroke: #a52a2a"/>
     <use xlink:href="#mf6c03112ea" x="332.45584" y="224.893407" style="fill: #a52a2a; stroke: #a52a2a"/>
     <use xlink:href="#mf6c03112ea" x="343.461079" y="209.689876" style="fill: #a52a2a; stroke: #a52a2a"/>
     <use xlink:href="#mf6c03112ea" x="354.466317" y="210.743057" style="fill: #a52a2a; stroke: #a52a2a"/>
     <use xlink:href="#mf6c03112ea" x="365.471556" y="216.66067" style="fill: #a52a2a; stroke: #a52a2a"/>
     <use xlink:href="#mf6c03112ea" x="376.476795" y="229.775221" style="fill: #a52a2a; stroke: #a52a2a"/>
     <use xlink:href="#mf6c03112ea" x="387.482034" y="226.820799" style="fill: #a52a2a; stroke: #a52a2a"/>
     <use xlink:href="#mf6c03112ea" x="392.056963" y="24884.2" style="fill: #a52a2a; stroke: #a52a2a"/>
    </g>
   </g>
   <g id="patch_3">
    <path d="M 57.6 307.584 
L 57.6 41.472 
" style="fill: none; stroke: #000000; stroke-width: 0.8; stroke-linejoin: miter; stroke-linecap: square"/>
   </g>
   <g id="patch_4">
    <path d="M 414.72 307.584 
L 414.72 41.472 
" style="fill: none; stroke: #000000; stroke-width: 0.8; stroke-linejoin: miter; stroke-linecap: square"/>
   </g>
   <g id="patch_5">
    <path d="M 57.6 307.584 
L 414.72 307.584 
" style="fill: none; stroke: #000000; stroke-width: 0.8; stroke-linejoin: miter; stroke-linecap: square"/>
   </g>
   <g id="patch_6">
    <path d="M 57.6 41.472 
L 414.72 41.472 
" style="fill: none; stroke: #000000; stroke-width: 0.8; stroke-linejoin: miter; stroke-linecap: square"/>
   </g>
   <g id="text_14">
    <!-- Evolution of some genomes for t=43 -->
    <g transform="translate(125.631563 35.472) scale(0.12 -0.12)">
     <defs>
      <path id="DejaVuSans-45" d="M 628 4666 
L 3578 4666 
L 3578 4134 
L 1259 4134 
L 1259 2753 
L 3481 2753 
L 3481 2222 
L 1259 2222 
L 1259 531 
L 3634 531 
L 3634 0 
L 628 0 
L 628 4666 
z
" transform="scale(0.015625)"/>
      <path id="DejaVuSans-6f" d="M 1959 3097 
Q 1497 3097 1228 2736 
Q 959 2375 959 1747 
Q 959 1119 1226 758 
Q 1494 397 1959 397 
Q 2419 397 2687 759 
Q 2956 1122 2956 1747 
Q 2956 2369 2687 2733 
Q 2419 3097 1959 3097 
z
M 1959 3584 
Q 2709 3584 3137 3096 
Q 3566 2609 3566 1747 
Q 3566 888 3137 398 
Q 2709 -91 1959 -91 
Q 1206 -91 779 398 
Q 353 888 353 1747 
Q 353 2609 779 3096 
Q 1206 3584 1959 3584 
z
" transform="scale(0.015625)"/>
      <path id="DejaVuSans-66" d="M 2375 4863 
L 2375 4384 
L 1825 4384 
Q 1516 4384 1395 4259 
Q 1275 4134 1275 3809 
L 1275 3500 
L 2222 3500 
L 2222 3053 
L 1275 3053 
L 1275 0 
L 697 0 
L 697 3053 
L 147 3053 
L 147 3500 
L 697 3500 
L 697 3744 
Q 697 4328 969 4595 
Q 1241 4863 1831 4863 
L 2375 4863 
z
" transform="scale(0.015625)"/>
      <path id="DejaVuSans-6d" d="M 3328 2828 
Q 3544 3216 3844 3400 
Q 4144 3584 4550 3584 
Q 5097 3584 5394 3201 
Q 5691 2819 5691 2113 
L 5691 0 
L 5113 0 
L 5113 2094 
Q 5113 2597 4934 2840 
Q 4756 3084 4391 3084 
Q 3944 3084 3684 2787 
Q 3425 2491 3425 1978 
L 3425 0 
L 2847 0 
L 2847 2094 
Q 2847 2600 2669 2842 
Q 2491 3084 2119 3084 
Q 1678 3084 1418 2786 
Q 1159 2488 1159 1978 
L 1159 0 
L 581 0 
L 581 3500 
L 1159 3500 
L 1159 2956 
Q 1356 3278 1631 3431 
Q 1906 3584 2284 3584 
Q 2666 3584 2933 3390 
Q 3200 3197 3328 2828 
z
" transform="scale(0.015625)"/>
      <path id="DejaVuSans-3d" d="M 678 2906 
L 4684 2906 
L 4684 2381 
L 678 2381 
L 678 2906 
z
M 678 1631 
L 4684 1631 
L 4684 1100 
L 678 1100 
L 678 1631 
z
" transform="scale(0.015625)"/>
     </defs>
     <use xlink:href="#DejaVuSans-45"/>
     <use xlink:href="#DejaVuSans-76" x="63.183594"/>
     <use xlink:href="#DejaVuSans-6f" x="122.363281"/>
     <use xlink:href="#DejaVuSans-6c" x="183.544922"/>
     <use xlink:href="#DejaVuSans-75" x="211.328125"/>
     <use xlink:href="#DejaVuSans-74" x="274.707031"/>
     <use xlink:href="#DejaVuSans-69" x="313.916016"/>
     <use xlink:href="#DejaVuSans-6f" x="341.699219"/>
     <use xlink:href="#DejaVuSans-6e" x="402.880859"/>
     <use xlink:href="#DejaVuSans-20" x="466.259766"/>
     <use xlink:href="#DejaVuSans-6f" x="498.046875"/>
     <use xlink:href="#DejaVuSans-66" x="559.228516"/>
     <use xlink:href="#DejaVuSans-20" x="594.433594"/>
     <use xlink:href="#DejaVuSans-73" x="626.220703"/>
     <use xlink:href="#DejaVuSans-6f" x="678.320312"/>
     <use xlink:href="#DejaVuSans-6d" x="739.501953"/>
     <use xlink:href="#DejaVuSans-65" x="836.914062"/>
     <use xlink:href="#DejaVuSans-20" x="898.4375"/>
     <use xlink:href="#DejaVuSans-67" x="930.224609"/>
     <use xlink:href="#DejaVuSans-65" x="993.701172"/>
     <use xlink:href="#DejaVuSans-6e" x="1055.224609"/>
     <use xlink:href="#DejaVuSans-6f" x="1118.603516"/>
     <use xlink:href="#DejaVuSans-6d" x="1179.785156"/>
     <use xlink:href="#DejaVuSans-65" x="1277.197266"/>
     <use xlink:href="#DejaVuSans-73" x="1338.720703"/>
     <use xlink:href="#DejaVuSans-20" x="1390.820312"/>
     <use xlink:href="#DejaVuSans-66" x="1422.607422"/>
     <use xlink:href="#DejaVuSans-6f" x="1457.8125"/>
     <use xlink:href="#DejaVuSans-72" x="1518.994141"/>
     <use xlink:href="#DejaVuSans-20" x="1560.107422"/>
     <use xlink:href="#DejaVuSans-74" x="1591.894531"/>
     <use xlink:href="#DejaVuSans-3d" x="1631.103516"/>
     <use xlink:href="#DejaVuSans-34" x="1714.892578"/>
     <use xlink:href="#DejaVuSans-33" x="1778.515625"/>
    </g>
   </g>
   <g id="legend_1">
    <g id="patch_7">
     <path d="M 216.31 302.584 
L 256.01 302.584 
Q 258.01 302.584 258.01 300.584 
L 258.01 228.193375 
Q 258.01 226.193375 256.01 226.193375 
L 216.31 226.193375 
Q 214.31 226.193375 214.31 228.193375 
L 214.31 300.584 
Q 214.31 302.584 216.31 302.584 
z
" style="fill: #ffffff; opacity: 0.8; stroke: #cccccc; stroke-linejoin: miter"/>
    </g>
    <g id="line2d_55">
     <path d="M 218.31 234.291812 
L 228.31 234.291812 
L 238.31 234.291812 
" style="fill: none; stroke: #0000ff; stroke-width: 1.5; stroke-linecap: square"/>
     <g>
      <use xlink:href="#m004efc31e1" x="228.31" y="234.291812" style="fill: #0000ff; stroke: #0000ff"/>
     </g>
    </g>
    <g id="text_15">
     <!-- A -->
     <g transform="translate(246.31 237.791812) scale(0.1 -0.1)">
      <defs>
       <path id="DejaVuSans-41" d="M 2188 4044 
L 1331 1722 
L 3047 1722 
L 2188 4044 
z
M 1831 4666 
L 2547 4666 
L 4325 0 
L 3669 0 
L 3244 1197 
L 1141 1197 
L 716 0 
L 50 0 
L 1831 4666 
z
" transform="scale(0.015625)"/>
      </defs>
      <use xlink:href="#DejaVuSans-41"/>
     </g>
    </g>
    <g id="line2d_56">
     <path d="M 218.31 248.969937 
L 228.31 248.969937 
L 238.31 248.969937 
" style="fill: none; stroke: #008000; stroke-width: 1.5; stroke-linecap: square"/>
     <g>
      <use xlink:href="#m2bf69d99cf" x="228.31" y="248.969937" style="fill: #008000; stroke: #008000"/>
     </g>
    </g>
    <g id="text_16">
     <!-- B -->
     <g transform="translate(246.31 252.469937) scale(0.1 -0.1)">
      <defs>
       <path id="DejaVuSans-42" d="M 1259 2228 
L 1259 519 
L 2272 519 
Q 2781 519 3026 730 
Q 3272 941 3272 1375 
Q 3272 1813 3026 2020 
Q 2781 2228 2272 2228 
L 1259 2228 
z
M 1259 4147 
L 1259 2741 
L 2194 2741 
Q 2656 2741 2882 2914 
Q 3109 3088 3109 3444 
Q 3109 3797 2882 3972 
Q 2656 4147 2194 4147 
L 1259 4147 
z
M 628 4666 
L 2241 4666 
Q 2963 4666 3353 4366 
Q 3744 4066 3744 3513 
Q 3744 3084 3544 2831 
Q 3344 2578 2956 2516 
Q 3422 2416 3680 2098 
Q 3938 1781 3938 1306 
Q 3938 681 3513 340 
Q 3088 0 2303 0 
L 628 0 
L 628 4666 
z
" transform="scale(0.015625)"/>
      </defs>
      <use xlink:href="#DejaVuSans-42"/>
     </g>
    </g>
    <g id="line2d_57">
     <path d="M 218.31 263.648062 
L 228.31 263.648062 
L 238.31 263.648062 
" style="fill: none; stroke: #ffff00; stroke-width: 1.5; stroke-linecap: square"/>
     <g>
      <use xlink:href="#m6ad7e054ef" x="228.31" y="263.648062" style="fill: #ffff00; stroke: #ffff00"/>
     </g>
    </g>
    <g id="text_17">
     <!-- C -->
     <g transform="translate(246.31 267.148062) scale(0.1 -0.1)">
      <defs>
       <path id="DejaVuSans-43" d="M 4122 4306 
L 4122 3641 
Q 3803 3938 3442 4084 
Q 3081 4231 2675 4231 
Q 1875 4231 1450 3742 
Q 1025 3253 1025 2328 
Q 1025 1406 1450 917 
Q 1875 428 2675 428 
Q 3081 428 3442 575 
Q 3803 722 4122 1019 
L 4122 359 
Q 3791 134 3420 21 
Q 3050 -91 2638 -91 
Q 1578 -91 968 557 
Q 359 1206 359 2328 
Q 359 3453 968 4101 
Q 1578 4750 2638 4750 
Q 3056 4750 3426 4639 
Q 3797 4528 4122 4306 
z
" transform="scale(0.015625)"/>
      </defs>
      <use xlink:href="#DejaVuSans-43"/>
     </g>
    </g>
    <g id="line2d_58">
     <path d="M 218.31 278.326188 
L 228.31 278.326188 
L 238.31 278.326188 
" style="fill: none; stroke: #000000; stroke-width: 1.5; stroke-linecap: square"/>
     <g>
      <use xlink:href="#m54a3527b90" x="228.31" y="278.326188" style="stroke: #000000"/>
     </g>
    </g>
    <g id="text_18">
     <!-- X -->
     <g transform="translate(246.31 281.826188) scale(0.1 -0.1)">
      <defs>
       <path id="DejaVuSans-58" d="M 403 4666 
L 1081 4666 
L 2241 2931 
L 3406 4666 
L 4084 4666 
L 2584 2425 
L 4184 0 
L 3506 0 
L 2194 1984 
L 872 0 
L 191 0 
L 1856 2491 
L 403 4666 
z
" transform="scale(0.015625)"/>
      </defs>
      <use xlink:href="#DejaVuSans-58"/>
     </g>
    </g>
    <g id="line2d_59">
     <path d="M 218.31 293.004312 
L 228.31 293.004312 
L 238.31 293.004312 
" style="fill: none; stroke: #a52a2a; stroke-width: 1.5; stroke-linecap: square"/>
     <g>
      <use xlink:href="#mf6c03112ea" x="228.31" y="293.004312" style="fill: #a52a2a; stroke: #a52a2a"/>
     </g>
    </g>
    <g id="text_19">
     <!-- D -->
     <g transform="translate(246.31 296.504312) scale(0.1 -0.1)">
      <defs>
       <path id="DejaVuSans-44" d="M 1259 4147 
L 1259 519 
L 2022 519 
Q 2988 519 3436 956 
Q 3884 1394 3884 2338 
Q 3884 3275 3436 3711 
Q 2988 4147 2022 4147 
L 1259 4147 
z
M 628 4666 
L 1925 4666 
Q 3281 4666 3915 4102 
Q 4550 3538 4550 2338 
Q 4550 1131 3912 565 
Q 3275 0 1925 0 
L 628 0 
L 628 4666 
z
" transform="scale(0.015625)"/>
      </defs>
      <use xlink:href="#DejaVuSans-44"/>
     </g>
    </g>
   </g>
  </g>
 </g>
 <defs>
  <clipPath id="p8f8d326d49">
   <rect x="57.6" y="41.472" width="357.12" height="266.112"/>
  </clipPath>
 </defs>
</svg>
